<svg width="21" height="15" viewBox="0 0 21 15" fill="none" xmlns="http://www.w3.org/2000/svg">
<g clip-path="url(#clip0_6947_99027)">
<g clip-path="url(#clip1_6947_99027)">
<path d="M-0.362069 -0.170456H21.3621V15.1705H-0.362069V-0.170456Z" fill="#012169"/>
<path d="M16.077 5.59517L16.1449 5.65909L16.077 5.59517Z" fill="#49497D"/>
<path d="M16.1449 5.59517L16.2128 5.65909L16.1449 5.59517Z" fill="#0E0E6E"/>
<path d="M15.9378 5.65909L16.0057 5.72301L15.9378 5.65909Z" fill="#262678"/>
<path d="M16.0091 5.65909L16.077 5.72301L16.0091 5.65909Z" fill="#808067"/>
<path d="M16.2128 5.65909L16.2807 5.72301L16.2128 5.65909Z" fill="#58587B"/>
<path d="M13.6636 5.72621L13.7315 5.79013L13.6636 5.72621Z" fill="#0E0E6E"/>
<path d="M15.802 5.72621L15.8699 5.79013L15.802 5.72621Z" fill="#1B1B74"/>
<path d="M15.8699 5.72621L15.9378 5.79013L15.8699 5.72621Z" fill="#6E6C70"/>
<path d="M13.7858 5.83807C13.7858 7.51918 13.5821 9.40803 14.9059 10.7216C15.1775 10.9901 15.7002 11.6069 16.1449 11.5845C16.6099 11.5589 17.2107 10.9102 17.4755 10.5938C18.6296 9.16193 18.4497 7.45526 18.487 5.79332C17.9677 6.01385 17.7063 6.08736 17.2515 6.08097C16.912 6.11293 16.3927 5.90519 16.0804 5.76136C15.8767 5.8892 15.5814 6.04581 15.0485 6.06179C14.4375 6.08736 14.2406 5.98828 13.7858 5.83807V5.83807Z" fill="#CCCC33"/>
<path d="M16.284 5.72621L16.3519 5.79013L16.284 5.72621Z" fill="#99994E"/>
<path d="M16.3519 5.72621L16.4198 5.79013L16.3519 5.72621Z" fill="#49497D"/>
<path d="M18.487 5.72621L18.5549 5.79013L18.487 5.72621Z" fill="#0E0E6E"/>
<path d="M13.7349 5.79013L13.8027 5.85405L13.7349 5.79013Z" fill="#A4A43D"/>
<path d="M13.8027 5.79013L13.8706 5.85405L13.8027 5.79013Z" fill="#6E6C70"/>
<path d="M13.8706 5.79013L13.9385 5.85405L13.8706 5.79013Z" fill="#3A3A7C"/>
<path d="M15.6595 5.79013L15.7274 5.85405L15.6595 5.79013Z" fill="#1B1B74"/>
<path d="M15.7274 5.79013L15.7953 5.85405L15.7274 5.79013Z" fill="#6E6C70"/>
<path d="M15.802 5.79013L15.8699 5.85405L15.802 5.79013Z" fill="#A4A43D"/>
<path d="M16.077 5.79013L16.1449 5.85405L16.077 5.79013Z" fill="#D0D045"/>
<path d="M16.3519 5.79013L16.4198 5.85405L16.3519 5.79013Z" fill="#A4A43D"/>
<path d="M16.4198 5.79013L16.4877 5.85405L16.4198 5.79013Z" fill="#8D8D5B"/>
<path d="M16.4911 5.79013L16.559 5.85405L16.4911 5.79013Z" fill="#3A3A7C"/>
<path d="M18.28 5.79013L18.3478 5.85405L18.28 5.79013Z" fill="#262678"/>
<path d="M18.3512 5.79013L18.4191 5.85405L18.3512 5.79013Z" fill="#53527C"/>
<path d="M18.4191 5.79013L18.487 5.85405L18.4191 5.79013Z" fill="#8D8D5B"/>
<path d="M14.0098 5.85724L14.0777 5.92116L14.0098 5.85724Z" fill="#737370"/>
<path d="M14.0777 5.85724L14.1456 5.92116L14.0777 5.85724Z" fill="#53527C"/>
<path d="M14.1456 5.85724L14.2135 5.92116L14.1456 5.85724Z" fill="#1B1B74"/>
<path d="M15.5237 5.85724L15.5916 5.92116L15.5237 5.85724Z" fill="#262678"/>
<path d="M15.5916 5.85724L15.6595 5.92116L15.5916 5.85724Z" fill="#6E6C70"/>
<path d="M15.6595 5.85724L15.7274 5.92116L15.6595 5.85724Z" fill="#A4A43D"/>
<path d="M16.0091 5.85724L16.077 5.92116L16.0091 5.85724Z" fill="#E5E59D"/>
<path d="M13.9249 6.02344C13.891 6.90554 13.9182 7.89631 14.0607 8.83594C14.227 9.33132 14.2033 9.60298 14.4443 9.89702L17.8047 9.87145C18.0084 9.56144 18.1612 9.09162 18.1781 8.90305C18.3682 7.95384 18.3716 6.90234 18.3784 5.96271C18.0088 6.15412 17.5866 6.23652 17.1666 6.19922C16.8019 6.17859 16.4473 6.07789 16.1313 5.90519C15.8088 6.08416 15.6968 6.16726 15.1673 6.18963C14.7532 6.20881 14.4205 6.24077 13.9249 6.02344Z" fill="white"/>
<path d="M16.1449 5.85724L16.2128 5.92116L16.1449 5.85724Z" fill="#F2F1D7"/>
<path d="M16.2128 5.85724L16.2807 5.92116L16.2128 5.85724Z" fill="#D9D868"/>
<path d="M16.4911 5.85724L16.559 5.92116L16.4911 5.85724Z" fill="#A4A43D"/>
<path d="M16.559 5.85724L16.6269 5.92116L16.559 5.85724Z" fill="#99994E"/>
<path d="M16.6269 5.85724L16.6948 5.92116L16.6269 5.85724Z" fill="#49497D"/>
<path d="M16.6948 5.85724L16.7627 5.92116L16.6948 5.85724Z" fill="#0E0E6E"/>
<path d="M18.0763 5.85724L18.1442 5.92116L18.0763 5.85724Z" fill="#3A3A7C"/>
<path d="M18.1442 5.85724L18.2121 5.92116L18.1442 5.85724Z" fill="#666677"/>
<path d="M18.2121 5.85724L18.28 5.92116L18.2121 5.85724Z" fill="#99994E"/>
<path d="M18.28 5.85724L18.3478 5.92116L18.28 5.85724ZM14.1456 5.92116L14.2135 5.98508L14.1456 5.92116Z" fill="#A4A43D"/>
<path d="M14.2169 5.92117L14.2848 5.98509L14.2169 5.92117Z" fill="#99994E"/>
<path d="M14.2848 5.92117L14.3526 5.98509L14.2848 5.92117Z" fill="#6E6C70"/>
<path d="M14.3526 5.92117L14.4205 5.98509L14.3526 5.92117Z" fill="#49497D"/>
<path d="M14.4205 5.92117L14.4884 5.98509L14.4205 5.92117ZM15.3166 5.92117L15.3845 5.98509L15.3166 5.92117Z" fill="#1B1B74"/>
<path d="M15.3845 5.92117L15.4524 5.98509L15.3845 5.92117Z" fill="#53527C"/>
<path d="M15.4558 5.92117L15.5237 5.98509L15.4558 5.92117Z" fill="#8D8D5B"/>
<path d="M15.5237 5.92117L15.5916 5.98509L15.5237 5.92117Z" fill="#A4A43D"/>
<path d="M15.8699 5.92117L15.9378 5.98509L15.8699 5.92117Z" fill="#E5E59D"/>
<path d="M15.9378 5.92117L16.0057 5.98509L15.9378 5.92117Z" fill="#FBFAF2"/>
<path d="M16.284 5.92117L16.3519 5.98509L16.284 5.92117Z" fill="#F2F1D2"/>
<path d="M16.3519 5.92117L16.4198 5.98509L16.3519 5.92117Z" fill="#D9D868"/>
<path d="M16.6948 5.92117L16.7627 5.98509L16.6948 5.92117Z" fill="#A4A43D"/>
<path d="M16.7661 5.92117L16.8339 5.98509L16.7661 5.92117Z" fill="#6E6C70"/>
<path d="M16.8339 5.92117L16.9018 5.98509L16.8339 5.92117Z" fill="#3A3A7C"/>
<path d="M17.7301 5.92117L17.798 5.98509L17.7301 5.92117Z" fill="#0E0E6E"/>
<path d="M17.798 5.92117L17.8658 5.98509L17.798 5.92117Z" fill="#32327B"/>
<path d="M17.8658 5.92117L17.9337 5.98509L17.8658 5.92117Z" fill="#58587B"/>
<path d="M17.9337 5.92117L18.0016 5.98509L17.9337 5.92117Z" fill="#808067"/>
<path d="M18.0525 5.94034L18.0967 5.96271L18.0525 5.94034Z" fill="#A4A43D"/>
<path d="M13.8706 5.98508L13.9385 6.04901L13.8706 5.98508Z" fill="#DDDC7A"/>
<path d="M13.9385 5.98508L14.0064 6.04901L13.9385 5.98508Z" fill="#D0D045"/>
<path d="M14.468 6.00426L14.5156 6.02663L14.468 6.00426Z" fill="#A4A43D"/>
<path d="M14.5597 5.98508L14.6276 6.04901L14.5597 5.98508Z" fill="#808067"/>
<path d="M14.6276 5.98508L14.6955 6.04901L14.6276 5.98508Z" fill="#666677"/>
<path d="M14.6989 5.98508L14.7668 6.04901L14.6989 5.98508Z" fill="#58587B"/>
<path d="M14.7668 5.98508L14.8346 6.04901L14.7668 5.98508Z" fill="#49497D"/>
<path d="M15.1809 5.98508L15.2488 6.04901L15.1809 5.98508Z" fill="#737370"/>
<path d="M15.2488 5.98508L15.3166 6.04901L15.2488 5.98508Z" fill="#99994E"/>
<path d="M15.3166 5.98508L15.3845 6.04901L15.3166 5.98508Z" fill="#A4A43D"/>
<path d="M15.7274 5.98508L15.7953 6.04901L15.7274 5.98508Z" fill="#E5E59D"/>
<path d="M15.802 5.98508L15.8699 6.04901L15.802 5.98508Z" fill="#FBFAF2"/>
<path d="M16.4198 5.98508L16.4877 6.04901L16.4198 5.98508Z" fill="#F2F1D2"/>
<path d="M16.4911 5.98508L16.559 6.04901L16.4911 5.98508Z" fill="#D9D868"/>
<path d="M16.8781 6.00426L16.9256 6.02663L16.8815 6.00426H16.8781Z" fill="#A4A43D"/>
<path d="M16.9731 5.98508L17.041 6.04901L16.9731 5.98508Z" fill="#808067"/>
<path d="M17.041 5.98508L17.1089 6.04901L17.041 5.98508Z" fill="#666677"/>
<path d="M17.1089 5.98508L17.1768 6.04901L17.1089 5.98508Z" fill="#58587B"/>
<path d="M17.1802 5.98508L17.2481 6.04901L17.1802 5.98508Z" fill="#3A3A7C"/>
<path d="M17.4992 6.00426L17.5468 6.02663L17.4992 6.00426Z" fill="#58587B"/>
<path d="M17.5909 5.98508L17.6588 6.04901L17.5909 5.98508Z" fill="#737370"/>
<path d="M17.6588 5.98508L17.7267 6.04901L17.6588 5.98508Z" fill="#99994E"/>
<path d="M17.7301 5.98508L17.798 6.04901L17.7301 5.98508Z" fill="#A4A43D"/>
<path d="M18.28 5.98508L18.3478 6.04901L18.28 5.98508Z" fill="#DDDC7A"/>
<path d="M18.3512 5.98508L18.4191 6.04901L18.3512 5.98508Z" fill="#D0D045"/>
<path d="M14.0098 6.049L14.0777 6.11292L14.0098 6.049Z" fill="#F2F1D7"/>
<path d="M14.0777 6.049L14.1456 6.11292L14.0777 6.049Z" fill="#E0DEA1"/>
<path d="M14.1456 6.049L14.2135 6.11292L14.1456 6.049Z" fill="#DDDC7A"/>
<path d="M15.5237 6.049L15.5916 6.11292L15.5237 6.049Z" fill="#D9D868"/>
<path d="M15.5916 6.049L15.6595 6.11292L15.5916 6.049Z" fill="#E5E3AF"/>
<path d="M16.559 6.049L16.6269 6.11292L16.559 6.049Z" fill="#F6F6E4"/>
<path d="M16.6269 6.049L16.6948 6.11292L16.6269 6.049Z" fill="#E1E18C"/>
<path d="M18.0016 6.049L18.0695 6.11292L18.0016 6.049Z" fill="#D4D456"/>
<path d="M18.0763 6.049L18.1442 6.11292L18.0763 6.049Z" fill="#E1E18C"/>
<path d="M18.1442 6.049L18.2121 6.11292L18.1442 6.049Z" fill="#EEEDC1"/>
<path d="M14.2848 6.11293L14.3526 6.17685L14.2848 6.11293Z" fill="#F2F1D2"/>
<path d="M14.3526 6.11293L14.4205 6.17685L14.3526 6.11293Z" fill="#E0DEA1"/>
<path d="M14.4205 6.11293L14.4884 6.17685L14.4205 6.11293Z" fill="#DDDC7A"/>
<path d="M14.4918 6.11293L14.5597 6.17685L14.4918 6.11293Z" fill="#D0D045"/>
<path d="M15.3166 6.11293L15.3845 6.17685L15.3166 6.11293Z" fill="#DDDC7A"/>
<path d="M15.3845 6.11293L15.4524 6.17685L15.3845 6.11293Z" fill="#E5E3AF"/>
<path d="M15.4558 6.11293L15.5237 6.17685L15.4558 6.11293Z" fill="#F6F6E4"/>
<path d="M16.7661 6.11293L16.8339 6.17685L16.7661 6.11293Z" fill="#EEEDC1"/>
<path d="M16.8339 6.11293L16.9018 6.17685L16.8339 6.11293Z" fill="#E1E18C"/>
<path d="M16.9018 6.11293L16.9697 6.17685L16.9018 6.11293Z" fill="#D4D456"/>
<path d="M17.7301 6.11293L17.798 6.17685L17.7301 6.11293Z" fill="#D9D868"/>
<path d="M17.798 6.11293L17.8658 6.17685L17.798 6.11293Z" fill="#E1E18C"/>
<path d="M17.8658 6.11293L17.9337 6.17685L17.8658 6.11293Z" fill="#EEEDC1"/>
<path d="M17.9337 6.11293L18.0016 6.17685L17.9337 6.11293Z" fill="#F6F6E4"/>
<path d="M14.6276 6.17685L14.6955 6.24077L14.6276 6.17685Z" fill="#F2F1D7"/>
<path d="M14.6989 6.17685L14.7668 6.24077L14.6989 6.17685Z" fill="#F2F1D2"/>
<path d="M14.7668 6.17685L14.8346 6.24077L14.7668 6.17685Z" fill="#EEEDC1"/>
<path d="M15.0892 6.19922L15.1334 6.22159L15.0892 6.19922Z" fill="#F2F1D2"/>
<path d="M15.1809 6.17685L15.2488 6.24077L15.1809 6.17685Z" fill="#FBFAF2"/>
<path d="M15.5237 6.17685L15.6595 6.30469V6.17685H15.5237Z" fill="#FEF8F1"/>
<path d="M17.041 6.17685L17.1089 6.24077L17.041 6.17685Z" fill="#F2F1D7"/>
<path d="M17.1089 6.17685L17.1768 6.24077L17.1089 6.17685Z" fill="#F2F1D2"/>
<path d="M17.1802 6.17685L17.2481 6.24077L17.1802 6.17685Z" fill="#E5E3AF"/>
<path d="M17.2956 6.19922L17.3397 6.22159L17.2922 6.19922H17.2956Z" fill="#E5E59D"/>
<path d="M17.3872 6.17685L17.4551 6.24077L17.3872 6.17685Z" fill="#E0DEA1"/>
<path d="M17.4992 6.19922L17.5468 6.22159L17.4992 6.19922Z" fill="#F2F1D2"/>
<path d="M17.5909 6.17685L17.6588 6.24077L17.5909 6.17685Z" fill="#FBFAF2"/>
<path d="M15.3845 6.24396L15.4524 6.30788L15.3845 6.24396Z" fill="#FEF8F1"/>
<path d="M15.4558 6.24396L15.5237 6.30788L15.4558 6.24396Z" fill="#FBBE66"/>
<path d="M15.3845 6.30788L15.4524 6.3718L15.3845 6.30788Z" fill="#FBC477"/>
<path d="M15.5237 6.30788L15.5916 6.3718L15.5237 6.30788Z" fill="#FCB144"/>
<path d="M15.3845 6.375L15.4524 6.43892L15.3845 6.375Z" fill="#FE9F11"/>
<path d="M15.5237 6.375L15.5916 6.43892L15.5237 6.375Z" fill="#FEA522"/>
<path d="M15.3166 6.43892L15.3845 6.50284L15.3166 6.43892ZM15.595 6.43892L15.6629 6.50284L15.595 6.43892Z" fill="#FAE3C9"/>
<path d="M15.9378 6.43892L16.0057 6.50284L15.9378 6.43892Z" fill="#FBEAD6"/>
<path d="M16.0091 6.43892L16.077 6.50284L16.0091 6.43892Z" fill="#F9D6AA"/>
<path d="M16.284 6.43892L16.3519 6.50284L16.284 6.43892Z" fill="#FAE3C9"/>
<path d="M16.3519 6.43892L16.4198 6.50284L16.3519 6.43892Z" fill="#FEF8F1"/>
<path d="M15.3166 6.50284L15.3845 6.56676L15.3166 6.50284Z" fill="#F9D099"/>
<path d="M15.5916 6.50284L15.6595 6.56676L15.5916 6.50284Z" fill="#FDAB33"/>
<path d="M15.7274 6.50284L15.7953 6.56676L15.7274 6.50284Z" fill="#FCF1E4"/>
<path d="M15.802 6.50284L15.8699 6.56676L15.802 6.50284Z" fill="#FBC477"/>
<path d="M15.8699 6.50284L15.9378 6.56676L15.8699 6.50284Z" fill="#FEA522"/>
<path d="M16.4198 6.50284L16.4877 6.56676L16.4198 6.50284Z" fill="#FCB755"/>
<path d="M16.4911 6.50284L16.559 6.56676L16.4911 6.50284Z" fill="#F9D6AA"/>
<path d="M15.3166 6.56995L15.3845 6.63387L15.3166 6.56995Z" fill="#FACA88"/>
<path d="M15.6595 6.56995L15.7274 6.63387L15.6595 6.56995ZM16.559 6.56995L16.6269 6.63387L16.559 6.56995Z" fill="#FEA522"/>
<path d="M16.6269 6.56995L16.6948 6.63387L16.6269 6.56995Z" fill="#F8DCBB"/>
<path d="M13.8706 6.63388L13.9385 6.6978L13.8706 6.63388Z" fill="#F6F6E4"/>
<path d="M15.3166 6.63388L15.3845 6.6978L15.3166 6.63388Z" fill="#FBC477"/>
<path d="M16.6948 6.63388L16.7627 6.6978L16.6948 6.63388Z" fill="#FBBE66"/>
<path d="M16.7661 6.63388L16.8339 6.6978L16.7661 6.63388Z" fill="#F8DCBB"/>
<path d="M15.3166 6.6978L15.3845 6.76172L15.3166 6.6978Z" fill="#FACA88"/>
<path d="M16.9018 6.6978L16.9697 6.76172L16.9018 6.6978Z" fill="#FCB755"/>
<path d="M16.9731 6.6978L17.041 6.76172L16.9731 6.6978Z" fill="#F8DCBB"/>
<path d="M15.2488 6.76492L15.3166 6.82884L15.2488 6.76492Z" fill="#FEF8F1"/>
<path d="M15.3166 6.76492L15.3845 6.82884L15.3166 6.76492Z" fill="#FE9F11"/>
<path d="M17.2481 6.76492L17.3159 6.82884L17.2481 6.76492Z" fill="#FDAB33"/>
<path d="M17.3193 6.76492L17.3872 6.82884L17.3193 6.76492Z" fill="#FCB144"/>
<path d="M17.3872 6.76492L17.4551 6.82884L17.3872 6.76492Z" fill="#FBC477"/>
<path d="M17.4551 6.76492L17.5909 6.89276L17.4551 6.76492Z" fill="#F9D6AA"/>
<path d="M17.523 6.76492L17.5909 6.82884L17.523 6.76492Z" fill="#FEF8F1"/>
<path d="M15.2488 6.82883L15.3166 6.89276L15.2488 6.82883Z" fill="#FCB144"/>
<path d="M16.2128 6.82883L16.2807 6.89276L16.2128 6.82883Z" fill="#FDAB33"/>
<path d="M16.284 6.82883L16.3519 6.89276L16.284 6.82883ZM16.5556 6.82883L16.6235 6.89276L16.5556 6.82883Z" fill="#FBC477"/>
<path d="M16.6269 6.82883L16.6948 6.89276L16.6269 6.82883Z" fill="#FEA522"/>
<path d="M15.1809 6.89275L15.2488 6.95667L15.1809 6.89275Z" fill="#FAE3C9"/>
<path d="M16.077 6.89275L16.1449 6.95667L16.077 6.89275Z" fill="#FCB144"/>
<path d="M16.1449 6.89275L16.2128 6.95667L16.1449 6.89275Z" fill="#FAE3C9"/>
<path d="M16.6948 6.89275L16.7627 6.95667L16.6948 6.89275Z" fill="#F8DCBB"/>
<path d="M16.7661 6.89275L16.8339 6.95667L16.7661 6.89275Z" fill="#FDAB33"/>
<path d="M17.1802 6.89275L17.2481 6.95667L17.1802 6.89275Z" fill="#FE9F11"/>
<path d="M17.2481 6.89275L17.3159 6.95667L17.2481 6.89275Z" fill="#FCB755"/>
<path d="M17.3193 6.89275L17.3872 6.95667L17.3193 6.89275Z" fill="#F9D099"/>
<path d="M17.3872 6.89275L17.4551 6.95667L17.3872 6.89275Z" fill="#FBEAD6"/>
<path d="M15.1809 6.95668L15.2488 7.0206L15.1809 6.95668Z" fill="#FCB144"/>
<path d="M16.0091 6.95668L16.077 7.0206L16.0091 6.95668Z" fill="#FBBE66"/>
<path d="M16.8339 6.95668L16.9018 7.0206L16.8339 6.95668Z" fill="#F9D099"/>
<path d="M17.1089 6.95668L17.1768 7.0206L17.1089 6.95668Z" fill="#FBEAD6"/>
<path d="M15.113 7.0206L15.1809 7.08452L15.113 7.0206Z" fill="#FCF1E4"/>
<path d="M15.9378 7.0206L16.0057 7.08452L15.9378 7.0206Z" fill="#FBBE66"/>
<path d="M16.9018 7.0206L16.9697 7.08452L16.9018 7.0206Z" fill="#F9D099"/>
<path d="M17.1089 7.0206L17.1768 7.08452L17.1089 7.0206Z" fill="#FAE3C9"/>
<path d="M15.113 7.08451L15.1809 7.14844L15.113 7.08451Z" fill="#FBC477"/>
<path d="M15.8699 7.08451L15.9378 7.14844L15.8699 7.08451ZM16.9731 7.08451L17.041 7.14844L16.9731 7.08451Z" fill="#FCB144"/>
<path d="M17.1089 7.08451L17.1768 7.14844L17.1089 7.08451Z" fill="#FBBE66"/>
<path d="M13.8706 7.14844L13.9385 7.21236L13.8706 7.14844Z" fill="#F6F6E4"/>
<path d="M15.113 7.14844L15.1809 7.21236L15.113 7.14844Z" fill="#FEA522"/>
<path d="M15.8699 7.14844L15.9378 7.21236L15.8699 7.14844Z" fill="#FBEAD6"/>
<path d="M16.9731 7.14844L17.041 7.21236L16.9731 7.14844Z" fill="#FCF1E4"/>
<path d="M17.1802 7.14844L17.2481 7.21236L17.1802 7.14844Z" fill="#FEF8F1"/>
<path d="M15.0451 7.21875L15.113 7.28267L15.0451 7.21875Z" fill="#FCF1E4"/>
<path d="M15.802 7.21875L15.8699 7.28267L15.802 7.21875Z" fill="#FBBE66"/>
<path d="M17.041 7.21875L17.1089 7.28267L17.041 7.21875Z" fill="#FACA88"/>
<path d="M17.1802 7.21875L17.2481 7.28267L17.1802 7.21875Z" fill="#F9D099"/>
<path d="M15.0451 7.28267L15.113 7.34659L15.0451 7.28267Z" fill="#F9D6AA"/>
<path d="M15.802 7.28267L15.8699 7.34659L15.802 7.28267Z" fill="#FCF1E4"/>
<path d="M16.1449 7.28267L16.2128 7.34659L16.1449 7.28267Z" fill="#FAE3C9"/>
<path d="M16.2128 7.28267L16.2807 7.34659L16.2128 7.28267Z" fill="#FEA522"/>
<path d="M16.284 7.28267L16.3519 7.34659L16.284 7.28267Z" fill="#FCB144"/>
<path d="M16.3519 7.28267L16.4198 7.34659L16.3519 7.28267Z" fill="#F9D6AA"/>
<path d="M17.041 7.28267L17.1089 7.34659L17.041 7.28267Z" fill="#FEF8F1"/>
<path d="M17.1089 7.28267L17.1768 7.34659L17.1089 7.28267Z" fill="#FEA522"/>
<path d="M17.1802 7.28267L17.2481 7.34659L17.1802 7.28267Z" fill="#FDAB33"/>
<path d="M15.0451 7.34659L14.9738 7.53835L15.0417 7.34659H15.0451Z" fill="#FACA88"/>
<path d="M15.7274 7.34659L15.7953 7.41051L15.7274 7.34659Z" fill="#FEA522"/>
<path d="M15.802 7.34659L15.8699 7.41051L15.802 7.34659Z" fill="#FEF8F1"/>
<path d="M16.1449 7.34659L16.2128 7.41051L16.1449 7.34659Z" fill="#F9D099"/>
<path d="M16.4198 7.34659L16.4877 7.41051L16.4198 7.34659Z" fill="#FDAB33"/>
<path d="M16.4911 7.34659L16.559 7.41051L16.4911 7.34659Z" fill="#FAE3C9"/>
<path d="M17.1089 7.34659L17.1768 7.41051L17.1089 7.34659Z" fill="#F8DCBB"/>
<path d="M17.1802 7.34659L17.2481 7.41051L17.1802 7.34659Z" fill="#FF9900"/>
<path d="M17.2718 7.39133L17.2922 7.43288L17.2718 7.39133Z" fill="#FBEAD6"/>
<path d="M15.8699 7.41051L15.9378 7.47443L15.8699 7.41051Z" fill="#FEA522"/>
<path d="M15.9378 7.41051L16.0057 7.47443L15.9378 7.41051Z" fill="#FBBE66"/>
<path d="M16.0091 7.41051L16.077 7.47443L16.0091 7.41051Z" fill="#FACA88"/>
<path d="M16.077 7.41051L16.1449 7.47443L16.077 7.41051Z" fill="#FCB144"/>
<path d="M16.1449 7.41051L16.2128 7.47443L16.1449 7.41051Z" fill="#FAE3C9"/>
<path d="M16.2128 7.41051L16.2807 7.47443L16.2128 7.41051Z" fill="#FE9F11"/>
<path d="M16.559 7.41051L16.6269 7.47443L16.559 7.41051Z" fill="#FDAB33"/>
<path d="M16.6269 7.41051L16.6948 7.47443L16.6269 7.41051Z" fill="#FBC477"/>
<path d="M16.6948 7.41051L16.7627 7.47443L16.6948 7.41051Z" fill="#FACA88"/>
<path d="M16.7661 7.41051L16.8339 7.47443L16.7661 7.41051Z" fill="#F9D6AA"/>
<path d="M16.8781 7.43288L16.9256 7.45525L16.8815 7.43288H16.8781Z" fill="#FAE3C9"/>
<path d="M16.9731 7.41051L17.041 7.47443L16.9731 7.41051Z" fill="#FEF8F1"/>
<path d="M17.1802 7.41051L17.2481 7.47443L17.1802 7.41051Z" fill="#FBC477"/>
<path d="M14.2169 7.47763L14.2848 7.54155L14.2169 7.47763Z" fill="#FEF8F1"/>
<path d="M14.2848 7.47763L14.3526 7.54155L14.2848 7.47763Z" fill="#FCF1E4"/>
<path d="M16.077 7.47763L16.1449 7.54155L16.077 7.47763Z" fill="#FCB755"/>
<path d="M16.2128 7.47763L16.2807 7.54155L16.2128 7.47763Z" fill="#FBEAD6"/>
<path d="M16.284 7.47763L16.3519 7.54155L16.284 7.47763Z" fill="#FEA522"/>
<path d="M16.8339 7.47763L16.9018 7.54155L16.8339 7.47763Z" fill="#FE9F11"/>
<path d="M16.9018 7.47763L16.8339 7.60547L16.9018 7.47763Z" fill="#FCB144"/>
<path d="M17.041 7.47763L17.1089 7.54155L17.041 7.47763Z" fill="#FE9F11"/>
<path d="M17.1089 7.47763L17.1768 7.54155L17.1089 7.47763Z" fill="#FBBE66"/>
<path d="M17.1802 7.47763L17.2481 7.54155L17.1802 7.47763Z" fill="#FCF1E4"/>
<path d="M14.2169 7.54155L14.2848 7.60547L14.2169 7.54155Z" fill="#FAE3C9"/>
<path d="M14.2848 7.54155L14.4205 7.66939L14.2848 7.54155Z" fill="#FE9F11"/>
<path d="M14.3526 7.54155L14.4205 7.60547L14.3526 7.54155ZM14.9738 7.54155L15.0417 7.60547L14.9738 7.54155Z" fill="#FBEAD6"/>
<path d="M15.0451 7.54155L15.113 7.60547L15.0451 7.54155Z" fill="#FAE3C9"/>
<path d="M15.6595 7.54155L15.7274 7.60547L15.6595 7.54155Z" fill="#FE9F11"/>
<path d="M15.7274 7.54155L15.7953 7.60547L15.7274 7.54155Z" fill="#FBC477"/>
<path d="M15.802 7.54155L15.8699 7.60547L15.802 7.54155Z" fill="#FEA522"/>
<path d="M16.0091 7.54155L16.077 7.60547L16.0091 7.54155Z" fill="#FBC477"/>
<path d="M16.077 7.54155L16.1449 7.60547L16.077 7.54155Z" fill="#FEF8F1"/>
<path d="M16.3519 7.54155L16.4198 7.60547L16.3519 7.54155Z" fill="#FBC477"/>
<path d="M16.9018 7.54155L16.9697 7.60547L16.9018 7.54155Z" fill="white"/>
<path d="M16.9731 7.54155L17.041 7.60547L16.9731 7.54155Z" fill="#FDAB33"/>
<path d="M17.2481 7.54155L17.3159 7.60547L17.2481 7.54155Z" fill="#FBC477"/>
<path d="M14.2169 7.60547L14.2848 7.66939L14.2169 7.60547Z" fill="#FEF8F1"/>
<path d="M14.4205 7.60547L14.4884 7.66939L14.4205 7.60547Z" fill="#FBEAD6"/>
<path d="M14.7668 7.60547L14.8346 7.66939L14.7668 7.60547Z" fill="#F9D6AA"/>
<path d="M15.113 7.60547L15.1809 7.66939L15.113 7.60547Z" fill="#FE9F11"/>
<path d="M15.225 7.62784L15.2725 7.65021L15.225 7.62784Z" fill="#F9D6AA"/>
<path d="M15.6595 7.60547L15.7274 7.66939L15.6595 7.60547Z" fill="#F8DCBB"/>
<path d="M15.8699 7.60547L15.9378 7.66939L15.8699 7.60547Z" fill="#FCF1E4"/>
<path d="M16.4198 7.60547L16.4877 7.66939L16.4198 7.60547Z" fill="#F9D6AA"/>
<path d="M16.9018 7.60547L16.9697 7.66939L16.9018 7.60547Z" fill="#FDAB33"/>
<path d="M17.3193 7.60547L17.3872 7.66939L17.3193 7.60547Z" fill="#FCB755"/>
<path d="M17.3872 7.60547L17.4551 7.66939L17.3872 7.60547Z" fill="#FEF8F1"/>
<path d="M13.6636 7.67258L13.7315 7.73651L13.6636 7.67258Z" fill="#53527C"/>
<path d="M14.2848 7.67258L14.3526 7.73651L14.2848 7.67258Z" fill="#FCB755"/>
<path d="M14.4205 7.67258L14.4884 7.73651L14.4205 7.67258Z" fill="#FEA522"/>
<path d="M14.6989 7.67258L14.7668 7.73651L14.6989 7.67258Z" fill="#FBEAD6"/>
<path d="M14.8346 7.67258L14.9025 7.73651L14.8346 7.67258Z" fill="#FE9F11"/>
<path d="M14.9059 7.67258L14.9738 7.73651L14.9059 7.67258Z" fill="#FCF1E4"/>
<path d="M15.113 7.67258L15.1809 7.73651L15.113 7.67258Z" fill="#FBBE66"/>
<path d="M15.1809 7.67258L15.2488 7.73651L15.1809 7.67258Z" fill="#FBC477"/>
<path d="M15.2488 7.67258L15.3166 7.73651L15.2488 7.67258Z" fill="#FBBE66"/>
<path d="M15.5916 7.67258L15.6595 7.73651L15.5916 7.67258Z" fill="#FEA522"/>
<path d="M16.4911 7.67258L16.559 7.73651L16.4911 7.67258Z" fill="#F9D6AA"/>
<path d="M17.3872 7.67258L17.4551 7.73651L17.3872 7.67258Z" fill="#FCB144"/>
<path d="M18.487 7.67258L18.5549 7.73651L18.487 7.67258Z" fill="#8D8D5B"/>
<path d="M13.8706 7.7365L13.9385 7.80042L13.8706 7.7365Z" fill="#E5E3AF"/>
<path d="M14.2848 7.7365L14.3526 7.80042L14.2848 7.7365Z" fill="#F8DCBB"/>
<path d="M14.4918 7.7365L14.5597 7.80042L14.4918 7.7365Z" fill="#FDAB33"/>
<path d="M14.6989 7.7365L14.7668 7.80042L14.6989 7.7365Z" fill="#FE9F11"/>
<path d="M14.8346 7.7365L14.9025 7.80042L14.8346 7.7365Z" fill="#FACA88"/>
<path d="M15.113 7.7365L15.1809 7.80042L15.113 7.7365Z" fill="#FCF1E4"/>
<path d="M15.5916 7.7365L15.6595 7.80042L15.5916 7.7365ZM16.559 7.7365L16.6269 7.80042L16.559 7.7365Z" fill="#F9D099"/>
<path d="M17.4551 7.7365L17.523 7.80042L17.4551 7.7365Z" fill="#FBBE66"/>
<path d="M14.3526 7.80042L14.4205 7.86434L14.3526 7.80042Z" fill="#FEA522"/>
<path d="M14.5597 7.80042L14.6276 7.86434L14.5597 7.80042Z" fill="#FDAB33"/>
<path d="M14.6276 7.80042L14.6955 7.86434L14.6276 7.80042Z" fill="#FEA522"/>
<path d="M14.7668 7.80042L14.8346 7.86434L14.7668 7.80042Z" fill="#FE9F11"/>
<path d="M14.8346 7.80042L14.9025 7.86434L14.8346 7.80042Z" fill="#FEF8F1"/>
<path d="M15.1809 7.80042L15.2488 7.86434L15.1809 7.80042Z" fill="#FBBE66"/>
<path d="M15.5916 7.80042L15.6595 7.86434L15.5916 7.80042Z" fill="#FEF8F1"/>
<path d="M16.6269 7.80042L16.6948 7.86434L16.6269 7.80042Z" fill="#FBBE66"/>
<path d="M17.523 7.80042L17.5909 7.86434L17.523 7.80042Z" fill="#F9D099"/>
<path d="M14.3526 7.86754L14.4205 7.93146L14.3526 7.86754Z" fill="#F9D6AA"/>
<path d="M14.7668 7.86754L14.8346 7.93146L14.7668 7.86754Z" fill="#F9D099"/>
<path d="M15.1809 7.86754L15.2488 7.93146L15.1809 7.86754Z" fill="#FCF1E4"/>
<path d="M15.5237 7.86754L15.5916 7.93146L15.5237 7.86754ZM16.6948 7.86754L16.7627 7.93146L16.6948 7.86754Z" fill="#FDAB33"/>
<path d="M17.5909 7.86754L17.6588 7.93146L17.5909 7.86754Z" fill="#FBEAD6"/>
<path d="M14.4205 7.93146L14.4884 7.99538L14.4205 7.93146Z" fill="#FEA522"/>
<path d="M14.6989 7.93146L14.7668 7.99538L14.6989 7.93146Z" fill="#FE9F11"/>
<path d="M15.2488 7.93146L15.3166 7.99538L15.2488 7.93146Z" fill="#FCB144"/>
<path d="M15.5237 7.93146L15.5916 7.99538L15.5237 7.93146Z" fill="#FACA88"/>
<path d="M16.6948 7.93146L16.7627 7.99538L16.6948 7.93146Z" fill="#F8DCBB"/>
<path d="M17.5909 7.93146L17.6588 7.99538L17.5909 7.93146Z" fill="#FCB144"/>
<path d="M13.8706 7.99858L13.9385 8.0625L13.8706 7.99858Z" fill="#D3D079"/>
<path d="M14.4205 7.99858L14.4884 8.0625L14.4205 7.99858ZM15.2488 7.99858L15.3166 8.0625L15.2488 7.99858Z" fill="#FACA88"/>
<path d="M15.5237 7.99858L15.5916 8.0625L15.5237 7.99858M16.6948 7.99858L16.7627 8.0625L16.6948 7.99858Z" fill="#FAE3C9"/>
<path d="M17.6588 7.99858L17.7267 8.0625L17.6588 7.99858V7.99858Z" fill="#F8DCBB"/>
<path d="M18.28 7.99858L18.3478 8.0625L18.28 7.99858Z" fill="#F2F1D7"/>
<path d="M18.5108 8.04013L18.5345 8.08168L18.5108 8.04013Z" fill="#58587B"/>
<path d="M13.891 8.10405L13.9182 8.14879L13.8944 8.10405H13.891Z" fill="#D9D868"/>
<path d="M14.4205 8.0625L14.4884 8.12642L14.4205 8.0625Z" fill="#F8DCBB"/>
<path d="M16.6269 8.0625L16.6948 8.12642L16.6269 8.0625Z" fill="#F9D6AA"/>
<path d="M16.6948 8.0625L16.7627 8.12642L16.6948 8.0625Z" fill="#FE9F11"/>
<path d="M17.6588 8.0625L17.7267 8.12642L17.6588 8.0625Z" fill="#FCB144"/>
<path d="M18.3037 8.10405L18.3275 8.14879L18.3037 8.10405Z" fill="#F2F1D2"/>
<path d="M14.4205 8.12642L14.4884 8.19034L14.4205 8.12642Z" fill="#FCF1E4"/>
<path d="M16.559 8.12642L16.6269 8.19034L16.559 8.12642Z" fill="#FEF8F1"/>
<path d="M16.6269 8.12642L16.6948 8.19034L16.6269 8.12642Z" fill="#FE9F11"/>
<path d="M16.8339 8.12642L16.7661 8.25426L16.8339 8.12642Z" fill="#FDAB33"/>
<path d="M16.9018 8.12642L16.9697 8.19034L16.9018 8.12642Z" fill="#FCB755"/>
<path d="M17.7301 8.12642L17.798 8.19034L17.7301 8.12642Z" fill="#FEA522"/>
<path d="M17.798 8.12642L17.8658 8.19034L17.798 8.12642Z" fill="#F9D099"/>
<path d="M18.487 8.12642L18.5549 8.19034L18.487 8.12642Z" fill="#53527C"/>
<path d="M13.7552 8.23508L13.779 8.27663L13.7552 8.23508Z" fill="#808067"/>
<path d="M14.4918 8.19034L14.5597 8.25426L14.4918 8.19034ZM14.6955 8.19034L14.7634 8.25426L14.6955 8.19034Z" fill="#FEA522"/>
<path d="M15.4558 8.19034L15.5237 8.25426L15.4558 8.19034Z" fill="#FE9F11"/>
<path d="M16.559 8.19034L16.6269 8.25426L16.559 8.19034Z" fill="#FAE3C9"/>
<path d="M16.8339 8.19034L16.9018 8.25426L16.8339 8.19034Z" fill="#FEF8F1"/>
<path d="M16.9731 8.19034L17.041 8.25426L16.9731 8.19034Z" fill="#FCB144"/>
<path d="M17.8658 8.19034L17.9337 8.25426L17.8658 8.19034Z" fill="#FCB755"/>
<path d="M17.9337 8.19034L18.0695 8.31818L17.9337 8.19034Z" fill="#FEF8F1"/>
<path d="M18.3037 8.23508L18.3275 8.27663L18.3037 8.23508Z" fill="#E5E59D"/>
<path d="M18.5108 8.23508L18.5345 8.27663L18.5108 8.23508Z" fill="#32327B"/>
<path d="M14.5156 8.299L14.5359 8.34375L14.5156 8.299Z" fill="#FCB755"/>
<path d="M14.7668 8.25426L14.8346 8.31818L14.7668 8.25426Z" fill="#FEF8F1"/>
<path d="M15.4558 8.25426L15.5237 8.31818L15.4558 8.25426Z" fill="#FBBE66"/>
<path d="M16.559 8.25426L16.6269 8.31818L16.559 8.25426Z" fill="#FBEAD6"/>
<path d="M16.6948 8.25426L16.7627 8.31818L16.6948 8.25426Z" fill="#FE9F11"/>
<path d="M16.7661 8.25426L16.8339 8.31818L16.7661 8.25426Z" fill="#FCF1E4"/>
<path d="M16.9731 8.25426L17.041 8.31818L16.9731 8.25426Z" fill="#FBEAD6"/>
<path d="M17.9337 8.25426L18.0016 8.31818L17.9337 8.25426Z" fill="#FDAB33"/>
<path d="M13.7349 8.31818L13.8027 8.3821L13.7349 8.31818Z" fill="#666677"/>
<path d="M13.9385 8.31818L14.0064 8.3821L13.9385 8.31818Z" fill="#F6F6E4"/>
<path d="M14.7668 8.31818L14.8346 8.3821L14.7668 8.31818Z" fill="#F9D6AA"/>
<path d="M15.3166 8.31818L15.3845 8.3821L15.3166 8.31818Z" fill="#FDAB33"/>
<path d="M15.3845 8.31818L15.4524 8.3821L15.3845 8.31818Z" fill="#FE9F11"/>
<path d="M15.4558 8.31818L15.5237 8.3821L15.4558 8.31818Z" fill="#FCF1E4"/>
<path d="M16.6269 8.31818L16.6948 8.3821L16.6269 8.31818Z" fill="#FEA522"/>
<path d="M16.6948 8.31818L16.7627 8.3821L16.6948 8.31818ZM17.041 8.31818L17.1089 8.3821L17.041 8.31818Z" fill="#FACA88"/>
<path d="M18.0016 8.31818L18.0695 8.3821L18.0016 8.31818Z" fill="#FCB144"/>
<path d="M18.28 8.31818L18.3478 8.3821L18.28 8.31818Z" fill="#DDDC7A"/>
<path d="M13.7349 8.3853L13.8027 8.44922L13.7349 8.3853Z" fill="#58587B"/>
<path d="M13.9385 8.3853L14.0064 8.44922L13.9385 8.3853Z" fill="#F2F1D2"/>
<path d="M14.5156 8.42685L14.5359 8.47159L14.5156 8.42685Z" fill="#FCB144"/>
<path d="M14.7668 8.3853L14.8346 8.44922L14.7668 8.3853Z" fill="#FEA522"/>
<path d="M15.4558 8.3853L15.5237 8.44922L15.4558 8.3853Z" fill="#FEF8F1"/>
<path d="M15.5237 8.3853L15.5916 8.44922L15.5237 8.3853Z" fill="#FEA522"/>
<path d="M15.6595 8.3853L15.7274 8.44922L15.6595 8.3853Z" fill="#FCB144"/>
<path d="M15.7274 8.3853L15.7953 8.44922L15.7274 8.3853Z" fill="#FBEAD6"/>
<path d="M16.6269 8.3853L16.6948 8.44922L16.6269 8.3853Z" fill="#F8DCBB"/>
<path d="M16.6948 8.3853L16.7627 8.44922L16.6948 8.3853Z" fill="#FCF1E4"/>
<path d="M17.041 8.3853L17.1089 8.44922L17.041 8.3853Z" fill="#FEF8F1"/>
<path d="M17.1089 8.3853L17.1768 8.44922L17.1089 8.3853Z" fill="#FE9F11"/>
<path d="M18.0763 8.3853L18.1442 8.44922L18.0763 8.3853Z" fill="#FBEAD6"/>
<path d="M18.28 8.3853L18.3478 8.44922L18.28 8.3853Z" fill="#D9D868"/>
<path d="M13.7349 8.44922L13.8027 8.51314L13.7349 8.44922Z" fill="#3A3A7C"/>
<path d="M13.9385 8.44922L14.0064 8.51314L13.9385 8.44922Z" fill="#E5E3AF"/>
<path d="M14.8346 8.44922L14.9025 8.51314L14.8346 8.44922Z" fill="#FACA88"/>
<path d="M15.5237 8.44922L15.5916 8.51314L15.5237 8.44922Z" fill="#FBEAD6"/>
<path d="M15.7274 8.44922L15.7953 8.51314L15.7274 8.44922Z" fill="#FE9F11"/>
<path d="M15.802 8.44922L15.8699 8.51314L15.802 8.44922Z" fill="#FCF1E4"/>
<path d="M16.559 8.44922L16.6269 8.51314L16.559 8.44922Z" fill="#FBEAD6"/>
<path d="M16.6269 8.44922L16.6948 8.51314L16.6269 8.44922Z" fill="#FAE3C9"/>
<path d="M16.6948 8.44922L16.7627 8.51314L16.6948 8.44922Z" fill="#FBEAD6"/>
<path d="M17.1089 8.44922L17.1768 8.51314L17.1089 8.44922ZM17.6622 8.44922L17.7301 8.51314L17.6622 8.44922Z" fill="#FBBE66"/>
<path d="M17.7301 8.44922L17.798 8.51314L17.7301 8.44922Z" fill="#FCF1E4"/>
<path d="M17.798 8.44922L17.8658 8.51314L17.798 8.44922Z" fill="#FEF8F1"/>
<path d="M17.8658 8.44922L17.9337 8.51314L17.8658 8.44922Z" fill="#F8DCBB"/>
<path d="M17.9337 8.44922L18.0016 8.51314L17.9337 8.44922Z" fill="#FCB755"/>
<path d="M18.0763 8.44922L18.1442 8.51314L18.0763 8.44922Z" fill="#FAE3C9"/>
<path d="M18.4191 8.44922L18.487 8.51314L18.4191 8.44922Z" fill="#808067"/>
<path d="M13.7349 8.51633L13.8027 8.58026L13.7349 8.51633Z" fill="#32327B"/>
<path d="M13.8231 8.55469L13.8469 8.60263L13.8265 8.55788L13.8231 8.55469Z" fill="#A4A43D"/>
<path d="M13.9385 8.51633L14.0064 8.58026L13.9385 8.51633Z" fill="#E5E59D"/>
<path d="M14.4918 8.51633L14.5597 8.58026L14.4918 8.51633Z" fill="#FBC477"/>
<path d="M14.9059 8.51633L14.9738 8.58026L14.9059 8.51633Z" fill="#F9D6AA"/>
<path d="M15.5916 8.51633L15.6595 8.58026L15.5916 8.51633Z" fill="#FBBE66"/>
<path d="M15.802 8.51633L15.8699 8.58026L15.802 8.51633Z" fill="#F9D099"/>
<path d="M16.4198 8.51633L16.4877 8.58026L16.4198 8.51633Z" fill="#FAE3C9"/>
<path d="M16.4911 8.51633L16.559 8.58026L16.4911 8.51633Z" fill="#FCB144"/>
<path d="M16.7661 8.51633L16.8339 8.58026L16.7661 8.51633Z" fill="#FAE3C9"/>
<path d="M17.1089 8.51633L17.1768 8.58026L17.1089 8.51633Z" fill="#F8DCBB"/>
<path d="M17.6588 8.51633L17.7267 8.58026L17.6588 8.51633Z" fill="#F9D099"/>
<path d="M18.0016 8.51633L18.0695 8.58026L18.0016 8.51633Z" fill="#FBC477"/>
<path d="M18.0763 8.51633L18.1442 8.58026L18.0763 8.51633Z" fill="#FBEAD6"/>
<path d="M18.4191 8.51633L18.487 8.58026L18.4191 8.51633Z" fill="#737370"/>
<path d="M13.9385 8.58025L14.0064 8.64417L13.9385 8.58025Z" fill="#D9D868"/>
<path d="M14.4918 8.58025L14.5597 8.64417L14.4918 8.58025Z" fill="#F9D099"/>
<path d="M14.9738 8.58025L15.0417 8.64417L14.9738 8.58025ZM15.595 8.58025L15.6629 8.64417L15.595 8.58025Z" fill="#F9D6AA"/>
<path d="M15.802 8.58025L15.8699 8.64417L15.802 8.58025Z" fill="#FBC477"/>
<path d="M16.1449 8.58025L16.2128 8.64417L16.1449 8.58025Z" fill="#FEF8F1"/>
<path d="M16.2128 8.58025L16.2807 8.64417L16.2128 8.58025Z" fill="#F8DCBB"/>
<path d="M16.284 8.58025L16.3519 8.64417L16.284 8.58025Z" fill="#FBC477"/>
<path d="M16.3519 8.58025L16.4198 8.64417L16.3519 8.58025Z" fill="#FEA522"/>
<path d="M16.7661 8.58025L16.8339 8.64417L16.7661 8.58025Z" fill="#FBEAD6"/>
<path d="M18.2121 8.58025L18.28 8.64417L18.2121 8.58025Z" fill="#F2F1D2"/>
<path d="M18.4191 8.58025L18.487 8.64417L18.4191 8.58025Z" fill="#58587B"/>
<path d="M13.8027 8.64417L13.8706 8.70809L13.8027 8.64417Z" fill="#99994E"/>
<path d="M13.9385 8.64417L14.0064 8.70809L13.9385 8.64417Z" fill="#D0D045"/>
<path d="M15.0451 8.64417L15.113 8.70809L15.0451 8.64417Z" fill="#FCB144"/>
<path d="M15.113 8.64417L15.1809 8.70809L15.113 8.64417Z" fill="#FAE3C9"/>
<path d="M15.5916 8.64417L15.6595 8.70809L15.5916 8.64417Z" fill="#FEF8F1"/>
<path d="M15.8699 8.64417L15.9378 8.70809L15.8699 8.64417Z" fill="#FCB755"/>
<path d="M15.9378 8.64417L16.0057 8.70809L15.9378 8.64417Z" fill="#FBC477"/>
<path d="M16.0091 8.64417L16.077 8.70809L16.0091 8.64417Z" fill="#FCB144"/>
<path d="M16.077 8.64417L16.1449 8.70809L16.077 8.64417Z" fill="#FEA522"/>
<path d="M16.6269 8.64417L16.6948 8.70809L16.6269 8.64417Z" fill="#FE9F11"/>
<path d="M16.6948 8.64417L16.7627 8.70809L16.6948 8.64417Z" fill="#F9D6AA"/>
<path d="M17.6588 8.64417L17.7267 8.70809L17.6588 8.64417Z" fill="#FEF8F1"/>
<path d="M18.2121 8.64417L18.28 8.70809L18.2121 8.64417Z" fill="#E0DEA1"/>
<path d="M18.4191 8.64417L18.487 8.70809L18.4191 8.64417Z" fill="#3A3A7C"/>
<path d="M13.8027 8.71129L13.8706 8.77521L13.8027 8.71129Z" fill="#737370"/>
<path d="M14.0098 8.71129L14.0777 8.77521L14.0098 8.71129Z" fill="#FBFAF2"/>
<path d="M14.5597 8.71129L14.6276 8.77521L14.5597 8.71129Z" fill="#FEA522"/>
<path d="M15.1809 8.71129L15.2488 8.77521L15.1809 8.71129Z" fill="#FE9F11"/>
<path d="M15.2488 8.71129L15.3166 8.77521L15.2488 8.71129Z" fill="#FCB144"/>
<path d="M15.3166 8.71129L15.3845 8.77521L15.3166 8.71129Z" fill="#FBC477"/>
<path d="M15.3845 8.71129L15.4524 8.77521L15.3845 8.71129Z" fill="#FACA88"/>
<path d="M15.4558 8.71129L15.5237 8.77521L15.4558 8.71129Z" fill="#FBC477"/>
<path d="M15.5237 8.71129L15.5916 8.77521L15.5237 8.71129Z" fill="#FCB144"/>
<path d="M15.5916 8.71129L15.6595 8.77521L15.5916 8.71129Z" fill="#FDAB33"/>
<path d="M16.559 8.71129L16.6269 8.77521L16.559 8.71129Z" fill="#FBC477"/>
<path d="M16.6269 8.71129L16.6948 8.77521L16.6269 8.71129Z" fill="#FEF8F1"/>
<path d="M17.5909 8.71129L17.6588 8.77521L17.5909 8.71129Z" fill="#FDAB33"/>
<path d="M18.2121 8.71129L18.28 8.77521L18.2121 8.71129Z" fill="#E1E18C"/>
<path d="M18.3716 8.75284L18.3954 8.79758L18.3716 8.75284Z" fill="#A4A43D"/>
<path d="M18.4191 8.71129L18.487 8.77521L18.4191 8.71129Z" fill="#262678"/>
<path d="M13.8027 8.77521L13.8706 8.83913L13.8027 8.77521Z" fill="#58587B"/>
<path d="M14.0098 8.77521L14.0777 8.83913L14.0098 8.77521Z" fill="#F2F1D2"/>
<path d="M14.5597 8.77521L14.6276 8.83913L14.5597 8.77521Z" fill="#FACA88"/>
<path d="M16.4198 8.77521L16.4877 8.83913L16.4198 8.77521Z" fill="#FE9F11"/>
<path d="M16.4911 8.77521L16.559 8.83913L16.4911 8.77521Z" fill="#FBEAD6"/>
<path d="M17.1089 8.77521L17.1768 8.83913L17.1089 8.77521Z" fill="#FBC477"/>
<path d="M17.5909 8.77521L17.6588 8.83913L17.5909 8.77521Z" fill="#FACA88"/>
<path d="M18.2121 8.77521L18.28 8.83913L18.2121 8.77521Z" fill="#D4D456"/>
<path d="M13.8027 8.83913L13.8706 8.90305L13.8027 8.83913Z" fill="#32327B"/>
<path d="M14.0098 8.83913L14.0777 8.90305L14.0098 8.83913Z" fill="#E5E59D"/>
<path d="M14.5597 8.83913L14.6276 8.90305L14.5597 8.83913Z" fill="#FEF8F1"/>
<path d="M14.6276 8.83913L14.6955 8.90305L14.6276 8.83913Z" fill="#FE9F11"/>
<path d="M16.4198 8.83913L16.4877 8.90305L16.4198 8.83913Z" fill="#FBEAD6"/>
<path d="M17.1089 8.83913L17.1768 8.90305L17.1089 8.83913Z" fill="#FEA522"/>
<path d="M17.5909 8.83913L17.6588 8.90305L17.5909 8.83913Z" fill="#FCF1E4"/>
<path d="M18.3512 8.83913L18.4191 8.90305L18.3512 8.83913Z" fill="#808067"/>
<path d="M13.8027 8.90305L13.8706 8.96697L13.8027 8.90305Z" fill="#0E0E6E"/>
<path d="M13.8706 8.90305L13.9385 8.96697L13.8706 8.90305Z" fill="#A4A43D"/>
<path d="M14.0098 8.90305L14.0777 8.96697L14.0098 8.90305Z" fill="#D9D868"/>
<path d="M14.6276 8.90305L14.6955 8.96697L14.6276 8.90305Z" fill="#F8DCBB"/>
<path d="M17.041 8.90305L17.1089 8.96697L17.041 8.90305Z" fill="#F9D6AA"/>
<path d="M17.523 8.90305L17.5909 8.96697L17.523 8.90305Z" fill="#FACA88"/>
<path d="M18.1442 8.90305L18.2121 8.96697L18.1442 8.90305Z" fill="#F2F1D2"/>
<path d="M18.3512 8.90305L18.4191 8.96697L18.3512 8.90305Z" fill="#58587B"/>
<path d="M13.8706 8.97017L13.9385 9.03409L13.8706 8.97017Z" fill="#8D8D5B"/>
<path d="M14.6989 8.97017L14.7668 9.03409L14.6989 8.97017Z" fill="#F9D6AA"/>
<path d="M16.077 8.97017L16.1449 9.03409L16.077 8.97017Z" fill="#FDAB33"/>
<path d="M16.1449 8.97017L16.2128 9.03409L16.1449 8.97017Z" fill="white"/>
<path d="M16.2603 8.98935L16.3078 9.01172L16.2603 8.98935Z" fill="#FCB144"/>
<path d="M16.9731 8.97017L16.9052 9.09801L16.9731 8.97017Z" fill="#FEF8F1"/>
<path d="M17.041 8.97017L17.1089 9.03409L17.041 8.97017Z" fill="#FE9F11"/>
<path d="M17.4551 8.97017L17.3872 9.09801L17.4551 8.97017Z" fill="#FDAB33"/>
<path d="M18.1442 8.97017L18.2121 9.03409L18.1442 8.97017Z" fill="#E5E59D"/>
<path d="M18.3512 8.97017L18.4191 9.03409L18.3512 8.97017Z" fill="#3A3A7C"/>
<path d="M13.8706 9.03409L13.9385 9.09801L13.8706 9.03409Z" fill="#666677"/>
<path d="M14.0777 9.03409L14.1456 9.09801L14.0777 9.03409Z" fill="#F2F1D2"/>
<path d="M14.7668 9.03409L14.8346 9.09801L14.7668 9.03409Z" fill="#F9D6AA"/>
<path d="M16.077 9.03409L16.1449 9.09801L16.077 9.03409Z" fill="#FE9F11"/>
<path d="M16.1449 9.03409L16.2128 9.09801L16.1449 9.03409Z" fill="#FACA88"/>
<path d="M16.2128 9.03409L16.2807 9.09801L16.2128 9.03409Z" fill="#FEA522"/>
<path d="M16.284 9.03409L16.3519 9.09801L16.284 9.03409Z" fill="#FCF1E4"/>
<path d="M16.9731 9.03409L17.041 9.09801L16.9731 9.03409Z" fill="#FDAB33"/>
<path d="M17.4551 9.03409L17.523 9.09801L17.4551 9.03409Z" fill="#FEF8F1"/>
<path d="M18.1442 9.03409L18.2121 9.09801L18.1442 9.03409Z" fill="#D9D868"/>
<path d="M18.28 9.03409L18.3478 9.09801L18.28 9.03409Z" fill="#A4A43D"/>
<path d="M18.3512 9.03409L18.4191 9.09801L18.3512 9.03409Z" fill="#0E0E6E"/>
<path d="M13.8706 9.09801L13.9385 9.16193L13.8706 9.09801Z" fill="#3A3A7C"/>
<path d="M14.0777 9.09801L14.1456 9.16193L14.0777 9.09801Z" fill="#E5E59D"/>
<path d="M14.8346 9.09801L14.9704 9.22585L14.8346 9.09801Z" fill="#FAE3C9"/>
<path d="M14.9059 9.09801L14.9738 9.16193L14.9059 9.09801Z" fill="#FE9F11"/>
<path d="M16.2128 9.09801L16.2807 9.16193L16.2128 9.09801Z" fill="#F8DCBB"/>
<path d="M16.8339 9.09801L16.9018 9.16193L16.8339 9.09801Z" fill="#FCF1E4"/>
<path d="M16.9018 9.09801L16.9697 9.16193L16.9018 9.09801Z" fill="#FDAB33"/>
<path d="M17.3193 9.09801L17.3872 9.16193L17.3193 9.09801Z" fill="#FCB144"/>
<path d="M17.3872 9.09801L17.4551 9.16193L17.3872 9.09801Z" fill="#FEF8F1"/>
<path d="M18.0763 9.09801L18.1442 9.16193L18.0763 9.09801Z" fill="#FBFAF2"/>
<path d="M18.28 9.09801L18.3478 9.16193L18.28 9.09801Z" fill="#8D8D5B"/>
<path d="M13.8706 9.16193L13.9385 9.22585L13.8706 9.16193Z" fill="#0E0E6E"/>
<path d="M13.9385 9.16193L14.0064 9.22585L13.9385 9.16193Z" fill="#A4A43D"/>
<path d="M14.0777 9.16193L14.1456 9.22585L14.0777 9.16193Z" fill="#D4D456"/>
<path d="M16.1449 9.16193L16.2128 9.22585L16.1449 9.16193Z" fill="#F9D6AA"/>
<path d="M16.7661 9.16193L16.8339 9.22585L16.7661 9.16193Z" fill="#F9D099"/>
<path d="M16.8339 9.16193L16.9018 9.22585L16.8339 9.16193Z" fill="#FE9F11"/>
<path d="M17.2481 9.16193L17.3159 9.22585L17.2481 9.16193Z" fill="#FACA88"/>
<path d="M18.0763 9.16193L18.1442 9.22585L18.0763 9.16193Z" fill="#EEEDC1"/>
<path d="M18.28 9.16193L18.3478 9.22585L18.28 9.16193Z" fill="#58587B"/>
<path d="M13.9385 9.22585L14.0064 9.28977L13.9385 9.22585Z" fill="#737370"/>
<path d="M14.1456 9.22585L14.2135 9.28977L14.1456 9.22585Z" fill="#F6F6E4"/>
<path d="M14.9059 9.22585L14.9738 9.28977L14.9059 9.22585Z" fill="#FBBE66"/>
<path d="M16.0091 9.22585L16.077 9.28977L16.0091 9.22585Z" fill="#FCB144"/>
<path d="M16.0974 9.27379L16.1211 9.31534L16.0974 9.27379Z" fill="#F8DCBB"/>
<path d="M16.6269 9.22585L16.6948 9.28977L16.6269 9.22585Z" fill="#FBBE66"/>
<path d="M16.6948 9.22585L16.7627 9.28977L16.6948 9.22585Z" fill="#FE9F11"/>
<path d="M17.1089 9.22585L17.1768 9.28977L17.1089 9.22585Z" fill="#FBC477"/>
<path d="M17.1802 9.22585L17.2481 9.28977L17.1802 9.22585Z" fill="#FCF1E4"/>
<path d="M18.0763 9.22585L18.1442 9.28977L18.0763 9.22585Z" fill="#D3D079"/>
<path d="M18.2121 9.22585L18.28 9.28977L18.2121 9.22585Z" fill="#A4A43D"/>
<path d="M18.28 9.22585L18.3478 9.28977L18.28 9.22585Z" fill="#262678"/>
<path d="M13.9385 9.28977L14.0064 9.35369L13.9385 9.28977Z" fill="#49497D"/>
<path d="M14.1456 9.28977L14.2135 9.35369L14.1456 9.28977Z" fill="#E0DEA1"/>
<path d="M14.8346 9.28977L14.9025 9.35369L14.8346 9.28977Z" fill="#FAE3C9"/>
<path d="M15.802 9.28977L15.8699 9.35369L15.802 9.28977Z" fill="#FDAB33"/>
<path d="M15.8699 9.28977L15.9378 9.35369L15.8699 9.28977Z" fill="#FBC477"/>
<path d="M15.9378 9.28977L16.0057 9.35369L15.9378 9.28977Z" fill="#FBEAD6"/>
<path d="M16.1449 9.28977L16.2128 9.35369L16.1449 9.28977Z" fill="#FCB144"/>
<path d="M17.041 9.28977L17.1089 9.35369L17.041 9.28977Z" fill="#F9D6AA"/>
<path d="M18.2121 9.28977L18.28 9.35369L18.2121 9.28977Z" fill="#99994E"/>
<path d="M13.9385 9.36008L14.0064 9.42401L13.9385 9.36008Z" fill="#0E0E6E"/>
<path d="M14.0098 9.36008L14.0777 9.42401L14.0098 9.36008Z" fill="#A4A43D"/>
<path d="M14.1456 9.36008L14.2135 9.42401L14.1456 9.36008Z" fill="#D4D456"/>
<path d="M14.7668 9.36008L14.8346 9.42401L14.7668 9.36008Z" fill="#F9D099"/>
<path d="M14.8346 9.36008L14.9025 9.42401L14.8346 9.36008ZM15.1809 9.36008L15.2488 9.42401L15.1809 9.36008Z" fill="#FE9F11"/>
<path d="M15.2488 9.36008L15.3166 9.42401L15.2488 9.36008Z" fill="#F9D6AA"/>
<path d="M15.3166 9.36008L15.3845 9.42401L15.3166 9.36008Z" fill="#F9D099"/>
<path d="M15.5916 9.36008L15.6595 9.42401L15.5916 9.36008Z" fill="#F9D6AA"/>
<path d="M15.6595 9.36008L15.7274 9.42401L15.6595 9.36008Z" fill="#FAE3C9"/>
<path d="M15.7274 9.36008L15.7953 9.42401L15.7274 9.36008Z" fill="#FEF8F1"/>
<path d="M16.284 9.36008L16.3519 9.42401L16.284 9.36008Z" fill="#FBEAD6"/>
<path d="M16.3519 9.36008L16.4198 9.42401L16.3519 9.36008Z" fill="#FAE3C9"/>
<path d="M16.4198 9.36008L16.4877 9.42401L16.4198 9.36008Z" fill="#FACA88"/>
<path d="M16.4911 9.36008L16.559 9.42401L16.4911 9.36008Z" fill="#FBC477"/>
<path d="M16.559 9.36008L16.6269 9.42401L16.559 9.36008Z" fill="#FDAB33"/>
<path d="M16.9018 9.36008L16.9697 9.42401L16.9018 9.36008Z" fill="#FE9F11"/>
<path d="M16.9731 9.36008L17.041 9.42401L16.9731 9.36008Z" fill="#F9D6AA"/>
<path d="M18.0016 9.36008L18.0695 9.42401L18.0016 9.36008Z" fill="#E5E3AF"/>
<path d="M18.2121 9.36008L18.28 9.42401L18.2121 9.36008Z" fill="#666677"/>
<path d="M14.0098 9.424L14.0777 9.48792L14.0098 9.424Z" fill="#737370"/>
<path d="M14.2169 9.424L14.2848 9.48792L14.2169 9.424Z" fill="#F2F1D7"/>
<path d="M14.6989 9.424L14.7668 9.48792L14.6989 9.424Z" fill="#FEA522"/>
<path d="M15.0451 9.424L15.113 9.48792L15.0451 9.424Z" fill="#FE9F11"/>
<path d="M15.113 9.424L15.1809 9.48792L15.113 9.424Z" fill="#FBBE66"/>
<path d="M15.1809 9.424L15.2488 9.48792L15.1809 9.424Z" fill="#FCF1E4"/>
<path d="M16.8339 9.424L16.9018 9.48792L16.8339 9.424Z" fill="#FEA522"/>
<path d="M16.9018 9.424L16.9697 9.48792L16.9018 9.424Z" fill="#FBEAD6"/>
<path d="M18.0016 9.424L18.0695 9.48792L18.0016 9.424Z" fill="#DDDC7A"/>
<path d="M18.1442 9.424L18.2121 9.48792L18.1442 9.424Z" fill="#A4A43D"/>
<path d="M18.2121 9.424L18.28 9.48792L18.2121 9.424Z" fill="#262678"/>
<path d="M14.0098 9.48793L14.0777 9.55185L14.0098 9.48793Z" fill="#49497D"/>
<path d="M14.0981 9.53267L14.1252 9.57422L14.0981 9.53267Z" fill="#A4A43D"/>
<path d="M14.2169 9.48793L14.2848 9.55185L14.2169 9.48793Z" fill="#D3D079"/>
<path d="M14.7668 9.48793L14.8346 9.55185L14.7668 9.48793Z" fill="#F9D099"/>
<path d="M14.8346 9.48793L14.9025 9.55185L14.8346 9.48793Z" fill="#FCB144"/>
<path d="M14.9059 9.48793L14.9738 9.55185L14.9059 9.48793Z" fill="#FACA88"/>
<path d="M14.9738 9.48793L15.0417 9.55185L14.9738 9.48793Z" fill="#F8DCBB"/>
<path d="M15.0451 9.48793L15.113 9.55185L15.0451 9.48793Z" fill="#FEF8F1"/>
<path d="M16.559 9.48793L16.6269 9.55185L16.559 9.48793Z" fill="#F8DCBB"/>
<path d="M16.8339 9.48793L16.9018 9.55185L16.8339 9.48793Z" fill="#FCF1E4"/>
<path d="M17.9337 9.48793L18.0016 9.55185L17.9337 9.48793Z" fill="#F6F6E4"/>
<path d="M18.1442 9.48793L18.2121 9.55185L18.1442 9.48793Z" fill="#8D8D5B"/>
<path d="M14.2848 9.55185L14.3526 9.61577L14.2848 9.55185Z" fill="#FBFAF2"/>
<path d="M16.559 9.55185L16.6269 9.61577L16.559 9.55185Z" fill="#FBBE66"/>
<path d="M16.7661 9.55185L16.8339 9.61577L16.7661 9.55185Z" fill="#FACA88"/>
<path d="M17.9337 9.55185L18.0016 9.61577L17.9337 9.55185Z" fill="#E1E18C"/>
<path d="M18.1442 9.55185L18.2121 9.61577L18.1442 9.55185Z" fill="#49497D"/>
<path d="M14.0777 9.61896L14.1456 9.68288L14.0777 9.61896Z" fill="#58587B"/>
<path d="M14.2848 9.61896L14.3526 9.68288L14.2848 9.61896Z" fill="#E5E59D"/>
<path d="M16.559 9.61896L16.6269 9.68288L16.559 9.61896Z" fill="#FE9F11"/>
<path d="M16.6948 9.61896L16.7627 9.68288L16.6948 9.61896Z" fill="#FDAB33"/>
<path d="M17.8658 9.61896L17.9337 9.68288L17.8658 9.61896Z" fill="#FBFAF2"/>
<path d="M18.0763 9.61896L18.1442 9.68288L18.0763 9.61896Z" fill="#A4A43D"/>
<path d="M18.1442 9.61896L18.2121 9.68288L18.1442 9.61896Z" fill="#0E0E6E"/>
<path d="M14.0777 9.68288L14.1456 9.7468L14.0777 9.68288Z" fill="#1B1B74"/>
<path d="M14.1456 9.68288L14.2135 9.7468L14.1456 9.68288Z" fill="#A4A43D"/>
<path d="M14.2848 9.68288L14.3526 9.7468L14.2848 9.68288Z" fill="#D0D045"/>
<path d="M16.4911 9.68288L16.559 9.7468L16.4911 9.68288Z" fill="#FBEAD6"/>
<path d="M16.6269 9.68288L16.6948 9.7468L16.6269 9.68288Z" fill="#FE9F11"/>
<path d="M16.6948 9.68288L16.7627 9.7468L16.6948 9.68288Z" fill="#FBEAD6"/>
<path d="M17.8658 9.68288L17.9337 9.7468L17.8658 9.68288Z" fill="#E5E59D"/>
<path d="M18.0763 9.68288L18.1442 9.7468L18.0763 9.68288Z" fill="#666677"/>
<path d="M14.1456 9.7468L14.2135 9.81072L14.1456 9.7468Z" fill="#6E6C70"/>
<path d="M14.3526 9.7468L14.4205 9.81072L14.3526 9.7468Z" fill="#E5E3AF"/>
<path d="M16.5081 9.79155L16.5352 9.83629L16.5081 9.79155Z" fill="#FACA88"/>
<path d="M16.6269 9.7468L16.6948 9.81072L16.6269 9.7468Z" fill="#FAE3C9"/>
<path d="M17.798 9.7468L17.8658 9.81072L17.798 9.7468Z" fill="#FBFAF2"/>
<path d="M18.0016 9.7468L18.0695 9.81072L18.0016 9.7468Z" fill="#A4A43D"/>
<path d="M18.0763 9.7468L18.1442 9.81072L18.0763 9.7468ZM14.1456 9.81072L14.2135 9.87464L14.1456 9.81072Z" fill="#1B1B74"/>
<path d="M14.2169 9.81392L14.2848 9.87784L14.2169 9.81392Z" fill="#A4A43D"/>
<path d="M14.3526 9.81392L14.4205 9.87784L14.3526 9.81392Z" fill="#D0D045"/>
<path d="M14.4205 9.81392L14.4884 9.87784L14.4205 9.81392Z" fill="#FBFAF2"/>
<path d="M16.559 9.81392L16.6269 9.87784L16.559 9.81392Z" fill="#F9D6AA"/>
<path d="M17.798 9.81392L17.8658 9.87784L17.798 9.81392Z" fill="#E5E59D"/>
<path d="M18.0016 9.81392L18.0695 9.87784L18.0016 9.81392ZM14.2169 9.87784L14.2848 9.94176L14.2169 9.87784Z" fill="#6E6C70"/>
<path d="M14.4205 9.87784L14.4884 9.94176L14.4205 9.87784Z" fill="#8CBF84"/>
<path d="M14.4511 9.87784C14.6887 10.3508 15.5373 11.4695 16.1822 11.4503C16.8136 11.4279 17.523 10.3317 17.798 9.87784H14.4511Z" fill="#00CCFF"/>
<path d="M17.9337 9.87784L18.0016 9.94176L17.9337 9.87784Z" fill="#A4A43D"/>
<path d="M18.0016 9.87784L18.0695 9.94176L18.0016 9.87784ZM14.2169 9.94176L14.2848 10.0057L14.2169 9.94176Z" fill="#1B1B74"/>
<path d="M14.2848 9.94176L14.3526 10.0057L14.2848 9.94176Z" fill="#A4A43D"/>
<path d="M14.4205 9.94176L14.4884 10.0057L14.4205 9.94176Z" fill="#ADB333"/>
<path d="M14.4918 9.94176L14.5597 10.0057L14.4918 9.94176Z" fill="#1AC5B5"/>
<path d="M17.7301 9.94176L17.798 10.0057L17.7301 9.94176Z" fill="#68B070"/>
<path d="M17.9337 9.94176L18.0016 10.0057L17.9337 9.94176Z" fill="#666677"/>
<path d="M14.2848 10.0089L14.3526 10.0728L14.2848 10.0089Z" fill="#58587B"/>
<path d="M14.4918 10.0089L14.5597 10.0728L14.4918 10.0089Z" fill="#7FB15C"/>
<path d="M17.6588 10.0089L17.7267 10.0728L17.6588 10.0089Z" fill="#27C2AA"/>
<path d="M17.8658 10.0089L17.798 10.1367L17.8658 10.0089Z" fill="#A4A43D"/>
<path d="M17.9337 10.0089L18.0016 10.0728L17.9337 10.0089ZM14.2848 10.0728L14.3526 10.1367L14.2848 10.0728Z" fill="#0E0E6E"/>
<path d="M14.3526 10.0728L14.4884 10.2006L14.3526 10.0728Z" fill="#A4A43D"/>
<path d="M14.5597 10.0728L14.6276 10.1367L14.5597 10.0728Z" fill="#34BE9E"/>
<path d="M17.6588 10.0728L17.7267 10.1367L17.6588 10.0728Z" fill="#96B247"/>
<path d="M17.8658 10.0728L17.9337 10.1367L17.8658 10.0728Z" fill="#53527C"/>
<path d="M14.3526 10.1399L14.4205 10.2038L14.3526 10.1399Z" fill="#3A3A7C"/>
<path d="M14.5597 10.1399L14.6276 10.2038L14.5597 10.1399Z" fill="#A2B23D"/>
<path d="M14.6276 10.1399L14.6955 10.2038L14.6276 10.1399Z" fill="#0DC9C1"/>
<path d="M17.5909 10.1399L17.6588 10.2038L17.5909 10.1399Z" fill="#5BB47C"/>
<path d="M17.798 10.1399L17.8658 10.2038L17.798 10.1399Z" fill="#8D8D5B"/>
<path d="M14.4205 10.2038L14.4884 10.2678L14.4205 10.2038Z" fill="#737370"/>
<path d="M14.6276 10.2038L14.6955 10.2678L14.6276 10.2038Z" fill="#74B166"/>
<path d="M17.523 10.2038L17.5909 10.2678L17.523 10.2038Z" fill="#27C2AA"/>
<path d="M17.7301 10.2038L17.6622 10.3317L17.7301 10.2038Z" fill="#A4A43D"/>
<path d="M17.798 10.2038L17.8658 10.2678L17.798 10.2038Z" fill="#262678"/>
<path d="M14.4205 10.2678L14.4884 10.3317L14.4205 10.2678Z" fill="#0E0E6E"/>
<path d="M14.4918 10.2678L14.6276 10.3956L14.4918 10.2678Z" fill="#A4A43D"/>
<path d="M14.6989 10.2678L14.7668 10.3317L14.6989 10.2678Z" fill="#42BB92"/>
<path d="M17.4551 10.2678L17.523 10.3317L17.4551 10.2678Z" fill="#0DC9C1"/>
<path d="M17.523 10.2678L17.5909 10.3317L17.523 10.2678Z" fill="#96B247"/>
<path d="M17.7301 10.2678L17.798 10.3317L17.7301 10.2678Z" fill="#58587B"/>
<path d="M14.4918 10.3317L14.5597 10.3956L14.4918 10.3317Z" fill="#3A3A7C"/>
<path d="M14.6989 10.3317L14.7668 10.3956L14.6989 10.3317Z" fill="#ADB333"/>
<path d="M14.7668 10.3317L14.8346 10.3956L14.7668 10.3317Z" fill="#27C2AA"/>
<path d="M17.4551 10.3317L17.523 10.3956L17.4551 10.3317Z" fill="#74B166"/>
<path d="M17.6588 10.3317L17.7267 10.3956L17.6588 10.3317Z" fill="#8D8D5B"/>
<path d="M14.5597 10.3956L14.6276 10.4595L14.5597 10.3956Z" fill="#6E6C70"/>
<path d="M14.7668 10.3956L14.8346 10.4595L14.7668 10.3956Z" fill="#96B247"/>
<path d="M14.8346 10.3956L14.9025 10.4595L14.8346 10.3956Z" fill="#0DC9C1"/>
<path d="M17.3872 10.3956L17.4551 10.4595L17.3872 10.3956Z" fill="#42BB92"/>
<path d="M17.5909 10.3956L17.4551 10.5874L17.5909 10.3956Z" fill="#A4A43D"/>
<path d="M17.6588 10.3956L17.7267 10.4595L17.6588 10.3956Z" fill="#1B1B74"/>
<path d="M14.5597 10.4595L14.6276 10.5234L14.5597 10.4595Z" fill="#0E0E6E"/>
<path d="M14.6276 10.4595L14.6955 10.5234L14.6276 10.4595Z" fill="#8D8D5B"/>
<path d="M14.8346 10.4595L14.9025 10.5234L14.8346 10.4595Z" fill="#7FB15C"/>
<path d="M17.3193 10.4595L17.3872 10.5234L17.3193 10.4595Z" fill="#34BE9E"/>
<path d="M17.5909 10.4595L17.6588 10.5234L17.5909 10.4595Z" fill="#3A3A7C"/>
<path d="M14.6276 10.5266L14.6955 10.5906L14.6276 10.5266Z" fill="#1B1B74"/>
<path d="M14.6989 10.5266L15.4558 11.2393L14.6989 10.5266Z" fill="#A4A43D"/>
<path d="M14.9059 10.5266L14.9738 10.5906L14.9059 10.5266Z" fill="#74B166"/>
<path d="M17.2481 10.5266L17.3159 10.5906L17.2481 10.5266Z" fill="#27C2AA"/>
<path d="M17.3193 10.5266L17.3872 10.5906L17.3193 10.5266Z" fill="#ADB333"/>
<path d="M17.523 10.5266L17.5909 10.5906L17.523 10.5266Z" fill="#666677"/>
<path d="M14.6989 10.5906L14.7668 10.6545L14.6989 10.5906Z" fill="#32327B"/>
<path d="M14.9738 10.5906L15.0417 10.6545L14.9738 10.5906Z" fill="#42BB92"/>
<path d="M17.1802 10.5906L16.9018 10.9165L17.1836 10.5874L17.1802 10.5906Z" fill="#0DC9C1"/>
<path d="M17.2481 10.5906L17.3159 10.6545L17.2481 10.5906Z" fill="#ADB333"/>
<path d="M17.4551 10.5906L17.523 10.6545L17.4551 10.5906Z" fill="#737370"/>
<path d="M14.7668 10.6577L14.8346 10.7216L14.7668 10.6577Z" fill="#49497D"/>
<path d="M15.0451 10.6577L15.113 10.7216L15.0451 10.6577Z" fill="#42BB92"/>
<path d="M17.1802 10.6577L17.2481 10.7216L17.1802 10.6577Z" fill="#96B247"/>
<path d="M17.3872 10.6577L17.3193 10.7855L17.3872 10.6577Z" fill="#8D8D5B"/>
<path d="M17.4551 10.6577L17.523 10.7216L17.4551 10.6577Z" fill="#0E0E6E"/>
<path d="M14.8346 10.7216L14.9025 10.7855L14.8346 10.7216Z" fill="#53527C"/>
<path d="M15.113 10.7216L15.1809 10.7855L15.113 10.7216Z" fill="#42BB92"/>
<path d="M17.1089 10.7216L17.1768 10.7855L17.1089 10.7216Z" fill="#96B247"/>
<path d="M17.3872 10.7216L17.4551 10.7855L17.3872 10.7216Z" fill="#0E0E6E"/>
<path d="M14.9059 10.7855L14.9738 10.8494L14.9059 10.7855Z" fill="#6E6C70"/>
<path d="M15.1809 10.7855L15.2488 10.8494L15.1809 10.7855Z" fill="#42BB92"/>
<path d="M17.041 10.7855L17.1089 10.8494L17.041 10.7855Z" fill="#96B247"/>
<path d="M17.2481 10.7855L17.1123 10.9773L17.2481 10.7855Z" fill="#A4A43D"/>
<path d="M17.3193 10.7855L17.3872 10.8494L17.3193 10.7855Z" fill="#262678"/>
<path d="M14.9738 10.8526L15.0417 10.9165L14.9738 10.8526Z" fill="#6E6C70"/>
<path d="M15.2488 10.8526L15.3166 10.9165L15.2488 10.8526Z" fill="#42BB92"/>
<path d="M16.9731 10.8526L17.041 10.9165L16.9731 10.8526Z" fill="#96B247"/>
<path d="M17.2481 10.8526L17.3159 10.9165L17.2481 10.8526Z" fill="#262678"/>
<path d="M15.0451 10.9165L15.113 10.9805L15.0451 10.9165Z" fill="#6E6C70"/>
<path d="M15.3166 10.9165L15.3845 10.9805L15.3166 10.9165Z" fill="#68B070"/>
<path d="M16.8339 10.9165L16.9018 10.9805L16.8339 10.9165Z" fill="#27C2AA"/>
<path d="M16.9018 10.9165L16.9697 10.9805L16.9018 10.9165Z" fill="#ADB333"/>
<path d="M17.1802 10.9165L17.2481 10.9805L17.1802 10.9165Z" fill="#262678"/>
<path d="M15.113 10.9805L15.1809 11.0444L15.113 10.9805Z" fill="#666677"/>
<path d="M15.3845 10.9805L15.4524 11.0444L15.3845 10.9805Z" fill="#74B166"/>
<path d="M16.7661 10.9805L16.8339 11.0444L16.7661 10.9805Z" fill="#34BE9E"/>
<path d="M16.8339 10.9805L16.9018 11.0444L16.8339 10.9805Z" fill="#ADB333"/>
<path d="M17.041 10.9805L16.9731 11.1083L17.041 10.9805Z" fill="#8D8D5B"/>
<path d="M17.1089 10.9805L17.1768 11.0444L17.1089 10.9805Z" fill="#262678"/>
<path d="M15.1809 11.0444L15.2488 11.1083L15.1809 11.0444Z" fill="#49497D"/>
<path d="M15.4558 11.0444L15.5237 11.1083L15.4558 11.0444Z" fill="#96B247"/>
<path d="M15.5237 11.0444L15.5916 11.1083L15.5237 11.0444Z" fill="#0DC9C1"/>
<path d="M16.6948 11.0444L16.7627 11.1083L16.6948 11.0444Z" fill="#42BB92"/>
<path d="M17.041 11.0444L17.1089 11.1083L17.041 11.0444Z" fill="#0E0E6E"/>
<path d="M15.2488 11.1115L15.3166 11.1754L15.2488 11.1115Z" fill="#49497D"/>
<path d="M15.5237 11.1115L15.5916 11.1754L15.5237 11.1115Z" fill="#A2B23D"/>
<path d="M15.5916 11.1115L15.6595 11.1754L15.5916 11.1115Z" fill="#27C2AA"/>
<path d="M16.6269 11.1115L16.6948 11.1754L16.6269 11.1115Z" fill="#74B166"/>
<path d="M16.8339 11.1115L16.6303 11.3672L16.8339 11.1115Z" fill="#A4A43D"/>
<path d="M16.9018 11.1115L16.9697 11.1754L16.9018 11.1115Z" fill="#808067"/>
<path d="M16.9731 11.1115L17.041 11.1754L16.9731 11.1115Z" fill="#0E0E6E"/>
<path d="M15.3166 11.1754L15.3845 11.2393L15.3166 11.1754Z" fill="#262678"/>
<path d="M15.5916 11.1754L15.6595 11.2393L15.5916 11.1754Z" fill="#ADB333"/>
<path d="M15.6595 11.1754L15.7274 11.2393L15.6595 11.1754Z" fill="#42BB92"/>
<path d="M16.4911 11.1754L16.559 11.2393L16.4911 11.1754Z" fill="#0DC9C1"/>
<path d="M16.559 11.1754L16.6269 11.2393L16.559 11.1754Z" fill="#96B247"/>
<path d="M16.8339 11.1754L16.9018 11.2393L16.8339 11.1754Z" fill="#6E6C70"/>
<path d="M15.3845 11.2393L15.4524 11.3033L15.3845 11.2393Z" fill="#1B1B74"/>
<path d="M15.4558 11.2393L15.5237 11.3033L15.4558 11.2393Z" fill="#8D8D5B"/>
<path d="M15.7274 11.2393L15.7953 11.3033L15.7274 11.2393Z" fill="#74B166"/>
<path d="M15.802 11.2393L15.8699 11.3033L15.802 11.2393Z" fill="#0DC9C1"/>
<path d="M16.4198 11.2393L16.4877 11.3033L16.4198 11.2393Z" fill="#34BE9E"/>
<path d="M16.4911 11.2393L16.559 11.3033L16.4911 11.2393Z" fill="#ADB333"/>
<path d="M16.7661 11.2393L16.8339 11.3033L16.7661 11.2393Z" fill="#49497D"/>
<path d="M15.4558 11.3033L15.5237 11.3672L15.4558 11.3033Z" fill="#0E0E6E"/>
<path d="M15.5237 11.3033L15.5916 11.3672L15.5237 11.3033Z" fill="#6E6C70"/>
<path d="M15.5916 11.3033L15.7274 11.4311L15.5916 11.3033Z" fill="#A4A43D"/>
<path d="M15.802 11.3033L15.8699 11.3672L15.802 11.3033Z" fill="#96B247"/>
<path d="M15.8699 11.3033L15.9378 11.3672L15.8699 11.3033Z" fill="#27C2AA"/>
<path d="M16.3519 11.3033L16.4198 11.3672L16.3519 11.3033Z" fill="#68B070"/>
<path d="M16.6948 11.3033L16.7627 11.3672L16.6948 11.3033Z" fill="#32327B"/>
<path d="M15.5916 11.3672L15.6595 11.4311L15.5916 11.3672Z" fill="#49497D"/>
<path d="M15.9378 11.3672L16.0057 11.4311L15.9378 11.3672Z" fill="#5BB47C"/>
<path d="M16.2128 11.3672L16.2807 11.4311L16.2128 11.3672Z" fill="#27C2AA"/>
<path d="M16.284 11.3672L16.3519 11.4311L16.284 11.3672Z" fill="#96B247"/>
<path d="M16.4911 11.3672L16.4232 11.495L16.4911 11.3672Z" fill="#A4A43D"/>
<path d="M16.559 11.3672L16.6269 11.4311L16.559 11.3672Z" fill="#808067"/>
<path d="M16.6269 11.3672L16.6948 11.4311L16.6269 11.3672Z" fill="#0E0E6E"/>
<path d="M15.6595 11.4311L15.7274 11.495L15.6595 11.4311Z" fill="#262678"/>
<path d="M15.7274 11.4311L15.7953 11.495L15.7274 11.4311Z" fill="#8D8D5B"/>
<path d="M16.0091 11.4311L16.077 11.495L16.0091 11.4311Z" fill="#8BB252"/>
<path d="M16.077 11.4311L16.1449 11.495L16.077 11.4311Z" fill="#1AC5B5"/>
<path d="M16.1449 11.4311L16.2128 11.495L16.1449 11.4311Z" fill="#5BB47C"/>
<path d="M16.4911 11.4311L16.559 11.495L16.4911 11.4311Z" fill="#58587B"/>
<path d="M15.7274 11.5014L15.7953 11.5653L15.7274 11.5014Z" fill="#0E0E6E"/>
<path d="M15.802 11.5014L15.8699 11.5653L15.802 11.5014Z" fill="#666677"/>
<path d="M15.8699 11.5014L15.9378 11.5653L15.8699 11.5014Z" fill="#A4A43D"/>
<path d="M16.3519 11.5014L16.4198 11.5653L16.3519 11.5014Z" fill="#99994E"/>
<path d="M16.4198 11.5014L16.4877 11.5653L16.4198 11.5014ZM15.8699 11.5653L15.9378 11.6293L15.8699 11.5653Z" fill="#32327B"/>
<path d="M15.9378 11.5653L16.0057 11.6293L15.9378 11.5653Z" fill="#99994E"/>
<path d="M16.2128 11.5653L16.2807 11.6293L16.2128 11.5653Z" fill="#A4A43D"/>
<path d="M16.284 11.5653L16.3519 11.6293L16.284 11.5653Z" fill="#666677"/>
<path d="M16.3519 11.5653L16.4198 11.6293L16.3519 11.5653ZM15.9378 11.6293L16.0057 11.6932L15.9378 11.6293Z" fill="#0E0E6E"/>
<path d="M16.0091 11.6293L16.077 11.6932L16.0091 11.6293Z" fill="#666677"/>
<path d="M16.077 11.6293L16.1449 11.6932L16.077 11.6293Z" fill="#A4A43D"/>
<path d="M16.1449 11.6293L16.2128 11.6932L16.1449 11.6293Z" fill="#99994E"/>
<path d="M16.2128 11.6293L16.2807 11.6932L16.2128 11.6293Z" fill="#32327B"/>
<path d="M16.077 11.6932L16.1449 11.7571L16.077 11.6932Z" fill="#262678"/>
<path d="M16.1449 11.6932L16.2128 11.7571L16.1449 11.6932Z" fill="#0E0E6E"/>
<path d="M16.2128 7.34659C16.3214 7.58309 16.6608 7.84197 16.7559 7.96981C16.6371 8.09765 16.6133 8.08487 16.6269 8.32138C16.8305 8.11683 16.8373 8.09765 16.9731 8.12642C17.265 8.40128 17.024 8.98934 16.783 9.11719C16.542 9.25461 16.5862 9.11399 16.223 9.28338C16.3893 9.41761 16.5828 9.2642 16.7389 9.30575C16.8238 9.40163 16.6982 9.57422 16.7627 9.74041C16.8984 9.72763 16.8849 9.46236 16.9188 9.36647C17.0206 9.01491 17.6316 8.77202 17.6622 8.44922C17.7912 8.39488 17.9168 8.43324 18.0695 8.51314C17.9948 8.21271 17.7402 8.21591 17.669 8.12322C17.506 7.88672 17.3601 7.61825 17.0105 7.54794C16.7389 7.49361 16.7627 7.56392 16.5929 7.45206C16.4843 7.37535 16.1619 7.22834 16.2128 7.34659V7.34659Z" fill="#FF9900"/>
<path fill-rule="evenodd" clip-rule="evenodd" d="M16.9799 7.61506C16.9799 7.62904 16.974 7.64245 16.9635 7.65234C16.953 7.66223 16.9387 7.66779 16.9239 7.66779C16.909 7.66779 16.8948 7.66223 16.8843 7.65234C16.8738 7.64245 16.8679 7.62904 16.8679 7.61506C16.8679 7.60107 16.8738 7.58766 16.8843 7.57777C16.8948 7.56788 16.909 7.56232 16.9239 7.56232C16.9387 7.56232 16.953 7.56788 16.9635 7.57777C16.974 7.58766 16.9799 7.60107 16.9799 7.61506V7.61506Z" fill="white"/>
<path d="M15.3608 8.34695C15.5305 8.14879 15.6187 7.7397 15.6934 7.60547C15.8699 7.64382 15.8631 7.66939 16.0838 7.54794C15.7953 7.47124 15.7715 7.47763 15.7376 7.35298C15.8598 6.97905 16.5251 6.90554 16.7559 7.04616C17.0003 7.18359 16.8475 7.21236 17.1768 7.42969C17.2243 7.23153 16.9901 7.14205 16.9561 6.99503C17.0071 6.87678 17.2277 6.89915 17.3499 6.77131C17.2752 6.65945 17.0342 6.79688 16.929 6.81605C16.5556 6.89595 16.0363 6.50284 15.7206 6.62429C15.6086 6.54439 15.5848 6.41974 15.5848 6.25035C15.3438 6.4581 15.466 6.66584 15.4083 6.77131C15.2657 7.0174 15.079 7.26669 15.1775 7.58949C15.2522 7.83878 15.3065 7.78764 15.2861 7.9826C15.2623 8.10724 15.2725 8.44602 15.3608 8.34695V8.34695Z" fill="#FF9900"/>
<path fill-rule="evenodd" clip-rule="evenodd" d="M15.2522 7.5831C15.2827 7.57031 15.3166 7.5799 15.3302 7.60547C15.3349 7.61446 15.3367 7.62456 15.3354 7.63451C15.334 7.64445 15.3296 7.6538 15.3226 7.6614C15.3157 7.66899 15.3065 7.6745 15.2963 7.67723C15.286 7.67996 15.2752 7.67979 15.265 7.67675C15.2549 7.67371 15.2459 7.66793 15.2392 7.66013C15.2325 7.65233 15.2284 7.64285 15.2274 7.63287C15.2264 7.62289 15.2285 7.61285 15.2335 7.604C15.2385 7.59515 15.2462 7.58788 15.2555 7.5831H15.2522Z" fill="white"/>
<path d="M16.7559 8.48437C16.4843 8.45241 16.0736 8.58984 15.9073 8.60263C15.8564 8.43963 15.8801 8.42684 15.6561 8.31498C15.7342 8.58984 15.7511 8.60263 15.6561 8.69851C15.2555 8.79119 14.8414 8.29261 14.8482 8.03373C14.8482 7.76846 14.9568 7.87393 14.984 7.49041C14.7803 7.55433 14.8211 7.79403 14.7023 7.8995C14.5665 7.91868 14.4782 7.73011 14.2949 7.69815C14.2338 7.8164 14.4816 7.93785 14.5529 8.01456C14.8211 8.27663 14.7294 8.89346 15.0044 9.08523C14.9908 9.21946 14.889 9.30255 14.7328 9.38565C15.0485 9.47834 15.1741 9.2674 15.2997 9.25781C15.5984 9.25142 15.9209 9.27059 16.1652 9.0245C16.3485 8.83274 16.2773 8.81676 16.464 8.73686C16.5895 8.69211 16.8916 8.50675 16.7559 8.48118V8.48437Z" fill="#FF9900"/>
<path fill-rule="evenodd" clip-rule="evenodd" d="M16.1177 8.96697C16.1115 8.96341 16.1061 8.95872 16.1017 8.95317C16.0974 8.94763 16.0943 8.94134 16.0926 8.93466C16.0908 8.92798 16.0905 8.92105 16.0916 8.91425C16.0927 8.90746 16.0953 8.90094 16.0991 8.89506C16.1028 8.88919 16.1078 8.88407 16.1137 8.88001C16.1196 8.87595 16.1263 8.87301 16.1334 8.87138C16.1405 8.86975 16.1478 8.86945 16.155 8.8705C16.1623 8.87154 16.1692 8.87392 16.1754 8.87749C16.188 8.88469 16.1971 8.89631 16.2006 8.9098C16.2041 8.92329 16.2018 8.93753 16.1941 8.9494C16.1864 8.96126 16.1741 8.96978 16.1598 8.97308C16.1455 8.97638 16.1303 8.97418 16.1177 8.96697V8.96697Z" fill="white"/>
<path d="M-0.362069 -0.170456H10.5V7.5H-0.362069V-0.170456Z" fill="#012169"/>
<path d="M0.91083 -0.170456L5.05199 2.72194L9.17618 -0.170456H10.5V0.820311L6.42672 3.68075L10.5 6.52521V7.5H9.14224L5.06897 4.63956L1.01266 7.5H-0.362069V6.54119L3.69423 3.69673L-0.362069 0.852271V-0.170456H0.91083Z" fill="white"/>
<path d="M6.83405 4.31996L10.5 6.86079V7.5L5.90059 4.31996H6.83405ZM3.71121 4.63956L3.81304 5.19886L0.554418 7.5H-0.362069L3.71121 4.63956ZM10.5 -0.170456V-0.122516L6.27398 2.88175L6.30792 2.17862L9.6514 -0.170456H10.5ZM-0.362069 -0.170456L3.69423 2.64204H2.67592L-0.362069 0.500709V-0.170456Z" fill="#C8102E"/>
<path d="M3.72818 -0.170456V7.5H6.4437V-0.170456H3.72818ZM-0.362069 2.38636V4.94318H10.5V2.38636H-0.362069Z" fill="white"/>
<path d="M-0.362069 2.91371V4.4478H10.5V2.91371H-0.362069ZM4.27128 -0.170456V7.5H5.90059V-0.170456H4.27128Z" fill="#C8102E"/>
</g>
</g>
<defs>
<clipPath id="clip0_6947_99027">
<rect width="21" height="15" fill="white"/>
</clipPath>
<clipPath id="clip1_6947_99027">
<rect width="21.7241" height="15.3409" fill="white" transform="translate(-0.362069 -0.170456)"/>
</clipPath>
</defs>
</svg>
