<svg width="21" height="15" viewBox="0 0 21 15" fill="none" xmlns="http://www.w3.org/2000/svg">
<g clip-path="url(#clip0_6947_99028)">
<g clip-path="url(#clip1_6947_99028)">
<path d="M-0.362068 -0.170456H21.3621V15.1705H-0.362068V-0.170456Z" fill="#000066"/>
<path d="M-0.382431 7.5L21.3417 -0.170456V15.1705L-0.382431 7.5Z" fill="#BD1021"/>
<path d="M1.66438 7.5L21.3519 0.650925V14.3491" fill="white"/>
<path d="M15.7274 8.47159C15.9005 8.48118 15.8971 8.64418 15.8971 8.64418L16.5081 8.65696C16.5862 8.45561 16.671 8.47798 16.8204 8.58026C16.9113 8.63844 17.0108 8.68367 17.1157 8.71449C17.1734 8.42685 17.6079 8.48437 17.6079 8.48437C17.798 8.06889 17.8115 8.07209 17.6995 8.02095C17.633 7.98923 17.5785 7.93902 17.5434 7.87713C17.4415 7.75888 17.3872 7.58629 17.3737 7.48082C17.3601 7.37536 17.2311 7.53196 17.2039 7.5C17.1836 7.46804 16.9901 7.48722 16.9901 7.48722C17.0376 7.53516 16.8747 7.50639 16.8747 7.50639C16.8916 7.51918 16.8747 7.56072 16.8747 7.56072C16.8611 7.54155 16.7355 7.52237 16.7355 7.52237C16.726 7.54119 16.7134 7.55845 16.6982 7.57351C16.6303 7.54794 16.4945 7.55114 16.4945 7.55114C16.3646 7.54701 16.2362 7.57807 16.1245 7.64062C16.0702 7.66939 15.8733 7.76207 15.707 7.91229C15.5475 8.0593 15.4558 8.04013 15.4558 8.04013C15.4083 8.20632 15.0213 8.40767 15.0213 8.40767C14.9602 8.45881 14.7634 8.48437 14.6649 8.40767C14.5665 8.33097 14.6649 8.18714 14.6649 8.18714C14.7057 8.12322 14.7396 8.12642 14.743 7.8995C14.7464 7.74929 14.9127 7.62784 15.0824 7.45206C15.2963 7.23473 15.5916 6.87678 15.5916 6.87678C15.5916 6.98544 15.6527 7.00462 15.6527 7.00462C15.7104 6.89276 15.7953 6.80327 15.7953 6.80327C15.7987 6.81286 15.8122 6.81605 15.8122 6.81605C15.8801 6.73295 15.9141 6.70099 15.9141 6.70099C15.8971 6.69141 15.7104 6.70099 15.5407 6.84162C15.371 6.98224 15.2556 6.9375 15.2556 6.9375C15.1367 6.89915 15.1266 6.80966 15.1266 6.80966C15.0417 6.46129 15.3777 6.212 15.3777 6.212C14.9229 6.10973 15.2522 5.56321 15.819 5.3331C16.3825 5.10298 16.3757 4.99751 16.3757 4.99751C16.4006 5.02674 16.4211 5.05899 16.4368 5.09339C16.4402 5.09339 16.4843 5.03267 16.8102 4.89844C17.136 4.76101 17.2922 4.64276 17.2922 4.64276C17.3329 4.71946 17.3261 4.7706 17.3261 4.7706C18.2189 4.47976 19.0912 3.8054 19.0912 3.8054C19.1184 3.85973 19.1082 3.94602 19.1082 3.94602C19.2508 3.81818 19.7769 3.52415 19.7769 3.52415C19.7807 3.57739 19.7679 3.63052 19.7402 3.67705C19.7125 3.72359 19.671 3.76152 19.6207 3.78622C19.6339 3.80921 19.643 3.83403 19.6479 3.85973C19.8134 3.76221 19.9764 3.66098 20.1367 3.55611C20.2827 3.67436 20.1503 3.86932 20.1503 3.86932C20.2046 3.85973 20.2385 3.81818 20.2385 3.81818C20.2793 4.02273 20.0383 4.2017 20.0383 4.2017C20.0824 4.2017 20.1503 4.16016 20.1503 4.16016C20.1061 4.38388 19.6615 4.62678 19.6615 4.62678C19.726 4.6843 19.6615 4.75462 19.6072 4.78658C19.5563 4.81854 19.4612 4.89205 19.4918 4.92081C19.5189 4.95277 19.7192 4.81854 19.7192 4.81854C19.7531 4.91122 19.4985 5.09339 19.4985 5.09339C19.6751 5.11577 20.1638 4.90483 20.1638 4.90483C20.1265 5.08381 19.9398 5.22443 19.7124 5.30433C19.485 5.38423 19.4952 5.40021 19.4952 5.40021C19.5359 5.42578 19.8516 5.34268 19.8516 5.34268C19.7565 5.54084 19.4273 5.67827 19.4273 5.67827C19.5189 5.75178 19.6411 5.66548 19.7667 5.58558C19.9148 5.49789 20.0746 5.42911 20.2419 5.38104C20.4218 5.32031 20.5542 5.36506 20.5542 5.36506C20.7103 5.32031 20.8393 5.38423 20.8393 5.38423C21.1346 5.4066 21.1652 5.50888 21.1652 5.50888C21.1991 5.51527 21.2229 5.52805 21.301 5.58239C21.3723 5.63352 21.3689 5.79332 21.3689 5.87642C21.3621 5.95312 21.3383 5.95312 21.3247 5.9723C21.3112 5.99787 21.3078 6.02344 21.3078 6.0522C21.3078 6.08416 21.2331 6.27273 20.7748 6.27273H20.0858C20.045 6.27273 20.0009 6.2951 20.0009 6.2951C19.8074 6.38459 19.9093 6.23118 19.6818 6.41016C19.451 6.58594 19.3356 6.55717 19.3356 6.55717C19.2074 6.68059 19.0677 6.7929 18.9181 6.89276C18.7823 6.97585 18.8061 6.96626 18.9283 7.0142C19.0505 7.06215 19.227 7.0142 19.227 7.0142C19.1116 7.08771 19.193 7.12287 19.193 7.12287C19.3424 7.03658 19.4374 7.06854 19.4374 7.06854C19.485 7.19318 19.3085 7.38814 19.3085 7.38814C19.3763 7.39773 19.5053 7.38814 19.5053 7.38814C19.4714 7.47443 19.3492 7.56712 19.2542 7.59268C19.1625 7.62464 19.1761 7.63423 19.2066 7.68857C19.2304 7.7397 19.21 7.79403 19.21 7.79403C19.0471 7.68857 19.0403 7.78125 19.0403 7.78125C19.0233 7.90909 19.0267 8.08807 19.0267 8.08807C18.9113 8.03374 18.9079 8.10405 18.9079 8.10405C18.874 8.21911 18.7348 8.35014 18.7348 8.35014C18.728 8.27983 18.6601 8.26065 18.6601 8.26065C18.5855 8.39489 18.4531 8.47479 18.4531 8.47479C18.4361 8.58665 18.47 8.74965 18.47 8.74965C18.3818 8.73047 18.3512 8.73047 18.3343 8.74965C18.3241 8.77202 18.3546 8.78161 18.3546 8.78161L19.4884 8.80717C19.5053 8.80717 19.5732 8.81676 19.5732 8.92862C19.5732 9.04688 19.4714 9.05327 19.4714 9.05327L18.2358 9.0245C18.2358 9.0245 18.2392 9.05646 18.1747 9.08842C18.1102 9.12038 18.134 9.05327 18.117 9.19709C18.0967 9.33771 17.8523 9.1843 17.8523 9.1843C17.8115 9.24183 17.7165 9.31215 17.7165 9.31215C17.6588 9.15234 17.6011 9.1076 17.5128 9.24183C17.4246 9.37926 17.6758 9.35689 17.6758 9.35689C17.6758 9.35689 19.1286 9.15554 19.2066 9.14915C19.2847 9.13956 19.373 9.14595 19.4103 9.24823C19.4442 9.35369 19.2304 9.36967 19.2304 9.36967L17.7369 9.52308C17.7063 9.60618 17.5841 9.59979 17.5841 9.59979C17.5943 9.67969 17.506 9.72763 17.4619 9.75959C17.4144 9.78516 17.2718 9.77557 17.2718 9.77557C17.1021 9.88423 17.0138 9.79794 17.0138 9.79794C16.9018 9.84268 16.8305 9.82351 16.7389 9.78516C16.6439 9.7468 16.654 9.64134 16.654 9.64134L15.7104 9.73722C15.6832 9.74546 15.6578 9.75848 15.6357 9.77557C15.6697 9.81712 15.5678 9.913 15.5678 9.913C15.5984 9.92898 15.6527 9.98011 15.6595 10.0888C15.6663 10.207 15.5067 10.2262 15.5848 10.3125C15.6629 10.3924 15.8122 10.3221 15.9752 10.2486C16.1381 10.1751 16.2976 10.1847 16.3655 10.1847C16.4334 10.1847 16.6303 10.2358 16.7525 10.2741C16.8747 10.3125 16.9154 10.2869 16.9222 10.2294C16.929 10.1751 16.9867 10.1559 16.9867 10.1559C16.9697 10.2134 17.0037 10.239 17.0037 10.239C17.0478 10.2323 17.0904 10.2183 17.1293 10.1974C17.1225 10.2422 17.0614 10.2678 17.0614 10.2678C16.946 10.3413 17.1089 10.3157 17.1089 10.3157C17.4314 10.2518 17.5502 10.2582 17.6316 10.2678C17.7969 10.3136 17.959 10.3691 18.117 10.4339C18.1306 10.3956 18.1204 10.3061 18.1204 10.3061C18.2223 10.3317 18.263 10.386 18.263 10.386C18.3037 10.3477 18.2766 10.2773 18.2766 10.2773C18.6058 10.4531 18.2087 10.533 18.1034 10.565C18.0016 10.5969 18.0016 10.6385 18.0016 10.6385C18.0865 10.6129 18.1476 10.6033 18.2189 10.5969C18.2935 10.5906 18.2664 10.5969 18.4395 10.565C18.616 10.533 18.7043 10.6033 18.7043 10.6033C18.5583 10.6097 18.5176 10.6513 18.5176 10.6513C18.6058 10.7056 18.5176 10.7599 18.5176 10.7599C18.3886 10.6001 18.2732 10.7631 18.2732 10.7631C18.3482 10.7631 18.4223 10.7784 18.4904 10.8079L18.6737 10.8942C18.7959 10.9453 18.7721 10.9134 18.8638 10.9453C18.9588 10.9773 18.9215 11.0636 18.9215 11.0636C18.8842 10.9933 18.7959 10.9677 18.7959 10.9677C18.7891 11.0636 18.6907 11.0795 18.6907 11.0795C18.8129 10.9517 18.5515 10.8942 18.4259 10.8974C18.3037 10.8974 18.2121 10.9741 18.2121 10.9741C18.4599 11.1946 18.6296 11.1211 18.6296 11.1211C18.599 11.201 18.3954 11.169 18.3954 11.169C18.4904 11.2393 18.4802 11.2841 18.4802 11.2841C18.4293 11.2393 18.3445 11.2617 18.1679 11.1563C17.9914 11.0444 17.8319 11.0827 17.8319 11.0827C18.0084 11.2521 17.7708 11.3576 17.7708 11.3576C17.6825 11.4087 17.8047 11.4695 17.8047 11.4695C17.6961 11.4886 17.6825 11.3864 17.6825 11.3864C17.6248 11.3736 17.54 11.4375 17.54 11.4375C17.5468 11.3352 17.6961 11.3864 17.6961 11.2777C17.7029 11.1658 17.5603 11.0795 17.1428 11.1339C16.7219 11.1882 16.5997 11.0636 16.5997 11.0636C16.5658 11.0636 16.559 11.0955 16.559 11.0955C16.6269 11.1594 16.6574 11.185 16.6473 11.2298C16.6337 11.2713 16.6676 11.2873 16.6676 11.2873C16.5895 11.2809 16.5862 11.1978 16.5862 11.1978C16.5862 11.233 16.5692 11.2362 16.542 11.2713C16.5149 11.3065 16.542 11.3576 16.542 11.3576C16.5081 11.332 16.4504 11.3001 16.5081 11.2202C16.5488 11.1626 16.4164 11.0859 16.4164 11.0859C16.3655 11.038 16.2263 11.0859 16.2263 11.0859C16.1465 11.102 16.0638 11.0996 15.9852 11.079C15.9066 11.0584 15.8344 11.0202 15.7749 10.9677C15.7409 10.9677 15.6765 10.9485 15.6765 10.9485C15.3744 11.0763 15.1096 10.8015 15.1096 10.8015C14.8822 10.843 14.7769 10.7376 14.7091 10.6353C14.6699 10.5656 14.6081 10.5096 14.5325 10.4755C14.4443 10.4244 14.356 10.2773 14.4443 10.1974C14.5122 10.1303 14.4952 10.1143 14.4952 10.1143C14.3764 9.92578 14.7023 9.86825 14.7091 9.82031C14.7192 9.75639 14.7871 9.71484 14.8618 9.71165C14.9365 9.70526 14.9365 9.71165 14.9874 9.6669C15.0315 9.61896 15.1232 9.67649 15.1232 9.67649C15.1469 9.66371 15.3099 9.54545 15.4524 9.60618C15.5984 9.6669 15.7206 9.62536 15.7206 9.62536C15.8224 9.60298 16.671 9.49751 16.671 9.49751C16.7219 9.41761 16.7627 9.32493 16.9969 9.27379C17.2311 9.22266 17.4042 9.08203 17.4042 9.08203C17.3635 9.04368 17.2956 9.04368 17.2616 9.04048C17.2243 9.04048 17.153 8.97656 17.153 8.97656C17.1089 8.99574 17.0851 8.98615 16.7796 9.16193C16.5047 9.32173 16.4979 9.00852 16.4979 9.00852H15.8971C15.8869 9.12678 15.7953 9.17472 15.7953 9.17472L15.5746 9.1843C15.4524 9.12678 15.4524 8.92223 15.4524 8.92223C14.7939 8.93182 14.4307 9.15234 14.4307 9.15234C13.6839 8.79439 13.1001 8.71129 13.1001 8.71129C13.5783 8.67867 14.0468 8.56838 14.485 8.3853C14.7785 8.55251 15.1102 8.65114 15.4524 8.67294C15.4694 8.50036 15.5916 8.45881 15.5916 8.45881L15.7274 8.47159Z" fill="black"/>
<path d="M14.6513 9.88423C14.4647 9.98651 14.4986 10.044 14.5156 10.076C14.5325 10.108 14.5325 10.1399 14.4816 10.1911C14.4307 10.239 14.4341 10.255 14.4341 10.255C14.4443 10.4276 14.5699 10.4659 14.6276 10.5107C14.6751 10.5426 14.7498 10.6545 14.7498 10.6545C14.8482 10.7855 14.9501 10.7887 15.0247 10.7887C15.1028 10.7887 15.0926 10.7791 15.0587 10.7472L14.9433 10.6609C15.0189 10.6911 15.0871 10.7357 15.1435 10.7919C15.3336 10.9901 15.5101 10.9645 15.5882 10.9581C15.6663 10.9485 15.6561 10.9038 15.6561 10.9038C15.6297 10.8961 15.6023 10.8917 15.5746 10.891C15.2861 10.8654 15.2012 10.6864 15.2012 10.6864C15.3478 10.8078 15.5356 10.8758 15.7308 10.8782C15.8122 10.875 15.8088 10.8974 15.7885 10.9038L15.707 10.8974C15.6697 10.8974 15.6697 10.907 15.6765 10.9229C15.6866 10.9357 15.724 10.9357 15.7681 10.9357C15.8156 10.9357 15.7783 10.9389 15.8971 11.0252C16.0193 11.1147 16.3146 11.0412 16.3146 11.0412C16.1211 10.9996 16.0974 10.9134 16.0974 10.9134C15.836 10.9453 15.7308 10.7983 15.7308 10.7983C15.6716 10.755 15.6079 10.7175 15.5407 10.6864C15.3981 10.6257 15.371 10.5011 15.371 10.5011C15.4151 10.5586 15.4966 10.6225 15.5984 10.6481C15.7002 10.6737 15.7274 10.6864 15.7274 10.6864C15.7013 10.692 15.674 10.6897 15.6493 10.68C15.5475 10.6481 15.6052 10.6896 15.6052 10.6896C15.7206 10.7759 15.7511 10.7695 15.7511 10.7695C16.0431 10.7983 15.8971 10.6864 15.8971 10.6864C16.1075 10.7344 16.1415 10.6609 16.1415 10.6609C16.1856 10.7472 16.3452 10.7152 16.3452 10.7152C16.1347 10.8111 16.2942 10.7823 16.2942 10.7823C16.5081 10.7472 16.5522 10.7983 16.5522 10.7983C16.6065 10.8462 16.6676 10.843 16.6676 10.843C16.6676 10.843 16.7084 10.843 16.7864 10.8558C16.8679 10.8718 16.9969 10.9357 17.1123 10.9261C17.2311 10.9102 17.2481 10.9453 17.2481 10.9453C17.2277 10.9357 17.1734 10.9293 17.0851 10.9677C16.9935 11.0092 16.8339 11.0188 16.6031 10.9677C16.3723 10.9165 16.3519 10.9261 16.3519 10.9261C16.4096 10.9613 16.4572 11.0188 16.4673 11.054C16.4775 11.0923 16.5183 11.0923 16.5183 11.0923C16.5352 11.0444 16.6031 11.0252 16.6031 11.0252C16.6562 11.0606 16.7131 11.0906 16.7728 11.1147C16.7864 11.0923 16.7728 11.0732 16.7728 11.0732C16.8611 11.1531 16.9629 11.1275 16.9629 11.1275C16.9901 11.1115 16.9833 11.0636 16.9833 11.0636C17.0172 11.0636 17.024 11.0827 17.0512 11.1019C17.0749 11.1147 17.153 11.1051 17.153 11.1051C17.1259 11.0923 17.1021 11.0508 17.1021 11.0508C17.2209 10.9773 17.4755 11.0092 17.4755 11.0092C17.6554 11.0412 17.635 11.1531 17.635 11.1531C17.667 11.1709 17.6957 11.1936 17.7199 11.2202C17.7369 11.1818 17.7199 11.1403 17.7199 11.1403C17.8081 11.1786 17.8217 11.2681 17.8217 11.2681C17.9235 11.1658 17.7301 11.0508 17.7301 11.0508C17.8217 11.038 17.9235 11.0444 17.9846 11.0508C18.0674 11.0643 18.1448 11.0985 18.2087 11.1499C18.28 11.2042 18.4089 11.2298 18.4089 11.2298C18.4055 11.2074 18.3343 11.1658 18.3173 11.1594C18.3037 11.1531 18.2969 11.1307 18.2969 11.1307C18.3614 11.1435 18.4022 11.1371 18.4022 11.1371C18.1849 11.0092 18.1272 10.9485 18.1272 10.9485C18.2087 10.9581 18.2562 10.9102 18.2562 10.9102C18.0831 10.9102 18.0729 10.8718 18.0729 10.8718C18.0967 10.875 18.1781 10.8942 18.2834 10.875C18.3886 10.8558 18.5277 10.875 18.5277 10.875C18.4531 10.7599 18.1645 10.7791 18.0695 10.7855C17.9745 10.7919 17.9405 10.7791 17.9405 10.7791C17.9541 10.7727 17.9711 10.7599 18.0423 10.7567C18.117 10.7567 18.1883 10.7631 18.2732 10.7056C18.3512 10.6545 18.4666 10.6736 18.4666 10.6736C18.4395 10.6225 18.3071 10.6033 18.1951 10.6736C18.0763 10.7408 17.9745 10.7216 17.9745 10.7216C18.1544 10.696 18.2087 10.6353 18.2087 10.6353C18.1544 10.6225 18.1238 10.6385 18.0118 10.6609C17.9032 10.68 17.876 10.6449 17.876 10.6449C17.9948 10.5778 18.0797 10.549 18.0797 10.549C17.9779 10.5298 17.8828 10.4851 17.8828 10.4851C17.7742 10.581 17.6927 10.6321 17.4857 10.5362C17.282 10.4339 17.1734 10.4467 17.1734 10.4467C17.3567 10.3477 17.54 10.3892 17.6758 10.4659C17.8115 10.5394 17.8455 10.4787 17.8455 10.4787C17.8047 10.4563 17.8115 10.4308 17.8115 10.4308C18.1374 10.5874 18.28 10.4947 18.3512 10.4467C18.4225 10.3988 18.3173 10.3381 18.3173 10.3381C18.3105 10.4339 18.1815 10.4851 18.0729 10.4499C17.9711 10.418 17.8692 10.3732 17.7199 10.3125C17.5705 10.255 17.3804 10.2869 17.2073 10.3189C17.0308 10.354 17.0071 10.3381 16.9901 10.3253C16.9731 10.3125 16.9663 10.271 16.8747 10.3061C16.7864 10.3413 16.576 10.2486 16.447 10.2198C16.318 10.1879 16.1041 10.2038 15.9209 10.2997C15.7376 10.3988 15.6425 10.3732 15.5882 10.3509C15.5339 10.3253 15.4966 10.2614 15.5577 10.2038C15.6188 10.1463 15.6255 10.1303 15.6187 10.044C15.612 9.96094 15.5237 9.9098 15.5237 9.9098C15.6052 9.8299 15.6255 9.81392 15.5984 9.78196C15.5712 9.74361 15.612 9.74361 15.6595 9.72443C15.707 9.70526 15.6866 9.70206 15.6765 9.67649C15.6629 9.65092 15.6357 9.65731 15.6357 9.65731C15.5305 9.66051 15.4694 9.63175 15.4694 9.63175C15.2929 9.55504 15.1266 9.70525 15.1266 9.70525C15.0247 9.63175 15.001 9.68288 14.984 9.69886C14.967 9.71484 14.9297 9.73082 14.8822 9.73082C14.8414 9.73721 14.7769 9.7532 14.7532 9.79155C14.7532 9.79155 14.7328 9.82351 14.7566 9.85547C14.7566 9.85547 14.7837 9.89382 14.7362 9.94176C14.6853 9.9897 14.6683 9.99929 14.6853 10.0472C14.6989 10.0888 14.6955 10.1239 14.6751 10.1527C14.6751 10.1527 14.6513 10.1303 14.6581 10.0984C14.6649 10.0664 14.6649 10.0472 14.6581 10.0344C14.6581 10.0344 14.6072 10.0792 14.597 10.1112C14.597 10.1112 14.5767 10.06 14.6513 9.9929C14.7192 9.92898 14.7532 9.89062 14.7328 9.86506C14.7192 9.84588 14.6649 9.87784 14.6547 9.88423H14.6513Z" fill="#FFC221"/>
<path d="M14.8584 10.6321C14.8584 10.6321 14.7668 10.5682 14.7769 10.4755C14.7871 10.3892 14.7871 10.3796 14.7769 10.3572C14.7769 10.3572 14.76 10.3668 14.7634 10.402C14.7634 10.4339 14.7566 10.4691 14.7532 10.4755C14.7532 10.4755 14.7091 10.402 14.6853 10.386C14.6853 10.386 14.7057 10.3093 14.6785 10.2773C14.6547 10.2422 14.6276 10.239 14.597 10.2518C14.5563 10.2646 14.5258 10.2997 14.6649 10.4052C14.6649 10.4052 14.7158 10.4467 14.7498 10.5298C14.7837 10.6129 14.8448 10.6257 14.855 10.6321H14.8584ZM15.2997 10.3828C15.2997 10.3828 15.2963 10.3349 15.3438 10.2454C15.3606 10.2185 15.3703 10.1882 15.372 10.1571C15.3738 10.1259 15.3676 10.0948 15.354 10.0664C15.3438 10.0408 15.3336 10.0504 15.3845 10.0121C15.4422 9.96413 15.3608 9.90341 15.4626 9.82031C15.4626 9.82031 15.5237 9.76918 15.5407 9.7468C15.5407 9.7468 15.4388 9.79794 15.3642 9.82671C15.2963 9.85227 15.0383 9.97372 15.0926 10.0536C15.1537 10.1335 15.1469 10.1399 15.1367 10.1751C15.1367 10.1751 14.9806 10.0952 15.0349 9.97053C15.0349 9.97053 15.0621 9.92259 15.1266 9.86186C15.1877 9.81073 15.1537 9.87465 15.2725 9.80753C15.2725 9.80753 15.3642 9.75639 15.4185 9.68288C15.4185 9.68288 15.3506 9.72124 15.3302 9.72763C15.3302 9.72763 15.1945 9.7532 15.1334 9.80753C15.079 9.86186 14.9602 9.95774 14.9976 10.0632C14.9976 10.0632 14.8618 10.0504 14.8279 9.913C14.8279 9.913 14.5699 10.2134 15.113 10.354C15.113 10.354 15.2148 10.3796 15.3031 10.386L15.2997 10.3828Z" fill="black"/>
<path d="M17.6825 9.38565C17.8862 9.35369 19.0539 9.1875 19.1625 9.17791C19.2779 9.16832 19.322 9.15234 19.3628 9.24183C19.4069 9.33771 19.1998 9.34091 19.1998 9.34091L17.8047 9.49112C17.7369 9.49751 17.7199 9.47195 17.7199 9.47195L17.669 9.40802C17.669 9.40802 17.652 9.38885 17.6825 9.38246V9.38565Z" fill="#FFC221"/>
<path d="M14.8211 9.98331C14.8211 9.98331 14.6717 10.2805 15.2623 10.354C15.2623 10.354 15.2657 10.3221 15.2895 10.2741C15.3167 10.2262 15.3676 10.1303 15.3167 10.0696C15.2691 10.0089 15.3574 10.0408 15.3676 9.96094C15.3845 9.88104 15.3608 9.89063 15.4015 9.83949C15.4015 9.83949 15.2182 9.90341 15.1435 9.98331C15.0756 10.06 15.242 10.1175 15.1435 10.2038C15.1435 10.2038 15.0587 10.1719 15.0078 10.0888C15.0078 10.0888 14.8957 10.0888 14.8211 9.98331Z" fill="#5A3719"/>
<path d="M15.4049 10.3509C15.4049 10.3509 15.5509 10.4691 15.724 10.4659C15.8971 10.4563 15.9752 10.4148 16.0193 10.3509C16.0193 10.3509 16.0532 10.3988 16.0532 10.4339C16.0532 10.4339 16.2026 10.3157 16.4606 10.418C16.7185 10.5202 16.6439 10.4915 16.7016 10.4979C16.7016 10.4979 16.5895 10.4819 16.3384 10.5906C16.077 10.7024 15.3981 10.6641 15.4015 10.3509H15.4049Z" fill="black"/>
<path d="M15.1605 9.82031C15.1605 9.82031 15.225 9.8299 15.2895 9.75959C15.2895 9.75959 15.2012 9.77557 15.1605 9.82351V9.82031ZM14.6615 10.3764C14.6615 10.3764 14.5393 10.2869 14.6174 10.2678C14.6174 10.2678 14.6751 10.2582 14.6615 10.3764Z" fill="#5A3719"/>
<path d="M17.3295 10.9453C17.3295 10.9453 17.3974 10.8335 17.5841 10.8335C17.7708 10.8335 17.7912 10.9165 18.0288 10.9293C18.0288 10.9293 17.7436 11.006 17.5468 10.9389C17.4449 10.9038 17.3499 10.9325 17.3295 10.9453Z" fill="black"/>
<path d="M15.466 10.4308C15.466 10.4308 15.7511 10.5906 15.9989 10.4148C15.9989 10.4148 16.0193 10.4339 16.0397 10.4787C16.0397 10.4787 16.2297 10.3061 16.5658 10.4915C16.5658 10.4915 16.5251 10.4883 16.3655 10.549C16.1585 10.6353 15.6391 10.6928 15.466 10.4276V10.4308Z" fill="#5A3719"/>
<path d="M16.5522 10.5906C16.5522 10.5906 16.8238 10.6225 17.0512 10.6097C17.1904 10.6033 17.3431 10.5778 17.2684 10.6225C17.1904 10.6641 17.2311 10.6705 17.5536 10.6449C17.8726 10.6129 17.5502 10.6992 17.7708 10.728C17.7708 10.728 17.2311 10.9837 16.5522 10.5906V10.5906Z" fill="black"/>
<path d="M17.2616 10.4308C17.2616 10.4308 17.4178 10.3764 17.5671 10.4403C17.7131 10.5043 17.6893 10.5107 17.7878 10.5202C17.7878 10.5202 17.7199 10.6129 17.5603 10.5394C17.3974 10.4659 17.3567 10.4499 17.2616 10.4308V10.4308ZM17.4381 10.8878C17.4381 10.8878 17.5943 10.8143 17.764 10.8878C17.7844 10.9006 17.8319 10.9197 17.876 10.9261C17.876 10.9261 17.747 10.9677 17.6113 10.9261C17.5536 10.9102 17.5094 10.8974 17.4381 10.8878ZM16.6676 10.6257C16.6676 10.6257 17.0172 10.6577 17.2039 10.6225C17.2039 10.6225 16.9867 10.7184 17.5332 10.6768C17.5332 10.6768 17.652 10.6641 17.635 10.68C17.6248 10.696 17.6147 10.712 17.6758 10.728C17.6758 10.728 17.2684 10.9006 16.6676 10.6257V10.6257Z" fill="#5A3719"/>
<path d="M14.9365 10.3509C14.9365 10.3509 14.9433 10.3732 15.0179 10.4052C15.096 10.4403 15.1367 10.4979 15.1537 10.5298C15.1655 10.5522 15.1822 10.5721 15.2027 10.588C15.2231 10.604 15.2469 10.6157 15.2725 10.6225C15.2725 10.6225 15.001 10.6768 14.8788 10.5394C14.8788 10.5394 14.7871 10.4435 14.9331 10.3477" fill="black"/>
<path d="M17.0749 10.9389C17.0749 10.9389 16.9697 10.9325 16.8204 10.8846C16.6744 10.8366 16.6371 10.8782 16.5522 10.8207C16.4707 10.7599 16.3044 10.7983 16.2739 10.8015C16.2399 10.8047 16.1517 10.8015 16.2637 10.7344C16.2637 10.7344 16.1754 10.7344 16.1415 10.6896C16.1415 10.6896 16.1008 10.728 15.9514 10.7152C15.9514 10.7152 16.0193 10.8111 15.7477 10.7823C15.7933 10.8318 15.8535 10.8673 15.9206 10.8844C15.9877 10.9014 16.0587 10.8993 16.1245 10.8782C16.1245 10.8846 16.1075 10.9581 16.2263 10.9901C16.3553 11.0188 16.3791 11.0412 16.4436 11.0636C16.4436 11.0636 16.4538 11.0156 16.2874 10.9038C16.2874 10.9038 16.3757 10.8974 16.5047 10.9261C16.6337 10.9549 16.9188 11.0252 17.0749 10.9389V10.9389ZM17.1428 11.0572C17.1428 11.0572 17.17 11.1147 17.2515 11.1019C17.3329 11.0891 17.4687 11.07 17.5977 11.1275C17.5977 11.1275 17.6214 11.0252 17.3601 11.0188C17.3601 11.0188 17.1971 11.0252 17.1428 11.0572V11.0572ZM14.9297 10.386C14.9297 10.386 14.8279 10.4659 14.9195 10.5458C15.001 10.6193 15.13 10.6129 15.1911 10.6097C15.1911 10.6097 15.1571 10.5906 15.1232 10.5458C15.0892 10.4979 15.0892 10.4659 15.0213 10.4371C14.9501 10.4084 14.9433 10.402 14.9297 10.386ZM14.8279 9.98331C14.8279 9.98331 14.6717 10.2805 15.2691 10.354C15.2691 10.354 15.2691 10.3221 15.2929 10.2741C15.3133 10.2262 15.3642 10.1303 15.32 10.0696C15.2657 10.0089 15.3574 10.0408 15.371 9.96094C15.3845 9.88104 15.3608 9.89063 15.4049 9.83949C15.4049 9.83949 15.2182 9.90341 15.1435 9.98331C15.0756 10.06 15.242 10.1175 15.1435 10.2038C15.1435 10.2038 15.0587 10.1719 15.0078 10.0888C15.0078 10.0888 14.8957 10.0888 14.8211 9.98331H14.8279Z" fill="#5A3719"/>
<path d="M16.3825 10.6736C16.3825 10.6736 16.5081 10.6545 16.8238 10.7663C17.1428 10.875 17.2752 10.8494 17.3193 10.8462C17.3193 10.8462 17.1428 10.9357 16.8645 10.8207C16.6201 10.7184 16.6065 10.7567 16.3825 10.6736V10.6736Z" fill="black"/>
<path d="M18.3682 10.6065C18.3682 10.6065 18.4361 10.6065 18.4836 10.6225C18.4836 10.6225 18.5074 10.6001 18.5753 10.5906C18.5753 10.5906 18.5311 10.5522 18.3682 10.6065ZM18.151 10.4403C18.151 10.4403 18.2223 10.4403 18.246 10.402C18.246 10.402 18.2087 10.3604 18.151 10.3381C18.151 10.3381 18.1645 10.3892 18.151 10.4403ZM15.7172 9.67969C15.7172 9.67969 15.7002 9.64772 15.7783 9.63494L16.8407 9.49112C16.8407 9.49112 16.8916 9.49112 16.8984 9.52308C16.9086 9.55824 16.895 9.5838 16.654 9.60937L15.7851 9.71165C15.7851 9.71165 15.7206 9.72123 15.7172 9.67969Z" fill="#FFC221"/>
<path d="M16.6778 9.63814C16.6778 9.63814 16.6778 9.76918 16.8204 9.78835C16.9561 9.80753 17.0071 9.78196 17.041 9.71484C17.0512 9.69247 17.0953 9.55504 17.0342 9.54545C17.0071 9.54226 16.9663 9.54545 16.9358 9.55504C16.8883 9.57741 16.8441 9.59979 16.8577 9.61896C16.8916 9.6701 16.8984 9.68288 16.8916 9.68288C16.8509 9.69247 16.8306 9.66371 16.8238 9.64453C16.8136 9.61896 16.8407 9.60618 16.7491 9.61896C16.7084 9.62216 16.6812 9.62216 16.6812 9.63814H16.6778ZM17.2718 9.53587C17.3397 9.54545 17.3363 9.68928 17.2515 9.75639C17.1564 9.82671 17.0682 9.79794 17.0682 9.79794C17.0206 9.78196 17.0274 9.78516 17.0648 9.73402C17.0987 9.68608 17.1157 9.61896 17.0953 9.57422C17.0885 9.55824 17.1055 9.54545 17.1293 9.54226C17.1293 9.54226 17.1971 9.52947 17.2718 9.53587Z" fill="#FFC221"/>
<path d="M17.3329 9.54865C17.3329 9.54865 17.3872 9.61257 17.3193 9.72443C17.3193 9.72443 17.2922 9.75639 17.3567 9.75319C17.4178 9.7468 17.5637 9.68288 17.5502 9.59979C17.5502 9.59979 17.5434 9.58061 17.506 9.58061C17.4687 9.58061 17.4992 9.56463 17.5162 9.55504C17.5298 9.55504 17.5807 9.53586 17.4517 9.45916C17.4517 9.45916 17.4314 9.43998 17.4076 9.44957C17.3872 9.45596 17.3193 9.48153 17.3193 9.51989C17.3193 9.53587 17.3329 9.55185 17.3329 9.55185V9.54865Z" fill="#FFC221"/>
<path d="M17.4721 9.44638C17.4721 9.44638 17.5739 9.5135 17.5739 9.53587C17.5739 9.55504 17.5637 9.58381 17.5909 9.57742C17.618 9.57742 17.7267 9.55504 17.6927 9.48793C17.6656 9.42081 17.635 9.39205 17.5841 9.37926C17.5332 9.36009 17.5196 9.38246 17.4755 9.41442C17.4755 9.41442 17.4449 9.43359 17.4721 9.44638V9.44638ZM16.9256 9.54226C16.9256 9.54226 16.9426 9.49432 16.8509 9.47195C16.8509 9.47195 16.8883 9.43999 16.9663 9.45916C17.041 9.47195 17.0342 9.52308 17.0342 9.52628C17.0342 9.52628 16.9731 9.52628 16.9256 9.54226V9.54226ZM17.1225 9.52948C17.1225 9.52948 17.2243 9.5135 17.2752 9.51669C17.2752 9.51669 17.2209 9.41122 17.0817 9.44318C17.0817 9.44318 17.1326 9.50071 17.1225 9.52948ZM17.3024 9.50391C17.3024 9.50391 17.3024 9.46875 17.3906 9.43679C17.3906 9.43679 17.3499 9.39844 17.2888 9.40483C17.2209 9.40483 17.2039 9.4272 17.2039 9.4272C17.2039 9.4272 17.282 9.45277 17.3024 9.50391V9.50391ZM17.3363 9.38885C17.3363 9.38885 17.394 9.40163 17.428 9.4304C17.428 9.4304 17.4789 9.37607 17.523 9.36648C17.523 9.36648 17.4381 9.32173 17.3363 9.38885Z" fill="#FFC221"/>
<path d="M14.4307 9.12677C14.4307 9.12677 14.6751 8.92862 14.8109 8.95419C14.9467 8.97976 14.8788 8.96058 15.0281 8.93821C15.1775 8.91903 15.3336 8.90305 15.3947 8.90945C15.3947 8.90945 15.2114 8.788 14.889 8.79119C14.889 8.79119 14.6649 8.8647 14.5054 8.96058C14.5054 8.96058 14.2033 8.80398 13.8944 8.89666C13.8944 8.89666 14.2304 9.01491 14.4307 9.12677V9.12677Z" fill="#5A3719"/>
<path d="M17.024 9.46236L17.0648 9.45597C17.0648 9.45597 17.1327 9.53587 17.0851 9.53587C17.0444 9.53587 17.058 9.52628 17.0512 9.50391C17.0474 9.48755 17.0378 9.47289 17.024 9.46236V9.46236ZM16.7185 9.46875C16.7185 9.46875 16.6914 9.50071 16.7389 9.49432C16.7966 9.48473 16.7864 9.49432 16.8441 9.45277C16.8441 9.45277 16.8849 9.41761 16.9527 9.43999C16.9527 9.43999 17.0138 9.45916 17.0614 9.43679C17.1089 9.41122 17.1191 9.41442 17.1462 9.41761C17.1734 9.41761 17.1734 9.424 17.2039 9.39844C17.2379 9.37606 17.299 9.39524 17.3363 9.36648C17.3737 9.33452 17.4212 9.36008 17.3363 9.30256C17.3363 9.30256 17.3193 9.28658 17.3193 9.2706C17.3193 9.2706 17.3533 9.28338 17.3804 9.30256C17.4076 9.32812 17.4483 9.31854 17.4551 9.31534C17.4551 9.31534 17.4619 9.24183 17.5332 9.17791C17.6113 9.11399 17.6113 9.1076 17.5671 9.1076C17.523 9.1076 17.4483 9.08842 17.4212 9.1076C17.394 9.12677 17.1768 9.26101 17.0478 9.28338C16.9188 9.30575 16.8 9.34091 16.7185 9.46875V9.46875ZM13.28 8.72088C13.28 8.72088 13.6772 8.81676 13.7654 8.85511C13.7654 8.85511 13.7858 8.79439 13.6059 8.74645C13.6059 8.74645 14.0437 8.73366 14.502 8.93182C14.502 8.93182 14.726 8.75284 15.4422 8.80717C15.4422 8.80717 15.4422 8.74964 15.449 8.7017C15.449 8.7017 14.9467 8.68892 14.485 8.42365C14.485 8.42365 14.0675 8.61541 13.28 8.72088V8.72088ZM15.4762 8.89986C15.4524 8.52273 15.6052 8.48437 15.6052 8.48437C15.6052 8.48437 15.6765 8.48437 15.7545 8.50035C15.7545 8.50035 15.6323 8.63778 15.6663 8.90944C15.6663 8.90944 15.6798 8.95099 15.5746 8.95099C15.4694 8.95099 15.4762 8.90305 15.4762 8.90305V8.89986Z" fill="#FFC221"/>
<path d="M15.5848 9.15234C15.5848 9.15234 15.5067 9.07883 15.4999 8.99574C15.4999 8.99574 15.4999 8.97656 15.5746 8.97656C15.6527 8.97656 15.6595 8.97017 15.6765 9.01172C15.6968 9.05327 15.7443 9.13956 15.7545 9.14915L15.5848 9.15234Z" fill="#5A3719"/>
<path d="M15.7443 8.96058C15.738 8.91289 15.7358 8.8648 15.7376 8.81676C15.741 8.60582 15.7783 8.625 15.7953 8.65057H15.8733C15.8733 8.65057 15.8156 8.41406 15.7477 8.55469C15.6979 8.65877 15.6803 8.77397 15.6968 8.88707C15.7002 8.95099 15.707 8.99254 15.7172 9.01491L15.7443 8.96058Z" fill="#FFC221"/>
<path d="M16.6167 8.96058C16.6167 8.96058 16.7627 8.98615 16.5386 9.03409C16.5386 9.03409 16.5488 9.29616 16.817 9.11399C16.817 9.11399 16.9765 9.01811 17.0885 8.97976C17.0885 8.97976 17.1428 8.96058 17.136 8.92223C17.136 8.92223 17.1428 8.87429 17.0851 8.88707C17.0851 8.88707 17.0376 8.88707 17.0071 8.87749C17.0071 8.87749 16.9731 8.83913 16.9527 8.85192C16.9324 8.8679 16.8815 8.85831 16.9222 8.90625C16.9629 8.95099 16.9731 8.93821 16.9901 8.92543C17.0105 8.91264 17.0953 8.88068 17.0206 8.9478C16.946 9.01491 16.8781 8.90945 16.8509 8.89027L16.6167 8.96058ZM15.8699 8.99254H15.802C15.802 8.99254 15.7681 9.04368 15.7443 8.96058L15.7206 9.01172C15.7206 9.01172 15.7987 9.29297 15.8699 8.99254Z" fill="#5A3719"/>
<path d="M15.7749 8.66975C15.7749 8.66975 15.7409 8.85511 15.7851 8.96378L16.5013 8.97976C16.5013 8.97976 16.4945 8.85192 16.5013 8.66975H16.4062C16.4062 8.66975 16.3893 8.81676 16.4062 8.90945H16.3893C16.3893 8.90945 16.3757 8.78161 16.3893 8.66975H16.3044C16.3044 8.66975 16.2908 8.80717 16.3044 8.90945H16.2874C16.2874 8.90945 16.2739 8.79119 16.2874 8.66975H16.2026C16.2026 8.66975 16.1856 8.79439 16.2026 8.90945H16.1822C16.1822 8.90945 16.1652 8.7848 16.1822 8.66975H16.0906C16.0906 8.66975 16.0702 8.7848 16.0906 8.90945H16.0736C16.0736 8.90945 16.0532 8.79439 16.0736 8.66975H15.9819C15.9819 8.66975 15.9616 8.80398 15.9819 8.90945H15.9616C15.9616 8.90945 15.948 8.78161 15.965 8.66975H15.8801C15.8801 8.66975 15.8564 8.78161 15.8801 8.90945H15.8564C15.8564 8.90945 15.8428 8.81357 15.8631 8.66975H15.7749ZM16.5318 9.00213C16.5318 9.00213 16.5149 8.67614 16.5794 8.58665C16.6472 8.50355 16.6642 8.52273 16.7762 8.58665C16.8916 8.65696 17.0376 8.73047 17.0648 8.74006C17.0851 8.74965 17.1191 8.75604 17.1191 8.81676C17.1191 8.87749 17.1293 8.89347 17.0308 8.81676C17.0206 8.80717 16.9731 8.76882 16.9392 8.75923C16.8509 8.73047 16.9595 8.77521 16.9901 8.81996C17.0172 8.85192 17.041 8.85192 16.9697 8.8679C16.8223 8.90837 16.6763 8.95314 16.5318 9.00213Z" fill="#FFC221"/>
<path d="M16.7796 8.76563C16.7796 8.76563 16.7287 8.7081 16.7966 8.69212C16.8645 8.67933 16.8679 8.788 16.8815 8.85511C16.8916 8.92543 16.7966 8.788 16.7864 8.76882L16.7796 8.76563ZM16.688 9.05327C16.688 9.05327 16.6099 9.08203 16.6642 9.1044C16.7117 9.12678 16.8509 9.01811 16.8068 9.0245C16.7525 9.03409 16.688 9.05646 16.688 9.05646V9.05327ZM16.7898 8.95739C16.7898 8.95739 16.8577 8.9478 16.8441 8.97337C16.8339 9.00533 16.8102 8.98615 16.7966 8.97976C16.7864 8.97337 16.7423 8.95739 16.7932 8.95419L16.7898 8.95739Z" fill="black"/>
<path d="M17.153 8.8679C17.153 8.8679 17.1734 8.99574 17.2888 9.0277C17.2888 9.0277 17.3567 9.04048 17.3397 8.98615C17.3397 8.98615 17.3295 8.93821 17.3193 8.92223C17.3092 8.89986 17.265 8.89027 17.2582 8.88707C17.2515 8.88707 17.2481 8.87109 17.2786 8.88068C17.3126 8.89027 17.3126 8.89346 17.3126 8.87109C17.3126 8.84872 17.2922 8.85831 17.265 8.84552C17.2515 8.83913 17.265 8.83274 17.2752 8.83594C17.2888 8.83594 17.3193 8.84552 17.3193 8.80398C17.3193 8.80398 17.3227 8.77841 17.2888 8.77841C17.2515 8.77841 17.2548 8.75923 17.265 8.75603C17.2752 8.75603 17.3159 8.7816 17.3295 8.73686C17.3397 8.69531 17.2752 8.72088 17.282 8.69851C17.2922 8.67294 17.3397 8.70809 17.3397 8.68253C17.3465 8.65696 17.3838 8.64737 17.3193 8.63778C17.2888 8.63459 17.3193 8.61861 17.3533 8.625C17.3872 8.62819 17.4076 8.58665 17.4314 8.57386C17.4517 8.55788 17.5739 8.49077 17.411 8.51314C17.2515 8.53551 17.2039 8.60902 17.1971 8.625C17.1567 8.6999 17.1413 8.78459 17.153 8.8679V8.8679Z" fill="#FFC221"/>
<path d="M17.5264 8.96378C17.5502 8.96378 17.5671 8.96378 17.5739 8.97976C17.6011 9.03089 17.54 9.01172 17.506 9.05007C17.4721 9.08842 17.4721 9.08203 17.4246 9.06605C17.377 9.05327 17.3567 8.98615 17.3567 8.98615C17.3567 8.96378 17.3737 8.96058 17.3974 8.96697C17.3974 8.96697 17.4755 8.97337 17.5298 8.96697L17.5264 8.96378ZM17.3567 8.93821C17.3567 8.93821 17.3567 8.95099 17.3872 8.95419C17.411 8.95419 17.4891 8.96378 17.54 8.95099C17.54 8.95099 17.5536 8.9478 17.5468 8.91903C17.5468 8.91903 17.5468 8.89666 17.506 8.90625C17.4619 8.91264 17.4042 8.90625 17.3804 8.90305C17.3601 8.89666 17.3465 8.90305 17.3533 8.93501L17.3567 8.93821ZM17.3499 8.84552C17.3499 8.84552 17.3465 8.88707 17.3872 8.89027C17.4314 8.89666 17.4857 8.89666 17.506 8.89027C17.523 8.89027 17.5536 8.88388 17.557 8.85831C17.557 8.83594 17.5637 8.81996 17.5128 8.83274C17.4619 8.84553 17.3974 8.83274 17.3906 8.83274C17.3872 8.83274 17.3499 8.82315 17.3499 8.84552V8.84552ZM17.3669 8.76562C17.3669 8.76562 17.3567 8.7848 17.3601 8.80398C17.3601 8.81996 17.3906 8.82635 17.4449 8.82635C17.4992 8.82635 17.5468 8.81996 17.5536 8.80398C17.557 8.7816 17.5705 8.76243 17.5298 8.77202C17.4857 8.77521 17.428 8.77841 17.4076 8.77202C17.3872 8.76243 17.3703 8.75923 17.3669 8.76562V8.76562Z" fill="#FFC221"/>
<path d="M19.3967 8.97017C19.3967 8.97017 19.3967 9.00213 19.4273 9.04048L17.893 8.99893C17.893 8.99893 17.9134 8.98615 17.9201 8.92862L19.3967 8.97017Z" fill="#5A3719"/>
<path d="M17.3804 8.7081C17.3804 8.7081 17.3669 8.74325 17.394 8.75284C17.4178 8.75923 17.4687 8.76562 17.5298 8.75604C17.5298 8.75604 17.5637 8.75604 17.5739 8.72408C17.5841 8.69212 17.5841 8.71129 17.4958 8.69851C17.4958 8.69851 17.4687 8.68892 17.5468 8.68892C17.5468 8.68892 17.5943 8.68892 17.5977 8.68253C17.6079 8.67614 17.6656 8.62819 17.5875 8.63459C17.5094 8.63459 17.5502 8.61861 17.5875 8.61861C17.6282 8.61861 17.6418 8.62819 17.6554 8.61861C17.669 8.60902 17.6554 8.61222 17.6316 8.59304C17.6079 8.57386 17.6282 8.57706 17.6418 8.58984C17.6588 8.59943 17.669 8.60582 17.6859 8.58984C17.7029 8.57386 17.6724 8.55149 17.6859 8.55788C17.6961 8.55788 17.7063 8.58345 17.7538 8.55788C17.8081 8.53551 17.8726 8.54829 17.8896 8.55788C17.91 8.57386 17.9643 8.58984 17.9948 8.55788C18.0288 8.53231 17.9575 8.50355 17.9846 8.50035C18.0186 8.49716 18.039 8.50675 18.0491 8.48437C18.0627 8.45881 18.0016 8.43963 18.0593 8.42685C18.1136 8.41087 18.0661 8.26704 18.0491 8.25106C18.0491 8.25106 17.9846 8.28622 17.9201 8.38849C17.8489 8.49396 17.8081 8.55469 17.7165 8.52273C17.5841 8.47479 17.5128 8.5419 17.4958 8.55469C17.4619 8.57386 17.5637 8.58025 17.5026 8.58345C17.4449 8.58345 17.4449 8.58984 17.4415 8.59623C17.4347 8.60582 17.4415 8.61221 17.4517 8.61541C17.4619 8.61541 17.4823 8.63459 17.4483 8.63459C17.4144 8.63459 17.3872 8.625 17.3974 8.66335C17.3974 8.66335 17.3974 8.66974 17.4178 8.67294C17.4381 8.67294 17.4449 8.69851 17.4076 8.69851C17.3804 8.69851 17.3804 8.7049 17.3804 8.7081V8.7081ZM17.5196 9.06925C17.5196 9.06925 17.4958 9.08523 17.5298 9.08842C17.5705 9.08842 17.5875 9.09801 17.6011 9.07883C17.6147 9.05966 17.6622 9.06605 17.6282 9.04048C17.5943 9.01491 17.5739 9.03089 17.5196 9.07244V9.06925Z" fill="#FFC221"/>
<path d="M17.6791 8.63459C17.6791 8.63459 17.8081 8.52273 17.9134 8.59623C18.022 8.67613 18.0288 8.68572 18.0322 8.68892C18.0322 8.68892 18.0457 8.69851 18.0186 8.72088C17.988 8.74645 18.0186 8.74645 18.0491 8.73047C18.0797 8.71449 18.0831 8.73047 18.0967 8.74645C18.1136 8.76243 18.134 8.77202 18.0865 8.77202H17.9303C17.9303 8.77202 17.8591 8.77841 17.8964 8.74964C17.9303 8.72088 17.9235 8.68892 17.9066 8.68572C17.8862 8.68572 17.9066 8.7049 17.8964 8.71768C17.8828 8.73047 17.8591 8.74005 17.8319 8.74005C17.8047 8.74005 17.7844 8.75923 17.8251 8.77202C17.8624 8.7848 17.8183 8.79439 17.798 8.79439C17.7776 8.79439 17.6791 8.80078 17.781 8.81356C17.8828 8.82315 17.7708 8.82315 17.8489 8.8615C17.9303 8.90625 17.8692 8.99893 17.8387 9.00852C17.8387 9.00852 17.8047 9.0245 17.8455 9.02131C17.8896 9.01491 17.9134 9.01172 17.8794 9.03409C17.8523 9.05327 17.7912 9.12677 17.7097 9.07244C17.7097 9.07244 17.669 9.05327 17.7369 9.05007C17.8047 9.05007 17.6825 9.03409 17.6588 9.01811C17.6418 9.00852 17.557 8.93182 17.6079 8.93821C17.6622 8.95099 17.6418 8.92223 17.6113 8.91264C17.5841 8.90305 17.5773 8.8615 17.6113 8.8679C17.6452 8.87748 17.6791 8.89666 17.7131 8.89346C17.7369 8.89346 17.7301 8.88388 17.6724 8.8679C17.6147 8.84872 17.5909 8.84552 17.6045 8.80398C17.6181 8.75604 17.6825 8.81996 17.6656 8.7848C17.652 8.75284 17.5977 8.76882 17.6248 8.72407C17.652 8.67933 17.6588 8.69851 17.6758 8.7049C17.6859 8.7081 17.7097 8.7049 17.6724 8.67933C17.6452 8.66335 17.6724 8.63778 17.6791 8.63459Z" fill="#FFC221"/>
<path d="M17.7708 8.66655C17.7708 8.66655 17.7708 8.65057 17.798 8.65376C17.8183 8.65376 17.8115 8.64737 17.8183 8.64098C17.8251 8.64098 17.8828 8.65696 17.8285 8.67294C17.8081 8.68253 17.7742 8.67933 17.7742 8.66655H17.7708Z" fill="black"/>
<path d="M17.8964 8.79439C17.8964 8.79439 17.8523 8.81356 17.8896 8.85831C17.9235 8.89027 17.9235 8.90625 17.9235 8.92862C17.9201 8.95419 19.3967 8.97017 19.3967 8.97017C19.3967 8.97017 19.3967 8.87748 19.4578 8.82635L17.8964 8.79439V8.79439Z" fill="#FFC221"/>
<path d="M19.4205 8.9446C19.4205 8.9446 19.4273 8.8679 19.4748 8.84552C19.4985 8.82954 19.5291 8.83594 19.5427 8.89666C19.563 8.98295 19.485 9.05966 19.451 9.0245C19.4171 8.99254 19.4239 8.9446 19.4239 8.9446H19.4205Z" fill="#5A3719"/>
<path d="M17.7267 9.2706C17.7267 9.2706 17.8251 9.19069 17.8421 9.15554C17.8421 9.15554 18.1068 9.33452 18.0899 9.16832L18.0967 9.08523C18.0967 9.08523 18.1951 9.09481 18.2087 9.02131L17.9609 9.01172C17.9609 9.01172 17.9337 9.00852 17.893 9.04687C17.859 9.08523 17.7776 9.12677 17.7063 9.09162C17.7063 9.09162 17.6724 9.06605 17.6418 9.09162C17.6079 9.1076 17.6079 9.11399 17.635 9.13956C17.6622 9.16513 17.7165 9.23224 17.7267 9.2674V9.2706ZM18.2969 8.77841L18.151 8.77202C18.151 8.77202 18.1001 8.7017 17.9948 8.625C17.9948 8.625 17.9643 8.61221 18.022 8.56747C18.0831 8.52273 18.1001 8.47798 18.1001 8.45561C18.1001 8.43643 18.1001 8.40128 18.1204 8.42365C18.1408 8.44922 18.2901 8.58025 18.3173 8.5419C18.3377 8.50355 18.3411 8.48757 18.3411 8.47479C18.3478 8.462 18.3512 8.42685 18.375 8.4652C18.3954 8.50035 18.4089 8.49077 18.4123 8.58665C18.4123 8.58665 18.4123 8.68253 18.4293 8.71449C18.4293 8.71449 18.2392 8.66016 18.3003 8.77841H18.2969ZM17.6656 8.48437C17.6656 8.48437 17.7776 8.54829 17.8353 8.4652C17.8862 8.3853 17.9235 8.37571 17.8828 8.29581C17.8421 8.2223 17.8828 8.18714 17.9134 8.15518C17.9473 8.12322 17.9745 8.12962 17.9745 8.00817C17.9812 7.88352 18.0695 7.84837 18.1102 7.80682C18.151 7.76847 18.2528 7.71094 18.0967 7.68856C17.9473 7.663 17.6418 7.59268 17.5637 7.48082C17.4857 7.36896 17.4517 7.43288 17.4517 7.43927C17.4517 7.44567 17.4246 7.52557 17.5026 7.67258C17.5807 7.8196 17.6452 7.91548 17.7233 7.96023C17.798 8.00817 17.8658 8.03373 17.8251 8.13281C17.7844 8.23189 17.7233 8.40767 17.6656 8.48437V8.48437Z" fill="#7B3C20"/>
<path d="M18.0763 8.17116C18.0763 8.17116 18.0967 8.42685 18.2901 8.51633C18.2901 8.51633 18.3343 8.42045 18.3173 8.32138C18.3173 8.32138 18.3818 8.32457 18.3988 8.35334C18.3988 8.35334 18.3988 8.27983 18.3105 8.25107C18.2189 8.22869 18.263 8.0593 18.2969 8.04332C18.3275 8.02415 18.3173 7.98899 18.2969 7.96023C18.2732 7.92827 18.2698 7.88672 18.3444 7.90589C18.4225 7.92507 18.4123 7.88672 18.3614 7.85156C18.3173 7.81641 18.3173 7.77166 18.3852 7.77166C18.4531 7.77166 18.5549 7.71094 18.4938 7.69496C18.4259 7.67578 18.4089 7.65341 18.4938 7.63104C18.5855 7.60547 18.6296 7.5767 18.5617 7.56712C18.4938 7.56072 18.4497 7.53835 18.5142 7.52876C18.5787 7.51918 18.504 7.45526 18.4293 7.45526C18.3512 7.44886 18.1917 7.47763 18.3173 7.38175C18.4463 7.28587 18.134 7.35618 18.263 7.29226C18.392 7.22834 18.2189 7.2571 18.1951 7.2571C18.1713 7.2571 18.1713 7.2571 18.1815 7.22514C18.1883 7.19318 18.1645 7.17401 18.1238 7.19638C18.0899 7.21555 18.0899 7.21555 18.0899 7.17401C18.0899 7.12607 18.0457 7.16122 18.0186 7.17401C17.988 7.18359 17.9168 7.23473 17.8862 7.20597C17.8624 7.1772 17.8455 7.15163 17.7572 7.19957C17.669 7.24751 17.6893 7.20597 17.6893 7.18359C17.6893 7.16122 17.7233 7.07493 17.6079 7.16761C17.4925 7.2603 17.5841 7.07173 17.4891 7.13565C17.3974 7.19957 17.3872 7.21236 17.3703 7.18359C17.3533 7.15163 17.3363 7.12926 17.2345 7.19318C17.1293 7.25391 17.2073 7.15163 17.2175 7.12926C17.2345 7.11008 17.2786 6.96946 17.187 7.07812C17.187 7.07812 17.1428 7.15483 17.0444 7.0174C17.0444 7.0174 16.9426 7.15483 16.912 7.09411C16.8849 7.03018 16.8611 7.03018 16.8238 7.06854C16.7898 7.10689 16.817 7.06534 16.8 7.03018C16.7864 6.99822 16.7762 6.9375 16.6031 7.05575C16.43 7.1772 16.6642 7.08771 16.5318 7.14205C16.3995 7.19638 16.0736 7.36577 16.3689 7.33061C16.6642 7.28906 16.2263 7.43608 16.3282 7.46484C16.43 7.49041 16.3961 7.5767 16.783 7.47443C17.1632 7.37855 17.1021 7.46165 17.299 7.37855C17.4959 7.30185 17.2515 7.40732 17.5162 7.40412C17.7776 7.39773 17.5603 7.40412 17.6113 7.45526C17.6622 7.50639 17.8828 7.62464 18.0899 7.64702C18.2969 7.66619 18.3512 7.59268 18.2901 7.67898C18.229 7.76207 18.2087 7.79403 18.1747 7.82599C18.1408 7.85156 18.039 7.92187 18.039 8.03693C18.039 8.15518 17.876 8.17436 17.9371 8.3022L18.0763 8.17436V8.17116Z" fill="#5A3719"/>
<path d="M18.4191 8.45561C18.4191 8.45561 18.3716 8.42365 18.3716 8.36612C18.3716 8.36612 18.4055 8.37251 18.4191 8.39169C18.4191 8.39169 18.5379 8.26385 18.392 8.2191C18.2528 8.17436 18.3241 8.04971 18.3716 8.04971C18.4191 8.04971 18.4293 8.04012 18.3852 7.98579C18.3444 7.93785 18.3512 7.93466 18.4293 7.92187C18.5074 7.90909 18.5006 7.88991 18.4633 7.87393C18.439 7.86028 18.4172 7.84302 18.3988 7.8228C18.3988 7.8228 18.6296 7.73011 18.5549 7.68537C18.4802 7.64382 18.5549 7.65341 18.6228 7.61186C18.6907 7.56711 18.6975 7.55753 18.7076 7.53835C18.7076 7.53835 18.6398 7.54794 18.5922 7.53835C18.5922 7.53835 18.6499 7.50959 18.5922 7.46484C18.5345 7.4201 18.5142 7.38174 18.4225 7.40092C18.3309 7.42329 18.3614 7.39453 18.3954 7.35937C18.4293 7.32422 18.4157 7.30504 18.3512 7.29545C18.3512 7.29545 18.358 7.2571 18.4089 7.21555C18.4089 7.21555 18.2833 7.22194 18.2392 7.20277C18.2392 7.20277 18.2935 7.17081 18.2935 7.12926C18.2935 7.12926 18.2256 7.15163 18.1408 7.14524C18.1408 7.14524 18.1917 7.10369 18.1917 7.06853C18.1917 7.06853 18.0423 7.10049 17.9745 7.14843C17.9745 7.14843 17.9575 7.14843 17.9473 7.12926C17.9337 7.11647 17.9269 7.0973 17.7606 7.14843C17.7606 7.14843 17.7776 7.07812 17.8183 7.05255C17.859 7.02699 17.8523 6.96946 17.5977 7.11967C17.5977 7.11967 17.5637 7.10049 17.5332 7.02699C17.5332 7.02699 17.4755 7.10049 17.4347 7.12606C17.4347 7.12606 17.4008 7.14204 17.4008 7.0941C17.4076 7.04616 17.377 7.07812 17.3533 7.0941C17.3261 7.10689 17.3092 7.14204 17.3193 7.04616C17.3295 6.95028 17.2854 6.93111 17.2854 6.93111C17.2854 6.93111 17.2073 7.03657 17.1598 7.04936C17.1598 7.04936 17.0749 6.97265 17.0444 6.92152C17.0172 6.87038 17.0172 6.8512 16.9867 6.94069C16.9561 7.02699 16.9188 7.03657 16.9188 7.03657C16.9188 7.03657 16.8679 6.99503 16.8645 6.97265C16.8645 6.97265 16.8543 6.99503 16.8373 7.00461C16.8373 7.00461 16.7932 6.95667 16.7966 6.88636C16.7966 6.88636 16.5183 7.03018 16.4843 7.11647C16.4843 7.11647 16.2229 7.10049 16.1177 7.11967C16.1177 7.11967 16.1415 7.04297 16.2094 7.00142C16.2094 7.00142 16.1415 6.99503 16.1415 6.92791C16.1415 6.92791 16.1958 6.9343 16.2297 6.92791C16.2637 6.92152 16.1822 6.82883 16.2671 6.82564C16.3519 6.82244 16.4096 6.86399 16.3689 6.75532C16.335 6.64986 16.3485 6.64986 16.3485 6.64986C16.3485 6.64986 16.4979 6.73295 16.5217 6.71058C16.5488 6.6914 16.5047 6.64666 16.6371 6.66584C16.7694 6.68821 16.7321 6.61789 16.7864 6.6115C16.8373 6.6115 16.8645 6.64346 16.8305 6.41655C16.7966 6.18963 16.9935 6.52841 16.8611 6.18643C16.8611 6.18643 16.8272 6.08096 16.7491 6.03622C16.7491 6.03622 16.7287 6.10973 16.6405 6.04581C16.5522 5.98189 16.3757 5.95632 16.4504 5.90518C16.5251 5.85085 16.559 5.78054 16.5386 5.73899C16.5386 5.73899 16.4504 5.82209 16.301 5.76136C16.1788 5.71342 16.1517 5.80291 16.0295 5.77734C16.0295 5.77734 16.0295 5.74538 16.1347 5.66868C16.2365 5.59517 16.0736 5.69424 16.0125 5.71022C15.948 5.72301 15.931 5.71022 16.0634 5.61115C16.1992 5.51527 16.4707 5.33949 16.4368 5.19566C16.4368 5.19566 16.4979 5.26917 16.6642 5.21484C16.8339 5.16051 16.9561 5.14133 17.0037 5.05504C17.058 4.97514 17.187 4.89524 17.2209 4.87606C17.2582 4.86008 17.3024 4.8441 17.2515 4.924C17.1971 5.00071 17.1157 5.13494 16.8849 5.22443C16.654 5.31392 16.5624 5.37784 16.5217 5.42578C16.4809 5.47372 16.2705 5.57919 16.4096 5.56321C16.5454 5.54084 16.7796 5.56321 16.6676 5.53125C16.559 5.50248 16.4334 5.55042 16.5352 5.46413C16.6371 5.37784 16.654 5.34907 16.8034 5.29155C16.9527 5.23082 17.1157 5.09659 17.0987 5.24041C17.0817 5.38103 16.8068 5.53125 16.7389 5.57919C16.671 5.62393 16.6982 5.61754 16.6982 5.63672C16.6982 5.65589 16.6846 5.69424 16.6574 5.71022C16.6303 5.7294 16.6405 5.74858 16.6472 5.78693C16.654 5.82848 16.6405 5.84446 16.6608 5.85085C16.6812 5.85405 16.7016 5.85724 16.7083 5.88601C16.7151 5.91797 16.7287 5.91797 16.7694 5.91797C16.8068 5.91157 16.8373 5.91797 16.8373 5.93714C16.8373 5.95951 16.8781 5.99147 16.8815 5.92436C16.8849 5.85405 16.9154 5.84446 16.8407 5.87642C16.7661 5.90518 16.7525 5.89559 16.7525 5.86363C16.7525 5.83167 16.7457 5.83807 16.7185 5.83487C16.6846 5.83487 16.6744 5.79332 16.7287 5.76456C16.783 5.73899 16.783 5.76456 16.8509 5.71342C16.9188 5.65909 16.9188 5.6495 16.929 5.61754C16.9392 5.59517 16.8305 5.69424 16.7796 5.71342C16.7287 5.73899 16.7457 5.69744 16.7525 5.6463C16.7627 5.59197 16.8883 5.51846 16.946 5.51846C17.0071 5.51846 17.136 5.55042 17.0817 5.62393C17.024 5.69744 16.8645 5.79013 16.929 5.79652C17.0003 5.80291 17.0105 5.77734 17.0512 5.8093C17.0919 5.84126 17.0512 5.91157 17.0376 5.94993C17.0194 5.98329 16.9939 6.01268 16.9629 6.03622C16.9629 6.03622 16.8883 5.91477 16.8916 6.01065C16.8916 6.10973 16.8747 6.14488 16.8916 6.14808C16.9086 6.15128 16.9867 6.20241 17.0138 6.20241C17.041 6.20241 16.8747 6.27592 16.946 6.28231C17.0138 6.28551 17.1259 6.25035 17.1632 6.18643C17.1632 6.18643 17.0206 6.15447 16.9629 6.10334C16.9629 6.10334 17.1293 6.06498 17.0817 5.91797C17.0817 5.91797 17.2481 5.95951 17.1734 6.02983C17.1055 6.09694 17.0614 6.08736 17.1225 6.10653C17.187 6.12571 17.2141 6.14488 17.2141 6.14488C17.2141 6.14488 17.2582 6.16406 17.2311 6.19602C17.2073 6.22798 17.2073 6.27912 17.2311 6.27592C17.2481 6.27592 17.3193 6.24396 17.2616 6.212C17.2005 6.18004 17.3261 6.18643 17.2752 6.15767C17.2209 6.12571 17.2073 6.12251 17.1937 6.10653C17.1768 6.09694 17.8624 5.71662 17.5162 5.85724C17.5162 5.85724 17.5875 5.71022 17.6893 5.71022C17.7912 5.71022 17.7979 5.78373 17.7402 5.84446C17.6825 5.89879 17.6452 5.99147 17.5128 6.01065C17.5128 6.01065 17.7029 6.09694 17.4789 6.24076C17.4789 6.24076 17.428 6.26314 17.4449 6.27912C17.4619 6.2951 17.5977 6.22478 17.6147 6.18324C17.624 6.1617 17.6379 6.14214 17.6554 6.12568C17.6728 6.10922 17.6936 6.09619 17.7165 6.08736C17.7674 6.06498 18.022 5.90199 18.0967 5.78054C18.1747 5.65589 18.1917 5.6527 18.3411 5.54084C18.4904 5.42897 18.4633 5.45135 18.4836 5.42578C18.5006 5.39701 18.5074 5.35227 18.5753 5.31711C18.6432 5.27876 18.9079 5.14453 18.9928 5.087C19.0742 5.02947 19.244 4.9272 19.3186 4.83771C19.3899 4.75142 19.5902 4.63956 19.6377 4.65873C19.6852 4.68111 19.6309 4.74822 19.5189 4.83132C19.4001 4.91122 19.1116 5.12855 19.0675 5.1637C18.9523 5.25108 18.8242 5.32215 18.6873 5.37464C18.5956 5.38423 18.6058 5.41619 18.5515 5.47052C18.4972 5.52486 18.3716 5.64311 18.3309 5.67507C18.2867 5.70703 18.1849 5.77095 18.1815 5.81889C18.1747 5.86683 18.1985 5.87003 18.117 5.94034C17.9963 6.04452 17.8603 6.13172 17.7131 6.19922C17.7131 6.19922 17.8658 6.25035 17.7742 6.34623C17.6859 6.44211 17.6893 6.42933 17.6859 6.43572C17.6859 6.43572 17.9134 6.40376 17.7538 6.57315C17.7538 6.57315 17.7199 6.62109 17.7912 6.57315C17.8692 6.51243 17.8387 6.44211 17.8251 6.42933C17.8251 6.42933 17.9507 6.35582 18.0933 6.35582C18.2324 6.35582 18.229 6.34623 18.1001 6.31108C18.1001 6.31108 18.1917 6.2088 18.2698 6.25994C18.3444 6.30788 18.3173 6.33984 18.2392 6.38139C18.1578 6.41974 18.0423 6.43572 17.9507 6.48366C17.9507 6.48366 18.1204 6.51562 18.2087 6.44851C18.2969 6.38459 18.3037 6.41655 18.3105 6.42933C18.3275 6.44211 18.3377 6.46129 18.2969 6.51243C18.2562 6.56676 18.2528 6.56995 18.2562 6.58274C18.2562 6.59552 18.2528 6.63068 18.1713 6.64666C18.0933 6.65625 18.0525 6.68821 18.0831 6.72336C18.1068 6.76172 18.1068 6.8512 18.0423 6.84162C17.9745 6.83203 17.988 6.78089 17.9643 6.76172C17.9371 6.74254 17.8998 6.71378 17.781 6.76811C17.6588 6.82883 17.652 6.75852 17.6554 6.72017C17.6554 6.72017 17.5773 6.78409 17.5128 6.72656C17.4449 6.66584 17.506 6.64346 17.5468 6.6147C17.5807 6.58274 17.7335 6.51882 17.6418 6.5348C17.5502 6.54439 17.4144 6.54758 17.3838 6.48366C17.3499 6.41655 17.4517 6.42294 17.4653 6.42933C17.4823 6.43572 17.5434 6.48366 17.5502 6.41974C17.5502 6.35582 17.652 6.34623 17.618 6.33665C17.5841 6.32386 17.5332 6.36541 17.5196 6.37819C17.5196 6.37819 17.4517 6.28551 17.3363 6.31427C17.2209 6.34623 17.3703 6.33664 17.4042 6.33984C17.4314 6.34623 17.4144 6.39737 17.3126 6.48686C17.2107 6.57315 17.2548 6.54439 17.3295 6.54439C17.4076 6.54439 17.5977 6.54439 17.4857 6.62748C17.377 6.71378 17.3329 6.75532 17.282 6.74254C17.2209 6.72656 17.282 6.6914 17.3092 6.67542C17.3363 6.65944 17.3499 6.63707 17.2956 6.65625C17.2413 6.67223 17.2243 6.67862 17.1802 6.60831C17.1394 6.5348 17.153 6.55717 17.1734 6.50923C17.1937 6.46129 17.2345 6.41335 17.187 6.42933C17.1326 6.44851 17.1394 6.4517 17.1428 6.39737C17.1462 6.34304 17.0851 6.33025 17.0851 6.33025C17.0851 6.33025 17.1123 6.38459 17.0885 6.41974C17.0682 6.4517 17.0648 6.46449 17.1021 6.47088C17.136 6.48366 17.17 6.51243 17.1225 6.54439C17.0749 6.57315 17.0817 6.56676 17.1089 6.58593C17.1428 6.60831 17.187 6.62748 17.1394 6.67223C17.0919 6.71697 17.1293 6.70419 17.153 6.70419C17.1802 6.70419 17.2311 6.72336 17.2311 6.76811C17.2311 6.80646 17.2311 6.81605 17.3092 6.7777C17.3872 6.73615 17.5366 6.74254 17.5366 6.79687C17.5366 6.8544 17.5162 6.87038 17.5977 6.82244C17.6791 6.7745 17.7165 6.86718 17.7742 6.82244C17.8285 6.7745 17.8624 6.73295 17.9303 6.80966C17.9948 6.88636 17.9745 6.90554 17.8964 6.96307C17.8183 7.0174 17.9337 6.97585 17.9948 6.94709C18.0559 6.91832 18.2222 6.89914 18.3173 6.94069C18.4157 6.97905 18.4429 6.97265 18.5142 6.94069C18.5854 6.91513 18.6228 6.90873 18.728 6.97585C18.84 7.04616 18.9215 7.05895 18.9792 7.05575C18.9792 7.05575 18.8604 7.10049 18.7246 7.10689C18.5888 7.11647 18.521 7.13885 18.4972 7.15802C18.4972 7.15802 18.5753 7.20596 18.5922 7.2603C18.5922 7.2603 18.6805 7.25071 18.7212 7.26669C18.7212 7.26669 18.7009 7.32741 18.7552 7.35937C18.8095 7.39133 18.8468 7.40412 18.8061 7.44566C18.7654 7.49041 18.8706 7.47123 18.8095 7.53196C18.7518 7.59588 18.7382 7.62784 18.7348 7.67578C18.7348 7.72691 18.7484 7.73331 18.6975 7.7397C18.6432 7.74289 18.7043 7.80042 18.6805 7.86754C18.6567 7.93146 18.5108 7.92187 18.5176 8.09765C18.5176 8.09765 18.5583 8.01136 18.6465 7.93785C18.7314 7.86115 18.7348 7.85476 18.7314 7.81001C18.7314 7.76527 18.728 7.77486 18.7721 7.7397C18.8197 7.70774 18.7518 7.67578 18.7993 7.62464C18.8434 7.5767 18.8061 7.58629 18.8604 7.53835C18.9113 7.48721 18.8095 7.48402 18.8672 7.43288C18.9181 7.38174 18.7314 7.32102 18.7891 7.28906C18.84 7.2571 18.9351 7.21236 18.6194 7.21555C18.6194 7.21555 18.6975 7.10049 18.9588 7.12287C18.9588 7.12287 18.8909 7.174 18.8842 7.21875L18.9385 7.23473C18.9385 7.23473 18.9249 7.26988 18.874 7.30824C18.874 7.30824 19.0165 7.38174 19.0403 7.42968C19.0403 7.42968 18.952 7.45525 18.9283 7.48721C18.9283 7.48721 18.969 7.52876 18.9826 7.58309C18.9826 7.58309 18.8842 7.57031 18.874 7.63743C18.8604 7.70454 18.8298 7.6598 18.8298 7.70135C18.8298 7.74289 18.8332 7.75568 18.7993 7.76527C18.7654 7.76527 18.7959 7.80042 18.7993 7.8228C18.8061 7.84517 18.8197 7.8963 18.8129 7.91228C18.8129 7.91228 18.762 7.91228 18.7416 7.91868C18.7416 7.91868 18.7552 8.01456 18.6975 8.03054C18.6398 8.04332 18.7314 8.0625 18.6669 8.07209C18.6058 8.08167 18.616 8.08807 18.5413 8.21591C18.5413 8.21591 18.6058 8.18395 18.6703 8.1392C18.7382 8.09765 18.6635 8.10724 18.7721 8.01136C18.8842 7.90589 18.8638 7.8995 18.8536 7.84836C18.8468 7.79723 18.8434 7.75248 18.8842 7.70454C18.9249 7.6566 18.9351 7.60227 19.0776 7.60866C19.0776 7.60866 19.0369 7.51917 18.986 7.4968C18.986 7.4968 19.0539 7.45525 19.1218 7.44886C19.1218 7.44886 19.0607 7.37535 18.9317 7.30824C18.9317 7.30824 19.0335 7.22514 19.0641 7.18359C19.0641 7.18359 19.0131 7.19318 18.9724 7.18359C18.9724 7.18359 18.9928 7.14204 19.0878 7.08451C19.0878 7.08451 19.1387 7.12926 19.1353 7.1772C19.1353 7.1772 19.2983 7.09091 19.3899 7.10049C19.3899 7.10049 19.4374 7.20916 19.21 7.4201C19.21 7.4201 19.3526 7.42968 19.4137 7.4201C19.4137 7.4201 19.3797 7.52237 19.21 7.5799C19.0403 7.64382 19.244 7.71413 19.0708 7.70135C18.9011 7.68856 18.952 7.74289 18.9554 7.82599C18.9622 7.90909 18.9656 7.99538 18.9622 8.01775C18.9622 8.01775 18.8265 7.9762 18.8265 8.10085C18.8298 8.22869 18.7586 8.25426 18.7416 8.26385C18.7416 8.26385 18.7009 8.23189 18.6398 8.20951C18.6398 8.20951 18.5549 8.36612 18.4191 8.45561V8.45561Z" fill="#5A3719"/>
<path d="M18.2189 6.87677C18.2189 6.87677 18.2664 6.87038 18.3478 6.91512C18.4259 6.96306 18.504 6.86718 18.4157 6.84162C18.3275 6.81605 18.4157 6.78409 18.4972 6.84801C18.5787 6.90873 18.6092 6.87677 18.6398 6.8576C18.6669 6.83522 18.7043 6.82244 18.6499 6.78728C18.5956 6.75213 18.6839 6.76811 18.728 6.79687C18.7688 6.81924 18.7518 6.84481 18.7484 6.8512C18.7416 6.8576 18.7382 6.94389 18.8163 6.86718C18.8977 6.78728 18.9419 6.71378 18.9385 6.67542C18.9385 6.67542 18.9826 6.70099 18.9894 6.74893C18.9962 6.79687 19.0573 6.72336 19.0776 6.69779C19.098 6.67223 19.132 6.60191 19.1286 6.55717C19.1286 6.55717 19.1829 6.63707 19.2643 6.55717C19.3458 6.47727 19.3119 6.52521 19.4069 6.50284C19.5181 6.47477 19.6183 6.41706 19.6954 6.33664C19.7633 6.25674 19.7667 6.31108 19.8516 6.2919C19.9364 6.27272 20.1129 6.15767 20.1299 6.09694C20.1435 6.03622 20.1401 5.99787 20.1163 6.02024C20.0926 6.03941 20.1027 6.02024 20.0654 6.00106C20.0281 5.97869 19.9738 6.02983 19.9738 6.02983C19.9738 6.02983 20.0281 6.06818 19.9839 6.08416C19.9432 6.10333 19.9059 6.15767 19.8278 6.1353C19.7497 6.11612 19.6649 6.20561 19.6649 6.20561C19.6649 6.20561 19.7328 6.25674 19.6411 6.2919C19.5495 6.32386 19.563 6.33664 19.5087 6.29829C19.5087 6.29829 19.4103 6.41654 19.3526 6.44211C19.3526 6.44211 19.3288 6.44211 19.3119 6.41655C19.3119 6.41655 19.244 6.48366 19.2168 6.49645C19.2168 6.49645 19.1727 6.46449 19.1387 6.44851C19.1387 6.44851 19.0607 6.54119 18.9962 6.56676C18.9962 6.56676 18.9758 6.5348 18.9351 6.51243C18.9351 6.51243 18.9147 6.62748 18.7789 6.69779C18.7789 6.69779 18.7857 6.66584 18.7178 6.62429C18.7178 6.62429 18.5481 6.76172 18.4836 6.7745C18.4157 6.78728 18.4768 6.74574 18.4836 6.72656C18.4972 6.71058 18.5379 6.65305 18.4565 6.63068C18.375 6.60831 18.3886 6.64666 18.3716 6.65305C18.3512 6.65944 18.3512 6.64027 18.2969 6.64666C18.2426 6.65305 18.2528 6.67542 18.229 6.68501C18.2019 6.6914 18.1068 6.66903 18.1136 6.72976C18.117 6.78728 18.1645 6.82883 18.0797 6.86399C17.9948 6.89595 18.1136 6.88956 18.2189 6.87677V6.87677Z" fill="#7B3C20"/>
<path d="M18.5617 6.71058C18.5617 6.71058 18.5821 6.63068 18.5108 6.59872C18.5108 6.59872 18.9588 6.53161 18.6194 6.36861C18.6194 6.36861 19.0233 6.2951 18.9249 6.17365C18.8332 6.0522 18.7416 6.07777 18.728 6.07777C18.7144 6.07777 18.8129 6.01065 18.84 6.02024C18.8638 6.02983 19.1863 6.14489 19.1048 6.04261C19.0233 5.94673 19.0301 5.94993 19.0165 5.92117C19.0165 5.92117 19.1218 5.92117 19.2847 6.06818C19.2847 6.06818 19.3186 6.03622 19.3152 5.9755C19.3152 5.9755 19.4273 6.00746 19.4646 6.03942C19.4646 6.03942 19.485 6.00107 19.4748 5.98189C19.4748 5.98189 19.5766 6.02983 19.6106 6.08416C19.6106 6.08416 19.6547 6.04581 19.6615 6.00107C19.6615 6.00107 19.7633 6.04261 19.7871 6.07138C19.7871 6.07138 19.821 6.02983 19.8074 5.9755C19.8074 5.9755 19.9738 6.01705 19.9941 5.92436C19.9941 5.92436 20.1605 5.95632 20.0518 6.01705C19.9161 6.09695 20.0383 5.99787 19.8957 6.09055C19.7871 6.16406 19.726 6.24716 19.6717 6.23118C19.6343 6.2152 19.5868 6.32386 19.5359 6.27273C19.485 6.2184 19.485 6.24077 19.4442 6.2951C19.4162 6.33504 19.3844 6.37249 19.3492 6.40696C19.3492 6.40696 19.322 6.39098 19.2949 6.36861C19.2949 6.36861 19.2677 6.41974 19.227 6.4581C19.227 6.4581 19.193 6.41655 19.1387 6.39418C19.1387 6.39418 19.0607 6.48047 19.0097 6.51243C19.0097 6.51243 18.9622 6.46769 18.9113 6.45171C18.9113 6.45171 18.9045 6.57315 18.8061 6.63388C18.8061 6.63388 18.7857 6.59553 18.7178 6.56996C18.7178 6.56996 18.6703 6.64347 18.5617 6.70739V6.71058Z" fill="#5A3719"/>
<path d="M18.3275 6.52521C18.3275 6.52521 18.2732 6.56356 18.3071 6.60511C18.3411 6.64986 18.3445 6.59872 18.3886 6.59552C18.4327 6.58913 18.9826 6.49964 18.4836 6.36221C18.4836 6.36221 18.5074 6.34304 18.5888 6.33665C18.6771 6.32706 18.9894 6.25035 18.8434 6.14488C18.6975 6.04261 18.5753 6.18004 18.6975 6.0554C18.7993 5.95632 18.7178 5.90838 18.7178 5.90838C18.7178 5.90838 18.4293 6.08736 18.3648 6.12251C18.3037 6.15447 18.2087 6.21839 18.3173 6.25035C18.4293 6.28231 18.5006 6.14169 18.5108 6.17365C18.521 6.20561 18.2935 6.32706 18.3275 6.37819C18.358 6.43572 18.3512 6.48366 18.4089 6.47088C18.4633 6.46129 18.6126 6.49645 18.4938 6.49325C18.3682 6.49005 18.3241 6.52521 18.3241 6.52521H18.3275Z" fill="#5A3719"/>
<path d="M18.5244 6.26314C18.5244 6.26314 18.4734 6.2983 18.5413 6.28232C18.6092 6.26634 18.7416 6.23757 18.7178 6.20561C18.6907 6.17365 18.6024 6.212 18.5244 6.26314Z" fill="black"/>
<path d="M19.4069 5.72621C19.4069 5.72621 19.6615 5.71981 19.7633 5.78693C19.8651 5.85085 19.9194 5.8956 19.95 5.90838C19.95 5.90838 19.9466 5.99787 19.7803 5.93075C19.7803 5.93075 19.7939 5.9755 19.7735 6.02024C19.7735 6.02024 19.7158 5.98189 19.6445 5.96591C19.6445 5.96591 19.6309 5.99787 19.6106 6.02024C19.6106 6.02024 19.5393 5.94993 19.4544 5.92756C19.4544 5.92756 19.4408 5.96271 19.4273 5.97869C19.4273 5.97869 19.339 5.92756 19.2711 5.92756C19.2711 5.92756 19.2847 5.98189 19.2711 6.00106C19.2711 6.00106 19.0878 5.86364 18.9215 5.87962C18.9215 5.87962 18.9996 5.99148 19.0505 6.04261C19.0505 6.04261 18.7178 6.02024 18.7789 5.85085C18.8298 5.68146 18.7721 5.72301 18.9894 5.72301H19.4069V5.72621Z" fill="#7B3C20"/>
<path d="M17.8421 6.19283C17.8421 6.19283 17.8047 6.22479 17.8421 6.24716C17.8794 6.27273 18.0118 6.18324 18.0288 6.17045C18.0491 6.15767 18.0967 6.15767 18.0288 6.20561C17.9609 6.25355 17.8998 6.30149 17.8591 6.35263C17.8591 6.35263 18.0763 6.2951 18.2189 6.18004C18.3648 6.06179 18.2155 6.13849 18.4565 6.02663C18.7043 5.91477 18.8332 5.73579 18.7009 5.75497C18.5719 5.77415 18.4531 5.91477 18.3478 5.9691C18.246 6.02344 18.1883 6.03302 18.2053 6.00106C18.2189 5.9691 18.2969 5.98189 18.4395 5.87322C18.5787 5.76775 18.5481 5.77734 18.5481 5.73899C18.5481 5.70064 18.4972 5.61115 18.7077 5.50248C18.9181 5.39702 19.5766 5.03906 19.6343 4.91122C19.6343 4.91122 19.4408 4.9304 19.1863 5.10618C19.0466 5.21609 18.894 5.31046 18.7314 5.38743C18.6635 5.413 18.6703 5.39382 18.6262 5.44815C18.5165 5.55692 18.4021 5.66141 18.2834 5.76136C18.2392 5.79332 18.2223 5.8125 18.2189 5.88281C18.2189 5.91477 17.9337 6.11612 17.8455 6.19283H17.8421Z" fill="#5A3719"/>
<path d="M18.7144 5.71982C18.7144 5.71982 18.6635 5.73899 18.6126 5.71982C18.5685 5.69744 18.5855 5.60476 18.6975 5.54403C18.832 5.47495 18.9759 5.42334 19.1252 5.39062C19.1252 5.39062 19.1082 5.51207 18.7823 5.61754C18.7823 5.61754 18.8027 5.68146 18.7144 5.71982V5.71982Z" fill="#5A3719"/>
<path d="M18.8298 5.63991C18.8298 5.63991 18.84 5.67187 18.8298 5.69744C18.8298 5.69744 19.4374 5.75177 19.7497 5.40341C19.7497 5.40341 19.3186 5.44176 19.1489 5.54084C19.1489 5.54084 19.2575 5.413 19.58 5.30753C19.9025 5.20206 20.0349 5.07102 20.062 4.99751C20.062 4.99751 19.6547 5.13494 19.4612 5.13494C19.4612 5.13494 19.4205 5.13494 19.3831 5.15092C19.3458 5.17329 19.0844 5.34908 19.0165 5.38104C19.0165 5.38104 19.1625 5.36825 19.2168 5.32351C19.2168 5.32351 19.115 5.57919 18.8298 5.64311V5.63991Z" fill="#AA5323"/>
<path d="M17.6622 5.96591C17.6622 5.96591 17.5841 6.02024 17.618 6.04261C17.652 6.07138 17.7063 6.07457 17.8217 5.98189C17.9439 5.88601 18.2324 5.65589 18.0525 5.64631C18.0525 5.64631 17.8149 5.63352 17.8251 5.76776C17.8319 5.90199 17.6758 5.95952 17.6622 5.96591ZM17.1225 5.88601C17.1225 5.88601 17.2786 5.9723 17.2175 6.04261C17.2175 6.04261 17.6927 5.66548 17.5569 5.58239C17.428 5.49929 17.3227 5.65589 17.3533 5.66868C17.3872 5.68786 17.4551 5.6559 17.4314 5.68786C17.3346 5.7606 17.2325 5.82682 17.1259 5.88601H17.1225ZM17.0003 5.76456C17.0003 5.76456 17.1021 5.79652 17.1089 5.83807C17.1123 5.87642 17.4212 5.63352 17.3397 5.52805C17.3024 5.48011 17.136 5.46413 17.1225 5.55362C17.1157 5.6495 17.2786 5.54403 17.2243 5.61115C17.1496 5.69744 17.024 5.75178 17.0003 5.76456V5.76456ZM18.1068 5.56001C18.1068 5.56001 18.0423 5.60476 18.1034 5.63352C18.1645 5.6559 18.1985 5.61435 18.229 5.59197C18.2596 5.56641 18.4089 5.46413 18.4395 5.40021C18.4734 5.33629 18.5244 5.31392 18.5787 5.28196C18.6296 5.25 19.0064 5.07102 19.2406 4.87607C19.4714 4.68111 19.3763 4.73224 19.614 4.6076C19.8516 4.48295 20.0111 4.3679 20.062 4.23047C20.062 4.23047 19.95 4.26243 19.8516 4.32635C19.7324 4.39852 19.6113 4.46779 19.4884 4.53409C19.4442 4.55007 19.3865 4.55327 19.3526 4.58523C19.3186 4.61719 19.3186 4.65874 19.2066 4.74503C19.0878 4.83771 18.4938 5.23402 18.4191 5.28835C18.3132 5.37706 18.2091 5.46763 18.1068 5.56001Z" fill="#5A3719"/>
<path d="M17.6282 5.69105C17.6282 5.69105 17.6961 5.65909 17.8183 5.66548C17.9405 5.67187 18.4225 5.23082 18.5651 5.14453C18.7819 5.00434 18.9936 4.85723 19.1998 4.70348C19.2609 4.64595 19.2677 4.58842 19.322 4.55646C19.373 4.5245 19.4239 4.5277 19.5393 4.46378C19.6581 4.39986 20.2283 4.08026 20.1944 3.89489C20.1944 3.89489 19.3458 4.37429 19.1523 4.5277C18.8811 4.72685 18.6014 4.91557 18.3139 5.09339C18.2189 5.15412 18.1442 5.2532 17.9779 5.37464C17.8183 5.49929 17.6554 5.60476 17.6282 5.69425V5.69105Z" fill="#AA5323"/>
<path d="M17.4517 5.51847C17.4517 5.51847 17.6079 5.50568 17.6282 5.57919C17.6282 5.57919 17.9677 5.36186 18.0423 5.27237C18.117 5.18288 18.0152 5.23402 18.2087 5.11577C18.5201 4.92033 18.8257 4.71677 19.1252 4.50533C19.2168 4.43182 19.3899 4.32955 19.5291 4.24325C19.6649 4.15376 20.2046 3.90447 20.1435 3.69993L19.6615 4.00355C19.5698 4.06108 19.5291 4.02912 19.4408 4.09624C19.3526 4.16335 19.1523 4.29758 19.1184 4.33913C18.9626 4.46485 18.7994 4.58222 18.6296 4.6907C18.4802 4.78658 18.151 4.96555 17.988 5.09979C17.8118 5.24328 17.633 5.38392 17.4517 5.52166V5.51847Z" fill="#AA5323"/>
<path d="M16.9629 5.48011C16.9629 5.48011 17.041 5.48011 17.0682 5.50888C17.0682 5.50888 17.2141 5.38423 17.3703 5.50888C17.3703 5.50888 17.9405 5.14134 17.9982 5.04865C18.0559 4.95916 18.151 4.95597 18.3716 4.80575C18.5956 4.65234 18.7348 4.58523 18.8808 4.47976C19.0301 4.37109 19.1557 4.24645 19.2609 4.18253C19.3662 4.11861 19.6343 3.95241 19.5936 3.80859C19.5936 3.80859 19.3729 3.92365 19.2338 4.07067C19.0912 4.21768 19.1048 4.09304 18.9588 4.21449C18.7912 4.35981 18.6054 4.48538 18.4055 4.58842C18.2189 4.67472 18.3309 4.66513 18.1951 4.74822C18.0627 4.82812 18.0729 4.81214 18.0254 4.82812C17.9587 4.84291 17.8984 4.87634 17.8523 4.92401C17.7979 4.97834 17.669 5.05185 17.5264 5.13175C17.3275 5.23109 17.1388 5.34772 16.9629 5.48011V5.48011Z" fill="#AA5323"/>
<path d="M17.136 5.19886C17.136 5.19886 17.1021 5.13814 17.1598 5.09339C17.2141 5.05185 17.316 4.93999 17.3295 4.86967C17.3465 4.79616 17.3329 4.80895 17.4925 4.74822C17.9518 4.56651 18.387 4.33482 18.7891 4.05788C18.8502 4.00994 19.0064 3.91087 19.0709 3.85973C19.0709 3.85973 19.098 3.93963 19.0301 3.99396C18.797 4.16606 18.5533 4.32507 18.3003 4.47017C18.2256 4.50533 18.0424 4.59481 17.9745 4.64595C17.91 4.69709 17.9202 4.70987 17.6282 4.8473C17.3397 4.97834 17.3227 4.99432 17.3329 5.00391C17.3431 5.01669 17.4755 4.96236 17.5366 4.9272C17.5977 4.89524 17.8353 4.78977 17.91 4.73544C17.9856 4.67757 18.0649 4.6242 18.1476 4.57564C18.3557 4.46323 18.5595 4.34383 18.7586 4.21768C18.8774 4.13139 18.9113 4.10582 18.9385 4.1218C18.9622 4.13459 19.0064 4.13459 18.952 4.18572C18.8977 4.23686 18.7246 4.37749 18.6567 4.41903C18.5888 4.46058 18.3818 4.57883 18.3241 4.6044C18.2664 4.63636 18.2426 4.6843 18.2087 4.70668C18.1781 4.73224 18.0831 4.79297 17.9711 4.81854C17.8591 4.8441 17.8353 4.92401 17.7572 4.97195C17.6792 5.01669 17.1462 5.29155 17.1293 5.30114C17.1293 5.30114 17.1598 5.26918 17.136 5.19886V5.19886Z" fill="#AA5323"/>
<path d="M18.9962 4.06108C18.9962 4.06108 18.9656 4.08665 18.9826 4.09943C19.003 4.11861 19.0776 4.16974 19.1727 4.08025C19.3054 3.96385 19.4472 3.85701 19.597 3.76065C19.6751 3.71271 19.7192 3.67116 19.7158 3.61044C19.7158 3.61044 19.3288 3.8022 18.9962 4.06108ZM19.5257 4.02912C19.5257 4.02912 19.5834 3.93643 19.7294 3.84694C19.8753 3.76065 20.096 3.63281 20.1197 3.60405C20.1197 3.60405 20.174 3.65838 20.062 3.72549C19.9382 3.79769 19.816 3.87227 19.6954 3.94922C19.6717 3.97159 19.6275 4.00035 19.5257 4.02912Z" fill="#AA5323"/>
<path d="M16.576 5.03906C16.576 5.03906 16.413 5.12216 16.4707 5.17329C16.5284 5.22123 16.6133 5.20525 16.654 5.19247L16.7627 5.16051C16.7762 5.16051 16.9154 5.11896 16.9527 5.05824C16.9867 4.99432 17.0817 4.924 17.1564 4.87287C17.2311 4.82493 17.2582 4.7706 17.2481 4.73544L16.576 5.03906ZM15.612 5.74219C15.612 5.74219 15.7274 5.67827 15.8835 5.71981C15.8835 5.71981 15.8767 5.68466 15.8496 5.66548C15.8496 5.66548 16.0431 5.61754 16.0838 5.53764C16.1245 5.45774 16.1347 5.47372 16.1686 5.45454C16.2094 5.42898 16.464 5.23721 16.4334 5.19567C16.4029 5.15412 16.3995 5.09659 16.3757 5.07741C16.3757 5.07741 16.3248 5.14453 16.0702 5.25959C15.8258 5.37464 15.5475 5.45774 15.3438 5.71342C15.1435 5.9691 15.1639 6.11612 15.4117 6.18324C15.4117 6.18324 15.5814 6.08096 16.0091 6.11612C16.43 6.15128 16.5726 6.30149 16.5997 6.32706C16.6269 6.35582 16.7117 6.4549 16.6303 6.6179C16.6303 6.6179 16.7151 6.65305 16.7185 6.57635C16.7287 6.50284 16.7321 6.51882 16.7525 6.52841C16.7728 6.54119 16.7966 6.54439 16.7864 6.48366C16.778 6.40262 16.7514 6.32419 16.7084 6.25355C16.671 6.20561 16.7151 6.22798 16.7389 6.23437C16.7627 6.24396 16.8509 6.31427 16.8 6.18643C16.7491 6.06498 16.7321 6.12251 16.7321 6.12891C16.7321 6.13849 16.7185 6.16726 16.6031 6.08416C16.5136 6.02033 16.4124 5.97265 16.3044 5.94354C16.2263 5.92436 16.2807 5.92436 16.3282 5.91158C16.3757 5.8924 16.4334 5.88601 16.4572 5.83487C16.4572 5.83487 16.4096 5.84446 16.3282 5.81569C16.2623 5.79746 16.1928 5.79374 16.1251 5.80482C16.0574 5.8159 15.9933 5.8415 15.9378 5.87962C15.9378 5.87962 15.9786 5.73579 15.853 5.74219C15.7308 5.75177 15.6425 5.74858 15.5135 5.84446C15.5135 5.84446 15.5033 5.69744 15.6289 5.62074C15.7545 5.54084 15.7376 5.58878 15.8054 5.5696C15.8733 5.55043 15.8835 5.48331 15.853 5.46094C15.853 5.46094 16.0159 5.4897 16.2874 5.27557C16.2874 5.27557 16.1415 5.45774 15.965 5.4929C15.965 5.4929 15.9344 5.58878 15.7715 5.61115C15.6086 5.63352 15.6154 5.71981 15.6154 5.74219H15.612Z" fill="#7B3C20"/>
<path d="M15.1503 6.62748C15.1503 6.62748 15.225 6.17684 15.6765 6.14488C16.0634 6.11292 16.189 6.16086 16.2671 6.18643C16.3451 6.212 16.5386 6.26314 16.464 6.32067C16.3893 6.37819 16.3451 6.36861 16.3451 6.36861C16.3451 6.36861 16.43 6.27592 16.3519 6.26314C16.2739 6.24716 16.2705 6.2919 16.2603 6.32706C16.2467 6.36861 16.2433 6.41015 16.206 6.44211C16.206 6.44211 16.1652 6.39737 16.1075 6.43572C16.0498 6.47407 16.1008 6.47407 16.1245 6.46768C16.1449 6.46129 16.1754 6.4517 16.1686 6.48366C16.1652 6.51562 16.1347 6.57315 16.0397 6.6179C15.948 6.66264 15.9514 6.65944 15.8428 6.67862C15.7308 6.6946 15.6289 6.73615 15.4864 6.84801C15.3438 6.96307 15.1911 6.92471 15.1605 6.80007C15.1333 6.6914 15.1469 6.62748 15.1469 6.62748H15.1503Z" fill="#5A3719"/>
<path d="M15.6595 6.6115C15.6595 6.6115 15.7002 6.52521 15.6255 6.48366C15.6255 6.48366 15.3913 6.52202 15.32 6.4549C15.32 6.4549 15.5746 6.44212 15.7342 6.38139C15.8903 6.32706 15.8462 6.28551 15.7919 6.27273C15.7376 6.26314 15.6357 6.28871 15.6255 6.33665C15.6255 6.33665 15.5916 6.28551 15.6323 6.25355C15.6765 6.21839 15.7342 6.212 15.7919 6.22798C15.8496 6.24077 15.8971 6.26633 16.0838 6.17685C16.0838 6.17685 16.189 6.19922 16.1958 6.26633C16.1958 6.33665 16.1856 6.36221 16.1754 6.3718C16.1686 6.38459 16.1551 6.40376 16.1313 6.40376C16.1109 6.39737 16.0804 6.39417 16.0532 6.44212C16.0295 6.49006 16.0091 6.52841 15.965 6.56037C15.965 6.56037 16.0159 6.41335 15.8801 6.37819C15.8801 6.37819 15.7681 6.44212 15.6832 6.44531C15.6832 6.44531 15.7919 6.54119 15.6561 6.6115H15.6595Z" fill="black"/>
<path d="M15.9073 6.34304C15.9073 6.34304 15.853 6.2919 15.9209 6.28231C15.9887 6.27912 16.077 6.32706 16.0634 6.36861C16.043 6.40696 15.9616 6.40376 15.9073 6.34304V6.34304Z" fill="#5A3719"/>
<path d="M19.7531 5.63352C19.7531 5.63352 19.6275 5.66548 19.7463 5.73899C19.8617 5.8125 19.9161 5.87322 20.0009 5.8924C20.0858 5.91477 20.1706 5.94034 20.1706 6.02024C20.1706 6.10014 20.1537 6.1321 20.1061 6.18643C20.062 6.24077 20.1333 6.26314 20.1944 6.23437C20.2555 6.20241 20.3064 6.18643 20.3471 6.16406C20.3845 6.14169 20.449 6.14489 20.3947 6.17365C20.3302 6.20561 20.2691 6.22159 20.3471 6.22159C20.4252 6.22479 20.897 6.23437 20.9955 6.20241C21.0973 6.17365 21.2263 6.16406 21.2331 6.04261C21.2331 6.04261 21.2399 5.99148 21.2772 5.96591C21.3112 5.94354 21.3383 5.8924 21.284 5.92756C21.2331 5.96271 21.1923 5.98189 21.1822 5.9691C21.172 5.95952 21.1652 5.94993 21.2059 5.93395C21.2467 5.91797 21.267 5.93395 21.3044 5.88601C21.3383 5.83487 21.3383 5.84126 21.3179 5.82209C21.2976 5.80291 21.2568 5.79013 21.2772 5.76456C21.2976 5.73899 21.3179 5.66868 21.2297 5.71023C21.1448 5.75177 20.9717 5.86364 20.8902 5.87962C20.8156 5.8956 20.7545 5.91797 20.6492 5.93714C20.5474 5.95952 20.4795 5.98189 20.3607 6.04261C20.2487 6.10014 20.2589 6.00746 20.2759 5.99467C20.2759 5.99467 20.32 6.06818 20.4354 5.9723C20.5508 5.87962 20.5135 5.9691 20.7952 5.87962C21.0769 5.79332 21.009 5.78054 21.1177 5.72621C21.2297 5.67187 21.3349 5.66868 21.2534 5.59837C21.1788 5.52166 21.172 5.51847 21.0735 5.59837C20.9138 5.70871 20.7269 5.77908 20.5304 5.80291C20.5304 5.80291 21.1686 5.54723 21.1041 5.50888C21.0484 5.47438 20.9879 5.44748 20.9242 5.42898C20.8801 5.41939 20.8665 5.4098 20.7647 5.45454C20.6628 5.49609 20.6458 5.50568 20.6187 5.50888C20.5847 5.50888 20.4999 5.52805 20.3811 5.58558C20.2589 5.64631 20.1944 5.66868 20.1095 5.71342C20.1095 5.71342 20.1672 5.60795 20.4184 5.53764C20.6696 5.46733 20.7952 5.40341 20.7714 5.39062C20.7477 5.37784 20.6798 5.36506 20.6357 5.37464C20.5847 5.38423 20.6017 5.37145 20.4456 5.42898C20.2928 5.4865 20.3573 5.47372 20.2351 5.49929C20.1095 5.52166 20.062 5.54723 20.0009 5.5728C20.0009 5.5728 20.0281 5.54084 20.1061 5.51207C20.1503 5.49929 20.062 5.48331 20.1808 5.48011H20.2148C20.3169 5.45831 20.4152 5.42279 20.5067 5.37464C20.4829 5.37145 20.3336 5.35547 20.1842 5.42578C20.0315 5.4897 20.0994 5.46733 20.0484 5.47372C19.9941 5.48651 19.8787 5.55043 19.8448 5.58239C19.8074 5.61115 19.7531 5.63033 19.7531 5.63033V5.63352Z" fill="white"/>
<path d="M16.0227 6.27912C16.0227 6.27912 16.0838 6.2951 16.0974 6.33665C16.1143 6.375 16.1517 6.31747 16.1517 6.30149C16.1483 6.28232 16.1109 6.20561 16.0498 6.24077C15.982 6.27592 16.0159 6.27592 16.0227 6.27912Z" fill="#5A3719"/>
<path d="M15.8598 7.05256C15.8598 7.05256 15.9853 6.99503 16.094 7.00462C16.094 7.00462 16.0498 6.86399 16.1245 6.88636C16.1958 6.91193 16.1754 6.89915 16.1924 6.89915C16.1924 6.89915 16.1958 6.80646 16.1754 6.77131C16.1754 6.77131 16.2535 6.78729 16.3316 6.78729C16.3316 6.78729 16.2569 6.65625 16.3384 6.56356C16.3531 6.58978 16.3734 6.61291 16.3979 6.63158C16.4224 6.65025 16.4506 6.66408 16.4809 6.67223V6.59872C16.4809 6.59872 16.5386 6.58913 16.5828 6.6115C16.6303 6.63707 16.6676 6.36861 16.5318 6.31427C16.5318 6.31427 16.4979 6.36221 16.3723 6.38778C16.2467 6.41335 16.2467 6.43572 16.1958 6.52521C16.1449 6.6147 16.094 6.6179 15.9853 6.68501C15.8835 6.74893 15.8156 6.87677 15.8156 6.88956C15.8156 6.88956 15.8665 6.95348 15.8598 7.05256V7.05256Z" fill="#7B3C20"/>
<path d="M20.1095 5.51207C20.1537 5.50568 20.062 5.48331 20.1774 5.48011H20.2114C20.3147 5.45861 20.4142 5.42308 20.5067 5.37465C20.4829 5.37145 20.3336 5.35547 20.1842 5.42259C20.0349 5.4897 20.0994 5.46733 20.0484 5.47692C19.9941 5.48651 19.8787 5.55043 19.8448 5.58239C19.8074 5.61115 19.7531 5.63033 19.7531 5.63033C19.7531 5.63033 19.6275 5.66229 19.7463 5.73899C19.8617 5.8125 19.9161 5.87323 20.0009 5.8924C20.0858 5.91477 20.1706 5.94034 20.1706 6.02024C20.1724 6.05062 20.1677 6.08102 20.1566 6.1096C20.1455 6.13817 20.1283 6.16432 20.1061 6.18644C20.062 6.24077 20.1333 6.26314 20.1944 6.23438C20.2555 6.20242 20.3064 6.18644 20.3471 6.16406C20.3845 6.14169 20.449 6.14489 20.3913 6.17365C20.3302 6.20561 20.2691 6.22159 20.3471 6.22159C20.4252 6.22479 20.897 6.23438 20.9955 6.20242C21.0973 6.17365 21.2263 6.16406 21.2331 6.04261C21.2331 6.04261 21.2399 5.99148 21.2772 5.96591C21.3112 5.94354 21.3383 5.8924 21.284 5.92756C21.2331 5.96271 21.189 5.98189 21.1822 5.96911C21.172 5.95952 21.1652 5.94993 21.2059 5.93395C21.2467 5.91797 21.267 5.93395 21.3044 5.88601C21.3383 5.83487 21.3383 5.84127 21.3179 5.82209L21.284 5.79332C21.284 5.79332 21.2534 5.77095 21.2195 5.79013C21.1448 5.82894 21.0649 5.85797 20.9819 5.87642C20.9276 5.87962 20.8631 5.90519 20.7613 5.95313C20.6594 6.00107 20.4829 6.10014 20.4558 6.00746L20.3607 6.03942C20.2453 6.09695 20.2589 6.01705 20.2759 5.99467C20.2759 5.99467 20.2148 6.05859 20.2182 6.00107C20.2182 5.94354 20.2589 5.95313 20.3302 5.93395C20.3981 5.91477 20.4999 5.87003 20.4592 5.83807C20.415 5.80611 20.3675 5.87003 20.3166 5.8956C20.2691 5.91797 20.1706 5.93395 20.1537 5.86683C20.1401 5.79972 20.1401 5.75178 20.0077 5.74538C19.8719 5.73899 19.8753 5.65909 19.9127 5.62394C19.95 5.59198 19.9805 5.53445 20.1061 5.51207H20.1095Z" fill="#999999"/>
<path d="M20.5338 6.12251C20.5338 6.12251 20.7409 6.03302 20.931 5.99148C21.1245 5.94993 20.9717 5.99787 20.9412 6.00426C20.9072 6.01385 20.6119 6.10653 20.5406 6.13849C20.4727 6.17045 20.4829 6.14489 20.5338 6.12571V6.12251ZM20.5814 6.16406C20.5814 6.16406 20.8156 6.09055 20.8597 6.11932C20.9038 6.15128 20.8665 6.13849 20.8156 6.14489C20.7613 6.14808 20.6221 6.17045 20.5848 6.17045C20.5474 6.17045 20.5814 6.16406 20.5814 6.16406V6.16406ZM20.9547 6.08416C20.9547 6.08416 21.0023 6.07777 21.0057 6.09694C21.0091 6.10973 20.9853 6.11292 20.9615 6.10973C20.9378 6.10653 20.9174 6.09375 20.9581 6.08416H20.9547Z" fill="black"/>
<path d="M14.7769 8.00817C14.7769 8.00817 14.7668 7.81001 14.872 7.71413C14.9772 7.61825 15.4762 7.12287 15.5543 6.98544C15.5543 6.98544 15.6221 7.02699 15.6221 7.10689C15.6221 7.10689 15.707 6.96946 15.7749 6.91513C15.7749 6.91513 15.8326 6.97266 15.8258 7.08771C15.8258 7.08771 15.9446 7.02699 16.1313 7.02699C16.1313 7.02699 16.0634 7.10369 16.06 7.15163C16.06 7.15163 16.318 7.11967 16.4572 7.14204C16.4572 7.14204 16.0974 7.33381 16.1958 7.34979C16.301 7.36577 16.4062 7.34979 16.4062 7.34979C16.4062 7.34979 16.2908 7.45525 16.1075 7.47763C16.1075 7.47763 16.3418 7.47763 16.3859 7.52557C16.3859 7.52557 16.1619 7.55753 15.9786 7.68537C15.9786 7.68537 15.965 7.67898 15.965 7.63104C15.965 7.63104 15.9548 7.67578 15.9039 7.71733C15.853 7.75568 15.7308 7.84517 15.6832 7.88672C15.6357 7.92827 15.5543 8.01456 15.4592 8.01456C15.4592 8.01456 15.4796 7.94744 15.4117 7.92507C15.3764 7.91376 15.3385 7.91227 15.3024 7.92077C15.2662 7.92927 15.2335 7.94741 15.208 7.97301C15.208 7.97301 14.9704 7.97621 14.889 7.98899C14.889 7.98899 14.9433 7.90589 14.9908 7.90589C15.0451 7.90589 15.2488 7.93785 15.2657 7.80362C15.2861 7.67578 15.1367 7.70774 15.1911 7.63104C15.2488 7.55433 15.2352 7.56072 15.2386 7.54794C15.2386 7.54794 15.1911 7.57351 15.1639 7.64382C15.1418 7.72154 15.0913 7.78944 15.0213 7.83558C14.9545 7.87614 14.8987 7.93087 14.8584 7.99538C14.8584 7.99538 14.8143 7.99538 14.7769 8.00817V8.00817Z" fill="white"/>
<path d="M15.0078 7.88991C15.0078 7.88991 15.0179 7.86435 15.0858 7.85156C15.1605 7.84197 15.1639 7.81001 15.1537 7.79403C15.1435 7.78125 15.1028 7.78125 15.1707 7.70454C15.1707 7.70454 15.1978 7.71413 15.2114 7.73011C15.2318 7.74929 15.3099 7.90589 15.0078 7.88991Z" fill="white"/>
<path d="M14.8414 7.75248C14.8414 7.88033 15.0213 7.83239 15.0213 7.83239C14.9735 7.86562 14.9302 7.90426 14.8923 7.94744C14.9059 7.88352 14.7905 7.86754 14.7905 7.86754C14.8009 7.82688 14.8181 7.78804 14.8414 7.75248V7.75248ZM15.4966 7.06534L15.5543 6.98544C15.5543 6.98544 15.6221 7.02699 15.6221 7.10689C15.6221 7.10689 15.707 6.96946 15.7749 6.91513C15.7749 6.91513 15.8326 6.97266 15.8258 7.08771C15.8258 7.08771 15.9446 7.02699 16.1313 7.02699C16.1313 7.02699 16.0634 7.10369 16.06 7.15163C16.06 7.15163 16.318 7.11967 16.4572 7.14204C16.4572 7.14204 16.0974 7.33381 16.1958 7.34979C16.301 7.36577 16.4062 7.34979 16.4062 7.34979C16.4062 7.34979 16.2908 7.45525 16.1075 7.47763C16.1075 7.47763 16.3418 7.47763 16.3859 7.52557C16.3859 7.52557 16.318 7.53516 16.2297 7.56392C16.2297 7.56392 16.1652 7.50639 15.9718 7.51598C15.9718 7.51598 16.1211 7.43288 16.2433 7.40731C16.2433 7.40731 16.189 7.34339 16.1075 7.40412C16.1075 7.40412 15.9412 7.29865 16.0804 7.20597C16.0804 7.20597 15.9853 7.18999 15.9208 7.23153C15.9208 7.23153 15.9208 7.15802 15.9921 7.12606C15.9921 7.12606 15.8088 7.0941 15.7647 7.22195C15.7647 7.22195 15.7308 7.174 15.7477 7.11328C15.7477 7.11328 15.6357 7.174 15.5848 7.24112C15.5848 7.24112 15.5678 7.11328 15.4966 7.06534M15.1435 7.88352C15.113 7.88991 15.0655 7.89311 15.0078 7.88991C15.0078 7.88991 15.0145 7.87393 15.0519 7.85795C15.0519 7.85795 15.0655 7.88352 15.1435 7.88352Z" fill="#999999"/>
<path d="M15.4762 7.39453C15.4762 7.39453 15.561 7.45845 15.5882 7.49041C15.5882 7.49041 15.6663 7.44566 15.69 7.40412C15.69 7.40412 15.7545 7.43927 15.7715 7.49361C15.7715 7.49361 15.8156 7.46804 15.8224 7.42968C15.8224 7.42968 15.9242 7.44886 15.965 7.48082C15.965 7.48082 15.9786 7.38494 15.965 7.32741C15.965 7.32741 16.0363 7.3338 16.0804 7.34978C16.0804 7.34978 16.0397 7.28586 16.2501 7.20596C16.2501 7.20596 16.0906 7.24112 16.0295 7.30184C16.0295 7.30184 15.9616 7.30824 15.931 7.28906V7.43288C15.931 7.43288 15.8903 7.4137 15.8122 7.39772C15.8122 7.39772 15.7919 7.42968 15.7783 7.43608C15.7783 7.43608 15.7274 7.39772 15.707 7.34978C15.707 7.34978 15.6289 7.4169 15.6052 7.44566C15.6052 7.44566 15.5271 7.39453 15.4762 7.39453V7.39453Z" fill="black"/>
<path d="M14.9976 8.37251C14.9976 8.37251 15.0315 8.3853 15.1096 8.32777C15.1877 8.27024 15.4049 8.1392 15.4219 8.03373C15.4456 7.92826 15.354 7.92507 15.2861 7.95383C15.2114 7.98579 15.242 8.04013 15.2454 8.0625C15.2454 8.08167 15.2522 8.15518 15.1333 8.25426L14.9976 8.37251Z" fill="#FFC221"/>
<path d="M14.9772 8.40447C14.9772 8.40447 14.8007 8.33416 14.9568 8.26065C15.113 8.18714 15.1843 8.16797 15.2012 8.10405C15.2216 8.04332 15.208 8.05611 15.1503 8.08167C15.0926 8.10405 14.872 8.20312 14.838 8.11364C14.838 8.11364 14.9297 8.1456 15.0417 8.09446C15.1571 8.04013 15.2522 8.02734 15.1775 8.00497C15.0529 7.99273 14.927 7.99812 14.8041 8.02095C14.7566 8.03373 14.7701 8.03054 14.76 8.07209C14.7532 8.11363 14.7057 8.19993 14.6853 8.2223C14.6683 8.24787 14.6242 8.35014 14.7057 8.39808C14.747 8.41979 14.7933 8.43171 14.8406 8.43283C14.8879 8.43394 14.9348 8.42421 14.9772 8.40447V8.40447Z" fill="#FFC221"/>
<path d="M14.9093 8.04332C14.9093 8.04332 14.8652 8.04972 14.8754 8.0657C14.8822 8.08168 14.8923 8.07848 14.9093 8.07848C14.9195 8.07848 14.9433 8.07209 14.9467 8.0625C14.9467 8.05291 14.9195 8.04013 14.9093 8.04652V8.04332Z" fill="black"/>
<path d="M14.9636 8.36612C14.9636 8.36612 14.8822 8.33097 14.9772 8.28303C15.0689 8.23509 15.1673 8.18714 15.1809 8.16797C15.1809 8.16797 15.1367 8.22869 14.9636 8.36612V8.36612Z" fill="white"/>
</g>
</g>
<defs>
<clipPath id="clip0_6947_99028">
<rect width="21" height="15" fill="white"/>
</clipPath>
<clipPath id="clip1_6947_99028">
<rect width="21.7241" height="15.3409" fill="white" transform="translate(-0.362068 -0.170456)"/>
</clipPath>
</defs>
</svg>
