<svg width="21" height="15" viewBox="0 0 21 15" fill="none" xmlns="http://www.w3.org/2000/svg">
<g clip-path="url(#clip0_6947_99034)">
<g clip-path="url(#clip1_6947_99034)">
<path d="M-0.362061 -0.170456H21.3621V15.1705H-0.362061V-0.170456Z" fill="#008000"/>
<path d="M10.5 9.63175C11.7504 9.63175 12.7641 8.67733 12.7641 7.5C12.7641 6.32267 11.7504 5.36825 10.5 5.36825C9.24959 5.36825 8.23593 6.32267 8.23593 7.5C8.23593 8.67733 9.24959 9.63175 10.5 9.63175Z" fill="#FFE000"/>
<path d="M11.2061 9.25462C12.2352 9.25462 13.0696 8.46905 13.0696 7.5C13.0696 6.53095 12.2352 5.74538 11.2061 5.74538C10.1769 5.74538 9.34253 6.53095 9.34253 7.5C9.34253 8.46905 10.1769 9.25462 11.2061 9.25462Z" fill="#008000"/>
<path d="M3.36499 7.59908C4.67351 7.59908 5.73427 6.6003 5.73427 5.36825C5.73427 4.1362 4.67351 3.13743 3.36499 3.13743C2.05646 3.13743 0.995697 4.1362 0.995697 5.36825C0.995697 6.6003 2.05646 7.59908 3.36499 7.59908Z" fill="#FFE000"/>
<path d="M3.20206 7.05255H3.79608C3.79608 7.05255 3.81984 7.00142 3.78929 6.97585C3.75534 6.95028 3.62975 6.94389 3.66369 6.8544C3.73158 6.66903 3.74516 6.72656 3.78929 6.28551C3.82158 5.90788 3.84421 5.52957 3.85718 5.15092H3.76892C3.76892 5.15092 3.78589 5.36505 3.73498 5.6463C3.68746 5.92755 3.67048 5.94993 3.61617 6.16726C3.59059 6.28956 3.55309 6.40938 3.50416 6.52521C3.45664 6.65305 3.44985 6.65625 3.37517 6.7745C3.2971 6.88956 3.32426 6.84481 3.28352 6.91513C3.25976 6.95028 3.236 6.94069 3.21903 6.96626C3.20545 6.99183 3.20206 7.05255 3.20206 7.05255V7.05255Z" fill="#802000"/>
<path fill-rule="evenodd" clip-rule="evenodd" d="M3.74149 5.12695H3.88347L3.88262 5.1517C3.86965 5.53073 3.84699 5.90942 3.81466 6.28744L3.81464 6.28776C3.7926 6.50802 3.77803 6.60576 3.76006 6.67179C3.75098 6.70517 3.7411 6.7302 3.72945 6.7581C3.72762 6.76248 3.72575 6.76693 3.72383 6.77149C3.71356 6.79591 3.70188 6.82368 3.68776 6.86222L3.68767 6.86247C3.68102 6.88 3.68323 6.89002 3.68679 6.89644C3.69092 6.90388 3.69935 6.91099 3.71314 6.91801C3.72597 6.92454 3.74062 6.92965 3.75603 6.93502C3.75716 6.93541 3.75829 6.9358 3.75942 6.9362L3.75985 6.93635C3.77449 6.94146 3.79293 6.9479 3.80519 6.95714L3.80571 6.95752L3.8062 6.95794C3.83104 6.97872 3.83186 7.00825 3.8294 7.02677C3.82809 7.03661 3.82565 7.04528 3.82358 7.05142C3.82253 7.05452 3.82155 7.05707 3.82081 7.0589C3.82043 7.05981 3.82012 7.06056 3.81988 7.06111L3.81957 7.06179L3.81947 7.06201L3.81943 7.0621L3.81942 7.06213C3.81941 7.06214 3.8194 7.06216 3.79608 7.05256L3.8194 7.06216L3.81273 7.07653H3.20206V7.05256C3.17664 7.0513 3.17664 7.05129 3.17664 7.05129L3.17664 7.05122L3.17665 7.05105L3.17669 7.05046L3.17683 7.04833C3.17695 7.0465 3.17715 7.0439 3.17743 7.04071C3.17798 7.03435 3.17887 7.02556 3.18021 7.0159C3.18272 6.99779 3.18731 6.9724 3.19626 6.95554L3.1968 6.95453L3.19744 6.95356C3.20924 6.93579 3.22451 6.92876 3.23472 6.92407C3.23564 6.92365 3.23652 6.92324 3.23735 6.92285C3.24595 6.9188 3.2533 6.91495 3.26161 6.9029C3.27836 6.87397 3.28383 6.86423 3.28986 6.85482C3.29846 6.8414 3.30823 6.82864 3.3535 6.76192C3.36284 6.74714 3.37106 6.73423 3.37839 6.72272C3.40067 6.68774 3.41478 6.6656 3.42714 6.64263C3.44329 6.61258 3.45641 6.58111 3.48013 6.51729L3.48031 6.51682L3.4805 6.51635C3.52886 6.4019 3.56591 6.28349 3.5912 6.16263L3.59129 6.1622L3.59139 6.16177C3.60669 6.10055 3.619 6.05486 3.62984 6.01464C3.65767 5.91134 3.67577 5.84414 3.70984 5.64254L3.70988 5.64228C3.73509 5.50304 3.74349 5.3804 3.74559 5.29261C3.74664 5.24873 3.74612 5.2136 3.74533 5.18951C3.74494 5.17747 3.74449 5.16819 3.74413 5.16196C3.74395 5.15884 3.7438 5.15649 3.74369 5.15494L3.74357 5.15321L3.74354 5.1528L3.74354 5.15272L3.74149 5.12695ZM3.79573 5.17489C3.7959 5.17885 3.79607 5.18324 3.79622 5.18804C3.79703 5.21289 3.79757 5.24888 3.7965 5.29369C3.79435 5.38325 3.78579 5.50824 3.7601 5.65021C3.72567 5.85393 3.70702 5.92318 3.67899 6.0272C3.66821 6.06722 3.65605 6.11238 3.64106 6.17232C3.61521 6.29576 3.57737 6.41669 3.52801 6.53361C3.50432 6.59733 3.49031 6.63129 3.47256 6.66428C3.45931 6.68892 3.44395 6.71303 3.42127 6.74863C3.414 6.76003 3.40599 6.77261 3.39705 6.78675L3.39685 6.78708L3.39663 6.78741C3.35022 6.8558 3.34099 6.86777 3.33293 6.8804C3.32734 6.88915 3.32232 6.89822 3.30587 6.92661L3.30546 6.92732L3.305 6.928C3.28973 6.95059 3.27342 6.95947 3.26012 6.96573C3.25958 6.96598 3.25906 6.96623 3.25856 6.96646C3.24842 6.97123 3.24494 6.97286 3.24129 6.978C3.23689 6.98702 3.23318 7.00415 3.2307 7.0221C3.23039 7.02432 3.23011 7.02649 3.22985 7.02859H3.77743C3.77801 7.02614 3.77852 7.02352 3.77888 7.02082C3.78061 7.00775 3.77823 6.99905 3.77285 6.99418C3.76806 6.99082 3.7584 6.98697 3.74172 6.98115C3.74044 6.9807 3.73913 6.98025 3.7378 6.97978C3.72306 6.97466 3.7051 6.96841 3.68893 6.96019C3.67132 6.95122 3.6526 6.93836 3.64166 6.91863C3.63018 6.89792 3.6294 6.87363 3.63967 6.84647C3.65417 6.8069 3.66627 6.77814 3.67655 6.75371C3.67845 6.74919 3.68028 6.74483 3.68206 6.74056C3.69343 6.71333 3.70243 6.69043 3.71074 6.65989C3.72756 6.59809 3.74185 6.5041 3.76393 6.28343C3.79547 5.91446 3.81779 5.54485 3.83087 5.17489H3.79573Z" fill="#7B3100"/>
<path d="M3.65352 3.74467C3.66129 3.84427 3.64743 3.94432 3.61278 4.0387C3.56574 4.13745 3.53924 4.24377 3.53471 4.35192C3.47361 4.37109 3.40912 4.22727 3.34802 4.31356C3.39215 4.43182 3.49737 4.5245 3.56526 4.62997C3.57884 4.66193 3.68067 4.74822 3.61957 4.7674C3.47361 4.71946 3.43627 4.54368 3.34802 4.43821C3.29637 4.34725 3.22096 4.27017 3.12891 4.21426C3.03686 4.15834 2.9312 4.12542 2.82189 4.11861C2.73703 4.1218 2.46887 4.10263 2.53676 4.23686C2.63859 4.30078 2.76758 4.34552 2.86941 4.41903C2.94748 4.42542 3.08326 4.54687 3.07647 4.59162C2.94069 4.54048 2.87959 4.47976 2.73703 4.42542C2.54015 4.35511 2.272 4.39666 2.15998 4.57883C2.14301 4.62677 2.11246 4.7642 2.17695 4.78018C2.25163 4.67152 2.35686 4.54687 2.513 4.58203C2.6352 4.59162 2.37722 4.79616 2.47566 4.75461C2.5096 4.74183 2.57749 4.69709 2.6318 4.69069C2.68272 4.69069 2.70987 4.72265 2.74721 4.72905C2.82528 4.73863 2.84904 4.7674 2.83886 4.78657C2.83207 4.80575 2.80492 4.78657 2.72685 4.81214C2.68951 4.82493 2.66914 4.85689 2.62501 4.87287C2.57749 4.88565 2.48245 4.88885 2.44851 4.87287C2.32291 4.82493 2.11925 4.83132 2.08191 4.97834C2.08191 5.04226 2.02081 4.97194 1.99366 5.00071C1.9699 5.07102 1.9665 5.14133 1.85788 5.13494C1.78999 5.19886 1.7221 5.26917 1.63385 5.31711C1.68477 5.42578 1.88164 5.20845 1.87146 5.30113C1.7866 5.41299 1.91898 5.43537 1.97329 5.34907C2.07173 5.25319 2.19393 5.13494 2.33649 5.23402C2.40438 5.29474 2.44511 5.20206 2.49603 5.20206C2.52997 5.28196 2.56731 5.20845 2.60465 5.18608C2.66235 5.17969 2.64538 5.25639 2.71327 5.20845C2.85244 5.12216 3.02216 5.19567 3.15793 5.11257C3.30389 5.04865 3.1783 5.16051 3.14096 5.20525C3.07647 5.32031 3.13078 5.47372 2.995 5.54403C2.9373 5.68146 3.0595 5.86363 2.9373 5.96591C2.92033 6.02983 3.09344 6.02344 3.14096 6.049C3.22922 6.049 3.14096 5.86363 3.22582 5.83807C3.34123 5.90199 3.33444 5.71662 3.31068 5.65909C3.32426 5.53125 3.33105 5.38423 3.39894 5.26598C3.47361 5.12216 3.5415 5.3267 3.46004 5.38423C3.41251 5.51527 3.34463 5.68466 3.44985 5.8093C3.4838 5.81569 3.50756 5.88601 3.5449 5.90518C3.58563 5.92756 3.63994 5.90199 3.64673 5.83807C3.70104 5.6463 3.67388 5.44176 3.74856 5.25319C3.79947 5.19567 3.87076 5.24361 3.90131 5.29794C4.00314 5.4098 4.07442 5.54723 4.19662 5.63991C4.31229 5.68445 4.40653 5.76749 4.46138 5.87322C4.46138 5.95632 4.71257 5.9691 4.63789 5.87322C4.56661 5.78693 4.61413 5.69425 4.68541 5.63352C4.72614 5.64311 4.71596 5.57599 4.68541 5.60156C4.6345 5.59197 4.6311 5.50568 4.69899 5.54723C4.81779 5.58238 4.6922 5.46733 4.64807 5.46413C4.54964 5.4066 4.43762 5.34268 4.3901 5.24041C4.51909 5.24041 4.65147 5.30753 4.78046 5.26917C4.88568 5.21804 4.99091 5.26917 5.02825 5.35866C5.10971 5.34588 5.07577 5.26917 5.02825 5.24361C5.08595 5.22123 5.13008 5.17329 5.0554 5.13174C5.02146 5.087 5.10632 5.0039 4.9977 5.0103C5.00109 4.9304 4.97054 4.86008 4.87889 4.83132C4.78724 4.76101 4.51909 4.93998 4.52927 4.77699C4.50212 4.6875 4.63789 4.7642 4.67523 4.71946C4.71257 4.62358 4.48854 4.63636 4.56321 4.55966C4.61074 4.53409 4.83816 4.49254 4.66165 4.46058C4.62175 4.47159 4.57974 4.47415 4.53866 4.46808C4.49758 4.462 4.45844 4.44743 4.42404 4.42542C4.35955 4.5245 4.17965 4.3679 4.2102 4.54687C4.18644 4.61399 4.02351 4.78977 3.97938 4.65554C4.01332 4.55007 4.2102 4.51811 4.1491 4.37429C4.13891 4.28799 4.06084 4.39027 4.0269 4.38388C4.00653 4.32954 4.08121 4.26243 4.13552 4.24964C4.23735 4.32635 4.23735 4.15376 4.33918 4.16974C4.41047 4.15376 4.31542 4.125 4.29506 4.11221C4.31542 4.06427 4.42744 4.03871 4.31882 3.99396C4.22038 3.93004 4.1491 4.06108 4.07103 4.06747C3.99635 3.98757 4.13891 3.94922 4.17965 3.90767C4.18304 3.87571 4.09818 3.89808 4.12194 3.86932C4.1457 3.83416 4.29845 3.83096 4.22377 3.77344C4.10964 3.74064 3.98681 3.74744 3.87755 3.79261C3.80966 3.81179 3.79269 3.95241 3.73498 3.94602C3.71122 3.8821 3.74516 3.76065 3.65352 3.74467V3.74467ZM4.16268 5.09659C4.24414 5.0838 4.16268 5.21484 4.12873 5.21165C4.12873 5.1669 4.00653 5.1701 4.0846 5.12855C4.10847 5.11373 4.13489 5.10292 4.16268 5.09659V5.09659Z" fill="#008000"/>
<path d="M15.9331 10.1795L16.0827 10.6175L16.5396 10.4545L16.2693 10.8379L16.6896 11.0727L16.2025 11.1127L16.2695 11.5685L15.9331 11.2349L15.5964 11.5683L15.6634 11.1127L15.1765 11.0725L15.5968 10.8377L15.3263 10.4543L15.7833 10.6173L15.9331 10.1795Z" fill="#FFE000"/>
<path d="M13.2172 6.13074L13.3668 6.56871L13.8238 6.40574L13.5535 6.78911L13.9738 7.02392L13.4867 7.0639L13.5537 7.51972L13.2172 7.18607L12.8805 7.51951L12.9476 7.0639L12.4607 7.02371L12.881 6.7889L12.6105 6.40554L13.0674 6.5685L13.2172 6.13074Z" fill="#FFE000"/>
<path d="M15.9331 3.36051L16.0827 3.79847L16.5396 3.63551L16.2693 4.01887L16.6896 4.25368L16.2025 4.29366L16.2695 4.74948L15.9331 4.41584L15.5964 4.74928L15.6634 4.29366L15.1765 4.25348L15.5968 4.01867L15.3263 3.6353L15.7833 3.79827L15.9331 3.36051Z" fill="#FFE000"/>
<path d="M18.3472 5.44884L18.4968 5.8868L18.9537 5.72383L18.6834 6.1072L19.1037 6.34201L18.6166 6.38199L18.6836 6.83781L18.3472 6.50417L18.0105 6.83761L18.0775 6.38199L17.5906 6.34181L18.0109 6.107L17.7404 5.72363L18.1974 5.8866L18.3472 5.44884Z" fill="#FFE000"/>
<path d="M17.0194 7.50064L17.1378 7.77361L17.4499 7.79512L17.2106 7.98548L17.2854 8.27164L17.0194 8.11618L16.7535 8.27184L16.828 7.98569L16.5888 7.79532L16.9013 7.77381L17.0194 7.50064Z" fill="#FFE000"/>
</g>
</g>
<defs>
<clipPath id="clip0_6947_99034">
<rect width="21" height="15" fill="white"/>
</clipPath>
<clipPath id="clip1_6947_99034">
<rect width="21.7241" height="15.3409" fill="white" transform="translate(-0.362061 -0.170456)"/>
</clipPath>
</defs>
</svg>
