<svg width="21" height="15" viewBox="0 0 21 15" fill="none" xmlns="http://www.w3.org/2000/svg">
<g clip-path="url(#clip0_2843_5644)">
<path d="M0 0H21V15H0V0Z" fill="#000066"/>
<path fill-rule="evenodd" clip-rule="evenodd" d="M15.4742 6.65625L15.6449 6.13438L15.1855 5.80312L15.763 5.79688L15.9599 5.28125L16.1436 5.79688L16.7244 5.8125L16.2617 6.14062L16.4258 6.6625L15.95 6.35M16.8392 6.75625L17.1805 6.32188L16.8622 5.85938L17.4102 6.04063L17.7711 5.61875V6.16875L18.3092 6.36875L17.758 6.525L17.7317 7.07188L17.3971 6.62187M14.1683 7.09062L14.1453 6.54375L13.5941 6.38125L14.1421 6.1875V5.64375L14.4997 6.06563L15.051 5.89062L14.7294 6.35L15.0674 6.7875L14.5096 6.64687M13.2102 7.925L12.9674 7.43125L12.3964 7.4875L12.8164 7.10313L12.5999 6.59375L13.0986 6.85L13.535 6.48125L13.4235 7.025L13.9124 7.30312L13.3447 7.38125M12.7639 9.11875L12.3275 8.77188L11.8353 9.05937L12.0453 8.5375L11.6221 8.175L12.1897 8.19687L12.4194 7.68437L12.5605 8.22188L13.1249 8.26875L12.6458 8.575M12.7508 10.4625L12.2094 10.3125L11.878 10.7656L11.855 10.2063L11.3169 10.0344L11.8452 9.84062V9.27812L12.1963 9.71875L12.7344 9.54375L12.4194 10.0125M13.3874 11.6L12.8296 11.675L12.7147 12.2188L12.4588 11.7188L11.8977 11.7688L12.298 11.3844L12.065 10.8719L12.5671 11.1375L12.9871 10.7688L12.8952 11.3125M14.3717 12.5L13.8763 12.7563L13.9616 13.3062L13.5449 12.9187L13.033 13.1562L13.2725 12.6594L12.8689 12.2563L13.4366 12.3375L13.6991 11.8531L13.8106 12.3969M15.576 12.6781L15.3036 13.1562L15.6875 13.5688L15.1166 13.4656L14.8246 13.9344L14.7458 13.3938L14.1814 13.2688L14.6999 13.0375L14.6441 12.4906L15.0444 12.8906M16.9278 12.4812L16.9114 13.025L17.4463 13.225L16.8885 13.3813L16.8491 13.9281L16.521 13.4812L15.9631 13.6187L16.3175 13.1844L16.0091 12.725L16.5538 12.9031M18.3421 6.55625L18.7358 6.95L19.2575 6.71875L18.9852 7.2125L19.3625 7.62187L18.8047 7.53438L18.5094 8.01875L18.4405 7.46875L17.8827 7.35938L18.3978 7.10938M19.52 7.76562L19.7005 8.28438L20.2747 8.29375L19.8088 8.62813L19.963 9.15312L19.5003 8.84062L19.0213 9.15625L19.1985 8.63125L18.7456 8.3L19.3231 8.2875M19.963 9.325L19.8974 9.86875L20.4125 10.1094L19.8449 10.2219L19.7563 10.7625L19.4708 10.2906L18.8999 10.3813L19.2936 9.975L19.0278 9.49063L19.5528 9.71562M19.6513 10.9594L19.3953 11.4469L19.7858 11.8438L19.2149 11.7594L18.9392 12.2375L18.8408 11.6969L18.2699 11.5938L18.7817 11.3438L18.7063 10.8L19.1197 11.1844M18.7981 12.4062L18.3158 12.6938L18.4405 13.2344L17.9975 12.875L17.5053 13.1438L17.7121 12.6344L17.2822 12.2563L17.8531 12.3031L18.0828 11.8031L18.2272 12.3406" fill="white"/>
<path d="M0 0H10.5V7.5H0V0Z" fill="#000066"/>
<path d="M1.23047 0L5.23359 2.82812L9.22031 0H10.5V0.96875L6.5625 3.76562L10.5 6.54688V7.5H9.1875L5.25 4.70312L1.32891 7.5H0V6.5625L3.92109 3.78125L0 1V0H1.23047Z" fill="white"/>
<path d="M6.95625 4.39062L10.5 6.875V7.5L6.05391 4.39062H6.95625ZM3.9375 4.70312L4.03594 5.25L0.885937 7.5H0L3.9375 4.70312ZM10.5 0V0.046875L6.41484 2.98438L6.44766 2.29688L9.67969 0H10.5ZM0 0L3.92109 2.75H2.93672L0 0.65625V0Z" fill="#C8102E"/>
<path d="M3.95391 0V7.5H6.57891V0H3.95391ZM0 2.5V5H10.5V2.5H0Z" fill="white"/>
<path d="M0 3.01562V4.51562H10.5V3.01562H0ZM4.47891 0V7.5H6.05391V0H4.47891Z" fill="#C8102E"/>
</g>
<defs>
<clipPath id="clip0_2843_5644">
<rect width="21" height="15" fill="white"/>
</clipPath>
</defs>
</svg>
