<svg width="21" height="15" viewBox="0 0 21 15" fill="none" xmlns="http://www.w3.org/2000/svg">
<g clip-path="url(#clip0_6947_99033)">
<g clip-path="url(#clip1_6947_99033)">
<path d="M-0.362061 -0.170456H21.3621V15.1705H-0.362061V-0.170456Z" fill="#0021AD"/>
<path d="M-0.362061 -0.170456H21.3621V15.1705L-0.362061 -0.170456Z" fill="#1C8A42"/>
<path d="M10.5 9.3473C11.5836 9.3473 12.462 8.52024 12.462 7.5C12.462 6.47976 11.5836 5.6527 10.5 5.6527C9.41645 5.6527 8.53806 6.47976 8.53806 7.5C8.53806 8.52024 9.41645 9.3473 10.5 9.3473Z" fill="#FFC639"/>
<path d="M9.3018 6.66903C9.43758 6.84481 9.64124 7.13565 9.80417 7.05895C9.92976 7.05895 9.99765 7.06854 10.0146 7.14844C10.2272 7.16824 10.4416 7.13666 10.6376 7.05669C10.8337 6.97672 11.0048 6.85099 11.1348 6.69141C11.1348 6.69141 11.1619 6.69141 11.1517 6.54758C11.1517 6.48366 11.2468 6.49645 11.2468 6.51562C11.2604 6.54758 11.2604 6.56996 11.2773 6.57315C11.3113 6.56037 11.369 6.47727 11.4131 6.42614C11.4233 6.40376 11.4165 6.3782 11.4199 6.34943C11.4437 6.2951 11.5014 6.30788 11.5149 6.33665L11.5353 6.38778C11.5964 6.42614 11.705 6.38778 11.7118 6.38778C11.722 6.34304 11.7526 6.34943 11.7526 6.34943C11.7933 6.33984 11.7763 6.34304 11.8035 6.35582C11.7797 6.60192 11.8544 6.61151 11.8476 6.73935C11.851 6.87997 11.8035 6.91832 11.8035 6.97266C11.817 7.03658 12.0411 7.03977 11.9596 7.0973C11.8917 7.12926 11.9596 7.19318 11.8578 7.21875C11.5591 7.36257 11.5048 7.48402 11.5048 7.48402C11.5048 7.48402 11.4301 7.61825 11.4199 7.61825C11.369 7.70774 11.3079 7.6566 11.2706 7.70135C11.2536 7.75568 11.2366 7.87713 11.2706 7.93785C11.2875 8.02415 11.2705 8.07209 11.2468 8.15838C11.2264 8.33736 11.1517 8.36612 11.1416 8.42685C11.1076 8.49716 11.1484 8.81037 11.1144 8.81037C10.8938 8.81676 10.7241 8.77202 10.6358 8.75604C10.7207 8.40767 10.6867 8.10405 10.6867 8.07209C10.6663 7.8228 10.293 7.88352 10.2353 7.84837C10.1877 7.84197 10.1572 7.80682 10.1436 7.79084C10.0893 7.78445 10.0689 7.77166 10.018 7.76847C9.99086 7.78125 10.0078 7.79403 9.95013 7.81001C9.79738 7.82599 9.73289 7.68856 9.73289 7.68856C9.73968 7.64062 9.39684 7.69815 9.21355 7.6566C9.13547 7.69815 9.10153 7.81641 9.04043 7.82919C9.04043 7.86435 8.9386 7.79723 8.91823 7.76527C8.91144 7.6566 9.01328 7.61186 9.01328 7.61186C9.09474 7.55753 9.14226 7.54794 9.183 7.51278C9.19997 7.4201 9.18979 7.35298 9.23391 7.28587C9.26786 7.23153 9.31877 7.25391 9.35272 7.23473C9.39005 7.20916 9.40703 7.05575 9.37308 7.01101L9.21355 6.87678C9.16602 6.74574 9.27125 6.65945 9.3018 6.66903V6.66903Z" fill="#1C8A42"/>
<path d="M18.711 4.38068C18.6228 4.05149 17.8285 3.33558 17.2277 2.88174C17.0851 2.79226 16.9901 2.84659 17.0104 2.97763C17.0851 3.09268 17.1394 3.22052 17.2141 3.33878C17.2345 3.41868 17.2752 3.47301 17.2956 3.54971C17.2956 3.54971 17.3024 3.68395 17.3159 3.69673C17.4992 3.88849 17.5264 4.05149 17.5264 4.05149C17.62 4.2405 17.7527 4.41 17.9168 4.55007C18.1272 4.67471 17.9711 5.06143 17.9778 5.26917C17.9778 5.39701 17.8794 5.38423 17.7912 5.36505C17.1089 4.77379 16.43 4.77379 15.8292 4.60121C15.5984 4.57883 15.5916 4.6843 15.6697 4.74183C16.0437 5.13418 16.4943 5.45532 16.9969 5.68785L17.2582 5.84126L17.5569 6.07457C17.7878 6.2152 17.8047 6.34304 17.8047 6.35582C17.8115 6.6179 17.6622 6.82244 17.618 6.90554C17.54 7.18359 17.3804 7.23153 17.3804 7.23153C16.1041 8.04332 15.4321 8.25426 13.3615 8.00177C13.3275 7.98899 13.1307 8.01775 13.3615 8.09765C13.8876 8.26385 15.1843 8.52912 16.4368 7.96981C16.7423 7.77166 16.9392 7.83558 17.1598 7.71413C17.47 7.53328 17.7907 7.36896 18.1204 7.22194C18.4021 7.07812 19.1829 6.92152 19.3628 6.78089C19.5698 6.76491 19.7837 6.73934 19.7972 6.57315C19.8651 6.5316 19.967 6.56356 20.0416 6.42613C20.2046 6.39737 20.1774 6.34304 20.1774 6.34304C20.1367 6.23437 19.9805 6.18963 19.8719 6.10973C19.709 6.05859 19.6004 6.04581 19.4816 6.09694L19.3696 6.14488C19.3696 6.14488 19.1964 6.12251 19.1964 6.10973C18.8095 6.09055 18.8468 4.88565 18.711 4.38388V4.38068Z" fill="#FFC639"/>
<path d="M19.6174 6.35582C19.6147 6.36303 19.6096 6.36947 19.6025 6.37476C19.5953 6.38005 19.5863 6.3841 19.5759 6.38668C19.5654 6.38925 19.5538 6.3903 19.5417 6.38976C19.5295 6.38923 19.517 6.38711 19.505 6.38355C19.493 6.37998 19.4816 6.37503 19.4715 6.36897C19.4614 6.36292 19.4529 6.35588 19.4463 6.34826C19.4397 6.34064 19.4352 6.33259 19.4331 6.32456C19.431 6.31654 19.4314 6.3087 19.4341 6.30149C19.4396 6.28693 19.4545 6.27583 19.4756 6.27064C19.4966 6.26544 19.5221 6.26656 19.5464 6.27377C19.5707 6.28097 19.5919 6.29367 19.6052 6.30905C19.6185 6.32444 19.6229 6.34127 19.6174 6.35582V6.35582Z" fill="#1C8A42"/>
<path d="M3.72642 6.29318L3.44835 6.04773L3.16811 6.28909L3.19852 5.93318L2.82269 5.87591L3.13769 5.67545L2.95087 5.36454L3.31366 5.47295L3.45486 5.14159L3.59173 5.475L3.95452 5.37273L3.76335 5.67954L4.07618 5.88409L3.70035 5.93523L3.72642 6.29114V6.29318Z" fill="white"/>
<path d="M4.70834 9.24886L4.40855 9.06273L4.11744 9.25909L4.22172 8.94205L3.92627 8.74773L4.28689 8.73955L4.39551 8.4225L4.51717 8.73545L4.87996 8.73341L4.59103 8.93182L4.70617 9.24682L4.70834 9.24886Z" fill="white"/>
</g>
</g>
<defs>
<clipPath id="clip0_6947_99033">
<rect width="21" height="15" fill="white"/>
</clipPath>
<clipPath id="clip1_6947_99033">
<rect width="21.7241" height="15.3409" fill="white" transform="translate(-0.362061 -0.170456)"/>
</clipPath>
</defs>
</svg>
