<svg width="21" height="15" viewBox="0 0 21 15" fill="none" xmlns="http://www.w3.org/2000/svg">
<g clip-path="url(#clip0_6947_99041)">
<g clip-path="url(#clip1_6947_99041)">
<path d="M-0.362069 -0.170455H21.3621V15.1705H-0.362069V-0.170455Z" fill="#DA000C"/>
<path d="M-0.362069 -0.170455H21.3621V10.108H-0.362069V-0.170455Z" fill="white"/>
<path d="M6.71949 6.79887H10.7928V9.43559H6.71949V6.79887Z" fill="black"/>
<path d="M8.8325 9.05207H6.35035L5.79664 9.39364V9.7532H8.8325M7.79509 7.53596C8.1515 7.53596 8.44427 7.81761 8.44427 8.16517V9.04608H8.90888V5.69025H6.34398V9.04608H7.14591V8.16517C7.14591 7.82959 7.43231 7.53596 7.79509 7.53596V7.53596Z" fill="#DA000C"/>
<path fill-rule="evenodd" clip-rule="evenodd" d="M6.31216 5.66029H8.9407V9.07604H8.86432V9.08203H6.35985L5.82846 9.40983V9.72323H8.86432V9.78316H5.76482V9.37745L6.31216 9.0398V5.66029ZM7.17773 9.02211V8.16517C7.17773 7.84481 7.45127 7.56592 7.79509 7.56592C8.13313 7.56592 8.41244 7.8334 8.41244 8.16517V9.02211H7.17773ZM8.47609 9.01611H8.87705V5.72021H6.37581V9.01611H7.11409V8.16517C7.11409 7.81437 7.41336 7.50599 7.79509 7.50599C8.16987 7.50599 8.47609 7.80182 8.47609 8.16517V9.01611Z" fill="black"/>
<path d="M7.22229 3.42507H8.40608V5.46254H7.22229V3.42507Z" fill="black"/>
<path d="M8.39972 5.14493H7.36867V4.79736H6.61129V5.14493H6.10213V4.79736H5.79027V5.42059H8.39972M6.09577 5.42059H8.32334V5.69025H6.09577V5.42059ZM9.29075 2.40634V4.80336H9.67261V4.22208C9.67261 4.00635 9.83173 3.82657 10.0608 3.81459H10.0863C10.2011 3.81459 10.3112 3.85752 10.3923 3.93394C10.4735 4.01036 10.5191 4.11401 10.5191 4.22208V4.80336H10.8819V2.682L9.29075 2.40634ZM9.14436 2.1187V2.40634H11.0092V2.1187H9.14436ZM8.90888 1.57337V2.1187H11.1364V1.57337H10.7991V1.85502H10.3791V1.57337H9.74262V1.85502H9.32893V1.57337H8.90888ZM5.79027 9.39364H8.84523ZM10.8182 9.22585H8.75613L8.13241 9.5075V9.92698H10.8182" fill="#DA000C"/>
<path fill-rule="evenodd" clip-rule="evenodd" d="M8.87705 1.54341H9.36076V1.82506H9.7108V1.54341H10.4109V1.82506H10.7673V1.54341H11.1683V2.14866H11.041V2.4363H9.63955L10.9137 2.65704V4.83332H10.4873V4.22208C10.4873 4.12195 10.445 4.02593 10.3698 3.95513C10.2946 3.88432 10.1926 3.84455 10.0863 3.84455H10.0618C9.85209 3.85595 9.70444 4.02043 9.70444 4.22208V4.83332H9.25892V2.4363H9.11254V2.14866H8.87705V1.54341ZM11.1046 2.08873V1.60334H10.831V1.88499H10.3473V1.60334H9.77445V1.88499H9.29711V1.60334H8.9407V2.08873H11.1046ZM9.17618 2.14866V2.37638H9.25892V2.37036L9.29365 2.37638H10.9773V2.14866H9.17618ZM9.32257 2.44232V4.77339H9.64079V4.22208C9.64079 3.99254 9.81096 3.79765 10.0591 3.78467L10.06 3.78462H10.0863C10.2095 3.78462 10.3277 3.83071 10.4148 3.91275C10.502 3.99479 10.5509 4.10606 10.5509 4.22208V4.77339H10.85V2.70695L9.32257 2.44232ZM5.75845 4.7674H6.13396V5.11497H6.57947V4.7674H7.40049V5.11497H8.43154V5.17489H7.33685V4.82733H6.64312V5.17489H6.07031V4.82733H5.8221V5.39063H8.43154V5.45055H8.35517V5.72022H6.06395V5.45055H5.75845V4.7674ZM6.12759 5.45055V5.66029H8.29152V5.45055H6.12759ZM8.74889 9.19589H10.85V9.25582H8.76336L8.52449 9.36368H8.87705V9.42361H8.39179L8.16423 9.52636V9.89702H10.85V9.95694H8.10059V9.48864L8.24461 9.42361H5.75845V9.36368H8.37731L8.74889 9.19589Z" fill="black"/>
<path fill-rule="evenodd" clip-rule="evenodd" d="M10.8819 9.53746H8.13241V9.47754H10.8819V9.53746Z" fill="black"/>
<path d="M11.6011 8.81836C11.4292 8.87828 11.2828 8.96218 11.1237 9.04608C10.9257 9.15257 10.7364 9.27275 10.5573 9.40563C10.4936 9.44758 10.43 9.48952 10.3854 9.54945C10.3218 9.59739 10.2581 9.6693 10.2709 9.75919C10.2709 9.79514 10.3218 9.71125 10.36 9.70526C10.4204 9.6748 10.4906 9.66627 10.5573 9.68128C10.64 9.59739 10.7482 9.54346 10.8373 9.47754C11.0967 9.30077 11.3738 9.14823 11.6647 9.02211L11.6011 8.81836Z" fill="#F8D80E"/>
<path fill-rule="evenodd" clip-rule="evenodd" d="M11.6178 8.78696L11.6953 9.03521L11.6753 9.04388C11.3861 9.16929 11.1106 9.32094 10.8526 9.49668C10.8215 9.51973 10.7876 9.54162 10.754 9.56329C10.739 9.57297 10.7241 9.5826 10.7096 9.59226C10.6615 9.62418 10.6155 9.6575 10.5759 9.6976L10.5658 9.70785L10.5514 9.7046C10.4908 9.69095 10.4269 9.6987 10.372 9.72639L10.3683 9.72825L10.3642 9.7289C10.3619 9.72925 10.3561 9.73175 10.3465 9.7395C10.338 9.7463 10.3295 9.75465 10.321 9.76309C10.3205 9.76357 10.32 9.76404 10.3195 9.76452C10.3152 9.76878 10.3107 9.77317 10.3065 9.77689C10.3027 9.78033 10.2976 9.78459 10.2921 9.78756C10.2889 9.7893 10.2723 9.7978 10.257 9.78596C10.2505 9.78098 10.248 9.77467 10.2468 9.77071C10.2459 9.76728 10.2455 9.76389 10.2454 9.76092C10.2319 9.66002 10.3025 9.58194 10.3667 9.53288C10.4137 9.47099 10.4794 9.42768 10.541 9.3871L10.5421 9.38638C10.722 9.25293 10.9122 9.13223 11.1111 9.02526L11.1113 9.02516C11.1354 9.01243 11.1593 8.99966 11.1832 8.98693C11.3153 8.91637 11.4446 8.84736 11.5922 8.79588L11.6178 8.78696ZM11.1363 9.06694C10.9394 9.17283 10.7511 9.29233 10.573 9.42446L10.5725 9.42488L10.5719 9.42527C10.5076 9.46765 10.4478 9.50732 10.4063 9.5632L10.4042 9.56602L10.4013 9.56817C10.3497 9.60708 10.3036 9.65826 10.2958 9.71858C10.3014 9.71333 10.3073 9.70792 10.3134 9.70303C10.3231 9.69528 10.3362 9.68614 10.3512 9.68254C10.412 9.65276 10.4815 9.64314 10.5487 9.65505C10.5894 9.61574 10.635 9.58309 10.6802 9.55308C10.696 9.54262 10.7116 9.53257 10.7269 9.52269C10.7598 9.50139 10.7916 9.48087 10.8216 9.45869L10.822 9.4584L10.8224 9.45812C11.0772 9.28449 11.349 9.13412 11.6341 9.00904L11.5844 8.84997C11.4515 8.89885 11.3333 8.96192 11.209 9.02827C11.185 9.04107 11.1608 9.05398 11.1363 9.06694ZM10.2964 9.75983C10.2964 9.75983 10.2964 9.75981 10.2964 9.75978Z" fill="black"/>
<path d="M10.78 9.26181V9.49552ZM10.9328 9.15993V9.39364ZM11.0855 9.07005V9.29776ZM11.2446 8.98016V9.21986Z" fill="#F8D80E"/>
<path fill-rule="evenodd" clip-rule="evenodd" d="M11.2446 8.9502C11.2622 8.9502 11.2765 8.96361 11.2765 8.98016V9.21986C11.2765 9.23641 11.2622 9.24982 11.2446 9.24982C11.2271 9.24982 11.2128 9.23641 11.2128 9.21986V8.98016C11.2128 8.96361 11.2271 8.9502 11.2446 8.9502ZM11.0855 9.04008C11.1031 9.04008 11.1174 9.0535 11.1174 9.07005V9.29776C11.1174 9.31431 11.1031 9.32773 11.0855 9.32773C11.068 9.32773 11.0537 9.31431 11.0537 9.29776V9.07005C11.0537 9.0535 11.068 9.04008 11.0855 9.04008ZM10.9328 9.12997C10.9504 9.12997 10.9646 9.14339 10.9646 9.15993V9.39364C10.9646 9.41019 10.9504 9.42361 10.9328 9.42361C10.9152 9.42361 10.901 9.41019 10.901 9.39364V9.15993C10.901 9.14339 10.9152 9.12997 10.9328 9.12997ZM10.78 9.23184C10.7976 9.23184 10.8119 9.24526 10.8119 9.26181V9.49552C10.8119 9.51206 10.7976 9.52548 10.78 9.52548C10.7625 9.52548 10.7482 9.51206 10.7482 9.49552V9.26181C10.7482 9.24526 10.7625 9.23184 10.78 9.23184Z" fill="black"/>
<path d="M9.41167 8.83034L9.3353 9.0281C9.68701 9.15512 10.024 9.31576 10.3409 9.5075C10.4491 9.57941 10.5636 9.64533 10.6464 9.74121C10.6655 9.78915 10.6146 9.8311 10.5636 9.81312C10.5191 9.80114 10.4682 9.78316 10.4236 9.81312C10.3536 9.84308 10.29 9.94496 10.3918 9.97492C10.5446 10.0708 10.78 10.0289 10.85 9.86705C10.8882 9.78316 10.8946 9.67529 10.8182 9.60338C10.6909 9.46555 10.5127 9.36368 10.3473 9.26181C10.0501 9.09129 9.73692 8.94686 9.41167 8.83034V8.83034Z" fill="#F8D80E"/>
<path fill-rule="evenodd" clip-rule="evenodd" d="M9.42072 8.80794C9.74743 8.92498 10.062 9.07006 10.3605 9.24134L10.3608 9.24154L10.3612 9.24175C10.3783 9.2523 10.3957 9.26289 10.4131 9.27355C10.5625 9.36473 10.7203 9.46111 10.8369 9.58704C10.9231 9.66891 10.9134 9.78849 10.8735 9.8763C10.8348 9.96567 10.7507 10.0209 10.6576 10.041C10.5658 10.0608 10.4629 10.0471 10.3807 9.99671C10.3524 9.98771 10.3317 9.97259 10.321 9.95159C10.31 9.93002 10.3118 9.90668 10.3192 9.88629C10.3333 9.8472 10.3709 9.81011 10.4109 9.79227C10.439 9.77415 10.4688 9.77096 10.4962 9.77354C10.5186 9.77566 10.5413 9.78194 10.5602 9.78719C10.5638 9.7882 10.5673 9.78918 10.5706 9.79007L10.5716 9.79034L10.5726 9.79068C10.5889 9.79644 10.6044 9.79247 10.6142 9.78411C10.6229 9.77667 10.6274 9.7657 10.6237 9.75297C10.5576 9.67768 10.4714 9.62167 10.3817 9.56344C10.3635 9.55158 10.3451 9.53962 10.3267 9.52739C10.0113 9.33666 9.6761 9.17686 9.32618 9.05048L9.30282 9.04204L9.38774 8.82215L9.41167 8.83034L9.42072 8.80794ZM9.42675 8.86145L9.36775 9.0142C9.71266 9.14046 10.0433 9.29896 10.3546 9.48734L10.3551 9.48762L10.3556 9.48792C10.3731 9.49956 10.3909 9.51114 10.4089 9.52282C10.5 9.58188 10.5947 9.64327 10.6661 9.7261L10.6688 9.72913L10.6702 9.73279C10.6837 9.76659 10.6723 9.79928 10.6483 9.81966C10.625 9.83957 10.59 9.84762 10.5557 9.83592C10.5519 9.83488 10.5481 9.83384 10.5444 9.83282C10.5255 9.8276 10.5084 9.82287 10.4911 9.82124C10.4714 9.81939 10.4543 9.82198 10.4384 9.83263L10.4364 9.83398L10.4342 9.83494C10.4049 9.84746 10.3768 9.87565 10.3674 9.90176C10.3628 9.91432 10.3634 9.92394 10.3669 9.93084C10.3703 9.93743 10.3786 9.94591 10.3994 9.95204L10.4029 9.95307L10.4059 9.95498C10.476 9.99896 10.5658 10.0116 10.6463 9.99425C10.7265 9.97692 10.7952 9.93032 10.8265 9.85801L10.8266 9.85761C10.8629 9.77786 10.8659 9.68221 10.8002 9.62033L10.7996 9.61974L10.799 9.61911C10.6875 9.49832 10.5357 9.40559 10.3852 9.31362C10.368 9.30311 10.3508 9.29261 10.3337 9.28208C10.0453 9.11663 9.74177 8.97586 9.42675 8.86145Z" fill="black"/>
<path d="M10.3727 9.29776L10.3536 9.50151ZM10.5509 9.39964L10.5 9.59739ZM10.7418 9.53746L10.6273 9.69327ZM10.7991 9.909L10.6337 9.82511ZM10.85 9.74121L10.6591 9.75919ZM10.6082 9.99889L10.5955 9.84308ZM10.5318 9.82511L10.3791 9.93297ZM9.78081 8.99214V9.17791ZM10.1818 9.19589V9.40563ZM9.97811 9.09402V9.29177Z" fill="#F8D80E"/>
<path fill-rule="evenodd" clip-rule="evenodd" d="M9.78081 8.96218C9.79839 8.96218 9.81263 8.97559 9.81263 8.99214V9.17791C9.81263 9.19446 9.79839 9.20787 9.78081 9.20787C9.76324 9.20787 9.74899 9.19446 9.74899 9.17791V8.99214C9.74899 8.97559 9.76324 8.96218 9.78081 8.96218ZM9.97811 9.06405C9.99569 9.06405 10.0099 9.07747 10.0099 9.09402V9.29177C10.0099 9.30832 9.99569 9.32173 9.97811 9.32173C9.96054 9.32173 9.94629 9.30832 9.94629 9.29177V9.09402C9.94629 9.07747 9.96054 9.06405 9.97811 9.06405ZM10.1818 9.16593C10.1993 9.16593 10.2136 9.17934 10.2136 9.19589V9.40563C10.2136 9.42218 10.1993 9.43559 10.1818 9.43559C10.1642 9.43559 10.15 9.42218 10.15 9.40563V9.19589C10.15 9.17934 10.1642 9.16593 10.1818 9.16593ZM10.3755 9.26792C10.393 9.26937 10.406 9.28391 10.4044 9.3004L10.3853 9.50414C10.3838 9.52063 10.3683 9.53281 10.3508 9.53136C10.3333 9.5299 10.3204 9.51536 10.3219 9.49888L10.341 9.29513C10.3426 9.27865 10.358 9.26646 10.3755 9.26792ZM10.5584 9.37052C10.5755 9.37442 10.586 9.39061 10.5818 9.4067L10.5309 9.60445C10.5268 9.62053 10.5096 9.63041 10.4925 9.62651C10.4754 9.62261 10.4649 9.60641 10.4691 9.59033L10.52 9.39258C10.5241 9.37649 10.5413 9.36662 10.5584 9.37052ZM10.76 9.51283C10.7744 9.52225 10.778 9.54091 10.768 9.55452L10.6535 9.71033C10.6434 9.72393 10.6236 9.72733 10.6092 9.71791C10.5947 9.70849 10.5911 9.68982 10.6011 9.67622L10.7157 9.52041C10.7257 9.5068 10.7455 9.50341 10.76 9.51283ZM10.8817 9.73823C10.8835 9.7547 10.8707 9.76938 10.8532 9.77102L10.6623 9.789C10.6448 9.79065 10.6292 9.77864 10.6274 9.76217C10.6257 9.7457 10.6385 9.73102 10.6559 9.72937L10.8469 9.7114C10.8644 9.70975 10.88 9.72176 10.8817 9.73823ZM10.6056 9.8109C10.614 9.79633 10.6333 9.79088 10.6487 9.79873L10.8142 9.88262C10.8297 9.89047 10.8355 9.90864 10.8271 9.92321C10.8188 9.93778 10.7995 9.94323 10.784 9.93538L10.6285 9.85651L10.6399 9.99659C10.6413 10.0131 10.6282 10.0275 10.6106 10.0288C10.5931 10.03 10.5778 10.0177 10.5765 10.0012L10.5637 9.84538C10.5624 9.82888 10.5755 9.81448 10.593 9.81321C10.5968 9.81293 10.6005 9.8133 10.604 9.81421C10.6045 9.81309 10.605 9.81199 10.6056 9.8109ZM10.5573 9.80713C10.5678 9.82037 10.565 9.83915 10.5509 9.84908L10.3982 9.95694C10.3841 9.96687 10.3642 9.96419 10.3536 9.95095C10.3431 9.93771 10.3459 9.91893 10.36 9.909L10.5127 9.80114C10.5268 9.79121 10.5467 9.79389 10.5573 9.80713Z" fill="black"/>
<path d="M9.21437 13.4686V13.948H9.5326V13.7083H9.97175V13.948H10.3154V13.4686H9.21437ZM9.21437 14.1278V14.6072H10.3091V14.1278H9.96538V14.3675H9.52623V14.1278H9.21437Z" fill="#F8D80E"/>
<path fill-rule="evenodd" clip-rule="evenodd" d="M9.18255 13.4386H10.3473V13.9779H9.93992V13.7382H9.56442V13.9779H9.18255V13.4386ZM9.24619 13.4985V13.918H9.50077V13.6783H10.0036V13.918H10.2836V13.4985H9.24619ZM9.18255 14.0978H9.55805V14.3375H9.93356V14.0978H10.3409V14.6371H9.18255V14.0978ZM9.24619 14.1577V14.5772H10.2772V14.1577H9.9972V14.3974H9.49441V14.1577H9.24619Z" fill="black"/>
<path d="M10.3091 11.4371H10.6273V14.9128H10.3091V11.4371Z" fill="#F8D80E"/>
<path fill-rule="evenodd" clip-rule="evenodd" d="M10.2772 11.4071H10.6591V14.9427H10.2772V11.4071ZM10.3409 11.4671V14.8828H10.5955V11.4671H10.3409Z" fill="black"/>
<path d="M10.3091 11.7367H10.6273V14.733H10.3091V11.7367ZM10.4745 10.5802L11.1492 10.9517L10.4745 11.3232L9.79354 10.9517L10.4745 10.5802ZM9.56442 10.8199H9.39258V11.0835H9.56442L10.4745 11.5809L11.3783 11.0835H11.5565V10.8199H11.3783L10.4745 10.3225L9.56442 10.8199Z" fill="#F8D80E"/>
<path fill-rule="evenodd" clip-rule="evenodd" d="M10.4746 10.2878L11.3869 10.7899H11.5883V11.1135H11.3869L10.4746 11.6156L9.55585 11.1135H9.36075V10.7899H9.55585L10.4746 10.2878ZM10.4745 10.3572L9.57298 10.8498H9.4244V11.0536H9.57298L10.4745 11.5462L11.3697 11.0536H11.5247V10.8498H11.3697L10.4745 10.3572ZM10.4746 10.5455L11.2122 10.9517L10.4746 11.3579L9.73007 10.9517L10.4746 10.5455ZM9.85701 10.9517L10.4745 11.2886L11.0861 10.9517L10.4745 10.6148L9.85701 10.9517ZM10.2772 11.7068H10.6591V14.763H10.2772V11.7068ZM10.3409 11.7667V14.703H10.5955V11.7667H10.3409Z" fill="black"/>
<path d="M10.4554 9.67529C10.3814 9.68947 10.3151 9.72801 10.2684 9.784C10.2218 9.84 10.1978 9.9098 10.2009 9.98091V10.6521C10.2067 10.7234 10.2394 10.7903 10.2931 10.8409C10.3468 10.8914 10.4179 10.9222 10.4936 10.9277C10.5566 10.9322 10.6195 10.9185 10.6741 10.8886C10.7286 10.8586 10.7722 10.8137 10.7991 10.7599L10.6909 10.7C10.6759 10.7351 10.6491 10.7646 10.6147 10.7841C10.5802 10.8036 10.54 10.8119 10.5 10.8079C10.3982 10.8079 10.3154 10.712 10.3282 10.6221V9.95095C10.333 9.90699 10.3554 9.86641 10.3909 9.83746C10.4263 9.80852 10.4722 9.79339 10.5191 9.79514C10.5573 9.78316 10.6146 9.83709 10.64 9.79514C10.6782 9.74121 10.6146 9.70526 10.5764 9.67529H10.4554V9.67529ZM10.8246 9.909C10.7935 9.95003 10.7519 9.98301 10.7037 10.0049V10.4543L10.831 10.5202V9.909H10.8246Z" fill="#F8D80E"/>
<path fill-rule="evenodd" clip-rule="evenodd" d="M10.4554 9.64533H10.5879L10.5967 9.65228C10.6011 9.65565 10.6058 9.65916 10.6111 9.6631L10.6114 9.66332C10.6166 9.66725 10.6224 9.67156 10.6282 9.67606C10.6395 9.68494 10.652 9.6956 10.6621 9.70796C10.6722 9.7204 10.6813 9.7361 10.6832 9.75494C10.6852 9.77408 10.6796 9.79295 10.6671 9.81095C10.6558 9.8289 10.6389 9.83881 10.6194 9.84092C10.6025 9.84274 10.5861 9.83838 10.5746 9.83491C10.5689 9.83317 10.5642 9.83163 10.56 9.83025C10.5538 9.82819 10.5487 9.82649 10.5425 9.82499C10.5333 9.82273 10.5299 9.82335 10.5292 9.82357L10.5236 9.8253L10.5178 9.82508C10.479 9.82363 10.4411 9.83615 10.4117 9.86011C10.3828 9.88374 10.3643 9.91675 10.36 9.95256V10.6241L10.3597 10.6261C10.3547 10.6613 10.3684 10.6995 10.3954 10.7293C10.4222 10.759 10.46 10.7779 10.5 10.7779H10.5017L10.5034 10.7781C10.5365 10.7814 10.5698 10.7745 10.5983 10.7584C10.6268 10.7423 10.649 10.7179 10.6614 10.6888L10.6752 10.6566L10.8403 10.748L10.8279 10.7727C10.7983 10.832 10.7502 10.8814 10.6901 10.9144C10.63 10.9475 10.5607 10.9625 10.4913 10.9576L10.4912 10.9576C10.4079 10.9516 10.3297 10.9177 10.2706 10.8621C10.2116 10.8064 10.1756 10.7328 10.1691 10.6544L10.169 10.6532V9.9815C10.1659 9.90349 10.1922 9.82695 10.2434 9.76551C10.2947 9.70391 10.3676 9.66152 10.4491 9.64593L10.4554 9.67529V9.64533ZM10.4587 9.70526C10.3933 9.71848 10.3348 9.75287 10.2935 9.80249C10.2515 9.85289 10.2299 9.91571 10.2327 9.97971L10.2327 9.98031V10.6509C10.2382 10.7146 10.2676 10.7744 10.3156 10.8197C10.3639 10.8652 10.4279 10.8929 10.496 10.8979C10.5526 10.9018 10.6091 10.8896 10.6581 10.8627C10.6987 10.8404 10.7325 10.8089 10.7567 10.7712L10.7039 10.742C10.6859 10.7696 10.6609 10.7929 10.6311 10.8098C10.5911 10.8324 10.5446 10.8422 10.4983 10.8378C10.4372 10.8373 10.3833 10.8084 10.3469 10.7681C10.3107 10.7281 10.2894 10.6742 10.2963 10.6202V9.94941L10.2965 9.94787C10.3022 9.89633 10.3284 9.84876 10.37 9.81482C10.4103 9.78193 10.4621 9.76425 10.5153 9.76507C10.5315 9.7616 10.547 9.76417 10.5585 9.76698C10.5668 9.76901 10.5769 9.7723 10.5849 9.77492C10.5885 9.77608 10.5916 9.77711 10.5941 9.77785C10.6041 9.78089 10.6092 9.78154 10.6116 9.78143C10.6118 9.78116 10.6121 9.78079 10.6124 9.78028L10.6129 9.77938L10.6135 9.77852C10.6197 9.7698 10.6202 9.76424 10.6199 9.76081C10.6195 9.75681 10.6174 9.75153 10.6116 9.7445C10.6058 9.73739 10.5976 9.73006 10.5874 9.72209C10.5824 9.71817 10.5773 9.71433 10.5719 9.71035L10.5713 9.7099C10.5693 9.70838 10.5672 9.70682 10.5651 9.70526H10.4587ZM10.8082 9.87904H10.8628V10.5709L10.6718 10.472V9.98606L10.6899 9.97789C10.7333 9.9582 10.7707 9.92852 10.7987 9.8916L10.8082 9.87904ZM10.7991 9.98043C10.7797 9.99681 10.7584 10.0111 10.7355 10.0231V10.4366L10.7991 10.4696V9.98043Z" fill="black"/>
<path d="M9.5326 2.13068H11.3974V5.31871H9.5326V2.13068Z" fill="black"/>
<path d="M9.40531 2.13068V4.79736H9.9972V4.00635C9.9972 3.82657 10.1245 3.56889 10.5 3.56889C10.8755 3.56889 11.0092 3.82657 11.0092 4.00635V4.80336H11.5947V2.13068H9.40531ZM10.4109 2.43031H10.5891V3.34118H10.4109V2.43031ZM9.88264 2.61008H10.0736V3.27526H9.88264V2.61008ZM10.9328 2.61008H11.1174V3.27526H10.9264L10.9328 2.61008ZM9.20164 1.74716V2.12469H11.7984V1.74716H9.20164ZM8.95979 1.30371V1.74716H12.0466V1.30371H11.6583V1.54341H11.2128V1.30371H10.7164V1.54341H10.2836V1.30371H9.78081V1.54341H9.35439V1.30371H8.95979ZM8.38699 5.69025V5.96591H12.6194V5.69025H8.38699Z" fill="#DA000C"/>
<path fill-rule="evenodd" clip-rule="evenodd" d="M8.92797 1.27375H9.38621V1.51345H9.74899V1.27375H10.3154V1.51345H10.6846V1.27375H11.2446V1.51345H11.6265V1.27375H12.0784V1.77712H11.8302V2.15465H11.6265V4.83332H10.9773V4.00635C10.9773 3.92276 10.9461 3.82065 10.8714 3.73988C10.7975 3.65998 10.6792 3.59885 10.5 3.59885C10.3208 3.59885 10.2042 3.65995 10.132 3.73965C10.0589 3.8203 10.029 3.92243 10.029 4.00635V4.82733H9.37348V2.15465H9.16982V1.77712H8.92797V1.27375ZM12.0147 1.7172V1.33367H11.6902V1.57338H11.181V1.33367H10.7482V1.57338H10.2518V1.33367H9.81263V1.57338H9.32257V1.33367H8.99161V1.7172H12.0147ZM9.23346 1.77712V2.09473H11.7665V1.77712H9.23346ZM9.43713 2.16064V4.7674H9.96538V4.00635C9.96538 3.91049 9.99916 3.79389 10.0836 3.70075C10.1689 3.60668 10.3037 3.53893 10.5 3.53893C10.6963 3.53893 10.8326 3.60664 10.9194 3.70053C11.0054 3.79354 11.041 3.91016 11.041 4.00635V4.77339H11.5629V2.16064H9.43713ZM10.3791 2.40035H10.6209V3.37114H10.3791V2.40035ZM10.4427 2.46027V3.31121H10.5573V2.46027H10.4427ZM9.85082 2.58012H10.1054V3.30522H9.85082V2.58012ZM9.91447 2.64005V3.24529H10.0418V2.64005H9.91447ZM10.9012 2.58012H11.1492V3.30522H10.8943L10.9012 2.58012ZM10.9643 2.64005L10.9585 3.24529H11.0855V2.64005H10.9643ZM8.35516 5.66029H12.6512V5.99587H8.35516V5.66029ZM8.41881 5.72021V5.93595H12.5876V5.72021H8.41881Z" fill="black"/>
<path d="M8.20878 4.79736V5.69624H12.7912V4.79736H12.3584V5.14493H11.7729V4.79736H10.9964V5.14493H9.99084V4.79736H9.21437V5.14493H8.64157V4.79736H8.20878Z" fill="#DA000C"/>
<path fill-rule="evenodd" clip-rule="evenodd" d="M8.17696 4.7674H8.67339V5.11497H9.18255V4.7674H10.0227V5.11497H10.9646V4.7674H11.8047V5.11497H12.3266V4.7674H12.823V5.72621H8.17696V4.7674ZM8.2406 4.82733V5.66628H12.7594V4.82733H12.3903V5.17489H11.7411V4.82733H11.0283V5.17489H9.95902V4.82733H9.24619V5.17489H8.60974V4.82733H8.2406Z" fill="black"/>
<path d="M8.76249 5.96591V9.22585H9.57715V8.00337C9.57715 7.43408 9.98448 7.16442 10.5 7.16442C10.9964 7.16442 11.4229 7.43408 11.4229 8.00337V9.22585H12.2375V5.96591H8.76249Z" fill="#DA000C"/>
<path fill-rule="evenodd" clip-rule="evenodd" d="M8.73067 5.96591C8.73067 5.94936 8.74492 5.93595 8.76249 5.93595H12.2375C12.2551 5.93595 12.2693 5.94936 12.2693 5.96591V9.22585C12.2693 9.2424 12.2551 9.25582 12.2375 9.25582H11.4229C11.4053 9.25582 11.391 9.2424 11.391 9.22585V8.00337C11.391 7.72633 11.2876 7.52522 11.1267 7.39299C10.9651 7.26022 10.7424 7.19438 10.5 7.19438C10.2478 7.19438 10.0253 7.26033 9.86634 7.39285C9.70794 7.52486 9.60897 7.7259 9.60897 8.00337V9.22585C9.60897 9.2424 9.59472 9.25582 9.57715 9.25582H8.76249C8.74492 9.25582 8.73067 9.2424 8.73067 9.22585V5.96591ZM8.79431 5.99587V9.19589H9.54533V8.00337C9.54533 7.71156 9.65002 7.49311 9.82416 7.34798C9.9977 7.20334 10.2366 7.13446 10.5 7.13446C10.754 7.13446 10.9928 7.20345 11.1685 7.34784C11.3449 7.49276 11.4547 7.71113 11.4547 8.00337V9.19589H12.2057V5.99587H8.79431Z" fill="black"/>
</g>
</g>
<defs>
<clipPath id="clip0_6947_99041">
<rect width="21" height="15" fill="white"/>
</clipPath>
<clipPath id="clip1_6947_99041">
<rect width="21.7241" height="15.3409" fill="white" transform="translate(-0.362069 -0.170455)"/>
</clipPath>
</defs>
</svg>
