<svg width="21" height="15" viewBox="0 0 21 15" fill="none" xmlns="http://www.w3.org/2000/svg">
<g clip-path="url(#clip0_6947_99044)">
<g clip-path="url(#clip1_6947_99044)">
<path d="M-0.362068 -0.170455H21.3621V15.1705H-0.362068V-0.170455Z" fill="white"/>
<path d="M-0.362068 7.5H21.3621V15.1705H-0.362068V7.5ZM2.35345 7.5C2.35345 8.85622 2.92565 10.1569 3.94416 11.1159C4.96268 12.0749 6.34408 12.6136 7.78448 12.6136C9.22488 12.6136 10.6063 12.0749 11.6248 11.1159C12.6433 10.1569 13.2155 8.85622 13.2155 7.5C13.2155 6.14378 12.6433 4.84311 11.6248 3.88411C10.6063 2.92512 9.22488 2.38636 7.78448 2.38636C6.34408 2.38636 4.96268 2.92512 3.94416 3.88411C2.92565 4.84311 2.35345 6.14378 2.35345 7.5" fill="#D00C33"/>
</g>
</g>
<defs>
<clipPath id="clip0_6947_99044">
<rect width="21" height="15" fill="white"/>
</clipPath>
<clipPath id="clip1_6947_99044">
<rect width="21.7241" height="15.3409" fill="white" transform="translate(-0.362068 -0.170455)"/>
</clipPath>
</defs>
</svg>
