<svg width="21" height="15" viewBox="0 0 21 15" fill="none" xmlns="http://www.w3.org/2000/svg">
<g clip-path="url(#clip0_6947_99050)">
<g clip-path="url(#clip1_6947_99050)">
<path fill-rule="evenodd" clip-rule="evenodd" d="M-0.362076 -0.170455H21.3621V15.1705H-0.362076V-0.170455Z" fill="#BE0027"/>
<path fill-rule="evenodd" clip-rule="evenodd" d="M0.506897 0.702059H20.5169V14.3938H0.506897V0.702059Z" fill="#3B5AA3"/>
<path fill-rule="evenodd" clip-rule="evenodd" d="M10.3099 13.0355C10.3543 13.0555 10.4029 13.0661 10.4521 13.0667C10.5013 13.0672 10.5501 13.0577 10.595 13.0387C15.2725 10.696 15.2725 4.27202 10.5984 1.96129C10.5519 1.94134 10.5011 1.93155 10.45 1.93266C10.3989 1.93376 10.3486 1.94574 10.3031 1.96768C5.74444 4.31357 5.73086 10.6641 10.3065 13.0355H10.3099Z" fill="#CBE0E5"/>
<path fill-rule="evenodd" clip-rule="evenodd" d="M10.3099 13.1538C10.3778 13.2081 10.5271 13.2017 10.595 13.1538C14.0403 10.7248 14.0573 9.21307 13.908 9.21307H7.08522C6.98339 9.21307 7.14632 10.7536 10.3099 13.1538Z" fill="#ADD2D9"/>
<path fill-rule="evenodd" clip-rule="evenodd" d="M7.62494 10.4148C7.93698 10.3227 8.27411 10.342 8.57197 10.4691C8.82995 10.5969 8.9793 10.5969 9.25764 10.5969C9.54956 10.6033 9.77699 10.8047 10.0927 10.8143C10.6731 10.8271 10.9175 11.0987 10.466 11.1019C10.2556 11.1019 9.79735 10.9645 9.57672 10.9933C9.11508 11.038 8.82316 11.1339 8.38868 11.5909L8.89105 11.9105C9.32553 11.7475 9.39681 11.5589 9.63782 11.5526C9.90937 11.543 10.001 11.3864 10.3167 11.3864C10.6936 11.416 11.073 11.3814 11.4368 11.2841C11.9392 11.1754 11.7016 10.843 11.3961 10.7248C11.1483 10.6257 10.6901 10.7216 10.4049 10.6225C10.1877 10.5426 10.3642 10.4148 10.483 10.3892C10.5984 10.3668 10.724 10.4052 10.87 10.4276C11.1313 10.4467 11.4606 10.4244 11.688 10.3892C12.1632 10.3221 12.1429 10.1911 12.3669 10.1879C12.5366 10.1783 12.6622 10.1335 12.7742 10.0568C12.91 9.97053 13.0492 9.80114 13.2121 9.80753L13.6432 9.82351L13.0322 11.1147L11.3113 12.767L10.4185 13.0866L8.45656 11.8817L7.4688 10.4531L7.62833 10.4148H7.62494Z" fill="#FDF9A1"/>
<path fill-rule="evenodd" clip-rule="evenodd" d="M9.88221 9.16193L13.8197 9.14276L13.8876 8.81357C13.8876 8.81357 13.7484 8.79439 13.633 8.788C13.4938 8.77841 13.2494 8.92862 13.0899 8.92543C12.9711 8.92543 12.8421 8.73366 12.7267 8.73366C12.523 8.73366 12.5095 8.90305 12.3194 8.90945C12.1666 8.90305 12.1021 8.79439 11.9019 8.80717C11.6982 8.81676 11.7118 8.92543 11.4504 8.91903C11.1042 8.90945 10.965 8.6282 10.6867 8.625C10.225 8.61861 10.2115 9.04048 9.87881 9.15874L9.88221 9.16193Z" fill="#179A3B"/>
<path fill-rule="evenodd" clip-rule="evenodd" d="M9.88221 9.23864L13.9351 9.21946V9.11719L9.78717 9.13636L9.87882 9.23864H9.88221Z" fill="#FDF9A1"/>
<path fill-rule="evenodd" clip-rule="evenodd" d="M11.5455 10.386C11.61 10.6097 11.6745 10.6864 11.9256 10.7472C12.1734 10.8015 12.5536 10.5746 12.3194 10.354C12.0954 10.1495 11.8577 10.0984 11.6575 9.913C11.2332 9.51989 10.595 8.55469 10.595 7.87393C10.595 7.28906 10.5339 6.09055 10.5339 4.95597C10.5339 4.88246 10.2963 5.16051 10.2963 5.23722C10.3099 6.23757 10.3099 6.99503 10.3506 8.00497C10.4185 8.74325 10.7919 9.24183 11.1212 9.68928C11.2671 9.90661 11.481 10.1367 11.5455 10.386Z" fill="#A79270"/>
<path d="M8.98978 7.25592C8.98075 7.2299 8.96885 7.20659 8.95408 7.18598C8.93957 7.16511 8.9222 7.14733 8.90195 7.13265C8.88198 7.11796 8.85927 7.10676 8.83382 7.09903C8.80838 7.0913 8.78047 7.08744 8.7501 7.08744C8.7003 7.08744 8.65502 7.09954 8.61425 7.12376C8.57349 7.14798 8.54106 7.18366 8.51699 7.2308C8.49291 7.27795 8.48087 7.33578 8.48087 7.40431C8.48087 7.47283 8.49304 7.53067 8.5174 7.57781C8.54175 7.62496 8.57472 7.66064 8.61631 7.68485C8.65789 7.70907 8.70468 7.72118 8.75667 7.72118C8.80482 7.72118 8.84723 7.71152 8.8839 7.6922C8.92083 7.67262 8.94956 7.64505 8.97008 7.6095C8.99088 7.57369 9.00127 7.53157 9.00127 7.48314L9.03246 7.48932H8.77965V7.40431H9.09977V7.48932C9.09977 7.5545 9.085 7.61118 9.05545 7.65935C9.02617 7.70753 8.98568 7.74488 8.93397 7.77141C8.88253 7.79769 8.82343 7.81083 8.75667 7.81083C8.68225 7.81083 8.61685 7.79434 8.56049 7.76137C8.5044 7.72839 8.46062 7.68151 8.42916 7.62071C8.39797 7.55991 8.38237 7.48778 8.38237 7.40431C8.38237 7.34171 8.39126 7.28542 8.40905 7.23544C8.42711 7.1852 8.45255 7.14244 8.48538 7.10714C8.51822 7.07185 8.55707 7.0448 8.60194 7.02599C8.64681 7.00719 8.6962 6.99779 8.7501 6.99779C8.79442 6.99779 8.83574 7.0041 8.87405 7.01672C8.91262 7.02909 8.94696 7.04673 8.97706 7.06966C9.00743 7.09233 9.03274 7.11951 9.05299 7.1512C9.07323 7.18263 9.08719 7.21753 9.09485 7.25592H8.98978Z" fill="#BD0728"/>
<path fill-rule="evenodd" clip-rule="evenodd" d="M8.7501 7.03179C8.70076 7.03179 8.65644 7.04037 8.61663 7.05706C8.5766 7.07384 8.54199 7.0979 8.51255 7.12955C8.48324 7.16106 8.46001 7.19976 8.44327 7.24629C8.42695 7.29219 8.41849 7.34473 8.41849 7.40431C8.41849 7.48381 8.43333 7.55065 8.46165 7.60587C8.49041 7.6614 8.52977 7.70321 8.57958 7.7325C8.62954 7.76172 8.68815 7.77682 8.75667 7.77682C8.81826 7.77682 8.87128 7.76474 8.91672 7.74153C8.96254 7.71802 8.99815 7.68516 9.0241 7.64246L9.02417 7.64234C9.05004 7.60017 9.06366 7.54956 9.06366 7.48932V7.43831H8.81577V7.45532H8.96516V7.44123L9.0399 7.45605L9.03691 7.48314H9.03739C9.03739 7.53619 9.02598 7.58411 9.0018 7.62577C8.97808 7.66684 8.94454 7.69907 8.90161 7.72183L8.90153 7.72187C8.85874 7.74442 8.81008 7.75518 8.75667 7.75518C8.69841 7.75518 8.64497 7.74153 8.59731 7.71378C8.54913 7.68572 8.51183 7.6448 8.48492 7.59269C8.45755 7.53971 8.44475 7.47647 8.44475 7.40431C8.44475 7.3322 8.4574 7.269 8.48444 7.21606C8.51099 7.16406 8.54764 7.12312 8.59498 7.095C8.64172 7.06724 8.69372 7.05343 8.7501 7.05343C8.78373 7.05343 8.81543 7.05771 8.84491 7.06667C8.87412 7.07554 8.90061 7.08854 8.92408 7.10577C8.94754 7.1228 8.96757 7.14334 8.98416 7.16715C8.99623 7.18402 9.00648 7.2023 9.01499 7.22191H9.04824C9.04146 7.20301 9.03274 7.18534 9.0221 7.16883L9.02204 7.16873C9.00399 7.14049 8.98155 7.11641 8.95462 7.09631L8.95434 7.0961C8.92772 7.07582 8.89717 7.06006 8.86241 7.04891L8.86211 7.04882C8.82798 7.03757 8.79073 7.03179 8.7501 7.03179ZM8.96226 7.52333H8.74353V7.3703H9.13589V7.48932C9.13589 7.55941 9.11996 7.62213 9.08676 7.67629C9.05417 7.7299 9.00882 7.77173 8.95125 7.80127L8.95119 7.8013C8.89376 7.83064 8.82859 7.84484 8.75667 7.84484C8.67635 7.84484 8.60419 7.82697 8.54143 7.79025L8.54136 7.79021C8.47903 7.75357 8.43086 7.70162 8.39669 7.6356L8.39664 7.6355C8.36259 7.56913 8.34625 7.49171 8.34625 7.40431C8.34625 7.3387 8.35557 7.27868 8.3748 7.22463L8.37484 7.22454C8.39422 7.17062 8.42187 7.1238 8.45821 7.08474C8.49444 7.0458 8.53753 7.01577 8.58725 6.99493C8.63718 6.974 8.69164 6.96378 8.7501 6.96378C8.79806 6.96378 8.84339 6.97061 8.88583 6.98458C8.9281 6.99814 8.96613 7.01762 8.99963 7.04312C9.03337 7.06832 9.06148 7.09855 9.0839 7.13361C9.10651 7.16874 9.12193 7.20751 9.13034 7.24964L9.13838 7.28992H8.96359L8.95545 7.26648C8.94736 7.24316 8.93686 7.22275 8.92414 7.205L8.92399 7.2048L8.92385 7.20459C8.91148 7.1868 8.89684 7.17187 8.87991 7.15959L8.87972 7.15945C8.86327 7.14735 8.84437 7.13797 8.82274 7.13139C8.80132 7.12489 8.77721 7.12144 8.7501 7.12144C8.70689 7.12144 8.66832 7.13185 8.63352 7.15252C8.59932 7.17284 8.57113 7.20325 8.54953 7.24554C8.52841 7.28689 8.51698 7.33937 8.51698 7.40431C8.51698 7.4692 8.52853 7.52163 8.54987 7.56294C8.57166 7.60512 8.6003 7.63555 8.6353 7.65593C8.67082 7.67661 8.71095 7.68717 8.75667 7.68717C8.79954 7.68717 8.8357 7.67862 8.86622 7.66254C8.89713 7.64615 8.92103 7.62327 8.93835 7.59326L8.93839 7.59319C8.95016 7.57293 8.95825 7.54976 8.96226 7.52333Z" fill="white"/>
<path d="M10.0051 7.01286H10.1069V7.53685C10.1069 7.59095 10.0934 7.63926 10.0663 7.68176C10.0395 7.72401 10.0016 7.75738 9.95262 7.78185C9.90364 7.80607 9.84618 7.81817 9.78024 7.81817C9.7143 7.81817 9.65684 7.80607 9.60787 7.78185C9.55889 7.75738 9.52086 7.72401 9.49377 7.68176C9.46696 7.63926 9.45355 7.59095 9.45355 7.53685V7.01286H9.55533V7.52913C9.55533 7.56777 9.56436 7.60216 9.58242 7.6323C9.60048 7.66219 9.6262 7.68576 9.65958 7.70302C9.69323 7.72002 9.73345 7.72852 9.78024 7.72852C9.82703 7.72852 9.86725 7.72002 9.9009 7.70302C9.93456 7.68576 9.96028 7.66219 9.97806 7.6323C9.99612 7.60216 10.0051 7.56777 10.0051 7.52913V7.01286Z" fill="#BD0728"/>
<path fill-rule="evenodd" clip-rule="evenodd" d="M9.41743 6.97885H9.59145V7.52912C9.59145 7.56258 9.59921 7.59108 9.61384 7.61554C9.62843 7.63964 9.64912 7.65878 9.67681 7.67313C9.70413 7.6869 9.73817 7.69452 9.78024 7.69452C9.82234 7.69452 9.8564 7.68689 9.88373 7.6731C9.91169 7.65874 9.93229 7.63964 9.94655 7.61568L9.9466 7.61559C9.96126 7.59112 9.96903 7.56261 9.96903 7.52912V6.97885H10.143V7.53685C10.143 7.59652 10.128 7.65096 10.0973 7.69921C10.0669 7.74712 10.024 7.78469 9.96955 7.81189L9.96941 7.81196C9.91434 7.83918 9.85091 7.85218 9.78024 7.85218C9.70957 7.85218 9.64614 7.83918 9.59108 7.81196L9.59094 7.81189C9.53653 7.7847 9.49352 7.74717 9.46285 7.69934L9.46272 7.69913C9.43228 7.65088 9.41743 7.59647 9.41743 7.53685V6.97885ZM9.48967 7.04686V7.53685C9.48967 7.58539 9.50161 7.62755 9.52476 7.66429C9.54825 7.7009 9.58125 7.73004 9.62472 7.75177C9.6676 7.77296 9.71906 7.78417 9.78024 7.78417C9.84142 7.78417 9.89288 7.77296 9.93576 7.75177C9.97924 7.73003 10.0121 7.70089 10.0353 7.66432L10.0353 7.66427C10.0587 7.62752 10.0708 7.58537 10.0708 7.53685V7.04686H10.0413V7.52912C10.0413 7.57291 10.031 7.61316 10.0095 7.64896C9.98825 7.68472 9.95746 7.71273 9.91818 7.73288L9.91798 7.73298C9.87802 7.75317 9.83166 7.76253 9.78024 7.76253C9.72882 7.76253 9.68246 7.75317 9.6425 7.73298L9.64219 7.73283C9.60322 7.71267 9.57254 7.68471 9.55103 7.64912L9.55096 7.64901C9.52951 7.61319 9.51922 7.57292 9.51922 7.52912V7.04686H9.48967Z" fill="white"/>
<path d="M10.7476 7.80426H10.6409L10.9495 7.01286H11.0546L11.3632 7.80426H11.2565L11.0053 7.13806H10.9988L10.7476 7.80426ZM10.787 7.49512H11.2171V7.58013H10.787V7.49512Z" fill="#BD0728"/>
<path fill-rule="evenodd" clip-rule="evenodd" d="M10.9243 6.97885H11.0798L11.4149 7.83827H11.231L11.1465 7.61414H10.8576L10.7731 7.83827H10.5891L10.9243 6.97885ZM10.8832 7.54613H11.1209L11.1144 7.52912H10.8896L10.8832 7.54613ZM10.9153 7.46111H11.0888L11.002 7.231L10.9153 7.46111ZM11.1654 7.46111L11.0308 7.10405H10.9733L10.8386 7.46111H10.8132L10.9747 7.04686H11.0294L11.1909 7.46111H11.1654ZM11.2231 7.61414L11.282 7.77026H11.3115L11.2506 7.61414H11.2231ZM10.7535 7.61414H10.7809L10.7221 7.77026H10.6926L10.7535 7.61414Z" fill="white"/>
<path d="M11.774 7.00861H11.8955L12.1812 7.66553H12.191L12.4767 7.00861H12.5981V7.80001H12.5029V7.19873H12.4947L12.2321 7.80001H12.1401L11.8775 7.19873H11.8692V7.80001H11.774V7.00861Z" fill="#BD0728"/>
<path fill-rule="evenodd" clip-rule="evenodd" d="M11.7379 6.9746H11.9198L12.1861 7.58711L12.4524 6.9746H12.6343V7.83402H12.4668V7.35201L12.2562 7.83402H12.1159L11.9054 7.35201V7.83402H11.7379V6.9746ZM11.8101 7.04261V7.766H11.8331V7.16472H11.9017L12.1643 7.766H12.2079L12.4705 7.16472H12.539V7.766H12.562V7.04261H12.5009L12.2153 7.69954H12.1569L11.8713 7.04261H11.8101Z" fill="white"/>
<path fill-rule="evenodd" clip-rule="evenodd" d="M8.44978 4.97195C8.39886 5.06783 8.57198 4.94318 8.61271 4.9304C8.84013 4.85369 8.92839 4.58523 9.31875 4.74822C9.62424 4.87287 10.035 4.79936 9.82112 4.9272C9.55635 5.07741 9.02343 5.24361 9.01325 5.98828C9.05738 6.05859 9.06077 6.04901 9.09811 5.9691C9.17958 5.79652 9.56314 5.3267 9.75323 5.36506C9.8313 5.38423 10.0553 5.15092 10.0587 5.21804C10.0825 5.40341 9.75323 5.78054 9.76002 6.28231C9.76002 6.40057 9.91276 6.43892 9.98405 6.35582C10.0587 6.28231 10.0995 6.20881 10.2284 6.11293C10.4525 5.94034 10.3914 5.19886 10.4185 5.23402C10.5781 5.42578 10.6018 5.97869 10.8394 6.20241C11.0397 6.39098 11.1992 6.29829 11.1551 6.04261C11.0703 5.51847 10.8089 5.66868 10.6833 5.12855C10.6561 5.02308 10.6493 4.9304 10.7987 4.97195C10.9786 5.02308 11.0872 5.09979 11.2196 5.29155C11.3554 5.47692 11.6066 5.6527 11.7525 5.75817C12.0071 5.94354 12.0988 5.78374 11.9766 5.54723C11.8214 5.27863 11.5682 5.072 11.2637 4.96555C11.0533 4.89524 10.9786 4.88885 10.7953 4.85689C10.7444 4.8473 10.6935 4.74822 10.7817 4.69389C10.9781 4.56061 11.2068 4.47598 11.447 4.4478C11.6745 4.44141 11.8544 4.61399 12.0139 4.65874C12.333 4.73544 12.333 4.54687 12.1904 4.40305C12.075 4.2848 11.8306 4.08345 11.6032 4.11222C11.1449 4.16655 11.1755 4.15376 10.8903 4.32955C10.7885 4.38707 10.6731 4.45099 10.7172 4.38068C10.8191 4.2049 10.724 4.23686 10.8836 4.05788C11.0058 3.93004 11.0974 3.83416 11.223 3.8022C11.3384 3.77344 11.4946 3.65838 11.5387 3.59766C11.6541 3.45064 11.5557 3.36435 11.3791 3.41548C11.223 3.45383 11.1415 3.54972 11.0397 3.57528C10.7885 3.65199 10.5882 4.18253 10.5577 4.25923C10.5204 4.34872 10.4762 4.30398 10.483 4.22727C10.517 3.85334 10.5509 3.22053 10.4151 2.96165C10.1979 2.57812 10.2183 2.7571 10.1368 2.93928C10.0146 3.22692 10.0587 3.49858 10.1368 3.77983C10.1707 3.92045 10.2929 4.08026 10.3167 4.19212C10.3337 4.27841 10.2624 4.16655 10.2217 4.11222C10.0893 3.92045 9.99084 3.79261 9.77359 3.68714C9.55661 3.60309 9.3182 3.58086 9.08793 3.62322C9.02683 3.6424 9.15581 3.7255 9.20673 3.76385C9.35269 3.87251 9.62763 3.90767 9.81772 4.01633C9.97386 4.10902 10.0961 4.16655 10.1504 4.29439C10.1707 4.39027 10.2047 4.53089 10.1368 4.5277C9.96368 4.51811 9.69552 4.37429 9.13884 4.43182C8.85371 4.47017 8.60932 4.69709 8.44978 4.97195V4.97195Z" fill="#239E46"/>
<path fill-rule="evenodd" clip-rule="evenodd" d="M9.66158 9.75639H9.82111V10.0089H9.66158V9.75639Z" fill="black"/>
<path fill-rule="evenodd" clip-rule="evenodd" d="M8.8605 8.07209C9.49865 8.90305 10.5238 9.38885 10.5441 9.76598H8.54822C9.00646 9.24822 9.2882 8.89666 8.8605 8.07209Z" fill="#FDF9FF"/>
<path fill-rule="evenodd" clip-rule="evenodd" d="M8.28005 9.78516C9.14902 9.96733 10.1843 10.0696 10.8462 9.75959C10.853 9.94176 10.6324 10.207 10.4491 10.207H8.78582C8.9793 10.1783 9.09131 10.1239 9.4036 10.1112L8.52105 10.1175C8.41922 10.1207 8.2495 9.87464 8.28005 9.78516Z" fill="#A68861"/>
<path fill-rule="evenodd" clip-rule="evenodd" d="M10.2488 13.4126C10.3371 13.4606 10.4762 13.4574 10.5543 13.419C15.5712 10.9038 15.5746 4.00994 10.5611 1.52983C10.5109 1.50795 10.4561 1.49715 10.4008 1.49826C10.3455 1.49937 10.2912 1.51235 10.242 1.53622C5.35408 4.05469 5.34051 10.8686 10.2488 13.4158V13.4126ZM10.2726 12.8469C10.3147 12.8665 10.361 12.8769 10.408 12.8774C10.4549 12.878 10.5015 12.8687 10.5441 12.8501C14.7396 10.5234 14.7905 4.37749 10.5475 2.17543C10.466 2.1179 10.3472 2.13707 10.2658 2.17543C6.24681 4.41584 6.02278 10.3093 10.2726 12.8469Z" fill="#BE0027"/>
<path d="M8.76206 7.03338C8.839 7.03338 8.90689 7.0483 8.96572 7.07812C9.04493 7.11648 9.09358 7.18679 9.11168 7.28906H9.00646C8.99288 7.23366 8.96346 7.19105 8.9182 7.16122C8.87747 7.13565 8.82429 7.12287 8.75867 7.12287C8.68399 7.12287 8.6195 7.15163 8.56519 7.20916C8.51314 7.26243 8.48711 7.34339 8.48711 7.45206C8.48711 7.54155 8.50861 7.61612 8.55161 7.67578C8.59687 7.73331 8.66815 7.76207 8.76545 7.76207C8.84013 7.76207 8.90123 7.74183 8.94875 7.70135C9.0008 7.66087 9.02682 7.59482 9.02682 7.5032H8.76885V7.4169H9.12866V7.83239H9.05737L9.03022 7.73011C8.99401 7.7706 8.96007 7.79936 8.92839 7.81641C8.8786 7.84197 8.81637 7.85476 8.74169 7.85476C8.64439 7.85476 8.55953 7.82493 8.48711 7.76527C8.41017 7.68856 8.3717 7.58523 8.3717 7.45526C8.3717 7.32528 8.40904 7.22195 8.48372 7.14524C8.55613 7.07067 8.64891 7.03338 8.76206 7.03338Z" fill="#BD0728"/>
<path d="M9.56313 7.05575V7.54155C9.56313 7.59695 9.57445 7.64276 9.59708 7.67898C9.62876 7.73651 9.68533 7.76527 9.7668 7.76527C9.85958 7.76527 9.92407 7.73544 9.96028 7.67578C9.97838 7.64169 9.98743 7.59695 9.98743 7.54155V7.05256H10.1028V7.49361C10.1028 7.58736 10.087 7.66193 10.0553 7.71733C10.0078 7.80895 9.91502 7.85476 9.77698 7.85476C9.63442 7.85476 9.53824 7.80788 9.48846 7.71413C9.4613 7.66087 9.44772 7.58736 9.44772 7.49361V7.05256L9.56313 7.05575Z" fill="#BD0728"/>
<path d="M11.1246 7.51598L10.999 7.17401L10.8632 7.51598H11.1246ZM10.9413 7.05256H11.0669L11.3724 7.83558H11.2434L11.1619 7.60227H10.8326L10.741 7.83558H10.629L10.9413 7.05256Z" fill="#BD0728"/>
<path d="M11.7559 7.05256H11.9222L12.1565 7.71413L12.3941 7.05256H12.5536V7.83239H12.445V7.17401L12.2074 7.83239H12.1021L11.8645 7.17401V7.83239H11.7559V7.05256Z" fill="#BD0728"/>
</g>
</g>
<defs>
<clipPath id="clip0_6947_99050">
<rect width="21" height="15" fill="white"/>
</clipPath>
<clipPath id="clip1_6947_99050">
<rect width="21.7241" height="15.3409" fill="white" transform="translate(-0.362076 -0.170455)"/>
</clipPath>
</defs>
</svg>
