<svg width="21" height="15" viewBox="0 0 21 15" fill="none" xmlns="http://www.w3.org/2000/svg">
<g clip-path="url(#clip0_6947_99059)">
<g clip-path="url(#clip1_6947_99059)">
<path d="M-0.362061 -0.170455H21.3621V15.1705H-0.362061V-0.170455Z" fill="white"/>
<path fill-rule="evenodd" clip-rule="evenodd" d="M-3.07758 -0.170455V0.852272L8.81639 7.5L-3.02327 14.1477V15.1705H-1.28533L10.5543 8.52273L22.3397 15.1705H24.0776V14.1477L12.2923 7.5L24.1319 0.852272V-0.170455H22.3397L10.5 6.47727L-1.28533 -0.170455H-3.02327H-3.07758Z" fill="#DF112D"/>
<path d="M11.9121 2.13068C12.2923 3.46023 12.075 5.09659 10.5 6.01705C8.92502 5.09659 8.70778 3.46023 9.08795 2.13068C9.46812 1.82386 11.1517 1.61932 11.9121 2.13068Z" fill="#E8112D"/>
<path d="M10.5 1.875C11.0431 1.875 11.4776 1.97727 11.9121 2.18182C11.9903 1.7388 12.1762 1.31878 12.4552 0.954545C12.1836 0.954545 12.075 1.05682 12.075 1.21023C12.0207 1.05682 11.7492 1.05682 11.6405 1.15909C11.9664 1.3125 11.7492 1.67045 11.4776 1.61932C11.3147 1.56818 11.2604 1.46591 11.2604 1.36364C11.3006 1.35723 11.3369 1.3368 11.3619 1.30641C11.387 1.27602 11.399 1.23787 11.3956 1.19954C11.3922 1.16121 11.3736 1.12549 11.3435 1.09945C11.3134 1.07341 11.2741 1.05896 11.2332 1.05896C11.1924 1.05896 11.153 1.07341 11.1229 1.09945C11.0929 1.12549 11.0743 1.16121 11.0709 1.19954C11.0674 1.23787 11.0794 1.27602 11.1045 1.30641C11.1295 1.3368 11.1658 1.35723 11.2061 1.36364C11.1058 1.45998 10.9691 1.51512 10.8259 1.51705C10.7635 1.48928 10.7103 1.44605 10.6721 1.392C10.6338 1.33795 10.6119 1.27512 10.6086 1.21023C10.6086 0.954545 10.9345 0.903409 10.9888 0.954545C10.9888 0.801136 10.663 0.596591 10.6086 0.801136C10.6647 0.701841 10.6845 0.587908 10.6648 0.476977C10.6452 0.366045 10.5873 0.264302 10.5 0.1875C10.4245 0.26041 10.3738 0.352903 10.3544 0.453122C10.3351 0.55334 10.3479 0.656717 10.3914 0.75C10.2828 0.596591 10.0112 0.75 10.0112 0.954545C10.0655 0.903409 10.3371 0.954545 10.3371 1.21023C10.3371 1.3125 10.3371 1.46591 10.1742 1.46591C10.1076 1.49046 10.0344 1.49374 9.96572 1.47527C9.89703 1.45679 9.83669 1.41756 9.79399 1.36364L9.90261 1.3125C9.93367 1.29561 9.95795 1.26955 9.97167 1.23835C9.9854 1.20715 9.98781 1.17256 9.97852 1.13994C9.96924 1.10732 9.94878 1.07849 9.92033 1.05794C9.89187 1.03738 9.85701 1.02623 9.82114 1.02623C9.78528 1.02623 9.75041 1.03738 9.72196 1.05794C9.6935 1.07849 9.67305 1.10732 9.66376 1.13994C9.65448 1.17256 9.65689 1.20715 9.67061 1.23835C9.68434 1.26955 9.70862 1.29561 9.73968 1.3125C9.73968 1.46591 9.63106 1.56818 9.52244 1.56818C9.46544 1.56818 9.40989 1.5513 9.36366 1.51992C9.31742 1.48854 9.28284 1.44426 9.26482 1.39335C9.2468 1.34244 9.24624 1.28749 9.26324 1.23626C9.28023 1.18504 9.31391 1.14015 9.35951 1.10795C9.25088 1.00568 8.97933 1.00568 8.92502 1.21023C8.92502 1.05682 8.8164 0.954545 8.49054 0.954545C8.76957 1.31878 8.95544 1.7388 9.03364 2.18182C9.48498 1.95914 9.991 1.85327 10.5 1.875V1.875Z" fill="#F9DD16"/>
<path d="M11.7492 3.20455H11.6405H11.8035C11.8578 3.20455 11.9121 3.15341 11.8578 3.10227H11.9664L11.8578 3H11.9664L11.8578 2.89773H11.9121C11.9026 2.88218 11.8975 2.86454 11.8975 2.84659C11.8975 2.82864 11.9026 2.811 11.9121 2.79545H11.5319L11.2604 2.74432L11.5862 2.59091C11.5862 2.48864 11.4233 2.33523 11.1518 2.4375L10.5543 2.38636L10.9345 2.28409L11.369 2.23295H10.9888C10.8259 2.23295 10.4457 2.18182 10.4457 2.38636C10.4457 2.59091 10.8259 2.53977 11.2061 2.48864L11.5319 2.53977L11.2061 2.64205C11.0453 2.60708 10.8781 2.60708 10.7173 2.64205H10.3371C10.2285 2.64205 10.0655 2.64205 9.95693 2.53977C9.95693 2.53977 9.73969 2.64205 9.73969 2.74432V2.89773C9.84831 3 9.73969 2.94886 9.63107 2.94886L9.35951 2.89773C9.3052 2.79545 9.25089 2.74432 9.14227 2.79545V2.89773H9.25089C9.23438 2.88875 9.21565 2.88403 9.19658 2.88403C9.17752 2.88403 9.15879 2.88875 9.14227 2.89773V3H9.3052H9.19658V3.05114H9.41382C9.38502 3.05114 9.35739 3.06191 9.33702 3.08109C9.31665 3.10027 9.3052 3.12628 9.3052 3.15341C9.35951 3.10227 9.41382 3.15341 9.52245 3.15341L9.41382 3.20455C9.46813 3.20455 9.794 3.25568 9.794 3.15341V3.20455C9.794 3.20455 9.95693 3.20455 9.95693 3.10227V3.20455C9.95693 3.20455 10.0655 3.20455 10.1199 3.10227V3H10.3914C10.5 2.89773 10.5543 3 10.6087 2.94886H10.7173C10.7716 2.94886 10.8259 2.94886 10.8802 2.84659C10.9888 2.89773 11.1518 2.94886 11.4776 2.89773C11.6405 2.89773 11.7492 2.94886 11.7492 3.05114H11.4776C11.4776 3.05114 11.4233 3.10227 11.4776 3.15341C11.5319 3.20455 11.4776 3.15341 11.5319 3.15341C11.5319 3.15341 11.4776 3.20455 11.5319 3.25568L11.6949 3.20455H11.7492ZM9.57676 2.33523V2.38636L9.63107 2.48864L9.68538 2.33523H9.57676Z" fill="#F9DD16"/>
<path d="M9.95691 2.38636C10.0112 2.33523 10.0655 2.33523 10.0655 2.38636L10.0112 2.48864L9.95691 2.33523V2.38636Z" fill="#F9DD16"/>
<path d="M9.79399 2.28409C9.95692 2.28409 10.0112 2.38636 10.0112 2.48864L9.90261 2.69318L9.79399 2.74432L9.68537 2.69318C9.68537 2.53977 9.57675 2.59091 9.57675 2.48864C9.57675 2.38636 9.57675 2.28409 9.79399 2.28409V2.28409Z" fill="#F9DD16"/>
<path d="M9.3595 2.69318H9.25088C9.30519 2.69318 9.30519 2.79545 9.46812 2.79545H9.3595C9.41381 2.79545 9.46812 2.89773 9.63106 2.89773C9.68537 2.89773 9.63106 2.89773 9.63106 2.89773C9.63106 2.94886 9.73968 2.89773 9.79399 3C9.79399 2.94886 9.68537 2.84659 9.79399 2.74432C9.57674 2.74432 9.52243 2.64205 9.46812 2.59091C9.3595 2.53977 9.3595 2.4375 9.30519 2.33523C9.30519 2.33523 9.25088 2.23295 9.19657 2.28409V2.38636H9.14226C9.19657 2.38636 9.14226 2.48864 9.25088 2.53977C9.19657 2.48864 9.14226 2.4375 9.08795 2.48864H9.14226L9.3595 2.69318V2.69318ZM10.7716 3.20455H11.0431L11.1517 3.15341V3.05114C11.0974 3.05114 11.0431 3 11.0974 2.94886C10.9345 2.74432 10.6086 2.84659 10.6086 2.94886L10.8259 3.05114H10.8802H10.5L10.5543 3.10227L10.4457 3.15341C10.4457 3.25568 10.5543 3.15341 10.5543 3.15341V3.20455C10.5543 3.20455 10.5543 3.25568 10.6086 3.20455C10.6438 3.19285 10.6821 3.19285 10.7173 3.20455H10.7716Z" fill="#F9DD16"/>
<path d="M9.79398 2.69318H9.84829V2.59091H9.68536V2.64205L9.79398 2.69318V2.69318Z" fill="#FF0016"/>
<path d="M9.19656 2.28409C9.19656 2.23295 9.08794 2.28409 9.08794 2.28409H9.19656ZM9.19656 2.33523L9.03363 2.38636H9.14225L9.19656 2.33523ZM9.19656 2.48864H9.03363H9.14225H9.19656ZM9.19656 2.84659C9.14225 2.84659 9.08794 2.84659 9.08794 2.94886C9.08794 2.89773 9.14225 2.94886 9.19656 2.94886V2.84659ZM9.19656 2.94886L9.08794 3.05114L9.19656 3V2.89773V2.94886ZM9.19656 3C9.19656 3 9.14225 3.05114 9.19656 3.10227V2.94886V3ZM10.5543 3.15341C10.5 3.15341 10.4457 3.15341 10.4457 3.25568L10.5543 3.20455V3.15341V3.15341ZM10.6086 3.15341C10.5543 3.15341 10.5 3.25568 10.5543 3.30682L10.6086 3.25568V3.20455V3.15341ZM10.6086 3.05114C10.5 3.05114 10.4457 3.05114 10.4457 3.15341L10.5543 3.10227L10.6086 3.05114ZM11.4776 3.15341C11.4776 3.15341 11.369 3.20455 11.4233 3.25568L11.4776 3.20455V3.15341V3.15341ZM11.4776 3.10227L11.369 3.15341H11.4776V3V3.10227ZM11.4776 3.20455C11.4776 3.20455 11.4233 3.30682 11.4776 3.30682H11.5319V3.15341L11.4776 3.20455ZM9.84829 2.69318V2.89773C9.73966 2.89773 9.73966 2.89773 9.73966 2.79545V2.69318H9.79397H9.84829Z" fill="#0051BA"/>
<path d="M11.5319 4.27841H11.6405C11.6405 4.27841 11.6949 4.27841 11.6405 4.22727H11.7492L11.6949 4.125H11.7492L11.6949 4.02273C11.6853 4.00718 11.6803 3.98954 11.6803 3.97159C11.6803 3.95364 11.6853 3.936 11.6949 3.92045H11.4233L11.1517 3.86932C11.3147 3.92045 11.4776 3.81818 11.4776 3.71591C11.4776 3.61364 11.3147 3.51136 11.0974 3.61364L10.5 3.5625L10.8259 3.46023H11.2604L10.8802 3.40909C10.7173 3.35795 10.3914 3.40909 10.3914 3.5625C10.3914 3.71591 10.7716 3.71591 11.0974 3.66477H11.369L11.0974 3.76705C10.9544 3.73636 10.8059 3.73636 10.663 3.76705L10.2828 3.81818C10.2285 3.81818 10.0655 3.81818 9.95692 3.71591L9.73968 3.86932L9.79399 4.07386C9.8483 4.125 9.79399 4.07386 9.68537 4.07386H9.41382C9.41382 3.97159 9.3052 3.92045 9.25089 3.97159V4.02273H9.35951C9.34299 4.01375 9.32426 4.00903 9.3052 4.00903C9.28613 4.00903 9.2674 4.01375 9.25089 4.02273V4.125H9.35951H9.3052C9.41382 4.125 9.41382 4.22727 9.46813 4.17614C9.45032 4.17181 9.43163 4.17181 9.41382 4.17614C9.41382 4.17614 9.52244 4.27841 9.57675 4.22727L9.52244 4.32955C9.52244 4.27841 9.8483 4.32955 9.8483 4.22727V4.32955C9.8483 4.32955 9.95692 4.32955 10.0112 4.22727H10.1199V4.125H10.2285L10.3914 4.07386H10.663C10.7173 4.07386 10.7716 4.07386 10.8259 3.97159C10.9345 4.02273 11.0431 4.07386 11.369 4.02273C11.4776 4.02273 11.5319 4.02273 11.5319 4.125V4.17614H11.3147V4.27841C11.3147 4.32955 11.369 4.27841 11.4233 4.27841C11.369 4.27841 11.3147 4.27841 11.369 4.32955H11.4233L11.5319 4.27841V4.27841ZM9.68537 3.51136H9.57675L9.63106 3.66477L9.68537 3.51136V3.51136Z" fill="#F9DD16"/>
<path d="M9.95691 3.51136H10.0655L10.0112 3.66477L9.95691 3.51136Z" fill="#F9DD16"/>
<path d="M9.84828 3.46023C10.0112 3.46023 10.0112 3.5625 10.0112 3.66477C10.0112 3.76705 9.9569 3.66477 9.90259 3.81818L9.79397 3.86932H9.73966C9.73966 3.71591 9.63104 3.71591 9.63104 3.66477C9.63104 3.61364 9.63104 3.46023 9.84828 3.46023V3.46023Z" fill="#F9DD16"/>
<path d="M9.4138 3.81818H9.35949C9.35949 3.81818 9.35949 3.92045 9.52243 3.92045H9.4138L9.63105 4.02273C9.73967 4.02273 9.63105 4.02273 9.63105 4.02273L9.84829 4.125C9.84829 4.02273 9.73967 3.97159 9.79398 3.86932C9.63105 3.86932 9.57674 3.76705 9.52243 3.71591C9.4138 3.71591 9.4138 3.61364 9.4138 3.51136L9.30518 3.46023C9.30518 3.46023 9.25087 3.46023 9.30518 3.46023V3.5625H9.25087L9.30518 3.66477H9.19656C9.30518 3.66477 9.35949 3.81818 9.4138 3.81818V3.81818ZM10.7173 4.27841H10.6629H11.0974V4.17614C11.0431 4.17614 10.9888 4.125 11.0431 4.02273C10.8802 3.86932 10.6086 3.97159 10.6086 4.02273L10.8259 4.125C10.8259 4.125 10.9345 4.125 10.8259 4.17614H10.7173C10.6086 4.17614 10.5543 4.125 10.5 4.17614V4.27841H10.5543C10.5543 4.27841 10.5543 4.32955 10.6086 4.27841C10.6438 4.26671 10.6821 4.26671 10.7173 4.27841V4.27841Z" fill="#F9DD16"/>
<path d="M9.84831 3.86932V3.81818C9.84831 3.81818 9.90262 3.76705 9.84831 3.71591C9.90262 3.76705 9.84831 3.76705 9.84831 3.71591C9.84831 3.76705 9.73969 3.76705 9.73969 3.71591V3.81818H9.84831V3.86932Z" fill="#FF0016"/>
<path d="M9.79398 3.76705L9.68536 3.71591ZM9.79398 3.71591H9.68536ZM9.79398 3.71591L9.68536 3.76705ZM9.84829 3.76705L9.95691 3.71591ZM9.84829 3.71591H9.95691ZM9.84829 3.71591L9.95691 3.76705Z" fill="black"/>
<path d="M9.3052 3.40909L9.19658 3.46023H9.3052V3.40909ZM9.3052 3.51136L9.14227 3.5625H9.25089L9.3052 3.51136ZM9.25089 3.66477C9.25089 3.61364 9.14227 3.66477 9.14227 3.66477H9.25089ZM9.25089 3.97159L9.14227 4.02273H9.3052L9.25089 3.97159ZM9.25089 4.07386C9.25089 4.07386 9.14227 4.07386 9.25089 4.17614V4.07386ZM9.35951 4.07386L9.25089 4.22727L9.35951 4.17614V4.125V4.07386ZM10.4457 4.22727C10.4457 4.22727 10.3914 4.22727 10.4457 4.32955L10.5 4.27841V4.22727H10.4457ZM10.5543 4.27841C10.5543 4.27841 10.4457 4.32955 10.5 4.38068L10.5543 4.32955V4.27841ZM10.5543 4.125C10.5 4.125 10.3914 4.17614 10.4457 4.22727H10.5V4.17614L10.5543 4.125ZM11.3147 4.27841C11.3147 4.27841 11.2604 4.27841 11.3147 4.32955V4.22727V4.27841ZM11.3147 4.17614L11.2604 4.22727H11.369V4.17614H11.3147ZM11.369 4.32955C11.369 4.32955 11.3147 4.32955 11.369 4.38068V4.32955ZM9.84831 3.81818V4.02273V3.92045C9.84831 3.86932 9.84831 3.81818 9.794 3.86932V3.81818H9.84831Z" fill="#0051BA"/>
<path d="M11.5308 5.16307C11.5004 5.16307 11.5004 5.20142 11.4928 5.20142C11.5536 5.20142 11.584 5.17841 11.5992 5.14773V5.19375C11.6449 5.17841 11.6601 5.14006 11.6449 5.11704L11.6981 5.13239C11.6677 5.10937 11.6905 5.05568 11.6373 5.025C11.6525 5.025 11.6829 5.04034 11.6981 5.06335C11.6905 5.00966 11.6829 4.97898 11.6373 4.94829H11.6753C11.6653 4.94163 11.6573 4.93246 11.652 4.92169C11.6466 4.91093 11.6442 4.89895 11.6449 4.88693C11.6449 4.85625 11.6297 4.85625 11.5992 4.86392L11.4624 4.87159C11.3863 4.87159 11.3103 4.87159 11.2495 4.82557C11.3483 4.87159 11.4776 4.77954 11.4776 4.71051C11.4776 4.63381 11.3711 4.5571 11.1735 4.60312C10.9758 4.64915 10.7325 4.63381 10.7325 4.56477C10.7325 4.49574 10.9073 4.48807 10.9986 4.50341C11.0898 4.51875 11.1506 4.52642 11.3179 4.46506C11.2799 4.4804 11.143 4.48807 11.0366 4.45739C10.9301 4.4267 10.6716 4.4267 10.6716 4.56477C10.6716 4.71051 10.9453 4.69517 11.1887 4.65682C11.3255 4.64148 11.4016 4.65682 11.4016 4.69517C11.4016 4.74119 11.2723 4.75653 11.1735 4.74886C11.0691 4.73467 10.9629 4.74251 10.8617 4.77187C10.7629 4.80256 10.6944 4.77187 10.588 4.79489C10.5348 4.79489 10.4055 4.79489 10.3447 4.6875C10.3067 4.71818 10.1926 4.77187 10.1698 4.83324C10.147 4.87926 10.1698 4.93295 10.2002 4.98665C10.2458 5.04801 10.1774 5.04034 10.1242 5.04034C10.0633 5.04034 9.97211 5.04034 9.92649 4.97898C9.88086 4.93295 9.82764 4.8946 9.78202 4.92528C9.75921 4.94829 9.78202 4.97131 9.79723 4.96364L9.85805 4.97898C9.84584 4.97337 9.83237 4.97113 9.81901 4.97248C9.80566 4.97382 9.79289 4.97871 9.78202 4.98665C9.75921 5.00199 9.78202 5.03267 9.80483 5.025C9.82004 5.01733 9.85805 5.00966 9.88086 5.025C9.85805 5.025 9.82764 5.025 9.82004 5.04034C9.81243 5.05568 9.82004 5.07102 9.84285 5.07102C9.88847 5.07102 9.89607 5.1017 9.94169 5.09403C9.93107 5.09462 9.92072 5.0977 9.91148 5.10303C9.90224 5.10835 9.89436 5.11578 9.88847 5.12472C9.93409 5.1017 9.97211 5.1554 10.0253 5.14006C10.0101 5.14773 9.97211 5.17074 9.97211 5.18608C10.0025 5.14773 10.2154 5.21676 10.2154 5.13239L10.2078 5.19375C10.2306 5.17841 10.3143 5.17074 10.3447 5.11704C10.3447 5.13239 10.3447 5.1554 10.3295 5.16307C10.3523 5.16307 10.3903 5.14773 10.4283 5.09403C10.4435 5.07102 10.4435 5.05568 10.4435 5.04034C10.4815 5.04034 10.5043 5.03267 10.5348 5.00966C10.5652 4.98665 10.5956 5.03267 10.6488 4.99432C10.6944 4.96364 10.7401 4.99432 10.7705 4.97898C10.7933 4.96364 10.8313 4.97898 10.8617 4.96364C10.8921 4.94829 10.9377 4.97131 10.9834 4.93295C11.0594 4.96364 11.1582 5.00966 11.3787 4.97131C11.5004 4.9483 11.546 4.99432 11.546 5.04801C11.546 5.09403 11.5156 5.09403 11.5004 5.09403C11.4244 5.1017 11.4016 5.07102 11.3711 5.07869C11.3559 5.08636 11.3407 5.11704 11.3711 5.13239C11.3483 5.14006 11.3483 5.16307 11.3635 5.17074C11.3787 5.17841 11.4016 5.17074 11.4244 5.16307C11.394 5.17074 11.3711 5.19375 11.3863 5.21676C11.394 5.2321 11.4168 5.23977 11.4396 5.21676C11.4624 5.18608 11.5004 5.16307 11.5308 5.16307V5.16307ZM10.1166 4.54943C10.0557 4.52642 10.0405 4.52642 10.0481 4.58011C10.0481 4.60312 10.071 4.63381 10.0862 4.64915C10.0862 4.62614 10.0938 4.57244 10.1166 4.5571V4.54943Z" fill="#F9DD16"/>
<path fill-rule="evenodd" clip-rule="evenodd" d="M10.8135 4.44415C10.892 4.43062 10.9839 4.43833 11.0377 4.45384C11.0905 4.46904 11.1509 4.47477 11.2029 4.47477C11.2289 4.47477 11.2527 4.47334 11.2724 4.47097C11.2895 4.4689 11.3032 4.46615 11.3124 4.46309C11.3138 4.4626 11.3151 4.4621 11.3165 4.4616L11.3195 4.46846C11.3181 4.469 11.3167 4.46952 11.3152 4.47003C11.2336 4.49971 11.1773 4.51288 11.1301 4.51669C11.082 4.52057 11.0435 4.51473 10.9979 4.50706C10.9527 4.49945 10.8866 4.49755 10.8319 4.5061C10.8046 4.51039 10.7804 4.51724 10.7632 4.52707C10.7461 4.53687 10.7364 4.54928 10.7364 4.56477C10.7364 4.57964 10.7495 4.59264 10.7751 4.60295C10.8004 4.61316 10.8366 4.62006 10.8791 4.6234C10.9642 4.63008 11.0741 4.62245 11.1725 4.59953C11.272 4.57637 11.349 4.58397 11.4013 4.60745C11.4537 4.63093 11.4815 4.67042 11.4815 4.71051C11.4815 4.72882 11.473 4.74827 11.459 4.76627C11.445 4.78431 11.4254 4.80117 11.4027 4.81434C11.3657 4.83575 11.3201 4.8477 11.2768 4.83857C11.3316 4.86777 11.3963 4.86789 11.4623 4.86789L11.5986 4.86024C11.6061 4.85836 11.6129 4.8569 11.6188 4.85628C11.6247 4.85565 11.6303 4.85584 11.6349 4.85761C11.645 4.86141 11.6488 4.87137 11.6488 4.88693V4.88713C11.6482 4.89854 11.6505 4.90992 11.6555 4.92013C11.6606 4.93033 11.6682 4.939 11.6776 4.94528L11.6876 4.952H11.6489C11.6667 4.96552 11.6779 4.97948 11.6855 4.9957C11.6943 5.01446 11.6982 5.03604 11.702 5.06286L11.6947 5.06531C11.6875 5.05439 11.6766 5.04518 11.6656 5.03869C11.662 5.03658 11.6585 5.03479 11.6551 5.03334C11.6706 5.04773 11.6763 5.0648 11.6801 5.08077C11.6808 5.08395 11.6815 5.08704 11.6821 5.09004C11.6836 5.09683 11.685 5.10316 11.687 5.10909C11.6898 5.11746 11.6938 5.12437 11.7006 5.1295L11.6969 5.13593L11.6522 5.12304C11.6615 5.14859 11.6429 5.183 11.6006 5.19724L11.5953 5.19901V5.16201C11.5879 5.17266 11.5781 5.18201 11.5651 5.18926C11.5473 5.19927 11.5237 5.20513 11.4928 5.20513V5.19772C11.4923 5.19772 11.492 5.1979 11.4919 5.19797C11.4919 5.19793 11.492 5.19783 11.4922 5.19763C11.4927 5.19696 11.4933 5.19581 11.494 5.19404C11.4945 5.19301 11.495 5.19177 11.4955 5.19041C11.4967 5.18749 11.498 5.184 11.4997 5.18068C11.5012 5.17766 11.503 5.17454 11.5053 5.17163C11.4984 5.1741 11.4914 5.17744 11.4844 5.18154C11.4687 5.19088 11.4539 5.20396 11.4428 5.21889L11.4426 5.2191L11.4424 5.21929C11.4305 5.23139 11.4179 5.23594 11.4068 5.23483C11.3959 5.23373 11.3872 5.22715 11.3829 5.21853C11.3788 5.21221 11.3771 5.20575 11.3777 5.19944C11.3782 5.19311 11.3809 5.18719 11.3851 5.18195C11.3866 5.18009 11.3882 5.1783 11.3901 5.17661C11.3799 5.17827 11.37 5.1782 11.3617 5.174C11.3526 5.1694 11.3481 5.16021 11.3492 5.15113C11.3501 5.14374 11.3547 5.13662 11.363 5.1319C11.3582 5.12847 11.3548 5.1245 11.3526 5.1202C11.3496 5.11425 11.3491 5.10794 11.3502 5.10204C11.3522 5.09046 11.3605 5.07985 11.3693 5.07543L11.3697 5.07522L11.3701 5.07511C11.3786 5.07299 11.3864 5.07356 11.3944 5.07533C11.3999 5.07654 11.4057 5.07839 11.4119 5.08035C11.4145 5.08117 11.4171 5.08201 11.4199 5.08284C11.4385 5.08848 11.4627 5.09411 11.5 5.09035L11.5004 5.09031C11.5081 5.09031 11.5184 5.09025 11.5268 5.08516C11.5348 5.08031 11.5421 5.07023 11.5421 5.04801C11.5421 5.0222 11.5312 4.9986 11.5059 4.98405C11.4805 4.9694 11.4399 4.96352 11.3795 4.97494L11.3795 4.97495C11.2688 4.99419 11.1885 4.9923 11.1262 4.98166C11.0693 4.97195 11.0275 4.95496 10.9918 4.94043C10.9892 4.93936 10.9866 4.93831 10.9841 4.93728C10.961 4.95589 10.9378 4.95967 10.917 4.96063C10.9122 4.96085 10.9075 4.96092 10.9029 4.96098L10.9016 4.961C10.8966 4.96108 10.8919 4.96117 10.8874 4.96146C10.8784 4.96204 10.8705 4.96343 10.8636 4.9669C10.8475 4.97501 10.8295 4.97501 10.8136 4.97501H10.8132C10.7967 4.97501 10.7829 4.97515 10.7728 4.98199L10.7726 4.98213L10.7723 4.98224C10.7639 4.98651 10.7545 4.98748 10.7449 4.98724C10.7385 4.98707 10.7316 4.98632 10.7246 4.98557C10.7214 4.98522 10.7182 4.98488 10.715 4.98458C10.6944 4.98269 10.6728 4.98279 10.6512 4.9973C10.6374 5.0072 10.6249 5.01179 10.6134 5.01333C10.6019 5.01486 10.5916 5.01331 10.5824 5.01136C10.5798 5.01082 10.5774 5.01026 10.5751 5.00972C10.5688 5.00827 10.5632 5.00698 10.5577 5.00664C10.5505 5.00621 10.5439 5.00748 10.5372 5.01255C10.5218 5.02421 10.5081 5.03214 10.4933 5.03712C10.4795 5.04176 10.465 5.04376 10.4474 5.04402C10.4474 5.05056 10.4472 5.05745 10.4455 5.06506C10.4435 5.07416 10.4395 5.08415 10.4317 5.09599L10.4316 5.09609C10.3932 5.15037 10.3541 5.16677 10.3295 5.16677L10.3276 5.1598C10.3337 5.15675 10.3371 5.15043 10.3389 5.14218C10.3398 5.13832 10.3402 5.13423 10.3405 5.13017C10.3238 5.15126 10.2987 5.16411 10.2749 5.17321C10.2637 5.17748 10.2527 5.18097 10.2429 5.18409C10.2405 5.18486 10.2381 5.18561 10.2358 5.18635C10.2242 5.19011 10.2152 5.19331 10.2101 5.19676L10.2029 5.20162L10.2079 5.16108C10.2015 5.16732 10.1928 5.17159 10.1828 5.17452C10.1617 5.18072 10.1335 5.18115 10.105 5.18019C10.0943 5.17983 10.0835 5.17928 10.073 5.17873C10.0553 5.17781 10.0382 5.17693 10.023 5.17708C10.011 5.1772 10.0005 5.17797 9.9922 5.17983C9.98381 5.1817 9.97824 5.18453 9.97526 5.1883L9.96817 5.19723V5.18608C9.96817 5.18093 9.97128 5.17577 9.97522 5.17117C9.97927 5.16644 9.98474 5.1617 9.99055 5.1573C9.99565 5.15345 10.0011 5.14979 10.0063 5.14656C9.98742 5.14674 9.97045 5.14002 9.95482 5.13383C9.95405 5.13353 9.95329 5.13323 9.95253 5.13293C9.93048 5.12422 9.91129 5.11741 9.89033 5.12798L9.87737 5.13452L9.88513 5.12276C9.89134 5.11335 9.89965 5.1055 9.90943 5.09987C9.91085 5.09905 9.9123 5.09828 9.91377 5.09756C9.91334 5.09747 9.91291 5.09737 9.91249 5.09727C9.90413 5.09536 9.89711 5.09205 9.89041 5.08867C9.88947 5.0882 9.88854 5.08772 9.8876 5.08724C9.87523 5.08094 9.86302 5.07473 9.84285 5.07473C9.83052 5.07473 9.82142 5.07054 9.8167 5.06339C9.81201 5.05631 9.81227 5.04726 9.81647 5.03877C9.82116 5.02932 9.83249 5.02521 9.84406 5.02327C9.85004 5.02226 9.8565 5.02177 9.86289 5.02153C9.85572 5.01991 9.84795 5.01955 9.84028 5.02007C9.82649 5.02099 9.81374 5.02471 9.80669 5.02827L9.80643 5.0284L9.80616 5.02849C9.79256 5.03306 9.77938 5.02611 9.77298 5.01641C9.76973 5.01149 9.768 5.0056 9.76886 4.99969C9.76972 4.99371 9.77319 4.98805 9.77967 4.98368C9.78842 4.97731 9.79834 4.9728 9.80883 4.9704L9.79761 4.96757C9.78792 4.97145 9.77715 4.9662 9.77197 4.95783C9.76623 4.94856 9.76672 4.93529 9.77914 4.92276L9.77941 4.92248L9.77973 4.92227C9.8041 4.90588 9.83046 4.90815 9.856 4.92004C9.88137 4.93186 9.90648 4.95336 9.92936 4.97645L9.92955 4.97664L9.92971 4.97685C9.95176 5.00651 9.98492 5.0215 10.0205 5.02906C10.0561 5.03662 10.0937 5.03664 10.1242 5.03664C10.1296 5.03664 10.1351 5.03671 10.1406 5.03679C10.1488 5.0369 10.1569 5.03702 10.1648 5.03688C10.178 5.03664 10.1896 5.03567 10.198 5.033C10.2063 5.03035 10.2105 5.0264 10.2111 5.02056C10.2118 5.01406 10.2083 5.004 10.197 4.98877L10.1967 4.9884C10.1815 4.96149 10.168 4.9343 10.1612 4.90794C10.1544 4.88159 10.1543 4.8558 10.1661 4.83184C10.1721 4.81585 10.1839 4.8006 10.1986 4.78632C10.2133 4.77196 10.2311 4.7584 10.2492 4.74588C10.2655 4.73464 10.2821 4.72418 10.2972 4.71472C10.2989 4.71363 10.3007 4.71256 10.3023 4.7115C10.3188 4.70116 10.3328 4.69218 10.3421 4.68469L10.3458 4.68168L10.3481 4.68576C10.4076 4.79067 10.5337 4.79118 10.5875 4.79118C10.6377 4.78041 10.6795 4.7814 10.7195 4.78236C10.7223 4.78242 10.725 4.78249 10.7278 4.78255C10.7705 4.78351 10.8117 4.78349 10.8605 4.76836L10.8606 4.76833C10.9623 4.73882 11.069 4.73093 11.1739 4.74518C11.223 4.74898 11.2796 4.74706 11.3238 4.73852C11.3459 4.73424 11.3647 4.72836 11.3778 4.72088C11.3909 4.71339 11.3976 4.70479 11.3976 4.69517C11.3976 4.68694 11.3936 4.67981 11.3852 4.6738C11.3766 4.66768 11.3634 4.6628 11.3457 4.65949C11.3102 4.6529 11.2575 4.65284 11.1892 4.66049C11.0675 4.67966 10.9379 4.69315 10.8385 4.68351C10.7888 4.6787 10.7463 4.66806 10.716 4.64912C10.6855 4.63002 10.6677 4.60254 10.6677 4.56477C10.6677 4.52898 10.6845 4.50206 10.7113 4.4825C10.7379 4.46306 10.7742 4.45092 10.8135 4.44415ZM9.83074 4.97592L9.85704 4.98256L9.85978 4.97565C9.851 4.97162 9.8416 4.96923 9.83203 4.96858L9.79674 4.95968L9.79537 4.96037C9.79022 4.96297 9.78282 4.96064 9.77877 4.9541C9.77504 4.94808 9.77452 4.93846 9.78463 4.92808C9.8058 4.91402 9.82875 4.91562 9.85251 4.92669C9.87649 4.93785 9.90074 4.95845 9.92342 4.98132C9.947 5.01288 9.98218 5.02852 10.0188 5.03628C10.0553 5.04405 10.0937 5.04405 10.124 5.04405H10.1242C10.1293 5.04405 10.1347 5.04412 10.1402 5.0442C10.1486 5.04431 10.157 5.04443 10.165 5.04428C10.1782 5.04404 10.1909 5.04309 10.2005 5.04002C10.2103 5.03691 10.2179 5.03127 10.219 5.02129C10.22 5.012 10.215 5.00007 10.2036 4.98471C10.1884 4.95799 10.1754 4.93155 10.1689 4.9062C10.1624 4.88083 10.1625 4.85682 10.1734 4.83481L10.1735 4.83446C10.179 4.81983 10.1899 4.80542 10.2042 4.79147C10.2185 4.77754 10.2359 4.76426 10.2539 4.75185C10.27 4.74072 10.2865 4.73035 10.3016 4.72088C10.3033 4.7198 10.305 4.71873 10.3067 4.71767C10.3211 4.70864 10.334 4.7004 10.3435 4.69322C10.4064 4.79859 10.5352 4.79859 10.5877 4.79859H10.5884L10.5889 4.7985C10.6382 4.78784 10.6792 4.78881 10.7194 4.78977C10.7221 4.78983 10.7249 4.7899 10.7276 4.78996C10.7704 4.79092 10.8128 4.79095 10.8629 4.77541C10.9636 4.74621 11.0691 4.73842 11.1729 4.75253L11.1731 4.75256C11.2228 4.75641 11.2802 4.7545 11.3254 4.74578C11.3479 4.74143 11.3676 4.73533 11.3819 4.72722C11.396 4.71914 11.4055 4.70857 11.4055 4.69517C11.4055 4.68423 11.4 4.67505 11.3899 4.66788C11.38 4.66081 11.3655 4.65563 11.3472 4.65222C11.3105 4.6454 11.2568 4.64545 11.1882 4.65314L11.188 4.65316C11.0664 4.67233 10.9376 4.68568 10.8393 4.67614C10.7901 4.67137 10.7491 4.66092 10.7204 4.64295C10.6919 4.62512 10.6756 4.59988 10.6756 4.56477C10.6756 4.53153 10.691 4.50668 10.7161 4.48836C10.7413 4.46993 10.7763 4.4581 10.8149 4.45144C10.8922 4.43813 10.9828 4.44576 11.0354 4.46093C11.0891 4.47641 11.1504 4.48218 11.2029 4.48218C11.2259 4.48218 11.2473 4.48108 11.2658 4.47917C11.2089 4.49754 11.1662 4.50634 11.1294 4.50931C11.0824 4.5131 11.0449 4.50743 10.9993 4.49976C10.9532 4.49202 10.8863 4.49009 10.8307 4.49879C10.8029 4.50314 10.7776 4.5102 10.7592 4.52074C10.7407 4.53131 10.7285 4.54575 10.7285 4.56477C10.7285 4.58443 10.7458 4.59923 10.772 4.60977C10.7985 4.62042 10.8355 4.62742 10.8785 4.63079C10.9645 4.63753 11.0752 4.62983 11.1744 4.60672C11.2726 4.58385 11.3477 4.5916 11.398 4.61414C11.4482 4.63668 11.4737 4.6739 11.4737 4.71051C11.4737 4.72672 11.466 4.74466 11.4527 4.7619C11.4393 4.77909 11.4205 4.79531 11.3985 4.80803C11.3546 4.83352 11.299 4.8445 11.2512 4.82225L11.247 4.82846C11.3089 4.8753 11.3862 4.8753 11.4617 4.8753H11.4624L11.5999 4.8676L11.6003 4.8675C11.6078 4.86559 11.6142 4.86421 11.6196 4.86365C11.6251 4.86308 11.6291 4.86337 11.632 4.86448C11.6371 4.86643 11.6409 4.87179 11.6409 4.88684C11.6402 4.89942 11.6428 4.91197 11.6484 4.92326C11.6524 4.93132 11.6579 4.93855 11.6644 4.94459H11.625L11.635 4.95131C11.6573 4.96633 11.6701 4.98118 11.6783 4.99869C11.6851 5.01317 11.6889 5.02961 11.6921 5.04985C11.6854 5.04289 11.6775 5.03699 11.6698 5.0324C11.6581 5.02554 11.6459 5.02129 11.6373 5.02129H11.6233L11.6352 5.02816C11.6605 5.04272 11.6677 5.0626 11.6724 5.08237C11.6731 5.08524 11.6737 5.08816 11.6743 5.09107C11.6758 5.09805 11.6773 5.10502 11.6795 5.11134C11.6811 5.11617 11.6832 5.12079 11.686 5.12503L11.636 5.11061L11.6415 5.119C11.6543 5.13839 11.6432 5.17244 11.6032 5.18834V5.14773L11.5957 5.14616C11.5884 5.16094 11.5774 5.17375 11.5611 5.1829C11.5463 5.1912 11.5268 5.19663 11.501 5.19757C11.5011 5.19732 11.5012 5.19707 11.5013 5.19682C11.5019 5.19544 11.5025 5.19402 11.503 5.19256C11.5041 5.18981 11.5053 5.18689 11.5068 5.18381C11.5114 5.17465 11.5179 5.16677 11.5308 5.16677V5.15936C11.5146 5.15936 11.4968 5.16546 11.4802 5.17527C11.4637 5.18507 11.4482 5.19876 11.4365 5.21442C11.4258 5.22518 11.4156 5.22826 11.4077 5.22746C11.3997 5.22665 11.3932 5.22181 11.3899 5.21519L11.3897 5.2148C11.3863 5.20967 11.3851 5.2047 11.3855 5.20004C11.3859 5.19535 11.388 5.19073 11.3914 5.18638C11.3964 5.18002 11.4044 5.17444 11.4139 5.17045C11.4178 5.16921 11.4217 5.16791 11.4255 5.16662L11.4257 5.16656L11.4233 5.15949C11.4191 5.16056 11.415 5.16191 11.4111 5.16353C11.4039 5.16583 11.3969 5.16782 11.3903 5.16902C11.3802 5.17088 11.3718 5.1707 11.3654 5.16747C11.3593 5.16441 11.3562 5.15826 11.357 5.15199C11.3578 5.14585 11.3623 5.13928 11.3725 5.13588L11.3808 5.13307L11.373 5.12912C11.366 5.1256 11.3619 5.12134 11.3597 5.11701C11.3575 5.11265 11.3571 5.10793 11.3579 5.10328C11.3596 5.09396 11.3663 5.08555 11.3726 5.08216C11.3792 5.08058 11.3855 5.08098 11.3926 5.08254C11.3977 5.08367 11.403 5.08534 11.409 5.08724C11.4116 5.08809 11.4145 5.08898 11.4175 5.08989C11.4368 5.09574 11.462 5.1016 11.5006 5.09774H11.5007C11.5082 5.09774 11.5206 5.09774 11.531 5.0914C11.542 5.08474 11.55 5.07182 11.55 5.04801C11.55 5.02013 11.538 4.99387 11.5101 4.97773C11.4823 4.96171 11.4393 4.95608 11.378 4.96767C11.2682 4.98677 11.1888 4.98483 11.1276 4.97437C11.0716 4.96482 11.0306 4.94814 10.9949 4.93361C10.9915 4.93223 10.9882 4.93088 10.9849 4.92955L10.9826 4.92862L10.9807 4.93019C10.9589 4.94858 10.9371 4.95229 10.9166 4.95322C10.9119 4.95344 10.9073 4.95351 10.9028 4.95357L10.9015 4.95359C10.8965 4.95367 10.8916 4.95376 10.8869 4.95407C10.8774 4.95468 10.8682 4.95617 10.8599 4.96037C10.8457 4.96753 10.8296 4.9676 10.8132 4.9676L10.8125 4.9676C10.797 4.9676 10.7808 4.9676 10.7684 4.97582C10.7617 4.97913 10.754 4.98006 10.7452 4.97983C10.739 4.97967 10.7327 4.97898 10.7259 4.97825C10.7226 4.9779 10.7192 4.97753 10.7157 4.97721C10.6945 4.97526 10.6705 4.97517 10.6465 4.9913L10.6464 4.99138C10.6336 5.00062 10.6223 5.00465 10.6123 5.00599C10.6022 5.00734 10.593 5.00601 10.5841 5.00413C10.5819 5.00367 10.5798 5.00316 10.5776 5.00266C10.571 5.00115 10.5645 4.99963 10.5582 4.99925C10.5494 4.99872 10.5408 5.00034 10.5323 5.00677C10.5173 5.01812 10.5044 5.02553 10.4907 5.03014C10.477 5.03475 10.4622 5.03664 10.4435 5.03664H10.4396V5.04034C10.4396 5.04804 10.4396 5.05535 10.4378 5.06356C10.436 5.07171 10.4324 5.08088 10.425 5.09203C10.3934 5.13664 10.3623 5.15383 10.3407 5.15818C10.3437 5.15387 10.3455 5.14878 10.3466 5.14369C10.3486 5.13468 10.3486 5.12478 10.3486 5.1172V5.11705L10.3412 5.1153C10.3267 5.14096 10.2993 5.15589 10.2719 5.16635C10.261 5.17052 10.2503 5.17392 10.2405 5.17703C10.238 5.17782 10.2356 5.17858 10.2333 5.17934C10.2255 5.18183 10.2184 5.18426 10.2126 5.18688L10.218 5.14383C10.2189 5.14031 10.2194 5.1365 10.2194 5.13239L10.2115 5.13196L10.2102 5.14249C10.2088 5.14741 10.2065 5.15148 10.2033 5.15489C10.198 5.16048 10.1903 5.16456 10.1805 5.16744C10.1608 5.17322 10.1338 5.17375 10.1053 5.17279C10.0949 5.17244 10.0843 5.17189 10.0739 5.17135C10.0559 5.17043 10.0383 5.16952 10.0229 5.16967C10.0107 5.16979 9.99954 5.17057 9.99039 5.17262C9.98743 5.17328 9.98462 5.17408 9.98201 5.17507C9.98551 5.17115 9.99023 5.16706 9.99548 5.16308C10.0067 5.15462 10.0198 5.14707 10.0272 5.14332L10.0242 5.13651C9.99975 5.14355 9.97873 5.13524 9.95718 5.12673C9.95664 5.12652 9.95611 5.1263 9.95557 5.12609C9.93789 5.11911 9.91956 5.11215 9.90002 5.11658C9.90405 5.11254 9.90859 5.10904 9.91354 5.10619C9.91977 5.10259 9.92653 5.10009 9.93353 5.09876C9.93634 5.09856 9.93928 5.0982 9.94239 5.09768L9.94146 5.09034C9.93844 5.0905 9.93544 5.09086 9.93247 5.0914C9.92549 5.09186 9.91961 5.09128 9.91435 5.09007C9.90702 5.08839 9.90074 5.08547 9.89413 5.08214C9.89318 5.08166 9.89222 5.08117 9.89126 5.08068C9.87882 5.07434 9.86505 5.06732 9.84285 5.06732C9.83237 5.06732 9.82626 5.06383 9.82338 5.05948C9.82046 5.05506 9.82021 5.04877 9.8236 5.04191C9.82652 5.03602 9.8342 5.03246 9.84544 5.03056C9.85644 5.02872 9.86938 5.0287 9.88087 5.0287H9.89315L9.88315 5.02198C9.87069 5.0136 9.85441 5.01169 9.83972 5.01267C9.82516 5.01365 9.81144 5.01753 9.80325 5.02159C9.79411 5.02452 9.78461 5.01999 9.77966 5.0125C9.77721 5.00878 9.77609 5.00461 9.77665 5.00069C9.77721 4.99686 9.77942 4.99295 9.78431 4.98966L9.78443 4.98958C9.79474 4.98205 9.80682 4.97743 9.81943 4.97616C9.8232 4.97578 9.82698 4.9757 9.83074 4.97592ZM11.4918 5.19799C11.4918 5.19799 11.4919 5.19798 11.4919 5.19797ZM10.0801 4.53338C10.0903 4.53584 10.1028 4.54024 10.118 4.54599L10.1205 4.54693V4.55901L10.1189 4.56012C10.1139 4.56345 10.1095 4.56907 10.1057 4.57635C10.102 4.58358 10.099 4.59218 10.0966 4.60113C10.092 4.61905 10.0901 4.63793 10.0901 4.64915V4.65855L10.0833 4.65168C10.0755 4.64382 10.0658 4.63208 10.058 4.61935C10.0504 4.60681 10.0443 4.5928 10.0442 4.58036C10.0423 4.567 10.0418 4.55654 10.0432 4.54881C10.0446 4.54088 10.0483 4.53512 10.0553 4.53256C10.0617 4.53018 10.0702 4.53096 10.0801 4.53338ZM10.051 4.55006C10.0498 4.55666 10.0501 4.56626 10.052 4.57962L10.0521 4.57987V4.58011C10.0521 4.59063 10.0574 4.60336 10.0649 4.61566C10.0703 4.6245 10.0766 4.63286 10.0826 4.63964C10.0833 4.62823 10.0853 4.61352 10.089 4.59936C10.0914 4.5901 10.0946 4.58096 10.0987 4.57309C10.1024 4.56595 10.107 4.55962 10.1126 4.55527V4.55194C10.0986 4.54666 10.0872 4.54276 10.0782 4.54055C10.0684 4.53818 10.0621 4.538 10.0581 4.53946C10.0547 4.54073 10.0521 4.5436 10.051 4.55006Z" fill="black"/>
<path d="M10.3219 4.5571C10.3827 4.52642 10.4055 4.52642 10.3903 4.58011C10.3903 4.60312 10.3675 4.63381 10.3523 4.64915C10.3523 4.62614 10.3523 4.57244 10.3219 4.5571Z" fill="#F9DD16"/>
<path fill-rule="evenodd" clip-rule="evenodd" d="M10.3296 4.55745C10.3425 4.56699 10.349 4.58341 10.3523 4.59953C10.3553 4.61356 10.356 4.6281 10.3562 4.63932C10.362 4.6326 10.3683 4.62436 10.3736 4.61566C10.3811 4.60336 10.3864 4.59063 10.3864 4.58011V4.57963L10.3865 4.57916C10.3903 4.56584 10.3915 4.55635 10.3907 4.55002C10.3903 4.5469 10.3894 4.54479 10.3882 4.54337C10.3871 4.54201 10.3857 4.54107 10.3836 4.54055C10.3791 4.53942 10.372 4.54026 10.3617 4.5437C10.3528 4.54663 10.3422 4.55128 10.3296 4.55745ZM10.3942 4.58061C10.398 4.5673 10.3995 4.55681 10.3985 4.54909C10.398 4.54513 10.3967 4.54167 10.3945 4.53892C10.3923 4.53612 10.3892 4.5343 10.3856 4.53339C10.3787 4.53164 10.3696 4.5332 10.3591 4.53671C10.3483 4.54028 10.3353 4.54614 10.32 4.55384L10.3135 4.5571L10.32 4.56037C10.3335 4.5672 10.3409 4.58293 10.3446 4.60096C10.3483 4.61878 10.3483 4.63761 10.3483 4.64915V4.65855L10.3552 4.65168C10.363 4.64382 10.3726 4.63208 10.3804 4.61935C10.388 4.60689 10.3941 4.59298 10.3942 4.58061Z" fill="black"/>
<path d="M10.223 4.51875C10.3447 4.51875 10.3599 4.58011 10.3523 4.64915C10.3523 4.72585 10.3143 4.69517 10.2915 4.80256C10.2839 4.83324 10.2535 4.84091 10.2154 4.84091C10.1926 4.84091 10.1622 4.84091 10.147 4.79489C10.1242 4.69517 10.0862 4.71818 10.0862 4.64148C10.0862 4.58011 10.1014 4.51875 10.223 4.51875V4.51875Z" fill="#F9DD16"/>
<path fill-rule="evenodd" clip-rule="evenodd" d="M10.1121 4.55938C10.094 4.58134 10.0901 4.61091 10.0901 4.64148C10.0901 4.66037 10.0925 4.67286 10.0962 4.68252C10.0999 4.69219 10.1051 4.69926 10.1112 4.7074C10.1115 4.7078 10.1119 4.7082 10.1122 4.70861C10.1181 4.71644 10.1248 4.72529 10.1314 4.73801C10.1383 4.75136 10.1451 4.76886 10.1508 4.79394C10.1582 4.81612 10.169 4.82665 10.1801 4.83183C10.1915 4.83715 10.2039 4.8372 10.2154 4.8372C10.2343 4.8372 10.2507 4.83529 10.2632 4.82987C10.2755 4.82456 10.2841 4.81588 10.2876 4.80177C10.2934 4.77473 10.3001 4.75623 10.307 4.74248C10.314 4.7287 10.3211 4.71982 10.3273 4.71211L10.3275 4.7119C10.3336 4.70428 10.3387 4.698 10.3423 4.68905C10.346 4.68002 10.3484 4.66805 10.3484 4.64915V4.64876L10.3484 4.64877C10.3522 4.61441 10.3501 4.58301 10.3329 4.5602C10.3159 4.53763 10.2833 4.52246 10.223 4.52246C10.1629 4.52246 10.1301 4.53761 10.1121 4.55938ZM10.1059 4.55483C10.1259 4.53057 10.1616 4.51504 10.223 4.51504C10.2845 4.51504 10.3202 4.53055 10.3394 4.55592C10.3583 4.58101 10.36 4.61472 10.3562 4.64934C10.3562 4.66868 10.3538 4.68159 10.3497 4.69171C10.3456 4.70164 10.34 4.70866 10.334 4.71611L10.3336 4.71659C10.3274 4.72421 10.3207 4.73259 10.3142 4.74566C10.3076 4.75875 10.301 4.77666 10.2953 4.80328L10.2953 4.8034L10.2953 4.8034C10.2912 4.81994 10.2808 4.83041 10.2665 4.83661C10.2524 4.8427 10.2346 4.84461 10.2154 4.84461H10.2151C10.2039 4.84461 10.1898 4.84462 10.1766 4.83848C10.1631 4.83217 10.1511 4.81972 10.1433 4.79599L10.1431 4.79567L10.1432 4.79567C10.1375 4.77098 10.131 4.75401 10.1243 4.74126C10.118 4.72911 10.1117 4.72069 10.1057 4.71286C10.1054 4.71247 10.1051 4.71209 10.1048 4.7117C10.0987 4.70354 10.0929 4.69575 10.0888 4.68505C10.0847 4.67434 10.0822 4.66094 10.0822 4.64148C10.0822 4.61068 10.086 4.57889 10.1059 4.55483Z" fill="black"/>
<path d="M9.91129 4.80256C9.88088 4.78722 9.85807 4.80256 9.84286 4.80256C9.88848 4.81023 9.88848 4.86392 9.97972 4.87926C9.95691 4.87926 9.94931 4.8946 9.9265 4.87926C9.96451 4.90994 10.0025 4.9483 10.0938 4.9483C10.147 4.9483 10.109 4.97131 10.0786 4.95597C10.109 4.99432 10.1774 4.96364 10.223 5.03267C10.223 4.97898 10.147 4.90227 10.185 4.84858C10.0558 4.84091 10.0482 4.77187 9.97972 4.71818C9.91889 4.67216 9.91129 4.62614 9.88848 4.54176C9.88088 4.50341 9.83526 4.4804 9.81245 4.48807C9.78964 4.48807 9.77443 4.51108 9.79724 4.52642C9.81245 4.54176 9.84286 4.54176 9.84286 4.58011C9.82005 4.54943 9.78203 4.54176 9.76682 4.5571C9.75922 4.57244 9.76682 4.59545 9.78203 4.59545C9.82005 4.59545 9.79724 4.64148 9.83526 4.67216C9.79724 4.63381 9.76682 4.62614 9.74401 4.64915C9.73641 4.66449 9.74401 4.6875 9.77443 4.6875C9.81245 4.6875 9.85046 4.77955 9.91129 4.80256V4.80256ZM10.8997 5.1554C10.8845 5.1554 10.8921 5.19375 10.8617 5.19375C10.9225 5.19375 10.9606 5.17841 10.9834 5.1554L10.9682 5.19375C10.9986 5.17074 11.0822 5.16307 11.1202 5.17074C11.1583 5.17841 11.1659 5.16307 11.1811 5.14006C11.1963 5.10937 11.1811 5.09403 11.1583 5.07869C11.1354 5.05568 11.1278 5.025 11.1354 4.97898C11.029 4.82557 10.8313 4.90227 10.8313 4.96364C10.8997 5.04801 10.9073 5.04034 10.9682 5.04801C11.0214 5.06335 11.0594 5.06335 11.0214 5.09403C11.0062 5.10937 10.9454 5.09403 10.9073 5.1017C10.8085 5.1017 10.7553 5.03267 10.7325 5.07102C10.7097 5.1017 10.7325 5.11705 10.7781 5.11705C10.7477 5.11705 10.702 5.11705 10.7097 5.14773C10.7249 5.20142 10.7705 5.14006 10.7933 5.1554C10.7781 5.1554 10.7477 5.16307 10.7477 5.17841C10.7477 5.19375 10.7857 5.21676 10.8237 5.17841C10.8458 5.16238 10.8726 5.15428 10.8997 5.1554V5.1554Z" fill="#F9DD16"/>
<path fill-rule="evenodd" clip-rule="evenodd" d="M9.89232 4.54096C9.89427 4.54818 9.89611 4.5551 9.89788 4.56176C9.91684 4.63321 9.92768 4.67406 9.98218 4.71529L9.98224 4.71533C9.99964 4.72898 10.0131 4.74358 10.0255 4.75778C10.0279 4.76052 10.0303 4.76324 10.0326 4.76594C10.0424 4.77725 10.0517 4.78808 10.0623 4.79801C10.0883 4.8223 10.1216 4.8411 10.1853 4.84488L10.1921 4.84529L10.1883 4.85063C10.1705 4.87569 10.1791 4.90649 10.1934 4.93921C10.1966 4.94652 10.2 4.95384 10.2035 4.96113C10.2038 4.96192 10.2042 4.9627 10.2046 4.96349C10.2084 4.97154 10.2121 4.97958 10.2154 4.98744C10.222 5.00311 10.227 5.01851 10.227 5.03267V5.04564L10.2197 5.03463C10.1977 5.00129 10.1703 4.99207 10.1442 4.98642C10.1403 4.98558 10.1364 4.98481 10.1325 4.98404C10.1234 4.98226 10.1144 4.9805 10.1063 4.97794C10.0944 4.97419 10.0837 4.96857 10.0754 4.95818L10.0804 4.9527C10.0874 4.9562 10.0948 4.95753 10.1013 4.95753C10.1078 4.95753 10.113 4.95616 10.1155 4.95472C10.1155 4.95468 10.1156 4.95465 10.1157 4.95461C10.1145 4.95405 10.1124 4.95341 10.109 4.95291C10.1053 4.95235 10.1003 4.952 10.0938 4.952C10.0475 4.952 10.0145 4.94226 9.98826 4.92852C9.96658 4.91718 9.94951 4.90311 9.93358 4.88997C9.93033 4.88729 9.92712 4.88465 9.92393 4.88207L9.92878 4.87625C9.93415 4.87986 9.93837 4.88149 9.94192 4.88209C9.94544 4.88268 9.94863 4.88231 9.95209 4.88143C9.95379 4.88101 9.95564 4.88041 9.95766 4.87976C9.9585 4.87949 9.95936 4.87921 9.96026 4.87893C9.92577 4.86998 9.90638 4.85493 9.89138 4.84064C9.88828 4.83768 9.88544 4.83484 9.88273 4.83212C9.87769 4.82708 9.87309 4.82248 9.86809 4.81843C9.86062 4.81238 9.85269 4.80797 9.84217 4.8062L9.84286 4.79885C9.84607 4.79885 9.84987 4.79803 9.85467 4.79682C9.85542 4.79663 9.8562 4.79643 9.85699 4.79623C9.86109 4.79518 9.86572 4.79399 9.87068 4.79316C9.87497 4.79244 9.87954 4.79197 9.88438 4.79204C9.87826 4.78765 9.87242 4.78273 9.86682 4.7775C9.85392 4.76546 9.84214 4.75163 9.83122 4.7387C9.83079 4.73819 9.83035 4.73767 9.82991 4.73715C9.81943 4.72473 9.80981 4.71334 9.80056 4.7049C9.79081 4.69602 9.78229 4.6912 9.77443 4.6912C9.75807 4.6912 9.74714 4.68494 9.74156 4.67594C9.7361 4.66713 9.73615 4.65625 9.74045 4.64758L9.74071 4.64705L9.74114 4.64662C9.74721 4.64049 9.75396 4.63624 9.76139 4.6341C9.76884 4.63195 9.77673 4.63199 9.78495 4.63406C9.79355 4.63623 9.80256 4.64064 9.81198 4.64717C9.80885 4.63969 9.80706 4.63234 9.80546 4.62581C9.80524 4.6249 9.80503 4.62401 9.80481 4.62314C9.80288 4.61534 9.80111 4.60941 9.79789 4.60534C9.79496 4.60165 9.79053 4.59916 9.78203 4.59916C9.77198 4.59916 9.76525 4.59158 9.76216 4.58325C9.75901 4.5748 9.75897 4.56419 9.76326 4.55554L9.76352 4.555L9.76395 4.55457C9.77296 4.54548 9.78806 4.54375 9.80307 4.54779C9.8149 4.55097 9.82721 4.55783 9.83769 4.56828C9.8369 4.56484 9.83575 4.56192 9.83437 4.5594C9.83163 4.5544 9.82781 4.55072 9.82339 4.5476C9.81981 4.54507 9.81598 4.543 9.81198 4.54083C9.81093 4.54025 9.80986 4.53968 9.80879 4.53908C9.80387 4.53637 9.7988 4.53334 9.79463 4.52922C9.78857 4.52506 9.78473 4.52021 9.78302 4.51506C9.78129 4.5098 9.78188 4.50454 9.78417 4.49992C9.78861 4.49095 9.79931 4.48459 9.81177 4.48437C9.81827 4.48235 9.82597 4.4825 9.83378 4.48422C9.84189 4.48601 9.8504 4.48956 9.85835 4.49458C9.87419 4.50457 9.88825 4.52065 9.89232 4.54096ZM9.82385 4.66649C9.82639 4.6694 9.82932 4.67225 9.83269 4.67497L9.83813 4.66963C9.83526 4.66674 9.83243 4.66401 9.82963 4.66144C9.81934 4.64949 9.81605 4.63606 9.81307 4.62389C9.81287 4.62307 9.81267 4.62226 9.81247 4.62146C9.81061 4.61392 9.80857 4.60642 9.80419 4.60091C9.79952 4.59501 9.79254 4.59175 9.78203 4.59175C9.77687 4.59175 9.77219 4.58782 9.76959 4.58081C9.7671 4.57411 9.76708 4.56581 9.77013 4.55921C9.77642 4.55329 9.78771 4.55136 9.80091 4.55491C9.81425 4.5585 9.82872 4.56755 9.83963 4.58224L9.84679 4.59187V4.58011C9.84679 4.57005 9.84479 4.56226 9.84136 4.556C9.83793 4.54974 9.83319 4.54526 9.82811 4.54167C9.82411 4.53885 9.81976 4.53649 9.81571 4.53429C9.81471 4.53375 9.81373 4.53322 9.81277 4.53269C9.80782 4.52996 9.8035 4.52731 9.80011 4.52389L9.79984 4.52362L9.79952 4.52341C9.79437 4.51994 9.79166 4.51624 9.79054 4.51285C9.78943 4.50948 9.78978 4.50612 9.7913 4.50306C9.79438 4.49685 9.80238 4.49177 9.81244 4.49177H9.81313L9.81377 4.49156C9.81853 4.48995 9.82484 4.48986 9.83198 4.49144C9.83907 4.493 9.84672 4.49616 9.85397 4.50073C9.86852 4.5099 9.88104 4.52446 9.88461 4.54244L9.88466 4.54268C9.88665 4.55 9.88851 4.55705 9.89031 4.56384C9.90916 4.63497 9.92061 4.6782 9.97723 4.72105C9.99403 4.73424 10.0071 4.7484 10.0195 4.76248C10.0218 4.76515 10.0241 4.76782 10.0264 4.77049C10.0362 4.78183 10.0459 4.79303 10.0568 4.80327C10.0832 4.82799 10.1169 4.84709 10.1784 4.85184C10.1628 4.87936 10.1728 4.91155 10.1861 4.94204C10.1894 4.94944 10.1928 4.95684 10.1963 4.96413C10.1966 4.96492 10.197 4.9657 10.1974 4.96648C10.2012 4.97455 10.2048 4.98245 10.2081 4.99017C10.2123 5.00027 10.2157 5.00988 10.2176 5.01886C10.1956 4.99267 10.1698 4.98435 10.146 4.9792C10.1417 4.97828 10.1376 4.97747 10.1336 4.97668C10.1247 4.97494 10.1165 4.97333 10.1088 4.97091C10.1034 4.96922 10.0985 4.96716 10.094 4.96448C10.0965 4.9648 10.0989 4.96494 10.1013 4.96494C10.1087 4.96494 10.1154 4.96344 10.1196 4.96104C10.1215 4.95993 10.1238 4.95807 10.1243 4.95529C10.1248 4.95202 10.1224 4.94974 10.1201 4.94846C10.1178 4.94716 10.1145 4.94622 10.1103 4.94559C10.106 4.94496 10.1006 4.94459 10.0938 4.94459C10.0488 4.94459 10.0171 4.93515 9.99209 4.92204C9.97398 4.91257 9.95929 4.90119 9.94533 4.88978C9.94845 4.88979 9.95135 4.88929 9.95413 4.88859C9.95664 4.88796 9.95896 4.88721 9.96126 4.88647C9.96677 4.8847 9.97214 4.88297 9.97972 4.88297L9.98041 4.87561C9.93578 4.86811 9.91367 4.85133 9.89698 4.83543C9.89421 4.83279 9.89151 4.83009 9.88886 4.82744C9.88362 4.8222 9.87852 4.81711 9.87322 4.81281C9.86874 4.80918 9.86398 4.80599 9.85857 4.8035C9.85876 4.80345 9.85895 4.80341 9.85914 4.80336C9.86324 4.80231 9.86748 4.80122 9.87206 4.80045C9.88095 4.79896 9.89091 4.7987 9.9021 4.80267C9.90463 4.80389 9.9072 4.805 9.90982 4.80599L9.91129 4.80256L9.91315 4.79929C9.91048 4.79795 9.90787 4.79682 9.9053 4.79589C9.89363 4.7902 9.88271 4.7819 9.87236 4.77224C9.85984 4.76055 9.84833 4.74706 9.83738 4.73409C9.83689 4.73351 9.8364 4.73293 9.83591 4.73235C9.82558 4.7201 9.81566 4.70836 9.80603 4.69958C9.79606 4.69049 9.78557 4.68379 9.77443 4.68379C9.76037 4.68379 9.75229 4.67855 9.74836 4.67221C9.74442 4.66585 9.74428 4.65782 9.74733 4.65124C9.75252 4.64612 9.75799 4.64283 9.7637 4.64118C9.76956 4.6395 9.77593 4.63946 9.78291 4.64122C9.79487 4.64424 9.80852 4.6525 9.82385 4.66649ZM10.9429 4.88709C11.007 4.87926 11.0846 4.89892 11.1387 4.97695L11.1396 4.97814L11.1393 4.97955C11.1319 5.02474 11.1394 5.05405 11.1609 5.0759C11.1722 5.08352 11.1823 5.09162 11.1875 5.10206C11.1929 5.1129 11.1926 5.12558 11.1846 5.14162L11.1844 5.14203C11.1836 5.14323 11.1828 5.1444 11.1821 5.14558C11.1792 5.14994 11.1765 5.1541 11.1737 5.15779C11.1701 5.1625 11.1663 5.16671 11.1615 5.16992C11.1517 5.17651 11.139 5.17831 11.1194 5.17436C11.101 5.17065 11.0711 5.1706 11.0419 5.17441C11.0273 5.1763 11.0131 5.17914 11.0006 5.1829C10.9881 5.18667 10.9777 5.19129 10.9706 5.19664L10.9595 5.20508L10.974 5.1685C10.9497 5.18639 10.9136 5.19745 10.8617 5.19745V5.19004C10.8683 5.19004 10.8725 5.18801 10.8756 5.18514C10.8787 5.18213 10.8809 5.17796 10.8827 5.17328C10.8834 5.17168 10.8839 5.17012 10.8845 5.16855C10.8848 5.16781 10.885 5.16706 10.8853 5.16631C10.8862 5.16405 10.8871 5.16176 10.8881 5.15974C10.8882 5.15955 10.8883 5.15936 10.8884 5.15917C10.8662 5.16038 10.8446 5.16796 10.8264 5.18116C10.8066 5.20093 10.7864 5.20535 10.7706 5.20217C10.7628 5.20059 10.7562 5.19716 10.7515 5.19296C10.7469 5.18884 10.7437 5.18362 10.7437 5.17841C10.7437 5.17574 10.7444 5.17331 10.7456 5.17111C10.7388 5.17354 10.7315 5.17498 10.7247 5.17295C10.7161 5.17034 10.7098 5.16258 10.7058 5.14868L10.7058 5.14857C10.7037 5.14001 10.7052 5.13304 10.7098 5.12767C10.7142 5.12249 10.7211 5.11933 10.7285 5.11732C10.7318 5.11643 10.7353 5.11574 10.739 5.11521C10.7342 5.11339 10.7301 5.11109 10.7269 5.10822C10.7218 5.10366 10.7192 5.09782 10.7196 5.09094C10.72 5.08428 10.7233 5.07696 10.7291 5.06905C10.7322 5.06386 10.7361 5.06018 10.7407 5.05801C10.7454 5.05582 10.7506 5.05536 10.756 5.05596C10.7665 5.05712 10.779 5.06248 10.793 5.06862C10.7938 5.06895 10.7946 5.06928 10.7953 5.06961C10.8235 5.08195 10.86 5.09791 10.9069 5.098C10.924 5.09465 10.9452 5.09569 10.9645 5.09664C10.9674 5.09678 10.9703 5.09692 10.9731 5.09704C10.984 5.09752 10.994 5.09775 11.0021 5.09694C11.0104 5.09612 11.0157 5.0943 11.0185 5.09151L11.0188 5.0912C11.0235 5.08745 11.0268 5.08429 11.0291 5.08158C11.0314 5.07884 11.0324 5.0768 11.0327 5.07534C11.033 5.07405 11.0328 5.07309 11.0321 5.07215C11.0313 5.07106 11.0297 5.06984 11.0271 5.06854C11.0219 5.0659 11.0138 5.0636 11.0033 5.06094C11.0008 5.06031 10.9982 5.05967 10.9955 5.059C10.987 5.0569 10.9774 5.05454 10.9673 5.05164C10.9616 5.05092 10.9563 5.05034 10.9513 5.04979C10.9307 5.04752 10.9159 5.04589 10.9007 5.03782C10.8818 5.0278 10.8623 5.00798 10.8282 4.96588L10.8274 4.96489V4.96364C10.8274 4.94648 10.841 4.92921 10.8616 4.91555C10.8824 4.90175 10.911 4.891 10.9429 4.88709ZM10.7781 5.11334V5.12075C10.7627 5.12075 10.7443 5.12078 10.7307 5.12444C10.7239 5.12627 10.7189 5.12886 10.7159 5.13231C10.7131 5.13556 10.7118 5.14007 10.7135 5.14683C10.7171 5.15973 10.7223 5.16443 10.7271 5.16589C10.7324 5.16747 10.739 5.1659 10.747 5.16255C10.7503 5.16119 10.7536 5.15963 10.757 5.15804C10.7577 5.15771 10.7584 5.15739 10.7591 5.15707C10.7631 5.15517 10.7673 5.15326 10.7713 5.15181C10.7793 5.14898 10.7881 5.14738 10.7956 5.15238L10.8056 5.1591H10.7933C10.7862 5.1591 10.7753 5.16092 10.7663 5.16456C10.7618 5.16637 10.758 5.16854 10.7554 5.17098C10.7528 5.17338 10.7516 5.17584 10.7516 5.17841C10.7516 5.18087 10.7532 5.18428 10.7569 5.18759C10.7605 5.19082 10.7658 5.19362 10.7723 5.19492C10.7849 5.19748 10.8026 5.19427 10.8208 5.17588L10.821 5.17566L10.8213 5.17547C10.8441 5.15892 10.8718 5.15053 10.8999 5.1517L10.8997 5.1554V5.1591C10.8982 5.1591 10.8969 5.15982 10.8952 5.16304C10.8943 5.16461 10.8936 5.16652 10.8928 5.16875C10.8925 5.16941 10.8923 5.17011 10.892 5.17082C10.8914 5.17244 10.8908 5.17417 10.8901 5.17587C10.8883 5.18041 10.8859 5.18539 10.8821 5.18942C10.9304 5.18636 10.9613 5.17228 10.9805 5.15287L10.9871 5.15669L10.976 5.18449C10.9825 5.18116 10.9901 5.17829 10.9982 5.17584C11.0112 5.17192 11.0259 5.16901 11.0408 5.16707C11.0705 5.1632 11.1014 5.16316 11.1211 5.16712C11.1395 5.17084 11.1496 5.1688 11.1569 5.16389C11.1607 5.16135 11.164 5.15788 11.1673 5.15349C11.1699 5.15002 11.1724 5.14614 11.1753 5.14181C11.176 5.14067 11.1768 5.1395 11.1776 5.13829C11.1848 5.12376 11.1845 5.11349 11.1803 5.10519C11.1761 5.09655 11.1673 5.08936 11.156 5.08171L11.1556 5.08149L11.1554 5.08122C11.1317 5.05732 11.124 5.02572 11.1313 4.97982C11.0791 4.90543 11.0051 4.88697 10.944 4.89444C10.9132 4.89821 10.8858 4.90855 10.8661 4.9216C10.8469 4.93438 10.8359 4.9492 10.8353 4.96242C10.869 5.00397 10.8874 5.02228 10.9045 5.03136C10.9182 5.03864 10.9311 5.04007 10.9515 5.04234C10.9567 5.04292 10.9624 5.04355 10.9687 5.04434L10.969 5.04438L10.9693 5.04447C10.9793 5.04736 10.9888 5.04969 10.9974 5.05181C11.0001 5.05248 11.0027 5.05314 11.0053 5.05378C11.0157 5.0564 11.0247 5.05889 11.0309 5.062C11.034 5.06357 11.0367 5.06547 11.0385 5.06792C11.0404 5.07051 11.0411 5.07351 11.0405 5.07677C11.0398 5.07986 11.038 5.08298 11.0353 5.08618C11.0326 5.08937 11.0289 5.09285 11.0241 5.09672C11.0193 5.10149 11.0114 5.10347 11.0029 5.10431C10.9941 5.10518 10.9837 5.10493 10.9727 5.10445C10.9698 5.10432 10.9669 5.10418 10.964 5.10404C10.9444 5.10309 10.9241 5.1021 10.9082 5.10533L10.9078 5.10541H10.9073C10.8584 5.10541 10.8205 5.08879 10.7922 5.07644C10.7914 5.07607 10.7906 5.0757 10.7897 5.07534C10.7753 5.06902 10.764 5.06431 10.755 5.06332C10.7507 5.06283 10.7472 5.06327 10.7442 5.06465C10.7413 5.06603 10.7385 5.06852 10.7359 5.07283L10.7357 5.07316C10.7302 5.08053 10.7278 5.08657 10.7275 5.09137C10.7272 5.096 10.7289 5.09975 10.7323 5.10286C10.7359 5.10608 10.7416 5.10874 10.7494 5.11057C10.7572 5.1124 10.7669 5.11334 10.7781 5.11334Z" fill="black"/>
<path fill-rule="evenodd" clip-rule="evenodd" d="M10.2919 4.61185C10.297 4.6135 10.3017 4.61476 10.3067 4.61476V4.62217C10.3003 4.62217 10.2946 4.62056 10.2894 4.61885C10.2882 4.61846 10.287 4.61807 10.2859 4.61769C10.282 4.61635 10.2784 4.61513 10.2746 4.61443C10.2699 4.61358 10.2652 4.61359 10.26 4.61546C10.2562 4.61679 10.2521 4.61911 10.2474 4.62294C10.2488 4.62368 10.2503 4.62461 10.2518 4.62549C10.2519 4.62557 10.252 4.62565 10.2522 4.62573C10.2538 4.62675 10.2555 4.62775 10.2572 4.62862C10.2607 4.63038 10.2641 4.63145 10.2678 4.63108C10.2713 4.63072 10.2758 4.6289 10.281 4.62361L10.2868 4.62866C10.2806 4.63487 10.2746 4.63785 10.2686 4.63845C10.2627 4.63904 10.2576 4.63724 10.2535 4.63515C10.2514 4.63411 10.2495 4.63296 10.2479 4.63194C10.2478 4.63188 10.2477 4.63181 10.2476 4.63175C10.246 4.63078 10.2447 4.62999 10.2435 4.6294C10.243 4.62913 10.2425 4.62894 10.2422 4.62881V4.6489C10.2436 4.65902 10.2453 4.66802 10.2469 4.67604C10.2473 4.6785 10.2478 4.68087 10.2482 4.68315C10.25 4.6928 10.2513 4.70115 10.2507 4.7079C10.2502 4.71486 10.2477 4.72069 10.2415 4.72452C10.2356 4.72813 10.227 4.72956 10.2154 4.72956C10.2057 4.72956 10.1983 4.72813 10.1934 4.72426C10.1883 4.72023 10.1868 4.71431 10.1868 4.70763C10.1868 4.701 10.1883 4.69274 10.1902 4.68311C10.1904 4.68191 10.1907 4.68067 10.1909 4.67942C10.1927 4.67058 10.1947 4.66046 10.1963 4.6489V4.62881C10.196 4.62894 10.1955 4.62913 10.195 4.6294C10.1938 4.62999 10.1925 4.63078 10.1909 4.63175C10.1908 4.63181 10.1907 4.63188 10.1906 4.63194C10.189 4.63296 10.1871 4.63411 10.185 4.63515C10.1809 4.63724 10.1758 4.63904 10.1699 4.63845C10.1639 4.63785 10.1579 4.63487 10.1517 4.62866L10.1575 4.62361C10.1627 4.6289 10.1672 4.63072 10.1707 4.63108C10.1744 4.63145 10.1778 4.63038 10.1813 4.62862C10.183 4.62775 10.1847 4.62675 10.1863 4.62573C10.1865 4.62565 10.1866 4.62557 10.1867 4.62549C10.1881 4.62462 10.1896 4.62372 10.191 4.62299C10.1865 4.61944 10.1824 4.6175 10.1789 4.6165C10.1739 4.61507 10.1694 4.61545 10.1649 4.61634C10.1634 4.61665 10.162 4.617 10.1605 4.61736C10.1598 4.61754 10.159 4.61772 10.1583 4.6179C10.1561 4.61842 10.1537 4.61891 10.1513 4.61905C10.1489 4.61919 10.1463 4.61898 10.1437 4.61806C10.1412 4.61714 10.1388 4.61559 10.1365 4.61332L10.1423 4.60827C10.1438 4.60984 10.1453 4.61068 10.1465 4.61114C10.1478 4.6116 10.1492 4.61175 10.1508 4.61165C10.1525 4.61155 10.1542 4.6112 10.1564 4.61071C10.157 4.61056 10.1576 4.61041 10.1583 4.61024C10.1599 4.60986 10.1616 4.60944 10.1633 4.60909C10.1684 4.60806 10.1744 4.60748 10.1812 4.6094C10.188 4.61132 10.1952 4.6156 10.2031 4.62361L10.2002 4.62614H10.2042V4.64939L10.2041 4.64964C10.2025 4.6615 10.2004 4.67189 10.1987 4.68078C10.1984 4.68204 10.1982 4.68326 10.1979 4.68446C10.196 4.69424 10.1947 4.7018 10.1947 4.70763C10.1947 4.71342 10.196 4.71662 10.1985 4.71858C10.2012 4.7207 10.2062 4.72215 10.2154 4.72215C10.2267 4.72215 10.2333 4.7207 10.2372 4.71832C10.2407 4.71616 10.2425 4.71288 10.2429 4.70737C10.2433 4.70166 10.2422 4.69419 10.2404 4.68442C10.24 4.6822 10.2396 4.67987 10.2391 4.67744C10.2376 4.66933 10.2358 4.66004 10.2344 4.64964L10.2343 4.64939V4.62614H10.2383L10.2354 4.62361C10.2432 4.61567 10.2504 4.61095 10.2572 4.60853C10.2641 4.60608 10.2703 4.6061 10.2761 4.60716C10.2805 4.60797 10.2849 4.60945 10.2889 4.61083C10.2899 4.61118 10.291 4.61153 10.2919 4.61185ZM10.8761 4.91399C10.9152 4.90611 10.9542 4.914 10.9853 4.92969L10.9815 4.93622C10.9518 4.92122 10.9147 4.91378 10.8778 4.92124L10.8761 4.91399ZM10.4292 4.99066C10.4282 4.9708 10.4322 4.94719 10.4476 4.91605L10.4547 4.91918C10.4397 4.9494 10.4361 4.97181 10.437 4.99031C10.4377 5.00434 10.441 5.0161 10.4442 5.02775C10.4453 5.03165 10.4464 5.03554 10.4474 5.0395L10.4397 5.04118C10.4388 5.03758 10.4378 5.03391 10.4368 5.03015C10.4335 5.01833 10.4299 5.00554 10.4292 4.99066Z" fill="black"/>
<path d="M10.223 4.8179C10.2534 4.8179 10.2686 4.8179 10.2686 4.77188C10.2686 4.75653 10.2915 4.74886 10.2762 4.71818C10.2915 4.74886 10.223 4.74886 10.223 4.73352C10.223 4.74886 10.147 4.74886 10.1622 4.71818C10.1546 4.74886 10.1774 4.75653 10.1698 4.77188C10.1698 4.8179 10.185 4.8179 10.223 4.8179V4.8179Z" fill="#FF0016"/>
<path fill-rule="evenodd" clip-rule="evenodd" d="M10.2175 4.73553C10.219 4.73451 10.2191 4.73382 10.2191 4.73352H10.227C10.227 4.73399 10.2272 4.7347 10.2284 4.73565C10.2297 4.73663 10.2318 4.73759 10.2346 4.73835C10.2402 4.73987 10.2477 4.74034 10.2548 4.73944C10.2621 4.73852 10.2682 4.7363 10.2716 4.73308C10.2732 4.73153 10.2742 4.72979 10.2745 4.72778C10.2748 4.72574 10.2744 4.72311 10.2727 4.71975L10.2798 4.71662C10.2838 4.72466 10.2854 4.73143 10.2854 4.73736C10.2854 4.74331 10.2838 4.74816 10.2817 4.75235C10.2807 4.75442 10.2796 4.75633 10.2785 4.75809C10.2782 4.75853 10.278 4.75896 10.2777 4.75938C10.2769 4.76067 10.2762 4.76186 10.2755 4.76307C10.2737 4.76623 10.2726 4.76894 10.2726 4.77188C10.2726 4.79487 10.2689 4.80808 10.2597 4.81503C10.2552 4.8185 10.2496 4.82009 10.2435 4.82085C10.2376 4.8216 10.2307 4.8216 10.2233 4.8216H10.2229C10.2135 4.8216 10.2053 4.8216 10.1983 4.82086C10.1912 4.82011 10.185 4.81857 10.1799 4.81516C10.1696 4.80822 10.1659 4.79484 10.1659 4.77188V4.77105L10.1663 4.77031C10.1689 4.76508 10.167 4.76139 10.1636 4.75454C10.1632 4.75384 10.1628 4.75311 10.1625 4.75235C10.1595 4.74645 10.1566 4.73929 10.1567 4.72947C10.1567 4.72932 10.1567 4.72917 10.1566 4.72901C10.1558 4.72516 10.1565 4.72099 10.1587 4.71662L10.1661 4.71902C10.1652 4.72252 10.1647 4.72568 10.1646 4.72856C10.1652 4.73012 10.1663 4.73155 10.1679 4.73288C10.172 4.73624 10.1791 4.73851 10.1874 4.73943C10.1955 4.74035 10.2041 4.73987 10.2104 4.73833C10.2136 4.73755 10.216 4.73656 10.2175 4.73553ZM10.2776 4.7379C10.2774 4.73803 10.2773 4.73816 10.2772 4.73828C10.272 4.74321 10.2639 4.74578 10.2559 4.74678C10.2478 4.7478 10.2392 4.74731 10.2324 4.74547C10.229 4.74456 10.2259 4.74324 10.2235 4.7414C10.2233 4.74126 10.2231 4.7411 10.2229 4.74095C10.2227 4.74115 10.2224 4.74134 10.2221 4.74152C10.2195 4.74331 10.2161 4.7446 10.2124 4.7455C10.205 4.74731 10.1954 4.74779 10.1865 4.74679C10.1792 4.74597 10.1718 4.74412 10.1661 4.74082C10.1671 4.74392 10.1683 4.74666 10.1696 4.74921C10.17 4.74996 10.1703 4.75071 10.1707 4.75146C10.1739 4.75768 10.1774 4.76444 10.1738 4.77265C10.1739 4.79515 10.1778 4.80462 10.1845 4.80913C10.188 4.81148 10.1927 4.81281 10.1991 4.8135C10.2056 4.81419 10.2135 4.81419 10.2231 4.81419C10.2307 4.81419 10.2371 4.81419 10.2425 4.81351C10.2478 4.81283 10.2518 4.81154 10.2548 4.80926C10.2608 4.8047 10.2647 4.79491 10.2647 4.77188C10.2647 4.76714 10.2665 4.76314 10.2685 4.75958C10.2693 4.75824 10.2701 4.75687 10.271 4.75556C10.2712 4.75516 10.2714 4.75476 10.2717 4.75438C10.2727 4.75266 10.2737 4.75098 10.2746 4.74921C10.2763 4.74587 10.2775 4.74225 10.2776 4.7379Z" fill="black"/>
<path d="M10.185 4.72585L10.109 4.70284ZM10.185 4.72585H10.109ZM10.185 4.73352L10.1166 4.75653ZM10.2458 4.72585L10.3219 4.70284ZM10.2458 4.72585H10.3371ZM10.2458 4.73352L10.3219 4.75653Z" fill="black"/>
<path fill-rule="evenodd" clip-rule="evenodd" d="M10.1102 4.69931L10.1862 4.72232L10.185 4.72585V4.72956H10.109V4.72215H10.1599L10.1078 4.70637L10.1102 4.69931ZM10.271 4.72215L10.3231 4.70637L10.3207 4.69931L10.2447 4.72232L10.2459 4.72585V4.72956H10.3371V4.72215H10.271ZM10.3207 4.76006L10.2447 4.73705L10.2471 4.73L10.3231 4.75301L10.3207 4.76006ZM10.1153 4.75304L10.1837 4.73003L10.1864 4.73701L10.1179 4.76002L10.1153 4.75304Z" fill="black"/>
<path d="M9.57676 4.53409H9.63107H9.57676ZM9.57676 4.58523H9.46814H9.57676ZM9.57676 4.6875H9.46814H9.52245H9.57676ZM9.57676 4.99432C9.57676 4.94318 9.52245 4.99432 9.52245 4.99432H9.57676ZM9.57676 4.99432C9.57676 4.99432 9.52245 5.09659 9.57676 5.09659V5.04545V4.99432ZM10.5 5.14773C10.5 5.14773 10.3914 5.19886 10.4457 5.25V5.14773H10.5ZM10.5 5.19886V5.30114V5.25V5.19886ZM10.5 5.09659L10.4457 5.14773H10.5V5.09659ZM11.0975 5.19886V5.25V5.19886ZM11.0975 5.14773C11.0975 5.14773 11.0431 5.14773 11.0975 5.14773V5.14773ZM11.0975 5.25V5.30114H11.1518V5.25H11.0975ZM10.0112 4.84091V4.99432V4.84091Z" fill="#0051BA"/>
</g>
</g>
<defs>
<clipPath id="clip0_6947_99059">
<rect width="21" height="15" fill="white"/>
</clipPath>
<clipPath id="clip1_6947_99059">
<rect width="21.7241" height="15.3409" fill="white" transform="translate(-0.362061 -0.170455)"/>
</clipPath>
</defs>
</svg>
