<svg width="21" height="15" viewBox="0 0 21 15" fill="none" xmlns="http://www.w3.org/2000/svg">
<g clip-path="url(#clip0_6947_99068)">
<g clip-path="url(#clip1_6947_99068)">
<path fill-rule="evenodd" clip-rule="evenodd" d="M-1.24329 -0.164463H22.229V15.1555H-1.24329V-0.164463Z" fill="#FFE900"/>
<path fill-rule="evenodd" clip-rule="evenodd" d="M-1.25604 -0.164463L-1.23058 10.8798L17.0355 -0.170456L-1.25604 -0.164463V-0.164463Z" fill="#35A100"/>
<path fill-rule="evenodd" clip-rule="evenodd" d="M22.2576 15.1555L22.213 3.67376L3.78784 15.1645L22.2576 15.1555Z" fill="#C70000"/>
<path fill-rule="evenodd" clip-rule="evenodd" d="M-1.24652 11.7128L-1.23061 15.1705L2.75675 15.1645L22.2225 2.87675L22.2035 -0.128508L18.2638 -0.164463L-1.24334 11.7128H-1.24652Z" fill="black"/>
<path fill-rule="evenodd" clip-rule="evenodd" d="M14.2924 4.52171L13.9806 3.25728L15.0402 4.06627L16.2495 3.32919L15.6958 4.56665L16.7587 5.37564L15.3521 5.3307L14.8016 6.56816L14.4865 5.30373L13.0832 5.25879L14.2924 4.52171ZM5.53488 9.88503L5.21983 8.61761L6.27952 9.4266L7.48878 8.68952L6.93506 9.92698L7.99794 10.736L6.59456 10.691L6.04085 11.9285L5.72899 10.6641L4.32562 10.6191L5.53488 9.88503Z" fill="white"/>
</g>
</g>
<defs>
<clipPath id="clip0_6947_99068">
<rect width="21" height="15" fill="white"/>
</clipPath>
<clipPath id="clip1_6947_99068">
<rect width="21.7241" height="15.3409" fill="white" transform="translate(-0.362061 -0.170456)"/>
</clipPath>
</defs>
</svg>
