<svg width="21" height="15" viewBox="0 0 21 15" fill="none" xmlns="http://www.w3.org/2000/svg">
<g clip-path="url(#clip0_6947_99062)">
<g clip-path="url(#clip1_6947_99062)">
<path d="M-0.362061 -0.170455H21.3621V15.1705H-0.362061V-0.170455Z" fill="#00785E"/>
<path d="M9.6514 3.30362L11.0261 4.24645L10.5 2.72195L9.97387 4.24645L11.352 3.30362H9.6514Z" fill="#FBD116"/>
<path d="M10.5 10.4276H7.02075C6.9769 10.3857 6.9339 10.3431 6.89176 10.2997H10.5C10.514 10.3044 10.5261 10.313 10.5346 10.3245C10.5432 10.336 10.5477 10.3496 10.5475 10.3636C10.5475 10.3892 10.5306 10.418 10.5 10.4276ZM10.5 9.4272C10.5393 9.35196 10.5535 9.26729 10.5407 9.1843C10.5342 9.14202 10.5204 9.10101 10.5 9.06286C10.1873 9.34309 9.80959 9.55098 9.39682 9.6701C9.13821 9.7441 8.86943 9.78179 8.59914 9.78196H6.45728C6.51978 9.86928 6.58545 9.95455 6.65415 10.0376H8.72473C9.40361 10.0376 10.0214 9.80753 10.5 9.4272V9.4272ZM6.77974 8.63778C6.67413 8.6749 6.56308 8.69646 6.45049 8.7017C6.70845 8.97782 7.02593 9.19901 7.38179 9.35056C7.73765 9.50211 8.12372 9.58053 8.51428 9.58061C8.88544 9.58069 9.25276 9.50993 9.59406 9.3726C9.93535 9.23527 10.2435 9.03423 10.5 8.78161C10.5954 8.1591 10.6464 7.53127 10.6527 6.90234C10.6609 6.17848 10.6099 5.45511 10.5 4.73864C10.276 4.9304 9.85507 5.33629 9.65819 5.96271C9.58435 6.20258 9.54777 6.45126 9.54957 6.70099C9.54946 7.21324 9.71135 7.71392 10.0146 8.1392C9.64093 7.68686 9.4379 7.13023 9.43756 6.55717C9.43756 6.16087 9.5326 5.78374 9.70232 5.44815C9.58419 5.33026 9.49701 5.18797 9.44774 5.03267C9.21302 5.42242 9.09018 5.86303 9.09133 6.31108C9.09133 6.88636 9.2916 7.4201 9.63104 7.84837C9.31177 7.53247 8.92398 7.28504 8.49405 7.12289C8.06412 6.96075 7.60214 6.88771 7.13955 6.90874C7.23334 6.9903 7.31143 7.08654 7.37037 7.19318C7.80577 7.19367 8.23655 7.27718 8.63675 7.43867C9.03695 7.60016 9.39827 7.83629 9.69892 8.13281C9.11862 7.67473 8.38561 7.42355 7.62834 7.4233C7.20077 7.42253 6.77731 7.50184 6.3826 7.6566C6.59428 8.18355 6.98233 8.63132 7.48814 8.93229C7.99395 9.23326 8.59004 9.37108 9.18637 9.32493C9.02683 9.3505 8.8639 9.36648 8.69758 9.36648C7.98298 9.36768 7.29609 9.10623 6.78314 8.63778H6.77974ZM10.5 11.4759H8.69758C9.27124 11.69 9.8829 11.7995 10.5 11.7987C10.528 11.7494 10.5431 11.6947 10.5441 11.6388C10.5436 11.582 10.5285 11.526 10.5 11.4759V11.4759ZM10.5 10.6928H7.32285C7.40864 10.7617 7.49695 10.8278 7.58761 10.891H10.5C10.5275 10.8644 10.5432 10.829 10.5441 10.7919C10.5448 10.7734 10.5413 10.7549 10.5337 10.7378C10.526 10.7207 10.5146 10.7053 10.5 10.6928ZM10.5 11.0923H7.8965C8.0541 11.1863 8.2173 11.2717 8.38529 11.348H10.5C10.5272 11.308 10.5414 11.2613 10.5407 11.2138C10.539 11.1706 10.525 11.1286 10.5 11.0923V11.0923Z" fill="white"/>
<path d="M6.4437 5.41619L7.30587 6.17045L7.07845 5.08381L6.58287 6.08736L7.61137 5.55043L6.4437 5.41619ZM7.69623 4.39347L8.87408 4.41264L7.93383 3.74148L8.27667 4.80575L8.66024 3.75426L7.69623 4.39347Z" fill="#FBD116"/>
</g>
</g>
<defs>
<clipPath id="clip0_6947_99062">
<rect width="21" height="15" fill="white"/>
</clipPath>
<clipPath id="clip1_6947_99062">
<rect width="21.7241" height="15.3409" fill="white" transform="translate(-0.362061 -0.170455)"/>
</clipPath>
</defs>
</svg>
