<svg width="21" height="15" viewBox="0 0 21 15" fill="none" xmlns="http://www.w3.org/2000/svg">
<g clip-path="url(#clip0_6947_99067)">
<g clip-path="url(#clip1_6947_99067)">
<path d="M-0.362061 -0.170455H21.3621V15.1705H-0.362061V-0.170455Z" fill="#012169"/>
<path d="M12.703 3.37713H19.6785L19.6683 8.05291C19.726 9.92898 18.4836 11.0955 16.1958 11.6229C14.5699 11.2393 12.6996 10.4563 12.6928 8.10724L12.703 3.37713V3.37713Z" fill="white"/>
<path d="M12.8557 3.51776H19.5223L19.5155 7.99858C19.5698 9.79794 18.3818 10.9134 16.1958 11.4183C14.6412 11.054 12.8523 10.2997 12.8489 8.04972L12.8557 3.51776V3.51776Z" fill="#00A2BD"/>
<path fill-rule="evenodd" clip-rule="evenodd" d="M12.8862 3.54652L12.8795 8.04968C12.8811 9.1663 13.3253 9.90937 13.9605 10.4193C14.595 10.9286 15.4221 11.2068 16.1958 11.3887C17.2818 11.1369 18.1167 10.7344 18.6735 10.1742C19.2308 9.61344 19.5119 8.89237 19.485 7.9994L19.485 7.99897L19.4917 3.54652H12.8862ZM12.8557 3.51776V3.48899H19.5529L19.5461 7.99818C19.5733 8.90437 19.2876 9.64055 18.7181 10.2135C18.1492 10.7859 17.2995 11.193 16.2031 11.4463L16.1957 11.448L16.1884 11.4462C15.4096 11.2637 14.5682 10.9827 13.9208 10.463C13.272 9.94219 12.8201 9.18313 12.8184 8.04976V8.04968L12.8251 3.51771L12.8557 3.51776Z" fill="black"/>
<path d="M19.4714 8.52912C19.227 10.2454 17.8217 10.9964 16.1958 11.396C14.7532 11.0316 13.202 10.4499 12.9033 8.53551L19.4714 8.52912Z" fill="#A53D08"/>
<path d="M15.931 4.35192L15.9209 3.78942L16.3961 3.79261L16.3995 4.35192H17.6961L17.6995 4.78977L16.3995 4.79616L16.3893 9.95455L15.9276 9.95774L15.9209 4.78977L14.631 4.79616V4.34872L15.931 4.35192Z" fill="black"/>
<path fill-rule="evenodd" clip-rule="evenodd" d="M14.8788 8.74006L16.0668 9.90021C16.4776 9.47514 16.1924 7.88672 15.6527 7.59588C15.5882 7.78445 15.4796 8.01136 15.3608 8.08168C15.1062 8.24787 14.4749 8.43963 14.6853 8.56108C14.7328 8.50036 14.8584 8.44283 14.9195 8.58026C14.9874 8.80078 14.6548 8.81357 14.6548 8.81357C14.6548 8.81357 14.4443 8.788 14.407 8.58984C14.373 8.3853 14.7227 8.19993 14.7532 8.18714C14.7804 8.17756 15.2386 8.0593 15.3167 7.67898C15.4151 7.30185 15.5136 7.35937 15.5305 7.35298C16.1313 7.40731 16.5217 8.41726 16.5455 9.12678C16.5658 9.83629 16.24 10.3093 16.1789 10.3413C16.1211 10.37 14.7532 8.81037 14.7532 8.81037L14.8822 8.74006H14.8788Z" fill="#FF9A08"/>
<path fill-rule="evenodd" clip-rule="evenodd" d="M15.5285 7.33996L15.5318 7.34026C15.686 7.3542 15.8258 7.42941 15.9488 7.54421C16.0717 7.65897 16.1784 7.81386 16.2666 7.9887C16.4431 8.33832 16.5471 8.76992 16.559 9.12637L16.559 9.12643C16.5692 9.48311 16.4925 9.78042 16.4053 9.99271C16.3618 10.0988 16.3156 10.1838 16.2763 10.2444C16.2567 10.2747 16.2387 10.2991 16.2236 10.317C16.216 10.3259 16.209 10.3334 16.2028 10.3392C16.1968 10.3449 16.1909 10.3496 16.1854 10.3524L16.1852 10.3526C16.1802 10.355 16.1753 10.3546 16.1723 10.354C16.1691 10.3533 16.166 10.3521 16.1634 10.3507C16.158 10.3481 16.1517 10.3439 16.1449 10.3388C16.1311 10.3285 16.113 10.3129 16.0915 10.2928C16.0482 10.2527 15.9899 10.1939 15.9216 10.1228C15.7852 9.98045 15.6086 9.78807 15.434 9.59489C15.2594 9.40169 15.0866 9.20759 14.9574 9.06181C14.8928 8.98891 14.8391 8.92809 14.8016 8.88549C14.7829 8.86419 14.7681 8.84745 14.7581 8.83603L14.7427 8.81853C14.7427 8.81852 14.7427 8.81851 14.7504 8.81256L14.7427 8.81853L14.7396 8.81495C14.7283 8.81735 14.7176 8.81924 14.7079 8.82074C14.6924 8.82312 14.6794 8.82451 14.6702 8.82532C14.6655 8.82572 14.6619 8.82597 14.6593 8.82613C14.6581 8.8262 14.6571 8.82625 14.6564 8.82629L14.6556 8.82633L14.6554 8.82633L14.6553 8.82634C14.6553 8.82634 14.6553 8.82634 14.6547 8.81357C14.653 8.82624 14.653 8.82624 14.653 8.82624L14.6529 8.82623L14.6528 8.82621L14.6522 8.82614C14.6517 8.82607 14.6511 8.82598 14.6502 8.82585C14.6485 8.82559 14.6461 8.82519 14.643 8.82462C14.6368 8.82347 14.6281 8.82162 14.6175 8.81876C14.5964 8.81306 14.5679 8.8033 14.5381 8.78708C14.4782 8.75452 14.4131 8.69574 14.3936 8.59208L14.3935 8.59182C14.3844 8.53691 14.4012 8.48399 14.4307 8.43602C14.4601 8.3881 14.5027 8.34433 14.5468 8.30707C14.6348 8.23269 14.7311 8.18241 14.7477 8.17546L14.748 8.17531L14.7484 8.17517C14.7501 8.17457 14.7533 8.1736 14.7577 8.17224C14.7911 8.16203 14.8971 8.1296 15.0084 8.06137C15.1344 7.98412 15.2652 7.86204 15.3033 7.67655L15.3034 7.67624L15.3035 7.67593C15.3528 7.48702 15.4027 7.40382 15.445 7.36751C15.4666 7.34893 15.4862 7.34258 15.5022 7.34088C15.51 7.34005 15.5166 7.34036 15.5212 7.34059L15.5213 7.34059C15.5237 7.34071 15.5251 7.34078 15.5262 7.34077C15.5263 7.34077 15.5263 7.34077 15.5264 7.34077L15.5285 7.33996ZM15.5269 7.34074C15.5269 7.34074 15.5269 7.34074 15.5268 7.34074ZM14.6547 8.81357L14.653 8.82624L14.6541 8.82638L14.6553 8.82634L14.6547 8.81357ZM14.6554 8.80074C14.6559 8.80071 14.6567 8.80067 14.6576 8.80061C14.6599 8.80047 14.6633 8.80023 14.6677 8.79986C14.6764 8.7991 14.6888 8.79777 14.7035 8.79551C14.7299 8.79142 14.7634 8.78435 14.796 8.77225L14.8582 8.73836L14.8468 8.72727H14.8741C14.8822 8.71987 14.8893 8.71177 14.8953 8.70291C14.9145 8.67434 14.9224 8.63628 14.9067 8.58452C14.8922 8.55226 14.8745 8.5326 14.8564 8.52144C14.8382 8.51028 14.8186 8.50696 14.7988 8.50906C14.7585 8.51336 14.7183 8.5404 14.6962 8.56866L14.6888 8.57811L14.6782 8.57198C14.6502 8.55584 14.6331 8.53674 14.63 8.51408C14.6269 8.49168 14.6381 8.47004 14.6559 8.45009C14.6913 8.41033 14.7607 8.36877 14.8421 8.32693C14.9019 8.29624 14.9695 8.26475 15.0372 8.23324C15.0623 8.22155 15.0874 8.20985 15.1122 8.19819C15.2039 8.15492 15.2903 8.11213 15.353 8.07117L15.3533 8.07101L15.3536 8.07085C15.4097 8.0376 15.4652 7.96593 15.5151 7.87714C15.5647 7.7889 15.6077 7.68576 15.6398 7.59196L15.6449 7.57695L15.6594 7.58478C15.7981 7.65949 15.9186 7.81625 16.0152 8.0135C16.112 8.21119 16.1857 8.45141 16.2296 8.69558C16.2734 8.93974 16.2875 9.1884 16.2648 9.403C16.2421 9.61709 16.1825 9.79946 16.0769 9.90882L16.0671 9.91891L14.8782 8.75793C14.8598 8.77175 14.839 8.78267 14.818 8.79132C14.8147 8.79271 14.8113 8.79404 14.8079 8.79532L14.7739 8.81386L14.779 8.81973C14.789 8.83114 14.8038 8.84788 14.8225 8.86917C14.86 8.91175 14.9137 8.97255 14.9782 9.04543C15.1074 9.19118 15.2801 9.3852 15.4547 9.57832C15.6293 9.77145 15.8056 9.9636 15.9418 10.1056C16.0099 10.1767 16.0679 10.235 16.1105 10.2746C16.1319 10.2945 16.1491 10.3094 16.1617 10.3188C16.1679 10.3234 16.1725 10.3263 16.1756 10.3279C16.1777 10.3264 16.1804 10.3242 16.1836 10.3211C16.1889 10.3161 16.1952 10.3095 16.2023 10.301C16.2166 10.2842 16.234 10.2608 16.2532 10.2311C16.2915 10.1719 16.337 10.0883 16.38 9.9835C16.466 9.77392 16.542 9.47999 16.5319 9.12717C16.52 8.7741 16.4169 8.34598 16.2421 7.99967C16.1547 7.82654 16.0496 7.67441 15.9296 7.56236C15.8103 7.45093 15.6768 7.37969 15.5315 7.36592C15.5296 7.36626 15.5278 7.36632 15.5266 7.36634C15.5245 7.36636 15.5222 7.36625 15.5203 7.36615L15.5198 7.36612C15.5153 7.3659 15.5107 7.36571 15.5053 7.36629C15.495 7.36738 15.4807 7.37142 15.4633 7.38639C15.4275 7.41719 15.379 7.49372 15.3299 7.68172C15.2898 7.87638 15.1526 8.0035 15.0232 8.0828C14.9082 8.15334 14.7978 8.18691 14.766 8.19659C14.7624 8.19769 14.7598 8.19848 14.7583 8.19899C14.7431 8.2055 14.6502 8.25409 14.565 8.3261C14.5221 8.36235 14.4817 8.40407 14.4542 8.44883C14.4267 8.49351 14.4125 8.54042 14.4203 8.58774C14.4382 8.68215 14.497 8.73519 14.5516 8.76494C14.5791 8.77988 14.6055 8.78891 14.625 8.79419C14.6348 8.79682 14.6428 8.79851 14.6483 8.79954C14.651 8.80005 14.6531 8.8004 14.6545 8.80061C14.6549 8.80066 14.6551 8.8007 14.6554 8.80074ZM14.9018 8.74413L16.0663 9.88134C16.1602 9.77699 16.216 9.60595 16.2378 9.40046C16.2602 9.1886 16.2463 8.94227 16.2028 8.69984C16.1592 8.45741 16.0861 8.21943 15.9905 8.02421C15.8982 7.83572 15.7858 7.68881 15.6603 7.61507C15.6285 7.7057 15.5869 7.80398 15.5391 7.8891C15.4889 7.97837 15.4308 8.05522 15.3683 8.09234C15.3037 8.13443 15.2158 8.17788 15.1243 8.22105C15.0993 8.23285 15.074 8.24464 15.0487 8.25639C14.9813 8.28782 14.9144 8.31895 14.8551 8.34938C14.7733 8.39144 14.7083 8.43098 14.6767 8.46653C14.6609 8.48423 14.6553 8.49879 14.6569 8.51078C14.6583 8.52077 14.6652 8.53202 14.6825 8.54394C14.7089 8.51497 14.751 8.48843 14.7958 8.48366C14.821 8.48097 14.8472 8.48523 14.8712 8.50004C14.8952 8.51477 14.916 8.53927 14.932 8.57532L14.9323 8.57599L14.9325 8.5767C14.9504 8.63484 14.9423 8.68086 14.9183 8.71658C14.9158 8.72027 14.9131 8.72383 14.9104 8.72727H14.9327L14.9018 8.74413Z" fill="black"/>
<path d="M15.7478 7.6598L15.7546 9.7532ZM15.612 7.70135L15.6222 9.59979ZM15.4694 7.97621L15.4762 9.48473ZM15.3506 8.08168L15.3574 9.33132ZM15.225 8.1392V9.19389ZM15.0893 8.2223V9.05646ZM14.9705 8.28942V8.92862Z" fill="#FF9A08"/>
<path fill-rule="evenodd" clip-rule="evenodd" d="M15.741 9.75323L15.7342 7.65984L15.7613 7.65976L15.7681 9.75316L15.741 9.75323ZM15.6086 9.59985L15.5984 7.70141L15.6255 7.70128L15.6357 9.59972L15.6086 9.59985ZM15.4626 9.48478L15.4558 7.97626L15.483 7.97615L15.4898 9.48468L15.4626 9.48478ZM15.3438 9.33139L15.337 8.08174L15.3642 8.08161L15.371 9.33126L15.3438 9.33139ZM15.2114 9.19389V8.1392H15.2386V9.19389H15.2114ZM15.0757 9.05646V8.2223H15.1028V9.05646H15.0757ZM14.9568 8.92862V8.28942H14.984V8.92862H14.9568Z" fill="black"/>
<path fill-rule="evenodd" clip-rule="evenodd" d="M14.8529 8.86466C14.8586 8.86002 14.8671 8.86056 14.8721 8.86588L16.0941 10.1826C16.099 10.188 16.0984 10.196 16.0928 10.2007C16.0871 10.2053 16.0785 10.2048 16.0736 10.1995L14.8516 8.8827C14.8467 8.87738 14.8473 8.86931 14.8529 8.86466Z" fill="#FFDF00"/>
<path fill-rule="evenodd" clip-rule="evenodd" d="M16.1347 8.02241C16.147 8.01711 16.1615 8.02217 16.1671 8.03372L16.1449 8.04332C16.1671 8.03372 16.1671 8.0337 16.1671 8.03372L16.1673 8.03398L16.1676 8.03466L16.1688 8.03724C16.1699 8.0395 16.1715 8.04284 16.1735 8.04722C16.1775 8.05596 16.1833 8.06884 16.1905 8.08554C16.2048 8.11892 16.2247 8.16755 16.247 8.22879C16.2914 8.35125 16.3452 8.52432 16.3828 8.72691C16.458 9.13161 16.4688 9.65678 16.2073 10.1313C16.2011 10.1426 16.1864 10.147 16.1744 10.1412C16.1624 10.1353 16.1577 10.1214 16.164 10.1101C16.4184 9.64826 16.4089 9.13472 16.3347 8.73483C16.2976 8.53512 16.2445 8.36441 16.2007 8.24367C16.1788 8.18332 16.1592 8.13549 16.1452 8.10282C16.1381 8.08649 16.1325 8.07394 16.1286 8.06552C16.1267 8.0613 16.1252 8.05812 16.1242 8.05601L16.1231 8.05365L16.1228 8.05308L16.1227 8.05295C16.1227 8.05295 16.1227 8.05295 16.1227 8.05295M16.1347 8.02241C16.1224 8.02772 16.1171 8.04141 16.1227 8.05295ZM14.6427 8.32551C14.6515 8.33513 14.6504 8.34965 14.6402 8.35796L14.6401 8.35803L14.6397 8.35835C14.6394 8.35865 14.6388 8.35911 14.6381 8.35974C14.6366 8.36099 14.6344 8.36289 14.6316 8.36537C14.626 8.37034 14.6181 8.37762 14.6089 8.38674C14.5904 8.40507 14.5674 8.43044 14.5482 8.45911C14.5288 8.48801 14.5143 8.5187 14.5111 8.54791C14.5079 8.57609 14.515 8.60337 14.5401 8.62835C14.5494 8.63758 14.549 8.65214 14.5392 8.66088C14.5294 8.66962 14.5139 8.66923 14.5047 8.66C14.4687 8.62426 14.458 8.58322 14.4624 8.54309C14.4668 8.50398 14.4855 8.46636 14.5068 8.43453C14.5283 8.40248 14.5536 8.37471 14.5734 8.35509C14.5833 8.34524 14.5919 8.33734 14.5981 8.33186C14.6012 8.32913 14.6037 8.32699 14.6054 8.32552C14.6063 8.32478 14.607 8.32421 14.6074 8.32381L14.608 8.32334L14.6082 8.32321L14.6082 8.32316C14.6082 8.32316 14.6083 8.32314 14.6242 8.34055L14.6083 8.32314C14.6185 8.31483 14.6339 8.31589 14.6427 8.32551ZM14.7421 8.6397L14.7421 8.63961L14.7424 8.639C14.7426 8.63843 14.743 8.63754 14.7435 8.63639C14.7446 8.63408 14.7462 8.63077 14.7483 8.6269C14.7525 8.619 14.7583 8.60945 14.7651 8.60138C14.7723 8.59285 14.7786 8.5885 14.7828 8.58715C14.7848 8.58655 14.788 8.5856 14.7949 8.59125C14.8051 8.59958 14.8205 8.59854 14.8294 8.58893C14.8382 8.57933 14.8371 8.5648 14.8269 8.55647C14.8084 8.54135 14.7874 8.53721 14.7674 8.54349C14.7497 8.54904 14.7362 8.56167 14.7269 8.57272C14.7172 8.58422 14.7096 8.59684 14.7046 8.60622C14.7021 8.61099 14.7001 8.61509 14.6987 8.61804C14.698 8.61952 14.6975 8.62072 14.6971 8.62158L14.6967 8.62261L14.6965 8.62292L14.6965 8.62302L14.6965 8.62306C14.6965 8.62306 14.6965 8.62308 14.7193 8.63139L14.6965 8.62306C14.6916 8.63491 14.6979 8.64826 14.7104 8.65285C14.723 8.65744 14.7372 8.65154 14.7421 8.6397Z" fill="#FFDF00"/>
<path d="M16.4063 5.43537C16.4844 5.37145 16.5285 5.3299 16.5794 5.33949C16.6303 5.34588 16.6982 5.33949 16.7491 5.3267C16.8827 5.29749 17.0211 5.29315 17.1564 5.31392C17.1904 5.32031 17.2413 5.33629 17.3126 5.39382C17.3839 5.45135 17.4891 5.55362 17.4552 5.82848C17.4212 6.10334 17.4314 6.22159 17.4144 6.3782C17.3873 6.64986 17.3228 6.87358 17.2108 6.8576C17.3635 7.11328 17.3805 7.337 17.4823 7.51278C17.5841 7.68856 17.6452 8.04972 17.6079 8.43963C17.5672 8.83274 17.4585 9.70845 17.7878 10.2997C17.7335 10.3349 17.6011 10.2997 17.4823 10.1815C17.3635 10.0632 17.3126 10.0664 17.2175 10.1367C16.9188 10.3509 16.6405 10.6097 16.2298 10.3509C16.1347 10.2933 16.1076 10.223 16.1755 10.0408C16.3452 9.59339 16.43 8.97337 16.4029 8.68572V5.43537H16.4063Z" fill="#008021"/>
<path fill-rule="evenodd" clip-rule="evenodd" d="M16.7503 5.33136C16.6989 5.34425 16.6304 5.35073 16.5787 5.34424L16.5784 5.3442C16.5548 5.33977 16.5325 5.34697 16.5058 5.36384C16.4839 5.37773 16.4597 5.3977 16.4301 5.42212C16.4235 5.42753 16.4167 5.43316 16.4096 5.43899L16.4082 5.44016H16.4079V8.68551C16.4215 8.82989 16.407 9.05714 16.368 9.30406C16.3289 9.55116 16.2652 9.81834 16.1802 10.0424C16.1464 10.1333 16.1366 10.1954 16.1465 10.2416C16.1563 10.2874 16.1856 10.3185 16.2325 10.3468L16.2326 10.3469C16.3347 10.4112 16.4283 10.4433 16.5159 10.452C16.6034 10.4606 16.6852 10.446 16.7638 10.4167C16.8933 10.3683 17.0133 10.2801 17.1352 10.1906C17.1615 10.1713 17.1878 10.152 17.2144 10.1329C17.2619 10.0978 17.2999 10.0781 17.3417 10.0836C17.3831 10.0891 17.4266 10.1191 17.486 10.1782C17.5449 10.2368 17.6071 10.2747 17.661 10.2936C17.7126 10.3117 17.7555 10.312 17.7811 10.298C17.6176 10.0021 17.5629 9.63623 17.554 9.29548C17.5458 8.98063 17.5767 8.68677 17.5976 8.48875C17.5994 8.47148 17.6012 8.45495 17.6028 8.43919C17.6214 8.24458 17.6155 8.05718 17.5922 7.89656C17.5689 7.73584 17.5283 7.60225 17.4778 7.51508C17.4322 7.43644 17.4036 7.34827 17.3725 7.2526C17.3686 7.2407 17.3647 7.22869 17.3607 7.21657C17.3247 7.10678 17.2824 6.98733 17.2063 6.85995L17.2012 6.85139L17.2115 6.85286C17.2373 6.85654 17.2608 6.84658 17.2822 6.82441C17.3038 6.80212 17.3229 6.76784 17.3396 6.72414C17.3729 6.63682 17.3958 6.51344 17.4093 6.37775L17.4093 6.37771C17.4162 6.31443 17.4186 6.25746 17.4213 6.19367C17.4219 6.1787 17.4226 6.16336 17.4233 6.14748C17.4271 6.0639 17.4331 5.9655 17.4501 5.82793C17.467 5.69114 17.4492 5.59774 17.4186 5.53156C17.3881 5.46541 17.3446 5.42602 17.3092 5.39746C17.2387 5.3405 17.1886 5.32488 17.1555 5.31864C17.0208 5.29799 16.8832 5.30231 16.7503 5.33136ZM16.4043 5.43057C16.4108 5.42526 16.4171 5.42009 16.4232 5.41508C16.4528 5.39064 16.4776 5.37014 16.5002 5.35588C16.5277 5.33844 16.5529 5.32966 16.5802 5.33476C16.6303 5.34101 16.6974 5.33472 16.7478 5.32207L16.7479 5.32203C16.8822 5.29268 17.0212 5.28832 17.1572 5.30919L17.1574 5.30922C17.1922 5.31577 17.2439 5.33214 17.3159 5.39018C17.3518 5.41915 17.3965 5.45966 17.428 5.52774C17.4594 5.5958 17.4772 5.69096 17.4602 5.82903C17.4432 5.96631 17.4373 6.06447 17.4335 6.14789C17.4328 6.16371 17.4321 6.179 17.4315 6.19394C17.4288 6.25775 17.4263 6.31507 17.4195 6.37865C17.4059 6.51462 17.3829 6.63893 17.3492 6.72738C17.3323 6.77158 17.3126 6.80721 17.2897 6.83086C17.2693 6.852 17.246 6.86384 17.2199 6.86318C17.2936 6.9885 17.3351 7.10607 17.3705 7.21374C17.3744 7.22588 17.3783 7.23788 17.3822 7.24976C17.4134 7.34558 17.4417 7.43276 17.4867 7.51049C17.5381 7.5991 17.5789 7.73398 17.6023 7.89526C17.6257 8.05663 17.6316 8.24475 17.6129 8.44006L17.6129 8.4401C17.6113 8.45586 17.6096 8.4724 17.6077 8.48967C17.5869 8.6877 17.556 8.98102 17.5642 9.29525C17.5731 9.63694 17.6282 10.0028 17.7923 10.2975L17.7944 10.3013L17.7907 10.3037C17.7614 10.3226 17.7126 10.322 17.6574 10.3026C17.6019 10.2831 17.5384 10.2443 17.4786 10.1848C17.4192 10.1256 17.3778 10.0981 17.3403 10.0931C17.3031 10.0882 17.2681 10.1054 17.2207 10.1405L17.2206 10.1405C17.1943 10.1594 17.1681 10.1786 17.1419 10.1979C17.02 10.2874 16.8985 10.3767 16.7675 10.4256C16.6878 10.4554 16.6043 10.4704 16.5148 10.4615C16.4253 10.4526 16.3302 10.4199 16.2269 10.3549C16.1788 10.3257 16.147 10.2928 16.1365 10.2435C16.126 10.1947 16.1366 10.1305 16.1706 10.0393C16.2553 9.8159 16.3189 9.54933 16.3579 9.30265C16.3969 9.05591 16.4113 8.82942 16.3978 8.68615L16.3977 8.68572L16.3978 5.43057H16.4043Z" fill="black"/>
<path d="M16.688 5.16051C16.715 5.23092 16.7138 5.30822 16.6846 5.37784C16.6506 5.45455 16.6404 5.53764 16.7015 5.64631C16.7932 5.51847 16.9256 5.54403 17.007 5.47372C17.0817 5.40021 17.0987 5.3299 17.1564 5.31392C17.0987 5.26598 17.0104 5.21165 17.0274 5.07422C17.0478 4.93359 17.2548 4.81854 17.0681 4.6076C17.0402 4.57383 17.0038 4.5472 16.9621 4.53014C16.9204 4.51308 16.8749 4.50614 16.8296 4.50995C16.7843 4.51377 16.7408 4.52822 16.703 4.55198C16.6652 4.57574 16.6344 4.60805 16.6133 4.64595C16.6031 4.67152 16.6201 4.72266 16.5895 4.75462C16.5692 4.78019 16.5454 4.80256 16.5182 4.81854C16.5013 4.83132 16.4911 4.8473 16.5115 4.86967C16.5182 4.87926 16.5318 4.87926 16.5454 4.88246L16.5182 4.9304C16.5081 4.93999 16.5115 4.94957 16.525 4.96236C16.5081 5.00391 16.5386 5.0103 16.5182 5.04226C16.4979 5.07102 16.4775 5.10618 16.5386 5.13814C16.559 5.14773 16.6404 5.16371 16.688 5.16051V5.16051ZM15.9242 5.8956C15.8156 5.92117 15.6391 5.87642 15.5067 5.88921C15.4456 5.8956 15.3981 5.86683 15.4049 5.8125C15.4151 5.75817 15.4252 5.67188 15.4117 5.59517C15.4129 5.42994 15.4572 5.26752 15.5407 5.12216C15.6078 5.00721 15.6515 4.88148 15.6696 4.75142C15.6696 4.6907 15.6764 4.62678 15.7307 4.59162C15.7715 4.56925 15.7783 4.54688 15.7918 4.5277C15.8258 4.47976 15.8597 4.47017 15.8597 4.49574C15.8631 4.51172 15.8597 4.5277 15.8428 4.54688C15.8767 4.52131 15.9378 4.48935 15.9514 4.48296C15.965 4.47017 16.0328 4.42543 16.0362 4.47017C16.0634 4.45739 16.0838 4.45739 16.0906 4.47017C16.0973 4.48615 16.0906 4.49254 16.0804 4.50213C16.1007 4.50213 16.1211 4.5309 16.0804 4.55966C16.1041 4.55327 16.1245 4.58523 16.0872 4.61399C16.0532 4.64595 16.0057 4.66513 15.9955 4.6907C15.9819 4.71626 15.8869 4.78338 15.8495 4.79617C15.8122 4.81215 15.8088 4.83132 15.8088 4.88246C15.8088 5.45135 15.7409 5.40341 15.7409 5.54403C15.7409 5.57599 15.7307 5.61115 15.7681 5.60156C15.8088 5.58878 15.8665 5.5728 15.9242 5.5728V5.8924V5.8956ZM15.948 7.11648C16.1245 7.03338 16.3282 7.00142 16.4334 6.97585C16.5553 6.93912 16.6735 6.89205 16.7864 6.83523C16.8713 6.79368 16.9392 6.73935 16.9867 6.72337C17.0424 6.7067 17.0887 6.66992 17.1157 6.62109C17.2494 6.40881 17.3295 6.17043 17.3499 5.92436C17.3499 5.79652 17.3159 5.6495 17.1802 5.75178C17.0417 5.86419 16.9384 6.01005 16.8814 6.17365C16.8271 6.3782 16.7796 6.42614 16.7694 6.46449C16.7559 6.50604 16.7151 6.50604 16.6608 6.51563C16.4893 6.54078 16.3291 6.61177 16.1992 6.72017C16.0451 6.82751 15.8842 6.92571 15.7172 7.01421C15.5916 7.08132 15.5678 7.08771 15.5407 7.14205C15.5135 7.19318 15.4863 7.23793 15.466 7.2571C15.4388 7.28267 15.432 7.30824 15.4388 7.3402C15.4422 7.36577 15.432 7.47443 15.4286 7.51278C15.4286 7.55114 15.4388 7.55753 15.4524 7.56072C15.466 7.56072 15.4863 7.55433 15.4965 7.50959C15.4897 7.55433 15.5542 7.54155 15.5576 7.50639C15.5576 7.55433 15.6255 7.52557 15.6255 7.48082C15.6255 7.51278 15.6832 7.49041 15.6832 7.48082C15.6968 7.43928 15.707 7.40092 15.724 7.37216C15.7443 7.32742 15.7681 7.26989 15.8156 7.24432C15.8665 7.20597 15.8428 7.16761 15.948 7.11648V7.11648ZM17.2175 10.1367C17.2277 10.1783 17.2514 10.223 17.2582 10.2518C17.265 10.2773 17.2514 10.2869 17.2446 10.3029C17.199 10.392 17.167 10.4867 17.1496 10.5842C17.1496 10.6225 17.1157 10.6609 17.1055 10.6864C17.0885 10.712 17.0953 10.7344 17.1326 10.7599C17.1462 10.7695 17.2005 10.7536 17.2039 10.728C17.2277 10.7472 17.2582 10.7408 17.2752 10.712C17.2956 10.728 17.3261 10.7184 17.3431 10.6896C17.3601 10.6992 17.3872 10.68 17.3974 10.6641C17.4245 10.6768 17.4517 10.6641 17.4517 10.6129C17.4517 10.6001 17.4619 10.581 17.4687 10.5714C17.4755 10.5586 17.4789 10.5362 17.4789 10.517C17.4789 10.4947 17.489 10.4531 17.5094 10.4276C17.5298 10.3956 17.5603 10.3477 17.5467 10.2997C17.5332 10.255 17.5128 10.2582 17.4958 10.1974C17.4517 10.1527 17.394 10.0952 17.3329 10.0888C17.2718 10.0888 17.2379 10.1239 17.2175 10.1367V10.1367ZM16.1007 10.4531C16.1584 10.5043 16.2806 10.5043 16.3655 10.4212C16.3349 10.4084 16.2637 10.3764 16.2365 10.3572C16.1986 10.3976 16.1524 10.4302 16.1007 10.4531V10.4531Z" fill="#FFE1CF"/>
<path fill-rule="evenodd" clip-rule="evenodd" d="M15.9996 4.45974C15.9813 4.46664 15.9615 4.48061 15.9552 4.48657L15.9546 4.48716L15.9538 4.48753C15.9404 4.49386 15.8797 4.52563 15.8462 4.55087L15.8386 4.5436C15.8547 4.52544 15.8574 4.51099 15.8544 4.49674L15.8543 4.49625V4.49574C15.8543 4.49025 15.8525 4.48833 15.8513 4.48767C15.8497 4.48687 15.8464 4.4865 15.8407 4.48885C15.8293 4.49347 15.8131 4.5069 15.7964 4.53054C15.7938 4.53421 15.7914 4.53811 15.7889 4.54218C15.7789 4.55845 15.7672 4.57745 15.7337 4.59594C15.6821 4.62945 15.6751 4.69056 15.6751 4.75142V4.75175L15.675 4.75209C15.6568 4.88277 15.6129 5.0091 15.5454 5.12461C15.4625 5.2691 15.4184 5.43053 15.4171 5.59477C15.4307 5.67215 15.4204 5.7588 15.4103 5.81324C15.4071 5.83865 15.4166 5.85754 15.4336 5.86953C15.4509 5.88172 15.4765 5.88722 15.5061 5.88412L15.5062 5.88412C15.5669 5.87825 15.6368 5.88438 15.7045 5.89033C15.7113 5.89093 15.7181 5.89152 15.7249 5.8921C15.7974 5.89835 15.8661 5.90293 15.9188 5.89156V5.57796C15.8638 5.57891 15.8092 5.59406 15.7698 5.60641L15.7695 5.6065C15.7596 5.60904 15.7515 5.60901 15.7453 5.60549C15.739 5.60191 15.7363 5.59562 15.7351 5.58925C15.734 5.58285 15.7341 5.57525 15.7345 5.56762C15.7346 5.56545 15.7347 5.56328 15.7348 5.5611C15.7352 5.55541 15.7355 5.5497 15.7355 5.54403C15.7355 5.5084 15.7398 5.48461 15.7463 5.46011C15.7484 5.45198 15.7507 5.44387 15.7532 5.43527C15.7583 5.41785 15.7639 5.39843 15.7696 5.3728C15.7864 5.29659 15.8034 5.16675 15.8034 4.88246C15.8034 4.85708 15.8042 4.8385 15.8101 4.82425C15.8163 4.80942 15.8278 4.79983 15.8473 4.79151L15.8477 4.79134C15.8655 4.78524 15.898 4.76572 15.9281 4.74415C15.9431 4.73344 15.9573 4.72237 15.9685 4.71244C15.9798 4.70247 15.9875 4.69412 15.9905 4.68863C15.9935 4.68135 15.9989 4.67483 16.0056 4.66876C16.0123 4.6626 16.0205 4.65663 16.0292 4.65061C16.0324 4.6484 16.0357 4.64617 16.0391 4.64392C16.054 4.6338 16.0697 4.62315 16.0833 4.61038L16.0835 4.6102L16.0837 4.61003C16.1013 4.59649 16.104 4.58329 16.1015 4.57509C16.0988 4.56678 16.0907 4.56221 16.0819 4.56458L16.0771 4.55557C16.0965 4.54187 16.0999 4.52931 16.098 4.52122C16.096 4.51274 16.088 4.50724 16.0804 4.50724H16.0673L16.0765 4.49851C16.0818 4.49351 16.0852 4.49025 16.0868 4.48658C16.0882 4.48341 16.0885 4.47932 16.0856 4.47228C16.0834 4.46824 16.0789 4.4657 16.071 4.4657C16.0629 4.4657 16.0519 4.46853 16.0387 4.47474L16.0314 4.47817L16.0308 4.47053C16.0304 4.46554 16.0292 4.4623 16.0277 4.46024C16.0263 4.45826 16.0244 4.45706 16.022 4.45641C16.0167 4.455 16.009 4.45623 15.9996 4.45974ZM16.0405 4.46265C16.0396 4.45954 16.0384 4.4568 16.0367 4.45446C16.0337 4.45037 16.0296 4.44783 16.0249 4.44658C16.0161 4.44419 16.0054 4.44656 15.9956 4.45024C15.9763 4.45751 15.956 4.47169 15.9482 4.47875C15.9361 4.48453 15.8952 4.5059 15.862 4.52726C15.8667 4.51624 15.8673 4.50576 15.8652 4.49522C15.865 4.48814 15.8626 4.48189 15.8565 4.47874C15.8506 4.47564 15.8433 4.47661 15.8364 4.47946C15.8222 4.48523 15.8045 4.50055 15.7873 4.52486C15.7844 4.52906 15.7817 4.53329 15.7791 4.53756C15.7692 4.5536 15.7591 4.57015 15.728 4.5872L15.7277 4.58741C15.6709 4.62417 15.6642 4.69065 15.6642 4.75108C15.6461 4.88039 15.6026 5.0054 15.5359 5.1197L15.5359 5.11973C15.452 5.26583 15.4075 5.42907 15.4062 5.59513L15.4062 5.59558L15.4063 5.59601C15.4197 5.67186 15.4097 5.75748 15.3995 5.81161L15.3995 5.8119C15.3959 5.84075 15.4068 5.86336 15.4271 5.87772C15.4472 5.89189 15.4758 5.89758 15.5073 5.89429M15.7665 5.59667C15.7578 5.59888 15.7533 5.5981 15.7509 5.59674C15.7486 5.59542 15.7468 5.59272 15.7459 5.58751C15.7449 5.58233 15.745 5.57574 15.7453 5.56809C15.7454 5.56609 15.7456 5.56402 15.7457 5.56191C15.746 5.55613 15.7464 5.55 15.7464 5.54403C15.7464 5.50936 15.7505 5.4864 15.7568 5.46257C15.7588 5.45482 15.7611 5.44689 15.7636 5.43839C15.7687 5.42081 15.7745 5.40079 15.7802 5.37489C15.7973 5.29769 15.8142 5.16706 15.8142 4.88246C15.8142 4.8567 15.8152 4.84013 15.8202 4.828C15.825 4.8165 15.8338 4.80853 15.8516 4.8009C15.8712 4.79415 15.9047 4.7738 15.9347 4.75229C15.9499 4.74143 15.9644 4.73013 15.9759 4.71989C15.9873 4.70982 15.9965 4.70028 16.0004 4.69298L16.0005 4.69274L16.0006 4.69249C16.0027 4.68709 16.007 4.68172 16.0131 4.67608C16.0193 4.67046 16.027 4.66484 16.0356 4.65887C16.0387 4.65676 16.0419 4.6546 16.0451 4.6524C16.06 4.64232 16.0766 4.63113 16.0908 4.61779C16.1104 4.60261 16.1161 4.58552 16.1119 4.57219C16.1092 4.56378 16.1027 4.5574 16.0944 4.55488C16.1072 4.5425 16.1111 4.52986 16.1086 4.519C16.1064 4.50963 16.0994 4.50242 16.091 4.49907C16.0934 4.49645 16.0954 4.49365 16.0968 4.49051C16.0997 4.48412 16.0993 4.47709 16.0956 4.46827L16.0954 4.46788C16.0908 4.45924 16.0817 4.45547 16.071 4.45547C16.0622 4.45547 16.0518 4.45797 16.0405 4.46265C16.0411 4.46485 16.0415 4.46724 16.0417 4.46981M16.091 4.49907C16.0876 4.49774 16.084 4.49702 16.0804 4.49702V4.50213L16.0842 4.50575L16.0846 4.50533C16.0868 4.50331 16.089 4.50125 16.091 4.49907ZM16.0944 4.55488C16.0897 4.55343 16.0843 4.55327 16.0789 4.55474L16.0804 4.55966L16.0836 4.56375C16.0878 4.56083 16.0914 4.55786 16.0944 4.55488ZM16.0908 4.61779C16.0909 4.61773 16.0909 4.61767 16.091 4.61761L16.0872 4.61399L16.0906 4.61795C16.0907 4.6179 16.0907 4.61784 16.0908 4.61779ZM15.8516 4.8009C15.8517 4.80087 15.8517 4.80085 15.8518 4.80082L15.8495 4.79616L15.8514 4.80097C15.8515 4.80095 15.8515 4.80092 15.8516 4.8009ZM15.7665 5.59667C15.7666 5.59665 15.7666 5.59664 15.7667 5.59663L15.7681 5.60156L15.7664 5.59671C15.7664 5.5967 15.7665 5.59668 15.7665 5.59667ZM16.8291 4.50486C16.8753 4.50097 16.9217 4.50805 16.9643 4.52545C17.0067 4.54284 17.0439 4.56998 17.0724 4.60439C17.1195 4.65764 17.1421 4.70521 17.1488 4.74899C17.1555 4.7928 17.1462 4.83229 17.1305 4.86918C17.1185 4.89722 17.1027 4.92404 17.0874 4.95009C17.0826 4.95815 17.0779 4.96614 17.0734 4.97407C17.0541 5.00785 17.0377 5.0407 17.0328 5.07486C17.0245 5.14229 17.0419 5.18897 17.0683 5.22471C17.0898 5.2537 17.117 5.27551 17.1421 5.29558C17.1482 5.30049 17.1542 5.3053 17.16 5.31009L17.1674 5.31621L17.1579 5.31883C17.1311 5.32625 17.1134 5.34631 17.0926 5.37513C17.089 5.3801 17.0853 5.38532 17.0815 5.39074C17.0634 5.41639 17.0421 5.44659 17.011 5.47726L17.0107 5.4775C16.9897 5.49566 16.9655 5.50752 16.9398 5.51712C16.9243 5.52294 16.908 5.52804 16.8914 5.53319C16.8809 5.53646 16.8704 5.53975 16.8599 5.54326C16.8057 5.56146 16.7509 5.58653 16.706 5.64917L16.701 5.65623L16.6967 5.6487C16.6659 5.59376 16.6528 5.54504 16.652 5.50018C16.6511 5.45535 16.6624 5.4147 16.6795 5.37592C16.7078 5.30864 16.7094 5.23409 16.6842 5.16584C16.6603 5.16689 16.6296 5.16371 16.6022 5.15916C16.5876 5.15674 16.5739 5.15391 16.5625 5.15107C16.5512 5.14826 16.5418 5.14536 16.5362 5.14271L16.536 5.14261C16.5045 5.12613 16.4924 5.10794 16.4924 5.089C16.4924 5.07091 16.5036 5.05374 16.5136 5.03953C16.5183 5.03217 16.5199 5.02663 16.5201 5.02191C16.5203 5.01704 16.5192 5.01265 16.5177 5.00719L16.5176 5.00685C16.5161 5.00157 16.5144 4.99544 16.5142 4.98799C16.5141 4.98105 16.5152 4.97315 16.5188 4.96361C16.5131 4.95789 16.5089 4.95219 16.5074 4.94633C16.5057 4.93926 16.5082 4.93294 16.5138 4.92735L16.5372 4.88602C16.5365 4.88589 16.5358 4.88576 16.5351 4.88564L16.5343 4.88548C16.531 4.88488 16.5276 4.88425 16.5244 4.88338C16.518 4.88166 16.5115 4.87884 16.5071 4.87278C16.4964 4.86088 16.4929 4.84974 16.4956 4.83933C16.4981 4.82924 16.5061 4.82114 16.5148 4.81454L16.5151 4.81436L16.5154 4.8142C16.5418 4.79864 16.5651 4.77676 16.5852 4.75155L16.5853 4.75137L16.5855 4.7512C16.5994 4.73662 16.6028 4.71743 16.6036 4.69768C16.6038 4.69278 16.6039 4.68791 16.6039 4.6831L16.6039 4.6819C16.604 4.67753 16.604 4.6732 16.6041 4.66905C16.6045 4.66009 16.6053 4.65138 16.6082 4.64416L16.6083 4.64386L16.6085 4.64358C16.63 4.60492 16.6615 4.57196 16.7 4.54773C16.7386 4.52349 16.7829 4.50875 16.8291 4.50486ZM16.688 5.16051L16.6931 5.15877C16.7206 5.23035 16.7194 5.30894 16.6896 5.37972L16.6896 5.37981C16.6728 5.41771 16.662 5.45695 16.6628 5.5C16.6636 5.54102 16.675 5.58579 16.7022 5.63643C16.748 5.57634 16.8031 5.5515 16.8563 5.53362C16.8673 5.52994 16.878 5.52659 16.8886 5.52331C16.9048 5.51826 16.9205 5.51336 16.9358 5.50762C16.9607 5.49828 16.9836 5.487 17.0032 5.47007C17.0336 5.44016 17.0542 5.41087 17.0723 5.38528C17.0761 5.37979 17.0799 5.37448 17.0836 5.36937C17.1022 5.34356 17.12 5.32229 17.1458 5.31204C17.1425 5.30932 17.139 5.30656 17.1355 5.30374C17.1103 5.28362 17.0817 5.26075 17.0594 5.23055C17.0315 5.19279 17.0134 5.1436 17.022 5.07363L17.022 5.07353C17.0273 5.03739 17.0444 5.00314 17.0638 4.96922C17.0685 4.96105 17.0733 4.9529 17.0781 4.94474C17.0934 4.9188 17.1087 4.89276 17.1204 4.86537C17.1356 4.82955 17.1444 4.79194 17.138 4.75045C17.1317 4.70896 17.1102 4.66307 17.064 4.61087L17.0638 4.61074C17.0365 4.57765 17.0008 4.55154 16.9599 4.53483C16.9191 4.51811 16.8744 4.51131 16.8301 4.51505C16.7857 4.51879 16.7431 4.53295 16.706 4.55623C16.6691 4.57946 16.6389 4.61102 16.6183 4.64803C16.6161 4.65355 16.6153 4.66073 16.615 4.6694C16.6149 4.6734 16.6148 4.6776 16.6148 4.682L16.6148 4.68318C16.6147 4.68799 16.6147 4.69301 16.6145 4.69809C16.6136 4.71823 16.6102 4.7405 16.5937 4.75787C16.5732 4.78364 16.5491 4.80636 16.5214 4.82271C16.5133 4.82884 16.5078 4.83507 16.5061 4.84169C16.5045 4.84799 16.5061 4.85596 16.5156 4.86635L16.5158 4.86658L16.516 4.86684C16.5183 4.87017 16.522 4.8721 16.5274 4.87355C16.5301 4.87428 16.533 4.87484 16.5364 4.87544L16.5372 4.8756C16.5402 4.87614 16.5435 4.87673 16.5467 4.8775L16.5535 4.87909L16.5227 4.93348L16.5221 4.93401C16.518 4.93788 16.5173 4.94095 16.518 4.94403C16.5189 4.94775 16.5222 4.95248 16.5289 4.95874L16.5314 4.96109L16.5301 4.96419C16.5261 4.97403 16.525 4.98156 16.5251 4.98777C16.5252 4.99402 16.5267 4.99916 16.5282 5.00458L16.5282 5.00462L16.5282 5.0047C16.5296 5.01 16.5312 5.01577 16.5309 5.02236C16.5306 5.0291 16.5284 5.03631 16.5229 5.04489L16.5228 5.0451C16.5125 5.05963 16.5033 5.07438 16.5033 5.089C16.5033 5.1028 16.5116 5.11815 16.5411 5.13361C16.5457 5.13575 16.5541 5.13842 16.5652 5.14119C16.5763 5.14394 16.5897 5.14671 16.604 5.14908C16.6327 5.15385 16.6645 5.15696 16.6876 5.15541L16.688 5.16051ZM17.3478 5.82824C17.3532 5.85876 17.3553 5.89221 17.3553 5.92436V5.92476C17.3349 6.17156 17.2545 6.41065 17.1204 6.62358C17.0928 6.67352 17.0454 6.71114 16.9884 6.72821C16.9654 6.73596 16.9372 6.75311 16.9035 6.77398C16.9019 6.77501 16.9002 6.77605 16.8985 6.7771C16.8662 6.79711 16.8295 6.81988 16.7889 6.83975C16.6757 6.89672 16.5573 6.9439 16.435 6.98072L16.4347 6.98081C16.4129 6.98611 16.387 6.99165 16.3581 6.99785C16.2466 7.02176 16.0901 7.05531 15.9505 7.12103C15.8987 7.14621 15.8791 7.16797 15.8661 7.18787C15.863 7.19249 15.8603 7.19716 15.8576 7.20184C15.8485 7.21732 15.8393 7.23302 15.819 7.24831L15.8187 7.24856L15.8183 7.24876C15.7957 7.26091 15.7785 7.28083 15.7643 7.30363C15.7517 7.32378 15.7418 7.34578 15.7326 7.36614C15.7314 7.36885 15.7301 7.37153 15.7289 7.37417L15.7288 7.37441L15.7287 7.37464C15.7154 7.39724 15.7063 7.42588 15.6962 7.45804C15.6937 7.46576 15.6912 7.47369 15.6886 7.48179C15.6882 7.48472 15.6861 7.48705 15.6846 7.48853C15.6825 7.4904 15.6799 7.49219 15.6769 7.49379C15.671 7.49701 15.6633 7.4999 15.6555 7.50141C15.6478 7.50289 15.6393 7.50321 15.6323 7.50033C15.6308 7.49969 15.6293 7.49887 15.6279 7.49788C15.6219 7.51456 15.6078 7.52743 15.5937 7.53307C15.5844 7.5368 15.574 7.53779 15.5656 7.53338C15.5617 7.53131 15.5585 7.52827 15.5563 7.52435C15.5487 7.53488 15.5359 7.54151 15.524 7.54302C15.5151 7.54415 15.5057 7.54256 15.499 7.53664C15.4975 7.53533 15.4962 7.53386 15.4951 7.53223C15.4907 7.54292 15.4853 7.55045 15.4795 7.55565C15.4702 7.56396 15.4602 7.56584 15.4524 7.56584H15.4517L15.4511 7.56569C15.4437 7.56394 15.4361 7.56103 15.4307 7.55253C15.4257 7.54451 15.4232 7.53217 15.4232 7.51278V7.51236C15.4235 7.50948 15.4238 7.50621 15.4241 7.50262C15.4259 7.4822 15.4287 7.4512 15.4309 7.42135C15.4321 7.4038 15.4332 7.38668 15.4337 7.37238C15.4342 7.35809 15.4342 7.34698 15.4335 7.34101C15.43 7.32452 15.4299 7.30933 15.4345 7.29481C15.439 7.28023 15.4481 7.26673 15.4621 7.25349C15.4718 7.24437 15.4834 7.22884 15.4961 7.20893C15.5087 7.18912 15.5222 7.1653 15.5358 7.13981C15.5497 7.11198 15.563 7.09609 15.5888 7.07875C15.6075 7.06626 15.6329 7.05287 15.6699 7.03337C15.6832 7.02637 15.698 7.01858 15.7145 7.00976C15.8812 6.9214 16.042 6.82335 16.1957 6.71619C16.3264 6.60725 16.4875 6.53589 16.6599 6.51058C16.6674 6.50926 16.6749 6.50808 16.682 6.50695C16.6876 6.50608 16.6929 6.50524 16.6978 6.5044C16.7094 6.50242 16.7196 6.50028 16.7285 6.49724C16.7374 6.49421 16.7447 6.49034 16.7506 6.48498C16.7564 6.47968 16.761 6.47271 16.7642 6.46311C16.7669 6.45298 16.772 6.44239 16.7787 6.4294C16.7801 6.42664 16.7816 6.42377 16.7832 6.42076C16.7891 6.40937 16.7961 6.39598 16.8039 6.37932C16.8237 6.33726 16.8491 6.27442 16.8762 6.17241L16.8763 6.17205C16.9335 6.00757 17.0374 5.86092 17.1766 5.7479L17.1768 5.74778C17.2111 5.7219 17.24 5.71099 17.2643 5.71252C17.2889 5.71406 17.3073 5.72828 17.3206 5.74915C17.3338 5.76992 17.3424 5.79781 17.3478 5.82824ZM15.6201 7.48082H15.6309C15.6309 7.4841 15.6317 7.48627 15.6326 7.48772C15.6336 7.48915 15.6349 7.49022 15.6367 7.49098C15.6406 7.49259 15.6465 7.49271 15.6533 7.4914C15.6599 7.49011 15.6666 7.48761 15.6715 7.48494C15.674 7.48359 15.6758 7.48231 15.6769 7.48125C15.6774 7.48079 15.6777 7.48048 15.6778 7.48032V7.48006L15.678 7.47932C15.6806 7.47135 15.6831 7.46345 15.6856 7.45568C15.6957 7.42351 15.7052 7.39355 15.7191 7.36991C15.7202 7.36737 15.7214 7.36479 15.7226 7.36216C15.7318 7.34185 15.742 7.31922 15.7549 7.29846C15.7695 7.27504 15.7878 7.25351 15.8125 7.24008C15.8308 7.22625 15.8387 7.21281 15.8475 7.1978C15.8504 7.19289 15.8533 7.18782 15.8568 7.18251C15.8709 7.16087 15.8921 7.13789 15.9455 7.11193L15.948 7.11648L15.9456 7.1119C16.0865 7.04555 16.2449 7.01162 16.3564 6.98772C16.385 6.98159 16.4105 6.97612 16.4319 6.97094C16.5535 6.93431 16.6713 6.88737 16.7838 6.83072L16.7839 6.83069C16.824 6.81106 16.8603 6.78855 16.8926 6.76849C16.8943 6.76747 16.8959 6.76645 16.8976 6.76544C16.9309 6.74478 16.9603 6.72679 16.9848 6.71855L16.985 6.71849C17.0393 6.70224 17.0846 6.66636 17.1108 6.61874L17.111 6.61848C17.2442 6.40693 17.3241 6.16938 17.3444 5.92416C17.3444 5.89245 17.3423 5.85966 17.3371 5.82991C17.3318 5.80003 17.3235 5.77359 17.3113 5.75441C17.2991 5.73532 17.2835 5.72397 17.2636 5.72272C17.2433 5.72145 17.2171 5.7305 17.1836 5.75571C17.046 5.86747 16.9433 6.01246 16.8867 6.17507C16.8595 6.2775 16.8339 6.34086 16.8139 6.38347C16.8059 6.40032 16.7988 6.41393 16.7929 6.42533C16.7913 6.42832 16.7899 6.43116 16.7885 6.43386C16.7817 6.44698 16.7771 6.45672 16.7747 6.46573L16.7746 6.466C16.771 6.47711 16.7655 6.48567 16.7581 6.49233C16.7509 6.49897 16.7421 6.50349 16.7322 6.50685C16.7225 6.5102 16.7115 6.51245 16.6998 6.51446C16.6944 6.51539 16.689 6.51623 16.6835 6.51709C16.6766 6.51818 16.6695 6.5193 16.6618 6.52065L16.6616 6.52068C16.4912 6.54568 16.3319 6.61625 16.2028 6.724L16.2024 6.7243C16.0482 6.83176 15.887 6.93006 15.7198 7.01866C15.703 7.02766 15.688 7.03555 15.6746 7.0426C15.6379 7.06195 15.6133 7.07494 15.5951 7.08709C15.571 7.1033 15.5588 7.11776 15.5456 7.14422L15.5455 7.14433C15.5319 7.16996 15.5183 7.19406 15.5054 7.21419C15.4927 7.23423 15.4805 7.25066 15.4698 7.26072C15.4567 7.27304 15.4488 7.28511 15.4449 7.2977C15.4409 7.31029 15.4409 7.3238 15.4442 7.3392L15.4442 7.33956C15.4451 7.34642 15.4451 7.35841 15.4446 7.37274C15.444 7.3872 15.443 7.40444 15.4417 7.42205C15.4395 7.45198 15.4367 7.48308 15.4349 7.50349C15.4346 7.50699 15.4343 7.51018 15.4341 7.51299C15.4341 7.53183 15.4366 7.5418 15.4401 7.54735C15.4432 7.55224 15.4472 7.55417 15.4531 7.55561C15.4587 7.55551 15.4654 7.55407 15.472 7.54822C15.479 7.54201 15.4863 7.53034 15.4912 7.50852L15.5019 7.51031C15.5004 7.52043 15.503 7.52613 15.5065 7.52918C15.51 7.53235 15.5157 7.53375 15.5225 7.53289C15.5364 7.53112 15.5508 7.52052 15.5522 7.50593L15.5631 7.50639C15.5631 7.5173 15.5669 7.52233 15.5709 7.52445C15.5752 7.52673 15.5818 7.52672 15.5894 7.52366C15.6048 7.51752 15.6201 7.5008 15.6201 7.48082ZM17.2263 10.1241C17.2473 10.1086 17.2808 10.0837 17.3329 10.0837H17.3332L17.3335 10.0837C17.3656 10.0871 17.3962 10.1037 17.4241 10.1247C17.4521 10.1458 17.4778 10.1716 17.4998 10.194L17.5007 10.1949L17.5011 10.1961C17.5094 10.2258 17.5184 10.2397 17.5271 10.2517C17.5278 10.2528 17.5286 10.2539 17.5294 10.255C17.5375 10.2661 17.5455 10.2771 17.552 10.2983L17.552 10.2984C17.5592 10.3237 17.5546 10.3488 17.5459 10.3714C17.5372 10.3938 17.5243 10.4141 17.5142 10.43L17.5139 10.4304L17.5138 10.4306C17.5041 10.4427 17.4967 10.4589 17.4917 10.4749C17.4867 10.491 17.4843 10.5065 17.4843 10.517C17.4843 10.5365 17.4809 10.5598 17.4735 10.5737L17.4734 10.5739L17.4732 10.5742C17.47 10.5787 17.4659 10.5856 17.4626 10.5929C17.4593 10.6004 17.4571 10.6076 17.4571 10.6129C17.4571 10.6391 17.4502 10.657 17.4382 10.6664C17.4271 10.6751 17.4129 10.6756 17.3994 10.6705C17.3936 10.6781 17.3849 10.6857 17.3755 10.6909C17.3664 10.6959 17.3553 10.6992 17.3453 10.6962C17.3365 10.7093 17.3247 10.7184 17.3122 10.7224C17.3002 10.7263 17.2876 10.7256 17.2768 10.7194C17.268 10.732 17.2563 10.7401 17.2433 10.743C17.2311 10.7456 17.2184 10.7434 17.2069 10.7365C17.2046 10.7412 17.2011 10.7453 17.1969 10.7489C17.1905 10.7543 17.1824 10.7587 17.1741 10.7619C17.1658 10.765 17.1571 10.7671 17.1495 10.7677C17.1421 10.7683 17.1345 10.7676 17.1294 10.764M17.2175 10.1367L17.2145 10.1325C17.2179 10.1303 17.2218 10.1274 17.2263 10.1241M17.2236 10.1389C17.2287 10.1583 17.2366 10.1783 17.2442 10.1972C17.2448 10.1988 17.2455 10.2004 17.2461 10.202C17.2534 10.22 17.2603 10.237 17.2635 10.2506C17.2672 10.2645 17.2654 10.2744 17.2615 10.2829C17.2598 10.2868 17.2576 10.2904 17.2557 10.2937L17.2553 10.2943C17.2532 10.2978 17.2512 10.3012 17.2497 10.3048L17.2495 10.3051C17.2042 10.3936 17.1724 10.4877 17.155 10.5846C17.1549 10.6049 17.1459 10.6249 17.1362 10.6425C17.1326 10.6488 17.1289 10.655 17.1254 10.6608C17.124 10.6631 17.1227 10.6654 17.1214 10.6676C17.1168 10.6753 17.1129 10.6822 17.1106 10.6882L17.1104 10.6887L17.1101 10.6891C17.1022 10.701 17.1002 10.7114 17.1038 10.7216C17.1075 10.7321 17.1175 10.7433 17.1358 10.7558L17.1359 10.7559C17.1376 10.7571 17.1418 10.758 17.1486 10.7575C17.155 10.757 17.1626 10.7552 17.17 10.7524C17.1775 10.7496 17.1844 10.7458 17.1896 10.7413C17.1948 10.7369 17.1979 10.7321 17.1985 10.7273L17.1998 10.7179L17.2074 10.7241C17.2182 10.7328 17.23 10.7354 17.2409 10.733C17.2518 10.7306 17.2625 10.7229 17.2704 10.7095L17.2736 10.7041L17.2787 10.7081C17.2872 10.7148 17.2979 10.7162 17.3086 10.7128C17.3194 10.7093 17.3304 10.7006 17.3383 10.6871L17.3411 10.6825L17.3459 10.6852C17.3517 10.6885 17.3603 10.6873 17.37 10.682C17.3795 10.6768 17.3881 10.6686 17.3927 10.6614L17.3953 10.6574L17.3998 10.6595C17.4121 10.6653 17.4232 10.6648 17.4313 10.6585C17.4396 10.652 17.4463 10.6379 17.4463 10.6129C17.4463 10.6055 17.4492 10.5967 17.4526 10.589C17.4561 10.5812 17.4604 10.5739 17.464 10.5688C17.4701 10.557 17.4734 10.5358 17.4734 10.517C17.4734 10.5053 17.4761 10.4888 17.4813 10.4721C17.4865 10.4554 17.4943 10.4381 17.5049 10.4247C17.5151 10.4087 17.5275 10.3892 17.5357 10.3679C17.544 10.3465 17.5479 10.3237 17.5415 10.3011C17.5356 10.2816 17.5284 10.2717 17.5205 10.2608C17.5197 10.2597 17.5189 10.2586 17.5181 10.2574C17.509 10.2449 17.4995 10.2302 17.4909 10.2C17.4691 10.1778 17.4442 10.1529 17.4173 10.1327C17.3902 10.1122 17.3615 10.097 17.3326 10.0939C17.2849 10.094 17.255 10.116 17.2339 10.1316C17.2302 10.1343 17.2268 10.1368 17.2236 10.1389ZM16.2358 10.3503L16.2398 10.3532C16.2529 10.3624 16.2771 10.375 16.3022 10.387C16.3271 10.399 16.3525 10.4101 16.3677 10.4165L16.3748 10.4195L16.3694 10.4247C16.2829 10.5094 16.1573 10.5103 16.097 10.4568L16.1007 10.4531L16.0984 10.4485C16.1495 10.4258 16.1951 10.3936 16.2324 10.3539L16.2358 10.3503ZM16.1105 10.4544C16.1666 10.4972 16.2762 10.4963 16.3561 10.4228C16.3406 10.4162 16.3188 10.4065 16.2973 10.3962C16.2745 10.3853 16.2518 10.3736 16.2373 10.3641C16.2014 10.4014 16.1584 10.432 16.1105 10.4544Z" fill="black"/>
<path d="M16.6575 4.59162C16.6778 4.46378 16.7763 4.46378 16.8374 4.47976C16.8645 4.48295 16.9256 4.48935 16.9867 4.47337C17.1021 4.4446 17.1904 4.48295 17.1768 4.58842C17.2108 4.61079 17.2447 4.66193 17.2345 4.70668C17.2311 4.75142 17.2413 4.7706 17.282 4.77379C17.3262 4.78018 17.4178 4.83132 17.3567 4.90163C17.4144 4.93359 17.4585 5.01989 17.428 5.07422C17.3974 5.13175 17.3058 5.14134 17.2651 5.0902C17.2209 5.10937 17.1531 5.11257 17.1089 5.07102C17.0784 5.10298 17.0071 5.09979 16.9901 5.07102C16.9765 5.03906 16.9562 5.02628 16.9256 5.01669C16.8951 5.0071 16.8917 4.9272 16.9392 4.91761C16.9358 4.89204 16.9392 4.86648 16.9494 4.85369C16.9596 4.84091 16.9494 4.81534 16.9222 4.79616C16.8951 4.77379 16.8713 4.70028 16.8985 4.65554C16.851 4.67152 16.7491 4.62678 16.7288 4.59801C16.705 4.56605 16.6744 4.56605 16.6575 4.59162V4.59162Z" fill="#870F00"/>
<path fill-rule="evenodd" clip-rule="evenodd" d="M17.1275 4.48469C17.0944 4.46643 17.0451 4.46378 16.988 4.47799C16.9259 4.49424 16.8639 4.48772 16.8367 4.48452L16.8363 4.48447L16.836 4.48438C16.8059 4.47652 16.7674 4.4728 16.7341 4.48616C16.7043 4.49813 16.6778 4.52421 16.6657 4.5758C16.6731 4.57051 16.6817 4.56788 16.6909 4.56846C16.7057 4.56939 16.7205 4.57858 16.7329 4.59526L16.733 4.59535L16.733 4.59535C16.7375 4.60171 16.7469 4.60946 16.7599 4.61735C16.7728 4.62516 16.7886 4.63281 16.8053 4.6391C16.822 4.6454 16.8394 4.65027 16.8555 4.6526C16.8717 4.65494 16.886 4.65464 16.8967 4.65102L16.9097 4.64667L16.9029 4.65792C16.8901 4.67887 16.8891 4.70709 16.8949 4.73326C16.9007 4.75943 16.9131 4.78217 16.9254 4.79244C16.9395 4.80242 16.9494 4.8142 16.9545 4.82546C16.9595 4.8366 16.9601 4.84822 16.9534 4.85657C16.9491 4.86205 16.9459 4.87073 16.9442 4.88154C16.9426 4.89225 16.9426 4.9046 16.9442 4.91702L16.9448 4.92138L16.9402 4.9223C16.9199 4.92641 16.9094 4.94584 16.9082 4.96741C16.9076 4.978 16.9093 4.98847 16.9129 4.99671C16.9165 5.00508 16.9216 5.01038 16.9272 5.01214C16.9428 5.01703 16.9562 5.02286 16.9675 5.0318C16.9788 5.04072 16.9877 5.05252 16.9947 5.06894C16.9983 5.07481 17.0048 5.07972 17.0135 5.08324C17.0224 5.08681 17.0332 5.08881 17.0445 5.089C17.0673 5.08938 17.0911 5.08243 17.1051 5.06782L17.1087 5.06406L17.1125 5.06763C17.1546 5.10725 17.2199 5.10453 17.2629 5.08585L17.2666 5.08422L17.2691 5.08732C17.2882 5.11131 17.3194 5.12124 17.3498 5.11819C17.3802 5.11514 17.409 5.09916 17.4234 5.07207L17.4235 5.07197L17.4235 5.07198C17.4377 5.04658 17.4348 5.01305 17.4207 4.98139C17.4066 4.9498 17.3818 4.92113 17.3541 4.90577L17.349 4.90293L17.3527 4.8986C17.3674 4.88171 17.3725 4.86645 17.3719 4.8531C17.3713 4.8397 17.3648 4.82751 17.355 4.8169C17.3351 4.79554 17.3025 4.78165 17.2814 4.77856C17.2604 4.77688 17.2458 4.77096 17.2374 4.75837C17.2292 4.74617 17.2277 4.7288 17.2294 4.70633L17.2294 4.706L17.2295 4.70567C17.2343 4.68472 17.2288 4.66189 17.2176 4.64134C17.2065 4.62079 17.1901 4.60304 17.1739 4.59235L17.1714 4.5907L17.1717 4.58785C17.1783 4.53656 17.1602 4.5027 17.1275 4.48469ZM16.6574 4.59162L16.6524 4.59091C16.6628 4.52574 16.6933 4.49212 16.7301 4.47735C16.7663 4.4628 16.8073 4.46699 16.8383 4.47504C16.8656 4.47824 16.9256 4.48438 16.9853 4.46875L16.9854 4.46873L16.9854 4.46873C17.0438 4.45418 17.0962 4.45634 17.1327 4.47642C17.169 4.49641 17.1881 4.53349 17.1822 4.58618C17.199 4.59795 17.2155 4.61619 17.2267 4.63698C17.2385 4.65867 17.2448 4.68366 17.2395 4.70735C17.2379 4.72944 17.2398 4.74393 17.246 4.75326C17.252 4.76221 17.2628 4.76747 17.2824 4.76901L17.2828 4.76904L17.2828 4.76905C17.3059 4.7724 17.341 4.78725 17.3626 4.81059C17.3736 4.82234 17.3813 4.83652 17.3821 4.85268C17.3828 4.86762 17.3775 4.88365 17.3642 4.90038C17.3921 4.91747 17.4162 4.94638 17.4301 4.97768C17.4448 5.01072 17.4487 5.04749 17.4325 5.07641C17.4163 5.10683 17.3841 5.12439 17.3509 5.12772C17.3188 5.13094 17.2852 5.12103 17.2635 5.0961C17.2194 5.11388 17.1539 5.11659 17.109 5.07776C17.0923 5.09259 17.0672 5.09897 17.0443 5.09859C17.0319 5.09838 17.0198 5.09619 17.0095 5.09206C16.9993 5.08794 16.9906 5.08175 16.9856 5.07335L16.9855 5.07308L16.9854 5.0728C16.9788 5.05742 16.9708 5.04693 16.9609 5.03914C16.951 5.0313 16.939 5.02594 16.924 5.02124C16.9143 5.01821 16.9076 5.00992 16.9034 5.00031C16.8992 4.99058 16.8974 4.97868 16.898 4.9669C16.8993 4.94504 16.9097 4.92128 16.9336 4.91405C16.9324 4.90229 16.9326 4.89061 16.9341 4.88018C16.9359 4.86862 16.9395 4.85812 16.9453 4.85082C16.9488 4.84638 16.9494 4.83883 16.9451 4.82919C16.9408 4.81972 16.9321 4.80918 16.9191 4.8L16.9188 4.79978L16.9189 4.79977C16.9041 4.78762 16.891 4.76249 16.885 4.73522C16.8797 4.71138 16.8795 4.68485 16.8891 4.66267C16.8784 4.6643 16.8664 4.66387 16.854 4.66208C16.8369 4.65961 16.8187 4.6545 16.8015 4.64801C16.7843 4.64151 16.7678 4.63358 16.7544 4.62541C16.7411 4.61734 16.7302 4.60873 16.7245 4.60072C16.7132 4.58546 16.7008 4.57869 16.6902 4.57803C16.6798 4.57737 16.6695 4.5825 16.6618 4.59416L16.6574 4.59162Z" fill="black"/>
<path fill-rule="evenodd" clip-rule="evenodd" d="M16.7181 4.57411C16.7187 4.57878 16.721 4.58353 16.7258 4.588L16.7181 4.59524C16.7118 4.58932 16.7082 4.58249 16.7073 4.57528C16.7065 4.5681 16.7083 4.56094 16.7123 4.55439C16.7201 4.54137 16.7363 4.53043 16.7574 4.52478C16.7999 4.5134 16.8638 4.52302 16.9293 4.58151L16.9295 4.58161C16.9418 4.59322 16.9616 4.59939 16.981 4.60173C16.9907 4.60288 17 4.60307 17.0078 4.6026C17.0158 4.60211 17.022 4.60096 17.0254 4.59966L17.0295 4.60915C17.0244 4.61104 17.017 4.61229 17.0085 4.6128C17 4.61332 16.99 4.61311 16.9797 4.61187C16.9593 4.60942 16.9366 4.60282 16.9218 4.58889C16.8584 4.53237 16.7984 4.52443 16.7603 4.53462C16.7411 4.53975 16.7278 4.54938 16.7217 4.55943C16.7187 4.56442 16.7176 4.56942 16.7181 4.57411ZM16.9966 4.65735C16.9654 4.65116 16.9298 4.65422 16.8996 4.66053L16.8973 4.65055C16.9282 4.64407 16.9656 4.64074 16.9989 4.64734C17.0323 4.65397 17.0622 4.67078 17.0766 4.70478C17.0831 4.71999 17.0907 4.7283 17.0989 4.73363C17.1068 4.73874 17.1154 4.74132 17.1254 4.74431C17.1261 4.74452 17.1268 4.74473 17.1275 4.74495C17.1382 4.74817 17.15 4.75197 17.1617 4.76009C17.1734 4.76824 17.1847 4.78049 17.1952 4.80023C17.2155 4.83692 17.2406 4.87441 17.2685 4.89566C17.2823 4.90623 17.2965 4.91246 17.3109 4.91295C17.3251 4.91344 17.3403 4.90834 17.3565 4.89464L17.3637 4.90224C17.346 4.9173 17.3281 4.92378 17.3105 4.92317C17.293 4.92257 17.2766 4.91501 17.2616 4.90361C17.2318 4.88092 17.206 4.84173 17.1856 4.80492L17.1855 4.80484C17.1756 4.78625 17.1653 4.77535 17.1552 4.76832C17.1451 4.76126 17.1348 4.75787 17.1242 4.75469C17.1234 4.75445 17.1226 4.75421 17.1218 4.75397C17.1122 4.75109 17.102 4.74806 17.0928 4.74205C17.0825 4.73539 17.0736 4.72533 17.0665 4.70858C17.0538 4.67865 17.0277 4.6635 16.9966 4.65735ZM17.0867 4.91632C17.0855 4.93585 17.089 4.95413 17.0994 4.96538L17.1014 4.96751L17.1005 4.97022C17.0954 4.98654 17.0938 5.00369 17.0961 5.0206C17.0983 5.0375 17.1043 5.05378 17.1136 5.0684L17.1042 5.07365C17.0942 5.05781 17.0877 5.04018 17.0853 5.02187C17.083 5.00446 17.0844 4.98681 17.0893 4.96992C17.0776 4.95564 17.0747 4.93511 17.0759 4.91571C17.0772 4.89511 17.0833 4.87445 17.0905 4.86099L17.1002 4.86557C17.0938 4.87768 17.088 4.89697 17.0867 4.91632ZM16.5766 4.90602L16.5426 4.88684L16.5482 4.87807L16.5822 4.89725L16.5766 4.90602ZM16.9404 4.93949C16.9363 4.93193 16.9338 4.92431 16.9338 4.91761H16.9446C16.9446 4.9221 16.9464 4.92806 16.9501 4.93479C16.9537 4.94144 16.9591 4.94853 16.966 4.9552C16.9798 4.96856 16.9991 4.97986 17.0214 4.98286L17.0199 4.99299C16.9947 4.9896 16.9733 4.97693 16.9582 4.96233C16.9507 4.95501 16.9446 4.94712 16.9404 4.93949ZM16.539 4.973L16.5223 4.96355L16.5279 4.95478L16.5451 4.9645L16.5453 4.96466C16.5575 4.97329 16.5765 4.97642 16.5896 4.97642V4.98665C16.5755 4.98665 16.5539 4.98342 16.539 4.973ZM17.2534 4.98877C17.2467 5.02707 17.2437 5.05694 17.2693 5.087L17.2608 5.09339C17.232 5.05954 17.2359 5.02549 17.2427 4.98709L17.2534 4.98877ZM16.7763 5.13585C16.7533 5.14747 16.7271 5.16065 16.6887 5.16558L16.6873 5.15544C16.7236 5.15078 16.7483 5.1384 16.7711 5.12684L16.772 5.12641C16.7945 5.11505 16.8158 5.10426 16.8441 5.10426V5.11449C16.8185 5.11449 16.7993 5.1242 16.7763 5.13585Z" fill="black"/>
<path fill-rule="evenodd" clip-rule="evenodd" d="M17.0013 4.5035C17.0681 4.51582 17.13 4.54497 17.1804 4.58782L17.1732 4.59542C17.1241 4.5538 17.064 4.5255 16.9993 4.51354L17.0013 4.5035ZM16.9895 4.77688C16.9798 4.75864 16.9745 4.73789 16.9745 4.71946H16.9854C16.9854 4.73619 16.9902 4.75538 16.9992 4.7723C17.0082 4.78926 17.0211 4.80343 17.0367 4.81077L17.0383 4.81153L17.0391 4.81305C17.0488 4.83133 17.0845 4.88031 17.1628 4.87417L17.1637 4.88436C17.0811 4.89084 17.0419 4.84023 17.0302 4.81913C17.0126 4.81032 16.9989 4.79455 16.9895 4.77688ZM16.6148 6.01782C16.5874 5.85037 16.6284 5.73072 16.6972 5.64326L16.706 5.64935C16.639 5.73446 16.5986 5.8513 16.6255 6.01617C16.6424 6.09919 16.6629 6.20188 16.6633 6.29748C16.6637 6.39292 16.6442 6.48272 16.5797 6.53857L16.5723 6.53104C16.6334 6.47822 16.6529 6.39223 16.6525 6.29752C16.652 6.20299 16.6318 6.10117 16.6148 6.01801L16.6148 6.01782L16.6148 6.01782ZM17.0563 6.83932C17.1091 6.83568 17.1641 6.84133 17.2088 6.85266L17.2059 6.86254C17.1624 6.8515 17.1087 6.84596 17.0571 6.84952C17.0055 6.85307 16.9566 6.8657 16.9221 6.89043L16.9221 6.89045C16.887 6.91522 16.8383 6.9282 16.7888 6.93022C16.7393 6.93225 16.6882 6.92335 16.6482 6.90368L16.6532 6.89461C16.6912 6.9133 16.7403 6.92197 16.7883 6.92001C16.8364 6.91804 16.8827 6.90545 16.9156 6.88228" fill="black"/>
<path fill-rule="evenodd" clip-rule="evenodd" d="M17.1546 6.88938C17.1721 6.9244 17.1822 6.98208 17.1822 7.07173H17.1714C17.1714 6.98241 17.1612 6.92663 17.1447 6.89374C17.1366 6.87738 17.127 6.86696 17.1166 6.86077C17.1092 6.85637 17.1013 6.85397 17.0927 6.85323C17.0891 6.85315 17.0855 6.85313 17.0818 6.85313L17.0814 6.84291C17.0854 6.84267 17.0894 6.8427 17.0932 6.84301C17.1078 6.84335 17.1219 6.84464 17.1352 6.84914C17.1523 6.8549 17.1676 6.86576 17.1813 6.88557C17.2084 6.92466 17.2297 6.99933 17.2467 7.14147L17.2467 7.1416L17.2467 7.1416C17.2618 7.30272 17.2918 7.38236 17.33 7.48388C17.3431 7.51883 17.3572 7.55638 17.3721 7.60074L17.3721 7.6008C17.4419 7.81885 17.4589 8.09515 17.4674 8.34638C17.4688 8.38855 17.47 8.43 17.4711 8.47036C17.4734 8.55038 17.4756 8.6261 17.4792 8.69461C17.4847 8.79774 17.4936 8.88391 17.5113 8.94322L17.5008 8.94598C17.4828 8.88545 17.4739 8.79823 17.4684 8.69512C17.4647 8.6265 17.4625 8.55057 17.4603 8.47047C17.4591 8.43014 17.4579 8.38875 17.4565 8.34671C17.448 8.09538 17.431 7.82038 17.3617 7.60378C17.347 7.55997 17.333 7.5227 17.3199 7.48786C17.2816 7.386 17.2511 7.30501 17.2359 7.14256C17.2189 7.00029 17.1978 6.92796 17.1722 6.89116C17.1597 6.87306 17.1462 6.86375 17.1317 6.85881C17.1404 6.8662 17.148 6.87628 17.1546 6.88938ZM16.9272 6.90115C16.9463 6.86718 16.9759 6.84959 17.0163 6.84297L17.0182 6.85305C16.9805 6.85921 16.9541 6.87518 16.9368 6.90594C16.9192 6.93716 16.9107 6.98405 16.9107 7.05256C16.9107 7.09632 16.9071 7.14698 16.9032 7.20201C16.9011 7.23158 16.8989 7.26241 16.8971 7.29413C16.892 7.3851 16.8903 7.48382 16.9038 7.58244L16.8931 7.58375C16.8794 7.48422 16.8811 7.38478 16.8862 7.29359C16.888 7.26148 16.8902 7.23046 16.8924 7.20082C16.8963 7.14605 16.8998 7.096 16.8998 7.05256C16.8998 6.98363 16.9083 6.93465 16.9272 6.90115ZM16.8641 6.9066C16.8684 6.90568 16.8726 6.90475 16.8768 6.90378L16.8794 6.9137C16.8748 6.91478 16.8703 6.91576 16.8659 6.91671C16.8569 6.91865 16.8484 6.9205 16.8401 6.92304C16.828 6.92674 16.8175 6.9317 16.809 6.93988C16.7921 6.95615 16.7817 6.98687 16.7885 7.05206L16.7776 7.05305C16.7708 6.98721 16.7808 6.95241 16.8012 6.93273C16.8114 6.92293 16.8238 6.9173 16.8367 6.91331C16.8454 6.91064 16.8548 6.90861 16.8641 6.9066ZM16.6398 6.95145C16.6254 6.97731 16.617 7.01484 16.6154 7.05277L16.6045 7.05234C16.6062 7.01357 16.6148 6.97439 16.6302 6.94672C16.6378 6.93288 16.6474 6.92152 16.6591 6.91472C16.671 6.9078 16.6847 6.90581 16.6998 6.91025L16.6966 6.92001C16.6845 6.91646 16.674 6.91806 16.6648 6.92342C16.6554 6.92891 16.647 6.93853 16.6398 6.95145ZM17.0495 8.6967C17.2521 8.1908 17.2569 7.63352 17.0631 7.1246L17.0733 7.12114C17.2678 7.63177 17.2632 8.19085 17.0604 8.69855C17.1258 8.87043 17.1912 9.0232 17.248 9.15593C17.2617 9.1879 17.2749 9.2187 17.2875 9.24833C17.3523 9.40119 17.401 9.52319 17.4164 9.61175L17.4056 9.6134C17.3905 9.52617 17.3424 9.40528 17.2774 9.25212C17.2649 9.22254 17.2517 9.19177 17.238 9.15983C17.181 9.02663 17.1152 8.87304 17.0495 8.70023L17.0488 8.69846L17.0495 8.6967ZM16.6518 7.48359C16.6484 7.52797 16.6373 7.58422 16.6186 7.65465L16.6186 7.65468C16.5746 7.81559 16.5781 7.8979 16.589 7.95128C16.5917 7.96467 16.5949 7.97631 16.598 7.98703C16.5985 7.98892 16.599 7.99078 16.5996 7.99262C16.602 8.0012 16.6044 8.00933 16.6062 8.01728C16.6107 8.03684 16.6121 8.05569 16.605 8.07984L16.5945 8.07712C16.601 8.05493 16.5998 8.03782 16.5956 8.01943C16.5939 8.01178 16.5916 8.00397 16.5891 7.99541C16.5886 7.99354 16.588 7.99164 16.5875 7.9897C16.5844 7.9789 16.5811 7.96697 16.5783 7.9532C16.5671 7.89792 16.5638 7.81403 16.6081 7.65215C16.6267 7.58196 16.6376 7.52636 16.641 7.48285C16.6444 7.43924 16.6401 7.40838 16.6288 7.38723L16.6386 7.38266C16.6511 7.40625 16.6553 7.43932 16.6518 7.48359Z" fill="black"/>
<path fill-rule="evenodd" clip-rule="evenodd" d="M16.6304 7.70382C16.6226 7.65565 16.6197 7.61171 16.6284 7.57557L16.639 7.57784C16.6307 7.61201 16.6334 7.65437 16.6411 7.70227C16.6467 7.73655 16.6548 7.77328 16.6633 7.81153C16.6666 7.82672 16.6701 7.84214 16.6734 7.85775C16.6967 7.9671 16.7157 8.08505 16.6796 8.18559L16.6693 8.18231C16.7044 8.0847 16.6861 7.96933 16.6627 7.85976C16.6594 7.84434 16.6561 7.82903 16.6527 7.8139C16.6442 7.77554 16.636 7.73839 16.6304 7.70382ZM16.4945 8.4036C16.4884 8.33972 16.4823 8.27625 16.4823 8.21911H16.4932C16.4932 8.27575 16.4992 8.33873 16.5053 8.4027C16.5061 8.41058 16.5068 8.41849 16.5076 8.42639C16.5144 8.49827 16.5203 8.57052 16.5169 8.63484L16.5169 8.63485C16.5117 8.73077 16.5429 8.78578 16.5862 8.86199C16.5983 8.88343 16.6114 8.90655 16.625 8.93274C16.8558 9.36094 17.0058 9.66564 16.9887 10.0698L16.9887 10.07L16.9887 10.07C16.9872 10.0878 16.9874 10.1099 16.9877 10.1341L16.9878 10.1386C16.9881 10.1644 16.9883 10.1924 16.9862 10.2194C16.984 10.2464 16.9795 10.2727 16.9702 10.2953C16.9609 10.3179 16.9467 10.3369 16.9249 10.3489L16.9195 10.34C16.9385 10.3296 16.9514 10.3127 16.9601 10.2916C16.9688 10.2704 16.9732 10.2452 16.9754 10.2186C16.9775 10.1921 16.9772 10.1646 16.9769 10.1387C16.9769 10.1371 16.9769 10.1355 16.9769 10.134C16.9766 10.11 16.9763 10.0876 16.9779 10.0693C16.9948 9.66812 16.8461 9.3656 16.6153 8.93733L16.6152 8.93725C16.6021 8.91184 16.5892 8.88915 16.5771 8.86791C16.5335 8.79115 16.5007 8.7333 16.5061 8.63433C16.5061 8.63433 16.5061 8.63433 16.5061 8.63433L16.5115 8.63459L16.5061 8.63433C16.5061 8.63433 16.5061 8.63433 16.5061 8.63433C16.5094 8.57082 16.5035 8.49924 16.4967 8.4273C16.496 8.4194 16.4952 8.4115 16.4945 8.4036ZM16.6595 9.64095C16.6794 9.88921 16.6517 10.1388 16.5778 10.3779L16.5777 10.3782L16.5775 10.3785C16.5622 10.4107 16.5482 10.4306 16.5347 10.4425C16.5209 10.4546 16.5077 10.4582 16.4945 10.4582V10.448C16.5051 10.448 16.5156 10.4453 16.5273 10.435C16.5392 10.4245 16.5524 10.4062 16.5675 10.3746C16.641 10.1369 16.6685 9.88864 16.6486 9.64172L16.6595 9.64095ZM16.6524 10.3426C16.7097 10.203 16.7097 10.0314 16.6962 9.94893L16.7069 9.94738C16.7206 10.0311 16.7207 10.2046 16.6625 10.3463L16.6524 10.3426Z" fill="black"/>
<path fill-rule="evenodd" clip-rule="evenodd" d="M15.8802 4.57476L16.033 4.46609L16.0395 4.47425L15.8868 4.58292L15.8802 4.57476ZM16.0701 4.49951C16.0736 4.49805 16.0772 4.49702 16.0804 4.49702V4.50724C16.0794 4.50724 16.0775 4.50761 16.0744 4.50887C16.0715 4.5101 16.0678 4.51198 16.0634 4.51456C16.0546 4.51972 16.0433 4.52739 16.0294 4.53737C16.0172 4.54605 16.0031 4.55641 15.9869 4.56827C15.9845 4.57001 15.9821 4.57178 15.9797 4.57358C15.9605 4.58767 15.9386 4.60366 15.914 4.62126L15.9074 4.61311C15.932 4.59556 15.9538 4.57959 15.973 4.56551C15.9755 4.56371 15.9779 4.56194 15.9802 4.5602C15.9964 4.54835 16.0106 4.53795 16.0228 4.52922C16.0368 4.51922 16.0484 4.51131 16.0577 4.50588C16.0623 4.50317 16.0664 4.50101 16.0701 4.49951ZM15.7846 4.59759L15.8389 4.54645L15.8466 4.55369L15.7923 4.60482L15.7846 4.59759ZM16.0167 4.59727C16.0411 4.57822 16.0639 4.56166 16.0818 4.55491L16.0858 4.56441C16.0698 4.57045 16.0484 4.58585 16.0236 4.60515C16.017 4.61026 16.0103 4.61563 16.0033 4.62111C15.9845 4.63607 15.9644 4.65192 15.9445 4.66602L15.938 4.65784C15.9577 4.64393 15.9773 4.62836 15.9961 4.61346C16.0031 4.60793 16.01 4.60249 16.0167 4.59727ZM15.5014 7.46151C15.5017 7.47573 15.502 7.49156 15.502 7.50959H15.4911C15.4911 7.4922 15.4908 7.47664 15.4905 7.46251C15.49 7.4355 15.4896 7.41366 15.4916 7.39405C15.4946 7.36362 15.5034 7.33806 15.5259 7.30545L15.5351 7.31103C15.5134 7.34233 15.5053 7.36632 15.5024 7.39501C15.5005 7.41406 15.5009 7.43498 15.5014 7.46151ZM15.5646 7.473C15.5642 7.4833 15.5637 7.49448 15.5631 7.50662L15.5522 7.50616C15.5528 7.49417 15.5533 7.4831 15.5538 7.47284C15.556 7.42323 15.5574 7.39275 15.5621 7.37114C15.565 7.35787 15.5691 7.34766 15.5755 7.33824C15.5819 7.32889 15.5904 7.32054 15.6015 7.31087L15.6089 7.31839C15.5979 7.32789 15.5903 7.33553 15.5847 7.34376C15.5791 7.35191 15.5754 7.36088 15.5727 7.37318C15.5683 7.39393 15.5669 7.42335 15.5646 7.473ZM15.6321 7.46195C15.6318 7.46832 15.6315 7.47468 15.631 7.48125L15.6201 7.4804C15.6206 7.47462 15.6209 7.46865 15.6212 7.46248C15.6218 7.44905 15.6225 7.43466 15.6257 7.41911C15.6306 7.39599 15.6411 7.36976 15.6652 7.33727L15.6741 7.34313C15.6508 7.37456 15.6409 7.39947 15.6364 7.42109C15.6333 7.43589 15.6327 7.44893 15.6321 7.46195ZM17.2537 9.73925C17.1946 9.57359 17.1329 9.40057 17.0636 9.29893L17.0727 9.2934C17.1428 9.39616 17.2049 9.57024 17.2638 9.73523C17.2666 9.74323 17.2695 9.75121 17.2723 9.75916C17.3031 9.84528 17.333 9.92791 17.3629 9.99578C17.3929 10.0639 17.4225 10.1163 17.4521 10.1426L17.4446 10.15C17.4131 10.122 17.3828 10.0677 17.3529 9.9997C17.3228 9.93145 17.2928 9.84848 17.262 9.76242C17.2593 9.75472 17.2565 9.74699 17.2537 9.73925ZM16.849 10.1515C16.8793 10.0373 16.8794 9.87513 16.8456 9.69657L16.8563 9.69477C16.8903 9.87416 16.8904 10.0379 16.8596 10.1539L16.849 10.1515ZM17.1894 9.96573C17.1949 9.99891 17.1958 10.0344 17.1958 10.0632H17.1849C17.1849 10.0345 17.1841 9.99967 17.1786 9.96733C17.1732 9.93481 17.1632 9.90571 17.1456 9.88769L17.1536 9.88078C17.1734 9.90111 17.1838 9.93274 17.1894 9.96573ZM16.7721 10.1932C16.7702 10.1779 16.7685 10.1642 16.7674 10.1532L16.7783 10.1522C16.7793 10.1628 16.7809 10.1762 16.7828 10.1913C16.7871 10.2257 16.7925 10.269 16.794 10.3087C16.795 10.3374 16.7941 10.3648 16.7891 10.3862C16.7843 10.4071 16.775 10.4244 16.7574 10.4293L16.7543 10.4195C16.7656 10.4163 16.7737 10.4045 16.7785 10.384C16.7832 10.3639 16.7842 10.3375 16.7831 10.3091C16.7817 10.2697 16.7764 10.2274 16.7721 10.1932ZM17.3953 10.6593C17.3951 10.6592 17.3948 10.6589 17.394 10.6589V10.6692C17.3891 10.6692 17.3862 10.6656 17.3848 10.6624C17.3833 10.6592 17.3827 10.6548 17.3827 10.6497C17.3827 10.6393 17.3854 10.6244 17.3923 10.6049L17.4026 10.6082C17.3959 10.627 17.3935 10.6408 17.3935 10.6497C17.3935 10.6542 17.3941 10.657 17.3948 10.6585C17.3952 10.6594 17.3954 10.6594 17.3953 10.6593ZM17.3371 10.6671C17.3375 10.6774 17.3413 10.6831 17.3455 10.6851L17.3407 10.6942C17.3313 10.6898 17.3267 10.6795 17.3262 10.6674C17.3258 10.6552 17.3295 10.64 17.3382 10.6234L17.348 10.628C17.3398 10.6434 17.3367 10.657 17.3371 10.6671ZM17.2784 10.6986C17.2789 10.7043 17.2804 10.7069 17.2819 10.7079L17.2754 10.7161C17.27 10.7123 17.2681 10.7058 17.2676 10.6994C17.267 10.6929 17.2677 10.685 17.269 10.6769C17.2709 10.6649 17.2742 10.6515 17.2772 10.6397C17.2782 10.6355 17.2792 10.6315 17.2801 10.6278L17.2907 10.63C17.2898 10.634 17.2887 10.6381 17.2877 10.6424C17.2847 10.6542 17.2816 10.6669 17.2797 10.6784C17.2785 10.6863 17.2779 10.6932 17.2784 10.6986ZM17.2075 10.7239C17.2077 10.7243 17.2078 10.7244 17.2078 10.7244L17.2001 10.7316C17.1984 10.73 17.1974 10.728 17.1966 10.726C17.1958 10.7239 17.1953 10.7215 17.1949 10.7189C17.1941 10.7137 17.194 10.7072 17.1947 10.7C17.196 10.6854 17.2004 10.6673 17.2092 10.6492L17.2191 10.6534C17.2108 10.6704 17.2068 10.6874 17.2055 10.7009C17.2049 10.7076 17.205 10.7133 17.2057 10.7176C17.206 10.7197 17.2064 10.7214 17.2069 10.7226C17.2071 10.7232 17.2073 10.7236 17.2075 10.7239Z" fill="black"/>
<path d="M16.6269 4.70987C16.654 4.74183 16.6846 4.74183 16.688 4.76101C16.6948 4.78658 16.6982 4.78658 16.7016 4.79297C16.7084 4.79936 16.688 4.79936 16.6812 4.79297H16.6337C16.6201 4.79297 16.6065 4.77699 16.6133 4.77699C16.6235 4.77379 16.6235 4.7706 16.6201 4.7642C16.6201 4.75462 16.6269 4.74503 16.6337 4.74183L16.6303 4.73224C16.6235 4.72266 16.6201 4.70028 16.6269 4.70668V4.70987ZM16.6439 4.67472C16.6869 4.6805 16.7271 4.69832 16.7593 4.72585C16.783 4.75142 16.7627 4.74503 16.7525 4.74503C16.7423 4.74503 16.7185 4.73864 16.705 4.72585C16.6872 4.70824 16.665 4.69507 16.6405 4.6875C16.6303 4.6875 16.6201 4.67472 16.6405 4.67472H16.6439Z" fill="black"/>
<path d="M-0.362061 -0.170455H10.5V7.5H-0.362061V-0.170455Z" fill="#012169"/>
<path d="M0.910838 -0.170455L5.052 2.72195L9.17619 -0.170455H10.5V0.820312L6.42673 3.68075L10.5 6.52521V7.5H9.14225L5.06897 4.63956L1.01267 7.5H-0.362061V6.54119L3.69424 3.69673L-0.362061 0.852272V-0.170455H0.910838Z" fill="white"/>
<path d="M6.83406 4.31996L10.5 6.8608V7.5L5.9006 4.31996H6.83406ZM3.71121 4.63956L3.81305 5.19886L0.554426 7.5H-0.362061L3.71121 4.63956ZM10.5 -0.170455V-0.122515L6.27398 2.88175L6.30793 2.17862L9.65141 -0.170455H10.5ZM-0.362061 -0.170455L3.69424 2.64205H2.67592L-0.362061 0.50071V-0.170455Z" fill="#C8102E"/>
<path d="M3.72819 -0.170455V7.5H6.4437V-0.170455H3.72819ZM-0.362061 2.38636V4.94318H10.5V2.38636H-0.362061Z" fill="white"/>
<path d="M-0.362061 2.91371V4.4478H10.5V2.91371H-0.362061ZM4.27129 -0.170455V7.5H5.9006V-0.170455H4.27129Z" fill="#C8102E"/>
</g>
</g>
<defs>
<clipPath id="clip0_6947_99067">
<rect width="21" height="15" fill="white"/>
</clipPath>
<clipPath id="clip1_6947_99067">
<rect width="21.7241" height="15.3409" fill="white" transform="translate(-0.362061 -0.170455)"/>
</clipPath>
</defs>
</svg>
