<svg width="21" height="15" viewBox="0 0 21 15" fill="none" xmlns="http://www.w3.org/2000/svg">
<g clip-path="url(#clip0_6947_99039)">
<g clip-path="url(#clip1_6947_99039)">
<path d="M-0.362068 -0.170456H21.3621V15.1705H-0.362068V-0.170456Z" fill="#009543"/>
<path d="M-0.362068 -0.170456H21.3621V10.0568H-0.362068V-0.170456Z" fill="#ED4135"/>
<path d="M-0.362068 -0.170456H21.3621V4.94318H-0.362068V-0.170456Z" fill="#0035AD"/>
<path d="M7.78448 12.5273C10.7333 12.5273 13.1239 10.2765 13.1239 7.5C13.1239 4.72348 10.7333 2.47266 7.78448 2.47266C4.83562 2.47266 2.4451 4.72348 2.4451 7.5C2.4451 10.2765 4.83562 12.5273 7.78448 12.5273Z" fill="#FAE600"/>
<path fill-rule="evenodd" clip-rule="evenodd" d="M7.78449 2.55735C4.8853 2.55735 2.53505 4.77025 2.53505 7.5C2.53505 10.2298 4.8853 12.4427 7.78449 12.4427C10.6837 12.4427 13.0339 10.2298 13.0339 7.5C13.0339 4.77025 10.6837 2.55735 7.78449 2.55735ZM2.35515 7.5C2.35515 4.6767 4.78595 2.38796 7.78449 2.38796C10.783 2.38796 13.2138 4.6767 13.2138 7.5C13.2138 10.3233 10.783 12.612 7.78449 12.612C4.78595 12.612 2.35515 10.3233 2.35515 7.5Z" fill="black"/>
<path d="M6.87818 8.25106H8.6874ZM6.87818 6.98864H8.6874ZM7.78449 2.48864V11.0795Z" fill="black"/>
<path fill-rule="evenodd" clip-rule="evenodd" d="M7.67586 6.88636V2.48864H7.89311V6.88636H8.6874V7.09091H7.89311V8.14879H8.6874V8.35334H7.89311V11.0795H7.67586V8.35334H6.87818V8.14879H7.67586V7.09091H6.87818V6.88636H7.67586Z" fill="black"/>
<path d="M5.63243 12.1151C7.81164 12.9556 9.85506 12.1694 9.85506 12.1694C9.85506 12.1694 9.08454 11.3832 8.69079 11.0763C8.30383 10.7759 7.1701 10.7887 6.78314 11.0763C6.38211 11.405 5.9981 11.7517 5.63243 12.1151V12.1151Z" fill="black"/>
<path d="M7.78448 10.6353C8.11443 10.6353 8.3819 10.269 8.3819 9.81711C8.3819 9.36524 8.11443 8.99893 7.78448 8.99893C7.45454 8.99893 7.18707 9.36524 7.18707 9.81711C7.18707 10.269 7.45454 10.6353 7.78448 10.6353Z" fill="black"/>
<path d="M7.78448 8.04972C8.18379 8.04972 8.50749 7.85654 8.50749 7.61825C8.50749 7.37996 8.18379 7.18679 7.78448 7.18679C7.38518 7.18679 7.06148 7.37996 7.06148 7.61825C7.06148 7.85654 7.38518 8.04972 7.78448 8.04972Z" fill="black"/>
<path d="M7.78448 6.30469C8.18379 6.30469 8.50749 5.9999 8.50749 5.62393C8.50749 5.24796 8.18379 4.94318 7.78448 4.94318C7.38518 4.94318 7.06148 5.24796 7.06148 5.62393C7.06148 5.9999 7.38518 6.30469 7.78448 6.30469Z" fill="black"/>
<path d="M8.65345 3.08629C8.65345 3.08629 8.71455 3.18217 8.58556 3.40589C7.9542 4.47656 7.31945 4.49893 7.20065 4.59162C7.06487 4.69389 7.01056 4.6875 7.01056 4.6875C7.02074 4.59481 7.02753 4.22088 7.03432 4.18572C7.13276 3.68395 7.93383 3.69034 8.5618 3.17898C8.66024 3.09908 8.65345 3.0831 8.65345 3.0831V3.08629ZM6.53534 5.38743C6.53534 5.38743 6.6813 5.77095 6.69827 6.15447C6.73222 6.76811 7.35679 6.78409 7.78448 6.78409V6.44212C7.46201 6.44212 7.18367 6.39737 6.95285 5.94993C6.83141 5.7513 6.6917 5.56308 6.53534 5.38743V5.38743ZM6.51837 10.3285C6.51837 10.3285 6.7458 10.0632 7.01395 9.44318C7.14973 9.12038 7.48238 8.93182 7.78448 8.93182V8.45241C7.09542 8.45241 6.76616 8.69212 6.73222 9.04687C6.68902 9.47781 6.6176 9.90583 6.51837 10.3285V10.3285Z" fill="black"/>
<path d="M9.03362 5.38743C9.03362 5.38743 8.88766 5.77095 8.87069 6.15447C8.83675 6.76811 8.21218 6.78409 7.78448 6.78409V6.44531C8.10695 6.44531 8.38529 6.40057 8.61611 5.94993C8.73831 5.75178 8.87748 5.56321 9.03362 5.38743ZM9.05059 10.3317C9.05059 10.3317 8.82317 10.0632 8.55501 9.44318C8.41924 9.12038 8.08659 8.93182 7.78448 8.93182V8.45881C8.47355 8.45881 8.8028 8.69851 8.83675 9.05327C8.88008 9.48313 8.9515 9.91008 9.05059 10.3317V10.3317Z" fill="black"/>
</g>
</g>
<defs>
<clipPath id="clip0_6947_99039">
<rect width="21" height="15" fill="white"/>
</clipPath>
<clipPath id="clip1_6947_99039">
<rect width="21.7241" height="15.3409" fill="white" transform="translate(-0.362068 -0.170456)"/>
</clipPath>
</defs>
</svg>
