<svg width="21" height="15" viewBox="0 0 21 15" fill="none" xmlns="http://www.w3.org/2000/svg">
<g clip-path="url(#clip0_6947_99042)">
<g clip-path="url(#clip1_6947_99042)">
<path d="M-0.362069 -0.170456H21.3621V15.1705H-0.362069V-0.170456Z" fill="#FEDD00"/>
<path d="M-0.362069 -0.170456H10.5V7.5H-0.362069V-0.170456Z" fill="#012169"/>
<path d="M0.91083 -0.170456L5.05199 2.72194L9.17618 -0.170456H10.5V0.820311L6.42672 3.68075L10.5 6.52521V7.5H9.14224L5.06897 4.63956L1.01266 7.5H-0.362069V6.54119L3.69423 3.69673L-0.362069 0.852271V-0.170456H0.91083Z" fill="white"/>
<path d="M6.83405 4.31996L10.5 6.86079V7.5L5.90059 4.31996H6.83405ZM3.71121 4.63956L3.81304 5.19886L0.554418 7.5H-0.362069L3.71121 4.63956ZM10.5 -0.170456V-0.122516L6.27398 2.88175L6.30792 2.17862L9.6514 -0.170456H10.5ZM-0.362069 -0.170456L3.69423 2.64204H2.67592L-0.362069 0.500709V-0.170456Z" fill="#C8102E"/>
<path d="M3.72818 -0.170456V7.5H6.4437V-0.170456H3.72818ZM-0.362069 2.38636V4.94318H10.5V2.38636H-0.362069Z" fill="white"/>
<path d="M-0.362069 2.91371V4.4478H10.5V2.91371H-0.362069ZM4.27128 -0.170456V7.5H5.90059V-0.170456H4.27128Z" fill="#C8102E"/>
<path d="M5.06896 4.96875C5.83383 4.96875 6.45388 4.38494 6.45388 3.66477C6.45388 2.9446 5.83383 2.36079 5.06896 2.36079C4.3041 2.36079 3.68405 2.9446 3.68405 3.66477C3.68405 4.38494 4.3041 4.96875 5.06896 4.96875Z" fill="#012169"/>
<path d="M5.06897 2.36079L5.88362 4.71946L3.75194 3.26207H6.38599L4.25431 4.71946M1.90199 2.97124L2.37721 4.35831L1.12807 3.50497H2.67931L1.42338 4.36151M8.23594 2.97124L8.71455 4.35831L7.46201 3.50178H9.01325L7.75733 4.35831M5.06897 5.52805L5.54758 6.91513L4.29165 6.05859H5.84289L4.58696 6.91513M5.06897 0.414417L5.54758 1.80149L4.29165 0.944957H5.84289L4.58696 1.80149" fill="#FEDD00"/>
</g>
</g>
<defs>
<clipPath id="clip0_6947_99042">
<rect width="21" height="15" fill="white"/>
</clipPath>
<clipPath id="clip1_6947_99042">
<rect width="21.7241" height="15.3409" fill="white" transform="translate(-0.362069 -0.170456)"/>
</clipPath>
</defs>
</svg>
