<svg width="21" height="15" viewBox="0 0 21 15" fill="none" xmlns="http://www.w3.org/2000/svg">
<mask id="mask0_1_2998" style="mask-type:luminance" maskUnits="userSpaceOnUse" x="2" y="0" width="16" height="15">
<path d="M17.9976 0H2.99756V15H17.9976V0Z" fill="white"/>
</mask>
<g mask="url(#mask0_1_2998)">
<path d="M10.4975 14.9998C14.6396 14.9998 17.9974 11.642 17.9974 7.4999C17.9974 3.35782 14.6396 0 10.4975 0C6.35538 0 2.99756 3.35782 2.99756 7.4999C2.99756 11.642 6.35538 14.9998 10.4975 14.9998Z" fill="#2768D4"/>
<path d="M17.9976 7.4999C17.9976 5.99518 17.5545 4.59392 16.7916 3.4196C16.7916 3.4196 16.3638 4.04462 16.4442 4.44638C16.5245 4.84822 16.9966 4.87886 16.948 5.17358C16.8996 5.4683 16.5513 5.08921 16.1228 5.86597C15.6941 6.64274 15.9085 7.71441 16.5245 7.79462C17.1406 7.87489 17.9976 7.4999 17.9976 7.4999ZM12.4673 0.261324C13.3284 0.495371 14.1407 0.881867 14.8654 1.40248C14.8654 1.40248 13.9958 1.25904 13.6663 1.55359C13.3369 1.8482 12.8565 2.54475 12.4673 1.55359C12.0781 0.562493 12.4673 0.261324 12.4673 0.261324ZM4.85876 2.55524C6.23323 0.988817 8.24989 0 10.4977 0C10.4977 0 9.98892 0.308082 10.9532 0.830379C11.9175 1.35273 11.4754 1.59378 11.2746 1.75445C11.0737 1.91523 10.7253 1.43307 10.4977 1.11168C10.2701 0.790243 9.29272 0.294781 8.54267 0.562668C7.79268 0.830555 7.14992 1.02848 7.25702 1.27773C7.36402 1.52693 8.64972 1.04495 9.13189 1.07167C9.61399 1.09838 9.45327 1.39293 8.998 1.74121C8.54267 2.08943 8.48901 2.51798 8.97117 2.7858C9.45328 3.05369 10.0424 3.08053 10.1765 2.91986C10.3105 2.75914 9.93543 1.71449 10.8461 2.16982C11.7568 2.62508 12.5069 2.89314 11.7568 3.56268C11.0068 4.23217 10.1497 4.98239 10.1229 5.41083C10.0961 5.83932 10.3909 6.18777 10.2301 6.21443C10.0694 6.24108 9.92195 6.04041 9.81484 5.89293C9.70785 5.74563 9.21222 5.69213 8.97117 5.78582C8.73012 5.87945 8.27467 6.24108 8.52919 6.58937C8.78372 6.93764 9.13165 6.77674 9.47998 6.93747C9.82826 7.09818 10.153 7.70983 10.0863 7.84812C10.0196 7.98628 9.72279 7.81132 9.47998 7.33923C9.23717 6.86715 8.78174 7.17858 8.46129 7.09818C8.14079 7.01785 7.89967 6.9643 7.57829 6.40175C7.25679 5.83938 6.59135 5.68199 6.31942 5.35715C5.54048 4.42699 5.59621 3.72329 5.43549 3.40191C5.27476 3.08035 4.85876 2.55524 4.85876 2.55524ZM11.2209 7.60707C11.2209 7.60707 12.0245 7.68728 12.4263 8.03562C12.828 8.38383 12.8817 8.51783 13.4978 8.65175C14.1138 8.78558 14.3816 9.13367 13.9798 9.80342C13.5781 10.473 12.8548 11.5445 12.5067 11.8659C12.1585 12.1874 11.7299 12.4553 11.5692 12.9909C11.4085 13.5265 11.3548 13.8478 11.703 14.0623C11.703 14.0623 11.5157 14.5177 11.0871 13.9283C10.6584 13.339 11.0067 12.6427 11.0871 12.2409C11.1674 11.8391 11.3817 10.6339 11.2478 10.3392C11.1139 10.0444 10.4977 9.85683 10.337 9.24092C10.1763 8.62492 10.4576 7.42618 11.2209 7.60707Z" fill="#00EE98"/>
</g>
</svg>
