<svg width="21" height="15" viewBox="0 0 21 15" fill="none" xmlns="http://www.w3.org/2000/svg">
<g clip-path="url(#clip0_6947_99038)">
<g clip-path="url(#clip1_6947_99038)">
<path d="M-0.362068 -0.170455H21.3621V15.1705H-0.362068V-0.170455Z" fill="white"/>
<path d="M2.35345 -0.170455H18.6465V15.1705H2.35345V-0.170455Z" fill="white"/>
<path fill-rule="evenodd" clip-rule="evenodd" d="M9.05059 10.7216C9.05059 10.7216 9.41719 10.4403 9.777 10.4403C10.1368 10.4403 10.2318 10.6737 10.483 10.6928C10.7308 10.712 10.9379 10.4595 11.2468 10.4499C11.5557 10.4403 11.9426 10.6545 11.9426 10.6545L10.5917 11.038L9.05059 10.7184V10.7216ZM8.27328 10.3061L12.8693 10.3285C12.8693 10.3285 12.4721 9.92259 12.0037 9.913C11.5353 9.90661 11.6643 10.1048 11.3079 10.1303C10.9481 10.1591 10.8598 9.92578 10.5306 9.93217C10.2047 9.94176 10.0146 10.1303 9.76681 10.1399C9.51563 10.1495 9.19995 9.90661 9.00986 9.91619C8.81978 9.92578 8.14429 10.1942 8.14429 10.1942L8.27328 10.3093V10.3061ZM7.68605 9.79474L13.3547 9.81072C13.4463 9.68928 13.0763 9.39844 12.7403 9.37287C12.462 9.38246 12.2651 9.64453 12.0343 9.65412C11.8035 9.66371 11.5455 9.38246 11.2875 9.39205C11.0295 9.40163 10.7614 9.65412 10.5034 9.65412C10.242 9.65412 10.0553 9.38246 9.72608 9.38246C9.39682 9.38246 9.25086 9.67969 8.99968 9.66371C8.75189 9.64453 8.53125 9.36328 8.29364 9.36328C8.05604 9.36328 7.65889 9.69886 7.58082 9.68288C7.49936 9.66051 7.67926 9.82031 7.68605 9.79155V9.79474Z" fill="#083D9C"/>
<path fill-rule="evenodd" clip-rule="evenodd" d="M8.07879 9.38644C8.15202 9.35464 8.2268 9.33132 8.29364 9.33132C8.36014 9.33132 8.42377 9.35099 8.48426 9.37881C8.54459 9.40656 8.60402 9.44353 8.66167 9.47971L8.66495 9.48177C8.78187 9.55516 8.89003 9.62307 9.00221 9.63184C9.10975 9.63858 9.19627 9.58114 9.30349 9.50996C9.30699 9.50764 9.31051 9.5053 9.31406 9.50295C9.42311 9.43063 9.54975 9.3505 9.72608 9.3505C9.90096 9.3505 10.0371 9.42295 10.1576 9.49087C10.1637 9.49429 10.1697 9.4977 10.1757 9.50108C10.2912 9.56633 10.39 9.62216 10.5034 9.62216C10.6225 9.62216 10.7464 9.56357 10.8798 9.49832C10.8835 9.49649 10.8873 9.49465 10.8911 9.49281C11.0171 9.4311 11.152 9.3651 11.2862 9.36011C11.4267 9.35489 11.5645 9.42862 11.688 9.49537C11.691 9.49703 11.6941 9.49868 11.6971 9.50033C11.7571 9.53279 11.8143 9.56372 11.87 9.58656C11.9285 9.61055 11.9824 9.62428 12.0328 9.62219C12.0839 9.62007 12.1346 9.6039 12.1876 9.5789C12.2357 9.55624 12.2836 9.52733 12.3344 9.49666C12.34 9.49332 12.3456 9.48995 12.3512 9.48656C12.4633 9.41913 12.5894 9.34609 12.7391 9.34093L12.7411 9.34086L12.743 9.34101C12.9192 9.35442 13.1019 9.43675 13.2289 9.53072C13.2923 9.57771 13.3441 9.62923 13.3741 9.67886C13.4034 9.72729 13.4169 9.78344 13.3824 9.82924L13.3722 9.84273L7.68605 9.8267C7.68226 9.82713 7.67871 9.82703 7.67559 9.82668L7.6521 9.82661V9.81911C7.64648 9.81633 7.64106 9.8131 7.63621 9.80999C7.61741 9.79796 7.59518 9.77996 7.57634 9.76221C7.55856 9.74547 7.53938 9.72492 7.53106 9.70773C7.52886 9.7032 7.52609 9.6963 7.52578 9.68823C7.52543 9.67922 7.52833 9.66656 7.54038 9.65742C7.55081 9.64951 7.56256 9.64864 7.56925 9.64878C7.57548 9.64891 7.58168 9.65001 7.58743 9.65144C7.58809 9.65139 7.58938 9.65124 7.59143 9.65079C7.59598 9.6498 7.60231 9.6478 7.61065 9.6444C7.62737 9.6376 7.64869 9.62667 7.67431 9.61225C7.70488 9.59505 7.73926 9.57425 7.77688 9.55149C7.80289 9.53575 7.83045 9.51907 7.85938 9.502C7.92906 9.46086 8.0049 9.41853 8.07879 9.38644ZM7.68607 9.78804L7.68615 9.76365C7.68581 9.76356 7.68482 9.76331 7.68331 9.76317C7.68165 9.76301 7.67835 9.76289 7.67419 9.76392C7.66972 9.76503 7.66451 9.76745 7.6601 9.7719C7.65576 9.77628 7.65375 9.78105 7.65291 9.78462L7.68607 9.78804ZM7.68615 9.76365L7.68615 9.76278L13.3335 9.7787C13.3374 9.76325 13.3336 9.74113 13.3151 9.71048C13.291 9.67061 13.2465 9.62506 13.1869 9.58097C13.0682 9.49313 12.8988 9.41752 12.7396 9.40488C12.6117 9.40989 12.5008 9.47238 12.3877 9.54042C12.3821 9.54381 12.3765 9.54722 12.3708 9.55063C12.3205 9.58097 12.2695 9.61178 12.218 9.63605C12.1605 9.66319 12.1001 9.68338 12.0358 9.68605C11.9707 9.68875 11.9058 9.67093 11.8429 9.64517C11.7836 9.62085 11.7234 9.58827 11.6644 9.55636C11.661 9.5545 11.6576 9.55265 11.6542 9.5508C11.5264 9.48171 11.4062 9.41962 11.2888 9.42398C11.1701 9.4284 11.047 9.48858 10.9146 9.55335L10.9111 9.55504C10.7815 9.61842 10.6422 9.68608 10.5034 9.68608C10.3704 9.68608 10.256 9.62123 10.1455 9.55857C10.1379 9.55427 10.1303 9.54997 10.1228 9.54571C10.0023 9.47779 9.88045 9.41442 9.72608 9.41442C9.57315 9.41442 9.46218 9.4829 9.35315 9.55521C9.34738 9.55903 9.3416 9.56288 9.33581 9.56674C9.23524 9.63375 9.12979 9.70402 8.99739 9.6956L8.99714 9.69558L8.9969 9.69556C8.86683 9.6855 8.74563 9.60933 8.63522 9.53994C8.63147 9.53758 8.62774 9.53523 8.62401 9.5329C8.56583 9.49637 8.51006 9.46182 8.45446 9.43624C8.399 9.41073 8.34595 9.39524 8.29364 9.39524C8.24169 9.39524 8.17772 9.41387 8.10722 9.44449C8.03738 9.47482 7.96449 9.51539 7.89544 9.55615C7.86815 9.57226 7.84115 9.58859 7.81523 9.60427C7.77658 9.62764 7.74034 9.64956 7.70913 9.66712C7.68283 9.68192 7.65846 9.69458 7.63758 9.70308C7.6308 9.70584 7.62402 9.70831 7.61738 9.71029C7.61957 9.71246 7.62189 9.71471 7.62434 9.71701C7.64114 9.73283 7.66007 9.74798 7.67436 9.75712C7.67785 9.75936 7.68076 9.76104 7.68306 9.76221C7.6848 9.7631 7.6858 9.76352 7.68615 9.76365ZM11.737 9.91025C11.801 9.89077 11.8847 9.87941 12.0042 9.88104L12.0045 9.88104C12.2483 9.88604 12.4713 9.99386 12.6315 10.098C12.7119 10.1504 12.7774 10.2023 12.8228 10.2413C12.8455 10.2608 12.8632 10.277 12.8753 10.2885C12.8814 10.2942 12.8861 10.2987 12.8892 10.3018C12.8908 10.3034 12.892 10.3046 12.8929 10.3054L12.8939 10.3064L12.8942 10.3068L12.8942 10.3068C12.8942 10.3068 12.8943 10.3068 12.8693 10.3285L12.8942 10.3068L12.9471 10.3608L8.30722 10.3382V10.3836L8.08324 10.1838L8.13109 10.1648L8.14429 10.1942C8.13109 10.1648 8.13108 10.1648 8.13109 10.1648L8.13113 10.1648L8.13308 10.164L8.13881 10.1617C8.14384 10.1598 8.15122 10.1569 8.16068 10.1532C8.17959 10.1458 8.2068 10.1352 8.24005 10.1225C8.30651 10.0971 8.39717 10.0632 8.49383 10.0289C8.59042 9.99465 8.69336 9.95996 8.78429 9.93318C8.87403 9.90676 8.95571 9.88692 9.00805 9.88428C9.0628 9.88152 9.12358 9.89687 9.18492 9.91853C9.23885 9.93757 9.2965 9.96274 9.35445 9.98805C9.36285 9.99172 9.37126 9.99539 9.37966 9.99904C9.5155 10.0581 9.64952 10.1124 9.76544 10.108C9.87336 10.1038 9.96988 10.0635 10.0805 10.0173C10.0888 10.0138 10.0972 10.0103 10.1057 10.0068C10.2255 9.95704 10.3596 9.90523 10.5295 9.90023L10.5299 9.90022C10.6953 9.89701 10.8043 9.9516 10.9068 10.003C10.9124 10.0058 10.918 10.0086 10.9236 10.0114C11.0301 10.0645 11.135 10.1121 11.305 10.0985L11.3053 10.0985C11.3907 10.0923 11.4449 10.0761 11.4855 10.0563C11.5187 10.0401 11.5435 10.0215 11.5711 10.0007C11.5781 9.99545 11.5853 9.99002 11.5929 9.98446C11.63 9.95729 11.6725 9.92992 11.737 9.91025ZM8.20555 10.2049L8.28327 10.2742L12.7858 10.2961C12.783 10.2937 12.7801 10.2911 12.7771 10.2885C12.7334 10.2511 12.6703 10.201 12.5929 10.1506C12.4374 10.0495 12.2276 9.94958 12.0031 9.94495C11.8884 9.9434 11.8127 9.95441 11.7579 9.97107C11.7038 9.98756 11.6684 10.0101 11.6346 10.0349C11.6284 10.0395 11.622 10.0443 11.6155 10.0492C11.5874 10.0704 11.5565 10.0937 11.5167 10.1131C11.4666 10.1374 11.4033 10.1555 11.3106 10.1622C11.1209 10.1773 11.0017 10.1227 10.8919 10.0679C10.8868 10.0653 10.8817 10.0628 10.8767 10.0603C10.7739 10.0089 10.6788 9.9613 10.5314 9.96412C10.3756 9.96874 10.2518 10.016 10.1331 10.0653C10.124 10.0691 10.1148 10.0729 10.1057 10.0767C9.9978 10.1219 9.88967 10.1671 9.7682 10.1718C9.63294 10.177 9.48351 10.1146 9.35119 10.0571C9.34264 10.0534 9.33416 10.0496 9.32575 10.046C9.26749 10.0205 9.21242 9.99651 9.16109 9.97838C9.10193 9.95749 9.05197 9.94608 9.01168 9.94811C8.96897 9.95026 8.89493 9.96758 8.80455 9.99419C8.71538 10.0204 8.6138 10.0547 8.51776 10.0887C8.42179 10.1228 8.33169 10.1565 8.26556 10.1818C8.24233 10.1906 8.22206 10.1985 8.20555 10.2049ZM9.04569 10.6847L9.01665 10.6786V10.7889L9.06259 10.7536L10.593 11.071L12.0268 10.664L11.9598 10.6269L11.9426 10.6545C11.9598 10.6269 11.9598 10.6269 11.9598 10.6269L11.9598 10.6269L11.9597 10.6269L11.9595 10.6267L11.9585 10.6262C11.9577 10.6258 11.9566 10.6251 11.955 10.6243C11.952 10.6227 11.9476 10.6203 11.9418 10.6173C11.9304 10.6114 11.9138 10.6029 11.8929 10.5928C11.8511 10.5725 11.7922 10.5456 11.7234 10.519C11.5869 10.4663 11.4075 10.413 11.2456 10.418C11.0826 10.423 10.9472 10.4921 10.827 10.5535L10.8258 10.5541C10.7021 10.6172 10.5978 10.6696 10.4858 10.661L10.4858 10.661C10.3847 10.6533 10.3121 10.6084 10.2259 10.5551C10.2139 10.5477 10.2017 10.5402 10.1891 10.5325C10.0866 10.4703 9.9663 10.4084 9.77699 10.4084C9.58864 10.4084 9.40103 10.4817 9.26259 10.5529C9.19294 10.5888 9.1348 10.6246 9.09403 10.6515C9.07362 10.6649 9.05753 10.6762 9.04648 10.6841C9.04622 10.6843 9.04595 10.6845 9.04569 10.6847ZM9.1342 10.703L10.5903 11.005L11.8546 10.6461C11.8147 10.6269 11.7603 10.6024 11.6976 10.5782C11.5635 10.5263 11.3949 10.4773 11.2479 10.4819C11.1026 10.4864 10.9804 10.5479 10.8582 10.6103L10.8521 10.6134C10.7349 10.6732 10.6138 10.735 10.4803 10.7247C10.3608 10.7156 10.273 10.661 10.1878 10.6081C10.176 10.6008 10.1642 10.5934 10.1524 10.5863C10.0546 10.527 9.94749 10.4723 9.77699 10.4723C9.60554 10.4723 9.42995 10.5396 9.29515 10.609C9.22887 10.6431 9.17335 10.6773 9.1342 10.703Z" fill="#083D9C"/>
<path fill-rule="evenodd" clip-rule="evenodd" d="M9.86525 6.82564L11.1687 7.15163V5.40021C10.5713 5.43217 10.0757 4.33274 11.128 4.25923C10.0927 4.11861 9.97387 4.37109 9.85506 4.64276L9.86525 6.82564V6.82564Z" fill="#FF0000"/>
<path fill-rule="evenodd" clip-rule="evenodd" d="M10.1293 4.26045C10.3153 4.17543 10.6148 4.14916 11.134 4.21969C11.1555 4.2226 11.1711 4.24024 11.1704 4.26062C11.1696 4.28099 11.1527 4.29757 11.1311 4.29907C10.8757 4.31691 10.7226 4.39629 10.64 4.49736C10.5574 4.59853 10.5396 4.72883 10.5711 4.86049C10.6027 4.99234 10.6832 5.12202 10.7912 5.21648C10.8992 5.31097 11.0314 5.36754 11.1663 5.36033C11.1779 5.3597 11.1894 5.36363 11.1978 5.37117C11.2063 5.37872 11.2111 5.38922 11.2111 5.40021V7.15163C11.2111 7.16404 11.205 7.17574 11.1946 7.1833C11.1841 7.19086 11.1705 7.19343 11.1578 7.19024L9.85436 6.86425L9.86525 6.82564L9.82282 6.82581L9.81264 4.64293C9.81261 4.63765 9.8137 4.63242 9.81583 4.62754C9.87515 4.49191 9.93951 4.34718 10.1293 4.26045ZM9.90754 6.79488L11.1263 7.09969V5.44058C10.9793 5.43592 10.8425 5.37036 10.7335 5.27503C10.6134 5.17004 10.5238 5.02625 10.4883 4.87806C10.4528 4.72967 10.471 4.57332 10.5728 4.44867C10.6354 4.37188 10.7276 4.30991 10.8523 4.26921C10.5044 4.24158 10.2974 4.27243 10.1664 4.33233C10.0111 4.40328 9.9558 4.5177 9.89753 4.65058L9.90754 6.79488Z" fill="black"/>
<path fill-rule="evenodd" clip-rule="evenodd" d="M9.04041 8.09766L11.9834 8.10724Z" fill="#083D9C"/>
<path fill-rule="evenodd" clip-rule="evenodd" d="M8.95555 8.09738C8.95571 8.05325 8.99384 8.0176 9.0407 8.01776L11.9836 8.02734C12.0305 8.0275 12.0684 8.06339 12.0682 8.10752C12.0681 8.15165 12.0299 8.1873 11.9831 8.18714L9.04012 8.17756C8.99325 8.1774 8.95539 8.14151 8.95555 8.09738Z" fill="#083D9C"/>
<path fill-rule="evenodd" clip-rule="evenodd" d="M9.38225 7.34024C9.41972 7.34148 9.44902 7.37109 9.4477 7.40637L9.44535 7.46895L9.50392 7.40187C9.52773 7.37461 9.57052 7.37068 9.59948 7.3931C9.62844 7.41552 9.63261 7.4558 9.6088 7.48307L9.44856 7.66657L9.58347 7.83552C9.606 7.86374 9.59997 7.90381 9.57 7.92503C9.54003 7.94624 9.49747 7.94056 9.47494 7.91235L9.35982 7.76818L9.23202 7.91453C9.20821 7.9418 9.16543 7.94573 9.13647 7.92331C9.10751 7.90089 9.10333 7.86061 9.12714 7.83334L9.27587 7.66303L9.12532 7.47449C9.10279 7.44627 9.10882 7.4062 9.13879 7.38499C9.16875 7.36377 9.21131 7.36945 9.23385 7.39767L9.30865 7.49135L9.31201 7.40186C9.31333 7.36658 9.34478 7.33899 9.38225 7.34024ZM9.93893 7.34024C9.9764 7.34148 10.0057 7.37109 10.0044 7.40637L10.002 7.46895L10.0606 7.40187C10.0844 7.37461 10.1272 7.37068 10.1562 7.3931C10.1851 7.41552 10.1893 7.4558 10.1655 7.48307L10.0058 7.66598L10.1403 7.8357C10.1627 7.86399 10.1565 7.90404 10.1265 7.92516C10.0964 7.94628 10.0539 7.94046 10.0315 7.91217L9.91694 7.76768L9.7887 7.91453C9.76489 7.9418 9.72211 7.94573 9.69315 7.92331C9.66419 7.90089 9.66001 7.86061 9.68382 7.83334L9.8333 7.66216L9.68186 7.47112C9.65943 7.44283 9.66561 7.40277 9.69566 7.38166C9.7257 7.36054 9.76824 7.36636 9.79067 7.39465L9.86542 7.48895L9.86869 7.40186C9.87001 7.36658 9.90146 7.33899 9.93893 7.34024ZM10.5058 7.34024C10.5433 7.34148 10.5726 7.37109 10.5712 7.40637L10.5689 7.46895L10.6275 7.40187C10.6513 7.37461 10.6941 7.37068 10.723 7.3931C10.752 7.41552 10.7562 7.4558 10.7323 7.48307L10.5726 7.66598L10.7072 7.8357C10.7296 7.86399 10.7234 7.90404 10.6934 7.92516C10.6633 7.94628 10.6208 7.94046 10.5983 7.91217L10.4838 7.76768L10.3556 7.91453C10.3318 7.9418 10.289 7.94573 10.26 7.92331C10.2311 7.90089 10.2269 7.86061 10.2507 7.83334L10.4002 7.66216L10.2487 7.47112C10.2263 7.44283 10.2325 7.40277 10.2625 7.38166C10.2926 7.36054 10.3351 7.36636 10.3575 7.39465L10.4323 7.48895L10.4356 7.40186C10.4369 7.36658 10.4683 7.33899 10.5058 7.34024ZM11.6565 7.34024C11.694 7.34148 11.7233 7.37109 11.7219 7.40637L11.7194 7.47301L11.7816 7.40187C11.8054 7.37461 11.8482 7.37068 11.8771 7.3931C11.9061 7.41552 11.9102 7.4558 11.8864 7.48307L11.7249 7.66802L11.8579 7.8357C11.8803 7.86399 11.8741 7.90404 11.8441 7.92516C11.814 7.94628 11.7715 7.94046 11.749 7.91217L11.6361 7.76971L11.5097 7.91453C11.4858 7.9418 11.4431 7.94573 11.4141 7.92331C11.3851 7.90089 11.381 7.86061 11.4048 7.83334L11.5525 7.6642L11.3994 7.47112C11.377 7.44283 11.3832 7.40277 11.4132 7.38166C11.4433 7.36054 11.4858 7.36636 11.5082 7.39465L11.583 7.48895L11.5863 7.40186C11.5876 7.36658 11.619 7.33899 11.6565 7.34024ZM11.0888 7.34022C11.1263 7.34105 11.156 7.37033 11.1551 7.40562L11.1534 7.47202L11.2147 7.40187C11.2385 7.37461 11.2813 7.37068 11.3103 7.3931C11.3392 7.41552 11.3434 7.4558 11.3196 7.48307L11.1587 7.66724L11.2912 7.83594C11.3135 7.86433 11.3071 7.90435 11.2769 7.92534C11.2468 7.94632 11.2043 7.94032 11.182 7.91193L11.0698 7.76905L10.9428 7.91453C10.919 7.9418 10.8762 7.94573 10.8472 7.92331C10.8183 7.90089 10.8141 7.86061 10.8379 7.83334L10.9866 7.66305L10.8358 7.47088C10.8135 7.44249 10.8199 7.40246 10.85 7.38148C10.8802 7.3605 10.9227 7.3665 10.945 7.39489L11.0173 7.48699L11.0194 7.40262C11.0202 7.36732 11.0513 7.33939 11.0888 7.34022Z" fill="black"/>
<path fill-rule="evenodd" clip-rule="evenodd" d="M7.06148 8.12642L8.31401 8.13601V7.39773L6.88158 7.33061L7.06148 8.12642ZM7.00038 7.10369L8.33438 7.22834L8.32419 6.70419L7.02075 6.2152L7.00038 7.10689V7.10369ZM7.27193 6.05859L8.29365 6.52521L8.4396 6.38139C8.4396 6.38139 8.34456 6.32067 8.35135 6.26314C8.35135 6.20881 8.44639 6.19922 8.44639 6.1353C8.44639 6.08097 8.34456 6.07138 8.34117 6.01705C8.33438 5.95312 8.42263 5.8892 8.42263 5.8892L7.49936 5.13175L7.26854 6.05859H7.27193ZM13.9928 8.13601H12.669L12.6588 7.41371L14.1116 7.31143L13.9928 8.13601ZM12.6792 7.24432L14.2508 7.06534L13.9114 6.212L12.669 6.71058L12.6792 7.24432ZM13.8231 5.97869L12.6894 6.54119C12.6724 6.47727 12.6588 6.41974 12.5808 6.3718C12.5808 6.3718 12.6487 6.33345 12.6487 6.26953C12.6487 6.20561 12.5604 6.19283 12.5604 6.15767C12.5604 6.12251 12.6419 6.08736 12.6487 6.00107C12.6385 5.94354 12.5604 5.86044 12.574 5.84446L13.4565 5.21165L13.8231 5.97869V5.97869ZM11.3656 7.22834L11.9324 7.20597L11.9426 6.99183L11.3656 7.22834V7.22834ZM9.63443 7.21236L9.04041 7.19638V6.97266L9.63783 7.21236H9.63443ZM9.63443 7.14844L9.04041 6.8608V6.48366C9.04041 6.48366 8.97253 6.49325 8.97931 6.41974C8.98271 6.26314 9.41719 6.70419 9.63783 6.84801L9.63443 7.14844V7.14844ZM11.3656 7.11328V6.86719C11.3656 6.86719 11.9019 6.41335 12.0139 6.32706C12.0139 6.42294 11.9528 6.49325 11.9528 6.49325V6.85121L11.3656 7.11328V7.11328ZM7.88632 5.06463L8.49052 5.69425C8.5041 5.63672 8.64327 5.62713 8.78244 5.63672C8.91821 5.64631 9.03023 5.62713 9.03023 5.71982C9.03023 5.8125 8.96234 5.79972 8.96234 5.86683C8.96234 5.93395 9.06417 5.92756 9.06417 6.01065C9.06417 6.09375 8.9895 6.07777 8.9895 6.14169C8.9895 6.19602 9.07096 6.19922 9.07096 6.19922L9.63443 6.71378V6.16406L8.47355 4.4478L7.88632 5.06463V5.06463ZM8.81638 4.41264L9.60728 5.93075C9.60728 5.93075 9.61407 4.53089 9.74645 4.45739L9.52581 4.07386L8.81638 4.41264V4.41264ZM12.2447 4.47337L11.3622 5.94993V5.3267C11.3622 5.3267 11.4369 5.22443 11.3214 5.23082C11.206 5.24041 11.0669 5.22443 11.0669 5.22443L11.4199 4.05469L12.2447 4.47017V4.47337ZM13.1476 5.10298C13.1374 5.11896 12.5536 5.67827 12.5536 5.67827C12.5265 5.61435 12.3499 5.64631 12.1802 5.64631C12.0139 5.64631 11.9901 5.69744 12.0003 5.73899C12.0173 5.84446 12.075 5.76456 12.075 5.86683C12.075 5.96591 11.9935 5.93075 11.9834 6.00107C11.9935 6.08736 12.1123 6.06499 12.0411 6.12891L11.3656 6.74254V6.16087L12.6249 4.31996L13.1476 5.10298Z" fill="#EF7D08"/>
<path fill-rule="evenodd" clip-rule="evenodd" d="M10.1538 8.40767C9.87204 8.84872 9.11509 8.71768 8.93518 8.40767C8.88427 8.39489 8.91482 6.50604 8.91482 6.50604C8.91482 6.50604 8.82996 6.47088 8.82656 6.41016C8.82317 6.35263 8.94197 6.34624 8.94197 6.27273C8.94197 6.19922 8.81977 6.22798 8.81638 6.15128C8.81638 6.08097 8.94876 6.08736 8.94197 6.02344C8.93518 5.94673 8.79601 5.95952 8.78923 5.8892C8.78923 5.83487 8.89106 5.78693 8.91821 5.76136C8.88653 5.76205 8.85485 5.76205 8.82317 5.76136L8.60593 5.76456C8.44979 5.76456 8.60593 5.79652 8.60593 5.87962C8.60593 5.93395 8.52786 5.9723 8.52107 6.01705C8.51767 6.06818 8.62969 6.10014 8.63308 6.16087C8.63308 6.212 8.52107 6.2152 8.52446 6.26634C8.53125 6.34624 8.62629 6.36541 8.6229 6.41655C8.6229 6.46449 8.5007 6.48366 8.49731 6.52202C8.5041 6.59872 8.51767 8.4652 8.51767 8.4652C8.71115 9.41761 9.8347 9.65732 10.1538 8.40767ZM10.8971 8.40767C11.1789 8.84872 11.9358 8.71768 12.1123 8.40767C12.1666 8.39489 12.1361 6.50604 12.1361 6.50604C12.1361 6.50604 12.221 6.47088 12.2244 6.41016C12.2277 6.35263 12.1157 6.34624 12.1157 6.27273C12.1157 6.19922 12.2311 6.22798 12.2311 6.15128C12.2311 6.08097 12.1123 6.08736 12.1191 6.01705C12.1259 5.94354 12.221 5.95312 12.2244 5.88281C12.2277 5.82209 12.1666 5.78693 12.1361 5.76136H12.2277L12.445 5.76456C12.5977 5.76456 12.445 5.79652 12.445 5.87962C12.445 5.93395 12.5231 5.9723 12.5298 6.01705C12.5298 6.06818 12.4212 6.10014 12.4178 6.16087C12.4178 6.212 12.5298 6.2152 12.5265 6.26634C12.5197 6.34624 12.4246 6.36541 12.4246 6.41655C12.428 6.46449 12.5502 6.48366 12.5502 6.52202L12.5332 8.4652C12.3398 9.41761 11.2128 9.65732 10.8971 8.40767V8.40767Z" fill="#FF0000"/>
<path fill-rule="evenodd" clip-rule="evenodd" d="M8.95722 5.74566C8.96404 5.76066 8.96047 5.77807 8.94821 5.78961C8.93843 5.79883 8.92375 5.80865 8.91153 5.81682L8.91117 5.81706C8.91014 5.81774 8.90912 5.81843 8.90809 5.81912C8.89534 5.82763 8.8824 5.83628 8.87022 5.84556C8.85694 5.85567 8.84644 5.86515 8.83952 5.87385C8.83404 5.88074 8.83233 5.88521 8.83183 5.88763C8.83251 5.89004 8.83438 5.89283 8.84034 5.89701C8.84977 5.90362 8.86294 5.90914 8.88275 5.91738L8.88311 5.91753C8.90045 5.92475 8.92375 5.93444 8.94279 5.94886C8.96362 5.96464 8.98126 5.98743 8.98423 6.0198C8.98748 6.05159 8.97206 6.07489 8.95324 6.09049C8.93776 6.10331 8.91777 6.11268 8.9034 6.11942C8.90247 6.11986 8.90157 6.12028 8.9007 6.12069C8.88353 6.12878 8.8725 6.13434 8.86513 6.1405C8.85996 6.14482 8.85895 6.14737 8.85882 6.15051C8.85926 6.15684 8.86125 6.15899 8.86438 6.16142C8.87028 6.16598 8.8793 6.16979 8.89611 6.17607C8.8969 6.17637 8.8977 6.17667 8.89854 6.17698C8.91238 6.18213 8.93305 6.18982 8.94964 6.20257C8.97032 6.21845 8.9844 6.24151 8.9844 6.27273C8.9844 6.33289 8.93423 6.36368 8.90727 6.38022C8.9069 6.38045 8.90653 6.38068 8.90617 6.3809C8.90487 6.3817 8.9036 6.38248 8.90238 6.38323C8.88812 6.39197 8.87919 6.39744 8.87286 6.40328C8.86995 6.40597 8.86909 6.40746 8.86891 6.40782C8.8689 6.40783 8.86891 6.40761 8.86893 6.40794L8.86893 6.40806C8.86966 6.42112 8.87989 6.43561 8.89855 6.44973C8.90708 6.45619 8.91573 6.46129 8.92232 6.46478C8.92557 6.4665 8.9282 6.46778 8.92992 6.46857C8.93078 6.46897 8.9314 6.46925 8.93174 6.4694L8.93198 6.4695L8.93195 6.46949M8.87202 6.52961C8.86405 6.52501 8.8548 6.51914 8.84538 6.512C8.82076 6.49337 8.78688 6.45994 8.78419 6.41231C8.78246 6.38263 8.79751 6.36094 8.81346 6.34622C8.8263 6.33437 8.84284 6.32431 8.85533 6.31671C8.85689 6.31576 8.85839 6.31485 8.85982 6.31397C8.89171 6.29439 8.89954 6.28524 8.89954 6.27273C8.89954 6.2672 8.89835 6.26629 8.89601 6.26449C8.89059 6.26032 8.882 6.25677 8.86478 6.25033C8.86424 6.25013 8.86368 6.24992 8.86311 6.2497C8.84892 6.24441 8.82777 6.23651 8.81049 6.22314C8.7899 6.20719 8.77537 6.18426 8.77399 6.15294C8.77396 6.15239 8.77395 6.15183 8.77395 6.15128C8.77395 6.11963 8.78976 6.09666 8.80879 6.08076C8.82558 6.06671 8.84656 6.05685 8.86157 6.04978C8.86197 6.0496 8.86236 6.04941 8.86275 6.04923C8.88051 6.04086 8.89075 6.03583 8.89719 6.03049C8.89872 6.02923 8.89947 6.02837 8.89979 6.02795C8.89979 6.02782 8.89978 6.02764 8.89975 6.02741L8.89969 6.02676C8.89917 6.02094 8.89692 6.01667 8.8896 6.01112C8.88056 6.00427 8.86757 5.99842 8.84845 5.99047C8.8473 5.98999 8.84611 5.9895 8.8449 5.98899C8.82856 5.98223 8.80715 5.97335 8.78967 5.9611C8.76915 5.94673 8.75008 5.92504 8.74697 5.89282C8.74685 5.89162 8.74679 5.89041 8.74679 5.8892C8.74679 5.86368 8.75869 5.84218 8.7716 5.82595C8.7785 5.81728 8.78642 5.80919 8.79466 5.80174L8.61931 5.80432C8.63395 5.82255 8.64836 5.84785 8.64836 5.87962C8.64836 5.92388 8.61686 5.95786 8.59806 5.97815L8.59801 5.9782C8.59578 5.9806 8.59367 5.98286 8.59165 5.98502C8.5835 5.99375 8.57699 6.00071 8.57153 6.0078C8.56709 6.01356 8.56494 6.01747 8.56391 6.01995C8.56458 6.0212 8.566 6.02337 8.56896 6.02664C8.57616 6.03461 8.5867 6.04291 8.60169 6.05467L8.60175 6.05471C8.61526 6.06531 8.63248 6.07883 8.64625 6.09438C8.66034 6.11028 8.67394 6.13169 8.67545 6.15877C8.67549 6.15947 8.67551 6.16017 8.67551 6.16087C8.67551 6.18972 8.65885 6.20968 8.64297 6.22228C8.62902 6.23335 8.61169 6.24187 8.59923 6.24798C8.59853 6.24833 8.59784 6.24867 8.59716 6.249C8.58222 6.25636 8.57346 6.26097 8.568 6.26549C8.56765 6.26578 8.56735 6.26604 8.5671 6.26626C8.57003 6.2881 8.58383 6.30322 8.60639 6.32297C8.60792 6.32431 8.60956 6.32573 8.61127 6.32721C8.62118 6.33578 8.63374 6.34663 8.64327 6.35807C8.65533 6.37252 8.66662 6.39238 8.66532 6.41785C8.66477 6.44663 8.64604 6.46654 8.63111 6.4784C8.6157 6.49064 8.59647 6.50052 8.58137 6.50812C8.57913 6.50924 8.57697 6.51032 8.57488 6.51137C8.56117 6.51824 8.5508 6.52343 8.54285 6.52873C8.54184 6.5294 8.54098 6.53 8.54025 6.53053C8.54195 6.57153 8.54383 6.69464 8.54578 6.85755C8.54801 7.04338 8.55034 7.28392 8.55246 7.52204C8.55459 7.76016 8.55649 7.99588 8.55787 8.17207C8.55856 8.26016 8.55912 8.33338 8.5595 8.38457L8.56007 8.46125C8.65533 8.9236 8.97251 9.20129 9.29159 9.22236C9.57469 9.24104 9.88454 9.05805 10.0586 8.57495C9.90398 8.69921 9.69767 8.74206 9.50331 8.72917C9.25138 8.71246 9.0032 8.60091 8.90142 8.43268C8.89944 8.43052 8.89806 8.42862 8.89722 8.4274C8.8938 8.42242 8.89174 8.41744 8.8905 8.41403C8.88793 8.40696 8.88612 8.39875 8.88471 8.39078C8.8818 8.37436 8.87941 8.35192 8.87737 8.32515C8.87325 8.27127 8.87025 8.19565 8.8681 8.10605C8.86379 7.92665 8.86284 7.68894 8.86348 7.45196C8.86411 7.2149 8.86634 6.97827 8.86841 6.80093C8.86945 6.71225 8.87044 6.63839 8.87118 6.58669C8.87152 6.5626 8.87181 6.54333 8.87202 6.52961ZM8.51767 8.4652C8.47524 8.46547 8.47524 8.46547 8.47524 8.46545L8.47465 8.38513C8.47426 8.33395 8.47371 8.26074 8.47302 8.17266C8.47164 7.99649 8.46973 7.76079 8.46761 7.52271C8.46549 7.28461 8.46315 7.04416 8.46092 6.85845C8.45868 6.6713 8.45655 6.54262 8.45502 6.52533C8.45483 6.52313 8.45483 6.52091 8.45502 6.5187C8.45759 6.48968 8.48111 6.47197 8.49388 6.46347C8.50663 6.45499 8.52248 6.44708 8.53558 6.44054C8.53759 6.43954 8.53953 6.43857 8.54138 6.43764C8.55726 6.42965 8.56879 6.42336 8.5764 6.41732C8.57852 6.41563 8.5798 6.4144 8.58052 6.4136C8.58049 6.41348 8.58044 6.41332 8.58034 6.41309C8.57999 6.41224 8.57904 6.41042 8.57654 6.40742C8.57161 6.40152 8.56508 6.39583 8.555 6.38706C8.55301 6.38533 8.55088 6.38348 8.54861 6.38149C8.52385 6.35981 8.48695 6.32588 8.48217 6.26952L8.48211 6.26883C8.48017 6.23957 8.49596 6.21872 8.512 6.20546C8.52606 6.19383 8.54385 6.18508 8.55643 6.17889C8.55691 6.17866 8.55737 6.17843 8.55783 6.1782C8.57287 6.1708 8.58213 6.16606 8.58829 6.16118C8.58906 6.16057 8.58965 6.16006 8.59009 6.15965C8.58909 6.15638 8.58666 6.15185 8.58109 6.14556C8.57303 6.13646 8.56185 6.12742 8.54737 6.11605C8.54656 6.11542 8.54573 6.11477 8.5449 6.11412C8.53225 6.10421 8.51651 6.09188 8.50436 6.07846C8.49121 6.06392 8.47688 6.04234 8.47872 6.01455C8.47879 6.0135 8.4789 6.01244 8.47906 6.0114C8.4822 5.99073 8.49301 5.97364 8.50285 5.96087C8.5109 5.95043 8.52073 5.93993 8.52906 5.93104C8.53081 5.92917 8.53249 5.92737 8.53408 5.92566C8.55601 5.90199 8.5635 5.88965 8.5635 5.87962C8.5635 5.87122 8.55967 5.86217 8.55055 5.8512C8.54355 5.84277 8.5365 5.83647 8.52854 5.82935C8.52502 5.8262 8.52132 5.82289 8.51737 5.81918L8.51723 5.81904C8.51293 5.815 8.50349 5.8061 8.49834 5.79486C8.49527 5.78814 8.4919 5.77671 8.49598 5.76341C8.50017 5.74977 8.50994 5.74145 8.51761 5.73695C8.53039 5.72945 8.54604 5.72739 8.55675 5.72636C8.56952 5.72512 8.58575 5.72462 8.60559 5.72461L8.82251 5.72142C8.82305 5.72141 8.82359 5.72141 8.82414 5.72142C8.85517 5.72209 8.88621 5.72209 8.91724 5.72142C8.93458 5.72105 8.95041 5.73065 8.95722 5.74566M8.59136 6.1583C8.59137 6.15829 8.59132 6.15837 8.5912 6.15851C8.59129 6.15837 8.59135 6.1583 8.59136 6.1583ZM12.0964 5.74717C12.1027 5.73166 12.1185 5.72141 12.1361 5.72141H12.2277L12.2284 5.72142L12.4453 5.72461C12.4648 5.72462 12.4807 5.72512 12.4933 5.72637C12.5038 5.72741 12.5194 5.72949 12.5322 5.73716C12.5399 5.74179 12.5495 5.75017 12.5535 5.76363C12.5574 5.77668 12.5542 5.7879 12.5512 5.79457C12.5462 5.80578 12.5369 5.81468 12.5327 5.81875L12.5326 5.81886C12.5287 5.82259 12.5251 5.82591 12.5217 5.82905C12.5139 5.83617 12.507 5.84245 12.5002 5.85086C12.4913 5.86179 12.4874 5.87095 12.4874 5.87962C12.4874 5.88965 12.4949 5.90199 12.5168 5.92566C12.5184 5.92737 12.5201 5.92917 12.5219 5.93104C12.5302 5.93993 12.54 5.95043 12.5481 5.96087C12.5579 5.97364 12.5687 5.99073 12.5719 6.0114C12.5721 6.01327 12.5723 6.01516 12.5723 6.01705C12.5723 6.04382 12.5579 6.06451 12.5449 6.0787C12.533 6.09162 12.5179 6.10362 12.5056 6.11339C12.5046 6.11423 12.5035 6.11505 12.5025 6.11586C12.4884 6.12714 12.4775 6.13616 12.4697 6.14518C12.4642 6.15153 12.4618 6.15616 12.4608 6.15962C12.4612 6.16004 12.4618 6.16055 12.4626 6.16118C12.4688 6.16606 12.478 6.1708 12.4931 6.1782L12.4945 6.17889C12.5071 6.18508 12.5249 6.19383 12.5389 6.20546C12.555 6.21872 12.5707 6.23957 12.5688 6.26883L12.5687 6.26952C12.564 6.32596 12.527 6.35988 12.5016 6.38172C12.4987 6.38422 12.496 6.38649 12.4936 6.3886C12.484 6.39675 12.4775 6.40232 12.4722 6.40824C12.4703 6.41045 12.4691 6.41214 12.4683 6.41338C12.4693 6.41428 12.4706 6.41544 12.4725 6.41687C12.4807 6.4232 12.4927 6.42961 12.5087 6.43764C12.5101 6.43837 12.5116 6.43912 12.5132 6.43989C12.5266 6.44661 12.5431 6.45486 12.5561 6.46387C12.5688 6.47261 12.5926 6.4915 12.5926 6.52202L12.5926 6.52235L12.5757 8.46553C12.5757 8.46794 12.5754 8.47034 12.5749 8.47271C12.4758 8.9607 12.1344 9.27764 11.764 9.30206C11.3889 9.32679 11.0161 9.05117 10.8559 8.41692L10.8971 8.40767L10.9335 8.38708C11.0636 8.59067 11.3049 8.66517 11.5412 8.64947C11.7799 8.63361 11.9962 8.52704 12.0749 8.3888C12.076 8.38701 12.0771 8.38531 12.0784 8.38371C12.0788 8.38212 12.0793 8.37997 12.0798 8.37718C12.0822 8.36464 12.0845 8.34528 12.0866 8.3192C12.0909 8.2674 12.0942 8.19341 12.0965 8.10414C12.1013 7.92582 12.1026 7.68895 12.1022 7.45213C12.1017 7.21539 12.0996 6.97901 12.0976 6.8018C12.0966 6.7132 12.0956 6.6394 12.0949 6.58775C12.0945 6.56193 12.0942 6.54165 12.094 6.52782L12.0937 6.50667C12.0937 6.50665 12.0937 6.50665 12.1361 6.50604L12.0937 6.50667C12.0934 6.49065 12.1033 6.47602 12.1189 6.46953C12.1189 6.46953 12.1189 6.46953 12.1189 6.46953C12.1189 6.46952 12.1189 6.46951 12.1189 6.4695C12.1189 6.4695 12.1189 6.46951 12.1189 6.4695C12.1189 6.4695 12.119 6.46949 12.119 6.46949C12.119 6.46949 12.119 6.46949 12.119 6.46949C12.119 6.46948 12.119 6.46947 12.119 6.46947L12.1192 6.4694C12.1195 6.46925 12.1201 6.46897 12.121 6.46857C12.1227 6.46778 12.1253 6.4665 12.1286 6.46478C12.1352 6.46129 12.1438 6.45619 12.1524 6.44973C12.171 6.43561 12.1813 6.42112 12.182 6.40806L12.182 6.40794C12.182 6.40719 12.1819 6.40709 12.1819 6.40692C12.1816 6.40646 12.1808 6.40499 12.1782 6.40241C12.1724 6.39669 12.1641 6.39133 12.1506 6.38251C12.1495 6.38179 12.1483 6.38105 12.1472 6.38028L12.1465 6.37987C12.1206 6.36295 12.0733 6.33215 12.0733 6.27273C12.0733 6.24238 12.0862 6.21952 12.106 6.20335C12.1218 6.19043 12.1415 6.18256 12.1543 6.17744C12.1552 6.1771 12.156 6.17677 12.1568 6.17645C12.1725 6.17015 12.18 6.16663 12.1846 6.16268C12.1866 6.161 12.1887 6.15916 12.1887 6.15128C12.1887 6.1462 12.1873 6.14314 12.1827 6.13878C12.1762 6.13272 12.1668 6.12732 12.1511 6.1186L12.1498 6.11791C12.1365 6.11056 12.1173 6.09992 12.1026 6.08489C12.0853 6.06724 12.074 6.04362 12.0769 6.01352M12.1789 6.52961C12.1791 6.54333 12.1794 6.56261 12.1797 6.58669C12.1805 6.63839 12.1814 6.71226 12.1825 6.80094C12.1845 6.97829 12.1866 7.21492 12.187 7.45199C12.1874 7.68898 12.1862 7.92672 12.1814 8.10615C12.179 8.19576 12.1757 8.27144 12.1713 8.32538C12.169 8.35217 12.1665 8.3747 12.1633 8.39124C12.1618 8.39927 12.1598 8.40761 12.157 8.41482C12.1557 8.41833 12.1534 8.42338 12.1497 8.42841C12.1489 8.42955 12.1477 8.4311 12.1461 8.43285C12.0458 8.6011 11.7984 8.71248 11.5472 8.72917C11.3529 8.74208 11.1463 8.69909 10.9916 8.57443C11.1645 9.0579 11.4745 9.24105 11.7581 9.22236C12.0776 9.20129 12.3956 8.92352 12.4908 8.46122L12.5077 6.52956C12.5072 6.52918 12.5066 6.52877 12.506 6.52833C12.4981 6.52291 12.4873 6.51745 12.4722 6.50989L12.4687 6.50812C12.4537 6.50057 12.4345 6.4908 12.4189 6.47885C12.4037 6.46724 12.3843 6.44782 12.3823 6.41921C12.3822 6.41832 12.3822 6.41744 12.3822 6.41655C12.3822 6.39091 12.3945 6.37133 12.4069 6.35724C12.4164 6.34642 12.4288 6.33598 12.4387 6.32759C12.4407 6.32588 12.4426 6.32426 12.4444 6.32274C12.4671 6.30315 12.4809 6.28802 12.4838 6.26626C12.4836 6.26604 12.4833 6.26578 12.4829 6.26549C12.4775 6.26097 12.4687 6.25636 12.4538 6.249C12.4531 6.24867 12.4524 6.24833 12.4517 6.24798C12.4392 6.24186 12.4219 6.23335 12.4079 6.22228C12.3921 6.20968 12.3754 6.18972 12.3754 6.16087C12.3754 6.16045 12.3754 6.16003 12.3754 6.15962C12.3754 6.15933 12.3754 6.15905 12.3755 6.15877C12.377 6.13204 12.39 6.11076 12.4039 6.09475C12.4174 6.0791 12.4343 6.06555 12.4477 6.05486L12.449 6.05383C12.4631 6.04257 12.4734 6.03441 12.4807 6.02641C12.484 6.02289 12.4857 6.02043 12.4865 6.01888C12.4854 6.01639 12.4832 6.01279 12.4794 6.0078C12.4739 6.00071 12.4674 5.99375 12.4593 5.98502C12.4572 5.98286 12.4551 5.9806 12.4529 5.9782L12.4529 5.97815C12.4341 5.95786 12.4026 5.92388 12.4026 5.87962C12.4026 5.84791 12.4167 5.82261 12.4312 5.80431L12.2407 5.80151C12.2565 5.82329 12.2686 5.85092 12.2667 5.88479C12.264 5.94024 12.2228 5.9657 12.199 5.98043C12.1981 5.98099 12.1973 5.98153 12.1964 5.98206C12.1704 5.99822 12.1629 6.00478 12.1614 6.02051L12.1614 6.02066C12.1609 6.02568 12.1619 6.02759 12.1649 6.0307C12.1701 6.03598 12.1786 6.04112 12.1941 6.04973C12.1949 6.05015 12.1957 6.05059 12.1965 6.05104C12.2095 6.05824 12.228 6.06843 12.2427 6.08228C12.2601 6.0987 12.2736 6.1212 12.2736 6.15128C12.2736 6.18175 12.2613 6.20508 12.2416 6.22187C12.2252 6.23587 12.2048 6.24405 12.1916 6.24935L12.1901 6.24995C12.1739 6.25645 12.1663 6.2598 12.1616 6.2637L12.1614 6.26382C12.1596 6.26527 12.1582 6.26648 12.1582 6.27273C12.1582 6.28633 12.1661 6.29546 12.1955 6.31459C12.1968 6.31545 12.1982 6.31636 12.1997 6.3173C12.2114 6.3249 12.2272 6.3351 12.2394 6.34709C12.2548 6.36214 12.2684 6.38359 12.2667 6.41237L12.2244 6.41016L12.2667 6.41226C12.2667 6.41229 12.2667 6.41233 12.2667 6.41237C12.264 6.45997 12.2301 6.49338 12.2055 6.512C12.1961 6.51914 12.1869 6.52501 12.1789 6.52961ZM12.4874 6.01676C12.4874 6.01676 12.4874 6.01678 12.4874 6.01682ZM12.5111 6.53246C12.5111 6.53246 12.5109 6.53231 12.5107 6.53199C12.511 6.5323 12.5111 6.53246 12.5111 6.53246ZM12.4596 6.1583C12.4596 6.1583 12.4596 6.15837 12.4597 6.15851C12.4596 6.15837 12.4596 6.1583 12.4596 6.1583ZM8.96982 8.38459C8.96943 8.38292 8.96895 8.38064 8.96842 8.37764C8.96618 8.36499 8.964 8.34553 8.96201 8.31942C8.95805 8.26756 8.95508 8.19353 8.95294 8.10424C8.94866 7.92589 8.9477 7.68899 8.94834 7.45216C8.94897 7.21541 8.9512 6.97902 8.95327 6.80181C8.9543 6.71321 8.95529 6.63941 8.95603 6.58776C8.9564 6.56194 8.9567 6.54165 8.95691 6.52783L8.95724 6.50667C8.95724 6.50665 8.95724 6.50665 8.91482 6.50604M8.97079 8.38815C8.97078 8.38813 8.97077 8.38811 8.97077 8.38809C8.97084 8.38827 8.97084 8.3883 8.97079 8.38815ZM8.96982 8.38459C8.97076 8.38584 8.97163 8.38715 8.97242 8.38852C9.0528 8.52703 9.27023 8.63361 9.50927 8.64947C9.74604 8.66517 9.98736 8.59066 10.1174 8.38708C10.1282 8.37018 10.1505 8.36323 10.1699 8.3707C10.1892 8.37817 10.1999 8.39784 10.195 8.41701C10.0331 9.05117 9.66027 9.32679 9.28566 9.30206C8.91565 9.27764 8.57512 8.96064 8.476 8.47271C8.47551 8.47032 8.47526 8.46788 8.47524 8.46545L8.51767 8.4652" fill="black"/>
<path fill-rule="evenodd" clip-rule="evenodd" d="M9.87883 9.27699H11.1449C11.1551 9.2674 10.8598 8.86151 10.5136 8.89347C10.1232 8.90305 9.85846 9.27699 9.87883 9.27699ZM13.9148 9.24503H12.1836C12.1836 9.24503 12.4077 9.12358 12.4687 9.00852C12.5808 9.06605 12.5502 9.12358 12.7742 9.13317C12.9983 9.14276 13.2121 8.89347 13.426 8.90305C13.6398 8.91264 13.9148 9.25462 13.9148 9.24822V9.24503ZM7.09203 9.24503H8.82317C8.82317 9.24503 8.59914 9.12358 8.53804 9.00852C8.42602 9.06605 8.45657 9.12358 8.23254 9.13317C8.00851 9.14276 7.79127 8.89347 7.58082 8.90305C7.36697 8.91264 7.09203 9.25462 7.09203 9.24822V9.24503ZM7.22101 8.73366L8.45318 8.74325C8.45318 8.74325 8.37511 8.58345 8.36492 8.38849C8.04585 8.28622 7.78788 8.61222 7.55706 8.6218C7.32963 8.63139 7.09203 8.38849 7.09203 8.38849L7.22101 8.73366ZM13.8061 8.73366L12.5706 8.74325C12.5706 8.74325 12.6487 8.58345 12.6588 8.38849C12.9779 8.28622 13.2359 8.61222 13.4667 8.6218C13.6941 8.63139 13.9317 8.38849 13.9317 8.38849L13.8027 8.73366H13.8061ZM10.1945 8.74645L10.8191 8.73047C10.8191 8.73047 10.8293 8.55149 10.5034 8.55149C10.1775 8.55149 10.2047 8.75604 10.1945 8.74645V8.74645ZM9.81433 8.49396C9.93354 8.44486 10.0316 8.35926 10.0927 8.25107L9.66498 8.26065C9.66498 8.26065 9.4681 8.37251 9.36967 8.49396H9.81433ZM11.1992 8.49396C11.08 8.44486 10.9819 8.35926 10.9209 8.25107L11.3486 8.26065C11.3486 8.26065 11.5455 8.37251 11.6439 8.49396H11.1992Z" fill="#083D9C"/>
<path fill-rule="evenodd" clip-rule="evenodd" d="M10.1499 8.21781L10.1226 8.26606C10.058 8.38062 9.95416 8.47125 9.82793 8.52324L9.82143 8.52592H9.30106L9.34268 8.47457C9.39483 8.41023 9.47173 8.34977 9.53396 8.30613C9.56536 8.28411 9.5936 8.26597 9.61402 8.25333C9.62424 8.247 9.63252 8.24203 9.63828 8.23863C9.64116 8.23693 9.64341 8.23561 9.64496 8.23472L9.64675 8.23368L9.64724 8.2334L9.64737 8.23333L9.64742 8.2333C9.64742 8.2333 9.64744 8.23329 9.66498 8.26065L9.64742 8.2333L9.65516 8.2289L10.1499 8.21781ZM9.675 8.2924C9.67479 8.29252 9.67459 8.29264 9.67437 8.29276C9.66898 8.29595 9.66111 8.30067 9.65133 8.30673C9.63176 8.31885 9.60463 8.33627 9.57451 8.3574C9.53214 8.38711 9.48494 8.42341 9.44455 8.462H9.80712C9.89816 8.42318 9.97573 8.36161 10.0317 8.2844L9.675 8.2924ZM10.8637 8.21781L11.3584 8.2289L11.3661 8.23329L11.3486 8.26065C11.3661 8.23329 11.3661 8.23329 11.3661 8.23329L11.3663 8.2334L11.3668 8.23368L11.3686 8.23472C11.3702 8.23561 11.3724 8.23693 11.3753 8.23863C11.3811 8.24203 11.3893 8.247 11.3996 8.25333C11.42 8.26597 11.4482 8.28411 11.4796 8.30613C11.5418 8.34977 11.6187 8.41023 11.6709 8.47457L11.7125 8.52592H11.1921L11.1856 8.52324C11.0594 8.47125 10.9556 8.38062 10.8909 8.26606L10.8637 8.21781ZM11.3386 8.2924C11.3388 8.29252 11.339 8.29264 11.3392 8.29276C11.3446 8.29595 11.3525 8.30067 11.3622 8.30673C11.3818 8.31885 11.4089 8.33627 11.4391 8.3574C11.4814 8.38711 11.5286 8.42341 11.569 8.462H11.2065C11.1154 8.42318 11.0378 8.36161 10.9819 8.2844L11.3386 8.2924ZM7.91137 8.43528C8.04577 8.36476 8.20159 8.30238 8.37586 8.35824L8.39769 8.36524L8.39883 8.38692C8.40374 8.481 8.42508 8.567 8.44534 8.62968C8.45545 8.66095 8.46523 8.68623 8.47244 8.70361C8.47604 8.71229 8.479 8.71899 8.48102 8.72345C8.48203 8.72568 8.48281 8.72736 8.48332 8.72844L8.48388 8.72962L8.48401 8.72987L8.48402 8.72991L8.50636 8.77563L7.1969 8.76544L7.06001 8.3991L7.11695 8.36687C7.11698 8.36683 7.11698 8.36683 7.11698 8.36683L7.11707 8.36693L7.1175 8.36735C7.11789 8.36775 7.11851 8.36836 7.11934 8.36919C7.121 8.37083 7.12352 8.3733 7.12684 8.37646C7.13348 8.3828 7.1433 8.39193 7.15582 8.4029C7.18091 8.42486 7.21661 8.45402 7.25909 8.48281C7.34554 8.5414 7.4538 8.59417 7.55554 8.58988C7.60561 8.5878 7.65962 8.56833 7.72008 8.53859C7.75551 8.52117 7.79009 8.5019 7.82628 8.48173C7.85339 8.46662 7.8814 8.45101 7.91137 8.43528ZM7.16907 8.49838L7.24512 8.70189L8.40276 8.7109C8.39611 8.69399 8.38834 8.67285 8.3804 8.64829C8.36067 8.58726 8.33969 8.50447 8.33249 8.41253C8.196 8.3773 8.06992 8.42526 7.94442 8.49112C7.91818 8.50489 7.89106 8.51997 7.86393 8.53505C7.82566 8.55633 7.78737 8.57761 7.75151 8.59525C7.68871 8.62614 7.62389 8.65102 7.55855 8.65373C7.43288 8.65902 7.30863 8.59514 7.21943 8.53468C7.20138 8.52245 7.18452 8.51019 7.16907 8.49838ZM12.6913 8.41253C12.6841 8.50447 12.6631 8.58726 12.6434 8.64829C12.6354 8.67286 12.6277 8.69399 12.621 8.7109L13.7786 8.70192L13.8547 8.49838C13.8392 8.51019 13.8224 8.52245 13.8043 8.53468C13.7151 8.59514 13.5909 8.65903 13.4652 8.65373C13.3998 8.65101 13.335 8.62613 13.2722 8.59525C13.2364 8.57761 13.1981 8.55633 13.1598 8.53505C13.1327 8.51997 13.1056 8.50489 13.0793 8.49112C12.9538 8.42526 12.8278 8.3773 12.6913 8.41253ZM13.9068 8.36687L13.9638 8.3991L13.8348 8.74427L13.8063 8.73484L13.8064 8.76562L13.8061 8.76563L12.5174 8.77563M13.9068 8.36687C13.9068 8.36683 13.9068 8.36683 13.9068 8.36683ZM13.9068 8.36683L13.9067 8.36693L13.9063 8.36735C13.9059 8.36775 13.9053 8.36836 13.9044 8.36919C13.9028 8.37083 13.9002 8.3733 13.8969 8.37646C13.8903 8.3828 13.8805 8.39193 13.8679 8.4029C13.8429 8.42486 13.8072 8.45402 13.7647 8.48281C13.6782 8.5414 13.57 8.59417 13.4682 8.58988C13.4182 8.5878 13.3641 8.56833 13.3037 8.53859C13.2682 8.52117 13.2337 8.5019 13.1975 8.48173C13.1704 8.46662 13.1424 8.45101 13.1124 8.43528C12.978 8.36476 12.8222 8.30238 12.6479 8.35824L12.6261 8.36524L12.6249 8.38692C12.62 8.481 12.5987 8.567 12.5784 8.62968C12.5683 8.66095 12.5585 8.68623 12.5513 8.70361C12.5477 8.71229 12.5448 8.71899 12.5427 8.72345C12.5422 8.72459 12.5418 8.72558 12.5414 8.72642C12.541 8.72723 12.5407 8.72791 12.5404 8.72844L12.5399 8.72962L12.5398 8.72987M10.2023 8.63489C10.2453 8.57386 10.3322 8.51953 10.5034 8.51953C10.6729 8.51953 10.7633 8.56631 10.8099 8.62096C10.8328 8.64775 10.8436 8.67475 10.8486 8.69528C10.8512 8.70553 10.8523 8.71422 10.8527 8.72058C10.853 8.72377 10.853 8.72639 10.8531 8.72834C10.8531 8.72892 10.853 8.72944 10.853 8.72991C10.853 8.73023 10.853 8.73052 10.853 8.73078L10.853 8.73162L10.853 8.73193L10.853 8.73206L10.853 8.73212C10.853 8.73215 10.853 8.73218 10.8191 8.73047L10.853 8.73218L10.8513 8.76162L10.2016 8.77824C10.1856 8.78129 10.1738 8.77216 10.1705 8.76905L10.1945 8.74645L10.1936 8.71474C10.1899 8.71491 10.186 8.71572 10.1818 8.71745C10.1746 8.72041 10.1704 8.72493 10.1685 8.72738C10.1664 8.72995 10.1653 8.73222 10.1648 8.7333C10.1641 8.73487 10.1638 8.73619 10.1636 8.73667C10.1637 8.73644 10.1638 8.73601 10.1639 8.73532C10.164 8.73456 10.1642 8.73347 10.1645 8.73211C10.1652 8.72777 10.1664 8.72074 10.168 8.71346C10.1725 8.69326 10.1815 8.66436 10.2023 8.63489ZM10.2379 8.71337L10.7794 8.69951C10.7754 8.6881 10.7686 8.67461 10.757 8.661C10.7272 8.62616 10.6597 8.58345 10.5034 8.58345C10.3488 8.58345 10.2862 8.6314 10.2588 8.67024C10.2482 8.68529 10.2419 8.70032 10.2379 8.71337ZM11.1791 9.27722C11.179 9.2809 11.1781 9.291 11.1689 9.29959L11.159 9.30895H9.87882C9.87115 9.30895 9.8612 9.30647 9.85335 9.29862C9.84632 9.29157 9.84452 9.2837 9.84401 9.27948C9.8431 9.27179 9.84521 9.26536 9.84593 9.2632C9.84791 9.25728 9.85126 9.25098 9.85458 9.24536C9.86163 9.23343 9.87279 9.21753 9.88737 9.19923C9.91668 9.16245 9.96156 9.11383 10.0196 9.065C10.1348 8.96797 10.3056 8.86698 10.5115 8.86155C10.6987 8.84477 10.868 8.94571 10.9857 9.04595C11.0453 9.09676 11.0935 9.14887 11.1262 9.18908C11.1426 9.20916 11.1553 9.22661 11.1639 9.23975C11.1681 9.24619 11.1717 9.2523 11.1742 9.25751C11.1754 9.25993 11.177 9.26346 11.178 9.2674C11.1785 9.26928 11.1793 9.27284 11.1791 9.27722ZM10.9401 9.09335C10.8264 8.99645 10.6754 8.91064 10.5169 8.92527L10.5157 8.92539L10.5145 8.92542C10.3306 8.92993 10.1742 9.0205 10.0648 9.11265C10.0104 9.1585 9.96847 9.20396 9.94167 9.23759C9.93963 9.24015 9.93769 9.24263 9.93584 9.24503H11.0858C11.0817 9.23971 11.0772 9.234 11.0723 9.22797C11.0417 9.19037 10.9963 9.14121 10.9401 9.09335ZM12.9537 9.12934C12.8963 9.15225 12.8356 9.16779 12.7727 9.1651C12.6578 9.16018 12.6019 9.14278 12.56 9.11496C12.5453 9.10525 12.5322 9.09405 12.5204 9.08394C12.5168 9.08079 12.5132 9.07774 12.5098 9.07487C12.5009 9.06753 12.4915 9.06015 12.4803 9.05273C12.441 9.1068 12.3774 9.15768 12.3236 9.19553C12.3149 9.20166 12.3063 9.20751 12.298 9.21307H13.837C13.8088 9.18292 13.7707 9.14399 13.7271 9.10474C13.6802 9.06258 13.6276 9.02069 13.5744 8.98893C13.5206 8.95686 13.4693 8.93699 13.4244 8.93498C13.3781 8.9329 13.3301 8.94477 13.2789 8.96564C13.2284 8.98625 13.1773 9.01453 13.1237 9.04424L13.1211 9.04566C13.0674 9.07544 13.011 9.10651 12.9537 9.12934ZM13.9267 9.21307C13.926 9.21231 13.9253 9.21152 13.9246 9.2107C13.9169 9.20223 13.9065 9.19076 13.894 9.17728C13.8645 9.14558 13.8227 9.10236 13.774 9.05853C13.7254 9.01479 13.6692 8.96979 13.6107 8.93493C13.5528 8.90038 13.4896 8.87391 13.4276 8.87113C13.3669 8.86841 13.308 8.88411 13.2519 8.90699C13.1975 8.92918 13.1433 8.95921 13.091 8.98818L13.0867 8.99056C13.0323 9.02071 12.9798 9.04956 12.9273 9.07048C12.875 9.09132 12.8249 9.10334 12.7758 9.10124C12.6666 9.09657 12.6258 9.08041 12.599 9.06269C12.5881 9.05548 12.5795 9.04806 12.5687 9.03879C12.5644 9.03517 12.5599 9.03126 12.5547 9.02697C12.5371 9.01235 12.5159 8.99635 12.485 8.98047L12.4541 8.9646L12.4384 8.99423C12.4118 9.04435 12.3466 9.09959 12.283 9.14431C12.252 9.1661 12.2228 9.18442 12.2013 9.19731C12.1906 9.20374 12.1819 9.20879 12.1758 9.21222C12.1728 9.21393 12.1705 9.21523 12.1689 9.21609L12.1672 9.21705L12.1668 9.21728L12.1667 9.21733L12.0566 9.27699H13.8997C13.9011 9.27764 13.9031 9.27845 13.9055 9.27909C13.9085 9.27988 13.9149 9.28117 13.9228 9.27935C13.9322 9.27718 13.94 9.27143 13.9445 9.26365C13.9483 9.2571 13.9487 9.25106 13.9487 9.24823V9.21307H13.9267ZM8.07897 9.07045C8.13156 9.09131 8.18189 9.10334 8.231 9.10124C8.34015 9.09657 8.38101 9.08041 8.40776 9.06269C8.41864 9.05548 8.42731 9.04805 8.43813 9.03879C8.44236 9.03517 8.44692 9.03126 8.45208 9.02697C8.46966 9.01235 8.49085 8.99635 8.52178 8.98047L8.55267 8.9646L8.5684 8.99423C8.59501 9.04435 8.66021 9.09959 8.72382 9.14431C8.75481 9.1661 8.784 9.18442 8.80546 9.19731C8.81617 9.20374 8.82492 9.20879 8.83095 9.21222C8.83396 9.21393 8.8363 9.21523 8.83785 9.21609L8.8396 9.21705L8.84001 9.21728L8.8401 9.21733M7.5792 8.87113C7.6391 8.86841 7.69761 8.88415 7.75346 8.907C7.80729 8.92902 7.86117 8.95876 7.91329 8.98752C7.91511 8.98853 7.91693 8.98953 7.91875 8.99054C7.97336 9.02066 8.0262 9.04953 8.07897 9.07045" fill="#083D9C"/>
<path fill-rule="evenodd" clip-rule="evenodd" d="M-1.71983 11.3352H22.7198V15.1705H-1.71983V11.3352ZM-1.71983 -0.170455H22.7198V3.66477H-1.71983V-0.170455Z" fill="#DE2010"/>
</g>
</g>
<defs>
<clipPath id="clip0_6947_99038">
<rect width="21" height="15" fill="white"/>
</clipPath>
<clipPath id="clip1_6947_99038">
<rect width="21.7241" height="15.3409" fill="white" transform="translate(-0.362068 -0.170455)"/>
</clipPath>
</defs>
</svg>
