<svg width="21" height="15" viewBox="0 0 21 15" fill="none" xmlns="http://www.w3.org/2000/svg">
<g clip-path="url(#clip0_6947_99060)">
<g clip-path="url(#clip1_6947_99060)">
<path fill-rule="evenodd" clip-rule="evenodd" d="M-0.362061 -0.170456H24.0776V7.5H10.4989L-0.362061 -0.170456Z" fill="#ED2939"/>
<path fill-rule="evenodd" clip-rule="evenodd" d="M-0.362061 15.1705H24.0776V7.5H10.4989L-0.362061 15.1705Z" fill="#002395"/>
<path fill-rule="evenodd" clip-rule="evenodd" d="M-0.362061 -0.170456L10.4989 7.5L-0.362061 15.1705V-0.170456Z" fill="white"/>
<path d="M5.12096 5.61834L5.12415 5.49849C5.12415 5.49849 5.05732 5.39662 5.13688 5.28875C5.13688 5.28875 4.96822 5.20486 5.00959 5.07302C5.00959 5.07302 4.85684 5.03707 4.86638 4.88126C4.86638 4.88126 4.70727 4.87227 4.68818 4.74043C4.68818 4.74043 4.52588 4.7644 4.45269 4.63856C4.45269 4.63856 4.29358 4.66852 4.24903 4.56365C4.24903 4.56365 4.0931 4.61159 4.004 4.48875C4.004 4.48875 3.83852 4.55167 3.77169 4.43481C3.70486 4.55167 3.53939 4.48875 3.53939 4.48875C3.45028 4.61159 3.29435 4.56066 3.29435 4.56066C3.2498 4.66553 3.09387 4.63556 3.09387 4.63556C3.02068 4.7644 2.85839 4.73744 2.85839 4.73744C2.84248 4.86927 2.68018 4.88126 2.68018 4.88126C2.68477 4.92366 2.67322 4.96622 2.64757 5.00135C2.62192 5.03647 2.58386 5.06187 2.54016 5.07302C2.58153 5.20186 2.41287 5.28576 2.41287 5.28576C2.49561 5.39662 2.42878 5.49549 2.42878 5.49549L2.4256 5.60636L5.12096 5.61834" fill="#FFFF00"/>
<path fill-rule="evenodd" clip-rule="evenodd" d="M3.77514 4.42557L3.77985 4.43393C3.81134 4.48992 3.86631 4.50329 3.91445 4.50245C3.93853 4.50203 3.96066 4.49804 3.97681 4.49413C3.98487 4.49218 3.99141 4.49026 3.99592 4.48883C3.99817 4.48812 3.99992 4.48753 4.00109 4.48712C4.00167 4.48692 4.00212 4.48676 4.00241 4.48666L4.00273 4.48654L4.0028 4.48651L4.00686 4.48498L4.00934 4.48835C4.05373 4.54852 4.11395 4.56605 4.16338 4.56856C4.18814 4.56982 4.21014 4.5673 4.22596 4.56446C4.23386 4.56304 4.2402 4.56155 4.24454 4.56041C4.24671 4.55985 4.24838 4.55937 4.24949 4.55904C4.24978 4.55895 4.25003 4.55888 4.25024 4.55881C4.25044 4.55875 4.25061 4.5587 4.25074 4.55866L4.25104 4.55856L4.25111 4.55854M3.54358 4.48651L3.54365 4.48654L3.54397 4.48665C3.54426 4.48676 3.5447 4.48692 3.54529 4.48712C3.54646 4.48753 3.54821 4.48812 3.55046 4.48883C3.55498 4.49026 3.56153 4.49218 3.56962 4.49413C3.58583 4.49804 3.60808 4.50203 3.63238 4.50245C3.68098 4.50329 3.73694 4.48991 3.77024 4.43383L3.77514 4.42557" fill="black"/>
<path d="M5.05731 5.46853C4.63407 5.42958 4.14719 5.33369 3.77168 5.53444C3.5171 5.39362 3.16706 5.40261 2.86793 5.42958C2.70563 5.45954 2.5147 5.45954 2.34286 5.48351L2.3174 5.4865C2.00872 5.50748 1.72868 5.42059 1.45819 5.30673C1.54729 5.76216 1.63958 6.22658 1.68731 6.70299C1.78914 7.41011 1.33408 8.00038 1.51547 8.69851C1.62685 9.03409 2.01827 9.22885 2.37468 9.2678C2.71937 9.28829 3.06191 9.33337 3.39936 9.40263C3.45942 9.41656 3.518 9.43562 3.57439 9.45956C3.654 9.49229 3.72552 9.54025 3.78441 9.60039C3.97535 9.41162 4.26175 9.35769 4.53861 9.33072C5.0414 9.27379 5.66194 9.30375 5.97062 8.87529V8.85132C6.13928 8.61162 6.117 8.25206 6.04381 7.9824C6.03744 7.88951 6.01199 7.80562 5.99607 7.71573C5.69058 6.95168 5.95471 6.09175 6.08518 5.31871C5.92041 5.39671 5.74468 5.4522 5.56329 5.48351C5.42009 5.50149 5.26098 5.49549 5.11777 5.4865L5.05413 5.47152" fill="#FF0000"/>
<path d="M5.69057 7.66479C5.69057 7.71273 5.71921 7.75468 5.72876 7.79963C5.78922 8.13521 5.84332 8.57866 5.48055 8.7854C5.07322 9.0251 4.54497 8.92323 4.07718 9.05207C3.98171 9.07604 3.85442 9.15694 3.79077 9.21387C3.74622 9.1869 3.70485 9.14795 3.65075 9.12398C3.2657 8.93222 2.76291 8.99514 2.33012 8.89027C2.11055 8.82735 1.88461 8.66555 1.82733 8.45581C1.68731 7.9045 2.02463 7.43408 1.98644 6.88576C1.96098 6.46629 1.88461 6.06778 1.78278 5.67527C2.12328 5.82508 2.51469 5.84905 2.89656 5.77714C3.19111 5.72624 3.49483 5.75214 3.77486 5.85205C3.92125 5.79212 4.09309 5.76516 4.2522 5.75018C4.54815 5.78014 4.86956 5.82808 5.17823 5.82808C5.38508 5.81609 5.57283 5.76216 5.75104 5.68725C5.64602 6.33445 5.43918 7.01161 5.69057 7.66479Z" fill="#80CFE1"/>
<path d="M5.07957 7.79363V7.18239H5.15594L4.16945 6.58314L4.16627 6.26853H4.26173L3.7653 5.93894L3.27524 6.26853H3.3707V6.58314L2.38739 7.18239H2.46695V7.79064H5.07957" fill="white"/>
<path fill-rule="evenodd" clip-rule="evenodd" d="M3.76776 5.91163L4.33171 6.29415H4.19117L4.19444 6.57133L5.2317 7.20417H5.10295V7.79482H5.08107V7.81199H2.44712V7.20417H2.31473L3.35173 6.57149L3.34845 6.29072H3.20726L3.76776 5.91163ZM5.05918 7.77078V7.16296H5.08366L4.15093 6.59389L4.14691 6.25294H4.19606L3.76772 5.9624L3.34323 6.24951H3.39174L3.39576 6.59373L2.46277 7.16296H2.49089V7.77078H5.05918Z" fill="black"/>
<path d="M5.38507 8.59364V8.7824H2.19965V8.59064H5.38189" fill="white"/>
<path fill-rule="evenodd" clip-rule="evenodd" d="M2.17715 8.57091H5.40939V8.80443H2.17715V8.57091ZM2.22093 8.61212V8.76321H5.36562V8.61212H2.22093Z" fill="black"/>
<path d="M2.40967 8.58165V7.93746H2.53696L2.53059 8.58765L2.53696 7.94045L2.35239 7.93746V7.79663L5.19731 7.80262V7.93746H5.02547V8.59064L5.02229 7.93746H5.14958L5.15595 8.58465" fill="white"/>
<path fill-rule="evenodd" clip-rule="evenodd" d="M2.33401 7.77762L5.22333 7.78111V7.95966H5.17602L5.17955 8.58454L5.13578 8.58476L5.13224 7.95966H5.04833L5.05186 8.5913L5.05186 8.59141L5.00809 8.59173L5.00809 8.59163L5.00056 7.91845H5.17955V7.82227L2.37779 7.81889V7.91582L2.38874 7.91623V7.91501H2.56042L2.56034 7.92269L2.56042 7.92269L2.5529 8.5883L2.50913 8.58787L2.51612 7.96227L2.43251 7.95912V8.58122H2.38874V7.95748L2.33401 7.95542V7.77762Z" fill="black"/>
<path fill-rule="evenodd" clip-rule="evenodd" d="M2.61493 7.95279H3.0454V8.42325H3.01987L3.01966 8.44386L2.61493 8.44023V7.95279ZM3.00163 8.40248V7.994H2.6587V8.3994L3.00163 8.40248Z" fill="black"/>
<path fill-rule="evenodd" clip-rule="evenodd" d="M4.49006 7.95622H4.91307L4.91705 8.44386H4.49006V7.95622ZM4.53383 7.99743V8.40264H4.87294L4.86963 7.99743H4.53383ZM2.7426 8.0455H2.94325V8.3477H2.72437V8.06611H2.7426V8.0455ZM2.76814 8.08672V8.30649H2.89947V8.08672H2.76814Z" fill="black"/>
<path fill-rule="evenodd" clip-rule="evenodd" d="M4.48642 7.22477H4.91324V7.71241H4.48642V7.22477ZM4.53019 7.26598V7.67119H4.86947V7.26598H4.53019ZM4.59222 8.04894H4.8111V8.35114H4.59222V8.04894ZM4.63599 8.09015V8.30992H4.76733V8.09015H4.63599Z" fill="black"/>
<path fill-rule="evenodd" clip-rule="evenodd" d="M2.61493 7.22134H3.04175V7.6918H3.01987V7.70897H2.61493V7.22134ZM2.99798 7.66776V7.26255H2.6587V7.66776H2.99798ZM4.58857 7.31749H4.80745V7.61969H4.58857V7.31749ZM4.63234 7.3587V7.57847H4.76368V7.3587H4.63234Z" fill="black"/>
<path fill-rule="evenodd" clip-rule="evenodd" d="M3.30808 7.22134H3.73491V7.6918H3.71302V7.70897H3.30808V7.22134ZM3.69114 7.66776V7.26255H3.35185V7.66776H3.69114ZM2.72073 7.31405H2.93962V7.61625H2.72073V7.31405ZM2.76451 7.35527V7.57504H2.89584V7.35527H2.76451Z" fill="black"/>
<path fill-rule="evenodd" clip-rule="evenodd" d="M3.8407 7.22114L4.26752 7.22497V7.71261L3.8407 7.70878V7.22114ZM3.88447 7.26275V7.66796L4.22375 7.671V7.26579L3.88447 7.26275ZM3.41022 7.31406H3.6291V7.61626H3.41022V7.31406ZM3.45399 7.35527V7.57504H3.58533V7.35527H3.45399Z" fill="black"/>
<path fill-rule="evenodd" clip-rule="evenodd" d="M3.94284 7.31406H4.16537V7.61626H3.94284V7.31406ZM3.98661 7.35527V7.57504H4.1216V7.35527H3.98661Z" fill="black"/>
<path d="M4.3381 7.55393L4.34447 8.59064H3.23386L3.23068 7.55393H4.33492" fill="white"/>
<path fill-rule="evenodd" clip-rule="evenodd" d="M3.454 6.30788H4.08877V6.61009H3.454V6.30788ZM3.49777 6.3491V6.56887H4.045V6.3491H3.49777ZM3.41403 6.66502H4.13239L4.81259 7.13206H2.73383L3.41403 6.66502ZM3.4283 6.70624L2.86814 7.09084H4.67828L4.11812 6.70624H3.4283ZM3.21315 7.53383H4.36231L4.3661 8.61212H3.21695L3.21315 7.53383ZM3.25707 7.57505L3.25796 7.82916H4.31957L4.31868 7.57505H3.25707ZM4.31972 7.87037H4.23105V8.57091H4.32218L4.31972 7.87037ZM4.18728 8.57091V7.87037H3.38833V8.57091H4.18728ZM3.34456 8.57091V7.87037H3.25811L3.26057 8.57091H3.34456Z" fill="black"/>
<path fill-rule="evenodd" clip-rule="evenodd" d="M3.51159 6.22547H4.0275L3.76955 6.0528L3.51159 6.22547ZM3.76955 6.02388L3.75869 6.0095L3.37448 6.26668H4.16461L3.7804 6.0095L3.76955 6.02388ZM3.6145 6.37313H3.92824V6.54484H3.6145V6.37313ZM3.65827 6.41435V6.50362H3.88446V6.41435H3.65827Z" fill="black"/>
<path d="M5.0923 5.88201C5.18459 5.88201 5.20687 6.24156 5.20687 6.42134C5.2896 6.44531 5.46463 6.55018 5.54418 6.64306H4.64679C4.72316 6.55018 4.89819 6.44531 4.97774 6.42434C4.97774 6.24456 4.99684 5.87902 5.0923 5.88501" fill="white"/>
<path fill-rule="evenodd" clip-rule="evenodd" d="M5.02294 6.08798C5.00626 6.19956 5.00081 6.33415 5.00081 6.42464V6.44019L4.98493 6.44446C4.95006 6.45384 4.88855 6.48409 4.82522 6.52454C4.77778 6.55485 4.73113 6.58972 4.69549 6.62382H5.49582C5.46018 6.58973 5.41346 6.55487 5.36571 6.52458C5.30197 6.48416 5.2396 6.45392 5.20299 6.44453L5.18687 6.44038V6.42464C5.18687 6.33415 5.18141 6.19959 5.16429 6.08805C5.1557 6.03209 5.14436 5.98322 5.12991 5.94883C5.12267 5.93157 5.11517 5.91928 5.10793 5.91163C5.10087 5.90419 5.09565 5.90268 5.09201 5.90268C5.08916 5.90268 5.0844 5.90387 5.07756 5.91135C5.07058 5.919 5.06333 5.9313 5.05631 5.94861C5.04232 5.98306 5.0313 6.03199 5.02294 6.08798ZM5.04437 5.88448C5.05619 5.87154 5.07206 5.86146 5.09201 5.86146C5.11208 5.86146 5.12829 5.87122 5.14059 5.8842C5.1527 5.89698 5.16248 5.91429 5.17062 5.93367C5.18696 5.97258 5.19887 6.02523 5.20761 6.08216C5.22421 6.19028 5.23001 6.31852 5.23059 6.40953C5.27369 6.42379 5.33282 6.45403 5.39016 6.4904C5.45527 6.53169 5.52129 6.58292 5.56165 6.63177L5.58914 6.66503H4.60218L4.62967 6.63177C4.67003 6.58292 4.73603 6.53171 4.80064 6.49044C4.85737 6.4542 4.91551 6.42405 4.95708 6.40973C4.95765 6.31871 4.96343 6.19039 4.97959 6.08223C4.9881 6.02532 4.99965 5.97273 5.01542 5.93389C5.02327 5.91455 5.0327 5.89727 5.04437 5.88448ZM5.27077 5.86146H5.40956L5.37284 5.92566C5.37653 5.93184 5.38072 5.94033 5.3836 5.95068C5.38926 5.97102 5.38955 5.99772 5.37297 6.0264L5.40793 6.08125H5.254L5.28976 6.02514C5.28958 6.02474 5.2894 6.02434 5.28922 6.02392C5.28599 6.01665 5.28208 6.00636 5.27944 5.99444C5.27502 5.97447 5.27363 5.94692 5.28888 5.92201L5.27077 5.89076V5.86146ZM5.33134 6.01178C5.34531 5.9911 5.34472 5.97356 5.34126 5.96112C5.33936 5.95432 5.3365 5.94877 5.33413 5.94495C5.33296 5.94306 5.33194 5.94166 5.33128 5.9408C5.33096 5.94038 5.33073 5.94009 5.33061 5.93996C5.3306 5.93994 5.33058 5.93992 5.33057 5.93991C5.33056 5.9399 5.33055 5.93989 5.33055 5.93988C5.33055 5.93988 5.33055 5.93988 5.33055 5.93988L5.3295 5.93872C5.31926 5.95198 5.31853 5.96904 5.32229 5.98604C5.32422 5.99473 5.32714 6.00247 5.32962 6.00807C5.33024 6.00946 5.33082 6.01071 5.33134 6.01178ZM5.33193 5.91026L5.33627 5.90268H5.32754L5.33193 5.91026ZM5.5063 5.90268L5.51069 5.91026L5.51503 5.90268H5.5063ZM5.50826 5.93872C5.49802 5.95198 5.49729 5.96903 5.50105 5.98604C5.50297 5.99473 5.5059 6.00247 5.50838 6.00807C5.50899 6.00946 5.50958 6.01071 5.5101 6.01179C5.52407 5.9911 5.52348 5.97356 5.52002 5.96112C5.51812 5.95432 5.51526 5.94877 5.51289 5.94495C5.51172 5.94306 5.5107 5.94166 5.51004 5.9408C5.50972 5.94038 5.50948 5.94009 5.50937 5.93996L5.50934 5.93992L5.5093 5.93987L5.50826 5.93872ZM5.46895 6.02608C5.46863 6.02539 5.46831 6.02467 5.46797 6.02392C5.46475 6.01665 5.46084 6.00636 5.4582 5.99444C5.45378 5.97447 5.45238 5.94692 5.46764 5.92201L5.4522 5.89537L5.47142 5.8855V5.86146H5.58832L5.5516 5.92566C5.55529 5.93184 5.55948 5.94033 5.56236 5.95068C5.56802 5.97102 5.56831 5.99772 5.55173 6.0264L5.58669 6.08125H5.43965L5.46895 6.02608ZM5.6133 5.8649H5.76854L5.73062 5.9261C5.73424 5.93224 5.73831 5.94057 5.74112 5.95068C5.74678 5.97102 5.74707 5.99772 5.73049 6.0264L5.76545 6.08125H5.61841L5.64771 6.02608C5.64739 6.02539 5.64706 6.02467 5.64673 6.02392C5.64351 6.01665 5.63959 6.00636 5.63696 5.99444C5.63254 5.97447 5.63114 5.94692 5.6464 5.92201L5.6133 5.8649ZM5.68886 6.01178C5.70283 5.9911 5.70223 5.97356 5.69877 5.96112C5.69688 5.95432 5.69402 5.94877 5.69165 5.94495C5.69048 5.94306 5.68946 5.94166 5.6888 5.9408C5.68848 5.94038 5.68824 5.94009 5.68813 5.93996C5.6881 5.93993 5.68811 5.93993 5.6881 5.93992C5.68808 5.9399 5.68805 5.93987 5.68806 5.93987L5.68702 5.93872C5.67678 5.95198 5.67605 5.96904 5.67981 5.98604C5.68173 5.99473 5.68466 6.00247 5.68714 6.00807C5.68775 6.00946 5.68834 6.01071 5.68886 6.01178ZM5.6896 5.91051L5.69232 5.90611H5.68705L5.6896 5.91051ZM3.25077 7.5613H3.40186L3.36937 7.62248C3.3728 7.62897 3.37686 7.63819 3.37958 7.64946C3.38451 7.66989 3.38497 7.69694 3.36983 7.72575L3.40511 7.78109H3.24753L3.28329 7.72498C3.28311 7.72459 3.28293 7.72418 3.28275 7.72377C3.27952 7.71649 3.27561 7.7062 3.27297 7.69429C3.26852 7.67419 3.26714 7.64643 3.28269 7.6214L3.25077 7.5613ZM3.32632 7.73757L3.32485 7.73987H3.32779L3.32632 7.73757ZM3.32639 7.71463C3.34059 7.69289 3.34041 7.67316 3.3369 7.65859C3.33509 7.65109 3.33236 7.64493 3.33011 7.64071C3.329 7.63861 3.32803 7.63704 3.3274 7.63607C3.32708 7.63558 3.32685 7.63525 3.32674 7.63509C3.32671 7.63505 3.32669 7.63502 3.32668 7.635C3.32666 7.63498 3.32665 7.63497 3.32665 7.63497L3.32639 7.63462L3.32489 7.63631C3.31289 7.64987 3.31184 7.6679 3.31582 7.68588C3.31775 7.69457 3.32067 7.70231 3.32315 7.70791C3.32438 7.71069 3.32546 7.71287 3.32621 7.7143C3.32627 7.71441 3.32633 7.71452 3.32639 7.71463ZM3.32632 7.61139L3.33103 7.60252H3.3216L3.32632 7.61139ZM3.41494 7.5613H3.56603L3.53354 7.62248C3.53697 7.62897 3.54103 7.63819 3.54375 7.64946C3.54868 7.66989 3.54913 7.69694 3.534 7.72575L3.56927 7.78109H3.41169L3.44746 7.72498C3.44728 7.72459 3.44709 7.72418 3.44691 7.72377C3.44369 7.71649 3.43977 7.7062 3.43714 7.69429C3.43269 7.67419 3.43131 7.64643 3.44686 7.6214L3.41494 7.5613ZM3.49048 7.73757L3.48901 7.73987H3.49195L3.49048 7.73757ZM3.49055 7.71463C3.50475 7.69289 3.50458 7.67316 3.50106 7.65859C3.49925 7.65109 3.49652 7.64493 3.49428 7.64071C3.49317 7.63861 3.4922 7.63704 3.49156 7.63607C3.49125 7.63558 3.49102 7.63525 3.4909 7.63509C3.49088 7.63505 3.49086 7.63502 3.49084 7.635L3.49082 7.63497L3.49055 7.63462L3.48905 7.63631C3.47706 7.64987 3.47601 7.6679 3.47999 7.68588C3.48191 7.69457 3.48484 7.70231 3.48731 7.70791C3.48854 7.71069 3.48963 7.71287 3.49038 7.7143C3.49044 7.71441 3.4905 7.71452 3.49055 7.71463ZM3.49048 7.61139L3.4952 7.60252H3.48577L3.49048 7.61139ZM3.5937 7.5613H3.74479L3.71229 7.62248C3.71573 7.62897 3.71978 7.63819 3.7225 7.64946C3.72744 7.66989 3.72789 7.69694 3.71276 7.72575L3.74803 7.78109H3.59734L3.62664 7.72593C3.62633 7.72524 3.626 7.72452 3.62567 7.72377C3.62245 7.71649 3.61853 7.7062 3.61589 7.69429C3.61145 7.67419 3.61006 7.64643 3.62562 7.6214L3.5937 7.5613ZM3.66933 7.73771L3.66818 7.73987H3.67071L3.66933 7.73771ZM3.66931 7.71463C3.68351 7.69289 3.68334 7.67316 3.67982 7.65859C3.67801 7.65109 3.67528 7.64493 3.67304 7.64071C3.67192 7.63861 3.67095 7.63704 3.67032 7.63607C3.67001 7.63558 3.66978 7.63525 3.66966 7.63509C3.66963 7.63505 3.66961 7.63502 3.6696 7.635C3.66958 7.63498 3.66958 7.63497 3.66957 7.63497C3.66957 7.63497 3.66957 7.63497 3.66957 7.63497L3.66931 7.63462L3.66781 7.63631C3.65581 7.64987 3.65477 7.6679 3.65875 7.68588C3.66067 7.69457 3.66359 7.70231 3.66607 7.70791C3.6673 7.71069 3.66839 7.71287 3.66914 7.7143C3.6692 7.71441 3.66926 7.71452 3.66931 7.71463ZM3.66924 7.61139L3.67395 7.60252H3.66453L3.66924 7.61139Z" fill="black"/>
<path d="M3.79078 9.92098C4.20447 9.92098 4.71363 9.84009 4.9523 9.72623L5.47737 9.68128L5.49009 10.2835C5.04458 10.5142 4.0199 10.5652 3.79396 10.5622C3.56802 10.5622 2.53061 10.5142 2.08191 10.2835L2.08827 9.67829L2.61334 9.72323C2.9886 9.86006 3.38842 9.92721 3.79078 9.92098" fill="#FFFF00"/>
<path fill-rule="evenodd" clip-rule="evenodd" d="M2.08418 9.67447L2.61647 9.7197L2.61742 9.72016C2.73705 9.77817 2.92791 9.827 3.14072 9.86132C3.35339 9.89561 3.58748 9.91533 3.79326 9.91533C4.00087 9.91533 4.2313 9.89561 4.43987 9.86132C4.64854 9.82701 4.83486 9.77818 4.95451 9.72016L4.95548 9.71969L5.48407 9.67794L5.49517 10.2875L5.49229 10.289C5.27057 10.4046 4.90207 10.475 4.56189 10.5162C4.22154 10.5575 3.90849 10.5695 3.79687 10.5678C3.68351 10.5678 3.36684 10.5558 3.02236 10.5145C2.67808 10.4733 2.30502 10.4028 2.07964 10.2856L2.07678 10.2841L2.08418 9.67447ZM2.09499 9.68573L2.0878 10.278C2.31145 10.3934 2.68091 10.4633 3.02374 10.5043C3.36781 10.5455 3.68405 10.5575 3.79691 10.5575L3.797 10.5575C3.90796 10.5592 4.22052 10.5472 4.5605 10.506C4.89921 10.465 5.2641 10.3951 5.48412 10.2815L5.47333 9.68913L4.95855 9.72979C4.8374 9.78832 4.65023 9.83719 4.44175 9.87147C4.2326 9.90586 4.00154 9.92563 3.79326 9.92563C3.58681 9.92563 3.35211 9.90586 3.13887 9.87147C2.92631 9.8372 2.73457 9.78833 2.61336 9.72978L2.09499 9.68573Z" fill="black"/>
<path d="M0.732643 7.35019L1.19407 7.48801L1.05405 8.19214L0.618082 8.25806C0.618082 8.25806 0.54489 7.88652 0.732643 7.35019Z" fill="#FFFF00"/>
<path fill-rule="evenodd" clip-rule="evenodd" d="M0.732647 7.34538L1.20206 7.48566L1.06184 8.19768L0.614983 8.26429L0.614012 8.25935L0.619392 8.25841C0.614012 8.25935 0.614013 8.25936 0.614012 8.25935L0.613996 8.25927L0.613955 8.25905L0.613798 8.25821C0.613662 8.25748 0.613465 8.25638 0.613218 8.25494C0.612723 8.25205 0.612025 8.24776 0.611207 8.24213C0.60957 8.23086 0.60745 8.21419 0.605504 8.19253C0.601611 8.1492 0.598412 8.0859 0.601155 8.00585C0.606642 7.84573 0.635903 7.61858 0.730942 7.3502L0.732647 7.34538ZM0.62389 8.25253L1.05249 8.18865L1.18954 7.49272L0.739622 7.35828C0.64631 7.6235 0.617517 7.84789 0.612092 8.00618C0.609364 8.0858 0.612548 8.1487 0.616408 8.19166C0.618338 8.21314 0.620436 8.22963 0.622049 8.24073C0.622784 8.2458 0.623419 8.24974 0.62389 8.25253Z" fill="black"/>
<path d="M1.05404 8.18615L0.618073 8.25806L0.894928 7.88652L1.05404 8.18615Z" fill="#7E7E7E"/>
<path fill-rule="evenodd" clip-rule="evenodd" d="M0.89743 7.8776L1.0654 8.19023L0.6073 8.2621L0.89743 7.8776ZM0.631466 8.24786L1.04892 8.18237L0.89585 7.89748L0.631466 8.24786Z" fill="black"/>
<path d="M0.455791 7.85955L0.901306 7.88951C0.910852 8.24307 0.958586 9.59739 2.677 9.67229L2.6229 10.1667C0.532165 10.1847 0.373053 8.50375 0.458973 7.85955" fill="#FFFF00"/>
<path fill-rule="evenodd" clip-rule="evenodd" d="M0.463682 7.86553C0.422622 8.18864 0.442139 8.7662 0.73044 9.26125C0.875259 9.50992 1.08788 9.73775 1.39476 9.90216C1.69325 10.0621 2.0812 10.1621 2.58319 10.1628L2.61741 10.1558L2.61897 10.1626C2.61962 10.1626 2.62027 10.1626 2.62092 10.1626L2.67454 9.67812C1.81553 9.63892 1.37383 9.28153 1.14585 8.88845C0.919582 8.49833 0.9042 8.07368 0.898619 7.89237L0.463682 7.86553ZM2.58434 10.1731C2.59812 10.1731 2.61197 10.173 2.62592 10.1729L2.6308 10.1728L2.68662 9.66834L2.68084 9.66809C1.82173 9.63039 1.38206 9.27423 1.15545 8.88351C0.928584 8.49236 0.914885 8.06594 0.909413 7.88739L0.90927 7.88271L0.45923 7.85493L0.458872 7.86007L0.453442 7.85944C0.411405 8.18288 0.429624 8.76614 0.720844 9.2662C0.866507 9.51632 1.08049 9.74564 1.38935 9.91112C1.67994 10.0668 2.05426 10.1658 2.53421 10.1727L2.09208 10.2623L2.09439 10.2724L2.58434 10.1731Z" fill="black"/>
<path d="M6.81072 7.35618L6.35248 7.49401L6.49886 8.19514L6.93801 8.26105C6.93801 8.26105 7.00802 7.89251 6.81072 7.35618Z" fill="#FFFF00"/>
<path fill-rule="evenodd" clip-rule="evenodd" d="M6.81737 7.34883L6.8191 7.35359C6.9178 7.62369 6.94889 7.85171 6.95529 8.01226C6.95849 8.09254 6.95552 8.15595 6.95174 8.19933C6.94985 8.22102 6.94776 8.23771 6.94614 8.24899C6.94533 8.25463 6.94463 8.25892 6.94414 8.2618C6.94389 8.26325 6.9437 8.26434 6.94356 8.26508L6.9434 8.26592L6.94336 8.26614L6.94335 8.2662C6.94335 8.2662 6.94335 8.26622 6.93797 8.26528L6.94335 8.2662L6.94237 8.2712L6.49555 8.2011L6.34796 7.48911L6.81737 7.34883ZM6.93347 8.25936C6.93394 8.25657 6.93457 8.25264 6.93529 8.2476C6.93689 8.2365 6.93896 8.21999 6.94084 8.19849C6.94458 8.15548 6.94754 8.09248 6.94436 8.01265C6.93803 7.85392 6.90743 7.62866 6.81049 7.3617L6.36057 7.49615L6.50483 8.19211L6.93347 8.25936Z" fill="black"/>
<path d="M6.49885 8.18914L6.93482 8.26405L6.65478 7.89251L6.49567 8.18914" fill="#7E7E7E"/>
<path fill-rule="evenodd" clip-rule="evenodd" d="M6.65621 7.88448L6.95025 8.2691L6.492 8.19362L6.65621 7.88448ZM6.6579 7.90433L6.50836 8.18585L6.92567 8.25459L6.6579 7.90433Z" fill="black"/>
<path d="M7.09394 7.86255L6.64842 7.89251C6.64206 8.24607 6.60705 9.60039 4.88864 9.67529L4.95229 10.1667C7.04302 10.1907 7.18622 8.50675 7.09712 7.86255" fill="#FFFF00"/>
<path fill-rule="evenodd" clip-rule="evenodd" d="M7.10028 7.858V7.86659C7.14592 8.18839 7.13309 8.77057 6.84654 9.26961C6.70315 9.51931 6.49122 9.74821 6.18384 9.91315C5.89198 10.0698 5.51434 10.1686 5.02813 10.173L5.48345 10.2623L5.48122 10.2724L4.97501 10.1731C4.96659 10.1731 4.95813 10.173 4.94965 10.1729L4.94481 10.1728L4.88525 9.67177L4.8911 9.67152C5.75019 9.63554 6.18619 9.27939 6.4087 8.88827C6.63147 8.4967 6.64062 8.06943 6.64427 7.89087L6.64437 7.88614L7.10028 7.858ZM4.97617 10.1628L4.95812 10.1593L4.95737 10.1627C4.95645 10.1627 4.95553 10.1626 4.95461 10.1626L4.89743 9.68156C5.7564 9.64406 6.19447 9.28666 6.41835 8.89314C6.64052 8.50261 6.65139 8.07715 6.65511 7.89581L7.08958 7.86899C7.13486 8.1897 7.12169 8.76876 6.83691 9.26471C6.69437 9.51294 6.4838 9.74034 6.17842 9.9042C5.87818 10.0653 5.486 10.1652 4.97617 10.1628Z" fill="black"/>
<path d="M3.51393 10.2176C3.5012 10.2236 3.48211 10.2266 3.4662 10.2236L3.38346 10.2206L3.38982 10.1217L3.47256 10.1277C3.48847 10.1277 3.50438 10.1307 3.51075 10.1367C3.52666 10.1427 3.53302 10.1577 3.53302 10.1787C3.53302 10.1966 3.52348 10.2086 3.51075 10.2176M3.37391 10.3674L3.38027 10.2506L3.47574 10.2566C3.50756 10.2596 3.53302 10.2506 3.54893 10.2356C3.56485 10.2236 3.57439 10.2056 3.57439 10.1817C3.57599 10.171 3.5751 10.1601 3.57181 10.1497C3.56851 10.1394 3.56288 10.1298 3.5553 10.1217C3.53812 10.106 3.51558 10.0964 3.49165 10.0948L3.35163 10.0858L3.33254 10.3674H3.37391ZM3.67304 10.1367H3.77487L3.80988 10.1427C3.82579 10.1517 3.83215 10.1637 3.83215 10.1847C3.83215 10.2026 3.82897 10.2146 3.81624 10.2236C3.80258 10.2305 3.78714 10.2336 3.77169 10.2326H3.67304V10.1367M3.67304 10.3824V10.2626L3.76851 10.2656C3.78442 10.2656 3.80033 10.2656 3.8067 10.2716C3.81942 10.2775 3.82897 10.2895 3.82897 10.3075V10.3764L3.83534 10.3854H3.88625V10.3794C3.88315 10.3779 3.88042 10.3758 3.87823 10.3732C3.87604 10.3706 3.87443 10.3676 3.87352 10.3644C3.87146 10.3566 3.87039 10.3485 3.87034 10.3405V10.3015C3.87034 10.2835 3.86398 10.2715 3.85761 10.2656C3.85123 10.2573 3.84236 10.251 3.83215 10.2476C3.84488 10.2416 3.85761 10.2326 3.86398 10.2236C3.87034 10.2116 3.87671 10.1996 3.87671 10.1817C3.87671 10.1517 3.86079 10.1277 3.83215 10.1157C3.81409 10.1082 3.79462 10.1042 3.77487 10.1038H3.63167V10.3854H3.67304M3.99127 10.3255C3.97217 10.3033 3.96103 10.2761 3.95944 10.2476C3.95944 10.2086 3.96581 10.1787 3.9849 10.1577C3.99457 10.1478 4.0064 10.14 4.01959 10.1348C4.03278 10.1296 4.047 10.1272 4.06128 10.1277C4.07509 10.1262 4.08909 10.1276 4.10228 10.1318C4.11547 10.1359 4.12754 10.1427 4.13765 10.1517C4.15993 10.1697 4.16947 10.1966 4.17265 10.2296C4.17511 10.2587 4.16848 10.2879 4.15356 10.3135C4.13765 10.3375 4.11219 10.3524 4.074 10.3524C4.03582 10.3524 4.01036 10.3465 3.98808 10.3255M3.94035 10.1487C3.92193 10.1787 3.91309 10.213 3.91489 10.2476C3.91807 10.2895 3.9308 10.3255 3.95944 10.3495C3.97445 10.3633 3.99245 10.374 4.01222 10.3807C4.03199 10.3874 4.05306 10.39 4.074 10.3884C4.09574 10.3882 4.11712 10.3832 4.13646 10.3738C4.15579 10.3645 4.17254 10.351 4.18538 10.3345C4.20791 10.3026 4.21906 10.2648 4.21721 10.2266C4.2161 10.1925 4.20263 10.1597 4.17902 10.1337C4.15038 10.1038 4.10901 10.0888 4.05491 10.0918C4.004 10.0918 3.96581 10.1127 3.94035 10.1487M5.34054 9.74421C5.37236 9.74121 5.39782 9.74121 5.42009 9.7472C5.45192 9.75919 5.47419 9.78016 5.4901 9.81612L5.44874 9.82211C5.44174 9.80502 5.42808 9.79109 5.41055 9.78316C5.39041 9.77534 5.36828 9.77326 5.3469 9.77717C5.33403 9.77922 5.32174 9.78373 5.31079 9.79043C5.29985 9.79713 5.29047 9.80587 5.28326 9.81612C5.26735 9.83709 5.26098 9.86705 5.26735 9.906C5.27073 9.93519 5.28414 9.96255 5.30553 9.98391C5.32463 10.0019 5.35327 10.0079 5.38827 10.0049C5.41307 10.0016 5.43573 9.9899 5.45192 9.97192C5.47101 9.95395 5.47419 9.92998 5.46783 9.89702L5.37236 9.912L5.36918 9.88204L5.50283 9.86106L5.52829 10.0109H5.49965L5.48374 9.98091L5.45192 10.0109C5.43601 10.0259 5.41373 10.0318 5.38827 10.0378C5.35272 10.0438 5.31612 10.0362 5.28644 10.0169C5.26964 10.0046 5.25563 9.9892 5.24524 9.9717C5.23486 9.9542 5.22831 9.93492 5.22598 9.91499C5.22078 9.89465 5.22007 9.87351 5.2239 9.85289C5.22773 9.83227 5.23602 9.81262 5.24825 9.79514C5.25928 9.78063 5.27354 9.76856 5.29002 9.75977C5.30651 9.75097 5.32483 9.74566 5.34372 9.74421M5.64285 9.72323L5.73832 9.69027C5.75105 9.68428 5.76378 9.68428 5.77332 9.68428C5.79242 9.68428 5.80515 9.69627 5.81151 9.71424C5.81788 9.73222 5.81788 9.7472 5.81151 9.75919C5.80196 9.76818 5.78924 9.77717 5.77014 9.78316L5.68104 9.81312L5.64285 9.72323M5.73832 9.95395L5.69377 9.84308L5.78287 9.81312C5.79382 9.80805 5.8057 9.80499 5.81788 9.80413C5.83379 9.80713 5.84652 9.81612 5.85606 9.83409L5.87516 9.87604L5.8847 9.89702L5.89107 9.906L5.9388 9.88803V9.88204C5.92925 9.88204 5.92289 9.87904 5.91971 9.87005C5.91334 9.86705 5.91016 9.85806 5.90698 9.84908L5.89107 9.81312C5.8847 9.79814 5.87516 9.78915 5.86879 9.78316C5.85876 9.77904 5.84791 9.77699 5.83697 9.77717L5.85606 9.74121C5.85606 9.72922 5.85606 9.71424 5.8497 9.69926C5.83697 9.6693 5.81788 9.65132 5.78605 9.65132C5.76545 9.65018 5.74482 9.65325 5.72559 9.66031L5.59194 9.70526L5.70013 9.96893L5.73832 9.95694M6.08837 9.81612L5.91971 9.58241L6.10428 9.46855L6.12655 9.49851L5.97381 9.5884L6.02472 9.66031L6.16792 9.57642L6.18702 9.60338L6.04382 9.68728L6.1011 9.76818L6.26021 9.6723L6.2793 9.70226L6.08837 9.81612M6.23793 9.40263L6.28567 9.35169C6.31112 9.32772 6.3334 9.31874 6.35886 9.32173C6.3875 9.32173 6.41296 9.33671 6.4416 9.36068C6.46179 9.37662 6.47716 9.39729 6.48615 9.42061C6.49251 9.43859 6.48933 9.45357 6.48615 9.46855C6.48039 9.47955 6.47288 9.48966 6.46387 9.49851L6.41614 9.54645L6.23793 9.40263M6.49569 9.5105C6.5307 9.47454 6.53706 9.43859 6.51797 9.39065C6.50466 9.36643 6.48626 9.34502 6.46387 9.32772C6.43691 9.30372 6.40217 9.28895 6.36522 9.28578C6.32704 9.28278 6.29521 9.29477 6.26657 9.32473L6.18383 9.40862L6.41296 9.59739L6.49569 9.51349M6.6739 9.29477L6.40977 9.14495L6.43205 9.11499L6.69618 9.26181L6.6739 9.29177M6.77891 9.12398L6.49251 9.01611L6.57525 8.82735L6.61026 8.83933L6.54343 8.99514L6.62935 9.0251L6.69299 8.88428L6.72482 8.89626L6.66117 9.04008L6.75664 9.07604L6.82983 8.92023L6.86165 8.93222L6.77891 9.12398M6.9062 8.79439L6.60707 8.73446L6.6198 8.68952L6.89666 8.59963L6.65162 8.54869L6.66117 8.51574L6.9603 8.57566L6.95076 8.61761L6.6739 8.7075L6.91893 8.75843L6.90939 8.79439M6.88393 8.43484L6.88711 8.39888C6.9062 8.39888 6.91893 8.39888 6.93166 8.39289C6.95394 8.3809 6.96348 8.35993 6.96985 8.32997C6.97164 8.31592 6.97056 8.30168 6.96667 8.28802C6.9603 8.26704 6.94757 8.25206 6.9253 8.25206C6.9062 8.24907 6.89348 8.25206 6.88711 8.26105C6.87756 8.27004 6.8712 8.28502 6.86484 8.306L6.84892 8.34195C6.84256 8.36592 6.83301 8.3839 6.82347 8.39289C6.81074 8.41087 6.79164 8.41686 6.76619 8.41386C6.75396 8.41325 6.742 8.41028 6.73105 8.40512C6.7201 8.39997 6.71039 8.39274 6.70254 8.3839C6.68345 8.36592 6.67708 8.33896 6.68027 8.306C6.68345 8.27603 6.69299 8.25206 6.71209 8.23409C6.728 8.21611 6.75346 8.20412 6.78846 8.21012L6.78528 8.24607C6.76937 8.24607 6.75346 8.24607 6.74709 8.25506C6.728 8.26405 6.71845 8.28502 6.71527 8.31199C6.71527 8.33296 6.71527 8.34794 6.728 8.35993C6.73755 8.37191 6.74709 8.37791 6.75982 8.37791C6.77573 8.37791 6.78846 8.37791 6.79483 8.36592L6.8171 8.31499L6.82983 8.27603C6.8362 8.25806 6.84574 8.24607 6.85529 8.23409C6.8712 8.2191 6.89348 8.21311 6.91893 8.21311C6.95394 8.21611 6.9794 8.23109 6.98894 8.25506C7.00167 8.27903 7.00804 8.303 7.00485 8.33596C7.00308 8.36555 6.98943 8.39339 6.96667 8.41386C6.94439 8.43184 6.91893 8.43783 6.88393 8.43484M0.659454 8.41686L0.669001 8.45281C0.649907 8.45581 0.637178 8.4618 0.627631 8.47079C0.61172 8.48577 0.605356 8.50974 0.61172 8.5427C0.613911 8.55525 0.618208 8.56738 0.624449 8.57866C0.637178 8.59963 0.656272 8.60862 0.678547 8.60562C0.694459 8.60263 0.704005 8.59663 0.71037 8.58465L0.719917 8.53671V8.49776C0.719917 8.47379 0.726281 8.45281 0.729463 8.44382C0.73901 8.42585 0.758104 8.41386 0.783561 8.40787C0.809019 8.40487 0.834477 8.40787 0.853571 8.42585C0.875847 8.43783 0.888576 8.4618 0.89494 8.49177C0.901126 8.51801 0.897764 8.54544 0.885393 8.56967C0.872664 8.59364 0.853571 8.60562 0.818566 8.61162L0.812202 8.57866C0.823956 8.57468 0.834768 8.56857 0.844024 8.56068C0.859935 8.5457 0.863118 8.52472 0.859935 8.49776C0.853571 8.47379 0.847206 8.45881 0.834477 8.45281C0.829157 8.44884 0.822999 8.44599 0.816414 8.44444C0.809829 8.44289 0.802968 8.44268 0.796291 8.44382C0.789271 8.44352 0.782343 8.44542 0.776586 8.44921C0.77083 8.453 0.766569 8.45849 0.764468 8.4648L0.761286 8.51873L0.758104 8.55768C0.757977 8.57439 0.753613 8.59083 0.745374 8.60562C0.740209 8.61535 0.732565 8.62373 0.723126 8.63C0.713686 8.63628 0.702744 8.64025 0.691276 8.64158C0.659454 8.64757 0.627631 8.63858 0.61172 8.61761C0.59227 8.59736 0.579066 8.5725 0.573533 8.5457C0.569916 8.53095 0.569461 8.51566 0.572193 8.50074C0.574925 8.48582 0.58079 8.47157 0.589444 8.45881C0.597348 8.44786 0.607722 8.43869 0.619824 8.43196C0.631926 8.42523 0.645458 8.42109 0.659454 8.41985M0.64036 8.7884L0.936309 8.7045L1.00314 8.89926L0.968132 8.91124L0.910851 8.75244L0.821748 8.77641L0.875847 8.92622L0.840842 8.93521L0.789926 8.7854L0.688094 8.81536L0.745374 8.97716L0.713552 8.98615L0.64036 8.7884M0.770832 9.12697L1.04132 8.99214L1.07315 9.04008L0.885393 9.22286L1.15588 9.18091L1.18452 9.22585L0.914034 9.36068L0.89494 9.33072L1.05405 9.24982L1.08269 9.23784L1.12406 9.21686L0.853571 9.26181L0.834477 9.22885L1.01905 9.04308L1.0095 9.04907L0.977679 9.06405C0.968535 9.0697 0.958963 9.07471 0.949038 9.07903L0.789926 9.15694L0.770832 9.12697M1.27363 9.50151C1.2609 9.49851 1.24817 9.48952 1.23544 9.47754L1.17816 9.42361L1.25453 9.35769L1.31181 9.41162C1.32134 9.42006 1.32892 9.43026 1.33409 9.44158C1.34045 9.45656 1.33409 9.47155 1.31818 9.48653C1.30227 9.49851 1.28636 9.5045 1.27363 9.50151ZM1.05723 9.52548L1.1527 9.44458L1.21635 9.5075C1.24181 9.52848 1.26408 9.53746 1.28636 9.53746C1.30999 9.53717 1.33267 9.52863 1.35 9.51349C1.36607 9.49718 1.37515 9.47582 1.37546 9.45357C1.37546 9.43559 1.36591 9.41462 1.34682 9.39664L1.25135 9.30675L1.02859 9.49851L1.06042 9.52848M1.32773 9.7532L1.49002 9.51349L1.68096 9.62136L1.66186 9.65132L1.50275 9.56143L1.45502 9.63634L1.59822 9.71724L1.58231 9.7472L1.43592 9.66331L1.38182 9.74421L1.54094 9.83409L1.52184 9.86406L1.32773 9.7532ZM1.80506 9.70526L1.90371 9.73522L1.93553 9.7502C1.94826 9.76218 1.95145 9.77717 1.9419 9.79514C1.93553 9.81312 1.92917 9.82511 1.91326 9.8281L1.86553 9.82511L1.77324 9.79514L1.80506 9.70526M1.72232 9.94196L1.76369 9.8281L1.8528 9.85507C1.86871 9.85807 1.88462 9.86406 1.8878 9.87005C1.89735 9.87904 1.90053 9.89402 1.89735 9.912L1.88144 9.95694L1.87825 9.97792V9.9869L1.92599 10.0019V9.99589L1.91962 9.97492L1.92599 9.95395L1.93872 9.91799C1.9419 9.90001 1.94508 9.88803 1.93872 9.88204C1.93872 9.87305 1.92917 9.86406 1.91962 9.85507C1.93553 9.85507 1.95145 9.84908 1.96099 9.84009C1.97054 9.8311 1.98009 9.81911 1.98327 9.80413C1.996 9.77417 1.98963 9.7472 1.96418 9.72923C1.94904 9.71746 1.9318 9.70833 1.91326 9.70226L1.77642 9.66331L1.68096 9.92998L1.72232 9.94196" fill="#009FC5"/>
<path d="M2.136 5.091C2.16782 5.0101 2.49559 4.79137 3.56165 4.88725C3.56165 4.88725 3.74303 4.99212 3.84805 4.97714C3.91169 4.97115 3.81622 4.98313 3.73349 4.92021C3.65393 4.86028 3.63802 4.73145 3.81941 4.73744C4.00398 4.74043 4.68816 4.77639 4.70089 4.83632C4.71362 4.89324 4.33811 4.91721 4.20128 4.91422C4.06126 4.91122 4.07399 4.97714 4.21401 4.97414C4.64997 4.95617 5.12413 4.81234 5.62374 5.14793C5.6842 5.18688 5.47418 5.19287 5.31188 5.12995C5.31188 5.12995 4.86637 5.15092 4.67543 5.12096C4.67543 5.12096 4.53223 5.23482 4.33811 5.22283C4.36357 5.28276 4.2681 5.49849 3.66984 5.3337C3.56801 5.36366 3.20842 5.42059 3.2466 5.31871C3.15114 5.31871 2.98566 5.34868 2.9602 5.29774C2.93474 5.2468 3.25297 5.1719 3.31025 5.11796C3.31025 5.11796 2.63561 5.12396 2.50832 5.07901C2.50832 5.07901 2.11054 5.16291 2.136 5.091" fill="#BC715F"/>
<path d="M2.35241 5.97789C2.36514 5.95992 2.3715 5.92396 2.40333 5.92696C2.46697 5.94194 2.5147 6.05879 2.59426 5.98389C2.62608 5.97789 2.63563 6.01385 2.65791 6.01984C2.67382 6.08276 2.7311 6.00486 2.76928 6.01085C2.85839 5.9749 2.9634 5.96591 3.06842 5.98089C3.06842 6.04681 3.0175 6.11572 2.95385 6.15168C2.95385 6.2116 3.0175 6.25355 3.01432 6.31647C3.00477 6.34044 3.01432 6.3764 2.97613 6.38539C2.92521 6.3764 2.88066 6.3734 2.83929 6.34643C2.83293 6.34344 2.82975 6.33445 2.8202 6.33745C2.81384 6.35842 2.85202 6.37939 2.86475 6.40037C2.83929 6.43932 2.80111 6.40336 2.7661 6.40336C2.75656 6.42733 2.7661 6.4543 2.74064 6.46928C2.69928 6.46928 2.68973 6.42434 2.66427 6.40336C2.63563 6.43033 2.68336 6.44531 2.68973 6.46629C2.67064 6.55018 2.67382 6.63108 2.5879 6.68501L2.52743 6.71198C2.51152 6.67003 2.52107 6.60711 2.51152 6.56217C2.4797 6.6161 2.44788 6.66404 2.40014 6.70898C2.3365 6.69101 2.30468 6.62509 2.29195 6.56816C2.27897 6.53675 2.27597 6.50247 2.28332 6.46949C2.29066 6.4365 2.30803 6.40624 2.33332 6.38239C2.31741 6.35243 2.25376 6.35842 2.24421 6.31048C2.14875 6.25055 2.10101 6.40936 2.04055 6.32846C2.03118 6.28847 2.03206 6.24695 2.04313 6.20735C2.0542 6.16775 2.07513 6.13121 2.1042 6.10074C2.08828 6.07078 2.04373 6.07677 2.01827 6.05879C1.96099 6.01085 1.87507 5.96291 1.88144 5.87902C1.96131 5.85179 2.04778 5.84664 2.13066 5.86416C2.21354 5.88167 2.28938 5.92114 2.34923 5.97789" fill="#008737"/>
<path d="M2.43512 5.9689C2.43194 6.03782 2.48286 5.98688 2.52423 6.02883C2.4924 6.01684 2.47013 6.07977 2.43831 6.04381L2.41921 6.06179C2.43194 6.08576 2.45104 6.08875 2.43194 6.11572C2.40012 6.12771 2.39057 6.08576 2.37466 6.07078C2.37466 6.06478 2.38103 6.0528 2.3683 6.04681C2.3492 6.06179 2.33011 6.06778 2.30465 6.06478C2.29829 6.0528 2.28238 6.03482 2.29829 6.02284C2.32375 5.99287 2.36193 6.03482 2.38103 6.01385C2.38421 5.99287 2.36511 5.9689 2.39057 5.95392C2.40648 5.95692 2.42876 5.94793 2.43512 5.9689M2.63242 6.02583C2.63561 6.03782 2.62606 6.0558 2.64515 6.06778C2.67061 6.0558 2.69607 6.06478 2.7088 6.08576C2.7088 6.09774 2.71198 6.11572 2.69607 6.12171L2.65788 6.11272C2.66106 6.10673 2.64833 6.10374 2.64515 6.09475C2.62924 6.09175 2.61651 6.10374 2.60697 6.11272C2.61651 6.12471 2.63879 6.1337 2.63242 6.14868C2.61015 6.16965 2.6006 6.1307 2.57514 6.14269C2.55605 6.13669 2.57832 6.10374 2.55287 6.09175C2.52104 6.09175 2.54332 6.13969 2.50195 6.12171C2.48922 6.10673 2.47649 6.08576 2.48922 6.07078C2.49864 6.06552 2.50962 6.06326 2.52051 6.06434C2.5314 6.06542 2.54163 6.06978 2.54968 6.07677C2.57514 6.0498 2.57514 5.95392 2.63561 6.02583M2.38739 6.12471C2.4033 6.14868 2.38103 6.17864 2.4033 6.20261C2.43512 6.14269 2.46695 6.2146 2.50513 6.20861C2.51786 6.22359 2.50832 6.24156 2.5115 6.25655C2.46376 6.26853 2.40648 6.28351 2.36511 6.24756L2.35239 6.25954C2.37784 6.28052 2.40012 6.30748 2.38103 6.34344C2.34602 6.34943 2.28874 6.35243 2.27283 6.31647C2.26328 6.28651 2.2951 6.26853 2.2601 6.24456C2.23782 6.27452 2.23782 6.31048 2.19009 6.28351C2.17643 6.27651 2.16616 6.26481 2.16142 6.25086C2.15667 6.23691 2.15783 6.22178 2.16463 6.20861C2.19646 6.16067 2.25374 6.20861 2.28556 6.18763C2.29192 6.14568 2.27601 6.10973 2.31738 6.08875C2.3492 6.08276 2.36511 6.10673 2.38739 6.12471" fill="#FFFF00"/>
<path d="M2.52107 6.15168C2.50515 6.22059 2.45106 6.14868 2.4256 6.14568C2.45742 6.08576 2.4797 6.16366 2.52107 6.15168ZM2.69291 6.22658C2.65472 6.23557 2.66108 6.19063 2.64199 6.17265L2.6579 6.16066C2.67063 6.17565 2.68018 6.20561 2.69291 6.22658" fill="white"/>
<path d="M2.64199 6.2116C2.65154 6.23557 2.61654 6.25655 2.64836 6.27153L2.67382 6.25055C2.70246 6.25655 2.7311 6.26254 2.75019 6.28651C2.76928 6.33744 2.71519 6.33744 2.68655 6.35243H2.65472C2.66109 6.33445 2.63881 6.32846 2.63563 6.32246C2.62952 6.32043 2.62289 6.32019 2.61663 6.3218C2.61038 6.32341 2.60479 6.32677 2.60062 6.33145C2.60699 6.36142 2.64836 6.39138 2.60699 6.41834C2.5688 6.41834 2.51152 6.43033 2.5147 6.38239C2.50198 6.35243 2.55289 6.31347 2.49879 6.31048C2.4797 6.34943 2.46061 6.38239 2.41287 6.34943L2.41924 6.2955C2.46379 6.2955 2.51789 6.30449 2.53698 6.25655C2.54971 6.22359 2.5147 6.19063 2.54653 6.16666C2.59426 6.15467 2.61972 6.18464 2.64199 6.2116" fill="#FFFF00"/>
<path d="M2.61014 6.28951C2.61969 6.31647 2.59105 6.31947 2.57514 6.33145C2.55605 6.33145 2.54332 6.32546 2.53059 6.31348C2.52104 6.28351 2.5465 6.27752 2.56241 6.26554C2.58469 6.25655 2.59423 6.28052 2.61014 6.28951" fill="black"/>
<path d="M2.58152 6.30748C2.57834 6.31348 2.56879 6.31048 2.56243 6.31348L2.55606 6.28351C2.57197 6.28351 2.58788 6.28651 2.58152 6.30748Z" fill="white"/>
</g>
</g>
<defs>
<clipPath id="clip0_6947_99060">
<rect width="21" height="15" fill="white"/>
</clipPath>
<clipPath id="clip1_6947_99060">
<rect width="21.7241" height="15.3409" fill="white" transform="translate(-0.362061 -0.170456)"/>
</clipPath>
</defs>
</svg>
