<svg width="21" height="15" viewBox="0 0 21 15" fill="none" xmlns="http://www.w3.org/2000/svg">
<g clip-path="url(#clip0_2844_5667)">
<path d="M0 0H21V15H0V0Z" fill="#3E5EB9"/>
<path d="M0 2.8125H21V12.1875H0V2.8125Z" fill="#FFD900"/>
<path d="M0 3.75H21V11.25H0V3.75Z" fill="#B10C0C"/>
<path d="M17.9905 5.78625L17.0337 6.10875L17.9866 6.4275L18.9434 6.10875L17.9905 5.78625Z" fill="white"/>
<path fill-rule="evenodd" clip-rule="evenodd" d="M17.9902 5.76636L19.0022 6.10889L17.9862 6.44737L16.9741 6.10882L17.9902 5.76636ZM17.0925 6.10868L17.9862 6.40763L18.8838 6.10861L17.9901 5.80615L17.0925 6.10868Z" fill="black"/>
<path d="M17.3562 6H3.53954C3.47213 6 3.41748 6.04785 3.41748 6.10688C3.41748 6.1659 3.47213 6.21375 3.53954 6.21375H17.3562C17.4236 6.21375 17.4783 6.1659 17.4783 6.10688C17.4783 6.04785 17.4236 6 17.3562 6Z" fill="#FFD900"/>
<path fill-rule="evenodd" clip-rule="evenodd" d="M3.5397 6.0187C3.48157 6.0187 3.43732 6.05961 3.43732 6.10683C3.43732 6.15404 3.48157 6.19495 3.5397 6.19495H17.3564C17.4145 6.19495 17.4588 6.15404 17.4588 6.10683C17.4588 6.05961 17.4145 6.0187 17.3564 6.0187H3.5397ZM3.39795 6.10683C3.39795 6.03599 3.463 5.9812 3.5397 5.9812H17.3564C17.4331 5.9812 17.4981 6.03599 17.4981 6.10683C17.4981 6.17766 17.4331 6.23245 17.3564 6.23245H3.5397C3.463 6.23245 3.39795 6.17766 3.39795 6.10683Z" fill="black"/>
<path d="M17.1439 6.21375C17.1732 6.21288 17.2011 6.20165 17.2222 6.18224C17.2433 6.16283 17.2561 6.13663 17.2581 6.10875C17.2571 6.0802 17.2447 6.05308 17.2235 6.03289C17.2023 6.01269 17.1738 6.00094 17.1439 6M17.0336 6.21375C17.0623 6.21199 17.0892 6.20036 17.1095 6.18103C17.1298 6.16171 17.142 6.13602 17.1439 6.10875C17.143 6.08082 17.1312 6.05421 17.1108 6.03411C17.0904 6.01401 17.0629 6.00185 17.0336 6M16.9194 6.21375C16.9488 6.21288 16.9767 6.20165 16.9978 6.18224C17.0189 6.16283 17.0317 6.13663 17.0336 6.10875C17.0326 6.0802 17.0203 6.05308 16.9991 6.03289C16.9779 6.01269 16.9494 6.00094 16.9194 6" fill="#FFD900"/>
<path fill-rule="evenodd" clip-rule="evenodd" d="M16.9197 5.9812C16.9547 5.98229 16.9879 5.99601 17.0127 6.01957C17.0374 6.04313 17.0518 6.07477 17.053 6.10808L17.053 6.109L17.0529 6.10993C17.0507 6.14246 17.0358 6.17302 17.0111 6.19567C16.9865 6.21831 16.9539 6.23142 16.9197 6.23243L16.9185 6.19495C16.9429 6.19422 16.9662 6.18486 16.9838 6.16869C17.0012 6.15273 17.0117 6.13127 17.0136 6.10838C17.0125 6.08493 17.0023 6.0627 16.9848 6.04609C16.9672 6.02926 16.9434 6.01946 16.9185 6.01868L16.9197 5.9812ZM17.1442 5.9812C17.1792 5.98229 17.2124 5.99601 17.2371 6.01957C17.2619 6.04313 17.2763 6.07477 17.2774 6.10808L17.2774 6.109L17.2774 6.10993C17.2751 6.14246 17.2602 6.17302 17.2356 6.19567C17.211 6.21831 17.1784 6.23142 17.1442 6.23243L17.1429 6.19495C17.1674 6.19422 17.1906 6.18486 17.2082 6.16869C17.2256 6.15273 17.2362 6.13127 17.238 6.10838C17.237 6.08493 17.2267 6.0627 17.2093 6.04609C17.1916 6.02926 17.1679 6.01946 17.1429 6.01868L17.1442 5.9812ZM17.0346 5.98123C17.0687 5.98339 17.1008 5.99758 17.1246 6.02103C17.1484 6.04448 17.1622 6.07552 17.1632 6.10811L17.1632 6.10901L17.1632 6.1099C17.161 6.14171 17.1468 6.17169 17.1231 6.19423C17.0994 6.21678 17.068 6.23034 17.0346 6.2324L17.032 6.19498C17.0559 6.19351 17.0784 6.18382 17.0953 6.16772C17.112 6.15183 17.1221 6.13077 17.1238 6.10838C17.1228 6.08543 17.1131 6.06361 17.0963 6.04708C17.0793 6.03032 17.0564 6.02019 17.032 6.01865L17.0346 5.98123Z" fill="black"/>
<path d="M19.8961 7.33875H1.10239C1.01105 7.33875 0.937012 7.41094 0.937012 7.5C0.937012 7.58905 1.01105 7.66125 1.10239 7.66125H19.8961C19.9874 7.66125 20.0615 7.58905 20.0615 7.5C20.0615 7.41094 19.9874 7.33875 19.8961 7.33875Z" fill="#FFD900"/>
<path fill-rule="evenodd" clip-rule="evenodd" d="M1.10256 7.35937C1.02366 7.35937 0.95884 7.42187 0.95884 7.49999C0.95884 7.57812 1.02366 7.64062 1.10256 7.64062H19.8962C19.9751 7.64062 20.04 7.57812 20.04 7.49999C20.04 7.42187 19.9751 7.35937 19.8962 7.35937H1.10256ZM0.915527 7.49999C0.915527 7.4 0.998787 7.31812 1.10256 7.31812H19.8962C20 7.31812 20.0833 7.4 20.0833 7.49999C20.0833 7.59998 20 7.68187 19.8962 7.68187H1.10256C0.998787 7.68187 0.915527 7.59998 0.915527 7.49999Z" fill="black"/>
<path d="M16.0191 7.50005C14.8937 8.57192 13.3941 10.7157 10.3951 10.7157C7.77006 10.7157 5.89646 8.57192 4.771 7.50005C5.89318 6.42817 7.77006 4.28442 10.3951 4.28442C13.3941 4.28442 14.8937 6.42817 16.0191 7.50005V7.50005Z" fill="white"/>
<path fill-rule="evenodd" clip-rule="evenodd" d="M4.79879 7.49998C4.91263 7.60869 5.03391 7.72797 5.16265 7.85459C5.66964 8.35323 6.29238 8.96572 7.03251 9.49477C7.96787 10.1634 9.08841 10.6969 10.395 10.6969C12.9199 10.6969 14.3769 9.17323 15.4491 8.05196C15.6408 7.85143 15.8203 7.66377 15.9913 7.5C15.8203 7.33623 15.6408 7.14857 15.4491 6.94804C14.3769 5.82677 12.9199 4.30313 10.395 4.30313C9.08841 4.30313 7.96704 4.83664 7.03128 5.50523C6.28696 6.03704 5.6615 6.65318 5.15389 7.15322C5.02832 7.27692 4.90996 7.39352 4.79879 7.49998ZM16.0191 7.5L16.033 7.48674C15.8595 7.32149 15.6768 7.1303 15.4807 6.92515C14.4092 5.8039 12.939 4.26562 10.395 4.26562C9.07669 4.26562 7.94712 4.80399 7.00765 5.47524C6.26054 6.00904 5.63223 6.62801 5.12454 7.12815C4.99407 7.25669 4.87156 7.37738 4.75704 7.48676L4.74316 7.50002L4.75706 7.51326C4.87422 7.62483 4.99963 7.74818 5.13327 7.87963C5.64036 8.37839 6.26597 8.99373 7.00888 9.52476C7.94794 10.196 9.07668 10.7344 10.395 10.7344C12.939 10.7344 14.4092 9.1961 15.4807 8.07485C15.6768 7.8697 15.8595 7.67851 16.033 7.51326L16.0191 7.5Z" fill="black"/>
<path d="M10.0013 5.4063C10.3032 5.72505 10.0505 5.85317 10.3688 5.87505C10.7035 5.89692 10.5132 6.21255 10.7954 6.22505C10.9922 6.2313 10.7757 6.9813 10.9627 7.22505C11.1563 7.48442 11.3171 7.30317 11.3237 7.48755C11.3237 7.6813 10.7987 7.65942 10.7888 8.25317C10.7724 8.5938 10.3426 8.61567 10.3229 8.83442C10.2966 9.04067 11.1694 9.1563 11.1563 9.34067C11.1465 9.52817 10.2146 9.49692 10.1719 9.7063C10.1522 9.8938 11.4516 10.05 11.5566 10.5969C11.3597 10.6594 10.8118 10.7125 10.3951 10.7157C7.77006 10.7157 5.89646 8.57192 4.771 7.49692C5.89646 6.42817 7.77006 4.28442 10.3951 4.28442C10.3951 4.28442 9.6174 4.96255 10.0013 5.40317V5.4063Z" fill="black"/>
<path d="M7.00879 7.21495V6.3562ZM7.55216 6.3562V7.21495ZM8.09554 6.3562V7.21495Z" fill="black"/>
<path fill-rule="evenodd" clip-rule="evenodd" d="M7.14473 6.3562V7.21495H6.87305V6.3562H7.14473ZM7.41642 7.21495V6.3562H7.68811V7.21495H7.41642ZM7.9598 7.21495V6.3562H8.23148V7.21495H7.9598Z" fill="white"/>
<path d="M18.7163 7.37495C18.5456 7.65308 18.8475 7.2812 19.5825 7.74995C19.6572 7.80875 19.7185 7.88151 19.7625 7.96375C19.8065 8.04599 19.8324 8.13595 19.8384 8.22808C19.8056 8.2062 19.7761 8.1562 19.74 8.12808C19.6875 8.17808 19.7925 8.40933 19.8056 8.5187C19.6908 8.4562 19.7006 8.4312 19.6645 8.3562C19.6711 8.4437 19.6416 8.6937 19.6908 8.7937C19.5989 8.7687 19.6055 8.69995 19.5595 8.68433C19.5923 8.7937 19.53 8.90933 19.5464 9.03433C19.4939 8.98433 19.4348 8.9437 19.4119 8.92495C19.4053 8.98745 19.3102 9.13745 19.3069 9.1937C19.2897 9.18323 19.2751 9.16949 19.2638 9.15336C19.2525 9.13723 19.2448 9.11904 19.2413 9.09995C19.1371 9.21819 19.0489 9.34836 18.9788 9.48745C18.8245 9.36245 18.4341 9.04995 18.3816 8.8812C18.3356 8.97495 18.27 9.0062 18.1453 9.07495C18.0928 8.81245 17.8992 8.5187 18.0009 8.29058C17.932 8.33117 17.8652 8.37497 17.8008 8.42183C17.8595 8.19157 17.9728 7.9772 18.1321 7.79517C18.2913 7.61315 18.4923 7.46832 18.7195 7.37183L18.7163 7.37495Z" fill="#333333"/>
<path fill-rule="evenodd" clip-rule="evenodd" d="M18.6782 7.40741C18.4729 7.5024 18.291 7.63792 18.1447 7.80516C17.997 7.97401 17.8891 8.17097 17.8284 8.38264C17.8815 8.34546 17.9362 8.31031 17.9923 8.27727L18.0362 8.25142L18.0161 8.29667C17.9676 8.40528 17.9889 8.531 18.031 8.66539C18.0459 8.71268 18.063 8.76035 18.0803 8.80837C18.0875 8.82843 18.0948 8.84856 18.1019 8.86875C18.1233 8.9296 18.1433 8.99067 18.1569 9.05055C18.1577 9.05009 18.1585 9.04963 18.1594 9.04917C18.2703 8.98825 18.326 8.95765 18.3667 8.87458L18.385 8.83723L18.3973 8.87675C18.4095 8.91587 18.442 8.96507 18.4881 9.01974C18.534 9.07404 18.592 9.13234 18.6535 9.18954C18.7683 9.29636 18.8943 9.39848 18.9733 9.46249C19.0425 9.32905 19.1282 9.20396 19.2287 9.0899L19.2513 9.06426L19.2574 9.09721C19.2606 9.11418 19.2674 9.13034 19.2774 9.14468C19.2828 9.15231 19.289 9.15933 19.2959 9.16564C19.2991 9.15475 19.3035 9.14301 19.3085 9.13103C19.3182 9.10763 19.3308 9.08126 19.3432 9.05519L19.3434 9.05492C19.3559 9.02875 19.3682 9.00285 19.3779 8.97962C19.3878 8.95596 19.3942 8.93664 19.3956 8.92339L19.3987 8.89359L19.4226 8.91308C19.4282 8.91765 19.4365 8.92395 19.4468 8.93167C19.4681 8.94773 19.4975 8.96992 19.5273 8.9955C19.5266 8.95021 19.5338 8.90647 19.5406 8.8652C19.5414 8.86046 19.5422 8.85575 19.5429 8.85107C19.5524 8.79265 19.5591 8.7396 19.5438 8.68861L19.535 8.65937L19.5651 8.6696C19.5806 8.67489 19.5912 8.6846 19.5995 8.69497C19.6045 8.70116 19.6096 8.70881 19.6144 8.71604C19.6169 8.71984 19.6193 8.72352 19.6216 8.72682C19.6314 8.74084 19.6432 8.75487 19.6631 8.76589C19.6572 8.74509 19.6532 8.72165 19.6505 8.69707C19.6462 8.65738 19.6451 8.61338 19.6453 8.57018C19.6454 8.53487 19.6465 8.4998 19.6475 8.46788C19.6477 8.46074 19.6479 8.45376 19.6481 8.44697C19.6492 8.40946 19.6498 8.37826 19.6482 8.3573L19.6795 8.34968C19.6864 8.36406 19.6917 8.37682 19.6964 8.38797C19.698 8.39167 19.6994 8.39518 19.7009 8.39852C19.7067 8.41215 19.712 8.42308 19.7192 8.43346C19.7307 8.4498 19.7481 8.46614 19.7836 8.48781C19.7793 8.46826 19.7734 8.44623 19.7666 8.42267C19.7624 8.40794 19.7578 8.39256 19.7532 8.37693C19.7461 8.35302 19.7388 8.32856 19.7323 8.30506C19.7216 8.26606 19.7127 8.22796 19.7099 8.19611C19.7085 8.18018 19.7086 8.16513 19.7111 8.15197C19.7135 8.13887 19.7186 8.12634 19.7284 8.11702L19.7389 8.10702L19.7504 8.11597C19.7691 8.13053 19.7859 8.15023 19.8009 8.16791C19.8017 8.1688 19.8025 8.16968 19.8032 8.17056C19.8083 8.17655 19.8132 8.18225 19.818 8.18753C19.8079 8.11209 19.7843 8.03876 19.7479 7.97083C19.705 7.89073 19.6454 7.81983 19.5727 7.76248C19.2086 7.53042 18.9528 7.50696 18.8097 7.50658C18.7917 7.50653 18.7754 7.50685 18.7607 7.50718C18.7588 7.50723 18.7568 7.50727 18.7549 7.50732C18.7426 7.5076 18.7314 7.50786 18.7216 7.50784C18.7102 7.50783 18.6999 7.50746 18.6911 7.50619C18.6825 7.50496 18.6735 7.50263 18.6663 7.49733C18.6581 7.49138 18.6541 7.48299 18.6535 7.47354C18.653 7.46498 18.6553 7.45575 18.6589 7.44633C18.663 7.43567 18.6695 7.42281 18.6782 7.40741ZM18.7294 7.38456L18.7312 7.38286L18.7129 7.35754C18.4834 7.45501 18.2804 7.6013 18.1195 7.78516C17.9586 7.96902 17.8441 8.18555 17.7849 8.41813L17.7739 8.46103L17.8108 8.43423C17.8624 8.39669 17.9155 8.36112 17.9701 8.32761C17.9387 8.43604 17.9623 8.55522 17.9996 8.67433C18.0146 8.72225 18.0321 8.77087 18.0495 8.81915C18.0567 8.83908 18.0638 8.85895 18.0708 8.87869C18.0947 8.94658 18.1163 9.01333 18.1292 9.07786L18.1335 9.09949L18.1536 9.08846C18.162 9.0838 18.1702 9.0793 18.1782 9.07493C18.2736 9.02263 18.3351 8.98893 18.3793 8.91876C18.3974 8.95597 18.4269 8.99702 18.4626 9.03932C18.5095 9.09498 18.5686 9.15426 18.6306 9.2119C18.7474 9.32057 18.8755 9.4243 18.9543 9.48813C18.9591 9.49202 18.9637 9.49576 18.9681 9.49934L18.9843 9.51247L18.9936 9.49421C19.0587 9.36518 19.1394 9.24389 19.2341 9.13279C19.2383 9.14302 19.2437 9.15282 19.2501 9.16201C19.2627 9.17994 19.279 9.1952 19.298 9.20684L19.3217 9.22132L19.3233 9.19456C19.3239 9.18328 19.3295 9.16547 19.339 9.14248C19.3483 9.11998 19.3605 9.0944 19.3731 9.06813L19.3734 9.06743C19.3858 9.04157 19.3984 9.0151 19.4084 8.99116C19.4139 8.978 19.4188 8.96512 19.4224 8.9532C19.4244 8.95469 19.4264 8.95623 19.4285 8.95782C19.4572 8.97942 19.4973 9.00962 19.5348 9.04536L19.5686 9.07756L19.5627 9.03238C19.5555 8.97712 19.5642 8.92368 19.5731 8.86944C19.5739 8.86491 19.5746 8.86038 19.5754 8.85584C19.5821 8.81423 19.5882 8.77187 19.5846 8.72969C19.5848 8.73001 19.585 8.73034 19.5852 8.73066C19.5879 8.73471 19.5908 8.73913 19.5943 8.74415C19.6112 8.76835 19.6354 8.79487 19.6863 8.80871L19.721 8.81815L19.7057 8.78706C19.6945 8.76445 19.6874 8.73216 19.6832 8.69383C19.679 8.65578 19.6779 8.61306 19.6781 8.57032C19.6783 8.53543 19.6793 8.50082 19.6803 8.46891C19.6805 8.46174 19.6807 8.4547 19.6809 8.44783C19.681 8.44293 19.6812 8.4381 19.6813 8.43336C19.6844 8.43925 19.6879 8.44504 19.6919 8.45079C19.7104 8.47725 19.7393 8.50059 19.7975 8.53226L19.8256 8.54756L19.8219 8.51692C19.8185 8.48824 19.8092 8.45223 19.7983 8.41442C19.7939 8.39906 19.7892 8.38347 19.7846 8.36779C19.7776 8.34424 19.7705 8.32051 19.7641 8.29716C19.7535 8.25843 19.7452 8.22251 19.7426 8.19351C19.7414 8.17902 19.7416 8.16695 19.7434 8.15747C19.7437 8.15594 19.744 8.1545 19.7443 8.15316C19.755 8.16363 19.7655 8.17588 19.7764 8.18866L19.7777 8.19026C19.7933 8.20856 19.8104 8.22843 19.829 8.24086L19.857 8.25947L19.8548 8.22709C19.8486 8.13283 19.8222 8.04078 19.7771 7.95664C19.7321 7.8725 19.6694 7.79805 19.593 7.73789L19.5923 7.73739L19.5916 7.73696C19.2212 7.50068 18.9587 7.47573 18.8098 7.47533C18.7914 7.47528 18.7747 7.47561 18.76 7.47594C18.7579 7.47599 18.756 7.47603 18.754 7.47608C18.7417 7.47636 18.731 7.47661 18.7216 7.47659C18.7107 7.47658 18.7023 7.4762 18.696 7.47529C18.6896 7.47438 18.6871 7.47314 18.6864 7.47262C18.6863 7.47245 18.6863 7.47218 18.6862 7.47177C18.6861 7.46948 18.6867 7.46497 18.6898 7.45703C18.6957 7.44146 18.7086 7.41856 18.7294 7.38456Z" fill="black"/>
<path d="M18.0796 8.76559C18.1518 8.63121 18.2174 8.58746 18.2633 8.49996C18.3421 8.34996 18.3552 8.22496 18.4274 8.24371C18.493 8.26246 18.493 8.32497 18.4044 8.47497C18.3158 8.62497 18.2732 8.65621 18.0796 8.76559ZM18.5587 9.08434C18.5521 8.98434 18.5816 8.94059 18.5783 8.87496C18.5652 8.75621 18.516 8.67809 18.5816 8.67184C18.6472 8.66871 18.6768 8.70621 18.6768 8.82184C18.6768 8.94059 18.6571 8.97184 18.5587 9.08434ZM18.9229 9.28434C18.8933 9.14371 18.9163 9.08121 18.8966 8.98746C18.8638 8.82496 18.8015 8.71871 18.8638 8.70309C18.9229 8.68746 18.9622 8.74059 18.9852 8.90621C19.0049 9.06871 18.9951 9.11559 18.9229 9.28747V9.28434ZM19.3002 8.28434C19.2116 8.22184 19.1591 8.21559 19.1033 8.17496C19.0049 8.09996 18.9524 8.02496 18.9196 8.06246C18.8868 8.09996 18.9097 8.14372 19.018 8.20934C19.1263 8.27497 19.1558 8.28121 19.3002 8.28434V8.28434ZM19.2379 8.75934C19.1919 8.66559 19.1394 8.64372 19.1132 8.58434C19.0607 8.47809 19.0607 8.38746 18.9983 8.40934C18.9426 8.43434 18.936 8.48122 18.9983 8.58434C19.064 8.68434 19.0968 8.70309 19.2346 8.75934H19.2379Z" fill="#B3B3B3"/>
<path d="M1.765 7.6437C1.75187 7.56245 1.77156 7.54995 1.71906 7.48745C1.79781 7.5187 1.79781 7.60308 1.89297 7.5437C1.92578 7.52808 1.94219 7.52808 1.89953 7.43433C1.99797 7.44058 2.31625 7.5437 2.36875 7.54683C2.50328 7.55308 2.74938 7.41245 2.92 7.58433C3.08406 7.74058 3.025 7.9062 3.025 8.12183C2.95938 8.09058 2.99219 8.0812 2.92 7.99995C2.9725 8.1937 2.92 8.53433 2.92 8.73745C2.89375 8.68745 2.89703 8.70933 2.87078 8.65933C2.80516 8.8437 2.71984 8.87808 2.71984 9.09995C2.69359 9.01245 2.71984 9.0312 2.69031 8.98745C2.62469 9.12808 2.16531 9.24683 2.3425 9.38745C2.185 9.29995 2.11281 9.3062 2.04719 9.2312C2.01438 9.24683 1.98813 9.28433 1.96188 9.3312C1.68297 9.21245 1.78141 8.94995 1.56484 8.77183C1.52547 8.84683 1.54188 8.83745 1.49922 8.9562C1.45984 8.79058 1.44672 8.68433 1.3975 8.56245C1.35484 8.6312 1.35812 8.60308 1.27937 8.7062C1.24656 8.5062 1.19734 8.4562 1.21375 8.32183C1.135 8.37808 1.1875 8.35308 1.10547 8.42183C1.18422 7.9062 1.51891 7.52183 1.76172 7.64058L1.765 7.6437Z" fill="#333333"/>
<path fill-rule="evenodd" clip-rule="evenodd" d="M1.86622 7.41187L1.90111 7.41408C1.92785 7.41578 1.9679 7.42384 2.01232 7.43442C2.05721 7.44511 2.10818 7.45877 2.15742 7.47225C2.17242 7.47636 2.18724 7.48044 2.20169 7.48443C2.23486 7.49357 2.26607 7.50217 2.29297 7.50925C2.31226 7.51433 2.32908 7.51856 2.34261 7.5216C2.35647 7.52472 2.36553 7.52628 2.37011 7.52657C2.40036 7.52794 2.43814 7.52105 2.4831 7.51136C2.49052 7.50976 2.49812 7.50809 2.50586 7.50639C2.544 7.49801 2.58571 7.48885 2.62813 7.48336C2.7308 7.47008 2.84336 7.47758 2.93545 7.57019C3.02173 7.65245 3.04948 7.7379 3.05547 7.82957C3.05843 7.87488 3.05609 7.9218 3.05311 7.97006C3.05274 7.97618 3.05235 7.98233 3.05196 7.98851C3.04926 8.03131 3.04649 8.07539 3.04649 8.12185V8.15471L3.01562 8.14002C2.99837 8.1318 2.98603 8.12431 2.97658 8.11582C2.96814 8.10823 2.9628 8.10055 2.9583 8.09277C2.96725 8.17598 2.96576 8.27152 2.96115 8.36615C2.95865 8.41752 2.95524 8.46854 2.95197 8.5176C2.94655 8.59874 2.94149 8.67449 2.94149 8.73747L2.90108 8.74656C2.88888 8.72332 2.88382 8.71713 2.87909 8.71135L2.87871 8.71088C2.8776 8.70952 2.8765 8.70817 2.87537 8.70672C2.85602 8.75313 2.83558 8.79021 2.81708 8.8238C2.80743 8.84131 2.79831 8.85786 2.79014 8.87429C2.76189 8.93108 2.74133 8.99219 2.74133 9.09997L2.69949 9.10555C2.68726 9.06478 2.6858 9.04535 2.6853 9.03241C2.66225 9.05886 2.62986 9.08337 2.59578 9.10615C2.57055 9.12301 2.54327 9.13962 2.51628 9.15591C2.51304 9.15787 2.50981 9.15981 2.50659 9.16176C2.48277 9.17611 2.45937 9.19022 2.43744 9.20431C2.3866 9.23699 2.34806 9.26698 2.3317 9.29523C2.324 9.30852 2.32204 9.32005 2.32478 9.33095C2.32762 9.34225 2.3363 9.35599 2.35631 9.37187L2.33191 9.40502C2.26763 9.36931 2.21818 9.34966 2.17656 9.33312C2.16812 9.32976 2.16 9.32654 2.15215 9.32333C2.11061 9.30638 2.07593 9.28976 2.04351 9.2576C2.03549 9.26364 2.02739 9.27171 2.01911 9.28192C2.00625 9.29777 1.99378 9.3177 1.98085 9.34078L1.97149 9.3575L1.95333 9.34977C1.80564 9.28689 1.75789 9.18478 1.71998 9.08044C1.71591 9.06922 1.71195 9.05801 1.708 9.04683C1.67773 8.96113 1.64809 8.87723 1.57176 8.80543C1.56223 8.82554 1.55828 8.83776 1.55402 8.85289C1.55309 8.85619 1.55215 8.85963 1.55114 8.86332C1.54552 8.88387 1.53788 8.91179 1.51956 8.9628L1.4952 9.03062L1.47858 8.96071C1.46676 8.91102 1.45736 8.86703 1.44872 8.82659C1.43129 8.74504 1.41695 8.67798 1.39221 8.60797C1.38353 8.61926 1.3763 8.62668 1.36763 8.63542L1.36662 8.63642C1.35289 8.65025 1.33459 8.66866 1.29678 8.71817L1.26643 8.75792L1.25846 8.70936C1.24568 8.63146 1.23049 8.57704 1.21748 8.53046C1.21399 8.51797 1.21066 8.50605 1.20758 8.49439C1.19639 8.45206 1.18865 8.41374 1.18937 8.36682C1.18333 8.37227 1.18098 8.37544 1.17859 8.37865L1.1784 8.3789C1.17818 8.3792 1.17796 8.3795 1.17774 8.3798C1.16988 8.39038 1.16068 8.40276 1.11972 8.4371L1.07617 8.47359L1.08452 8.41892C1.12436 8.1581 1.229 7.92953 1.35565 7.78055C1.41894 7.7061 1.4886 7.65051 1.55954 7.62141C1.61979 7.59668 1.68133 7.59101 1.73956 7.60962C1.73913 7.6044 1.73881 7.59954 1.73853 7.59499C1.73838 7.59239 1.73824 7.58993 1.7381 7.5876C1.7375 7.57715 1.73705 7.56921 1.73586 7.56154C1.7333 7.54509 1.7273 7.5296 1.70257 7.50016L1.72742 7.46872C1.75039 7.47784 1.76732 7.49074 1.78093 7.50308C1.78657 7.50818 1.79182 7.51337 1.79652 7.518C1.7974 7.51887 1.79825 7.51971 1.79908 7.52053C1.8046 7.52595 1.80927 7.53041 1.81383 7.5341C1.82264 7.54123 1.82931 7.54404 1.83696 7.54407C1.84553 7.54409 1.85917 7.54063 1.88144 7.52673L1.88248 7.52608L1.88359 7.52556C1.88663 7.52411 1.88915 7.52295 1.8913 7.52196C1.8962 7.51969 1.89913 7.51834 1.90175 7.51659C1.90364 7.51533 1.9037 7.51497 1.90376 7.51453C1.90377 7.51447 1.90378 7.51441 1.9038 7.51435C1.90423 7.51226 1.9044 7.50672 1.90074 7.49427C1.89718 7.48218 1.89066 7.46559 1.88012 7.44242L1.86622 7.41187ZM1.74922 7.65727C1.69599 7.6323 1.63737 7.6337 1.57642 7.65872C1.51384 7.68439 1.44938 7.73486 1.3888 7.80611C1.27754 7.93699 1.18232 8.13459 1.13742 8.3635C1.13954 8.36092 1.1411 8.3588 1.14253 8.35686C1.14289 8.35637 1.14324 8.35589 1.14359 8.35542C1.1525 8.34345 1.16117 8.33413 1.20111 8.3056L1.24083 8.27723L1.23509 8.32419C1.22729 8.38808 1.23495 8.43154 1.24895 8.48447C1.25188 8.49555 1.2551 8.50709 1.25852 8.51932C1.26889 8.55644 1.28104 8.59993 1.29219 8.65645C1.31271 8.63159 1.32551 8.6187 1.33594 8.6082L1.33664 8.6075C1.35002 8.59403 1.35886 8.58507 1.3793 8.55214L1.40173 8.51598L1.41756 8.55518C1.45305 8.64305 1.47031 8.72377 1.49124 8.8217C1.49505 8.8395 1.49898 8.85787 1.50316 8.87695C1.50584 8.86778 1.50796 8.86003 1.50988 8.85302C1.5109 8.8493 1.51186 8.84578 1.51282 8.84237C1.51938 8.81904 1.52567 8.80136 1.54593 8.76276L1.55819 8.73941L1.57894 8.75648C1.68023 8.83979 1.71595 8.94139 1.74849 9.03396C1.75244 9.04517 1.75633 9.05626 1.76029 9.06716C1.79533 9.16359 1.83558 9.24855 1.95299 9.30467C1.96329 9.28731 1.97396 9.27112 1.98535 9.25708C2.00034 9.23861 2.01744 9.22276 2.03781 9.21306L2.05292 9.20586L2.06373 9.21822C2.0933 9.25201 2.12402 9.26765 2.16895 9.28599C2.17644 9.28905 2.18431 9.29217 2.19258 9.29546C2.21811 9.3056 2.24754 9.31728 2.28186 9.33334C2.27867 9.31287 2.28405 9.29339 2.29435 9.27561C2.31634 9.23765 2.36352 9.20281 2.41358 9.17064C2.43607 9.15618 2.46004 9.14173 2.48379 9.12742C2.48702 9.12547 2.49024 9.12353 2.49345 9.1216C2.52046 9.10529 2.54697 9.08914 2.57127 9.0729C2.62099 9.03967 2.65724 9.00868 2.67098 8.97922L2.68704 8.94482L2.70841 8.97649C2.70874 8.97698 2.70907 8.97747 2.70939 8.97795C2.71879 8.93044 2.73372 8.89282 2.75159 8.8569C2.76094 8.83809 2.77077 8.82028 2.78082 8.80205C2.80392 8.76016 2.82821 8.71612 2.85074 8.65283L2.86715 8.60672L2.89002 8.65026C2.89423 8.6583 2.8976 8.66429 2.90039 8.66894C2.90234 8.62071 2.90587 8.56769 2.90953 8.51286C2.91278 8.46407 2.91613 8.41384 2.91854 8.36427C2.92511 8.22934 2.92486 8.0986 2.89951 8.00505L2.93644 7.98685C2.96947 8.02403 2.9819 8.04747 2.99048 8.06364C2.99172 8.06599 2.99288 8.06818 2.99401 8.07024C2.99762 8.0768 3.00041 8.08099 3.00436 8.08487C3.00532 8.05054 3.0074 8.01754 3.00939 7.98599C3.00977 7.97983 3.01016 7.97373 3.01053 7.96768C3.01351 7.91936 3.01568 7.87468 3.01289 7.83209C3.0074 7.74806 2.9827 7.67264 2.90508 7.59871L2.90487 7.59851L2.90466 7.5983C2.82617 7.51923 2.73045 7.51112 2.63387 7.52362C2.59358 7.52883 2.55413 7.53749 2.51602 7.54586C2.50812 7.54759 2.50028 7.54931 2.49251 7.55099C2.44823 7.56052 2.40485 7.56885 2.36787 7.56714L2.36758 7.56712C2.35899 7.56661 2.34666 7.56426 2.33281 7.56114C2.3185 7.55792 2.30107 7.55354 2.2816 7.54841C2.25445 7.54126 2.22283 7.53254 2.18954 7.52337C2.17514 7.5194 2.16043 7.51534 2.14563 7.51129C2.09644 7.49782 2.04609 7.48433 2.00198 7.47383C1.97601 7.46765 1.95274 7.46263 1.93339 7.45924C1.93693 7.46824 1.93973 7.47622 1.94181 7.48331C1.94605 7.49772 1.94805 7.51074 1.94562 7.52232C1.94287 7.53544 1.93507 7.54396 1.92624 7.54986C1.92055 7.55365 1.91318 7.55704 1.90716 7.5598C1.90595 7.56036 1.9048 7.56089 1.90372 7.56139C1.87887 7.57674 1.85716 7.58476 1.83681 7.58469C1.81524 7.58462 1.79914 7.57552 1.78622 7.56507C1.78357 7.56292 1.78098 7.56066 1.77846 7.55836C1.77967 7.56724 1.7802 7.57653 1.78074 7.58607C1.78086 7.58825 1.78099 7.59045 1.78112 7.59265C1.78192 7.6059 1.7831 7.62121 1.78624 7.64063L1.79615 7.70196L1.74922 7.65727Z" fill="black"/>
<path d="M1.42383 8.49055C1.49273 8.3218 1.55508 8.2718 1.6043 8.16555C1.68633 7.97493 1.69945 7.8218 1.76836 7.84368C1.83398 7.86868 1.83398 7.94368 1.74211 8.13118C1.65023 8.31868 1.61086 8.35618 1.42383 8.49055V8.49055ZM1.69289 8.90618C1.71914 8.75618 1.76508 8.70618 1.78477 8.60618C1.81758 8.43743 1.80117 8.31243 1.86352 8.31868C1.92914 8.32493 1.94227 8.39055 1.89961 8.55618C1.85695 8.72805 1.82742 8.76868 1.68961 8.90618H1.69289ZM2.01445 9.19993C2.0243 9.05618 2.06039 8.9968 2.06695 8.90305C2.0768 8.74055 2.0407 8.6218 2.09977 8.6218C2.16539 8.6218 2.18508 8.68118 2.16539 8.84368C2.1457 9.00618 2.12602 9.04993 2.01445 9.19993V9.19993ZM2.71008 8.24993C2.57883 8.12493 2.50008 8.09993 2.41477 8.01868C2.26383 7.87493 2.18836 7.74368 2.13258 7.79055C2.08008 7.83743 2.11289 7.90618 2.27367 8.04055C2.43117 8.18118 2.48695 8.19993 2.71336 8.24993H2.71008ZM2.63133 8.73743C2.54602 8.61243 2.48039 8.57805 2.42461 8.49368C2.32617 8.35305 2.29336 8.23118 2.23758 8.2593C2.1818 8.29055 2.19492 8.35305 2.29992 8.49368C2.4082 8.63118 2.44758 8.65618 2.63133 8.73743Z" fill="#B3B3B3"/>
<path d="M8.57682 4.8562C8.41932 5.1437 8.84916 4.76245 9.52182 5.2437C9.68531 5.41031 9.79074 5.62096 9.82369 5.84683C9.68663 5.8051 9.55464 5.74958 9.42994 5.6812C9.42994 5.6812 9.72525 5.9687 9.72525 6.2937C9.62025 6.2312 9.56775 6.24058 9.52838 6.16558C9.52838 6.2687 9.62682 6.33745 9.62682 6.49995C9.56216 6.45042 9.49298 6.40649 9.4201 6.3687C9.51853 6.53433 9.23963 6.85308 9.38072 6.9562C9.26229 6.9407 9.14846 6.90218 9.0463 6.84305C8.94413 6.78392 8.85581 6.70543 8.78682 6.61245C8.73432 6.6437 8.72775 6.69683 8.72447 6.7562C8.73432 6.75933 8.35369 6.48433 8.38978 6.3812C8.34635 6.43291 8.3211 6.49632 8.3176 6.56245C8.17376 6.44832 8.06493 6.29933 8.0026 6.1312C7.94353 6.2062 7.93697 6.2062 7.87463 6.28745C7.82869 6.01558 7.82869 6.02495 7.92057 5.7937C7.85695 5.83548 7.79562 5.88033 7.73682 5.92808C7.7848 5.70134 7.88504 5.48757 8.0303 5.30221C8.17557 5.11685 8.36223 4.96451 8.57682 4.8562V4.8562Z" fill="#333333"/>
<path fill-rule="evenodd" clip-rule="evenodd" d="M8.54047 4.89312C8.34651 4.99847 8.17729 5.14088 8.04352 5.31157C7.90919 5.48298 7.81375 5.67892 7.76303 5.88695C7.81093 5.84969 7.86039 5.81429 7.91132 5.78085L7.95457 5.75245L7.93598 5.79924C7.93406 5.80407 7.93218 5.80879 7.93035 5.8134C7.88789 5.92021 7.86759 5.97126 7.86232 6.02676C7.85733 6.07942 7.86585 6.13629 7.88471 6.24838C7.9025 6.22596 7.91498 6.21131 7.92722 6.19709C7.92857 6.19553 7.92991 6.19397 7.93125 6.19242C7.9467 6.17449 7.96258 6.15607 7.98954 6.12184L8.00793 6.09849L8.01813 6.12601C8.07601 6.2821 8.17459 6.42143 8.30441 6.53101C8.31324 6.4728 8.33822 6.41767 8.37704 6.37145L8.40541 6.38615C8.40261 6.39416 8.4033 6.4057 8.40961 6.42151C8.41583 6.43712 8.42681 6.45506 8.44161 6.47462C8.47118 6.51368 8.51421 6.55685 8.55868 6.59725C8.60302 6.63755 8.64825 6.67461 8.68186 6.70147C8.69278 6.71019 8.70243 6.7178 8.71045 6.72412C8.71532 6.67579 8.72839 6.62885 8.77819 6.59921L8.79133 6.59139L8.80028 6.60345C8.86798 6.69468 8.95464 6.77169 9.05488 6.82971C9.14256 6.88046 9.239 6.91573 9.33956 6.93395C9.32456 6.9075 9.32156 6.87587 9.32493 6.8427C9.32991 6.79363 9.34916 6.7372 9.36892 6.68094C9.37012 6.67754 9.37131 6.67413 9.37251 6.67073C9.3914 6.61706 9.41029 6.56337 9.41954 6.51318C9.42939 6.45973 9.42771 6.41313 9.40589 6.37641L9.37763 6.32887L9.42801 6.35499C9.49127 6.38779 9.55178 6.42517 9.609 6.46677C9.60351 6.40581 9.58343 6.35937 9.56279 6.3171C9.56005 6.3115 9.55728 6.30593 9.55451 6.30037C9.53311 6.25739 9.51204 6.21506 9.51204 6.16559L9.54312 6.1586C9.56083 6.19234 9.58075 6.20662 9.60961 6.22036C9.61786 6.22429 9.62713 6.22827 9.6374 6.23267C9.65734 6.24122 9.68102 6.25138 9.70818 6.26589C9.70044 6.11793 9.63258 5.97875 9.56375 5.87387C9.52729 5.81832 9.49082 5.77278 9.46348 5.74114C9.44982 5.72534 9.43845 5.71302 9.43053 5.70469C9.42657 5.70052 9.42348 5.69735 9.42139 5.69524C9.42034 5.69418 9.41955 5.69339 9.41902 5.69287L9.41844 5.6923L9.41828 5.69214C9.41828 5.69214 9.41828 5.69214 9.42075 5.68984C9.42243 5.68827 9.42526 5.68564 9.43001 5.68121H9.4136V5.65419L9.43819 5.66767C9.55422 5.7313 9.67663 5.7837 9.80357 5.82411C9.76726 5.61131 9.66549 5.41334 9.51088 5.25538C9.17864 5.01808 8.90719 4.9937 8.73799 4.99293C8.7167 4.99284 8.69699 4.99311 8.67885 4.9934C8.67729 4.99342 8.67575 4.99345 8.67422 4.99347C8.65793 4.99373 8.64283 4.99397 8.62922 4.9939C8.60038 4.99374 8.57476 4.99229 8.5568 4.98464C8.54718 4.98054 8.53876 4.97428 8.53348 4.96484C8.5283 4.95557 8.52714 4.94502 8.52836 4.93402C8.52965 4.92242 8.53378 4.90887 8.54047 4.89312ZM8.57688 4.85621L8.5692 4.84241C8.35247 4.9518 8.16394 5.10566 8.01722 5.29288C7.87051 5.48009 7.76926 5.696 7.7208 5.925L7.71143 5.96929L7.74753 5.93998C7.79234 5.90359 7.83863 5.86889 7.8863 5.83597C7.85293 5.92028 7.83474 5.97019 7.82964 6.02395C7.82385 6.08504 7.83498 6.15085 7.85646 6.27789C7.85713 6.28185 7.85781 6.28587 7.8585 6.28995L7.86474 6.32691L7.88794 6.29668C7.9189 6.25634 7.93593 6.23626 7.9526 6.2169C7.95393 6.21535 7.95527 6.2138 7.95661 6.21224C7.96837 6.1986 7.98054 6.18449 7.99763 6.16335C8.06231 6.32311 8.16878 6.46467 8.30716 6.57447L8.33239 6.59449L8.33405 6.56325C8.33661 6.51497 8.35136 6.46821 8.37678 6.42685C8.37745 6.42877 8.37817 6.4307 8.37894 6.43261C8.38658 6.45177 8.39934 6.47221 8.41499 6.49289C8.44633 6.53429 8.49108 6.57902 8.53602 6.61986C8.58109 6.66082 8.62692 6.69836 8.66078 6.72541C8.67325 6.73538 8.68416 6.74396 8.69276 6.75074C8.69582 6.75314 8.69858 6.75532 8.70103 6.75725C8.7037 6.75936 8.70594 6.76114 8.70776 6.7626L8.7075 6.76727L8.71935 6.77104C8.71989 6.77121 8.72092 6.77151 8.72223 6.77169C8.72322 6.77183 8.72624 6.77221 8.72984 6.77107C8.7346 6.76958 8.73927 6.7657 8.74071 6.7597C8.74117 6.75782 8.7412 6.75611 8.74105 6.75468C8.74409 6.70173 8.75024 6.66099 8.78319 6.63431C8.85199 6.72344 8.93849 6.79891 9.03784 6.85642C9.14192 6.91666 9.25789 6.9559 9.37855 6.97169L9.4399 6.97972L9.39078 6.94382C9.36201 6.92279 9.35307 6.89027 9.35759 6.84571C9.36214 6.80083 9.38001 6.74788 9.40004 6.69086C9.4013 6.68726 9.40257 6.68365 9.40385 6.68003C9.42252 6.62699 9.44216 6.57118 9.45186 6.51858C9.45916 6.47896 9.46113 6.43971 9.452 6.40384C9.50954 6.43607 9.56455 6.47227 9.6166 6.51214L9.64329 6.53258V6.49996C9.64329 6.41534 9.61752 6.35507 9.59254 6.30392C9.58972 6.29815 9.58694 6.29253 9.58422 6.28705C9.57328 6.26496 9.56337 6.24496 9.55623 6.22517C9.56795 6.23437 9.58078 6.24157 9.59494 6.24831C9.60489 6.25305 9.61517 6.25746 9.62608 6.26213C9.65153 6.27303 9.68041 6.28541 9.71662 6.30696L9.74173 6.3219V6.29371C9.74173 6.12697 9.6661 5.97087 9.59158 5.85731C9.55961 5.80861 9.52766 5.76744 9.50155 5.73625C9.60335 5.78647 9.70946 5.82845 9.81876 5.86172L9.84359 5.86928L9.84001 5.84469C9.80659 5.61563 9.69967 5.402 9.53387 5.23304L9.53289 5.23204L9.53174 5.23122C9.19184 4.98804 8.91247 4.96247 8.73815 4.96168C8.71648 4.96158 8.69647 4.96187 8.67831 4.96215C8.67677 4.96218 8.67526 4.9622 8.67375 4.96222C8.65735 4.96248 8.64263 4.96272 8.6294 4.96265C8.59961 4.96249 8.5809 4.96067 8.5702 4.95611C8.56549 4.95411 8.56349 4.95203 8.56244 4.95015C8.5613 4.94809 8.56021 4.94435 8.56099 4.93732C8.56264 4.92252 8.57174 4.89937 8.59143 4.86344L8.57688 4.85621Z" fill="black"/>
<path d="M8.18994 6.25619C8.21619 6.05931 8.26869 5.98744 8.28838 5.85619C8.31463 5.63744 8.28182 5.46869 8.36713 5.47494C8.44588 5.48119 8.47213 5.56244 8.43275 5.78744C8.3901 6.00931 8.354 6.06244 8.19322 6.25931L8.18994 6.25619ZM8.62635 6.61869C8.60994 6.45619 8.64275 6.38119 8.62963 6.27494C8.61322 6.08744 8.55088 5.95619 8.62307 5.94681C8.69525 5.93431 8.73463 5.99681 8.74119 6.19056C8.74775 6.37806 8.73135 6.43119 8.62635 6.61869V6.61869ZM9.30885 6.91869C9.23338 6.77181 9.16775 6.73119 9.12182 6.63744C9.0365 6.47181 9.01682 6.34056 8.95447 6.36244C8.88885 6.38744 8.89213 6.45619 8.98728 6.61869C9.07916 6.77494 9.12182 6.80931 9.30557 6.91869H9.30885ZM9.54182 5.62181C9.3515 5.52806 9.25635 5.52806 9.13494 5.46556C8.92166 5.35931 8.79697 5.24369 8.75432 5.30931C8.70838 5.37181 8.76744 5.43744 8.98728 5.53431C9.20713 5.63119 9.27603 5.63431 9.53853 5.62181H9.54182ZM9.60744 6.16244C9.47619 6.05619 9.39088 6.03744 9.30228 5.96869C9.14478 5.84369 9.06932 5.72806 9.0201 5.77494C8.9676 5.82494 9.00041 5.88744 9.16447 6.00306C9.32853 6.11869 9.38432 6.13119 9.61072 6.16244H9.60744Z" fill="#B3B3B3"/>
</g>
<defs>
<clipPath id="clip0_2844_5667">
<rect width="21" height="15" fill="white"/>
</clipPath>
</defs>
</svg>
