<svg width="21" height="15" viewBox="0 0 21 15" fill="none" xmlns="http://www.w3.org/2000/svg">
<g clip-path="url(#clip0_6947_99052)">
<g clip-path="url(#clip1_6947_99052)">
<path d="M-0.362076 -0.170456H24.0776V15.1705H-0.362076V-0.170456Z" fill="#FF0000"/>
<path d="M-0.362076 -0.170456H11.8578V7.5H-0.362076V-0.170456Z" fill="#000095"/>
<path d="M4.8653 3.8853L4.78044 4.19212L5.09951 4.27521L5.03842 4.0483L4.8653 3.8853ZM6.45727 4.0483L6.39617 4.27521L6.71525 4.19212L6.63039 3.8853L6.45727 4.0483ZM5.03842 3.28125L4.8653 3.44425L4.92979 3.66477L5.03842 3.28125Z" fill="white"/>
<path d="M4.92979 3.66477L4.8653 3.8853L5.03841 4.04829L4.92979 3.66477Z" fill="white"/>
<path d="M4.8653 3.44424L4.63109 3.66477L4.8653 3.8853L4.92979 3.66477L4.8653 3.44424ZM5.34052 4.33274L5.51363 4.49574L5.74784 4.43501L5.34052 4.33274ZM5.98206 4.49574L6.30792 4.57564L6.39617 4.27521L6.15517 4.33274L5.98206 4.49574Z" fill="white"/>
<path d="M6.15518 4.33274L6.39618 4.27521L6.45728 4.04829L6.15518 4.33274ZM5.09952 4.27521L5.18777 4.57564L5.51363 4.49574L5.34052 4.33274L5.09952 4.27521ZM5.74785 4.43501L5.98206 4.49574L6.15518 4.33274L5.74785 4.43501Z" fill="white"/>
<path d="M5.51363 4.49574L5.74784 4.71627L5.98206 4.49574L5.74784 4.43502L5.51363 4.49574ZM5.09951 3.05434L4.78044 3.13743L4.8653 3.44425L5.03842 3.28125L5.09951 3.05434ZM5.03842 4.0483L5.09951 4.27522L5.34052 4.33275L5.03842 4.0483ZM6.56589 3.66478L6.63039 3.44425L6.45727 3.28125L6.56589 3.66478Z" fill="white"/>
<path d="M5.34052 2.9968L5.09952 3.05433L5.03842 3.28125L5.34052 2.9968ZM6.45728 3.28125L6.39618 3.05433L6.15518 2.9968L6.45728 3.28125ZM6.63039 3.8853L6.86461 3.66477L6.63039 3.44425L6.5659 3.66477L6.63039 3.8853Z" fill="white"/>
<path d="M6.45727 3.28125L6.15517 2.9968L5.74784 2.89453L5.34052 2.9968L5.03842 3.28125L4.92979 3.66477L5.03842 4.0483L5.34052 4.33274L5.74784 4.43501L6.15517 4.33274L6.45727 4.0483L6.56589 3.66477L6.45727 3.28125Z" fill="white"/>
<path d="M6.45728 4.0483L6.63039 3.8853L6.5659 3.66477L6.45728 4.0483ZM6.63039 3.44425L6.71525 3.13743L6.39618 3.05433L6.45728 3.28125L6.63039 3.44425ZM6.39618 3.05433L6.30792 2.75391L5.98206 2.83381L6.15518 2.9968L6.39618 3.05433ZM5.51363 2.83381L5.18777 2.75391L5.09952 3.05433L5.34052 2.9968L5.51363 2.83381ZM5.74785 2.89453L5.51363 2.83381L5.34052 2.9968L5.74785 2.89453Z" fill="white"/>
<path d="M5.98205 2.83381L5.74784 2.61328L5.51363 2.83381L5.74784 2.89453L5.98205 2.83381Z" fill="white"/>
<path d="M6.15517 2.99681L5.98206 2.83381L5.74784 2.89453L6.15517 2.99681ZM5.51363 4.49574L5.18777 4.57564L5.34052 5.10618L5.74784 4.71627L5.51363 4.49574ZM5.34052 5.10618L5.74784 6.5412L6.15517 5.10618L5.74784 4.71627L5.34052 5.10618ZM5.09951 4.27522L4.78044 4.19212L4.63109 4.71627L5.18777 4.57564L5.09951 4.27522Z" fill="white"/>
<path d="M4.63109 4.71626L4.22376 6.15767L5.34052 5.10618L5.18777 4.57564L4.63109 4.71626ZM4.22376 4.04829L3.10022 5.10618L4.63109 4.71626L4.78045 4.19212L4.22376 4.04829Z" fill="white"/>
<path d="M4.8653 3.8853L4.63108 3.66477L4.22375 4.04829L4.78044 4.19212L4.8653 3.8853ZM4.8653 3.44425L4.78044 3.13743L4.22375 3.28125L4.63108 3.66477L4.8653 3.44425Z" fill="white"/>
<path d="M4.22376 3.28125L2.69289 3.66477L4.22376 4.0483L4.63109 3.66477L4.22376 3.28125ZM7.27872 4.0483L6.71525 4.19212L6.8646 4.71626L8.39547 5.10618L7.27872 4.0483Z" fill="white"/>
<path d="M6.39618 4.27521L6.30792 4.57564L6.8646 4.71626L6.71525 4.19212L6.39618 4.27521ZM5.98206 4.49574L5.74785 4.71626L6.15518 5.10618L6.30792 4.57564L5.98206 4.49574ZM6.63039 3.8853L6.71525 4.19212L7.27872 4.04829L6.8646 3.66477L6.63039 3.8853Z" fill="white"/>
<path d="M6.15517 5.10618L7.27871 6.15767L6.8646 4.71626L6.30791 4.57564L6.15517 5.10618ZM6.39617 3.05433L6.71524 3.13743L6.8646 2.61328L6.30791 2.75391L6.39617 3.05433Z" fill="white"/>
<path d="M7.27871 3.28125L8.39547 2.22976L6.8646 2.61328L6.71524 3.13743L7.27871 3.28125ZM6.8646 2.61328L7.27871 1.17188L6.15517 2.22976L6.30791 2.75391L6.8646 2.61328ZM7.27871 4.0483L8.8028 3.66477L7.27871 3.28125L6.8646 3.66477L7.27871 4.0483Z" fill="white"/>
<path d="M6.63038 3.44425L6.86459 3.66477L7.27871 3.28125L6.71524 3.13743L6.63038 3.44425ZM5.34051 2.22976L4.22375 1.17188L4.63108 2.61328L5.18776 2.75391L5.34051 2.22976Z" fill="white"/>
<path d="M5.09951 3.05433L5.18777 2.75391L4.63109 2.61328L4.78044 3.13743L5.09951 3.05433Z" fill="white"/>
<path d="M4.63109 2.61328L3.10022 2.22976L4.22377 3.28125L4.78045 3.13743L4.63109 2.61328ZM5.98206 2.83381L6.30792 2.75391L6.15518 2.22976L5.74785 2.61328L5.98206 2.83381Z" fill="white"/>
<path d="M6.15517 2.22976L5.74784 0.788353L5.34052 2.22976L5.74784 2.61328L6.15517 2.22976Z" fill="white"/>
<path d="M5.51364 2.83381L5.74785 2.61328L5.34052 2.22976L5.18777 2.75391L5.51364 2.83381Z" fill="white"/>
<path d="M5.74784 5.29794C6.7058 5.29794 7.48238 4.56674 7.48238 3.66477C7.48238 2.76279 6.7058 2.0316 5.74784 2.0316C4.78988 2.0316 4.01331 2.76279 4.01331 3.66477C4.01331 4.56674 4.78988 5.29794 5.74784 5.29794Z" fill="#000095"/>
<path d="M5.74784 5.10618C6.59332 5.10618 7.27871 4.46084 7.27871 3.66477C7.27871 2.86871 6.59332 2.22337 5.74784 2.22337C4.90236 2.22337 4.21696 2.86871 4.21696 3.66477C4.21696 4.46084 4.90236 5.10618 5.74784 5.10618Z" fill="white"/>
</g>
</g>
<defs>
<clipPath id="clip0_6947_99052">
<rect width="21" height="15" fill="white"/>
</clipPath>
<clipPath id="clip1_6947_99052">
<rect width="21.7241" height="15.3409" fill="white" transform="translate(-0.362076 -0.170456)"/>
</clipPath>
</defs>
</svg>
