<svg width="21" height="15" viewBox="0 0 21 15" fill="none" xmlns="http://www.w3.org/2000/svg">
<g clip-path="url(#clip0_6947_99061)">
<g clip-path="url(#clip1_6947_99061)">
<path fill-rule="evenodd" clip-rule="evenodd" d="M-0.362061 -0.170456H30.5948V1.01008H-0.362061V-0.170456ZM-0.362061 2.19061H30.5948V3.37114H-0.362061V2.19061ZM-0.362061 4.54867H30.5948V5.7322H-0.362061V4.54867ZM-0.362061 6.90973H30.5948V8.09026H-0.362061V6.90973ZM-0.362061 9.2708H30.5948V10.4513H-0.362061V9.2708ZM-0.362061 11.6289H30.5948V12.8094H-0.362061V11.6289ZM-0.362061 13.9899H30.5948V15.1705H-0.362061V13.9899Z" fill="#BD3D44"/>
<path fill-rule="evenodd" clip-rule="evenodd" d="M-0.362061 1.01008H30.5948V2.19061H-0.362061V1.01008ZM-0.362061 3.37114H30.5948V4.54868H-0.362061V3.37114ZM-0.362061 5.72921H30.5948V6.90974H-0.362061V5.72921ZM-0.362061 8.09027H30.5948V9.2708H-0.362061V8.09027ZM-0.362061 10.4513H30.5948V11.6319H-0.362061V10.4513ZM-0.362061 12.8094H30.5948V13.9899H-0.362061V12.8094Z" fill="white"/>
<path fill-rule="evenodd" clip-rule="evenodd" d="M-0.362061 -0.170456H12.0201V8.09026H-0.362061V-0.170456Z" fill="#192F5D"/>
<path fill-rule="evenodd" clip-rule="evenodd" d="M0.668988 0.183105L0.783548 0.509699H1.14632L0.853558 0.710449L0.964936 1.04004L0.668988 0.836293L0.376221 1.03704L0.487599 0.710449L0.19165 0.509699H0.560791L0.668988 0.183105ZM2.73427 0.183105L2.84564 0.509699H3.2116L2.91565 0.710449L3.02703 1.04004L2.73427 0.836293L2.43832 1.03704L2.5497 0.710449L2.25693 0.509699H2.6197L2.73427 0.183105ZM4.79636 0.183105L4.91092 0.509699H5.27052L4.97775 0.710449L5.08913 1.04004L4.79318 0.836293L4.50041 1.03704L4.61179 0.710449L4.31584 0.509699H4.6818L4.79636 0.183105ZM6.86164 0.183105L6.97302 0.509699H7.33898L7.04303 0.710449L7.15759 1.04004L6.86164 0.836293L6.56569 1.03704L6.68025 0.710449L6.3843 0.509699H6.74708L6.86164 0.183105ZM8.92374 0.183105L9.0383 0.509699H9.40107L9.10831 0.710449L9.21969 1.04004L8.92374 0.836293L8.63097 1.03704L8.74235 0.710449L8.44958 0.509699H8.81236L8.92374 0.183105ZM10.989 0.183105L11.1004 0.509699H11.4664L11.1704 0.710449L11.285 1.04004L10.989 0.836293L10.6931 1.03704L10.8076 0.710449L10.5117 0.509699H10.8776L10.989 0.183105ZM1.70322 1.01008L1.8146 1.33667H2.18055L1.88461 1.53742L1.9928 1.86401L1.7064 1.66326L1.41045 1.86401L1.51547 1.53742L1.22906 1.33667H1.59184L1.70322 1.01008ZM3.76531 1.01008L3.87987 1.33667H4.24265L3.9467 1.53742L4.06126 1.86401L3.76531 1.66326L3.46936 1.86401L3.58393 1.53742L3.28798 1.33667H3.65393L3.76531 1.01008ZM5.83059 1.01008L5.94197 1.33667H6.30793L6.01198 1.53742L6.12336 1.86401L5.83059 1.66326L5.53464 1.86401L5.64602 1.53742L5.35326 1.33667H5.71603L5.83059 1.01008ZM7.89269 1.01008L8.00725 1.33667H8.37003L8.07408 1.53742L8.18864 1.86401L7.89269 1.66326L7.59992 1.86401L7.7113 1.53742L7.41535 1.33667H7.78449L7.89269 1.01008ZM9.95797 1.01008L10.0693 1.33667H10.4353L10.1394 1.53742L10.2507 1.86401L9.95797 1.66326L9.66202 1.86401L9.7734 1.53742L9.48063 1.33667H9.84341L9.95797 1.01008ZM0.668988 1.83405L0.783548 2.16664H1.14632L0.853558 2.36739L0.964936 2.69398L0.668988 2.49023L0.376221 2.69398L0.487599 2.36439L0.19165 2.16364H0.560791L0.668988 1.83405ZM2.73427 1.83405L2.84564 2.16364H3.2116L2.91565 2.36439L3.02703 2.69098L2.73427 2.48724L2.43832 2.69098L2.5497 2.36139L2.25693 2.16064H2.6197L2.73427 1.83405ZM4.79636 1.83405L4.91092 2.16364H5.27052L4.97775 2.36439L5.08913 2.69098L4.79318 2.48724L4.50041 2.69098L4.61179 2.36139L4.31584 2.16064H4.6818L4.79636 1.83405ZM6.86164 1.83405L6.97302 2.16364H7.33898L7.04303 2.36439L7.15759 2.69098L6.86164 2.48724L6.56569 2.69098L6.68025 2.36139L6.3843 2.16064H6.74708L6.86164 1.83405ZM8.92374 1.83405L9.0383 2.16364H9.40107L9.10831 2.36439L9.21969 2.69098L8.92374 2.48724L8.63097 2.69098L8.74235 2.36139L8.44958 2.16064H8.81236L8.92374 1.83405ZM10.989 1.83405L11.1004 2.16364H11.4664L11.1704 2.36439L11.285 2.69098L10.989 2.48724L10.6931 2.69098L10.8076 2.36139L10.5117 2.16064H10.8776L10.989 1.83405ZM1.70322 2.66102L1.8146 2.98762H2.18055L1.88461 3.18837L1.99598 3.51796L1.70322 3.31421L1.40727 3.51496L1.51865 3.18837L1.22588 2.98762H1.58866L1.70322 2.66102ZM3.76531 2.66102L3.87987 2.98762H4.24265L3.9467 3.18837L4.06126 3.51796L3.76531 3.31421L3.46936 3.51496L3.58393 3.18837L3.28798 2.98762H3.65393L3.76531 2.66102ZM5.83059 2.66102L5.94197 2.98762H6.30793L6.01198 3.18837L6.12336 3.51796L5.83059 3.31421L5.53464 3.51496L5.64602 3.18837L5.35326 2.98762H5.71603L5.83059 2.66102ZM7.89269 2.66102L8.00725 2.98762H8.37003L8.07726 3.18837L8.18864 3.51796L7.89269 3.31421L7.59992 3.51496L7.7113 3.18837L7.41535 2.98762H7.78449L7.89269 2.66102ZM9.95797 2.66102L10.0693 2.98762H10.4353L10.1394 3.18837L10.2507 3.51796L9.95797 3.31421L9.66202 3.51496L9.7734 3.18837L9.48063 2.98762H9.84341L9.95797 2.66102ZM0.668988 3.48799L0.783548 3.81459H1.14632L0.853558 4.01534L0.964936 4.34493L0.668988 4.14118L0.376221 4.34193L0.487599 4.01534L0.19165 3.81459H0.560791L0.668988 3.48799ZM2.73427 3.48799L2.84564 3.81459H3.2116L2.91565 4.01534L3.02703 4.34193L2.73427 4.14118L2.43832 4.34193L2.5497 4.01534L2.25693 3.81459H2.6197L2.73427 3.48799ZM4.79636 3.48799L4.91092 3.81459H5.27052L4.97775 4.01534L5.08913 4.34493L4.79318 4.14118L4.50041 4.34193L4.61179 4.01534L4.31584 3.81459H4.6818L4.79636 3.48799ZM6.86164 3.48799L6.97302 3.81459H7.33898L7.04303 4.01534L7.15759 4.34493L6.86164 4.14118L6.56569 4.34193L6.68025 4.01534L6.3843 3.81459H6.74708L6.86164 3.48799ZM8.92374 3.48799L9.0383 3.81459H9.40107L9.10831 4.01534L9.21969 4.34493L8.92374 4.14118L8.63097 4.34193L8.74235 4.01534L8.44958 3.81459H8.81236L8.92374 3.48799ZM10.989 3.48799L11.1004 3.81459H11.4664L11.1704 4.01534L11.285 4.34493L10.989 4.14118L10.6931 4.34193L10.8076 4.01534L10.5117 3.81459H10.8776L10.989 3.48799ZM1.70322 4.31496L1.8146 4.64156H2.18055L1.88461 4.84231L1.99598 5.1689L1.70322 4.96515L1.40727 5.1689L1.51865 4.83931L1.22588 4.63856H1.58866L1.70322 4.31496ZM3.76531 4.31496L3.87987 4.64156H4.24265L3.9467 4.84231L4.06126 5.1689L3.76531 4.96515L3.46936 5.1689L3.58393 4.83931L3.28798 4.63856H3.65393L3.76531 4.31496ZM5.83059 4.31496L5.94197 4.64156H6.30793L6.01198 4.84231L6.12336 5.1689L5.83059 4.96515L5.53464 5.1689L5.64602 4.83931L5.35326 4.63856H5.71603L5.83059 4.31496ZM7.89269 4.31496L8.00725 4.64156H8.37003L8.07726 4.84231L8.18864 5.1689L7.89269 4.96515L7.59992 5.1689L7.7113 4.83931L7.41535 4.63856H7.78449L7.89269 4.31496ZM9.95797 4.31496L10.0693 4.64156H10.4353L10.1394 4.84231L10.2507 5.1689L9.95797 4.96515L9.66202 5.1689L9.7734 4.83931L9.48063 4.63856H9.84341L9.95797 4.31496ZM0.668988 5.13894L0.783548 5.46853H1.14632L0.853558 5.66928L0.964936 5.99288L0.668988 5.79213L0.376221 5.99288L0.487599 5.66628L0.19165 5.46553H0.560791L0.668988 5.13894ZM2.73427 5.13894L2.84564 5.46853H3.2116L2.91565 5.66928L3.03021 5.99288L2.73427 5.79213L2.43832 5.99288L2.55288 5.66628L2.25693 5.46553H2.6197L2.73427 5.13894ZM4.79636 5.13894L4.91092 5.46853H5.27052L4.97775 5.66928L5.08913 5.99288L4.79318 5.79213L4.50041 5.99288L4.61179 5.66628L4.31584 5.46553H4.6818L4.79636 5.13894ZM6.86164 5.13894L6.97302 5.46853H7.33898L7.04303 5.66928L7.15759 5.99288L6.86164 5.79213L6.56569 5.99288L6.68025 5.66628L6.3843 5.46553H6.74708L6.86164 5.13894ZM8.92374 5.13894L9.0383 5.46853H9.40107L9.10831 5.66928L9.21969 5.99288L8.92374 5.79213L8.63097 5.99288L8.74235 5.66628L8.44958 5.46553H8.81236L8.92374 5.13894ZM10.989 5.13894L11.1004 5.46853H11.4664L11.1704 5.66928L11.285 5.99288L10.989 5.79213L10.6931 5.99288L10.8076 5.66628L10.5117 5.46553H10.8776L10.989 5.13894ZM1.70322 5.96591L1.8146 6.2925H2.18055L1.88461 6.49325L1.99598 6.82284L1.70322 6.6191L1.40727 6.81985L1.51865 6.49325L1.22588 6.2925H1.58866L1.70322 5.96591ZM3.76531 5.96591L3.87987 6.2925H4.24265L3.9467 6.49325L4.06126 6.82284L3.76531 6.6191L3.46936 6.81985L3.58393 6.49325L3.28798 6.2925H3.65393L3.76531 5.96591ZM5.83059 5.96591L5.94197 6.2925H6.30793L6.01198 6.49325L6.12336 6.82284L5.83059 6.6191L5.53464 6.81985L5.64602 6.49325L5.35326 6.2925H5.71603L5.83059 5.96591ZM7.89269 5.96591L8.00725 6.2925H8.37003L8.07726 6.49325L8.18864 6.82284L7.89269 6.6191L7.59992 6.81985L7.7113 6.49325L7.41535 6.2925H7.78449L7.89269 5.96591ZM9.95797 5.96591L10.0693 6.2925H10.4353L10.1394 6.49325L10.2507 6.82284L9.95797 6.6191L9.66202 6.81985L9.7734 6.49325L9.48063 6.2925H9.84341L9.95797 5.96591ZM0.668988 6.79288L0.783548 7.11947H1.14632L0.853558 7.32022L0.964936 7.64682L0.668988 7.44607L0.376221 7.64682L0.487599 7.31723L0.19165 7.11648H0.560791L0.668988 6.79288ZM2.73427 6.79288L2.84564 7.11947H3.2116L2.91565 7.32022L3.03021 7.64682L2.73427 7.44607L2.43832 7.64682L2.55288 7.31723L2.25693 7.11648H2.6197L2.73427 6.79288ZM4.79636 6.79288L4.91092 7.11947H5.27052L4.98411 7.32022L5.09549 7.64682L4.79954 7.44607L4.50678 7.64682L4.61816 7.31723L4.32221 7.11648H4.68817L4.79636 6.79288ZM6.86164 6.79288L6.97302 7.11947H7.33898L7.04303 7.32022L7.15759 7.64682L6.86164 7.44607L6.56569 7.64682L6.68025 7.31723L6.3843 7.11648H6.74708L6.86164 6.79288ZM8.92374 6.79288L9.0383 7.11947H9.40107L9.10831 7.32022L9.21969 7.64682L8.92374 7.44607L8.63097 7.64682L8.74235 7.31723L8.44958 7.11648H8.81236L8.92374 6.79288ZM10.989 6.79288L11.1004 7.11947H11.4664L11.1704 7.32022L11.285 7.64682L10.989 7.44607L10.6931 7.64682L10.8076 7.31723L10.5117 7.11648H10.8776L10.989 6.79288Z" fill="white"/>
</g>
</g>
<defs>
<clipPath id="clip0_6947_99061">
<rect width="21" height="15" fill="white"/>
</clipPath>
<clipPath id="clip1_6947_99061">
<rect width="21.7241" height="15.3409" fill="white" transform="translate(-0.362061 -0.170456)"/>
</clipPath>
</defs>
</svg>
