<svg width="80" height="80" viewBox="0 0 80 80" fill="none" xmlns="http://www.w3.org/2000/svg">
<path d="M79.9998 40.0099C79.9998 17.9007 62.0883 0 40.0099 0C17.9314 0 0.00012207 17.9007 0.00012207 40.0099C0.00012207 52.1018 5.37162 62.9291 13.8238 70.2593C17.655 59.4912 27.924 51.7856 39.9901 51.7856C52.0562 51.7856 62.3253 59.4912 66.1564 70.2593C74.6284 62.9291 79.9801 52.1018 79.9801 40.0099H79.9998ZM40.0099 47.0635C31.9526 47.0635 25.416 40.5236 25.416 32.4623C25.416 24.4011 31.9526 17.8612 40.0099 17.8612C48.0671 17.8612 54.6037 24.4011 54.6037 32.4623C54.6037 40.5236 48.0671 47.0635 40.0099 47.0635Z" fill="#D9D9D9"/>
<path d="M39.9902 47.0634C48.0502 47.0634 54.5841 40.5262 54.5841 32.4622C54.5841 24.3982 48.0502 17.8611 39.9902 17.8611C31.9302 17.8611 25.3963 24.3982 25.3963 32.4622C25.3963 40.5262 31.9302 47.0634 39.9902 47.0634Z" fill="#6C6C6C"/>
<path d="M39.9902 51.7659C27.9241 51.7659 17.655 59.4715 13.8239 70.2396C20.8345 76.325 29.9779 80 39.9902 80C50.0026 80 59.146 76.3053 66.1566 70.2396C62.3255 59.4715 52.0564 51.7659 39.9902 51.7659Z" fill="#6C6C6C"/>
<path d="M65.0001 50C56.7073 50 50.0001 56.7072 50.0001 65C50.0001 73.2928 56.7073 80 65.0001 80C73.2929 80 80.0001 73.2928 80.0001 65C80.0001 56.7072 73.2929 50 65.0001 50ZM62.6217 54.3763C62.6217 53.1713 63.6841 52.2199 64.9209 52.2199C66.1576 52.2199 67.2042 53.203 67.2042 54.3763V66.5381C67.2042 67.7431 66.1894 68.7262 64.9209 68.7262C63.6524 68.7262 62.6217 67.7431 62.6217 66.5381V54.3763ZM64.9526 76.4799C63.9219 76.4799 63.2877 76.0518 62.9388 75.6554C62.479 75.1797 62.2411 74.5455 62.2411 73.8478C62.2411 72.5476 63.2084 71.184 64.9526 71.184C65.9832 71.184 66.6174 71.6438 66.9663 72.0243V71.9926C67.4261 72.4683 67.664 73.1184 67.664 73.8161C67.664 75.1322 66.7285 76.4641 64.9526 76.4641V76.4799Z" fill="#FF0000"/>
<path d="M64.9208 68.7105C66.1893 68.7105 67.2041 67.7274 67.2041 66.5223V54.3764C67.2041 53.2031 66.1735 52.22 64.9208 52.22C63.6682 52.22 62.6216 53.1872 62.6216 54.3764V66.5382C62.6216 67.7432 63.6523 68.7263 64.9208 68.7263V68.7105Z" fill="white"/>
<path d="M66.9663 72.0401C66.6016 71.6595 65.9832 71.1997 64.9525 71.1997C63.1925 71.1997 62.2411 72.5633 62.2411 73.8636C62.2411 74.5612 62.479 75.1796 62.9388 75.6712C63.3035 76.0517 63.9219 76.4957 64.9525 76.4957C66.7284 76.4957 67.6639 75.1796 67.6639 73.8477C67.6639 73.15 67.4261 72.4999 66.9663 72.0242V72.0559V72.0401Z" fill="white"/>
</svg>
