<svg width="32" height="32" viewBox="0 0 32 32" fill="none" xmlns="http://www.w3.org/2000/svg">
<g clip-path="url(#clip0_6215_121725)">
<path d="M12.6573 22.0668C12.4717 21.4407 12.3785 20.7246 12.3785 19.6603V14.1225C12.3785 11.1351 10.7932 9.68555 7.5335 9.68555C5.70554 9.68555 4.03981 10.2019 2.72139 11.0757L3.83553 13.2112C4.90352 12.5664 5.86777 12.2717 6.85807 12.2717C7.84837 12.2717 9.04203 12.5911 9.04203 14.1229V14.2865L7.08062 14.3551C3.8465 14.4648 1.98975 15.9271 1.98975 18.372C1.98975 20.8169 3.64405 22.3145 6.00898 22.3145C7.32237 22.3145 8.42829 21.9183 9.39619 21.0989C9.64023 21.7437 9.95144 22.0668 10.7608 22.0668H12.6573ZM9.04248 18.9826C8.50918 19.4286 7.83968 19.6557 7.06006 19.6557C5.945 19.6557 5.28008 19.095 5.28008 18.1472C5.28008 17.5517 5.50629 16.7534 7.48871 16.6921L9.04248 16.646V18.983V18.9826Z" fill="#FF0000"/>
<path d="M23.6571 21.0654H25.3151C26.003 21.0654 26.3079 21.1224 26.4998 21.2091C26.2054 20.2952 25.2774 19.5827 22.0071 19.3383C22.5294 19.9429 23.0779 20.5221 23.6563 21.0654H23.6571Z" fill="#FF0000"/>
<path d="M22.007 19.3391C18.8331 15.6508 16.6949 10.932 15.8379 7.00003C15.8379 7.00003 14.0932 8.5388 13.9548 11.775C13.8014 15.3117 15.6986 18.8773 21.9466 19.3321C21.9667 19.3356 21.9878 19.3356 22.007 19.3382V19.3391Z" fill="#FF0000"/>
<path d="M23.6562 21.0654C21.193 21.0654 16.9403 21.0654 16.9403 21.0654C17.0297 21.274 17.3373 21.4203 18.0374 21.4615C22.2296 21.7104 22.8229 25 28.8229 25C29.3495 25 29.6781 24.9684 30.0102 24.9062C27.639 24.1771 25.5096 22.8066 23.6562 21.0645V21.0654Z" fill="#FF0000"/>
</g>
<defs>
<clipPath id="clip0_6215_121725">
<rect width="32" height="32" fill="white"/>
</clipPath>
</defs>
</svg>
