<svg width="33" height="33" viewBox="0 0 33 33" fill="none" xmlns="http://www.w3.org/2000/svg">
<path d="M19.0772 7.54669C20.6787 5.94516 20.6787 3.34857 19.0772 1.74704C17.4757 0.145515 14.8791 0.145518 13.2775 1.74705C11.676 3.34857 11.676 5.94517 13.2775 7.54669C14.8791 9.14822 17.4757 9.14822 19.0772 7.54669Z" fill="#4D4DF4"/>
<path d="M7.18066 7.54836C8.78219 5.94683 8.78219 3.35024 7.18066 1.74871C5.57913 0.147184 2.98255 0.147187 1.38102 1.74872C-0.220505 3.35024 -0.220505 5.94683 1.38102 7.54835C2.98255 9.14988 5.57913 9.14989 7.18066 7.54836Z" fill="#4D4DF4"/>
<path d="M7.17965 31.3396C8.78118 29.7381 8.78118 27.1415 7.17965 25.5399C5.57813 23.9384 2.98153 23.9384 1.38 25.5399C-0.22153 27.1415 -0.221511 29.7381 1.38002 31.3396C2.98154 32.9411 5.57813 32.9411 7.17965 31.3396Z" fill="black"/>
<path d="M7.17798 19.4431C8.7795 17.8415 8.7795 15.245 7.17798 13.6434C5.57645 12.0419 2.97987 12.0419 1.37834 13.6434C-0.223189 15.245 -0.223189 17.8415 1.37834 19.4431C2.97987 21.0446 5.57645 21.0446 7.17798 19.4431Z" fill="#4D4DF4"/>
<path d="M30.6623 19.7459C30.8 19.6107 31.0142 19.3991 31.0806 19.3276C31.7589 18.5957 32.1746 17.6215 32.1746 16.5452C32.1746 15.3389 31.6544 14.255 30.8255 13.5052L30.8178 13.5001C30.7235 13.4083 30.619 13.3037 30.5246 13.2068C30.0094 12.6763 29.1372 11.6715 29.1372 10.6003C29.1372 9.42462 30.1905 8.31522 30.6648 7.8536C30.8026 7.71843 31.0168 7.50675 31.0831 7.43534C31.7615 6.70339 32.1772 5.72916 32.1772 4.65291C32.1721 2.38309 30.3384 0.546838 28.0737 0.546838C25.809 0.546838 23.9727 2.38309 23.9727 4.64781C23.9727 5.72661 24.391 6.70594 25.0719 7.43789C25.1357 7.50675 25.4086 7.76689 25.6254 7.98877C26.1405 8.51924 27.0127 9.52408 27.0127 10.5952C27.0127 11.7709 25.9594 12.8803 25.4851 13.342C25.4264 13.3981 25.355 13.4695 25.2861 13.5383C25.2861 13.5383 25.2836 13.5383 25.281 13.5409C24.4777 14.2907 23.9727 15.3593 23.9727 16.5452C23.9727 17.624 24.391 18.6033 25.0719 19.3353C25.1357 19.4042 25.4086 19.6643 25.6254 19.8862C26.1405 20.4166 27.0127 21.4215 27.0127 22.4926C27.0127 23.6683 25.9594 24.7777 25.4851 25.2394C25.3474 25.3745 25.1331 25.5862 25.0668 25.6576C24.3884 26.3896 23.9727 27.3638 23.9727 28.4401C23.9727 30.7048 25.809 32.541 28.0737 32.541C30.3384 32.541 32.1746 30.7048 32.1746 28.4401C32.1746 27.3613 31.7564 26.3819 31.0754 25.65C31.0117 25.5811 30.7388 25.321 30.522 25.0991C30.0068 24.5686 29.1346 23.5638 29.1346 22.4926C29.1346 21.3169 30.1879 20.2075 30.6623 19.7459Z" fill="black"/>
<path d="M13.728 25.0965C14.2431 24.5661 15.1153 23.5612 15.1153 22.4901C15.1153 21.3144 14.062 20.205 13.5877 19.7434C13.45 19.6082 13.2357 19.3965 13.1694 19.3251C12.491 18.5931 12.0753 17.6189 12.0753 16.5427C12.0753 14.2779 13.9116 12.4417 16.1763 12.4417C18.441 12.4417 20.2773 14.2779 20.2773 16.5427C20.2773 17.6215 19.859 18.6008 19.1781 19.3327C19.1143 19.4016 18.8414 19.6617 18.6246 19.8836C18.1094 20.4141 17.2372 21.4189 17.2372 22.4901C17.2372 23.6658 18.2905 24.7752 18.7649 25.2368C18.9026 25.372 19.1168 25.5837 19.1832 25.6551C19.8615 26.387 20.2773 27.3613 20.2773 28.4375C20.2773 30.7022 18.441 32.5385 16.1763 32.5385C13.9116 32.5385 12.0753 30.7022 12.0753 28.4375C12.0753 27.3587 12.4936 26.3794 13.1745 25.6474C13.2383 25.5786 13.5112 25.3184 13.728 25.0965Z" fill="black"/>
</svg>
