<svg width="190" height="45" viewBox="0 0 190 45" fill="none" xmlns="http://www.w3.org/2000/svg">
<path d="M48.078 4.95984C46.2005 4.95984 44.6692 6.45392 44.6692 8.28538C44.6692 10.1168 46.1655 11.6482 48.078 11.6482C49.9905 11.6482 51.5306 10.1431 51.5306 8.28538C51.5306 6.42763 50.0146 4.95984 48.078 4.95984Z" fill="white"/>
<path d="M138.761 21.6883C138.761 16.2421 135.872 13.6001 129.935 13.6001C126.596 13.6001 123.558 14.5421 121.157 16.1348L123.187 20.0277C125.131 18.8513 126.89 18.3146 128.702 18.3146C130.513 18.3146 132.678 18.8973 132.678 21.6905V21.9884L129.102 22.1133C123.205 22.3127 119.816 24.9788 119.816 29.437C119.816 33.8951 122.835 36.6248 127.146 36.6248C129.536 36.6248 131.56 35.9018 133.324 34.4077C133.76 35.5842 134.334 36.1713 135.806 36.1713H139.263C138.926 35.0299 138.759 33.7242 138.759 31.7832V21.6883H138.761ZM132.68 30.5477C131.703 31.3604 130.491 31.7745 129.059 31.7745C127.03 31.7745 125.819 30.7514 125.819 29.0251C125.819 27.9407 126.23 26.4838 129.843 26.3721L132.68 26.2889V30.5499V30.5477Z" fill="white"/>
<path d="M45.0811 36.1713H51.0771V34.0419V14.0974H45.0811V36.1713Z" fill="white"/>
<path d="M32.0045 36.1713H34.0858L43.2737 14.0952H37.2777L31.9432 28.4007L26.6986 14.0952H20.6631L28.7228 33.7703C29.3362 35.2928 30.2585 36.1713 32.0067 36.1713H32.0045Z" fill="white"/>
<path d="M97.0696 36.1713V21.6051C97.0696 15.6988 93.4198 13.6001 90.0088 13.6001C87.4369 13.6001 85.1388 14.4172 82.5953 16.2465L82.5647 16.1326C82.0608 14.7678 80.9764 14.0974 79.2282 14.0974H76.9388V36.1735H82.9261V20.9588C84.8606 19.5151 86.5606 18.8162 88.1423 18.8162C90.1643 18.8162 91.0691 20.1767 91.0691 23.2415V36.1713H97.0696Z" fill="white"/>
<path d="M118.543 34.3552L116.972 30.092C115.715 30.8215 113.89 31.6869 111.75 31.6869C107.302 31.6869 105.729 28.0678 105.729 24.9723C105.729 21.1122 108.282 18.3124 111.796 18.3124C113.84 18.3124 115.824 18.9828 117.382 20.1548L117.581 15.2191C115.664 14.1478 113.651 13.5979 111.16 13.5979C107.982 13.5979 105.077 14.7744 102.989 16.9103C100.886 19.0463 99.7334 22.006 99.7334 25.2461C99.7334 28.4862 100.715 31.2356 102.483 33.2467C104.415 35.4593 107.234 36.6226 110.613 36.6226C113.783 36.6226 116.948 35.4462 118.545 34.353L118.543 34.3552Z" fill="white"/>
<path d="M73.4839 36.1713C73.1466 35.0299 72.9757 33.7242 72.9757 31.7832V21.6883C72.9757 16.2421 70.0861 13.6001 64.1426 13.6001C60.8105 13.6001 57.7741 14.5421 55.3687 16.1348L57.3995 20.0277C59.3471 18.8513 61.1041 18.3146 62.9092 18.3146C64.7144 18.3146 66.8898 18.8973 66.8898 21.6905V21.9884L63.3145 22.1133C57.4192 22.3127 54.0345 24.9788 54.0345 29.437C54.0345 33.8951 57.0512 36.6248 61.3626 36.6248C63.7571 36.6248 65.7725 35.9018 67.5383 34.4077C67.983 35.5842 68.5504 36.1713 70.0269 36.1713H73.4839ZM66.8942 30.5477C65.9215 31.3604 64.7013 31.7745 63.2795 31.7745C61.2465 31.7745 60.035 30.7514 60.035 29.0251C60.035 27.9407 60.4468 26.4838 64.0616 26.3721L66.8942 26.2889V30.5499V30.5477Z" fill="white"/>
<path d="M19.4472 36.1713C19.1098 35.0299 18.9389 33.7242 18.9389 31.7832V21.6883C18.9389 16.2421 16.0494 13.6001 10.1059 13.6001C6.77377 13.6001 3.7374 14.5421 1.33197 16.1348L3.36279 20.0277C5.31035 18.8513 7.06733 18.3146 8.8725 18.3146C10.6777 18.3146 12.8531 18.8973 12.8531 21.6905V21.9884L9.27778 22.1133C3.38469 22.3127 0 24.9788 0 29.437C0 33.8951 3.01665 36.6248 7.32803 36.6248C9.72251 36.6248 11.738 35.9018 13.5037 34.4077C13.9484 35.5842 14.5158 36.1713 15.9924 36.1713H19.4494H19.4472ZM12.8575 30.5477C11.8848 31.3604 10.6645 31.7745 9.24273 31.7745C7.20973 31.7745 5.99825 30.7514 5.99825 29.0251C5.99825 27.9407 6.41011 26.4838 10.0248 26.3721L12.8575 26.2889V30.5499V30.5477Z" fill="white"/>
<path d="M173.265 35.1636H177.41C179.13 35.1636 179.892 35.306 180.372 35.5228C179.636 33.2379 177.316 31.4568 169.14 30.8456C170.445 32.3572 171.817 33.8053 173.263 35.1636H173.265Z" fill="white"/>
<path d="M169.14 30.8478C161.205 21.627 155.86 9.82985 153.717 0C153.717 0 149.355 3.84694 149.009 11.9373C148.626 20.7792 153.369 29.6933 168.989 30.8303C169.039 30.8391 169.092 30.8391 169.14 30.8456V30.8478Z" fill="white"/>
<path d="M173.263 35.1636C167.105 35.1636 156.473 35.1636 156.473 35.1636C156.696 35.685 157.465 36.0508 159.216 36.1538C169.696 36.776 171.179 45 186.179 45C187.496 45 188.318 44.9211 189.148 44.7656C183.22 42.9429 177.896 39.5166 173.263 35.1614V35.1636Z" fill="white"/>
</svg>
