<svg width="169" height="28" viewBox="0 0 169 28" fill="none" xmlns="http://www.w3.org/2000/svg">
<g id="LOGO" clip-path="url(#clip0_230_1296)">
<path id="Vector" d="M0.359375 28H5.05109V16.6463H19.0522V12.5832H5.05109V4.17434H20.5369V0.111328H0.359375V28Z" fill="black"/>
<path id="Vector_2" d="M39.2679 0.111328H34.5762V24.6542C34.5762 25.6633 34.8834 26.4741 35.4979 27.0844C36.1124 27.6948 36.9557 28 38.0254 28H54.5115V23.9369H39.2679V0.111328Z" fill="black"/>
<path id="Vector_3" d="M72.1829 12.9419L64.5622 0.111328H59.4668L69.8572 17.2031V28H74.5108V17.2031L84.8989 0.111328H79.8058L72.1829 12.9419Z" fill="black"/>
<path id="Vector_4" d="M117.788 20.7894C117.413 19.5398 116.965 18.5263 116.445 17.7422C116.016 17.1007 115.449 16.575 114.796 16.1205C117.337 14.6103 119.044 11.8593 119.044 8.70512V8.70066C119.044 3.92707 115.148 0.0578613 110.342 0.0578613L96.9713 0.104639L96.9668 1.29191C96.9601 3.25659 98.5636 4.85372 100.542 4.85372H110.344L110.347 4.85818C112.482 4.86041 114.211 6.58006 114.211 8.70066C114.211 10.8213 112.495 12.5231 110.374 12.5387C110.362 12.5387 110.353 12.5476 110.342 12.5476C108.198 12.5476 103.843 12.5476 100.542 12.5454C98.5614 12.5454 96.9601 14.1425 96.9668 16.1072L96.9713 17.2766V27.9977H101.663V17.3991H108.882C109.847 17.3991 110.688 17.7177 111.41 18.357C112.132 18.9941 112.666 19.9118 113.013 21.1058L115.18 27.9977H120.033L117.786 20.7872L117.788 20.7894Z" fill="black"/>
<g id="Group">
<path id="Vector_5" d="M156.843 6.11381C158.252 4.71501 158.252 2.44709 156.843 1.04829C155.435 -0.350513 153.152 -0.350511 151.743 1.04829C150.335 2.4471 150.335 4.71501 151.743 6.11381C153.152 7.51262 155.435 7.51261 156.843 6.11381Z" fill="#4738E6"/>
<path id="Vector_6" d="M146.382 6.11528C147.791 4.71648 147.791 2.44857 146.382 1.04977C144.974 -0.349039 142.691 -0.349036 141.282 1.04977C139.874 2.44857 139.874 4.71647 141.282 6.11528C142.691 7.51408 144.974 7.51409 146.382 6.11528Z" fill="#4738E6"/>
<path id="Vector_7" d="M146.382 26.8951C147.791 25.4963 147.791 23.2284 146.382 21.8296C144.974 20.4307 142.691 20.4307 141.282 21.8296C139.874 23.2284 139.874 25.4963 141.282 26.8951C142.691 28.2939 144.974 28.2939 146.382 26.8951Z" fill="black"/>
<path id="Vector_8" d="M146.38 16.5044C147.789 15.1056 147.789 12.8377 146.38 11.4389C144.972 10.0401 142.689 10.0401 141.28 11.4389C139.872 12.8377 139.872 15.1056 141.28 16.5044C142.689 17.9032 144.972 17.9033 146.38 16.5044Z" fill="#4738E6"/>
<path id="Vector_9" d="M167.031 16.7688C167.152 16.6508 167.341 16.4659 167.399 16.4035C167.995 15.7642 168.361 14.9133 168.361 13.9733C168.361 12.9196 167.903 11.973 167.175 11.3181L167.168 11.3136C167.085 11.2334 166.993 11.1421 166.91 11.0574C166.457 10.5941 165.69 9.71647 165.69 8.78091C165.69 7.75402 166.616 6.78504 167.033 6.38186C167.154 6.2638 167.343 6.07892 167.401 6.01655C167.998 5.37725 168.363 4.52633 168.363 3.58632C168.359 1.60382 166.746 0 164.755 0C162.763 0 161.148 1.60382 161.148 3.58186C161.148 4.52411 161.516 5.37948 162.115 6.01877C162.171 6.07892 162.411 6.30613 162.602 6.49992C163.055 6.96325 163.822 7.84089 163.822 8.77645C163.822 9.80334 162.895 10.7723 162.478 11.1755C162.427 11.2245 162.364 11.2869 162.303 11.347C162.303 11.347 162.301 11.347 162.299 11.3492C161.592 12.0041 161.148 12.9375 161.148 13.9733C161.148 14.9155 161.516 15.7709 162.115 16.4102C162.171 16.4703 162.411 16.6975 162.602 16.8913C163.055 17.3547 163.822 18.2323 163.822 19.1679C163.822 20.1948 162.895 21.1637 162.478 21.5669C162.357 21.685 162.169 21.8698 162.111 21.9322C161.514 22.5715 161.148 23.4224 161.148 24.3625C161.148 26.3405 162.763 27.9443 164.755 27.9443C166.746 27.9443 168.361 26.3405 168.361 24.3625C168.361 23.4202 167.993 22.5648 167.394 21.9255C167.338 21.8654 167.098 21.6382 166.908 21.4444C166.455 20.9811 165.688 20.1034 165.688 19.1679C165.688 18.141 166.614 17.172 167.031 16.7688Z" fill="black"/>
<path id="Vector_10" d="M152.141 21.4421C152.594 20.9788 153.361 20.1012 153.361 19.1656C153.361 18.1387 152.435 17.1697 152.017 16.7666C151.896 16.6485 151.708 16.4636 151.65 16.4013C151.053 15.762 150.688 14.911 150.688 13.971C150.688 11.993 152.302 10.3892 154.294 10.3892C156.285 10.3892 157.9 11.993 157.9 13.971C157.9 14.9133 157.532 15.7686 156.933 16.4079C156.877 16.4681 156.637 16.6953 156.447 16.8891C155.994 17.3524 155.227 18.2301 155.227 19.1656C155.227 20.1925 156.153 21.1615 156.57 21.5647C156.691 21.6827 156.88 21.8676 156.938 21.93C157.534 22.5693 157.9 23.4202 157.9 24.3602C157.9 26.3382 156.285 27.9421 154.294 27.9421C152.302 27.9421 150.688 26.3382 150.688 24.3602C150.688 23.418 151.055 22.5626 151.654 21.9233C151.71 21.8631 151.95 21.6359 152.141 21.4421Z" fill="black"/>
</g>
</g>
<defs>
<clipPath id="clip0_230_1296">
<rect width="168" height="28" fill="white" transform="translate(0.359375)"/>
</clipPath>
</defs>
</svg>
