<svg width="240" height="140" viewBox="0 0 240 140" fill="none" xmlns="http://www.w3.org/2000/svg">
  <rect width="240" height="140" rx="16" fill="#F6F2EF"/>
  <g transform="translate(0 -2)">
    <path d="M102 20C102 12 108 6 116 6H134C144 6 152 14 152 24V98C152 112 142 124 128 124H112C100 124 92 114 92 102V24C92 22 94 20 96 20H102Z" fill="#E10600"/>
    <rect x="106" y="16" width="40" height="9" rx="4.5" fill="#111827"/>
    <rect x="112" y="30" width="28" height="16" rx="6" fill="#F8FAFC"/>
    <rect x="120" y="50" width="18" height="22" rx="6" fill="#B91C1C"/>
    <path d="M106 76L142 76" stroke="#F8FAFC" stroke-width="4" stroke-linecap="round"/>
    <path d="M98 40C90 48 90 60 98 68" stroke="#111827" stroke-width="4" stroke-linecap="round"/>
    <rect x="108" y="6" width="5" height="40" rx="2.5" fill="#111827"/>
    <rect x="116" y="4" width="5" height="46" rx="2.5" fill="#111827"/>
    <rect x="124" y="3" width="5" height="48" rx="2.5" fill="#111827"/>
    <rect x="132" y="4" width="5" height="46" rx="2.5" fill="#111827"/>
    <rect x="140" y="6" width="5" height="40" rx="2.5" fill="#111827"/>
    <path d="M142 90L164 118H106L118 100" fill="#E10600"/>
    <path d="M154 88L176 120" stroke="#1F1F1F" stroke-width="3" stroke-linecap="round"/>
    <path d="M148 90L168 120" stroke="#1F1F1F" stroke-width="3" stroke-linecap="round"/>
    <circle cx="178" cy="120" r="3" fill="#1F1F1F"/>
  </g>
</svg>
