<svg width="360" height="220" viewBox="0 0 360 220" fill="none" xmlns="http://www.w3.org/2000/svg">
  <rect width="360" height="220" rx="18" fill="#F8FAFC" />
  <rect x="56" y="44" width="80" height="110" rx="10" fill="#C7CDD8" />
  <rect x="68" y="54" width="56" height="44" rx="6" fill="#9FA7B5" />
  <rect x="60" y="128" width="72" height="18" rx="9" fill="#E5E7EB" />
  <rect x="76" y="150" width="10" height="36" rx="5" fill="#C7CDD8" />
  <rect x="104" y="150" width="10" height="36" rx="5" fill="#C7CDD8" />
  <rect x="148" y="44" width="80" height="110" rx="10" fill="#C7CDD8" />
  <rect x="160" y="54" width="56" height="44" rx="6" fill="#9FA7B5" />
  <rect x="152" y="128" width="72" height="18" rx="9" fill="#E5E7EB" />
  <rect x="168" y="150" width="10" height="36" rx="5" fill="#C7CDD8" />
  <rect x="196" y="150" width="10" height="36" rx="5" fill="#C7CDD8" />
  <rect x="80" y="110" width="112" height="6" rx="3" fill="#E11D48" />
  <rect x="220" y="126" width="84" height="18" rx="9" fill="#E11D48" />
  <rect x="232" y="98" width="56" height="28" rx="6" fill="#9FA7B5" />
</svg>
