<svg width="360" height="220" viewBox="0 0 360 220" fill="none" xmlns="http://www.w3.org/2000/svg">
  <rect width="360" height="220" rx="18" fill="#F8FAFC" />
  <rect x="64" y="64" width="92" height="80" rx="14" fill="#E5E7EB" stroke="#D1D5DB" />
  <rect x="200" y="64" width="92" height="80" rx="14" fill="#E5E7EB" stroke="#D1D5DB" />
  <rect x="78" y="136" width="64" height="16" rx="8" fill="#D1D5DB" />
  <rect x="214" y="136" width="64" height="16" rx="8" fill="#D1D5DB" />
  <rect x="86" y="54" width="48" height="10" rx="5" fill="#E10600" />
  <rect x="222" y="54" width="48" height="10" rx="5" fill="#E10600" />
  <rect x="92" y="150" width="14" height="30" rx="6" fill="#9CA3AF" />
  <rect x="122" y="150" width="14" height="30" rx="6" fill="#9CA3AF" />
  <rect x="228" y="150" width="14" height="30" rx="6" fill="#9CA3AF" />
  <rect x="258" y="150" width="14" height="30" rx="6" fill="#9CA3AF" />
  <rect x="140" y="168" width="52" height="8" rx="4" fill="#B0B7C3" />
  <rect x="168" y="168" width="52" height="8" rx="4" fill="#B0B7C3" />
</svg>
