<svg width="360" height="220" viewBox="0 0 360 220" fill="none" xmlns="http://www.w3.org/2000/svg">
  <rect width="360" height="220" rx="18" fill="#F8FAFC" />
  <rect x="206" y="64" width="86" height="98" rx="14" fill="#DC2626" />
  <rect x="220" y="52" width="58" height="22" rx="8" fill="#111827" />
  <rect x="220" y="90" width="58" height="10" rx="5" fill="#FDE047" />
  <rect x="232" y="110" width="34" height="44" rx="8" fill="#EF4444" />
  <path d="M96 154C122 118 168 96 220 96C250 96 276 104 294 116" stroke="#CBD5E1" stroke-width="12" stroke-linecap="round" />
  <path d="M92 154C118 136 166 124 220 124C250 124 278 130 298 140" stroke="#E5E7EB" stroke-width="16" stroke-linecap="round" />
  <circle cx="116" cy="154" r="12" fill="#DC2626" />
  <path d="M118 98L152 66" stroke="#111827" stroke-width="6" stroke-linecap="round" />
  <circle cx="160" cy="58" r="10" stroke="#111827" stroke-width="6" fill="#F8FAFC" />
</svg>
