<?xml version="1.0" encoding="UTF-8"?>
<svg width="32px" height="32px" viewBox="0 0 32 32" version="1.1" xmlns="http://www.w3.org/2000/svg" xmlns:xlink="http://www.w3.org/1999/xlink">
    <title>icon/CVV AMEX</title>
    <g id="icon/CVV-AMEX" stroke="none" stroke-width="1" fill="none" fill-rule="evenodd">
        <path d="M23.0526316,5.51315789 C27.5363117,5.51315789 31.1710526,9.14789881 31.1710526,13.6315789 C31.1710526,16.4433341 29.7416347,18.9212309 27.5698338,20.3782342 L27.5699446,23.8421053 L27.5649258,24.0096276 C27.4783489,25.4504007 26.2824764,26.5921053 24.8199446,26.5921053 L24.8199446,26.5921053 L4,26.5921053 L3.83247767,26.5870865 C2.3917046,26.5005095 1.25,25.3046371 1.25,23.8421053 L1.25,23.8421053 L1.25,11 L1.25501879,10.8324777 C1.34159572,9.3917046 2.53746816,8.25 4,8.25 L4,8.25 L16.9746438,8.24935655 C18.4619549,6.57102722 20.6337539,5.51315789 23.0526316,5.51315789 Z M15.9209126,9.74926976 L4,9.75 L3.87219476,9.75645361 C3.24187466,9.8204661 2.75,10.3527913 2.75,11 L2.75,11 L2.75,23.8421053 L2.75645361,23.9699105 C2.8204661,24.6002306 3.35279131,25.0921053 4,25.0921053 L4,25.0921053 L24.8199446,25.0921053 L24.9477498,25.0856517 C25.5780699,25.0216392 26.0699446,24.489314 26.0699446,23.8421053 L26.0699446,23.8421053 L26.0695862,21.1709292 C25.136902,21.5444922 24.1187662,21.75 23.0526316,21.75 C18.5689514,21.75 14.9342105,18.1152591 14.9342105,13.6315789 C14.9342105,12.2253154 15.2917612,10.9025623 15.9209126,9.74926976 Z M23.0526316,7.01315789 C19.3973786,7.01315789 16.4342105,9.97632593 16.4342105,13.6315789 C16.4342105,17.286832 19.3973786,20.25 23.0526316,20.25 C26.7078846,20.25 29.6710526,17.286832 29.6710526,13.6315789 C29.6710526,9.97632593 26.7078846,7.01315789 23.0526316,7.01315789 Z M24.4786846,11.5131579 C24.904099,11.5131579 25.2374323,11.6116427 25.4786846,11.8086124 C25.7199369,12.0055821 25.8405631,12.2769725 25.8405631,12.6227836 C25.8405631,12.8010367 25.7843937,12.9650296 25.6720548,13.1147622 C25.5597159,13.2644948 25.4123863,13.3794681 25.2300658,13.459682 C25.4565852,13.5381133 25.6255539,13.6557604 25.7369719,13.8126231 C25.84839,13.9694859 25.904099,14.1548691 25.904099,14.3687729 C25.904099,14.7145839 25.7738043,14.9917675 25.513215,15.2003237 C25.2526257,15.4088798 24.9077822,15.5131579 24.4786846,15.5131579 C24.0772113,15.5131579 23.7489425,15.4106624 23.493878,15.2056713 C23.2388135,15.0006802 23.1112813,14.7297354 23.1112813,14.392837 L23.1112813,14.392837 L23.9096239,14.392837 L23.9164194,14.477329 C23.934541,14.5857069 23.9889056,14.6769725 24.0795134,14.7511258 C24.192773,14.8438174 24.3322758,14.8901632 24.4980216,14.8901632 C24.6877086,14.8901632 24.8364194,14.8415893 24.9441542,14.7444413 C25.051889,14.6472934 25.1057565,14.5185055 25.1057565,14.3580777 C25.1057565,13.9694859 24.884762,13.77519 24.442773,13.77519 L24.442773,13.77519 L24.0201211,13.77519 L24.0201211,13.1709119 L24.4455355,13.1709119 L24.5607841,13.1650296 C24.7060511,13.1493433 24.817727,13.1022845 24.8958117,13.0238531 C24.9934176,12.9258139 25.0422205,12.7956891 25.0422205,12.6334788 C25.0422205,12.476616 24.993878,12.3545126 24.8971929,12.2671686 C24.8005078,12.1798246 24.6674507,12.1361525 24.4980216,12.1361525 C24.3451671,12.1361525 24.2171745,12.1767051 24.1140437,12.2578103 C24.010913,12.3389155 23.9593476,12.4445304 23.9593476,12.5746552 L23.9593476,12.5746552 L23.1610051,12.5746552 L23.1678006,12.4552435 C23.1859222,12.2993789 23.2402868,12.156919 23.3308946,12.0278638 C23.4441542,11.8665447 23.6025336,11.7404306 23.8060327,11.6495215 C24.0095318,11.5586124 24.2337491,11.5131579 24.4786846,11.5131579 Z M18.6554802,11.5612862 L18.6554802,15.459682 L17.8571377,15.459682 L17.8571377,12.4810723 L16.904099,12.7671686 L16.904099,12.1388263 L18.5698448,11.5612862 L18.6554802,11.5612862 Z M21.2797896,11.5131579 C21.6941542,11.5131579 22.0159774,11.6094146 22.2452592,11.8019279 C22.474541,11.9944413 22.5891819,12.2662773 22.5891819,12.617436 C22.5891819,12.8099493 22.5376165,13.0060278 22.4344857,13.2056713 C22.331355,13.4053148 22.1545594,13.6379351 21.904099,13.9035322 L21.904099,13.9035322 L20.9897344,14.8366873 L22.7190161,14.8366873 L22.7190161,15.459682 L19.96211,15.459682 L19.96211,14.9302702 L21.263215,13.5880242 L21.388474,13.450825 C21.505014,13.3181378 21.5953973,13.1989868 21.6596239,13.0933718 C21.7452592,12.9525518 21.7880769,12.818862 21.7880769,12.6923023 C21.7880769,12.5193968 21.7429572,12.3834788 21.6527178,12.2845483 C21.5624784,12.1856178 21.4335649,12.1361525 21.2659774,12.1361525 C21.0854986,12.1361525 20.9432334,12.196313 20.8391819,12.3166338 C20.7351303,12.4369547 20.6831045,12.5951543 20.6831045,12.7912328 L20.6831045,12.7912328 L19.8819995,12.7912328 L19.8890161,12.6514467 C19.907727,12.4683451 19.9638596,12.2983629 20.0574139,12.1415001 C20.1743568,11.9454217 20.3396423,11.7916784 20.5532703,11.6802702 C20.7668983,11.568862 21.0090714,11.5131579 21.2797896,11.5131579 Z M28.8347772,15.5131579 L28.8347772,14.6477733 L29.2880739,14.6477733 L29.2880739,14.0076634 L28.8347772,14.0076634 L28.8347772,11.5131579 L28.0325794,11.5131579 L26.364997,14.1477733 L26.4007113,14.6477733 L28.0408212,14.6477733 L28.0408212,15.5131579 L28.8347772,15.5131579 Z M28.0408212,14.0076634 L27.1562058,14.0076634 L27.9886234,12.6862348 L28.0408212,12.5955755 L28.0408212,14.0076634 Z" id="Combined-Shape-Copy" fill="#38384A" fill-rule="nonzero"></path>
        <g id="American_Express_logo_(2018)" transform="translate(3.489820, 21.014057)" fill="#016FD0">
            <path d="M1.46086508,0.000506463377 L0,3 L0.95109854,3 L1.2206463,2.39936513 L2.78765451,2.39936513 L3.05580575,3 L4.02785361,3 L2.56838497,0.000506463377 L1.46086508,0.000506463377 Z M2.00135708,0.698579259 L2.47900152,1.7481581 L1.52231622,1.7481581 L2.00135708,0.698579259 L2.00135708,0.698579259 Z" id="path3046" fill-rule="nonzero"></path>
            <polygon id="path3048" points="4.1284101 2.99949609 4.1284101 2.33189657e-13 5.47997406 0.00443283349 6.2660896 1.93831719 7.03338093 2.27373675e-13 8.37413652 2.27373675e-13 8.37413652 2.99949609 7.52499124 2.99949609 7.52499124 0.789341078 6.62487935 2.99949609 5.88017711 2.99949609 4.97755539 0.789341078 4.97755539 2.99949609"></polygon>
            <polygon id="path3062" points="9.31551035 2.99949609 9.31551035 2.27373675e-13 12.0864053 2.27373675e-13 12.0864053 0.670941195 10.173594 0.670941195 10.173594 1.18401162 12.0417134 1.18401162 12.0417134 1.81548448 10.173594 1.81548448 10.173594 2.34828907 12.0864053 2.34828907 12.0864053 2.99949609"></polygon>
            <polygon id="path3066" points="12.193945 2.99949609 13.5430805 1.51824675 12.1618229 0 13.2316341 0 14.0542435 0.938573837 14.8796463 0 15.9075591 0 14.5444574 1.49974805 15.8960764 2.99949609 14.8264343 2.99949609 14.0277079 2.07571713 13.2483937 2.99949609"></polygon>
        </g>
    </g>
</svg>