<?xml version="1.0" encoding="UTF-8"?>
<svg width="68px" height="32px" viewBox="0 0 68 32" version="1.1" xmlns="http://www.w3.org/2000/svg" xmlns:xlink="http://www.w3.org/1999/xlink">
    <title>icon/CVV double card</title>
    <g id="icon/CVV-double-card" stroke="none" stroke-width="1" fill="none" fill-rule="evenodd">
        <path d="M24.8199446,6.25 C26.2824764,6.25 27.4783489,7.3917046 27.5649258,8.83247767 L27.5699446,9 L27.5701847,12.6762483 C29.1698507,14.1590233 30.1710526,16.2783795 30.1710526,18.6315789 C30.1710526,23.1152591 26.5363117,26.75 22.0526316,26.75 C19.9250814,26.75 17.988678,25.9316034 16.5410576,24.5924463 L4,24.5921053 C2.53746816,24.5921053 1.34159572,23.4504007 1.25501879,22.0096276 L1.25,21.8421053 L1.25,9 C1.25,7.53746816 2.3917046,6.34159572 3.83247767,6.25501879 L4,6.25 L24.8199446,6.25 Z M59.0526316,5.51315789 C63.5363117,5.51315789 67.1710526,9.14789881 67.1710526,13.6315789 C67.1710526,16.4433341 65.7416347,18.9212309 63.5698338,20.3782342 L63.5699446,23.8421053 L63.5649258,24.0096276 C63.481812,25.3927697 62.3763714,26.5002904 60.9941145,26.586679 L60.8199446,26.5921053 L40,26.5921053 L39.8324777,26.5870865 C38.4493355,26.5039726 37.3418149,25.398532 37.2554263,24.0162752 L37.25,23.8421053 L37.25,11 L37.2550188,10.8324777 C37.3381326,9.44933552 38.4435732,8.34181488 39.8258301,8.25542625 L40,8.25 L52.9746438,8.24935655 C54.4619549,6.57102722 56.6337539,5.51315789 59.0526316,5.51315789 Z M22.0526316,12.0131579 C18.3973786,12.0131579 15.4342105,14.9763259 15.4342105,18.6315789 C15.4342105,22.286832 18.3973786,25.25 22.0526316,25.25 C25.7078846,25.25 28.6710526,22.286832 28.6710526,18.6315789 C28.6710526,14.9763259 25.7078846,12.0131579 22.0526316,12.0131579 Z M51.9209126,9.74926976 L40,9.75 L39.8721948,9.75645361 C39.283896,9.8161986 38.8161986,10.283896 38.7564536,10.8721948 L38.75,11 L38.75,23.8421053 L38.7564536,23.9699105 C38.8161986,24.5582093 39.283896,25.0259067 39.8721948,25.0856517 L40,25.0921053 L60.8199446,25.0921053 L60.9477498,25.0856517 C61.5360486,25.0259067 62.003746,24.5582093 62.063491,23.9699105 L62.0699446,23.8421053 L62.0695862,21.1709292 C61.136902,21.5444922 60.1187662,21.75 59.0526316,21.75 C54.5689514,21.75 50.9342105,18.1152591 50.9342105,13.6315789 C50.9342105,12.2253154 51.2917612,10.9025623 51.9209126,9.74926976 Z M15.2008885,14.27509 L2.75,14.275 L2.75,21.8421053 C2.75,22.489314 3.24187466,23.0216392 3.87219476,23.0856517 L4,23.0921053 L15.2687729,23.0928278 C14.4251621,21.8126076 13.9342105,20.2794272 13.9342105,18.6315789 C13.9342105,17.0284398 14.3988827,15.5338306 15.2008885,14.27509 Z M25.5224609,16.6757812 C25.9736328,16.6757812 26.3271484,16.7836914 26.5830078,16.9995117 C26.8388672,17.215332 26.9667969,17.5126953 26.9667969,17.8916016 C26.9667969,18.0869141 26.9072266,18.2666016 26.7880859,18.4306641 C26.6689453,18.5947266 26.5126953,18.7207031 26.3193359,18.8085938 C26.5595703,18.8945312 26.7387695,19.0234375 26.8569336,19.1953125 C26.9750977,19.3671875 27.0341797,19.5703125 27.0341797,19.8046875 C27.0341797,20.1835938 26.8959961,20.4873047 26.6196289,20.7158203 C26.3432617,20.9443359 25.9775391,21.0585938 25.5224609,21.0585938 C25.0966797,21.0585938 24.7485352,20.9462891 24.4780273,20.7216797 C24.241333,20.5251465 24.1081924,20.2732849 24.0786057,19.966095 L24.0722656,19.8310547 L24.9189453,19.8310547 L24.9261523,19.9236328 C24.9453711,20.0423828 25.0030273,20.1423828 25.0991211,20.2236328 C25.2192383,20.3251953 25.3671875,20.3759766 25.5429688,20.3759766 C25.7441406,20.3759766 25.9018555,20.3227539 26.0161133,20.2163086 C26.1303711,20.1098633 26.1875,19.96875 26.1875,19.7929688 C26.1875,19.4058949 25.9938017,19.1947637 25.606405,19.1595752 L25.484375,19.1542969 L25.0361328,19.1542969 L25.0361328,18.4921875 L25.4873047,18.4921875 L25.6095312,18.4857422 C25.7635937,18.4685547 25.8820313,18.4169922 25.9648438,18.3310547 C26.0683594,18.2236328 26.1201172,18.0810547 26.1201172,17.9033203 C26.1201172,17.7314453 26.0688477,17.5976562 25.9663086,17.5019531 C25.8637695,17.40625 25.7226562,17.3583984 25.5429688,17.3583984 C25.3808594,17.3583984 25.2451172,17.402832 25.1357422,17.4916992 C25.0482422,17.562793 24.9957422,17.6510742 24.9782422,17.756543 L24.9716797,17.8388672 L24.125,17.8388672 L24.132207,17.7080273 C24.1514258,17.5372461 24.209082,17.3811523 24.3051758,17.2397461 C24.425293,17.0629883 24.5932617,16.9248047 24.809082,16.8251953 C25.0249023,16.7255859 25.2626953,16.6757812 25.5224609,16.6757812 Z M19.3466797,16.7285156 L19.3466797,21 L18.5,21 L18.5,17.7363281 L17.4892578,18.0498047 L17.4892578,17.3613281 L19.2558594,16.7285156 L19.3466797,16.7285156 Z M22.1298828,16.6757812 C22.5693359,16.6757812 22.9106445,16.78125 23.1538086,16.9921875 C23.3969727,17.203125 23.5185547,17.5009766 23.5185547,17.8857422 C23.5185547,18.0966797 23.4638672,18.3115234 23.3544922,18.5302734 C23.2669922,18.7052734 23.1294922,18.9033984 22.9419922,19.1246484 L22.7919922,19.2949219 L21.8222656,20.3173828 L23.65625,20.3173828 L23.65625,21 L20.7324219,21 L20.7324219,20.4199219 L22.1123047,18.9492188 L22.2200586,18.8281641 C22.3558398,18.6709766 22.4600586,18.5306641 22.5327148,18.4072266 C22.6235352,18.2529297 22.6689453,18.1064453 22.6689453,17.9677734 C22.6689453,17.7783203 22.6210938,17.6293945 22.5253906,17.5209961 C22.4296875,17.4125977 22.2929688,17.3583984 22.1152344,17.3583984 C21.9238281,17.3583984 21.7729492,17.4243164 21.6625977,17.5561523 C21.5743164,17.6616211 21.5213477,17.7936523 21.5036914,17.9522461 L21.4970703,18.0761719 L20.6474609,18.0761719 L20.6549023,17.9230078 C20.6747461,17.7223828 20.7342773,17.5361328 20.8334961,17.3642578 C20.9575195,17.1494141 21.1328125,16.980957 21.359375,16.8588867 C21.5859375,16.7368164 21.8427734,16.6757812 22.1298828,16.6757812 Z M59.0526316,7.01315789 C55.3973786,7.01315789 52.4342105,9.97632593 52.4342105,13.6315789 C52.4342105,17.286832 55.3973786,20.25 59.0526316,20.25 C62.7078846,20.25 65.6710526,17.286832 65.6710526,13.6315789 C65.6710526,9.97632593 62.7078846,7.01315789 59.0526316,7.01315789 Z M60.4786846,11.5131579 C60.904099,11.5131579 61.2374323,11.6116427 61.4786846,11.8086124 C61.7199369,12.0055821 61.8405631,12.2769725 61.8405631,12.6227836 C61.8405631,12.8010367 61.7843937,12.9650296 61.6720548,13.1147622 C61.5597159,13.2644948 61.4123863,13.3794681 61.2300658,13.459682 C61.4565852,13.5381133 61.6255539,13.6557604 61.7369719,13.8126231 C61.84839,13.9694859 61.904099,14.1548691 61.904099,14.3687729 C61.904099,14.7145839 61.7738043,14.9917675 61.513215,15.2003237 C61.2526257,15.4088798 60.9077822,15.5131579 60.4786846,15.5131579 C60.0772113,15.5131579 59.7489425,15.4106624 59.493878,15.2056713 C59.2752513,15.0299646 59.1503218,14.8058022 59.1190894,14.5331841 L59.1112813,14.392837 L59.9096239,14.392837 L59.9164194,14.477329 C59.934541,14.5857069 59.9889056,14.6769725 60.0795134,14.7511258 C60.192773,14.8438174 60.3322758,14.8901632 60.4980216,14.8901632 C60.6877086,14.8901632 60.8364194,14.8415893 60.9441542,14.7444413 C61.051889,14.6472934 61.1057565,14.5185055 61.1057565,14.3580777 C61.1057565,14.0048124 60.9231164,13.8121223 60.5578363,13.7800072 L60.442773,13.77519 L60.0201211,13.77519 L60.0201211,13.1709119 L60.4455355,13.1709119 L60.5607841,13.1650296 C60.7060511,13.1493433 60.817727,13.1022845 60.8958117,13.0238531 C60.9934176,12.9258139 61.0422205,12.7956891 61.0422205,12.6334788 C61.0422205,12.476616 60.993878,12.3545126 60.8971929,12.2671686 C60.8005078,12.1798246 60.6674507,12.1361525 60.4980216,12.1361525 C60.3451671,12.1361525 60.2171745,12.1767051 60.1140437,12.2578103 C60.0315391,12.3226944 59.9820364,12.4032648 59.9655355,12.4995215 L59.9593476,12.5746552 L59.1610051,12.5746552 L59.1678006,12.4552435 C59.1859222,12.2993789 59.2402868,12.156919 59.3308946,12.0278638 C59.4441542,11.8665447 59.6025336,11.7404306 59.8060327,11.6495215 C60.0095318,11.5586124 60.2337491,11.5131579 60.4786846,11.5131579 Z M64.8347772,11.5131579 L64.8347772,14.0076634 L65.2880739,14.0076634 L65.2880739,14.6477733 L64.8347772,14.6477733 L64.8347772,15.5131579 L64.0408212,15.5131579 L64.0408212,14.6477733 L62.4007113,14.6477733 L62.364997,14.1477733 L64.0325794,11.5131579 L64.8347772,11.5131579 Z M54.6554802,11.5612862 L54.6554802,15.459682 L53.8571377,15.459682 L53.8571377,12.4810723 L52.904099,12.7671686 L52.904099,12.1388263 L54.5698448,11.5612862 L54.6554802,11.5612862 Z M57.2797896,11.5131579 C57.6941542,11.5131579 58.0159774,11.6094146 58.2452592,11.8019279 C58.474541,11.9944413 58.5891819,12.2662773 58.5891819,12.617436 C58.5891819,12.8099493 58.5376165,13.0060278 58.4344857,13.2056713 C58.3519811,13.3653861 58.222331,13.546206 58.0455355,13.7481312 L57.904099,13.9035322 L56.9897344,14.8366873 L58.7190161,14.8366873 L58.7190161,15.459682 L55.96211,15.459682 L55.96211,14.9302702 L57.263215,13.5880242 L57.388474,13.450825 C57.505014,13.3181378 57.5953973,13.1989868 57.6596239,13.0933718 C57.7452592,12.9525518 57.7880769,12.818862 57.7880769,12.6923023 C57.7880769,12.5193968 57.7429572,12.3834788 57.6527178,12.2845483 C57.5624784,12.1856178 57.4335649,12.1361525 57.2659774,12.1361525 C57.0854986,12.1361525 56.9432334,12.196313 56.8391819,12.3166338 C56.7559406,12.4128905 56.7059959,12.5333896 56.6893476,12.6781312 L56.6831045,12.7912328 L55.8819995,12.7912328 L55.8890161,12.6514467 C55.907727,12.4683451 55.9638596,12.2983629 56.0574139,12.1415001 C56.1743568,11.9454217 56.3396423,11.7916784 56.5532703,11.6802702 C56.7668983,11.568862 57.0090714,11.5131579 57.2797896,11.5131579 Z M64.0408212,12.5955755 L63.9886234,12.6862348 L63.1562058,14.0076634 L64.0408212,14.0076634 L64.0408212,12.5955755 Z M24.8199446,7.75 L4,7.75 C3.35279131,7.75 2.8204661,8.24187466 2.75645361,8.87219476 L2.75,9 L2.75,11.275 L18.6141151,11.2751724 C19.5877012,10.8193174 20.6666471,10.5510454 21.8044293,10.5168796 L22.0526316,10.5131579 C23.514061,10.5131579 24.8852994,10.8993113 26.0698797,11.5751509 L26.0699446,9 C26.0699446,8.35279131 25.5780699,7.8204661 24.9477498,7.75645361 L24.8199446,7.75 Z" id="Combined-Shape" fill="#38384A" fill-rule="nonzero"></path>
        <g id="American_Express_logo_(2018)-Copy" transform="translate(39.489820, 21.014057)" fill="#016FD0">
            <path d="M1.46086508,0.000506463377 L0,3 L0.95109854,3 L1.2206463,2.39936513 L2.78765451,2.39936513 L3.05580575,3 L4.02785361,3 L2.56838497,0.000506463377 L1.46086508,0.000506463377 Z M2.00135708,0.698579259 L2.47900152,1.7481581 L1.52231622,1.7481581 L2.00135708,0.698579259 L2.00135708,0.698579259 Z" id="path3046" fill-rule="nonzero"></path>
            <polygon id="path3048" points="4.1284101 2.99949609 4.1284101 2.33189657e-13 5.47997406 0.00443283349 6.2660896 1.93831719 7.03338093 2.27373675e-13 8.37413652 2.27373675e-13 8.37413652 2.99949609 7.52499124 2.99949609 7.52499124 0.789341078 6.62487935 2.99949609 5.88017711 2.99949609 4.97755539 0.789341078 4.97755539 2.99949609"></polygon>
            <polygon id="path3062" points="9.31551035 2.99949609 9.31551035 2.27373675e-13 12.0864053 2.27373675e-13 12.0864053 0.670941195 10.173594 0.670941195 10.173594 1.18401162 12.0417134 1.18401162 12.0417134 1.81548448 10.173594 1.81548448 10.173594 2.34828907 12.0864053 2.34828907 12.0864053 2.99949609"></polygon>
            <polygon id="path3066" points="12.193945 2.99949609 13.5430805 1.51824675 12.1618229 0 13.2316341 0 14.0542435 0.938573837 14.8796463 0 15.9075591 0 14.5444574 1.49974805 15.8960764 2.99949609 14.8264343 2.99949609 14.0277079 2.07571713 13.2483937 2.99949609"></polygon>
        </g>
    </g>
</svg>