<?xml version="1.0" encoding="UTF-8"?>
<svg width="32px" height="32px" viewBox="0 0 32 32" version="1.1" xmlns="http://www.w3.org/2000/svg" xmlns:xlink="http://www.w3.org/1999/xlink">
    <title>icon/CVV</title>
    <g id="icon/CVV" stroke="none" stroke-width="1" fill="none" fill-rule="evenodd">
        <path d="M24.8199446,6.25 C26.2824764,6.25 27.4783489,7.3917046 27.5649258,8.83247767 L27.5699446,9 L27.5701847,12.6762483 C29.1698507,14.1590233 30.1710526,16.2783795 30.1710526,18.6315789 C30.1710526,23.1152591 26.5363117,26.75 22.0526316,26.75 C19.9250814,26.75 17.988678,25.9316034 16.5410576,24.5924463 L4,24.5921053 C2.53746816,24.5921053 1.34159572,23.4504007 1.25501879,22.0096276 L1.25,21.8421053 L1.25,9 C1.25,7.53746816 2.3917046,6.34159572 3.83247767,6.25501879 L4,6.25 L24.8199446,6.25 Z M22.0526316,12.0131579 C18.3973786,12.0131579 15.4342105,14.9763259 15.4342105,18.6315789 C15.4342105,22.286832 18.3973786,25.25 22.0526316,25.25 C25.7078846,25.25 28.6710526,22.286832 28.6710526,18.6315789 C28.6710526,14.9763259 25.7078846,12.0131579 22.0526316,12.0131579 Z M15.2008885,14.27509 L2.75,14.275 L2.75,21.8421053 C2.75,22.489314 3.24187466,23.0216392 3.87219476,23.0856517 L4,23.0921053 L15.2687729,23.0928278 C14.4251621,21.8126076 13.9342105,20.2794272 13.9342105,18.6315789 C13.9342105,17.0284398 14.3988827,15.5338306 15.2008885,14.27509 Z M25.5224609,16.6757812 C25.9736328,16.6757812 26.3271484,16.7836914 26.5830078,16.9995117 C26.8388672,17.215332 26.9667969,17.5126953 26.9667969,17.8916016 C26.9667969,18.0869141 26.9072266,18.2666016 26.7880859,18.4306641 C26.6689453,18.5947266 26.5126953,18.7207031 26.3193359,18.8085937 C26.5595703,18.8945312 26.7387695,19.0234375 26.8569336,19.1953125 C26.9750977,19.3671875 27.0341797,19.5703125 27.0341797,19.8046875 C27.0341797,20.1835937 26.8959961,20.4873047 26.6196289,20.7158203 C26.3432617,20.9443359 25.9775391,21.0585937 25.5224609,21.0585937 C25.0966797,21.0585937 24.7485352,20.9462891 24.4780273,20.7216797 C24.2075195,20.4970703 24.0722656,20.2001953 24.0722656,19.8310547 L24.0722656,19.8310547 L24.9189453,19.8310547 L24.9261523,19.9236328 C24.9453711,20.0423828 25.0030273,20.1423828 25.0991211,20.2236328 C25.2192383,20.3251953 25.3671875,20.3759766 25.5429688,20.3759766 C25.7441406,20.3759766 25.9018555,20.3227539 26.0161133,20.2163086 C26.1303711,20.1098633 26.1875,19.96875 26.1875,19.7929687 C26.1875,19.3671875 25.953125,19.1542969 25.484375,19.1542969 L25.484375,19.1542969 L25.0361328,19.1542969 L25.0361328,18.4921875 L25.4873047,18.4921875 L25.6095313,18.4857422 C25.7635938,18.4685547 25.8820313,18.4169922 25.9648438,18.3310547 C26.0683594,18.2236328 26.1201172,18.0810547 26.1201172,17.9033203 C26.1201172,17.7314453 26.0688477,17.5976562 25.9663086,17.5019531 C25.8637695,17.40625 25.7226563,17.3583984 25.5429688,17.3583984 C25.3808594,17.3583984 25.2451172,17.402832 25.1357422,17.4916992 C25.0263672,17.5805664 24.9716797,17.6962891 24.9716797,17.8388672 L24.9716797,17.8388672 L24.125,17.8388672 L24.132207,17.7080273 C24.1514258,17.5372461 24.209082,17.3811523 24.3051758,17.2397461 C24.425293,17.0629883 24.5932617,16.9248047 24.809082,16.8251953 C25.0249023,16.7255859 25.2626953,16.6757812 25.5224609,16.6757812 Z M19.3466797,16.7285156 L19.3466797,21 L18.5,21 L18.5,17.7363281 L17.4892578,18.0498047 L17.4892578,17.3613281 L19.2558594,16.7285156 L19.3466797,16.7285156 Z M22.1298828,16.6757812 C22.5693359,16.6757812 22.9106445,16.78125 23.1538086,16.9921875 C23.3969727,17.203125 23.5185547,17.5009766 23.5185547,17.8857422 C23.5185547,18.0966797 23.4638672,18.3115234 23.3544922,18.5302734 C23.2451172,18.7490234 23.0576172,19.0039062 22.7919922,19.2949219 L22.7919922,19.2949219 L21.8222656,20.3173828 L23.65625,20.3173828 L23.65625,21 L20.7324219,21 L20.7324219,20.4199219 L22.1123047,18.9492187 L22.2200586,18.8281641 C22.3558398,18.6709766 22.4600586,18.5306641 22.5327148,18.4072266 C22.6235352,18.2529297 22.6689453,18.1064453 22.6689453,17.9677734 C22.6689453,17.7783203 22.6210938,17.6293945 22.5253906,17.5209961 C22.4296875,17.4125977 22.2929688,17.3583984 22.1152344,17.3583984 C21.9238281,17.3583984 21.7729492,17.4243164 21.6625977,17.5561523 C21.5522461,17.6879883 21.4970703,17.8613281 21.4970703,18.0761719 L21.4970703,18.0761719 L20.6474609,18.0761719 L20.6549023,17.9230078 C20.6747461,17.7223828 20.7342773,17.5361328 20.8334961,17.3642578 C20.9575195,17.1494141 21.1328125,16.980957 21.359375,16.8588867 C21.5859375,16.7368164 21.8427734,16.6757812 22.1298828,16.6757812 Z M24.8199446,7.75 L4,7.75 C3.35279131,7.75 2.8204661,8.24187466 2.75645361,8.87219476 L2.75,9 L2.75,11.275 L18.6141151,11.2751724 C19.5877012,10.8193174 20.6666471,10.5510454 21.8044293,10.5168796 L22.0526316,10.5131579 C23.514061,10.5131579 24.8852994,10.8993113 26.0698797,11.5751509 L26.0699446,9 C26.0699446,8.35279131 25.5780699,7.8204661 24.9477498,7.75645361 L24.8199446,7.75 Z" id="Combined-Shape" fill="#38384A" fill-rule="nonzero"></path>
    </g>
</svg>