<?xml version="1.0" encoding="UTF-8"?>
<svg width="55px" height="35px" viewBox="0 0 55 35" version="1.1" xmlns="http://www.w3.org/2000/svg" xmlns:xlink="http://www.w3.org/1999/xlink">
    <title>Apple_Pay_Mark_RGB_041619</title>
    <g id="BF_payment" stroke="none" stroke-width="1" fill="none" fill-rule="evenodd">
        <g id="bf_Payment-Apple-Expanded" transform="translate(-745.000000, -579.000000)" fill-rule="nonzero">
            <g id="Apple_Pay_Mark_RGB_041619" transform="translate(745.000000, 579.000000)">
                <path d="M50.0745544,0 L4.92550404,0 C4.73746454,0 4.54909274,0 4.36138884,0.00108998151 C4.20271991,0.00221299277 4.04441982,0.00396356914 3.88611973,0.0082574357 C3.54087666,0.0175387934 3.19267627,0.0377860258 2.8517529,0.0986928715 C2.50538007,0.160656669 2.1830646,0.261727682 1.86862426,0.420864983 C1.55950047,0.577128696 1.2764942,0.781516745 1.03123871,1.02540837 C0.785876887,1.26929999 0.580259554,1.55015189 0.423089228,1.85775788 C0.262961574,2.17031834 0.161216216,2.49080594 0.0993117094,2.83537221 C0.0377095807,3.17435646 0.0172043358,3.52040908 0.00790038411,3.86322478 C0.00364714906,4.02057847 0.00182290996,4.17793217 0.000789506757,4.33525283 C0,4.52223421 0,4.70908346 0,4.89639513 L0,30.1039682 C0,30.2912799 0,30.4778021 0.000789506757,30.6651468 C0.00182290996,30.8224675 0.00364714906,30.9798212 0.00790038411,31.1371749 C0.0172043358,31.47969 0.0377095807,31.8257426 0.0993117094,32.1646278 C0.161216216,32.5093262 0.262961574,32.8296817 0.423089228,33.1422751 C0.580259554,33.4498811 0.785876887,33.7310964 1.03123871,33.9746247 C1.2764942,34.2189126 1.55950047,34.4232677 1.86862426,34.579135 C2.1830646,34.7387017 2.50538007,34.8398057 2.8517529,34.9017365 C3.19267627,34.962247 3.54087666,34.9828576 3.88611973,34.9921389 C4.04441982,34.9957061 4.20271991,34.99782 4.36138884,34.9985467 C4.54909274,35 4.73746454,35 4.92550404,35 L50.0745544,35 C50.2622617,35 50.4506368,35 50.6383041,34.9985467 C50.7966075,34.99782 50.954911,34.9957061 51.1139354,34.9921389 C51.4584475,34.9828576 51.8065814,34.962247 52.1483388,34.9017365 C52.4942464,34.8398057 52.8166284,34.7387017 53.1311019,34.579135 C53.440558,34.4232677 53.7227336,34.2189126 53.9684941,33.9746247 C54.2134539,33.7310964 54.4190679,33.4498811 54.5766403,33.1422751 C54.7371301,32.8296817 54.8387758,32.5093262 54.9003813,32.1646278 C54.9620199,31.8257426 54.9820234,31.47969 54.9913606,31.1371749 C54.9956803,30.9798212 54.9978102,30.8224675 54.9985413,30.6651468 C55,30.4778021 55,30.2912832 55,30.1039682 L55,4.89639513 C55,4.70908346 55,4.52223421 54.9985413,4.33525283 C54.9978102,4.17793217 54.9956803,4.02057847 54.9913606,3.86322478 C54.9820201,3.52040908 54.9620199,3.17435646 54.9003813,2.83537221 C54.8387791,2.49080594 54.7371301,2.17031834 54.5766403,1.85775788 C54.4190679,1.55015189 54.2134539,1.26929999 53.9684941,1.02540837 C53.7227336,0.781516745 53.440558,0.577128696 53.1311019,0.420864983 C52.8166284,0.261727682 52.4942464,0.160656669 52.1483388,0.0986928715 C51.8065847,0.0377860258 51.4584508,0.0175387934 51.1139354,0.0082574357 C50.954911,0.00396356914 50.7966075,0.00221299277 50.6383041,0.00108998151 C50.4506368,0 50.2622617,0 50.0745544,0 L50.0745544,0 Z" id="XMLID_4_" fill="#000000"></path>
                <path d="M50.0745544,1.16661052 L50.6299638,1.16766747 C50.780422,1.16872442 50.9308835,1.17034288 51.0821757,1.17443857 C51.345348,1.18150693 51.6532024,1.19567669 51.9401629,1.24680673 C52.1896085,1.29146294 52.3988112,1.3593721 52.5995805,1.46097158 C52.7977879,1.56108473 52.9793844,1.69227887 53.1379437,1.8496656 C53.2971077,2.00810927 53.4292604,2.18891409 53.5313048,2.38811646 C53.6329471,2.58612977 53.7008327,2.79309414 53.7454917,3.04286506 C53.7967964,3.32500512 53.8109849,3.63185143 53.8181988,3.89506545 C53.8222493,4.04363323 53.824243,4.19220102 53.8249774,4.34430298 C53.826373,4.52824562 53.826373,4.71208917 53.826373,4.89639513 L53.826373,30.1039682 C53.826373,30.2882742 53.826373,30.4717874 53.8249441,30.6596606 C53.824243,30.8081953 53.8222526,30.9567631 53.8181655,31.1055951 C53.8109849,31.3684128 53.7967997,31.675094 53.7448637,31.96057 C53.7008327,32.2069059 53.6329837,32.4139033 53.5307764,32.6129075 C53.4290278,32.8116144 53.2970778,32.992221 53.1386082,33.1496738 C52.9791485,33.3082166 52.7981501,33.4390144 52.5975868,33.5400523 C52.3983161,33.6411564 52.1894722,33.7090028 51.9424856,33.7531933 C51.6497135,33.80505 51.3289597,33.8193188 51.0873893,33.8258257 C50.9354026,33.8292277 50.7841469,33.8312723 50.6292062,33.8320022 C50.4445527,33.8333895 50.2592412,33.8333895 50.0745578,33.8333895 L4.92550404,33.8333895 C4.92304514,33.8333895 4.9206527,33.8333895 4.91816057,33.8333895 C4.73560374,33.8333895 4.55268141,33.8333895 4.36680175,33.8319692 C4.21524702,33.8312723 4.06402458,33.8292608 3.91781962,33.8259578 C3.67073325,33.8193188 3.34978014,33.805083 3.05939716,33.7535236 C2.81028718,33.7089995 2.60144337,33.6411564 2.39954762,33.5387311 C2.20087835,33.438585 2.02001285,33.3079193 1.86048331,33.1490793 C1.70218321,32.9919898 1.57063198,32.8119447 1.46891985,32.6129405 C1.36710804,32.4141345 1.29898982,32.2065095 1.25420126,31.957234 C1.20242809,31.6723195 1.18820634,31.3668604 1.18109879,31.1058264 C1.1770416,30.9563668 1.17534695,30.8069402 1.17438333,30.6583724 L1.1736523,30.2197705 L1.1736523,30.1039682 L1.1736523,4.89639513 L1.1736523,4.78059286 L1.1743501,4.34291573 C1.17534695,4.19345615 1.1770416,4.04402959 1.18109879,3.89470212 C1.18820634,3.63340383 1.20242809,3.32781265 1.25462991,3.04051994 C1.29902305,2.7934905 1.36710804,2.58586553 1.46945151,2.38606862 C1.57036616,2.18858379 1.70214998,2.00830745 1.86128411,1.85016104 C2.01978357,1.69254311 2.20124054,1.56151412 2.40117581,1.46044311 C2.60091172,1.35933907 2.81015094,1.29146294 3.05926425,1.24690582 C3.34629116,1.19564366 3.65435165,1.18150693 3.91818513,1.17440554 C4.06857687,1.17034288 4.2189686,1.16872442 4.36823057,1.1677005 L4.92550404,1.16661052 L50.0745544,1.16661052" id="XMLID_3_" fill="#FFFFFF"></path>
                <g id="Group" transform="translate(7.454929, 9.596947)" fill="#000000">
                    <g id="Path">
                        <path d="M7.55972003,2.17502838 C8.03064619,1.58952334 8.35021367,0.803362617 8.26592984,0 C7.57656019,0.0340734827 6.73531681,0.452081393 6.2482782,1.03804555 C5.81096921,1.5398334 5.42391486,2.35891157 5.52481953,3.12859706 C6.29867239,3.19532044 7.07181084,2.74410443 7.55972003,2.17502838"></path>
                        <path d="M8.25713761,3.27887908 C7.13331661,3.21233736 6.17779412,3.9128883 5.64111228,3.9128883 C5.10413471,3.9128883 4.28230005,3.31241088 3.39341712,3.32859545 C2.23648069,3.34548686 1.16297746,3.99571699 0.575881494,5.02988814 C-0.631675072,7.09873911 0.257207857,10.1675689 1.43149283,11.8525316 C2.00175196,12.6861363 2.68901161,13.6039965 3.59458184,13.5710262 C4.45019318,13.537653 4.78555744,13.0203147 5.82558971,13.0203147 C6.86485773,13.0203147 7.16695039,13.5710262 8.07266683,13.5543429 C9.01191736,13.5376497 9.59911634,12.7203221 10.1693688,11.8859049 C10.8235629,10.9356392 11.0913672,10.0180795 11.1082107,9.96770918 C11.0913639,9.95102586 9.29707019,9.26680483 9.28043273,7.21514914 C9.26349289,5.49726891 10.689154,4.68014941 10.7562521,4.62947518 C9.9511679,3.44587086 8.6932404,3.31241088 8.25713761,3.27887908"></path>
                    </g>
                    <g transform="translate(13.322864, 0.954008)">
                        <path d="M4.71963551,0 C7.16224181,0 8.86311716,1.6736468 8.86311716,4.11034671 C8.86311716,6.55574666 7.12724234,8.23808688 4.6583856,8.23808688 L1.9539528,8.23808688 L1.9539528,12.5131859 L0,12.5131859 L0,0 L4.71963551,0 L4.71963551,0 Z M1.95394947,6.6077652 L4.19597588,6.6077652 C5.89718683,6.6077652 6.86541253,5.69734658 6.86541253,4.11904344 C6.86541253,2.54090875 5.89718683,1.63902172 4.20472491,1.63902172 L1.95394947,1.63902172 L1.95394947,6.6077652 L1.95394947,6.6077652 Z" id="Shape"></path>
                        <path d="M9.37364492,9.92043041 C9.37364492,8.3247305 10.6037004,7.34489988 12.7848159,7.22346603 L15.2970855,7.07610713 L15.2970855,6.37376599 C15.2970855,5.35914183 14.6078521,4.75214104 13.4565479,4.75214104 C12.3658224,4.75214104 11.685338,5.27233306 11.5197609,6.08757648 L9.74013423,6.08757648 C9.84480036,4.43985803 11.2579311,3.22585644 13.5262112,3.22585644 C15.7507395,3.22585644 17.1726193,4.39653622 17.1726193,6.22623864 L17.1726193,12.5131892 L15.3667488,12.5131892 L15.3667488,11.0129981 L15.3233359,11.0129981 C14.7912662,12.0276223 13.6308774,12.6692449 12.4270723,12.6692449 C10.6299475,12.6692449 9.37364492,11.5592804 9.37364492,9.92043041 Z M15.2970855,9.09665541 L15.2970855,8.3769208 L13.0375544,8.51558296 C11.912165,8.593695 11.2754325,9.08795868 11.2754325,9.86841186 C11.2754325,10.6660934 11.9384154,11.1864505 12.950393,11.1864505 C14.2676099,11.1864505 15.2970855,10.2845635 15.2970855,9.09665541 Z" id="Shape"></path>
                        <path d="M18.8775319,15.869173 L18.8775319,14.3515884 C19.0168586,14.3862135 19.3308503,14.3862135 19.488014,14.3862135 C20.3603259,14.3862135 20.8314814,14.0220771 21.1192227,13.0855683 C21.1192227,13.0681715 21.2851354,12.530586 21.2851354,12.5218893 L17.9702172,3.3906121 L20.0113314,3.3906121 L22.3321091,10.8136207 L22.3667729,10.8136207 L24.687554,3.3906121 L26.6765062,3.3906121 L23.2390849,12.9900595 C22.4542766,15.2014569 21.5469619,15.9124948 19.6451777,15.9124948 C19.4880173,15.9124948 19.0168619,15.895098 18.8775319,15.869173 Z" id="Path"></path>
                    </g>
                </g>
            </g>
        </g>
    </g>
</svg>