<?xml version="1.0" encoding="UTF-8"?>
<svg width="5000px" height="1667px" viewBox="0 0 5000 1667" version="1.1" xmlns="http://www.w3.org/2000/svg" xmlns:xlink="http://www.w3.org/1999/xlink">
    <!-- Generator: Sketch 51.1 (57501) - http://www.bohemiancoding.com/sketch -->
    <title>flywire-logo</title>
    <desc>Created with Sketch.</desc>
    <defs></defs>
    <g id="Page-1" stroke="none" stroke-width="1" fill="none" fill-rule="evenodd">
        <path d="M1055.63481,1305.50941 L1263.32669,0 L1431.91024,0 L1224.21835,1305.58543 L1055.63481,1305.58543 L1055.63481,1305.50941 Z M2085.55116,1280.42173 C2045.68343,1534.45345 1896.99578,1667 1663.1051,1667 C1519.88503,1667 1407.496,1614.3919 1331.32965,1525.44469 L1425.60734,1409.24314 C1490.91448,1485.45646 1568.86538,1521.75756 1661.39648,1521.75756 C1802.75606,1521.75756 1889.78162,1440.03256 1917.00558,1280.38372 L1927.8648,1216.82828 L1924.21975,1216.82828 C1848.09136,1287.60593 1759.24328,1325.73159 1661.35852,1325.73159 C1480.0173,1325.73159 1392.9158,1234.99783 1392.9158,1062.53907 C1392.9158,1029.84907 1396.59882,995.372523 1402.02842,957.246858 L1487.15552,420.142538 L1653.91654,420.142538 L1570.61197,957.322881 C1565.22033,986.363767 1563.39781,1009.93098 1563.39781,1031.71164 C1563.39781,1129.78164 1606.91059,1178.81664 1704.83332,1178.81664 C1806.32517,1178.81664 1896.95781,1117.04775 1958.65787,1009.93098 L2052.82165,420.218561 L2221.40519,420.218561 L2085.55116,1280.42173 Z M3982.91337,579.943428 L4018.60447,416.873536 L3852.37504,416.873536 L3710.93951,1307.7901 L3879.52307,1307.7901 L3954.4364,829.603808 C3987.54561,654.256162 4117.32458,567.247544 4254.88723,567.247544 C4271.59371,567.247544 4283.81981,567.247544 4297.26091,568.57795 L4322.39659,410.18349 C4163.41924,385.475932 4044.08186,466.440701 3982.95133,579.943428 L3982.91337,579.943428 Z M3347.34582,420.218561 L3070.77768,1036.57713 L2972.36134,420.218561 L2808.7138,420.218561 L2524.324,1036.57713 L2430.53991,420.218561 L2259.944,420.218561 L2403.46783,1311.09711 L2576.72159,1311.09711 L2854.9224,693.636211 L2951.81997,1311.09711 L3123.44105,1311.09711 L3524.3965,420.218561 L3347.34582,420.218561 Z M3406.23615,1311.09711 L3547.67167,420.218561 L3716.25521,420.218561 L3574.85766,1311.09711 L3406.27412,1311.09711 L3406.23615,1311.09711 Z M3759.35033,241.48788 C3759.35033,294.856209 3716.06536,338.151454 3662.60464,338.151454 C3609.14391,338.151454 3565.85894,294.894221 3565.85894,241.525892 C3565.85894,188.157565 3609.14391,144.900331 3662.56667,144.900331 C3715.98942,144.900331 3759.31236,188.157565 3759.31236,241.525892 L3759.35033,241.48788 Z M628.217864,666.866044 L644.634178,569.30194 L43.4482602,569.30194 L68.1675148,414.172731 L668.974303,414.172731 L680.651496,340.030095 C715.038557,124.02788 859.486962,-0.303618287 1078.54808,0.000556929523 L1198.92175,1.11501436e-07 L1175.30198,151.213513 L1062.5109,150.985382 C940.658625,150.871316 871.050417,211.326081 849.060894,346.227656 L838.293614,414.172731 L1070.62428,414.172731 L1045.98084,569.30194 L813.953489,569.30194 L687.324178,1320.69003 C652.823379,1536.54016 506.176023,1660.11122 285.825858,1659.84507 L273.20084,1659.76902 L298.905832,1495.97083 L307.132945,1495.89478 C431.108348,1496.04687 497.83517,1443.42461 519.748864,1309.20743 L602.020004,821.881188 L0,821.881188 L24.7192545,666.828021 L628.217864,666.828021 L628.217864,666.866044 Z M4548.15326,1177.3476 L4548.11534,1177.3476 C4782.22792,1172.70893 4789.62095,1009.82327 4789.62095,1009.82327 L4944.30583,1009.82327 C4944.30583,1009.82327 4910.98034,1319.62542 4543.48996,1319.62542 C4430.05436,1319.62542 4338.00167,1282.02179 4284.16527,1213.73452 C4226.34799,1140.31431 4205.6475,1050.54468 4221.04019,939.330726 L4233.74102,859.750965 C4269.56879,651.048949 4314.0786,391.435654 4679.02883,391.435654 C4778.85367,391.435654 4862.52758,420.788535 4920.91356,476.376502 C4971.18614,524.208006 5000,590.099898 5000,657.284533 C5000,754.126223 4960.03973,827.622488 4881.25659,875.644101 C4800.91902,924.616265 4700.71504,934.654037 4626.40561,934.654037 L4380.35045,934.654037 C4366.17102,1021.45796 4375.04265,1085.06853 4407.87527,1123.73677 C4439.07765,1160.50391 4486.35511,1178.5643 4548.15326,1177.3476 Z M4407.11701,769.182882 L4407.15492,769.182882 L4401.84712,797.585216 L4629.70405,797.585216 C4771.76394,797.585216 4837.92208,754.050178 4837.92208,660.592437 C4837.92208,584.43464 4771.15735,535.234347 4667.84451,535.234347 C4526.92201,535.234347 4434.30061,618.312123 4407.11701,769.182882 Z" id="flywire-logo" fill="#147BD1" fill-rule="nonzero"></path>
    </g>
</svg>