<svg width="103px" height="16px" viewBox="0 0 103 16" version="1.1" xmlns="http://www.w3.org/2000/svg" xmlns:xlink="http://www.w3.org/1999/xlink"> <title>Sberbank</title> <defs> <linearGradient x1="58.8315321%" y1="96.4520833%" x2="38.6745497%" y2="0.0125%" id="linearGradient-1"> <stop stop-color="#F2E913" offset="14.44%"></stop> <stop stop-color="#E7E518" offset="30.37%"></stop> <stop stop-color="#CADB26" offset="58.23%"></stop> <stop stop-color="#A3CD39" offset="89.1%"></stop> </linearGradient> <linearGradient x1="8.55911458%" y1="58.3387587%" x2="94.4890625%" y2="38.554503%" id="linearGradient-2"> <stop stop-color="#0FA8E0" offset="5.92%"></stop> <stop stop-color="#0099F9" offset="53.85%"></stop> <stop stop-color="#0291EB" offset="92.34%"></stop> </linearGradient> <linearGradient x1="-1.77395833%" y1="57.2326931%" x2="95.3979167%" y2="43.9638401%" id="linearGradient-3"> <stop stop-color="#A3CD39" offset="12.26%"></stop> <stop stop-color="#86C339" offset="28.46%"></stop> <stop stop-color="#21A038" offset="86.93%"></stop> </linearGradient> <linearGradient x1="-7.6031348%" y1="40.2939515%" x2="92.4053292%" y2="58.2858384%" id="linearGradient-4"> <stop stop-color="#0291EB" offset="5.66%"></stop> <stop stop-color="#0C8ACB" offset="79%"></stop> </linearGradient> <linearGradient x1="7.79654255%" y1="39.9808454%" x2="100.153989%" y2="62.5577%" id="linearGradient-5"> <stop stop-color="#F2E913" offset="13.24%"></stop> <stop stop-color="#EBE716" offset="29.77%"></stop> <stop stop-color="#D9E01F" offset="53.06%"></stop> <stop stop-color="#BBD62D" offset="80.23%"></stop> <stop stop-color="#A3CD39" offset="98.29%"></stop> </linearGradient> <linearGradient x1="36.1497977%" y1="103.822606%" x2="60.4049216%" y2="7.38244681%" id="linearGradient-6"> <stop stop-color="#A3CD39" offset="6.98%"></stop> <stop stop-color="#81C55F" offset="25.99%"></stop> <stop stop-color="#0FA8E0" offset="92.16%"></stop> </linearGradient> </defs> <g id="Page-1" stroke="none" stroke-width="1" fill="none" fill-rule="evenodd"> <g id="SB_ENG_RGB" fill-rule="nonzero"> <path d="M24.8136364,7.22560606 C23.7056061,6.96030303 22.7536364,6.74181818 22.7536364,5.96151515 C22.7536364,4.93151515 24.0177273,4.82227273 24.5795455,4.82227273 C25.1881818,4.79106061 25.7812121,4.91590909 26.3274242,5.18121212 L27.8568182,4.05757576 C26.8736364,3.46454545 25.75,3.13681818 24.5951515,3.12121212 C21.7236364,3.12121212 20.7092424,4.65060606 20.7092424,6.07075758 C20.7092424,8.13075758 22.4883333,8.55212121 24.0801515,8.92666667 C25.1881818,9.1919697 26.1401515,9.42606061 26.1401515,10.2063636 C26.1401515,10.6121212 25.9060606,11.2831818 24.2986364,11.2831818 C23.2062121,11.2675758 22.145,10.9242424 21.2398485,10.3 L20.5375758,11.8918182 C21.380303,12.5472727 22.8472727,12.9686364 24.2830303,12.9686364 C26.6551515,12.9686364 28.2001515,11.8137879 28.2001515,10.034697 C28.1845455,8.02151515 26.3898485,7.60015152 24.8136364,7.22560606 Z" id="Path" fill="#21A038"></path> <path d="M36.8927273,7.91227273 L36.7990909,7.88106061 L36.8927273,7.83424242 C37.6574242,7.42848485 38.1412121,6.6169697 38.11,5.75863636 C38.11,4.21363636 36.7990909,3.30848485 34.6142424,3.30848485 L30.1040909,3.30848485 L30.1040909,12.8437879 L34.8795455,12.8437879 C37.2516667,12.8437879 38.5625758,11.9230303 38.5625758,10.2687879 C38.5781818,9.11393939 37.9539394,8.27121212 36.8927273,7.91227273 Z M32.1640909,4.88469697 L34.3489394,4.88469697 C35.7378788,4.88469697 36.0187879,5.52454545 36.0187879,6.05515152 C36.0187879,6.81984848 35.4413636,7.22560606 34.3489394,7.22560606 L32.1640909,7.22560606 L32.1640909,4.88469697 Z M32.1640909,7.21 L34.3489394,7.21 M34.7234848,11.2363636 L32.1640909,11.2363636 L32.1640909,8.80181818 L34.7234848,8.80181818 C35.8939394,8.80181818 36.4869697,9.20757576 36.4869697,10.0190909 C36.4869697,10.8306061 35.9095455,11.2363636 34.7234848,11.2363636 Z" id="Shape" fill="#21A038"></path> <polygon id="Path" fill="#21A038" points="45.5384848 4.88469697 47.6921212 3.29287879 40.4821212 3.29287879 40.4821212 12.8281818 47.6921212 12.8281818 47.6921212 11.2363636 42.5421212 11.2363636 42.5421212 8.80181818 46.9430303 8.80181818 46.9430303 7.21 42.5421212 7.21 42.5421212 4.88469697"></polygon> <path d="M57.7424242,12.8281818 L55.6512121,9.72257576 C56.8840909,9.1919697 57.6019697,8.11515152 57.6019697,6.695 C57.6019697,4.58818182 56.0413636,3.27727273 53.5443939,3.27727273 L49.6116667,3.27727273 L49.6116667,12.8125758 L51.6716667,12.8125758 L51.6716667,10.1127273 L53.7160606,10.1127273 L55.5419697,12.8125758 L57.7424242,12.8281818 Z M51.6716667,4.88469697 L53.4975758,4.88469697 C54.8240909,4.88469697 55.5419697,5.54015152 55.5419697,6.71060606 C55.5419697,7.88106061 54.8240909,8.53651515 53.4975758,8.53651515 L51.6716667,8.53651515 L51.6716667,4.88469697 Z" id="Shape" fill="#21A038"></path> <path d="M79.2319697,12.8281818 L81.4012121,12.8281818 L77.3748485,3.29287879 L75.2680303,3.29287879 L71.1636364,12.8281818 L73.2548485,12.8281818 L74.0819697,10.9086364 L78.4516667,10.9086364 L79.2319697,12.8281818 Z M74.7062121,9.30121212 L76.2980303,5.47772727 L77.7962121,9.30121212 L74.7062121,9.30121212 Z M95.79,8.97348485 L97.069697,8.97348485 L100.222121,12.8125758 L102.875152,12.8125758 L98.6615152,7.88106061 L102.344545,3.27727273 L99.9880303,3.27727273 L96.9292424,7.36606061 L95.79,7.36606061 L95.79,3.27727273 L93.73,3.27727273 L93.73,12.8125758 L95.79,12.8125758 L95.79,8.97348485 L95.79,8.97348485 Z M68.6510606,7.88106061 L68.744697,7.83424242 C69.5093939,7.42848485 69.9931818,6.63257576 69.9619697,5.75863636 C69.9619697,4.21363636 68.6510606,3.30848485 66.4662121,3.30848485 L61.9560606,3.30848485 L61.9560606,12.8437879 L66.7315152,12.8437879 C69.1036364,12.8437879 70.4145455,11.9230303 70.4145455,10.2687879 C70.4145455,9.14515152 69.8059091,8.28681818 68.744697,7.92787879 L68.6510606,7.88106061 Z M66.2009091,4.88469697 C67.5742424,4.88469697 67.8707576,5.52454545 67.8707576,6.05515152 C67.8707576,6.81984848 67.2933333,7.22560606 66.2009091,7.22560606 L64.0160606,7.22560606 L64.0160606,4.90030303 L66.2009091,4.90030303 L66.2009091,4.88469697 Z M64.0160606,11.2363636 L64.0160606,8.80181818 L66.5754545,8.80181818 C67.7459091,8.80181818 68.3389394,9.20757576 68.3389394,10.0190909 C68.3389394,10.8306061 67.7615152,11.2363636 66.5754545,11.2363636 L64.0160606,11.2363636 Z M89.4071212,3.29287879 L89.4071212,9.55090909 L84.6628788,3.29287879 L82.7121212,3.29287879 L82.7121212,12.8281818 L84.6940909,12.8281818 L84.6940909,6.58575758 L89.4227273,12.8281818 L91.3734848,12.8281818 L91.3734848,3.29287879 L89.4071212,3.29287879 Z" id="Shape" fill="#21A038"></path> <g id="Group"> <path d="M14.2795455,3.21484848 C14.6540909,3.69863636 14.9662121,4.22924242 15.2315152,4.79106061 L8.02151515,10.1127273 L4.99393939,8.20878788 L4.99393939,5.93030303 L8.00590909,7.81863636 L14.2795455,3.21484848 Z" id="Path" fill="#21A038"></path> <g id="Path"> <path d="M1.91954545,8.05272727 C1.91954545,7.94348485 1.91954545,7.84984848 1.93515152,7.74060606 L0.109242424,7.6469697 C0.109242424,7.77181818 0.0936363636,7.91227273 0.0936363636,8.03712121 C0.0936363636,10.2219697 0.983181818,12.2039394 2.41893939,13.639697 L3.71424242,12.3443939 C2.60621212,11.2519697 1.91954545,9.73818182 1.91954545,8.05272727 Z" fill="url(#linearGradient-1)"></path> <path d="M8.00590909,1.96636364 C8.11515152,1.96636364 8.20878788,1.96636364 8.3180303,1.9819697 L8.41166667,0.156060606 C8.28681818,0.156060606 8.14636364,0.140454545 8.02151515,0.140454545 C5.83666667,0.140454545 3.85469697,1.03 2.41893939,2.46575758 L3.71424242,3.76106061 C4.80666667,2.6530303 6.33606061,1.96636364 8.00590909,1.96636364 Z" fill="url(#linearGradient-2)"></path> <path d="M8.00590909,14.1390909 C7.89666667,14.1390909 7.8030303,14.1390909 7.69378788,14.1234848 L7.60015152,15.9493939 C7.725,15.9493939 7.86545455,15.965 7.99030303,15.965 C10.1751515,15.965 12.1571212,15.0754545 13.5928788,13.639697 L12.2975758,12.3443939 C11.2051515,13.4680303 9.69136364,14.1390909 8.00590909,14.1390909 Z" fill="url(#linearGradient-3)"></path> </g> <g id="Path"> <path d="M11.4392424,3.02757576 L12.9842424,1.88833333 C11.6265152,0.795909091 9.89424242,0.124848485 8.00590909,0.124848485 L8.00590909,0.124848485 L8.00590909,1.95075758 C9.28560606,1.96636364 10.4716667,2.35651515 11.4392424,3.02757576 Z" fill="url(#linearGradient-4)"></path> <path d="M15.9337879,8.05272727 C15.9337879,7.56893939 15.8869697,7.10075758 15.8089394,6.63257576 L14.1078788,7.89666667 C14.1078788,7.94348485 14.1078788,8.00590909 14.1078788,8.05272727 C14.1078788,9.84742424 13.3275758,11.4548485 12.094697,12.5628788 L13.3275758,13.9206061 C14.9193939,12.4848485 15.9337879,10.3780303 15.9337879,8.05272727 Z" fill="#21A038"></path> <path d="M8.00590909,14.1390909 C6.21121212,14.1390909 4.60378788,13.3587879 3.49575758,12.1259091 L2.1380303,13.3587879 C3.58939394,14.9662121 5.68060606,15.965 8.00590909,15.965 L8.00590909,14.1390909 L8.00590909,14.1390909 Z" fill="url(#linearGradient-5)"></path> <path d="M3.93272727,3.54257576 L2.69984848,2.18484848 C1.09242424,3.63621212 0.0936363636,5.72742424 0.0936363636,8.05272727 L1.91954545,8.05272727 C1.91954545,6.27363636 2.69984848,4.65060606 3.93272727,3.54257576 Z" fill="url(#linearGradient-6)"></path> </g> </g> </g> </g> </svg>