<svg width="1100" height="756" viewBox="0 0 1100 756" fill="none" xmlns="http://www.w3.org/2000/svg">
<path fill-rule="evenodd" clip-rule="evenodd" d="M881.315 96.1354H755.413L756.108 83.5681C756.465 76.7093 762.362 71.1061 769.203 71.1061H860.411C867.245 71.1061 880.227 76.7093 880.616 83.5681L881.315 96.1354Z" fill="#8A8F9D"/>
<path fill-rule="evenodd" clip-rule="evenodd" d="M747.545 105.691L734.926 289.67C734.491 297.422 740.542 303.765 748.334 303.765H888.963C896.77 303.765 902.806 297.422 902.371 289.67L889.763 105.691C889.328 97.9317 882.582 91.5847 874.79 91.5847H762.507C754.704 91.5847 747.992 97.9317 747.545 105.691Z" fill="#8A8F9D"/>
<path fill-rule="evenodd" clip-rule="evenodd" d="M780.492 358.305L789.093 544.447C789.432 551.918 794.144 558.041 799.563 558.041C804.978 558.041 809.698 551.918 810.041 544.447L818.634 358.305C818.985 350.842 813.09 344.722 805.548 344.722H793.574C786.036 344.722 780.164 350.842 780.492 358.305Z" fill="#8A8F9D"/>
<path fill-rule="evenodd" clip-rule="evenodd" d="M846.578 343.521L855.174 529.662C855.525 537.136 860.245 543.251 865.663 543.251C871.082 543.251 875.794 537.136 876.141 529.662L884.718 343.521C885.069 336.043 879.175 329.932 871.632 329.932H859.671C852.125 329.932 846.238 336.043 846.578 343.521Z" fill="#8A8F9D"/>
<path fill-rule="evenodd" clip-rule="evenodd" d="M734.926 521.068L1.12269 756C1.12269 756 -9.51982 653.542 34.7292 630.573C78.9704 607.624 1057.54 93.6191 1057.54 93.6191C1057.54 93.6191 1094.68 0 1100 0C1100 54.0966 1100 521.068 1100 521.068H734.926Z" fill="#8A8F9D"/>
</svg>
