<?xml version="1.0" encoding="utf-8"?>
<!-- Generator: Adobe Illustrator 23.1.0, SVG Export Plug-In . SVG Version: 6.00 Build 0)  -->
<svg version="1.1" id="Layer_1" xmlns="http://www.w3.org/2000/svg" xmlns:xlink="http://www.w3.org/1999/xlink" x="0px" y="0px"
	 viewBox="0 0 780 500" style="enable-background:new 0 0 780 500;" xml:space="preserve">
<style type="text/css">
	.st0{fill:#393939;}
</style>
<path class="st0" d="M106.4,259.1c-5.4,0.6-14.9,2.8-20.3,7.6c-16.2,14.5-6.8,39.9,26.3,39.9c18.9,0,37.8-12.4,52.6-31.7
	C143.5,264.6,126,257.1,106.4,259.1L106.4,259.1z M227.4,276.8c30.3,10.4,37.1,11,37.1,11V177.7c0-18.6-14.9-33.8-33.8-33.8H89
	c-18.2,0-33.8,15.2-33.8,33.8v144.7c0,18.6,14.9,33.8,33.8,33.8h141.7c18.2,0,33.8-15.2,33.8-33.8v-1.4c0,0-53.9-22.8-81.7-36.6
	c-18.2,22.8-41.9,37.2-66.8,37.2c-41.9,0-56-37.2-35.8-61.4c4.1-5.5,11.4-10.4,23-13.1c17.6-4.1,45.8,2.8,72.2,11.8
	c4.7-9,8.7-18.6,11.4-28.9h-81.7v-8.3H147v-16.5H95.8v-8.3H147v-21.4c0,0,0-3.5,3.3-3.5h20.3v25.5h50.6v7.6h-50.6v15.2h41.2
	c-4.1,16.5-10.1,31.7-17.6,44.8C207.8,270,219.3,274.1,227.4,276.8L227.4,276.8z M360.8,194l-6.1-0.1c-2.7,0-4.1,2.8-4.1,2.8
	l-45.2,95.8h15.5l12.2-26.1h36.5l12.2,26.1h23.6L360.8,194z M337.2,257.4l14.2-31l14.1,31H337.2z M435.5,293.3h-21.6v-93.7
	c0-2.8,1.4-4.1,4.7-4.1h16.8V293.3z M475.9,292.7h-21.6v-71c0-2.8,1.4-4.1,4.7-4.1h16.8V292.7L475.9,292.7z M564.4,240.3
	c-1.3-4.1-3.3-7.6-6-11c-2.7-3.5-5.4-5.5-9.5-7.6c-3.5-2.2-7.6-2.8-12.2-2.8c-4.6,0-8.1,0.6-11.4,2c-3.3,0.8-6,2.8-8.7,4.9V219
	h-14.1c-4.7,0-8.1,0-7.4,8.8v90.3h21.6v-24.8c1.9,0.8,4,1.4,6,1.4h7.4c5.4,0,10.1-0.8,14.9-2.8c4.6-2,8.1-5.5,11.4-9
	c3.3-3.5,5.4-8.2,7.4-13.1c2-4.7,2.7-10.4,2.7-16.5C566.4,248.7,565.8,244.4,564.4,240.3z M541.6,269.3c-0.6,3.5-2,5.5-2.7,8.3
	c-0.8,2.7-2.7,4.1-4.1,5.5c-2,1.4-3.3,2-5.4,2c-2,0-4,0.1-5.4-0.6c-1.4-0.8-2.7-1.4-4.1-2.8c-1.3-1.3-2-2.7-2.7-4.1
	c-0.6-1.4-0.6-2.8-0.6-4.9l0.1-33.8c0.6-1.4,1.3-2,2.7-3.5c1.3-0.8,1.9-2.2,3.3-2.8c0.6-0.6,1.9-1.4,3.3-2c1.4-0.6,2.7-0.6,4.1-0.6
	c2,0,4,0.6,5.4,2c1.4,1.4,2.7,3.5,4.1,5.5c1.3,2.8,2,5.5,2.7,9c0.6,3.5,0.6,7.6,0.6,12.4C543,263,542.3,265.8,541.6,269.3z
	 M636,230.6c-1.3-2-2.7-4.1-5.4-6.1c-2.7-2-6.1-3.5-9.5-4.1c-4-0.8-8.1-1.4-13.5-1.4c-16.2,0-28.4,9-26.4,8l4.7,7.6
	c10.1-9,21.6-9,21.6-9c1.4,0,2.7,0,4.1,0.6c0.6,0,2,1.4,2.7,2l2,4.1c0.6,2,0.6,4.1,0.6,6.1v7.6l-2.7,0.6c-2.7,0.8-6,2.2-8.7,2.8
	c-3.3,1.4-6,2-8.7,3.5c-3.3,1.3-5.4,2.7-8.1,4.1c-1.9,1.4-4.6,2.8-6,4.9c-1.4,2-3.5,4.1-4.1,6.1c-0.8,2-1.4,4.9-1.4,7.6
	c0,2.7,0.8,5.5,1.4,7.6c0.8,2.7,2,4.7,4.1,6.1c2,2,4.1,3.5,6.8,4.1c2.7,0.8,5.4,1.4,8.7,1.4c1.9,0,4,0,6-0.6c2,0,3.3-0.8,4.7-1.4
	l4.1-2c0.6-0.8,1.9-1.4,3.3-2.8v5.5H638v-54.5C638,236.1,637.4,233.4,636,230.6z M615.7,277.6l-6,4.1c-2,0.8-3.3,1.4-5.4,1.4
	c-1.3,0-2,0-2.7-0.6c-0.6-0.6-1.4-0.6-2-2c-0.8-1.4-0.8-2-1.4-3.5c-0.6-1.3-0.6-2.7-0.6-4.1s0-3.5,1.4-4.9c0.8-2,2-3.5,4.1-4.9
	l6-4.1c1.9-1.4,4-2.8,6-3.5h0.6V277.6z M667.4,317.6h-14.1l-0.6-13.1c0,0,17.6,0.6,23-6.1c2-2.8,3.3-10.4,3.3-10.4l-35.1-68.9h23.6
	l22.2,44.8l19.5-44.8h15.5L689,300.4C687.7,303,682.3,317.6,667.4,317.6L667.4,317.6L667.4,317.6z M465.2,187.5
	c5.9,0,10.8,4.4,10.8,9.8c0,5.4-4.9,9.8-10.8,9.8c-5.9,0-10.8-4.4-10.8-9.8C454.5,191.9,459.3,187.5,465.2,187.5z"/>
</svg>
