<?xml version="1.0" encoding="utf-8"?>
<!-- Generator: Adobe Illustrator 23.1.0, SVG Export Plug-In . SVG Version: 6.00 Build 0)  -->
<svg version="1.1" id="Layer_1" xmlns="http://www.w3.org/2000/svg" xmlns:xlink="http://www.w3.org/1999/xlink" x="0px" y="0px"
	 viewBox="0 0 780 500" style="enable-background:new 0 0 780 500;" xml:space="preserve">
<style type="text/css">
	.st0{fill:#393939;}
</style>
<path class="st0" d="M170.2,285.9c-7.1-2.1-21.6-8.8-21.6-8.8l-0.1-155.9c0,0-0.8-17.4,18.5-35.4c19.2-18,40.2-16.9,40.2-16.9h90.4
	l-0.2,299.8c0,0,1.4,22.3-15.2,40.6c-18.4,21.2-44.6,20.1-44.6,20.1h-88.9V303l33.1,5.8c0,0,12.7,1.3,25.4,1.5
	c11.1,0.2,21.4-0.7,28.2-1.8c13.1-2,19.8-3.8,32.2-11.1c18.4-13.4,17.6-34,17.6-34l-0.5-72.1l-51.5,0.3v70.9c0,0,0.5,13.3-10.1,21.5
	c-4.6,3.6-11.4,6.9-23.9,6.9C190.1,290.8,178.1,288.2,170.2,285.9L170.2,285.9z M316.7,210v-79.4c0,0-0.9-23.2,16.3-41
	C350.2,71.7,372.5,71,372.5,71h93.1v301.3c0,0,1.1,22.1-17,40.5c-18,18.3-38,18.4-38,18.4h-94V292.8c0,0,12.4,13.1,47.7,18.1
	c16.6,2.3,36.2,2,52.3,0c18.2-2.2,32-6.3,32-6.3l-0.4-25.1c0,0-6.5,4-26.5,10c-20,6.1-69.9,8.8-71.2-36.4
	c-1.4-45.2,41.1-45.6,60.2-43.2c19.1,2.4,38,12.7,38,12.7v-24.5c0,0-24.1-5.4-34.3-6.6c-12.6-1.4-30.5-2.9-57.8,1.1
	C329.3,196.7,316.7,209.9,316.7,210L316.7,210L316.7,210z M482.7,307.1v122.2h93.5c0,0,21.5-2,34-14.4
	c20.4-15.6,21.3-40.6,21.3-40.6V68.9h-89.1c0,0-23.8-0.7-42.1,17.7c-18.3,18.5-17.5,40-17.5,40v64.9h90.7c0,0,8.3,0.1,16.6,3.4
	c6.5,2.6,12.9,7.2,15.6,14.4c6.2,16.1-3.2,27.6-7.9,30.8c-6.3,5.4-17.5,7.1-17.5,7.1s16.2,1.6,25.4,10c3,2.7,6.5,7.2,7.9,11.7
	c1.9,6,1.1,11.8,1.1,11.8s-1.1,10.2-9.7,17.1c-3.7,3-8.6,5.7-13.6,7.1c-6.8,2-13.3,2.2-13.3,2.2L482.7,307.1L482.7,307.1
	L482.7,307.1z M512.5,210.8v29.4h32.2c0,0,15.1,0,15.1-14.7s-15.1-14.7-15.1-14.7L512.5,210.8L512.5,210.8z M547,257.4h-34.4V289
	H547c0.1,0,17,1,17-15.8C563.9,256.5,547,257.4,547,257.4z"/>
</svg>
