<?xml version="1.0" encoding="utf-8"?>
<!-- Generator: Adobe Illustrator 23.1.0, SVG Export Plug-In . SVG Version: 6.00 Build 0)  -->
<svg version="1.1" id="Layer_1" xmlns="http://www.w3.org/2000/svg" xmlns:xlink="http://www.w3.org/1999/xlink" x="0px" y="0px"
	 viewBox="0 0 780 500" style="enable-background:new 0 0 780 500;" xml:space="preserve">
<style type="text/css">
	.st0{fill:#393939;}
</style>
<path class="st0" d="M509,58.5c-45.1,0-86.6,14.9-119.8,40.1c-33.1-25.1-74.7-40.1-119.7-40.1c-108,0-195.9,86-195.9,191.7
	C73.6,356,161.5,442,269.5,442c45.1,0,86.6-15,119.7-40.1C422.4,427,463.9,442,509,442c108,0,196-86.1,196-191.8
	C704.9,144.5,617,58.5,509,58.5z M508.7,424.6c-39.8,0-76.4-12.7-106.1-34.2c25.3-23.1,44.4-52.6,54.5-85.9h-18.4
	c-9.8,29.1-27.1,54.8-49.8,74.9c-22.7-20.1-40-45.8-49.7-74.9h-18.4c10.1,33.3,29.2,62.8,54.5,85.9c-29.7,21.5-66.3,34.2-106.1,34.2
	c-98.5,0-178.4-78.2-178.4-174.6c0-96.4,79.9-174.6,178.4-174.6c39.8,0,76.4,12.7,106.1,34.3c-26.9,24.5-46.8,56.3-56.3,92.1h18.2
	c9.3-31.7,27.5-59.7,51.7-81.2c24.3,21.5,42.5,49.5,51.8,81.2h18.2c-9.5-35.8-29.4-67.6-56.3-92.1c29.6-21.5,66.3-34.2,106.1-34.3
	c98.5,0,178.4,78.2,178.4,174.6C687.1,346.4,607.2,424.6,508.7,424.6z M331.5,224.1h9.4l-2.5,16.5h-9.4c-2.1,13-5.1,29.2-5.2,31.4
	c0,3.5,1.9,5.1,6.3,5.1c2.1,0,3.7-0.2,4.9-0.6l-2.4,15.2c-5.1,1.5-9,2.2-13.2,2.2c-9.4,0-14.5-5.3-14.5-15c-0.1-3,1.4-11,2.5-18.3
	c1-6.4,8-46.6,8-46.6h18.3L331.5,224.1z M286.7,222.2c4.2,0,11.4,0.6,16.2,1.3l-2.6,15.9c-4.7-0.7-9.6-1-13.2-1c-6,0-9,1.9-9,5.6
	c0,3.2,0.9,4,8.6,7.4c9.2,4.2,13,9.6,13,19.1c0,15.6-9,22.9-28.4,22.9c-11.2-0.3-15-1.1-19.2-2c0.1-0.7,2.5-15.8,2.5-15.8
	c5.9,1.9,11,2.7,16.5,2.7c7.3,0,10.6-1.9,10.6-6.2c0-3.1-1.2-4.1-8.6-7.6c-9.7-4.5-14-10.4-14-19.1
	C259,232.7,266.1,222.2,286.7,222.2z M197.1,208.1l-14.2,84.1h-18.4l10.5-64.7l-23.5,64.7h-12.6l-1.5-64.3l-11.1,64.3h-17.2
	l14.4-84.1h26.5l0.7,52.1l17.9-52.1H197.1z M227.3,222.2c-6.8,0-12.9,1-22,3.6c0,0-2.4,14.2-2.6,15.4c3-1,10.5-3.2,19.5-3.1
	c8.6,0,11.8,1.7,11.8,6.2c0,1.2-0.1,2.2-0.7,4.5c-2.7-0.3-5.4-0.5-7.5-0.5c-20.4,0-32.3,9.7-32.3,26.4c0,11,6.8,18.7,16.8,18.7
	c8.4,0,14.6-2.7,19.3-8.3l-0.4,7.1h15.3h0v0c0.5-5.2,3.9-26.4,5.5-36.3c0.9-5.7,1.5-10.1,1.5-13.6
	C251.5,229.2,243.1,222.2,227.3,222.2z M218.3,279.1c-4,0-6.6-2.7-6.6-7c0-6.9,5.3-10.4,15.7-10.4c1.3,0,2.2,0.1,4.1,0.3
	C231.2,272.1,225.8,279.1,218.3,279.1z M534.4,222.2c-6.8,0-12.8,1-22,3.6c0,0-2.4,14.2-2.5,15.4c3.1-1,10.5-3.2,19.5-3.1
	c8.6,0,11.8,1.7,11.8,6.2c0,1.2-0.1,2.2-0.7,4.5c-2.7-0.3-5.4-0.5-7.5-0.5c-20.4,0-32.3,9.7-32.3,26.4c0,11,6.8,18.7,16.8,18.7
	c8.4,0,14.6-2.7,19.3-8.3l-0.4,7.1h15.2h0v0c0.5-5.2,3.9-26.4,5.5-36.3c0.9-5.7,1.5-10.1,1.5-13.6
	C558.6,229.2,550.2,222.2,534.4,222.2z M525.4,279.1c-4,0-6.6-2.7-6.6-7c0-6.9,5.3-10.4,15.7-10.4c1.3,0,2.2,0.1,4.1,0.3
	C538.3,272.1,532.9,279.1,525.4,279.1z M604.9,223.5c-2.3,3.8-5.4,11.3-7,19.9c-10.3-1-11.9,7.1-18.5,49H561l0.8-4.6
	c3.2-21.2,7.3-42.7,9.6-63.8l0,0h16.9c0.2,3.5-0.6,6.9-1.1,10.4C592.9,226.2,597.2,221.9,604.9,223.5z M373.3,222.2
	c-18.4,0-32,17.2-32,40.6c0,20,10.7,30.5,31.2,30.5c6.4,0,12.5-0.9,18.8-2.8v0l3-17c-6.6,3-12.5,4.3-19,4.3
	c-10.6,0-17.1-4.1-15.9-14h36.4c1.6-6.9,2.3-11.8,2.3-16.8C398,231.8,388.4,222.2,373.3,222.2z M381.6,250.5h-20.2
	c1.7-7.9,5.9-12.2,11.7-12.2C383.6,238.2,381.8,249.1,381.6,250.5z M651,208.1l-4.1,24.3c-5-6.5-10.5-9.3-17.6-9.3
	c-16.2,0-29.9,19.2-29.9,42c0,17.1,8.8,28.4,22.2,28.4c6.7,0,11.9-2.3,17-7.6l-0.9,6.4h17.4h0l14-84.1H651z M628,276.6
	c-6.3,0-9.4-4.5-9.4-13.5c0-13.5,5.9-23,14.3-23c6.3,0,9.8,4.7,9.8,13.4C642.7,267.1,636.6,276.6,628,276.6z M480,276.3
	c4.5,0,9.5-1.4,15.6-4.3l-3.2,19.2c-6.8,1.8-11.2,2.5-16.2,2.5c-19.8,0-32.1-14-32.1-36.3c0-30.1,17.1-51.1,41.4-51.1
	c8,0,17.5,3.3,20.2,4.4l-3,18.3c-6.6-3.3-11.3-4.6-16.4-4.6c-13.7,0-23.3,13-23.3,31.5C462.8,268.6,469.3,276.3,480,276.3z
	 M443.7,223.5c-2.3,3.8-5.3,11.3-7,19.9c-10.3-1-11.9,7.1-18.5,49h-18.4l0.8-4.6c3.2-21.2,7.3-42.7,9.6-63.8l0,0h16.9
	c0.2,3.5-0.6,6.9-1.1,10.4C431.7,226.2,436,221.9,443.7,223.5z"/>
</svg>
