<?xml version="1.0" encoding="utf-8"?>
<!-- Generator: Adobe Illustrator 23.1.0, SVG Export Plug-In . SVG Version: 6.00 Build 0)  -->
<svg version="1.1" id="Layer_1" xmlns="http://www.w3.org/2000/svg" xmlns:xlink="http://www.w3.org/1999/xlink" x="0px" y="0px"
	 viewBox="0 0 780 500" style="enable-background:new 0 0 780 500;" xml:space="preserve">
<style type="text/css">
	.st0{fill:#393939;}
	.st1{opacity:0.28;fill:#393939;}
	.st2{opacity:0.4;fill:#393939;}
	.st3{opacity:0.2;fill:#393939;}
</style>
<g>
	<path class="st0" d="M525.6,305H545l-2.8,9.1h-19.7l-2.9,9.9h17.2v0l-13,18.5c-0.8,1.4-1.7,1.8-2.6,2.2c-0.9,0.5-2.2,1-3.5,1h-4.2
		l1.5-5h-4.7l17.4-58h0l-0.1-0.1h5.8l1.5-4.8l0.1,5.6c-0.2,4.1,3,7.7,11.4,7.1h9.7l3.3-11.2h-3.6c-2.2,0-3.1-0.5-3-1.7l-0.2-6.8h-18
		l0.1,0.1c-6.2,0.1-22.9,0.6-26.3,1.5c-4.3,1.2-8.8,4.4-8.8,4.4l1.8-6h-16.9l-3.5,11.9l-17.6,58.9h-3.4l-3.3,11.1h33.5l-1.1,3.7
		h16.6l1.1-3.7h4.1l-1.2,3.9H522c6.5,0,10.3-3,13.1-6.9l8.9-12.3l1.9,12.5c0.4,2.4,2.1,3.8,3.2,4.3c1.2,0.6,2.5,1.7,4.3,1.9
		c2,0,3.4,0.1,4.3,0.1h6.1l3.7-12.2h-2.4c-1.3,0-3.7-0.2-4.1-0.6c-0.4-0.5-0.4-1.4-0.6-2.6l-2-12.5h-8l3.5-4.2h19.6l3-9.9h-18.1
		l2.8-9.1h18.1l3.3-11.2h-53.8L525.6,305z M494,340.8h-13.5l3.9-13.1h13.3L494,340.8z M501.4,315.7c0,0-4.1,0.5-6.9,1.2
		c-2.8,0.8-7.9,3.4-7.9,3.4l4.6-15.4h13.4L501.4,315.7z M501.3,294.5c-2.8,0.7-7.8,3-7.8,3l4.4-14.8v0l0.1,0.1h13.3l-3.2,10.8
		C508.2,293.6,504.1,293.8,501.3,294.5z"/>
	<path class="st0" d="M365,270.8l-4.7,8.6c-0.9,1.9-1.9,3-2.7,3.6c-0.7,0.4-2.2,0.6-4.2,0.6h-2.5l-3.3,11h8.2c3.9,0,6.9-1.5,8.4-2.2
		c1.6-0.8,1.9-0.4,3.1-1.6l2.8-2.4h25.5l3.4-11.4h-18.6l3.2-6.2H365z"/>
	<path class="st0" d="M362.3,343.5l4.6-15.2h18.5l3.4-11.3h-18.6l2.8-9.3H391l3.3-11h-45.4v0l0.2,0.1l-3.3,11h10.3l-2.8,9.3H343
		l-3.4,11.5h10.3l-6,20.1c-0.8,2.7,0.4,3.7,1.1,4.9c0.7,1.1,1.6,2,3.3,2.4c1.9,0.4,3.1,0.6,4.8,0.6h20.9l3.7-12.5l-9.3,1.3
		C366.7,345.4,361.7,345.2,362.3,343.5z"/>
	<path class="st0" d="M439.7,270.9c0,0-7.9,1.3-11.4,2.5c-3.5,1.5-8.5,5.5-8.5,5.5l2.3-8h-15.8L384,345.3c-0.8,2.9-1.3,5-1.5,6.3
		c-0.1,1.4,1.7,2.7,2.8,3.8c1.3,1,3.3,0.8,5.2,1c2,0.1,4.8,0.2,8.7,0.2h12.2l3.7-12.7l-10.9,1c-1.1,0-2.1-0.6-2.4-1.2
		c-0.4-0.6-0.1-1.8,0.5-4.1l6.9-23.3h24.7c3.5,0,6.2-0.1,7.9-0.2c1.9-0.1,3.8-0.8,6-2c2.3-1.3,3.4-2.6,4.3-4.1
		c1-1.6,2.8-4.8,4.2-9.8l8.8-29.5L439.7,270.9z M438.5,305.8c-0.2,0.2-0.7-0.2-3.4,0.1h-22.6l1.6-5.3h26h0.1L438.5,305.8z
		 M443.5,289.4c0,0-12.4-0.2-14.4,0.2c-8.3,1.4-13.3,5.7-13.7,6.1l3.8-12.6h26.2L443.5,289.4z"/>
	<path class="st0" d="M253.4,162.2c-14.7,0.1-18.9,0-20.4-0.3v-0.1c-0.5,2.5-10.5,48.6-10.5,48.6c-2.2,9.3-3.7,16-8.9,20.3
		c-3,2.5-6.5,3.7-10.6,3.7c-6.5,0-10.2-3.2-10.9-9.4l-0.1-2.1c0,0,2-12.4,2-12.5c0,0,10.3-42,12.2-47.5c0.1-0.3,0.1-0.5,0.1-0.6
		c-20.2,0.2-23.8,0-24-0.3c-0.1,0.4-0.6,3-0.6,3l-10.6,47.3l-0.9,4l-1.8,13.2c0,3.9,0.7,7.1,2.3,9.7c4.9,8.6,18.6,9.8,26.4,9.8
		c10,0,19.5-2.2,25.8-6.1c11.1-6.6,14-16.9,16.5-26l1.2-4.7c0,0,10.7-43.6,12.5-49.2C253.3,162.5,253.3,162.3,253.4,162.2z"/>
	<path class="st0" d="M289.5,197.3c-2.6,0-7.2,0.6-11.5,2.7c-1.6,0.7-3,1.7-4.6,2.6l1.3-5l-0.7-0.8c-9,1.8-11,2.1-19.2,3.2l-0.7,0.4
		c-0.9,8-1.9,14.1-5.4,29.9c-1.3,5.9-2.7,11.7-4.1,17.6l0.4,0.7c8.5-0.4,11.1-0.4,18.4-0.3l0.6-0.6c0.9-4.8,1-6,3.1-15.8
		c1-4.6,3-14.8,4-18.5c1.9-0.8,3.6-1.7,5.4-1.7c4.1,0,3.7,3.7,3.5,5.1c-0.2,2.4-1.7,10.5-3.2,17.2l-1,4.4c-0.6,3.2-1.4,6.4-2.2,9.6
		l0.3,0.6c8.4-0.4,11-0.4,18.1-0.3l-0.1-0.1l0.8-0.6c1.2-7.5,1.7-9.5,3.9-20.6l1.1-5c2.3-9.9,3.3-14.9,1.7-19
		C297.8,198.5,293.4,197.3,289.5,197.3z"/>
	<path class="st0" d="M438.9,323c-0.2,0.7-0.5,1.3-1,1.6c-0.5,0.3-1.4,0.4-2.7,0.4h-3.7l0.2-6.4h-15.4l-0.6,31.1
		c0,2.3,0.2,3.6,1.9,4.6c1.6,1.3,6.6,1.5,13.4,1.5h9.6l3.5-11.7l-8.4,0.4l-2.8,0.2c-0.4-0.2-0.7-0.3-1.1-0.7
		c-0.3-0.4-0.9-0.2-0.8-2.4l0.1-7.9l8.8-0.4c4.8,0,6.7-1.6,8.5-3c1.7-1.5,2.2-3.1,2.8-5.3l1.4-6.9h-12L438.9,323z"/>
	<path class="st0" d="M355.2,249.6c8.2,0,16.6-2.3,22.9-9c4.9-5.4,7-13.6,7.9-17h-0.1c2.5-11.1,0.5-16.3-1.9-19.4
		c-3.7-4.8-10.3-6.4-17.2-6.4c-4.1,0-13.9,0.4-21.5,7.5c-5.5,5.1-8.1,12.1-9.5,18.8c-1.6,6.8-3.3,19,7.9,23.6
		C347,249.2,352,249.6,355.2,249.6z M354.5,224.5c1.9-8.5,4.1-15.5,9.8-15.5c4.5,0,4.8,5.2,2.8,13.7v0c-0.3,1.9-2,8.9-4.1,11.8
		c-1.6,2.2-3.3,3.6-5.4,3.6c-0.6,0-4.1,0-4.2-5.3C353.3,230.2,353.8,227.5,354.5,224.5z"/>
	<polygon class="st0" points="452.4,317.8 452.4,317.8 452.4,318 452.5,318 	"/>
	<path class="st0" d="M330.5,207.8c-4.5,0.8-7.3,1.4-10.1,1.8c-2.8,0.4-5.5,0.8-9.8,1.5l-0.3,0.3l-0.3,0.2c-0.4,3.2-0.7,6.1-1.3,9.3
		c-0.5,3.4-1.3,7.3-2.6,12.9c-1,4.3-1.6,5.7-2.1,7.2c-0.6,1.5-1.1,2.9-2.3,7.1l0.2,0.4l0.2,0.3c4-0.1,6.6-0.3,9.3-0.3
		c2.7-0.1,5.5,0,9.8,0v0l0.2,0.1l0.4-0.3l0.4-0.3c0.6-3.8,0.7-4.7,1.1-6.6c0.3-2,1-4.7,2.6-12c0.7-3.4,1.6-6.9,2.4-10.3l2.5-10.3
		l-0.1-0.4L330.5,207.8z"/>
	<path class="st0" d="M631.9,197.6L631.9,197.6l-0.7-0.8c-8.8,1.8-10.5,2.1-18.5,3.2l-0.6,0.6c0,0.1-0.1,0.2-0.1,0.4V201
		c-6,14.1-5.9,11.1-10.8,22.2c0-0.5,0-0.8-0.1-1.4l-1.2-24l-0.7-0.8c-9.3,1.8-9.5,2.1-18,3.2l-0.6,0.6c-0.1,0.3-0.1,0.6-0.1,0.9
		l0.1,0.1c1,5.5,0.8,4.3,1.9,13c0.5,4.3,1.1,8.6,1.7,12.7c0.8,7.1,1.3,10.6,2.4,21.3c-5.8,9.6-7.1,13.3-12.7,21.7l0.1,0.2h-0.5
		l-4.1,6.6c-0.5,0.6-0.8,1-1.4,1.3c-0.6,0.3-1.4,0.4-2.6,0.4h-2.2l-3.2,10.9l11.1,0.2c6.4,0,10.6-3.1,12.7-7.2l6.8-11.8
		c0,0,0.1,0,0.1,0l1.3-1.6c4.7-10.1,40.3-71.8,40.3-71.8L631.9,197.6z"/>
	<path class="st0" d="M514.7,225.5c-1.6,6.7-3.3,19,7.8,23.3c3.5,1.6,6.7,2,9.9,1.8c3.2-0.2,6.1-1.7,8.8-3.9
		c-0.2,0.9-0.5,1.8-0.7,2.6l0.5,0.6c8-0.4,10.5-0.4,19.1-0.3h0v0.1l0.8-0.6c1.2-7.5,2.4-14.8,5.7-29.2c1.7-6.8,3.2-13.6,4.9-20.5
		l-0.2-0.7c-9,1.7-11.4,2-20,3.2l-0.6,0.5c-0.1,0.5-0.1,0.9-0.2,1.4c-1.3-1.9-3.2-3.6-5.9-4.6c-3.8-1.6-12.8,0.4-20.5,7.5
		C518.9,211.8,516.2,218.8,514.7,225.5z M533.5,225.9c1.9-8.3,4.1-15.3,9.8-15.3c3,0,4.9,2.4,5.2,6.5c-0.4,2.1-0.9,4.4-1.6,7.2
		c-0.8,3.3-1.6,6.7-2.4,10c-0.3,0.6-0.6,1.2-1,1.6c-1.4,2.1-5,3.4-6.9,3.4c-0.6,0-4,0-4.2-5.2C532.3,231.6,532.8,228.9,533.5,225.9z
		"/>
	<path class="st0" d="M468,248.8c0.5-2.6,3.6-18,3.7-18c0,0,2.7-11.3,2.8-11.7c0,0,0.8-1.2,1.7-1.7h1.2c11.7,0,24.8,0,35.2-7.6
		c7-5.2,11.8-13.1,14-22.5c0.5-2.3,0.9-5,0.9-7.8c0-3.7-0.7-7.2-2.8-10c-5.3-7.4-15.7-7.5-27.8-7.6l0,0l-6,0.1
		c-15.5,0.2-21.7,0.1-24.2-0.2c-0.2,1.1-0.6,3.1-0.6,3.1s-5.6,25.9-5.6,26c0,0-13.2,55.2-13.9,57.8
		C460.1,248.5,465.6,248.5,468,248.8z M478.3,202.9c0,0,5.9-25.9,5.9-25.8l0.2-1.4l0.1-1l2.4,0.2c0,0,12.2,1,12.4,1
		c4.8,1.9,6.8,6.7,5.4,13.1c-1.2,5.7-5,10.7-9.7,13c-3.9,2-8.7,2.2-13.7,2.2h-3.2L478.3,202.9z"/>
	<path class="st0" d="M330.5,194.2c-4-2.4-11.2-1.7-15.9,1.7c-4.8,3.2-5.3,7.8-1.2,10.3c3.9,2.3,11.1,1.7,15.8-1.7
		S334.5,196.6,330.5,194.2z"/>
	<path class="st0" d="M406.4,248.3l0.6-0.6c0.9-4.8,1.1-6,3.1-15.8c1-4.6,3.1-14.8,4-18.5c1.8-0.8,3.6-1.7,5.4-1.7
		c4,0,3.6,3.7,3.4,5.1c-0.1,2.4-1.7,10.5-3.2,17.2l-0.9,4.4c-0.7,3.2-1.5,6.4-2.3,9.6l0.3,0.6c8.4-0.4,10.9-0.4,18-0.3l-0.1-0.1
		l0.8-0.6c1.2-7.5,1.6-9.5,3.9-20.6l1.1-5c2.3-9.9,3.4-14.9,1.8-19c-1.9-4.6-6.1-5.7-10-5.7c-2.6,0-7.2,0.6-11.5,2.7
		c-1.4,0.7-3,1.7-4.4,2.6l1.2-5l-0.7-0.8c-8.9,1.8-11,2.1-19.2,3.2l-0.6,0.4c-1,8-1.9,14.1-5.4,29.9c-1.3,5.9-2.7,11.7-4.1,17.6
		l0.4,0.7C396.5,248.2,399.1,248.2,406.4,248.3z"/>
</g>
<path class="st1" d="M504.4,69.8h142.4c19.9,0,32.3,16.4,27.6,36.5l-66.3,287.5c-4.7,20.1-24.6,36.5-44.5,36.5H421.2
	c-20,0-32.3-16.4-27.6-36.5l66.3-287.5c4.7-20.2,24.5-36.5,44.4-36.5L504.4,69.8L504.4,69.8z"/>
<path class="st2" d="M388,428.7c-8.1-10.2-10.9-24.1-7.6-38.1l2.6-11.3h13.9l54.3-235.5h-13.9l0.5-2.4l8.8-38.3
	c3-13.1,10.8-24.8,21.1-33.3H346.5c-20,0-39.8,16.3-44.5,36.5l-66.3,287.5c-4.8,20.1,7.6,36.5,27.5,36.5h126.2
	C388.9,429.7,388.5,429.2,388,428.7z"/>
<path class="st3" d="M230.6,428.7c-8.1-10.2-10.9-24.1-7.6-38.1l2.6-11.3l7.9-34.3h13.4l46.4-201.2h-13.9l0.5-2.4l8.8-38.3
	c3-13.1,10.8-24.8,21.1-33.3h-93.4h0h-0.1c-19.9,0-39.7,16.3-44.4,36.5l-66.3,287.5c-4.7,20.1,7.8,36.5,27.6,36.5h98.7
	C231.4,429.7,231,429.2,230.6,428.7z"/>
</svg>
