<?xml version="1.0" encoding="utf-8"?>
<!-- Generator: Adobe Illustrator 23.1.0, SVG Export Plug-In . SVG Version: 6.00 Build 0)  -->
<svg version="1.1" id="Layer_1" xmlns="http://www.w3.org/2000/svg" xmlns:xlink="http://www.w3.org/1999/xlink" x="0px" y="0px"
	 viewBox="0 0 780 500" style="enable-background:new 0 0 780 500;" xml:space="preserve">
<style type="text/css">
	.st0{fill:#FFFFFF;}
</style>
<path class="st0" d="M575.6,145.1l-15.1,35h30.3L575.6,145.1z M401.5,166.8c2.8-1.4,4.5-4.5,4.5-8.4c0-3.8-1.8-6.5-4.6-7.8
	c-2.6-1.4-6.6-1.6-10.4-1.6h-27v19.5h26.6C394.9,168.6,398.4,168.6,401.5,166.8z M55.5,145.1l-14.9,35h29.9L55.5,145.1z
	 M750.2,369.6h-42.3v-18.9H750c4.2,0,7.1-0.5,8.9-2.2c1.7-1.5,2.6-3.6,2.6-5.7c0-2.6-1.1-4.6-2.7-5.8c-1.6-1.3-3.9-2-7.7-2
	c-20.6-0.7-46.3,0.6-46.3-27.2c0-12.8,8.5-26.2,31.5-26.2H780v-17.5h-40.6c-12.2,0-21.1,2.8-27.4,7.2v-7.2h-60
	c-9.6,0-20.9,2.3-26.2,7.2v-7.2H518.5v7.2c-8.5-5.9-22.9-7.2-29.6-7.2h-70.7v7.2c-6.7-6.3-21.8-7.2-30.9-7.2h-79.1L290.1,283
	l-17-18.8H155v122.7h116l18.7-19.1l17.6,19.1l71.5,0.1v-28.9h7c9.5,0.1,20.7-0.2,30.5-4.3v33.1h59v-32h2.8c3.6,0,4,0.1,4,3.6v28.3
	h179.1c11.4,0,23.3-2.8,29.8-7.9v7.9h56.8c11.8,0,23.4-1.6,32.2-5.7v-22.9C774.6,365.8,764.2,369.6,750.2,369.6L750.2,369.6z
	 M386.6,340.6h-27.4v29.5h-42.6l-27-29.1l-28.1,29.1h-86.9v-87.9h88.2l27,28.8l27.9-28.8h70.1c17.4,0,37,4.6,37,29
	S405.8,340.6,386.6,340.6L386.6,340.6z M518.2,336.6c3.1,4.3,3.5,8.3,3.6,16V370h-22v-11c0-5.3,0.5-13.1-3.5-17.2
	c-3.2-3.1-8.1-3.9-16.1-3.9h-23.4V370h-22v-87.9h50.6c11.1,0,19.2,0.5,26.4,4.1c6.9,4,11.3,9.5,11.3,19.5c0,14-9.8,21.2-15.5,23.4
	C512.3,331,516.3,334.1,518.2,336.6L518.2,336.6z M608.7,300.4h-51.3v16h50.1v17.9h-50.1v17.5l51.3,0.1v18.2h-73.2v-87.9h73.2V300.4
	z M665.1,370.1h-42.7v-18.9h42.5c4.2,0,7.1-0.5,9-2.2c1.5-1.4,2.6-3.3,2.6-5.7c0-2.6-1.2-4.6-2.7-5.8c-1.7-1.3-4-1.9-7.8-1.9
	c-20.5-0.7-46.2,0.6-46.2-27.2c0-12.8,8.4-26.2,31.3-26.2h44v18.7h-40.2c-4,0-6.6,0.1-8.8,1.6c-2.4,1.4-3.3,3.5-3.3,6.3
	c0,3.3,2,5.6,4.8,6.5c2.3,0.8,4.8,1,8.5,1l11.8,0.3c11.9,0.3,20.1,2.3,25,7.1c4.3,4.2,6.6,9.6,6.6,18.6
	C699.5,361.3,687.2,370.1,665.1,370.1L665.1,370.1z M495,301.8c-2.6-1.5-6.6-1.6-10.5-1.6h-27v19.7h26.6c4.3,0,7.9-0.1,10.8-1.8
	c2.8-1.6,4.5-4.7,4.5-8.4S497.9,303.2,495,301.8L495,301.8z M740,300.2c-4,0-6.6,0.1-8.9,1.6c-2.3,1.4-3.2,3.5-3.2,6.3
	c0,3.3,2,5.6,4.8,6.5c2.3,0.8,4.8,1,8.4,1l11.9,0.3c12,0.3,20,2.3,24.9,7.1c0.9,0.7,1.4,1.4,2,2.2v-25H740L740,300.2z M387.4,300.2
	h-28.6v22.4h28.3c8.4,0,13.7-4,13.7-11.6C400.8,303.3,395.3,300.2,387.4,300.2z M196.6,300.2v16h48.1v17.9h-48.1v17.5h53.9l25-25.8
	l-24-25.6H196.6z M337.3,361.7v-70.5l-33.7,34.7L337.3,361.7L337.3,361.7z M198.4,220.5v15.1h183.2l-0.1-32h3.5
	c2.5,0.1,3.2,0.3,3.2,4.2v27.8H483v-7.5c7.6,3.9,19.5,7.5,35.2,7.5H558l8.5-19.5h18.9l8.3,19.5h76.8v-18.5l11.6,18.5h61.6V113.1
	h-60.9v14.5l-8.5-14.5h-62.5v14.5l-7.8-14.5h-84.4c-14.1,0-26.6,1.9-36.6,7.2v-7.2h-58.3v7.2c-6.4-5.4-15.1-7.2-24.8-7.2H187.1
	l-14.3,31.7l-14.7-31.7h-67v14.5l-7.4-14.5H26.6L0,171.4V218l39.3-87.9h32.6l37.3,83.2v-83.2H145l28.7,59.6l26.4-59.6h36.5V218H214
	l-0.1-68.8L182.1,218h-19.3L131,149.1V218H86.4L78,198.4H32.3L23.8,218H0v17.7h37.5l8.4-19.5h18.9l8.4,19.5H147v-14.9l6.6,15h38.3
	L198.4,220.5L198.4,220.5z M487.1,140.4c7.1-7,18.2-10.3,33.3-10.3h21.2v18.8h-20.8c-8,0-12.5,1.1-16.9,5.2
	c-3.7,3.7-6.3,10.7-6.3,19.9c0,9.4,2,16.2,6,20.6c3.4,3.5,9.5,4.5,15.3,4.5h9.9l30.9-69.1h32.9l37.1,83.1V130h33.4l38.5,61.2V130
	h22.5v88H693l-41.6-66v66h-44.7l-8.5-19.6h-45.5l-8.3,19.6h-25.7c-10.7,0-24.2-2.3-31.8-9.7c-7.7-7.5-11.7-17.6-11.7-33.6
	C475.2,161.7,477.6,149.8,487.1,140.4L487.1,140.4z M442,130.1h22.4V218H442V130.1z M341.1,130.1h50.4c11.2,0,19.5,0.3,26.6,4.2
	c6.9,3.9,11.1,9.7,11.1,19.5c0,14-9.8,21.3-15.4,23.4c4.8,1.8,8.9,4.8,10.8,7.4c3.1,4.4,3.6,8.3,3.6,16.1V218h-22.1l-0.1-11.1
	c0-5.3,0.5-12.9-3.5-17.1c-3.2-3.1-8.1-3.8-16-3.8H363v32h-21.9V130.1L341.1,130.1z M252.7,130.1H326v18.3h-51.3v15.8h50.1v18h-50.1
	v17.6H326V218h-73.2v-87.9H252.7z"/>
</svg>
