<?xml version="1.0" encoding="utf-8"?>
<!-- Generator: Adobe Illustrator 25.4.1, SVG Export Plug-In . SVG Version: 6.00 Build 0)  -->
<svg version="1.1" id="Layer_1" xmlns="http://www.w3.org/2000/svg" xmlns:xlink="http://www.w3.org/1999/xlink" x="0px" y="0px"
	 viewBox="0 0 780 500" style="enable-background:new 0 0 780 500;" xml:space="preserve">
<style type="text/css">
	.st0{fill:#FFFFFF;}
</style>
<path class="st0" d="M346.9,92.8c-86.5,0-157,70.2-157,157c0,86.5,70.4,157,157,157c86.8,0,157-70.4,157-157
	C503.8,162.9,433.7,92.8,346.9,92.8z M311.2,342.4c-37.2-14.2-63.7-50.4-63.7-92.7c0-42.3,26.5-78.5,63.7-92.9V342.4z M382.5,342.7
	V156.8c37.2,14.5,63.8,50.6,63.8,92.9C446.3,292.1,419.7,328.2,382.5,342.7z M604.3,50H175.7c-23.7,0-42.9,19.2-42.9,42.9v314.3
	c0,23.7,19.2,42.9,42.9,42.9h428.6c23.7,0,42.9-19.2,42.9-42.9V92.9C647.1,69.2,627.9,50,604.3,50z M427.2,421.4h-80.6
	c-94.8,0-173-76.3-173-169.8c0-102.3,78.2-173,173-173h80.6c93.8,0,179.2,70.7,179.2,173C606.4,345.1,521,421.4,427.2,421.4z"/>
</svg>
