<?xml version="1.0" encoding="utf-8"?>
<!-- Generator: Adobe Illustrator 25.4.1, SVG Export Plug-In . SVG Version: 6.00 Build 0)  -->
<svg version="1.1" id="Layer_1" xmlns="http://www.w3.org/2000/svg" xmlns:xlink="http://www.w3.org/1999/xlink" x="0px" y="0px"
	 viewBox="0 0 780 500" style="enable-background:new 0 0 780 500;" xml:space="preserve">
<style type="text/css">
	.st0{fill:#FFFFFF;}
</style>
<path class="st0" d="M409.4,197.3c30.9,0,56,23.6,56,52.7v0c0,29.1-25.1,52.7-56,52.7c-30.9,0-56-23.6-56-52.7v0
	C353.4,220.8,378.5,197.3,409.4,197.3L409.4,197.3z M321.4,197.9c8.8,0,16.2,1.8,25.3,6.1v22.8c-8.5-7.9-16-11.2-25.8-11.2
	c-19.3,0-34.4,15-34.4,34.1c0,20.1,14.7,34.2,35.4,34.2c9.3,0,16.6-3.1,24.8-10.9v22.8c-9.3,4.1-16.9,5.8-25.8,5.8
	c-31.3,0-55.6-22.6-55.6-51.7C265.4,221,290.3,197.9,321.4,197.9L321.4,197.9z M224.3,198.6c11.5,0,22.1,3.7,30.9,11l-10.7,13.2
	c-5.4-5.6-10.4-8-16.6-8c-8.9,0-15.3,4.7-15.3,11c0,5.4,3.6,8.2,15.9,12.5c23.4,8,30.3,15.2,30.3,30.9c0,19.2-15,32.6-36.3,32.6
	c-15.6,0-27-5.8-36.5-18.9l13.3-12c4.7,8.6,12.6,13.2,22.4,13.2c9.2,0,15.9-6,15.9-14c0-4.2-2.1-7.7-6.2-10.3
	c-2.1-1.2-6.2-3-14.2-5.6c-19.3-6.5-25.9-13.5-25.9-27.2C191.5,210.8,205.7,198.6,224.3,198.6L224.3,198.6z M459,200.3h22.4
	l28.1,66.6l28.4-66.6h22.3L514.8,302h-11.1L459,200.3L459,200.3z M157.8,200.4h20.5v99.1h-20.5V200.4L157.8,200.4z M569.6,200.4
	h58.3v16.8h-37.7v22h36.3V256h-36.3v26.8h37.7v16.8h-58.3V200.4L569.6,200.4z M685.1,257.8c15.5-3,24-12.9,24-28.1
	c0-18.6-13.6-29.3-37.3-29.3h-30.5v99.1h20.5v-39.8h2.7l28.4,39.8h25.3L685.1,257.8L685.1,257.8z M667.9,246.1h-6v-30h6.3
	c12.8,0,19.7,5,19.7,14.7C688,240.7,681,246.1,667.9,246.1L667.9,246.1z M91.8,200.4H61.7v99.1h30c15.9,0,27.5-3.5,37.6-11.4
	c12-9.4,19.1-23.5,19.1-38.1C148.4,220.8,125.2,200.4,91.8,200.4z M115.8,274.9c-6.5,5.5-14.8,7.9-28.1,7.9h-5.5v-65.6h5.5
	c13.3,0,21.3,2.2,28.1,8c7.1,6,11.4,15.2,11.4,24.7C127.2,259.5,122.9,269,115.8,274.9L115.8,274.9z"/>
</svg>
