<?xml version="1.0" encoding="utf-8"?>
<!-- Generator: Adobe Illustrator 23.1.0, SVG Export Plug-In . SVG Version: 6.00 Build 0)  -->
<svg version="1.1" id="Layer_1" xmlns="http://www.w3.org/2000/svg" xmlns:xlink="http://www.w3.org/1999/xlink" x="0px" y="0px"
	 viewBox="0 0 780 500" style="enable-background:new 0 0 780 500;" xml:space="preserve">
<style type="text/css">
	.st0{fill:#FFFFFF;}
</style>
<path class="st0" d="M211.3,275.1H285v122.4h-73.7V275.1z M290.4,214c0,23.1-18.7,41.7-41.7,41.7S207,237,207,214
	c0-23.1,18.7-41.7,41.7-41.7S290.4,190.9,290.4,214z M424.4,49.6H160.2v400.8h264.2v-0.1c57.7-0.8,103.5-15.1,135.9-42.7
	c39.4-33.6,59.5-86.7,59.5-157.5c0-34-5.3-64.4-15.7-90.5c-10-25-24.6-46.2-43.7-63C527,66.6,480,50.5,424.4,49.6L424.4,49.6z
	 M419.4,76.1c51.2,0,94,13.9,123.4,40.1c33.4,29.7,50.3,74.6,50.3,133.6c0,116.9-56.8,173.7-173.7,173.7c-9,0-209.3,0-232.7,0
	c0-23.9,0-323.7,0-347.6C210.1,76.1,410.4,76.1,419.4,76.1z M466,223.2c3.3,0,10.2,0,13.5,0c-1.2-3.2-4.6-12.7-6.8-18.3
	C470.6,210.4,467.2,220,466,223.2z M517.9,254.5v-72.7h17.9c0,0,0,53.6,0,57.2c2.8,0,26.1,0,33,0c-6.8-102.3-85.9-130.5-160.4-130.5
	h-89.7v72.9h9.7c6.1,0,10.6,0.5,13.8,1.5c4.4,1.3,8.1,3.6,11.3,6.9c3.1,3.2,5.4,7.3,7,11.9c1.6,4.5,2.4,10.4,2.4,17
	c0,5.8-0.8,11-2.3,15.4c-1.9,5.3-4.5,9.7-8,13c-2.7,2.5-6.2,4.5-10.6,6c-3.3,1.1-7.7,1.6-13,1.6h-10.4v142.9h89.7
	c77.7,0,160.4-23.4,160.8-143.1H517.9z M431.5,254.6h-56.7v-73.3h55.3V197c0,0-34,0-37.4,0c0,2.4,0,9,0,11.5c3.3,0,34.8,0,34.8,0
	v15.5c0,0-31.3,0-34.8,0c0,2.8,0,12.2,0,15c3.5,0,38.8,0,38.8,0V254.6z M491.5,254.6c0,0-5.3-13.7-6.1-15.8c-2.3,0-23,0-25.2,0
	c-0.7,2.1-5.7,15.8-5.7,15.8h-19l28.5-73.4h17.5l29.3,73.4H491.5z M335,238.6c2-0.4,3.7-1.2,4.9-2.4c1.3-1.1,2.4-3.1,3.2-5.8
	c0.9-2.9,1.3-7,1.3-12.2c0-5.2-0.4-9.2-1.3-11.8c-0.8-2.5-2-4.6-3.5-6c-1.5-1.3-3.3-2.3-5.6-2.8c-1.3-0.3-4.2-0.7-11.1-0.7
	c0,0-2.2,0-4.2,0.1v42.2c2.7,0,8.2,0,8.2,0C330.7,239.2,333.4,239,335,238.6z"/>
</svg>
