<?xml version="1.0" encoding="utf-8"?>
<!-- Generator: Adobe Illustrator 23.1.0, SVG Export Plug-In . SVG Version: 6.00 Build 0)  -->
<svg version="1.1" id="Layer_1" xmlns="http://www.w3.org/2000/svg" xmlns:xlink="http://www.w3.org/1999/xlink" x="0px" y="0px"
	 viewBox="0 0 780 500" style="enable-background:new 0 0 780 500;" xml:space="preserve">
<style type="text/css">
	.st0{fill-rule:evenodd;clip-rule:evenodd;fill:#FEFEFE;}
</style>
<path class="st0" d="M353.9,330.6l9.3-1.3l-3.7,12.5h-20.9c-1.7,0-2.9-0.2-4.8-0.6c-1.8-0.4-2.6-1.3-3.3-2.4c-0.7-1.3-2-2.2-1.1-4.9
	l6-20.1H325l3.4-11.5h10.3l2.8-9.3h-10.3l3.3-11l-0.2-0.1h45.4l-3.3,11h-18.1l-2.8,9.3h18.6l-3.4,11.3h-18.5l-4.6,15.2
	C347.1,330.4,352.1,330.6,353.9,330.6z M350.4,256l-4.7,8.6c-0.9,1.9-1.9,3-2.7,3.6c-0.7,0.4-2.2,0.6-4.2,0.6h-2.5l-3.3,11h8.2
	c3.9,0,6.9-1.5,8.4-2.2c1.6-0.8,1.9-0.4,3.1-1.6l2.8-2.4H381l3.4-11.4h-18.6l-0.1,0.1v-0.1h0.1l3.2-6.2H350.4z M514.4,279h53.8
	l-3.3,11.2h-18.1l-2.8,9.1h18.1l-3,9.9h-19.6l-3.5,4.2h8l2,12.5c0.2,1.3,0.2,2.1,0.6,2.6c0.4,0.4,2.8,0.6,4.1,0.6h2.4l-3.7,12.2
	h-6.1c-0.9,0-2.4-0.1-4.3-0.1c-1.9-0.2-3.1-1.3-4.3-1.9c-1.1-0.5-2.8-1.9-3.2-4.3l-1.9-12.5l-8.9,12.3c-2.8,3.9-6.6,6.9-13.1,6.9
	H495l1.2-3.9h-4.1l-1.1,3.7h-16.6l1.1-3.7H442l3.3-11.1h3.4l17.6-58.9l3.5-11.9h16.9l-1.8,6c0,0,4.5-3.2,8.8-4.4
	c3.4-0.9,20.1-1.4,26.3-1.5l0,0h18l0.2,6.8c-0.1,1.1,0.8,1.7,3,1.7h3.6l-3.3,11.2h-9.7c-8.4,0.6-11.6-3-11.4-7.1l-0.1-5.6l-1.5,4.9
	H513l0.1,0.1l0,0l-17.4,58h4.7l-1.5,5h4.2c1.3,0,2.6-0.5,3.5-1c0.9-0.4,1.8-0.8,2.6-2.2l13-18.5l0,0H505l2.9-9.9h19.7l2.8-9.1H511
	L514.4,279z M483.2,313h-13.3l-3.9,13.1h13.5L483.2,313z M490,290.2h-13.4v-0.1l-0.1,0.1h0.1l-4.6,15.4c0,0,5.1-2.6,7.9-3.4
	c2.8-0.6,6.9-1.1,6.9-1.1L490,290.2z M493.6,278.8l3.2-10.8h-13.3l-0.1-0.1l0,0l-4.5,14.8c0,0,5-2.3,7.8-3
	C489.5,279,493.6,278.8,493.6,278.8z M450.8,256l-8.8,29.5c-1.4,5-3.2,8.3-4.2,9.8c-0.9,1.5-2.1,2.8-4.3,4.1c-2.2,1.1-4.1,1.9-6,2
	c-1.7,0.1-4.3,0.2-7.9,0.2h-24.7l-6.9,23.3c-0.6,2.3-0.9,3.4-0.5,4.1c0.3,0.5,1.2,1.2,2.4,1.2l10.9-1l-3.7,12.7h-12.2
	c-3.9,0-6.7-0.1-8.7-0.2c-1.9-0.2-3.8,0-5.2-1c-1.1-1-2.9-2.4-2.8-3.8c0.1-1.3,0.6-3.3,1.5-6.3l22.2-74.4h15.8l-2.3,8
	c0,0,5-4.1,8.5-5.5c3.5-1.3,11.4-2.5,11.4-2.5L450.8,256z M425.5,285.8h-0.1h-26l-1.6,5.3h22.6c2.7-0.3,3.2,0.1,3.4-0.1L425.5,285.8
	z M430.8,268.3h-26.2l-3.8,12.6l0,0l0,0v0.1v-0.1c0.4-0.4,5.4-4.7,13.7-6.1c2-0.4,14.4-0.2,14.4-0.2L430.8,268.3z M238.9,147.4
	c-14.7,0.1-18.9,0-20.4-0.3V147c-0.5,2.5-10.5,48.6-10.5,48.6c-2.2,9.3-3.7,16-8.9,20.3c-3,2.5-6.5,3.7-10.6,3.7
	c-6.5,0-10.2-3.2-10.9-9.4l-0.1-2.1c0,0,2-12.4,2-12.5c0,0,10.3-42,12.2-47.5c0.1-0.3,0.1-0.5,0.1-0.6c-20.2,0.2-23.8,0-24-0.3
	c-0.1,0.4-0.6,3-0.6,3l-10.6,47.3l-0.9,4l-1.8,13.2c0,3.9,0.7,7.1,2.3,9.7c4.9,8.6,18.6,9.8,26.4,9.8c10,0,19.5-2.2,25.8-6.1
	c11.1-6.6,14-16.9,16.5-26l1.2-4.7c0,0,10.7-43.6,12.5-49.2C238.8,147.7,238.8,147.5,238.9,147.4z M329,233
	c-11.2-4.6-9.4-16.8-7.9-23.6c1.4-6.7,4-13.7,9.5-18.8c7.7-7.1,17.4-7.5,21.5-7.5c6.8,0,13.5,1.6,17.2,6.4c2.4,3.1,4.3,8.4,1.9,19.4
	l0,0h0.1c-0.8,3.4-3,11.6-7.9,17c-6.3,6.7-14.7,9-22.9,9C337.4,234.8,332.4,234.4,329,233z M338.7,218c0.1,5.3,3.6,5.3,4.2,5.3
	c2.1,0,3.8-1.4,5.4-3.6c2.2-2.9,3.8-9.9,4.1-11.8l0,0c2-8.5,1.7-13.7-2.8-13.7c-5.7,0-8,7-9.8,15.5
	C339.3,212.7,338.7,215.4,338.7,218z M274.9,182.5c-2.6,0-7.2,0.6-11.5,2.7c-1.6,0.7-3,1.7-4.6,2.6l1.3-5l-0.7-0.8
	c-9,1.8-11,2.1-19.2,3.2l-0.7,0.4c-0.9,8-1.9,14.1-5.4,29.9c-1.3,5.9-2.7,11.7-4.1,17.6l0.4,0.7c8.5-0.4,11.1-0.4,18.4-0.3l0.6-0.6
	c0.9-4.8,1-6,3.1-15.8c1-4.6,3-14.8,4-18.5c1.9-0.8,3.6-1.7,5.4-1.7c4.1,0,3.7,3.7,3.5,5.1c-0.2,2.4-1.7,10.5-3.2,17.2l-1,4.4
	c-0.6,3.2-1.4,6.4-2.2,9.6l0.3,0.6c8.4-0.4,11-0.4,18.1-0.3l-0.1-0.1l0.8-0.6c1.2-7.5,1.7-9.5,3.9-20.6l1.1-5
	c2.3-9.9,3.3-14.9,1.7-19C283.2,183.7,278.8,182.5,274.9,182.5z M315.9,193c-4.5,0.8-7.3,1.4-10.1,1.8c-2.8,0.4-5.5,0.8-9.8,1.5
	l-0.3,0.3l-0.3,0.2c-0.4,3.2-0.7,6.1-1.3,9.3c-0.5,3.4-1.3,7.3-2.6,12.9c-1,4.3-1.6,5.7-2.1,7.2c-0.6,1.5-1.1,2.9-2.3,7.1l0.2,0.4
	l0.2,0.3c4-0.1,6.6-0.3,9.3-0.3c2.7-0.1,5.5,0,9.8,0l0.2,0.1l0.4-0.3l0.4-0.3c0.6-3.8,0.7-4.7,1.1-6.6c0.3-2,1-4.7,2.6-12
	c0.7-3.4,1.6-6.9,2.4-10.3l2.5-10.3l-0.1-0.4L315.9,193z M509.7,192c7.7-7.1,16.7-9.1,20.5-7.5c2.7,1.1,4.6,2.7,5.9,4.6
	c0.1-0.5,0.1-0.9,0.2-1.4l0.6-0.5c8.6-1.3,11-1.6,20-3.2l0.2,0.7c-1.7,6.9-3.2,13.7-4.9,20.5c-3.3,14.3-4.5,21.6-5.7,29.2l-0.8,0.6
	v-0.1l0,0c-8.7-0.1-11.2-0.1-19.1,0.3l-0.5-0.6c0.2-0.9,0.5-1.8,0.7-2.6c-2.7,2.2-5.7,3.7-8.8,3.9c-3.2,0.2-6.4-0.2-9.9-1.8
	c-11.1-4.3-9.3-16.6-7.8-23.3C501.6,204,504.3,197,509.7,192z M517.7,219.4c0.2,5.2,3.6,5.2,4.2,5.2c2,0,5.5-1.4,6.9-3.4
	c0.3-0.4,0.7-1,1-1.6c0.8-3.3,1.7-6.6,2.4-10c0.6-2.8,1.1-5.1,1.6-7.2c-0.3-4.1-2.2-6.5-5.2-6.5c-5.7,0-8,7-9.8,15.3
	C518.3,214.1,517.7,216.8,517.7,219.4z M437.8,303.2h0.1l-0.1-0.2V303.2z M424.3,308.2c-0.2,0.7-0.5,1.3-1,1.6
	c-0.5,0.3-1.4,0.4-2.7,0.4h-3.7l0.2-6.4h-15.4L401,335c0,2.3,0.2,3.6,1.9,4.6c1.6,1.3,6.6,1.5,13.4,1.5h9.6l3.5-11.7l-8.4,0.4
	l-2.8,0.2c-0.4-0.2-0.7-0.3-1.1-0.7c-0.3-0.4-0.9-0.2-0.8-2.4l0.1-7.9l8.8-0.4c4.8,0,6.7-1.6,8.5-3c1.7-1.5,2.2-3.1,2.8-5.3l1.4-6.9
	h-12L424.3,308.2z M617.3,182.8l-0.7-0.8c-8.8,1.8-10.5,2.1-18.5,3.2l-0.6,0.6c0,0.1-0.1,0.2-0.1,0.4v-0.1
	c-6,14.1-5.9,11.1-10.8,22.2c0-0.5,0-0.8-0.1-1.4l-1.2-24l-0.7-0.8c-9.3,1.8-9.5,2.1-18,3.2l-0.6,0.6c-0.1,0.3-0.1,0.6-0.1,0.9
	l0.1,0.1c1,5.5,0.8,4.3,1.9,13c0.5,4.3,1.1,8.6,1.7,12.7c0.8,7.1,1.3,10.6,2.4,21.3c-5.8,9.6-7.1,13.3-12.7,21.7l0.1,0.2h-0.5
	l-4.1,6.6c-0.5,0.6-0.8,1-1.4,1.3c-0.6,0.3-1.4,0.4-2.6,0.4h-2.2l-3.2,10.9l11.1,0.2c6.4,0,10.6-3.1,12.7-7.2l6.8-11.8h0.1l1.3-1.6
	c4.7-10.1,40.3-71.8,40.3-71.8L617.3,182.8z M315.9,179.4c-4-2.4-11.2-1.7-15.9,1.7c-4.8,3.2-5.3,7.8-1.2,10.3
	c3.9,2.3,11.1,1.7,15.8-1.7C319.3,186.4,319.9,181.8,315.9,179.4z M432,233.9c0.6-2.6,13.9-57.8,13.9-57.8c0-0.1,5.6-26,5.6-26
	s0.4-2,0.6-3.1c2.5,0.3,8.7,0.4,24.2,0.2l6-0.1l0,0c12.1,0.1,22.6,0.2,27.8,7.6c2.1,2.8,2.8,6.4,2.8,10c0,2.8-0.4,5.5-0.9,7.8
	c-2.2,9.4-6.9,17.2-14,22.5c-10.3,7.6-23.5,7.6-35.2,7.6h-1.2c-0.8,0.5-1.7,1.7-1.7,1.7c-0.1,0.4-2.8,11.7-2.8,11.7
	c-0.1,0-3.2,15.4-3.7,18C451,233.7,445.6,233.7,432,233.9z M463.5,189.3h3.2c5,0,9.7-0.2,13.7-2.2c4.8-2.3,8.5-7.2,9.7-13
	c1.4-6.4-0.6-11.2-5.4-13.1c-0.2,0-12.4-1-12.4-1l-2.4-0.2l-0.1,1l-0.2,1.4c0-0.1-5.9,25.8-5.9,25.8L463.5,189.3z M391.8,233.5
	l0.6-0.6c0.9-4.8,1.1-6,3.1-15.8c1-4.6,3.1-14.8,4-18.5c1.8-0.8,3.6-1.7,5.4-1.7c4,0,3.6,3.7,3.4,5.1c-0.1,2.4-1.7,10.5-3.2,17.2
	l-0.9,4.4c-0.7,3.2-1.6,6.4-2.3,9.6l0.3,0.6c8.4-0.4,10.9-0.4,18-0.3l-0.1-0.1l0.8-0.6c1.2-7.5,1.6-9.5,3.9-20.6l1.1-5
	c2.3-9.9,3.4-14.9,1.8-19c-1.9-4.6-6.1-5.7-10-5.7c-2.6,0-7.2,0.6-11.5,2.7c-1.4,0.7-3,1.7-4.5,2.6l1.2-5l-0.7-0.8
	c-8.9,1.8-11,2.1-19.2,3.2l-0.6,0.4c-1,8-1.9,14.1-5.4,29.9c-1.3,5.9-2.7,11.7-4.1,17.6l0.4,0.7
	C381.9,233.4,384.5,233.4,391.8,233.5z"/>
</svg>
