<?xml version="1.0" encoding="utf-8"?>
<!-- Generator: Adobe Illustrator 23.1.0, SVG Export Plug-In . SVG Version: 6.00 Build 0)  -->
<svg version="1.1" id="Layer_1" xmlns="http://www.w3.org/2000/svg" xmlns:xlink="http://www.w3.org/1999/xlink" x="0px" y="0px"
	 viewBox="0 0 780 500" style="enable-background:new 0 0 780 500;" xml:space="preserve">
<style type="text/css">
	.st0{fill:#FFFFFF;}
</style>
<path class="st0" d="M307.7,158.9l-80.8,183.5l-54.3,0.1L127,183.1c-15.9-8.6-34-15.6-54.3-20.4l0.7-3.8h82.8l0,0
	c11.2,0.4,20.2,3.9,23.3,15.5l17.5,81.9c0.3,0.8,0.6,1.6,0.8,2.4l5.4,25.5l50.3-125.3l0,0L307.7,158.9L307.7,158.9z M329,158.9
	l-32.1,183.8h51.3l32.1-183.8L329,158.9L329,158.9z M707.3,342.6h-47.6c0,0-4.7-21.1-6.2-27.5c-7.5,0-59.9-0.1-65.8-0.1
	c-2,5-10.8,27.6-10.8,27.6H523l76.2-168.5c5.4-12,14.6-15.2,26.9-15.2h39.7l0,0L707.3,342.6z M645.5,277.6
	c-2.1-9.2-11.9-53.1-11.9-53.1l-3.5-15.8c-2.6,6.9-7.1,18-6.8,17.5c0,0-16.2,40.8-20.5,51.4H645.5z M533.7,162.8L533.7,162.8
	L533.7,162.8L533.7,162.8z M483.1,232.1c-17.9-8.5-28.9-14.2-28.8-22.8c0-7.6,9.3-15.8,29.4-15.8c16.8-0.3,29,3.3,38.4,7l4.6,2.1
	l7-39.8c-10.2-3.7-26.1-7.7-46-7.7c-50.7,0-86.5,24.9-86.8,60.7c-0.3,26.4,25.5,41.1,45,49.9c20,9,26.7,14.8,26.6,22.8
	c-0.1,12.3-16,18-30.7,18c-20.5,0-31.5-2.8-48.3-9.6l-6.6-2.9l-7.2,41.1c12,5.1,34.2,9.6,57.2,9.8c54,0,89-24.6,89.4-62.8
	C526.4,261.1,512.7,245.2,483.1,232.1z"/>
</svg>
