<svg width="406" height="2268" viewBox="0 0 406 2268" fill="none" xmlns="http://www.w3.org/2000/svg">
<path d="M406 1295C406 1293.9 405.105 1293 404 1293H396C394.895 1293 394 1293.9 394 1295V1321C394 1322.1 394.895 1323 396 1323H404C405.105 1323 406 1322.1 406 1321V1449C406 1447.9 405.105 1447 404 1447H396C394.895 1447 394 1447.9 394 1449V1475C394 1476.1 394.895 1477 396 1477H404C405.105 1477 406 1476.1 406 1475V2131C406 2129.9 405.105 2129 404 2129H396C394.895 2129 394 2129.9 394 2131V2157C394 2158.1 394.895 2159 396 2159H404C405.105 2159 406 2158.1 406 2157V2268H0V2157C0 2158.1 0.895431 2159 2 2159H10C11.1046 2159 12 2158.1 12 2157V2131C12 2129.9 11.1046 2129 10 2129H2C0.895431 2129 0 2129.9 0 2131V1475C0 1476.1 0.895431 1477 2 1477H10C11.1046 1477 12 1476.1 12 1475V1449C12 1447.9 11.1046 1447 10 1447H2C0.895431 1447 0 1447.9 0 1449V1321C0 1322.1 0.895431 1323 2 1323H10C11.1046 1323 12 1322.1 12 1321V1295C12 1293.9 11.1046 1293 10 1293H2C0.895431 1293 0 1293.9 0 1295V0H406V1295ZM34 2200C26.268 2200 20 2206.27 20 2214C20 2221.73 26.268 2228 34 2228C41.732 2228 48 2221.73 48 2214C48 2206.27 41.732 2200 34 2200ZM372 2200C364.268 2200 358 2206.27 358 2214C358 2221.73 364.268 2228 372 2228C379.732 2228 386 2221.73 386 2214C386 2206.27 379.732 2200 372 2200ZM171 2076C163.268 2076 157 2082.27 157 2090C157 2097.73 163.268 2104 171 2104C178.732 2104 185 2097.73 185 2090C185 2082.27 178.732 2076 171 2076ZM203 2076C195.268 2076 189 2082.27 189 2090C189 2097.73 195.268 2104 203 2104C210.732 2104 217 2097.73 217 2090C217 2082.27 210.732 2076 203 2076ZM235 2076C227.268 2076 221 2082.27 221 2090C221 2097.73 227.268 2104 235 2104C242.732 2104 249 2097.73 249 2090C249 2082.27 242.732 2076 235 2076ZM171 2028C163.268 2028 157 2034.27 157 2042C157 2049.73 163.268 2056 171 2056C178.732 2056 185 2049.73 185 2042C185 2034.27 178.732 2028 171 2028ZM203 2028C195.268 2028 189 2034.27 189 2042C189 2049.73 195.268 2056 203 2056C210.732 2056 217 2049.73 217 2042C217 2034.27 210.732 2028 203 2028ZM235 2028C227.268 2028 221 2034.27 221 2042C221 2049.73 227.268 2056 235 2056C242.732 2056 249 2049.73 249 2042C249 2034.27 242.732 2028 235 2028ZM30 1980C22.268 1980 16 1986.27 16 1994C16 2001.73 22.268 2008 30 2008C37.732 2008 44 2001.73 44 1994C44 1986.27 37.732 1980 30 1980ZM62 1980C54.268 1980 48 1986.27 48 1994C48 2001.73 54.268 2008 62 2008C69.732 2008 76 2001.73 76 1994C76 1986.27 69.732 1980 62 1980ZM94 1980C86.268 1980 80 1986.27 80 1994C80 2001.73 86.268 2008 94 2008C101.732 2008 108 2001.73 108 1994C108 1986.27 101.732 1980 94 1980ZM171 1980C163.268 1980 157 1986.27 157 1994C157 2001.73 163.268 2008 171 2008C178.732 2008 185 2001.73 185 1994C185 1986.27 178.732 1980 171 1980ZM203 1980C195.268 1980 189 1986.27 189 1994C189 2001.73 195.268 2008 203 2008C210.732 2008 217 2001.73 217 1994C217 1986.27 210.732 1980 203 1980ZM235 1980C227.268 1980 221 1986.27 221 1994C221 2001.73 227.268 2008 235 2008C242.732 2008 249 2001.73 249 1994C249 1986.27 242.732 1980 235 1980ZM312 1980C304.268 1980 298 1986.27 298 1994C298 2001.73 304.268 2008 312 2008C319.732 2008 326 2001.73 326 1994C326 1986.27 319.732 1980 312 1980ZM344 1980C336.268 1980 330 1986.27 330 1994C330 2001.73 336.268 2008 344 2008C351.732 2008 358 2001.73 358 1994C358 1986.27 351.732 1980 344 1980ZM376 1980C368.268 1980 362 1986.27 362 1994C362 2001.73 368.268 2008 376 2008C383.732 2008 390 2001.73 390 1994C390 1986.27 383.732 1980 376 1980ZM30 1932C22.268 1932 16 1938.27 16 1946C16 1953.73 22.268 1960 30 1960C37.732 1960 44 1953.73 44 1946C44 1938.27 37.732 1932 30 1932ZM62 1932C54.268 1932 48 1938.27 48 1946C48 1953.73 54.268 1960 62 1960C69.732 1960 76 1953.73 76 1946C76 1938.27 69.732 1932 62 1932ZM94 1932C86.268 1932 80 1938.27 80 1946C80 1953.73 86.268 1960 94 1960C101.732 1960 108 1953.73 108 1946C108 1938.27 101.732 1932 94 1932ZM171 1932C163.268 1932 157 1938.27 157 1946C157 1953.73 163.268 1960 171 1960C178.732 1960 185 1953.73 185 1946C185 1938.27 178.732 1932 171 1932ZM203 1932C195.268 1932 189 1938.27 189 1946C189 1953.73 195.268 1960 203 1960C210.732 1960 217 1953.73 217 1946C217 1938.27 210.732 1932 203 1932ZM235 1932C227.268 1932 221 1938.27 221 1946C221 1953.73 227.268 1960 235 1960C242.732 1960 249 1953.73 249 1946C249 1938.27 242.732 1932 235 1932ZM312 1932C304.268 1932 298 1938.27 298 1946C298 1953.73 304.268 1960 312 1960C319.732 1960 326 1953.73 326 1946C326 1938.27 319.732 1932 312 1932ZM344 1932C336.268 1932 330 1938.27 330 1946C330 1953.73 336.268 1960 344 1960C351.732 1960 358 1953.73 358 1946C358 1938.27 351.732 1932 344 1932ZM376 1932C368.268 1932 362 1938.27 362 1946C362 1953.73 368.268 1960 376 1960C383.732 1960 390 1953.73 390 1946C390 1938.27 383.732 1932 376 1932ZM30 1884C22.268 1884 16 1890.27 16 1898C16 1905.73 22.268 1912 30 1912C37.732 1912 44 1905.73 44 1898C44 1890.27 37.732 1884 30 1884ZM62 1884C54.268 1884 48 1890.27 48 1898C48 1905.73 54.268 1912 62 1912C69.732 1912 76 1905.73 76 1898C76 1890.27 69.732 1884 62 1884ZM94 1884C86.268 1884 80 1890.27 80 1898C80 1905.73 86.268 1912 94 1912C101.732 1912 108 1905.73 108 1898C108 1890.27 101.732 1884 94 1884ZM171 1884C163.268 1884 157 1890.27 157 1898C157 1905.73 163.268 1912 171 1912C178.732 1912 185 1905.73 185 1898C185 1890.27 178.732 1884 171 1884ZM203 1884C195.268 1884 189 1890.27 189 1898C189 1905.73 195.268 1912 203 1912C210.732 1912 217 1905.73 217 1898C217 1890.27 210.732 1884 203 1884ZM235 1884C227.268 1884 221 1890.27 221 1898C221 1905.73 227.268 1912 235 1912C242.732 1912 249 1905.73 249 1898C249 1890.27 242.732 1884 235 1884ZM312 1884C304.268 1884 298 1890.27 298 1898C298 1905.73 304.268 1912 312 1912C319.732 1912 326 1905.73 326 1898C326 1890.27 319.732 1884 312 1884ZM344 1884C336.268 1884 330 1890.27 330 1898C330 1905.73 336.268 1912 344 1912C351.732 1912 358 1905.73 358 1898C358 1890.27 351.732 1884 344 1884ZM376 1884C368.268 1884 362 1890.27 362 1898C362 1905.73 368.268 1912 376 1912C383.732 1912 390 1905.73 390 1898C390 1890.27 383.732 1884 376 1884ZM30 1836C22.268 1836 16 1842.27 16 1850C16 1857.73 22.268 1864 30 1864C37.732 1864 44 1857.73 44 1850C44 1842.27 37.732 1836 30 1836ZM62 1836C54.268 1836 48 1842.27 48 1850C48 1857.73 54.268 1864 62 1864C69.732 1864 76 1857.73 76 1850C76 1842.27 69.732 1836 62 1836ZM94 1836C86.268 1836 80 1842.27 80 1850C80 1857.73 86.268 1864 94 1864C101.732 1864 108 1857.73 108 1850C108 1842.27 101.732 1836 94 1836ZM171 1836C163.268 1836 157 1842.27 157 1850C157 1857.73 163.268 1864 171 1864C178.732 1864 185 1857.73 185 1850C185 1842.27 178.732 1836 171 1836ZM203 1836C195.268 1836 189 1842.27 189 1850C189 1857.73 195.268 1864 203 1864C210.732 1864 217 1857.73 217 1850C217 1842.27 210.732 1836 203 1836ZM235 1836C227.268 1836 221 1842.27 221 1850C221 1857.73 227.268 1864 235 1864C242.732 1864 249 1857.73 249 1850C249 1842.27 242.732 1836 235 1836ZM312 1836C304.268 1836 298 1842.27 298 1850C298 1857.73 304.268 1864 312 1864C319.732 1864 326 1857.73 326 1850C326 1842.27 319.732 1836 312 1836ZM344 1836C336.268 1836 330 1842.27 330 1850C330 1857.73 336.268 1864 344 1864C351.732 1864 358 1857.73 358 1850C358 1842.27 351.732 1836 344 1836ZM376 1836C368.268 1836 362 1842.27 362 1850C362 1857.73 368.268 1864 376 1864C383.732 1864 390 1857.73 390 1850C390 1842.27 383.732 1836 376 1836ZM30 1788C22.268 1788 16 1794.27 16 1802C16 1809.73 22.268 1816 30 1816C37.732 1816 44 1809.73 44 1802C44 1794.27 37.732 1788 30 1788ZM62 1788C54.268 1788 48 1794.27 48 1802C48 1809.73 54.268 1816 62 1816C69.732 1816 76 1809.73 76 1802C76 1794.27 69.732 1788 62 1788ZM94 1788C86.268 1788 80 1794.27 80 1802C80 1809.73 86.268 1816 94 1816C101.732 1816 108 1809.73 108 1802C108 1794.27 101.732 1788 94 1788ZM171 1788C163.268 1788 157 1794.27 157 1802C157 1809.73 163.268 1816 171 1816C178.732 1816 185 1809.73 185 1802C185 1794.27 178.732 1788 171 1788ZM203 1788C195.268 1788 189 1794.27 189 1802C189 1809.73 195.268 1816 203 1816C210.732 1816 217 1809.73 217 1802C217 1794.27 210.732 1788 203 1788ZM235 1788C227.268 1788 221 1794.27 221 1802C221 1809.73 227.268 1816 235 1816C242.732 1816 249 1809.73 249 1802C249 1794.27 242.732 1788 235 1788ZM312 1788C304.268 1788 298 1794.27 298 1802C298 1809.73 304.268 1816 312 1816C319.732 1816 326 1809.73 326 1802C326 1794.27 319.732 1788 312 1788ZM344 1788C336.268 1788 330 1794.27 330 1802C330 1809.73 336.268 1816 344 1816C351.732 1816 358 1809.73 358 1802C358 1794.27 351.732 1788 344 1788ZM376 1788C368.268 1788 362 1794.27 362 1802C362 1809.73 368.268 1816 376 1816C383.732 1816 390 1809.73 390 1802C390 1794.27 383.732 1788 376 1788ZM30 1740C22.268 1740 16 1746.27 16 1754C16 1761.73 22.268 1768 30 1768C37.732 1768 44 1761.73 44 1754C44 1746.27 37.732 1740 30 1740ZM62 1740C54.268 1740 48 1746.27 48 1754C48 1761.73 54.268 1768 62 1768C69.732 1768 76 1761.73 76 1754C76 1746.27 69.732 1740 62 1740ZM94 1740C86.268 1740 80 1746.27 80 1754C80 1761.73 86.268 1768 94 1768C101.732 1768 108 1761.73 108 1754C108 1746.27 101.732 1740 94 1740ZM171 1740C163.268 1740 157 1746.27 157 1754C157 1761.73 163.268 1768 171 1768C178.732 1768 185 1761.73 185 1754C185 1746.27 178.732 1740 171 1740ZM203 1740C195.268 1740 189 1746.27 189 1754C189 1761.73 195.268 1768 203 1768C210.732 1768 217 1761.73 217 1754C217 1746.27 210.732 1740 203 1740ZM235 1740C227.268 1740 221 1746.27 221 1754C221 1761.73 227.268 1768 235 1768C242.732 1768 249 1761.73 249 1754C249 1746.27 242.732 1740 235 1740ZM312 1740C304.268 1740 298 1746.27 298 1754C298 1761.73 304.268 1768 312 1768C319.732 1768 326 1761.73 326 1754C326 1746.27 319.732 1740 312 1740ZM344 1740C336.268 1740 330 1746.27 330 1754C330 1761.73 336.268 1768 344 1768C351.732 1768 358 1761.73 358 1754C358 1746.27 351.732 1740 344 1740ZM376 1740C368.268 1740 362 1746.27 362 1754C362 1761.73 368.268 1768 376 1768C383.732 1768 390 1761.73 390 1754C390 1746.27 383.732 1740 376 1740ZM30 1692C22.268 1692 16 1698.27 16 1706C16 1713.73 22.268 1720 30 1720C37.732 1720 44 1713.73 44 1706C44 1698.27 37.732 1692 30 1692ZM62 1692C54.268 1692 48 1698.27 48 1706C48 1713.73 54.268 1720 62 1720C69.732 1720 76 1713.73 76 1706C76 1698.27 69.732 1692 62 1692ZM94 1692C86.268 1692 80 1698.27 80 1706C80 1713.73 86.268 1720 94 1720C101.732 1720 108 1713.73 108 1706C108 1698.27 101.732 1692 94 1692ZM171 1692C163.268 1692 157 1698.27 157 1706C157 1713.73 163.268 1720 171 1720C178.732 1720 185 1713.73 185 1706C185 1698.27 178.732 1692 171 1692ZM203 1692C195.268 1692 189 1698.27 189 1706C189 1713.73 195.268 1720 203 1720C210.732 1720 217 1713.73 217 1706C217 1698.27 210.732 1692 203 1692ZM235 1692C227.268 1692 221 1698.27 221 1706C221 1713.73 227.268 1720 235 1720C242.732 1720 249 1713.73 249 1706C249 1698.27 242.732 1692 235 1692ZM312 1692C304.268 1692 298 1698.27 298 1706C298 1713.73 304.268 1720 312 1720C319.732 1720 326 1713.73 326 1706C326 1698.27 319.732 1692 312 1692ZM344 1692C336.268 1692 330 1698.27 330 1706C330 1713.73 336.268 1720 344 1720C351.732 1720 358 1713.73 358 1706C358 1698.27 351.732 1692 344 1692ZM376 1692C368.268 1692 362 1698.27 362 1706C362 1713.73 368.268 1720 376 1720C383.732 1720 390 1713.73 390 1706C390 1698.27 383.732 1692 376 1692ZM30 1644C22.268 1644 16 1650.27 16 1658C16 1665.73 22.268 1672 30 1672C37.732 1672 44 1665.73 44 1658C44 1650.27 37.732 1644 30 1644ZM62 1644C54.268 1644 48 1650.27 48 1658C48 1665.73 54.268 1672 62 1672C69.732 1672 76 1665.73 76 1658C76 1650.27 69.732 1644 62 1644ZM94 1644C86.268 1644 80 1650.27 80 1658C80 1665.73 86.268 1672 94 1672C101.732 1672 108 1665.73 108 1658C108 1650.27 101.732 1644 94 1644ZM171 1644C163.268 1644 157 1650.27 157 1658C157 1665.73 163.268 1672 171 1672C178.732 1672 185 1665.73 185 1658C185 1650.27 178.732 1644 171 1644ZM203 1644C195.268 1644 189 1650.27 189 1658C189 1665.73 195.268 1672 203 1672C210.732 1672 217 1665.73 217 1658C217 1650.27 210.732 1644 203 1644ZM235 1644C227.268 1644 221 1650.27 221 1658C221 1665.73 227.268 1672 235 1672C242.732 1672 249 1665.73 249 1658C249 1650.27 242.732 1644 235 1644ZM312 1644C304.268 1644 298 1650.27 298 1658C298 1665.73 304.268 1672 312 1672C319.732 1672 326 1665.73 326 1658C326 1650.27 319.732 1644 312 1644ZM344 1644C336.268 1644 330 1650.27 330 1658C330 1665.73 336.268 1672 344 1672C351.732 1672 358 1665.73 358 1658C358 1650.27 351.732 1644 344 1644ZM376 1644C368.268 1644 362 1650.27 362 1658C362 1665.73 368.268 1672 376 1672C383.732 1672 390 1665.73 390 1658C390 1650.27 383.732 1644 376 1644ZM30 1596C22.268 1596 16 1602.27 16 1610C16 1617.73 22.268 1624 30 1624C37.732 1624 44 1617.73 44 1610C44 1602.27 37.732 1596 30 1596ZM62 1596C54.268 1596 48 1602.27 48 1610C48 1617.73 54.268 1624 62 1624C69.732 1624 76 1617.73 76 1610C76 1602.27 69.732 1596 62 1596ZM94 1596C86.268 1596 80 1602.27 80 1610C80 1617.73 86.268 1624 94 1624C101.732 1624 108 1617.73 108 1610C108 1602.27 101.732 1596 94 1596ZM171 1596C163.268 1596 157 1602.27 157 1610C157 1617.73 163.268 1624 171 1624C178.732 1624 185 1617.73 185 1610C185 1602.27 178.732 1596 171 1596ZM203 1596C195.268 1596 189 1602.27 189 1610C189 1617.73 195.268 1624 203 1624C210.732 1624 217 1617.73 217 1610C217 1602.27 210.732 1596 203 1596ZM235 1596C227.268 1596 221 1602.27 221 1610C221 1617.73 227.268 1624 235 1624C242.732 1624 249 1617.73 249 1610C249 1602.27 242.732 1596 235 1596ZM312 1596C304.268 1596 298 1602.27 298 1610C298 1617.73 304.268 1624 312 1624C319.732 1624 326 1617.73 326 1610C326 1602.27 319.732 1596 312 1596ZM344 1596C336.268 1596 330 1602.27 330 1610C330 1617.73 336.268 1624 344 1624C351.732 1624 358 1617.73 358 1610C358 1602.27 351.732 1596 344 1596ZM376 1596C368.268 1596 362 1602.27 362 1610C362 1617.73 368.268 1624 376 1624C383.732 1624 390 1617.73 390 1610C390 1602.27 383.732 1596 376 1596ZM18 1528C16.8954 1528 16 1528.9 16 1530V1562C16 1563.1 16.8954 1564 18 1564H388C389.105 1564 390 1563.1 390 1562V1530C390 1528.9 389.105 1528 388 1528H18ZM38 1447C30.268 1447 24 1453.27 24 1461C24 1468.73 30.268 1475 38 1475C45.732 1475 52 1468.73 52 1461C52 1453.27 45.732 1447 38 1447ZM70 1447C62.268 1447 56 1453.27 56 1461C56 1468.73 62.268 1475 70 1475C77.732 1475 84 1468.73 84 1461C84 1453.27 77.732 1447 70 1447ZM102 1447C94.268 1447 88 1453.27 88 1461C88 1468.73 94.268 1475 102 1475C109.732 1475 116 1468.73 116 1461C116 1453.27 109.732 1447 102 1447ZM171 1447C163.268 1447 157 1453.27 157 1461C157 1468.73 163.268 1475 171 1475C178.732 1475 185 1468.73 185 1461C185 1453.27 178.732 1447 171 1447ZM203 1447C195.268 1447 189 1453.27 189 1461C189 1468.73 195.268 1475 203 1475C210.732 1475 217 1468.73 217 1461C217 1453.27 210.732 1447 203 1447ZM235 1447C227.268 1447 221 1453.27 221 1461C221 1468.73 227.268 1475 235 1475C242.732 1475 249 1468.73 249 1461C249 1453.27 242.732 1447 235 1447ZM304 1447C296.268 1447 290 1453.27 290 1461C290 1468.73 296.268 1475 304 1475C311.732 1475 318 1468.73 318 1461C318 1453.27 311.732 1447 304 1447ZM336 1447C328.268 1447 322 1453.27 322 1461C322 1468.73 328.268 1475 336 1475C343.732 1475 350 1468.73 350 1461C350 1453.27 343.732 1447 336 1447ZM368 1447C360.268 1447 354 1453.27 354 1461C354 1468.73 360.268 1475 368 1475C375.732 1475 382 1468.73 382 1461C382 1453.27 375.732 1447 368 1447ZM18 1374C16.8954 1374 16 1374.9 16 1376V1408C16 1409.1 16.8954 1410 18 1410H388C389.105 1410 390 1409.1 390 1408V1376C390 1374.9 389.105 1374 388 1374H18ZM171 1293C163.268 1293 157 1299.27 157 1307C157 1314.73 163.268 1321 171 1321C178.732 1321 185 1314.73 185 1307C185 1299.27 178.732 1293 171 1293ZM203 1293C195.268 1293 189 1299.27 189 1307C189 1314.73 195.268 1321 203 1321C210.732 1321 217 1314.73 217 1307C217 1299.27 210.732 1293 203 1293ZM235 1293C227.268 1293 221 1299.27 221 1307C221 1314.73 227.268 1321 235 1321C242.732 1321 249 1314.73 249 1307C249 1299.27 242.732 1293 235 1293ZM30 1240C22.268 1240 16 1246.27 16 1254C16 1261.73 22.268 1268 30 1268C37.732 1268 44 1261.73 44 1254C44 1246.27 37.732 1240 30 1240ZM62 1240C54.268 1240 48 1246.27 48 1254C48 1261.73 54.268 1268 62 1268C69.732 1268 76 1261.73 76 1254C76 1246.27 69.732 1240 62 1240ZM94 1240C86.268 1240 80 1246.27 80 1254C80 1261.73 86.268 1268 94 1268C101.732 1268 108 1261.73 108 1254C108 1246.27 101.732 1240 94 1240ZM171 1240C163.268 1240 157 1246.27 157 1254C157 1261.73 163.268 1268 171 1268C178.732 1268 185 1261.73 185 1254C185 1246.27 178.732 1240 171 1240ZM203 1240C195.268 1240 189 1246.27 189 1254C189 1261.73 195.268 1268 203 1268C210.732 1268 217 1261.73 217 1254C217 1246.27 210.732 1240 203 1240ZM235 1240C227.268 1240 221 1246.27 221 1254C221 1261.73 227.268 1268 235 1268C242.732 1268 249 1261.73 249 1254C249 1246.27 242.732 1240 235 1240ZM312 1240C304.268 1240 298 1246.27 298 1254C298 1261.73 304.268 1268 312 1268C319.732 1268 326 1261.73 326 1254C326 1246.27 319.732 1240 312 1240ZM344 1240C336.268 1240 330 1246.27 330 1254C330 1261.73 336.268 1268 344 1268C351.732 1268 358 1261.73 358 1254C358 1246.27 351.732 1240 344 1240ZM376 1240C368.268 1240 362 1246.27 362 1254C362 1261.73 368.268 1268 376 1268C383.732 1268 390 1261.73 390 1254C390 1246.27 383.732 1240 376 1240ZM30 1192C22.268 1192 16 1198.27 16 1206C16 1213.73 22.268 1220 30 1220C37.732 1220 44 1213.73 44 1206C44 1198.27 37.732 1192 30 1192ZM62 1192C54.268 1192 48 1198.27 48 1206C48 1213.73 54.268 1220 62 1220C69.732 1220 76 1213.73 76 1206C76 1198.27 69.732 1192 62 1192ZM94 1192C86.268 1192 80 1198.27 80 1206C80 1213.73 86.268 1220 94 1220C101.732 1220 108 1213.73 108 1206C108 1198.27 101.732 1192 94 1192ZM171 1192C163.268 1192 157 1198.27 157 1206C157 1213.73 163.268 1220 171 1220C178.732 1220 185 1213.73 185 1206C185 1198.27 178.732 1192 171 1192ZM203 1192C195.268 1192 189 1198.27 189 1206C189 1213.73 195.268 1220 203 1220C210.732 1220 217 1213.73 217 1206C217 1198.27 210.732 1192 203 1192ZM235 1192C227.268 1192 221 1198.27 221 1206C221 1213.73 227.268 1220 235 1220C242.732 1220 249 1213.73 249 1206C249 1198.27 242.732 1192 235 1192ZM312 1192C304.268 1192 298 1198.27 298 1206C298 1213.73 304.268 1220 312 1220C319.732 1220 326 1213.73 326 1206C326 1198.27 319.732 1192 312 1192ZM344 1192C336.268 1192 330 1198.27 330 1206C330 1213.73 336.268 1220 344 1220C351.732 1220 358 1213.73 358 1206C358 1198.27 351.732 1192 344 1192ZM376 1192C368.268 1192 362 1198.27 362 1206C362 1213.73 368.268 1220 376 1220C383.732 1220 390 1213.73 390 1206C390 1198.27 383.732 1192 376 1192ZM30 1144C22.268 1144 16 1150.27 16 1158C16 1165.73 22.268 1172 30 1172C37.732 1172 44 1165.73 44 1158C44 1150.27 37.732 1144 30 1144ZM62 1144C54.268 1144 48 1150.27 48 1158C48 1165.73 54.268 1172 62 1172C69.732 1172 76 1165.73 76 1158C76 1150.27 69.732 1144 62 1144ZM94 1144C86.268 1144 80 1150.27 80 1158C80 1165.73 86.268 1172 94 1172C101.732 1172 108 1165.73 108 1158C108 1150.27 101.732 1144 94 1144ZM171 1144C163.268 1144 157 1150.27 157 1158C157 1165.73 163.268 1172 171 1172C178.732 1172 185 1165.73 185 1158C185 1150.27 178.732 1144 171 1144ZM203 1144C195.268 1144 189 1150.27 189 1158C189 1165.73 195.268 1172 203 1172C210.732 1172 217 1165.73 217 1158C217 1150.27 210.732 1144 203 1144ZM235 1144C227.268 1144 221 1150.27 221 1158C221 1165.73 227.268 1172 235 1172C242.732 1172 249 1165.73 249 1158C249 1150.27 242.732 1144 235 1144ZM312 1144C304.268 1144 298 1150.27 298 1158C298 1165.73 304.268 1172 312 1172C319.732 1172 326 1165.73 326 1158C326 1150.27 319.732 1144 312 1144ZM344 1144C336.268 1144 330 1150.27 330 1158C330 1165.73 336.268 1172 344 1172C351.732 1172 358 1165.73 358 1158C358 1150.27 351.732 1144 344 1144ZM376 1144C368.268 1144 362 1150.27 362 1158C362 1165.73 368.268 1172 376 1172C383.732 1172 390 1165.73 390 1158C390 1150.27 383.732 1144 376 1144ZM30 1096C22.268 1096 16 1102.27 16 1110C16 1117.73 22.268 1124 30 1124C37.732 1124 44 1117.73 44 1110C44 1102.27 37.732 1096 30 1096ZM62 1096C54.268 1096 48 1102.27 48 1110C48 1117.73 54.268 1124 62 1124C69.732 1124 76 1117.73 76 1110C76 1102.27 69.732 1096 62 1096ZM94 1096C86.268 1096 80 1102.27 80 1110C80 1117.73 86.268 1124 94 1124C101.732 1124 108 1117.73 108 1110C108 1102.27 101.732 1096 94 1096ZM171 1096C163.268 1096 157 1102.27 157 1110C157 1117.73 163.268 1124 171 1124C178.732 1124 185 1117.73 185 1110C185 1102.27 178.732 1096 171 1096ZM203 1096C195.268 1096 189 1102.27 189 1110C189 1117.73 195.268 1124 203 1124C210.732 1124 217 1117.73 217 1110C217 1102.27 210.732 1096 203 1096ZM235 1096C227.268 1096 221 1102.27 221 1110C221 1117.73 227.268 1124 235 1124C242.732 1124 249 1117.73 249 1110C249 1102.27 242.732 1096 235 1096ZM312 1096C304.268 1096 298 1102.27 298 1110C298 1117.73 304.268 1124 312 1124C319.732 1124 326 1117.73 326 1110C326 1102.27 319.732 1096 312 1096ZM344 1096C336.268 1096 330 1102.27 330 1110C330 1117.73 336.268 1124 344 1124C351.732 1124 358 1117.73 358 1110C358 1102.27 351.732 1096 344 1096ZM376 1096C368.268 1096 362 1102.27 362 1110C362 1117.73 368.268 1124 376 1124C383.732 1124 390 1117.73 390 1110C390 1102.27 383.732 1096 376 1096ZM30 1048C22.268 1048 16 1054.27 16 1062C16 1069.73 22.268 1076 30 1076C37.732 1076 44 1069.73 44 1062C44 1054.27 37.732 1048 30 1048ZM62 1048C54.268 1048 48 1054.27 48 1062C48 1069.73 54.268 1076 62 1076C69.732 1076 76 1069.73 76 1062C76 1054.27 69.732 1048 62 1048ZM94 1048C86.268 1048 80 1054.27 80 1062C80 1069.73 86.268 1076 94 1076C101.732 1076 108 1069.73 108 1062C108 1054.27 101.732 1048 94 1048ZM171 1048C163.268 1048 157 1054.27 157 1062C157 1069.73 163.268 1076 171 1076C178.732 1076 185 1069.73 185 1062C185 1054.27 178.732 1048 171 1048ZM203 1048C195.268 1048 189 1054.27 189 1062C189 1069.73 195.268 1076 203 1076C210.732 1076 217 1069.73 217 1062C217 1054.27 210.732 1048 203 1048ZM235 1048C227.268 1048 221 1054.27 221 1062C221 1069.73 227.268 1076 235 1076C242.732 1076 249 1069.73 249 1062C249 1054.27 242.732 1048 235 1048ZM312 1048C304.268 1048 298 1054.27 298 1062C298 1069.73 304.268 1076 312 1076C319.732 1076 326 1069.73 326 1062C326 1054.27 319.732 1048 312 1048ZM344 1048C336.268 1048 330 1054.27 330 1062C330 1069.73 336.268 1076 344 1076C351.732 1076 358 1069.73 358 1062C358 1054.27 351.732 1048 344 1048ZM376 1048C368.268 1048 362 1054.27 362 1062C362 1069.73 368.268 1076 376 1076C383.732 1076 390 1069.73 390 1062C390 1054.27 383.732 1048 376 1048ZM30 1000C22.268 1000 16 1006.27 16 1014C16 1021.73 22.268 1028 30 1028C37.732 1028 44 1021.73 44 1014C44 1006.27 37.732 1000 30 1000ZM62 1000C54.268 1000 48 1006.27 48 1014C48 1021.73 54.268 1028 62 1028C69.732 1028 76 1021.73 76 1014C76 1006.27 69.732 1000 62 1000ZM94 1000C86.268 1000 80 1006.27 80 1014C80 1021.73 86.268 1028 94 1028C101.732 1028 108 1021.73 108 1014C108 1006.27 101.732 1000 94 1000ZM171 1000C163.268 1000 157 1006.27 157 1014C157 1021.73 163.268 1028 171 1028C178.732 1028 185 1021.73 185 1014C185 1006.27 178.732 1000 171 1000ZM203 1000C195.268 1000 189 1006.27 189 1014C189 1021.73 195.268 1028 203 1028C210.732 1028 217 1021.73 217 1014C217 1006.27 210.732 1000 203 1000ZM235 1000C227.268 1000 221 1006.27 221 1014C221 1021.73 227.268 1028 235 1028C242.732 1028 249 1021.73 249 1014C249 1006.27 242.732 1000 235 1000ZM312 1000C304.268 1000 298 1006.27 298 1014C298 1021.73 304.268 1028 312 1028C319.732 1028 326 1021.73 326 1014C326 1006.27 319.732 1000 312 1000ZM344 1000C336.268 1000 330 1006.27 330 1014C330 1021.73 336.268 1028 344 1028C351.732 1028 358 1021.73 358 1014C358 1006.27 351.732 1000 344 1000ZM376 1000C368.268 1000 362 1006.27 362 1014C362 1021.73 368.268 1028 376 1028C383.732 1028 390 1021.73 390 1014C390 1006.27 383.732 1000 376 1000ZM30 952C22.268 952 16 958.268 16 966C16 973.732 22.268 980 30 980C37.732 980 44 973.732 44 966C44 958.268 37.732 952 30 952ZM62 952C54.268 952 48 958.268 48 966C48 973.732 54.268 980 62 980C69.732 980 76 973.732 76 966C76 958.268 69.732 952 62 952ZM94 952C86.268 952 80 958.268 80 966C80 973.732 86.268 980 94 980C101.732 980 108 973.732 108 966C108 958.268 101.732 952 94 952ZM171 952C163.268 952 157 958.268 157 966C157 973.732 163.268 980 171 980C178.732 980 185 973.732 185 966C185 958.268 178.732 952 171 952ZM203 952C195.268 952 189 958.268 189 966C189 973.732 195.268 980 203 980C210.732 980 217 973.732 217 966C217 958.268 210.732 952 203 952ZM235 952C227.268 952 221 958.268 221 966C221 973.732 227.268 980 235 980C242.732 980 249 973.732 249 966C249 958.268 242.732 952 235 952ZM312 952C304.268 952 298 958.268 298 966C298 973.732 304.268 980 312 980C319.732 980 326 973.732 326 966C326 958.268 319.732 952 312 952ZM344 952C336.268 952 330 958.268 330 966C330 973.732 336.268 980 344 980C351.732 980 358 973.732 358 966C358 958.268 351.732 952 344 952ZM376 952C368.268 952 362 958.268 362 966C362 973.732 368.268 980 376 980C383.732 980 390 973.732 390 966C390 958.268 383.732 952 376 952ZM30 904C22.268 904 16 910.268 16 918C16 925.732 22.268 932 30 932C37.732 932 44 925.732 44 918C44 910.268 37.732 904 30 904ZM62 904C54.268 904 48 910.268 48 918C48 925.732 54.268 932 62 932C69.732 932 76 925.732 76 918C76 910.268 69.732 904 62 904ZM94 904C86.268 904 80 910.268 80 918C80 925.732 86.268 932 94 932C101.732 932 108 925.732 108 918C108 910.268 101.732 904 94 904ZM171 904C163.268 904 157 910.268 157 918C157 925.732 163.268 932 171 932C178.732 932 185 925.732 185 918C185 910.268 178.732 904 171 904ZM203 904C195.268 904 189 910.268 189 918C189 925.732 195.268 932 203 932C210.732 932 217 925.732 217 918C217 910.268 210.732 904 203 904ZM235 904C227.268 904 221 910.268 221 918C221 925.732 227.268 932 235 932C242.732 932 249 925.732 249 918C249 910.268 242.732 904 235 904ZM312 904C304.268 904 298 910.268 298 918C298 925.732 304.268 932 312 932C319.732 932 326 925.732 326 918C326 910.268 319.732 904 312 904ZM344 904C336.268 904 330 910.268 330 918C330 925.732 336.268 932 344 932C351.732 932 358 925.732 358 918C358 910.268 351.732 904 344 904ZM376 904C368.268 904 362 910.268 362 918C362 925.732 368.268 932 376 932C383.732 932 390 925.732 390 918C390 910.268 383.732 904 376 904ZM30 856C22.268 856 16 862.268 16 870C16 877.732 22.268 884 30 884C37.732 884 44 877.732 44 870C44 862.268 37.732 856 30 856ZM62 856C54.268 856 48 862.268 48 870C48 877.732 54.268 884 62 884C69.732 884 76 877.732 76 870C76 862.268 69.732 856 62 856ZM94 856C86.268 856 80 862.268 80 870C80 877.732 86.268 884 94 884C101.732 884 108 877.732 108 870C108 862.268 101.732 856 94 856ZM171 856C163.268 856 157 862.268 157 870C157 877.732 163.268 884 171 884C178.732 884 185 877.732 185 870C185 862.268 178.732 856 171 856ZM203 856C195.268 856 189 862.268 189 870C189 877.732 195.268 884 203 884C210.732 884 217 877.732 217 870C217 862.268 210.732 856 203 856ZM235 856C227.268 856 221 862.268 221 870C221 877.732 227.268 884 235 884C242.732 884 249 877.732 249 870C249 862.268 242.732 856 235 856ZM312 856C304.268 856 298 862.268 298 870C298 877.732 304.268 884 312 884C319.732 884 326 877.732 326 870C326 862.268 319.732 856 312 856ZM344 856C336.268 856 330 862.268 330 870C330 877.732 336.268 884 344 884C351.732 884 358 877.732 358 870C358 862.268 351.732 856 344 856ZM376 856C368.268 856 362 862.268 362 870C362 877.732 368.268 884 376 884C383.732 884 390 877.732 390 870C390 862.268 383.732 856 376 856ZM30 808C22.268 808 16 814.268 16 822C16 829.732 22.268 836 30 836C37.732 836 44 829.732 44 822C44 814.268 37.732 808 30 808ZM62 808C54.268 808 48 814.268 48 822C48 829.732 54.268 836 62 836C69.732 836 76 829.732 76 822C76 814.268 69.732 808 62 808ZM94 808C86.268 808 80 814.268 80 822C80 829.732 86.268 836 94 836C101.732 836 108 829.732 108 822C108 814.268 101.732 808 94 808ZM171 808C163.268 808 157 814.268 157 822C157 829.732 163.268 836 171 836C178.732 836 185 829.732 185 822C185 814.268 178.732 808 171 808ZM203 808C195.268 808 189 814.268 189 822C189 829.732 195.268 836 203 836C210.732 836 217 829.732 217 822C217 814.268 210.732 808 203 808ZM235 808C227.268 808 221 814.268 221 822C221 829.732 227.268 836 235 836C242.732 836 249 829.732 249 822C249 814.268 242.732 808 235 808ZM312 808C304.268 808 298 814.268 298 822C298 829.732 304.268 836 312 836C319.732 836 326 829.732 326 822C326 814.268 319.732 808 312 808ZM344 808C336.268 808 330 814.268 330 822C330 829.732 336.268 836 344 836C351.732 836 358 829.732 358 822C358 814.268 351.732 808 344 808ZM376 808C368.268 808 362 814.268 362 822C362 829.732 368.268 836 376 836C383.732 836 390 829.732 390 822C390 814.268 383.732 808 376 808ZM30 760C22.268 760 16 766.268 16 774C16 781.732 22.268 788 30 788C37.732 788 44 781.732 44 774C44 766.268 37.732 760 30 760ZM62 760C54.268 760 48 766.268 48 774C48 781.732 54.268 788 62 788C69.732 788 76 781.732 76 774C76 766.268 69.732 760 62 760ZM94 760C86.268 760 80 766.268 80 774C80 781.732 86.268 788 94 788C101.732 788 108 781.732 108 774C108 766.268 101.732 760 94 760ZM171 760C163.268 760 157 766.268 157 774C157 781.732 163.268 788 171 788C178.732 788 185 781.732 185 774C185 766.268 178.732 760 171 760ZM203 760C195.268 760 189 766.268 189 774C189 781.732 195.268 788 203 788C210.732 788 217 781.732 217 774C217 766.268 210.732 760 203 760ZM235 760C227.268 760 221 766.268 221 774C221 781.732 227.268 788 235 788C242.732 788 249 781.732 249 774C249 766.268 242.732 760 235 760ZM312 760C304.268 760 298 766.268 298 774C298 781.732 304.268 788 312 788C319.732 788 326 781.732 326 774C326 766.268 319.732 760 312 760ZM344 760C336.268 760 330 766.268 330 774C330 781.732 336.268 788 344 788C351.732 788 358 781.732 358 774C358 766.268 351.732 760 344 760ZM376 760C368.268 760 362 766.268 362 774C362 781.732 368.268 788 376 788C383.732 788 390 781.732 390 774C390 766.268 383.732 760 376 760ZM30 712C22.268 712 16 718.268 16 726C16 733.732 22.268 740 30 740C37.732 740 44 733.732 44 726C44 718.268 37.732 712 30 712ZM62 712C54.268 712 48 718.268 48 726C48 733.732 54.268 740 62 740C69.732 740 76 733.732 76 726C76 718.268 69.732 712 62 712ZM94 712C86.268 712 80 718.268 80 726C80 733.732 86.268 740 94 740C101.732 740 108 733.732 108 726C108 718.268 101.732 712 94 712ZM171 712C163.268 712 157 718.268 157 726C157 733.732 163.268 740 171 740C178.732 740 185 733.732 185 726C185 718.268 178.732 712 171 712ZM203 712C195.268 712 189 718.268 189 726C189 733.732 195.268 740 203 740C210.732 740 217 733.732 217 726C217 718.268 210.732 712 203 712ZM235 712C227.268 712 221 718.268 221 726C221 733.732 227.268 740 235 740C242.732 740 249 733.732 249 726C249 718.268 242.732 712 235 712ZM312 712C304.268 712 298 718.268 298 726C298 733.732 304.268 740 312 740C319.732 740 326 733.732 326 726C326 718.268 319.732 712 312 712ZM344 712C336.268 712 330 718.268 330 726C330 733.732 336.268 740 344 740C351.732 740 358 733.732 358 726C358 718.268 351.732 712 344 712ZM376 712C368.268 712 362 718.268 362 726C362 733.732 368.268 740 376 740C383.732 740 390 733.732 390 726C390 718.268 383.732 712 376 712ZM30 664C22.268 664 16 670.268 16 678C16 685.732 22.268 692 30 692C37.732 692 44 685.732 44 678C44 670.268 37.732 664 30 664ZM62 664C54.268 664 48 670.268 48 678C48 685.732 54.268 692 62 692C69.732 692 76 685.732 76 678C76 670.268 69.732 664 62 664ZM94 664C86.268 664 80 670.268 80 678C80 685.732 86.268 692 94 692C101.732 692 108 685.732 108 678C108 670.268 101.732 664 94 664ZM171 664C163.268 664 157 670.268 157 678C157 685.732 163.268 692 171 692C178.732 692 185 685.732 185 678C185 670.268 178.732 664 171 664ZM203 664C195.268 664 189 670.268 189 678C189 685.732 195.268 692 203 692C210.732 692 217 685.732 217 678C217 670.268 210.732 664 203 664ZM235 664C227.268 664 221 670.268 221 678C221 685.732 227.268 692 235 692C242.732 692 249 685.732 249 678C249 670.268 242.732 664 235 664ZM312 664C304.268 664 298 670.268 298 678C298 685.732 304.268 692 312 692C319.732 692 326 685.732 326 678C326 670.268 319.732 664 312 664ZM344 664C336.268 664 330 670.268 330 678C330 685.732 336.268 692 344 692C351.732 692 358 685.732 358 678C358 670.268 351.732 664 344 664ZM376 664C368.268 664 362 670.268 362 678C362 685.732 368.268 692 376 692C383.732 692 390 685.732 390 678C390 670.268 383.732 664 376 664ZM30 616C22.268 616 16 622.268 16 630C16 637.732 22.268 644 30 644C37.732 644 44 637.732 44 630C44 622.268 37.732 616 30 616ZM62 616C54.268 616 48 622.268 48 630C48 637.732 54.268 644 62 644C69.732 644 76 637.732 76 630C76 622.268 69.732 616 62 616ZM94 616C86.268 616 80 622.268 80 630C80 637.732 86.268 644 94 644C101.732 644 108 637.732 108 630C108 622.268 101.732 616 94 616ZM171 616C163.268 616 157 622.268 157 630C157 637.732 163.268 644 171 644C178.732 644 185 637.732 185 630C185 622.268 178.732 616 171 616ZM203 616C195.268 616 189 622.268 189 630C189 637.732 195.268 644 203 644C210.732 644 217 637.732 217 630C217 622.268 210.732 616 203 616ZM235 616C227.268 616 221 622.268 221 630C221 637.732 227.268 644 235 644C242.732 644 249 637.732 249 630C249 622.268 242.732 616 235 616ZM312 616C304.268 616 298 622.268 298 630C298 637.732 304.268 644 312 644C319.732 644 326 637.732 326 630C326 622.268 319.732 616 312 616ZM344 616C336.268 616 330 622.268 330 630C330 637.732 336.268 644 344 644C351.732 644 358 637.732 358 630C358 622.268 351.732 616 344 616ZM376 616C368.268 616 362 622.268 362 630C362 637.732 368.268 644 376 644C383.732 644 390 637.732 390 630C390 622.268 383.732 616 376 616ZM30 568C22.268 568 16 574.268 16 582C16 589.732 22.268 596 30 596C37.732 596 44 589.732 44 582C44 574.268 37.732 568 30 568ZM62 568C54.268 568 48 574.268 48 582C48 589.732 54.268 596 62 596C69.732 596 76 589.732 76 582C76 574.268 69.732 568 62 568ZM94 568C86.268 568 80 574.268 80 582C80 589.732 86.268 596 94 596C101.732 596 108 589.732 108 582C108 574.268 101.732 568 94 568ZM171 568C163.268 568 157 574.268 157 582C157 589.732 163.268 596 171 596C178.732 596 185 589.732 185 582C185 574.268 178.732 568 171 568ZM203 568C195.268 568 189 574.268 189 582C189 589.732 195.268 596 203 596C210.732 596 217 589.732 217 582C217 574.268 210.732 568 203 568ZM235 568C227.268 568 221 574.268 221 582C221 589.732 227.268 596 235 596C242.732 596 249 589.732 249 582C249 574.268 242.732 568 235 568ZM312 568C304.268 568 298 574.268 298 582C298 589.732 304.268 596 312 596C319.732 596 326 589.732 326 582C326 574.268 319.732 568 312 568ZM344 568C336.268 568 330 574.268 330 582C330 589.732 336.268 596 344 596C351.732 596 358 589.732 358 582C358 574.268 351.732 568 344 568ZM376 568C368.268 568 362 574.268 362 582C362 589.732 368.268 596 376 596C383.732 596 390 589.732 390 582C390 574.268 383.732 568 376 568ZM18 500C16.8954 500 16 500.895 16 502V534C16 535.105 16.8954 536 18 536H388C389.105 536 390 535.105 390 534V502C390 500.895 389.105 500 388 500H18ZM30 424C22.268 424 16 430.268 16 438C16 445.732 22.268 452 30 452C37.732 452 44 445.732 44 438C44 430.268 37.732 424 30 424ZM62 424C54.268 424 48 430.268 48 438C48 445.732 54.268 452 62 452C69.732 452 76 445.732 76 438C76 430.268 69.732 424 62 424ZM94 424C86.268 424 80 430.268 80 438C80 445.732 86.268 452 94 452C101.732 452 108 445.732 108 438C108 430.268 101.732 424 94 424ZM171 424C163.268 424 157 430.268 157 438C157 445.732 163.268 452 171 452C178.732 452 185 445.732 185 438C185 430.268 178.732 424 171 424ZM203 424C195.268 424 189 430.268 189 438C189 445.732 195.268 452 203 452C210.732 452 217 445.732 217 438C217 430.268 210.732 424 203 424ZM235 424C227.268 424 221 430.268 221 438C221 445.732 227.268 452 235 452C242.732 452 249 445.732 249 438C249 430.268 242.732 424 235 424ZM312 424C304.268 424 298 430.268 298 438C298 445.732 304.268 452 312 452C319.732 452 326 445.732 326 438C326 430.268 319.732 424 312 424ZM344 424C336.268 424 330 430.268 330 438C330 445.732 336.268 452 344 452C351.732 452 358 445.732 358 438C358 430.268 351.732 424 344 424ZM376 424C368.268 424 362 430.268 362 438C362 445.732 368.268 452 376 452C383.732 452 390 445.732 390 438C390 430.268 383.732 424 376 424ZM30 376C22.268 376 16 382.268 16 390C16 397.732 22.268 404 30 404C37.732 404 44 397.732 44 390C44 382.268 37.732 376 30 376ZM62 376C54.268 376 48 382.268 48 390C48 397.732 54.268 404 62 404C69.732 404 76 397.732 76 390C76 382.268 69.732 376 62 376ZM94 376C86.268 376 80 382.268 80 390C80 397.732 86.268 404 94 404C101.732 404 108 397.732 108 390C108 382.268 101.732 376 94 376ZM171 376C163.268 376 157 382.268 157 390C157 397.732 163.268 404 171 404C178.732 404 185 397.732 185 390C185 382.268 178.732 376 171 376ZM203 376C195.268 376 189 382.268 189 390C189 397.732 195.268 404 203 404C210.732 404 217 397.732 217 390C217 382.268 210.732 376 203 376ZM235 376C227.268 376 221 382.268 221 390C221 397.732 227.268 404 235 404C242.732 404 249 397.732 249 390C249 382.268 242.732 376 235 376ZM312 376C304.268 376 298 382.268 298 390C298 397.732 304.268 404 312 404C319.732 404 326 397.732 326 390C326 382.268 319.732 376 312 376ZM344 376C336.268 376 330 382.268 330 390C330 397.732 336.268 404 344 404C351.732 404 358 397.732 358 390C358 382.268 351.732 376 344 376ZM376 376C368.268 376 362 382.268 362 390C362 397.732 368.268 404 376 404C383.732 404 390 397.732 390 390C390 382.268 383.732 376 376 376ZM30 328C22.268 328 16 334.268 16 342C16 349.732 22.268 356 30 356C37.732 356 44 349.732 44 342C44 334.268 37.732 328 30 328ZM62 328C54.268 328 48 334.268 48 342C48 349.732 54.268 356 62 356C69.732 356 76 349.732 76 342C76 334.268 69.732 328 62 328ZM94 328C86.268 328 80 334.268 80 342C80 349.732 86.268 356 94 356C101.732 356 108 349.732 108 342C108 334.268 101.732 328 94 328ZM171 328C163.268 328 157 334.268 157 342C157 349.732 163.268 356 171 356C178.732 356 185 349.732 185 342C185 334.268 178.732 328 171 328ZM203 328C195.268 328 189 334.268 189 342C189 349.732 195.268 356 203 356C210.732 356 217 349.732 217 342C217 334.268 210.732 328 203 328ZM235 328C227.268 328 221 334.268 221 342C221 349.732 227.268 356 235 356C242.732 356 249 349.732 249 342C249 334.268 242.732 328 235 328ZM312 328C304.268 328 298 334.268 298 342C298 349.732 304.268 356 312 356C319.732 356 326 349.732 326 342C326 334.268 319.732 328 312 328ZM344 328C336.268 328 330 334.268 330 342C330 349.732 336.268 356 344 356C351.732 356 358 349.732 358 342C358 334.268 351.732 328 344 328ZM376 328C368.268 328 362 334.268 362 342C362 349.732 368.268 356 376 356C383.732 356 390 349.732 390 342C390 334.268 383.732 328 376 328ZM30 280C22.268 280 16 286.268 16 294C16 301.732 22.268 308 30 308C37.732 308 44 301.732 44 294C44 286.268 37.732 280 30 280ZM62 280C54.268 280 48 286.268 48 294C48 301.732 54.268 308 62 308C69.732 308 76 301.732 76 294C76 286.268 69.732 280 62 280ZM94 280C86.268 280 80 286.268 80 294C80 301.732 86.268 308 94 308C101.732 308 108 301.732 108 294C108 286.268 101.732 280 94 280ZM171 280C163.268 280 157 286.268 157 294C157 301.732 163.268 308 171 308C178.732 308 185 301.732 185 294C185 286.268 178.732 280 171 280ZM203 280C195.268 280 189 286.268 189 294C189 301.732 195.268 308 203 308C210.732 308 217 301.732 217 294C217 286.268 210.732 280 203 280ZM235 280C227.268 280 221 286.268 221 294C221 301.732 227.268 308 235 308C242.732 308 249 301.732 249 294C249 286.268 242.732 280 235 280ZM312 280C304.268 280 298 286.268 298 294C298 301.732 304.268 308 312 308C319.732 308 326 301.732 326 294C326 286.268 319.732 280 312 280ZM344 280C336.268 280 330 286.268 330 294C330 301.732 336.268 308 344 308C351.732 308 358 301.732 358 294C358 286.268 351.732 280 344 280ZM376 280C368.268 280 362 286.268 362 294C362 301.732 368.268 308 376 308C383.732 308 390 301.732 390 294C390 286.268 383.732 280 376 280ZM30 232C22.268 232 16 238.268 16 246C16 253.732 22.268 260 30 260C37.732 260 44 253.732 44 246C44 238.268 37.732 232 30 232ZM62 232C54.268 232 48 238.268 48 246C48 253.732 54.268 260 62 260C69.732 260 76 253.732 76 246C76 238.268 69.732 232 62 232ZM94 232C86.268 232 80 238.268 80 246C80 253.732 86.268 260 94 260C101.732 260 108 253.732 108 246C108 238.268 101.732 232 94 232ZM171 232C163.268 232 157 238.268 157 246C157 253.732 163.268 260 171 260C178.732 260 185 253.732 185 246C185 238.268 178.732 232 171 232ZM203 232C195.268 232 189 238.268 189 246C189 253.732 195.268 260 203 260C210.732 260 217 253.732 217 246C217 238.268 210.732 232 203 232ZM235 232C227.268 232 221 238.268 221 246C221 253.732 227.268 260 235 260C242.732 260 249 253.732 249 246C249 238.268 242.732 232 235 232ZM312 232C304.268 232 298 238.268 298 246C298 253.732 304.268 260 312 260C319.732 260 326 253.732 326 246C326 238.268 319.732 232 312 232ZM344 232C336.268 232 330 238.268 330 246C330 253.732 336.268 260 344 260C351.732 260 358 253.732 358 246C358 238.268 351.732 232 344 232ZM376 232C368.268 232 362 238.268 362 246C362 253.732 368.268 260 376 260C383.732 260 390 253.732 390 246C390 238.268 383.732 232 376 232ZM30 184C22.268 184 16 190.268 16 198C16 205.732 22.268 212 30 212C37.732 212 44 205.732 44 198C44 190.268 37.732 184 30 184ZM62 184C54.268 184 48 190.268 48 198C48 205.732 54.268 212 62 212C69.732 212 76 205.732 76 198C76 190.268 69.732 184 62 184ZM94 184C86.268 184 80 190.268 80 198C80 205.732 86.268 212 94 212C101.732 212 108 205.732 108 198C108 190.268 101.732 184 94 184ZM171 184C163.268 184 157 190.268 157 198C157 205.732 163.268 212 171 212C178.732 212 185 205.732 185 198C185 190.268 178.732 184 171 184ZM203 184C195.268 184 189 190.268 189 198C189 205.732 195.268 212 203 212C210.732 212 217 205.732 217 198C217 190.268 210.732 184 203 184ZM235 184C227.268 184 221 190.268 221 198C221 205.732 227.268 212 235 212C242.732 212 249 205.732 249 198C249 190.268 242.732 184 235 184ZM312 184C304.268 184 298 190.268 298 198C298 205.732 304.268 212 312 212C319.732 212 326 205.732 326 198C326 190.268 319.732 184 312 184ZM344 184C336.268 184 330 190.268 330 198C330 205.732 336.268 212 344 212C351.732 212 358 205.732 358 198C358 190.268 351.732 184 344 184ZM376 184C368.268 184 362 190.268 362 198C362 205.732 368.268 212 376 212C383.732 212 390 205.732 390 198C390 190.268 383.732 184 376 184ZM18 116C16.8954 116 16 116.895 16 118V150C16 151.105 16.8954 152 18 152H388C389.105 152 390 151.105 390 150V118C390 116.895 389.105 116 388 116H18ZM34 40C26.268 40 20 46.268 20 54C20 61.732 26.268 68 34 68C41.732 68 48 61.732 48 54C48 46.268 41.732 40 34 40ZM372 40C364.268 40 358 46.268 358 54C358 61.732 364.268 68 372 68C379.732 68 386 61.732 386 54C386 46.268 379.732 40 372 40Z" fill="white"/>
</svg>
