<svg width="360" height="2372" viewBox="0 0 360 2372" fill="none" xmlns="http://www.w3.org/2000/svg">
<g clip-path="url(#clip0_6_420)">
<path fill-rule="evenodd" clip-rule="evenodd" d="M0 0H360V2372H0V0ZM40 64C51.0457 64 60 55.0457 60 44C60 32.9543 51.0457 24 40 24C28.9543 24 20 32.9543 20 44C20 55.0457 28.9543 64 40 64ZM4 81C4 79.8954 4.89543 79 6 79H14C15.1046 79 16 79.8954 16 81V101C16 102.105 15.1046 103 14 103H6C4.89543 103 4 102.105 4 101V81ZM346 79C344.895 79 344 79.8954 344 81V101C344 102.105 344.895 103 346 103H354C355.105 103 356 102.105 356 101V81C356 79.8954 355.105 79 354 79H346ZM20 162C20 160.895 20.8954 160 22 160H338C339.105 160 340 160.895 340 162V194C340 195.105 339.105 196 338 196H22C20.8954 196 20 195.105 20 194V162ZM40 268C51.0457 268 60 259.046 60 248C60 236.954 51.0457 228 40 228C28.9543 228 20 236.954 20 248C20 259.046 28.9543 268 40 268ZM156 248C156 259.046 147.046 268 136 268C124.954 268 116 259.046 116 248C116 236.954 124.954 228 136 228C147.046 228 156 236.954 156 248ZM224 268C235.046 268 244 259.046 244 248C244 236.954 235.046 228 224 228C212.954 228 204 236.954 204 248C204 259.046 212.954 268 224 268ZM340 248C340 259.046 331.046 268 320 268C308.954 268 300 259.046 300 248C300 236.954 308.954 228 320 228C331.046 228 340 236.954 340 248ZM40 328C51.0457 328 60 319.046 60 308C60 296.954 51.0457 288 40 288C28.9543 288 20 296.954 20 308C20 319.046 28.9543 328 40 328ZM156 308C156 319.046 147.046 328 136 328C124.954 328 116 319.046 116 308C116 296.954 124.954 288 136 288C147.046 288 156 296.954 156 308ZM224 328C235.046 328 244 319.046 244 308C244 296.954 235.046 288 224 288C212.954 288 204 296.954 204 308C204 319.046 212.954 328 224 328ZM340 308C340 319.046 331.046 328 320 328C308.954 328 300 319.046 300 308C300 296.954 308.954 288 320 288C331.046 288 340 296.954 340 308ZM40 388C51.0457 388 60 379.046 60 368C60 356.954 51.0457 348 40 348C28.9543 348 20 356.954 20 368C20 379.046 28.9543 388 40 388ZM156 368C156 379.046 147.046 388 136 388C124.954 388 116 379.046 116 368C116 356.954 124.954 348 136 348C147.046 348 156 356.954 156 368ZM224 388C235.046 388 244 379.046 244 368C244 356.954 235.046 348 224 348C212.954 348 204 356.954 204 368C204 379.046 212.954 388 224 388ZM340 368C340 379.046 331.046 388 320 388C308.954 388 300 379.046 300 368C300 356.954 308.954 348 320 348C331.046 348 340 356.954 340 368ZM22 436C20.8954 436 20 436.895 20 438V470C20 471.105 20.8954 472 22 472H338C339.105 472 340 471.105 340 470V438C340 436.895 339.105 436 338 436H22ZM60 540C60 551.046 51.0457 560 40 560C28.9543 560 20 551.046 20 540C20 528.954 28.9543 520 40 520C51.0457 520 60 528.954 60 540ZM88 560C99.0457 560 108 551.046 108 540C108 528.954 99.0457 520 88 520C76.9543 520 68 528.954 68 540C68 551.046 76.9543 560 88 560ZM156 540C156 551.046 147.046 560 136 560C124.954 560 116 551.046 116 540C116 528.954 124.954 520 136 520C147.046 520 156 528.954 156 540ZM224 560C235.046 560 244 551.046 244 540C244 528.954 235.046 520 224 520C212.954 520 204 528.954 204 540C204 551.046 212.954 560 224 560ZM292 540C292 551.046 283.046 560 272 560C260.954 560 252 551.046 252 540C252 528.954 260.954 520 272 520C283.046 520 292 528.954 292 540ZM320 560C331.046 560 340 551.046 340 540C340 528.954 331.046 520 320 520C308.954 520 300 528.954 300 540C300 551.046 308.954 560 320 560ZM20 610C20 608.895 20.8954 608 22 608H338C339.105 608 340 608.895 340 610V642C340 643.105 339.105 644 338 644H22C20.8954 644 20 643.105 20 642V610ZM40 732C51.0457 732 60 723.046 60 712C60 700.954 51.0457 692 40 692C28.9543 692 20 700.954 20 712C20 723.046 28.9543 732 40 732ZM108 712C108 723.046 99.0457 732 88 732C76.9543 732 68 723.046 68 712C68 700.954 76.9543 692 88 692C99.0457 692 108 700.954 108 712ZM136 732C147.046 732 156 723.046 156 712C156 700.954 147.046 692 136 692C124.954 692 116 700.954 116 712C116 723.046 124.954 732 136 732ZM244 712C244 723.046 235.046 732 224 732C212.954 732 204 723.046 204 712C204 700.954 212.954 692 224 692C235.046 692 244 700.954 244 712ZM272 732C283.046 732 292 723.046 292 712C292 700.954 283.046 692 272 692C260.954 692 252 700.954 252 712C252 723.046 260.954 732 272 732ZM340 712C340 723.046 331.046 732 320 732C308.954 732 300 723.046 300 712C300 700.954 308.954 692 320 692C331.046 692 340 700.954 340 712ZM40 792C51.0457 792 60 783.046 60 772C60 760.954 51.0457 752 40 752C28.9543 752 20 760.954 20 772C20 783.046 28.9543 792 40 792ZM108 772C108 783.046 99.0457 792 88 792C76.9543 792 68 783.046 68 772C68 760.954 76.9543 752 88 752C99.0457 752 108 760.954 108 772ZM136 792C147.046 792 156 783.046 156 772C156 760.954 147.046 752 136 752C124.954 752 116 760.954 116 772C116 783.046 124.954 792 136 792ZM244 772C244 783.046 235.046 792 224 792C212.954 792 204 783.046 204 772C204 760.954 212.954 752 224 752C235.046 752 244 760.954 244 772ZM272 792C283.046 792 292 783.046 292 772C292 760.954 283.046 752 272 752C260.954 752 252 760.954 252 772C252 783.046 260.954 792 272 792ZM340 772C340 783.046 331.046 792 320 792C308.954 792 300 783.046 300 772C300 760.954 308.954 752 320 752C331.046 752 340 760.954 340 772ZM40 852C51.0457 852 60 843.046 60 832C60 820.954 51.0457 812 40 812C28.9543 812 20 820.954 20 832C20 843.046 28.9543 852 40 852ZM108 832C108 843.046 99.0457 852 88 852C76.9543 852 68 843.046 68 832C68 820.954 76.9543 812 88 812C99.0457 812 108 820.954 108 832ZM136 852C147.046 852 156 843.046 156 832C156 820.954 147.046 812 136 812C124.954 812 116 820.954 116 832C116 843.046 124.954 852 136 852ZM244 832C244 843.046 235.046 852 224 852C212.954 852 204 843.046 204 832C204 820.954 212.954 812 224 812C235.046 812 244 820.954 244 832ZM272 852C283.046 852 292 843.046 292 832C292 820.954 283.046 812 272 812C260.954 812 252 820.954 252 832C252 843.046 260.954 852 272 852ZM340 832C340 843.046 331.046 852 320 852C308.954 852 300 843.046 300 832C300 820.954 308.954 812 320 812C331.046 812 340 820.954 340 832ZM40 912C51.0457 912 60 903.046 60 892C60 880.954 51.0457 872 40 872C28.9543 872 20 880.954 20 892C20 903.046 28.9543 912 40 912ZM108 892C108 903.046 99.0457 912 88 912C76.9543 912 68 903.046 68 892C68 880.954 76.9543 872 88 872C99.0457 872 108 880.954 108 892ZM136 912C147.046 912 156 903.046 156 892C156 880.954 147.046 872 136 872C124.954 872 116 880.954 116 892C116 903.046 124.954 912 136 912ZM244 892C244 903.046 235.046 912 224 912C212.954 912 204 903.046 204 892C204 880.954 212.954 872 224 872C235.046 872 244 880.954 244 892ZM272 912C283.046 912 292 903.046 292 892C292 880.954 283.046 872 272 872C260.954 872 252 880.954 252 892C252 903.046 260.954 912 272 912ZM340 892C340 903.046 331.046 912 320 912C308.954 912 300 903.046 300 892C300 880.954 308.954 872 320 872C331.046 872 340 880.954 340 892ZM40 972C51.0457 972 60 963.046 60 952C60 940.954 51.0457 932 40 932C28.9543 932 20 940.954 20 952C20 963.046 28.9543 972 40 972ZM108 952C108 963.046 99.0457 972 88 972C76.9543 972 68 963.046 68 952C68 940.954 76.9543 932 88 932C99.0457 932 108 940.954 108 952ZM136 972C147.046 972 156 963.046 156 952C156 940.954 147.046 932 136 932C124.954 932 116 940.954 116 952C116 963.046 124.954 972 136 972ZM244 952C244 963.046 235.046 972 224 972C212.954 972 204 963.046 204 952C204 940.954 212.954 932 224 932C235.046 932 244 940.954 244 952ZM272 972C283.046 972 292 963.046 292 952C292 940.954 283.046 932 272 932C260.954 932 252 940.954 252 952C252 963.046 260.954 972 272 972ZM340 952C340 963.046 331.046 972 320 972C308.954 972 300 963.046 300 952C300 940.954 308.954 932 320 932C331.046 932 340 940.954 340 952ZM22 1020C20.8954 1020 20 1020.9 20 1022V1054C20 1055.1 20.8954 1056 22 1056H338C339.105 1056 340 1055.1 340 1054V1022C340 1020.9 339.105 1020 338 1020H22ZM60 1124C60 1135.05 51.0457 1144 40 1144C28.9543 1144 20 1135.05 20 1124C20 1112.95 28.9543 1104 40 1104C51.0457 1104 60 1112.95 60 1124ZM88 1144C99.0457 1144 108 1135.05 108 1124C108 1112.95 99.0457 1104 88 1104C76.9543 1104 68 1112.95 68 1124C68 1135.05 76.9543 1144 88 1144ZM156 1124C156 1135.05 147.046 1144 136 1144C124.954 1144 116 1135.05 116 1124C116 1112.95 124.954 1104 136 1104C147.046 1104 156 1112.95 156 1124ZM224 1144C235.046 1144 244 1135.05 244 1124C244 1112.95 235.046 1104 224 1104C212.954 1104 204 1112.95 204 1124C204 1135.05 212.954 1144 224 1144ZM292 1124C292 1135.05 283.046 1144 272 1144C260.954 1144 252 1135.05 252 1124C252 1112.95 260.954 1104 272 1104C283.046 1104 292 1112.95 292 1124ZM320 1144C331.046 1144 340 1135.05 340 1124C340 1112.95 331.046 1104 320 1104C308.954 1104 300 1112.95 300 1124C300 1135.05 308.954 1144 320 1144ZM20 1194C20 1192.9 20.8954 1192 22 1192H338C339.105 1192 340 1192.9 340 1194V1226C340 1227.1 339.105 1228 338 1228H22C20.8954 1228 20 1227.1 20 1226V1194ZM40 1300C51.0457 1300 60 1291.05 60 1280C60 1268.95 51.0457 1260 40 1260C28.9543 1260 20 1268.95 20 1280C20 1291.05 28.9543 1300 40 1300ZM108 1280C108 1291.05 99.0457 1300 88 1300C76.9543 1300 68 1291.05 68 1280C68 1268.95 76.9543 1260 88 1260C99.0457 1260 108 1268.95 108 1280ZM136 1300C147.046 1300 156 1291.05 156 1280C156 1268.95 147.046 1260 136 1260C124.954 1260 116 1268.95 116 1280C116 1291.05 124.954 1300 136 1300ZM244 1280C244 1291.05 235.046 1300 224 1300C212.954 1300 204 1291.05 204 1280C204 1268.95 212.954 1260 224 1260C235.046 1260 244 1268.95 244 1280ZM272 1300C283.046 1300 292 1291.05 292 1280C292 1268.95 283.046 1260 272 1260C260.954 1260 252 1268.95 252 1280C252 1291.05 260.954 1300 272 1300ZM340 1280C340 1291.05 331.046 1300 320 1300C308.954 1300 300 1291.05 300 1280C300 1268.95 308.954 1260 320 1260C331.046 1260 340 1268.95 340 1280ZM6 1267C4.89543 1267 4 1267.9 4 1269V1289C4 1290.1 4.89543 1291 6 1291H14C15.1046 1291 16 1290.1 16 1289V1269C16 1267.9 15.1046 1267 14 1267H6ZM344 1269C344 1267.9 344.895 1267 346 1267H354C355.105 1267 356 1267.9 356 1269V1289C356 1290.1 355.105 1291 354 1291H346C344.895 1291 344 1290.1 344 1289V1269ZM22 1348C20.8954 1348 20 1348.9 20 1350V1382C20 1383.1 20.8954 1384 22 1384H338C339.105 1384 340 1383.1 340 1382V1350C340 1348.9 339.105 1348 338 1348H22ZM60 1452C60 1463.05 51.0457 1472 40 1472C28.9543 1472 20 1463.05 20 1452C20 1440.95 28.9543 1432 40 1432C51.0457 1432 60 1440.95 60 1452ZM88 1472C99.0457 1472 108 1463.05 108 1452C108 1440.95 99.0457 1432 88 1432C76.9543 1432 68 1440.95 68 1452C68 1463.05 76.9543 1472 88 1472ZM156 1452C156 1463.05 147.046 1472 136 1472C124.954 1472 116 1463.05 116 1452C116 1440.95 124.954 1432 136 1432C147.046 1432 156 1440.95 156 1452ZM224 1472C235.046 1472 244 1463.05 244 1452C244 1440.95 235.046 1432 224 1432C212.954 1432 204 1440.95 204 1452C204 1463.05 212.954 1472 224 1472ZM292 1452C292 1463.05 283.046 1472 272 1472C260.954 1472 252 1463.05 252 1452C252 1440.95 260.954 1432 272 1432C283.046 1432 292 1440.95 292 1452ZM320 1472C331.046 1472 340 1463.05 340 1452C340 1440.95 331.046 1432 320 1432C308.954 1432 300 1440.95 300 1452C300 1463.05 308.954 1472 320 1472ZM60 1512C60 1523.05 51.0457 1532 40 1532C28.9543 1532 20 1523.05 20 1512C20 1500.95 28.9543 1492 40 1492C51.0457 1492 60 1500.95 60 1512ZM88 1532C99.0457 1532 108 1523.05 108 1512C108 1500.95 99.0457 1492 88 1492C76.9543 1492 68 1500.95 68 1512C68 1523.05 76.9543 1532 88 1532ZM156 1512C156 1523.05 147.046 1532 136 1532C124.954 1532 116 1523.05 116 1512C116 1500.95 124.954 1492 136 1492C147.046 1492 156 1500.95 156 1512ZM224 1532C235.046 1532 244 1523.05 244 1512C244 1500.95 235.046 1492 224 1492C212.954 1492 204 1500.95 204 1512C204 1523.05 212.954 1532 224 1532ZM292 1512C292 1523.05 283.046 1532 272 1532C260.954 1532 252 1523.05 252 1512C252 1500.95 260.954 1492 272 1492C283.046 1492 292 1500.95 292 1512ZM320 1532C331.046 1532 340 1523.05 340 1512C340 1500.95 331.046 1492 320 1492C308.954 1492 300 1500.95 300 1512C300 1523.05 308.954 1532 320 1532ZM60 1572C60 1583.05 51.0457 1592 40 1592C28.9543 1592 20 1583.05 20 1572C20 1560.95 28.9543 1552 40 1552C51.0457 1552 60 1560.95 60 1572ZM88 1592C99.0457 1592 108 1583.05 108 1572C108 1560.95 99.0457 1552 88 1552C76.9543 1552 68 1560.95 68 1572C68 1583.05 76.9543 1592 88 1592ZM156 1572C156 1583.05 147.046 1592 136 1592C124.954 1592 116 1583.05 116 1572C116 1560.95 124.954 1552 136 1552C147.046 1552 156 1560.95 156 1572ZM224 1592C235.046 1592 244 1583.05 244 1572C244 1560.95 235.046 1552 224 1552C212.954 1552 204 1560.95 204 1572C204 1583.05 212.954 1592 224 1592ZM292 1572C292 1583.05 283.046 1592 272 1592C260.954 1592 252 1583.05 252 1572C252 1560.95 260.954 1552 272 1552C283.046 1552 292 1560.95 292 1572ZM320 1592C331.046 1592 340 1583.05 340 1572C340 1560.95 331.046 1552 320 1552C308.954 1552 300 1560.95 300 1572C300 1583.05 308.954 1592 320 1592ZM60 1632C60 1643.05 51.0457 1652 40 1652C28.9543 1652 20 1643.05 20 1632C20 1620.95 28.9543 1612 40 1612C51.0457 1612 60 1620.95 60 1632ZM88 1652C99.0457 1652 108 1643.05 108 1632C108 1620.95 99.0457 1612 88 1612C76.9543 1612 68 1620.95 68 1632C68 1643.05 76.9543 1652 88 1652ZM156 1632C156 1643.05 147.046 1652 136 1652C124.954 1652 116 1643.05 116 1632C116 1620.95 124.954 1612 136 1612C147.046 1612 156 1620.95 156 1632ZM224 1652C235.046 1652 244 1643.05 244 1632C244 1620.95 235.046 1612 224 1612C212.954 1612 204 1620.95 204 1632C204 1643.05 212.954 1652 224 1652ZM292 1632C292 1643.05 283.046 1652 272 1652C260.954 1652 252 1643.05 252 1632C252 1620.95 260.954 1612 272 1612C283.046 1612 292 1620.95 292 1632ZM320 1652C331.046 1652 340 1643.05 340 1632C340 1620.95 331.046 1612 320 1612C308.954 1612 300 1620.95 300 1632C300 1643.05 308.954 1652 320 1652ZM60 1692C60 1703.05 51.0457 1712 40 1712C28.9543 1712 20 1703.05 20 1692C20 1680.95 28.9543 1672 40 1672C51.0457 1672 60 1680.95 60 1692ZM88 1712C99.0457 1712 108 1703.05 108 1692C108 1680.95 99.0457 1672 88 1672C76.9543 1672 68 1680.95 68 1692C68 1703.05 76.9543 1712 88 1712ZM156 1692C156 1703.05 147.046 1712 136 1712C124.954 1712 116 1703.05 116 1692C116 1680.95 124.954 1672 136 1672C147.046 1672 156 1680.95 156 1692ZM224 1712C235.046 1712 244 1703.05 244 1692C244 1680.95 235.046 1672 224 1672C212.954 1672 204 1680.95 204 1692C204 1703.05 212.954 1712 224 1712ZM292 1692C292 1703.05 283.046 1712 272 1712C260.954 1712 252 1703.05 252 1692C252 1680.95 260.954 1672 272 1672C283.046 1672 292 1680.95 292 1692ZM320 1712C331.046 1712 340 1703.05 340 1692C340 1680.95 331.046 1672 320 1672C308.954 1672 300 1680.95 300 1692C300 1703.05 308.954 1712 320 1712ZM60 1752C60 1763.05 51.0457 1772 40 1772C28.9543 1772 20 1763.05 20 1752C20 1740.95 28.9543 1732 40 1732C51.0457 1732 60 1740.95 60 1752ZM88 1772C99.0457 1772 108 1763.05 108 1752C108 1740.95 99.0457 1732 88 1732C76.9543 1732 68 1740.95 68 1752C68 1763.05 76.9543 1772 88 1772ZM156 1752C156 1763.05 147.046 1772 136 1772C124.954 1772 116 1763.05 116 1752C116 1740.95 124.954 1732 136 1732C147.046 1732 156 1740.95 156 1752ZM224 1772C235.046 1772 244 1763.05 244 1752C244 1740.95 235.046 1732 224 1732C212.954 1732 204 1740.95 204 1752C204 1763.05 212.954 1772 224 1772ZM292 1752C292 1763.05 283.046 1772 272 1772C260.954 1772 252 1763.05 252 1752C252 1740.95 260.954 1732 272 1732C283.046 1732 292 1740.95 292 1752ZM320 1772C331.046 1772 340 1763.05 340 1752C340 1740.95 331.046 1732 320 1732C308.954 1732 300 1740.95 300 1752C300 1763.05 308.954 1772 320 1772ZM60 1812C60 1823.05 51.0457 1832 40 1832C28.9543 1832 20 1823.05 20 1812C20 1800.95 28.9543 1792 40 1792C51.0457 1792 60 1800.95 60 1812ZM88 1832C99.0457 1832 108 1823.05 108 1812C108 1800.95 99.0457 1792 88 1792C76.9543 1792 68 1800.95 68 1812C68 1823.05 76.9543 1832 88 1832ZM156 1812C156 1823.05 147.046 1832 136 1832C124.954 1832 116 1823.05 116 1812C116 1800.95 124.954 1792 136 1792C147.046 1792 156 1800.95 156 1812ZM224 1832C235.046 1832 244 1823.05 244 1812C244 1800.95 235.046 1792 224 1792C212.954 1792 204 1800.95 204 1812C204 1823.05 212.954 1832 224 1832ZM292 1812C292 1823.05 283.046 1832 272 1832C260.954 1832 252 1823.05 252 1812C252 1800.95 260.954 1792 272 1792C283.046 1792 292 1800.95 292 1812ZM320 1832C331.046 1832 340 1823.05 340 1812C340 1800.95 331.046 1792 320 1792C308.954 1792 300 1800.95 300 1812C300 1823.05 308.954 1832 320 1832ZM60 1872C60 1883.05 51.0457 1892 40 1892C28.9543 1892 20 1883.05 20 1872C20 1860.95 28.9543 1852 40 1852C51.0457 1852 60 1860.95 60 1872ZM88 1892C99.0457 1892 108 1883.05 108 1872C108 1860.95 99.0457 1852 88 1852C76.9543 1852 68 1860.95 68 1872C68 1883.05 76.9543 1892 88 1892ZM156 1872C156 1883.05 147.046 1892 136 1892C124.954 1892 116 1883.05 116 1872C116 1860.95 124.954 1852 136 1852C147.046 1852 156 1860.95 156 1872ZM224 1892C235.046 1892 244 1883.05 244 1872C244 1860.95 235.046 1852 224 1852C212.954 1852 204 1860.95 204 1872C204 1883.05 212.954 1892 224 1892ZM292 1872C292 1883.05 283.046 1892 272 1892C260.954 1892 252 1883.05 252 1872C252 1860.95 260.954 1852 272 1852C283.046 1852 292 1860.95 292 1872ZM320 1892C331.046 1892 340 1883.05 340 1872C340 1860.95 331.046 1852 320 1852C308.954 1852 300 1860.95 300 1872C300 1883.05 308.954 1892 320 1892ZM60 1932C60 1943.05 51.0457 1952 40 1952C28.9543 1952 20 1943.05 20 1932C20 1920.95 28.9543 1912 40 1912C51.0457 1912 60 1920.95 60 1932ZM88 1952C99.0457 1952 108 1943.05 108 1932C108 1920.95 99.0457 1912 88 1912C76.9543 1912 68 1920.95 68 1932C68 1943.05 76.9543 1952 88 1952ZM156 1932C156 1943.05 147.046 1952 136 1952C124.954 1952 116 1943.05 116 1932C116 1920.95 124.954 1912 136 1912C147.046 1912 156 1920.95 156 1932ZM224 1952C235.046 1952 244 1943.05 244 1932C244 1920.95 235.046 1912 224 1912C212.954 1912 204 1920.95 204 1932C204 1943.05 212.954 1952 224 1952ZM292 1932C292 1943.05 283.046 1952 272 1952C260.954 1952 252 1943.05 252 1932C252 1920.95 260.954 1912 272 1912C283.046 1912 292 1920.95 292 1932ZM320 1952C331.046 1952 340 1943.05 340 1932C340 1920.95 331.046 1912 320 1912C308.954 1912 300 1920.95 300 1932C300 1943.05 308.954 1952 320 1952ZM60 1992C60 2003.05 51.0457 2012 40 2012C28.9543 2012 20 2003.05 20 1992C20 1980.95 28.9543 1972 40 1972C51.0457 1972 60 1980.95 60 1992ZM88 2012C99.0457 2012 108 2003.05 108 1992C108 1980.95 99.0457 1972 88 1972C76.9543 1972 68 1980.95 68 1992C68 2003.05 76.9543 2012 88 2012ZM156 1992C156 2003.05 147.046 2012 136 2012C124.954 2012 116 2003.05 116 1992C116 1980.95 124.954 1972 136 1972C147.046 1972 156 1980.95 156 1992ZM224 2012C235.046 2012 244 2003.05 244 1992C244 1980.95 235.046 1972 224 1972C212.954 1972 204 1980.95 204 1992C204 2003.05 212.954 2012 224 2012ZM292 1992C292 2003.05 283.046 2012 272 2012C260.954 2012 252 2003.05 252 1992C252 1980.95 260.954 1972 272 1972C283.046 1972 292 1980.95 292 1992ZM320 2012C331.046 2012 340 2003.05 340 1992C340 1980.95 331.046 1972 320 1972C308.954 1972 300 1980.95 300 1992C300 2003.05 308.954 2012 320 2012ZM60 2052C60 2063.05 51.0457 2072 40 2072C28.9543 2072 20 2063.05 20 2052C20 2040.95 28.9543 2032 40 2032C51.0457 2032 60 2040.95 60 2052ZM88 2072C99.0457 2072 108 2063.05 108 2052C108 2040.95 99.0457 2032 88 2032C76.9543 2032 68 2040.95 68 2052C68 2063.05 76.9543 2072 88 2072ZM156 2052C156 2063.05 147.046 2072 136 2072C124.954 2072 116 2063.05 116 2052C116 2040.95 124.954 2032 136 2032C147.046 2032 156 2040.95 156 2052ZM224 2072C235.046 2072 244 2063.05 244 2052C244 2040.95 235.046 2032 224 2032C212.954 2032 204 2040.95 204 2052C204 2063.05 212.954 2072 224 2072ZM292 2052C292 2063.05 283.046 2072 272 2072C260.954 2072 252 2063.05 252 2052C252 2040.95 260.954 2032 272 2032C283.046 2032 292 2040.95 292 2052ZM320 2072C331.046 2072 340 2063.05 340 2052C340 2040.95 331.046 2032 320 2032C308.954 2032 300 2040.95 300 2052C300 2063.05 308.954 2072 320 2072ZM60 2112C60 2123.05 51.0457 2132 40 2132C28.9543 2132 20 2123.05 20 2112C20 2100.95 28.9543 2092 40 2092C51.0457 2092 60 2100.95 60 2112ZM88 2132C99.0457 2132 108 2123.05 108 2112C108 2100.95 99.0457 2092 88 2092C76.9543 2092 68 2100.95 68 2112C68 2123.05 76.9543 2132 88 2132ZM156 2112C156 2123.05 147.046 2132 136 2132C124.954 2132 116 2123.05 116 2112C116 2100.95 124.954 2092 136 2092C147.046 2092 156 2100.95 156 2112ZM224 2132C235.046 2132 244 2123.05 244 2112C244 2100.95 235.046 2092 224 2092C212.954 2092 204 2100.95 204 2112C204 2123.05 212.954 2132 224 2132ZM292 2112C292 2123.05 283.046 2132 272 2132C260.954 2132 252 2123.05 252 2112C252 2100.95 260.954 2092 272 2092C283.046 2092 292 2100.95 292 2112ZM320 2132C331.046 2132 340 2123.05 340 2112C340 2100.95 331.046 2092 320 2092C308.954 2092 300 2100.95 300 2112C300 2123.05 308.954 2132 320 2132ZM60 2172C60 2183.05 51.0457 2192 40 2192C28.9543 2192 20 2183.05 20 2172C20 2160.95 28.9543 2152 40 2152C51.0457 2152 60 2160.95 60 2172ZM88 2192C99.0457 2192 108 2183.05 108 2172C108 2160.95 99.0457 2152 88 2152C76.9543 2152 68 2160.95 68 2172C68 2183.05 76.9543 2192 88 2192ZM156 2172C156 2183.05 147.046 2192 136 2192C124.954 2192 116 2183.05 116 2172C116 2160.95 124.954 2152 136 2152C147.046 2152 156 2160.95 156 2172ZM224 2192C235.046 2192 244 2183.05 244 2172C244 2160.95 235.046 2152 224 2152C212.954 2152 204 2160.95 204 2172C204 2183.05 212.954 2192 224 2192ZM292 2172C292 2183.05 283.046 2192 272 2192C260.954 2192 252 2183.05 252 2172C252 2160.95 260.954 2152 272 2152C283.046 2152 292 2160.95 292 2172ZM320 2192C331.046 2192 340 2183.05 340 2172C340 2160.95 331.046 2152 320 2152C308.954 2152 300 2160.95 300 2172C300 2183.05 308.954 2192 320 2192ZM60 2232C60 2243.05 51.0457 2252 40 2252C28.9543 2252 20 2243.05 20 2232C20 2220.95 28.9543 2212 40 2212C51.0457 2212 60 2220.95 60 2232ZM88 2252C99.0457 2252 108 2243.05 108 2232C108 2220.95 99.0457 2212 88 2212C76.9543 2212 68 2220.95 68 2232C68 2243.05 76.9543 2252 88 2252ZM156 2232C156 2243.05 147.046 2252 136 2252C124.954 2252 116 2243.05 116 2232C116 2220.95 124.954 2212 136 2212C147.046 2212 156 2220.95 156 2232ZM224 2252C235.046 2252 244 2243.05 244 2232C244 2220.95 235.046 2212 224 2212C212.954 2212 204 2220.95 204 2232C204 2243.05 212.954 2252 224 2252ZM292 2232C292 2243.05 283.046 2252 272 2252C260.954 2252 252 2243.05 252 2232C252 2220.95 260.954 2212 272 2212C283.046 2212 292 2220.95 292 2232ZM320 2252C331.046 2252 340 2243.05 340 2232C340 2220.95 331.046 2212 320 2212C308.954 2212 300 2220.95 300 2232C300 2243.05 308.954 2252 320 2252ZM60 2292C60 2303.05 51.0457 2312 40 2312C28.9543 2312 20 2303.05 20 2292C20 2280.95 28.9543 2272 40 2272C51.0457 2272 60 2280.95 60 2292ZM320 2312C331.046 2312 340 2303.05 340 2292C340 2280.95 331.046 2272 320 2272C308.954 2272 300 2280.95 300 2292C300 2303.05 308.954 2312 320 2312Z" fill="white"/>
</g>
<defs>
<clipPath id="clip0_6_420">
<rect width="360" height="2372" fill="white"/>
</clipPath>
</defs>
</svg>
