<svg width="576" height="2904" viewBox="0 0 576 2904" fill="none" xmlns="http://www.w3.org/2000/svg">
<g clip-path="url(#clip0_4_2)">
<path fill-rule="evenodd" clip-rule="evenodd" d="M0 0H576V2904H0V0ZM72 104.5C87.464 104.5 100 91.964 100 76.5C100 61.036 87.464 48.5 72 48.5C56.536 48.5 44 61.036 44 76.5C44 91.964 56.536 104.5 72 104.5ZM537 132.5C535.895 132.5 535 133.395 535 134.5V162.5C535 163.605 535.895 164.5 537 164.5H546C547.105 164.5 548 163.605 548 162.5V134.5C548 133.395 547.105 132.5 546 132.5H537ZM28 134.5C28 133.395 28.8954 132.5 30 132.5H39C40.1046 132.5 41 133.395 41 134.5V162.5C41 163.605 40.1046 164.5 39 164.5H30C28.8954 164.5 28 163.605 28 162.5V134.5ZM46 225C44.8954 225 44 225.895 44 227V259C44 260.105 44.8954 261 46 261H530C531.105 261 532 260.105 532 259V227C532 225.895 531.105 225 530 225H46ZM100 321C100 336.464 87.464 349 72 349C56.536 349 44 336.464 44 321C44 305.536 56.536 293 72 293C87.464 293 100 305.536 100 321ZM216 349C231.464 349 244 336.464 244 321C244 305.536 231.464 293 216 293C200.536 293 188 305.536 188 321C188 336.464 200.536 349 216 349ZM388 321C388 336.464 375.464 349 360 349C344.536 349 332 336.464 332 321C332 305.536 344.536 293 360 293C375.464 293 388 305.536 388 321ZM504 349C519.464 349 532 336.464 532 321C532 305.536 519.464 293 504 293C488.536 293 476 305.536 476 321C476 336.464 488.536 349 504 349ZM100 401C100 416.464 87.464 429 72 429C56.536 429 44 416.464 44 401C44 385.536 56.536 373 72 373C87.464 373 100 385.536 100 401ZM216 429C231.464 429 244 416.464 244 401C244 385.536 231.464 373 216 373C200.536 373 188 385.536 188 401C188 416.464 200.536 429 216 429ZM388 401C388 416.464 375.464 429 360 429C344.536 429 332 416.464 332 401C332 385.536 344.536 373 360 373C375.464 373 388 385.536 388 401ZM504 429C519.464 429 532 416.464 532 401C532 385.536 519.464 373 504 373C488.536 373 476 385.536 476 401C476 416.464 488.536 429 504 429ZM100 481C100 496.464 87.464 509 72 509C56.536 509 44 496.464 44 481C44 465.536 56.536 453 72 453C87.464 453 100 465.536 100 481ZM216 509C231.464 509 244 496.464 244 481C244 465.536 231.464 453 216 453C200.536 453 188 465.536 188 481C188 496.464 200.536 509 216 509ZM388 481C388 496.464 375.464 509 360 509C344.536 509 332 496.464 332 481C332 465.536 344.536 453 360 453C375.464 453 388 465.536 388 481ZM504 509C519.464 509 532 496.464 532 481C532 465.536 519.464 453 504 453C488.536 453 476 465.536 476 481C476 496.464 488.536 509 504 509ZM44 559C44 557.895 44.8954 557 46 557H530C531.105 557 532 557.895 532 559V591C532 592.105 531.105 593 530 593H46C44.8954 593 44 592.105 44 591V559ZM72 681C87.464 681 100 668.464 100 653C100 637.536 87.464 625 72 625C56.536 625 44 637.536 44 653C44 668.464 56.536 681 72 681ZM172 653C172 668.464 159.464 681 144 681C128.536 681 116 668.464 116 653C116 637.536 128.536 625 144 625C159.464 625 172 637.536 172 653ZM216 681C231.464 681 244 668.464 244 653C244 637.536 231.464 625 216 625C200.536 625 188 637.536 188 653C188 668.464 200.536 681 216 681ZM388 653C388 668.464 375.464 681 360 681C344.536 681 332 668.464 332 653C332 637.536 344.536 625 360 625C375.464 625 388 637.536 388 653ZM432 681C447.464 681 460 668.464 460 653C460 637.536 447.464 625 432 625C416.536 625 404 637.536 404 653C404 668.464 416.536 681 432 681ZM532 653C532 668.464 519.464 681 504 681C488.536 681 476 668.464 476 653C476 637.536 488.536 625 504 625C519.464 625 532 637.536 532 653ZM46 729C44.8954 729 44 729.895 44 731V763C44 764.105 44.8954 765 46 765H530C531.105 765 532 764.105 532 763V731C532 729.895 531.105 729 530 729H46ZM100 825C100 840.464 87.464 853 72 853C56.536 853 44 840.464 44 825C44 809.536 56.536 797 72 797C87.464 797 100 809.536 100 825ZM144 853C159.464 853 172 840.464 172 825C172 809.536 159.464 797 144 797C128.536 797 116 809.536 116 825C116 840.464 128.536 853 144 853ZM244 825C244 840.464 231.464 853 216 853C200.536 853 188 840.464 188 825C188 809.536 200.536 797 216 797C231.464 797 244 809.536 244 825ZM360 853C375.464 853 388 840.464 388 825C388 809.536 375.464 797 360 797C344.536 797 332 809.536 332 825C332 840.464 344.536 853 360 853ZM460 825C460 840.464 447.464 853 432 853C416.536 853 404 840.464 404 825C404 809.536 416.536 797 432 797C447.464 797 460 809.536 460 825ZM504 853C519.464 853 532 840.464 532 825C532 809.536 519.464 797 504 797C488.536 797 476 809.536 476 825C476 840.464 488.536 853 504 853ZM100 905C100 920.464 87.464 933 72 933C56.536 933 44 920.464 44 905C44 889.536 56.536 877 72 877C87.464 877 100 889.536 100 905ZM144 933C159.464 933 172 920.464 172 905C172 889.536 159.464 877 144 877C128.536 877 116 889.536 116 905C116 920.464 128.536 933 144 933ZM244 905C244 920.464 231.464 933 216 933C200.536 933 188 920.464 188 905C188 889.536 200.536 877 216 877C231.464 877 244 889.536 244 905ZM360 933C375.464 933 388 920.464 388 905C388 889.536 375.464 877 360 877C344.536 877 332 889.536 332 905C332 920.464 344.536 933 360 933ZM460 905C460 920.464 447.464 933 432 933C416.536 933 404 920.464 404 905C404 889.536 416.536 877 432 877C447.464 877 460 889.536 460 905ZM504 933C519.464 933 532 920.464 532 905C532 889.536 519.464 877 504 877C488.536 877 476 889.536 476 905C476 920.464 488.536 933 504 933ZM100 985C100 1000.46 87.464 1013 72 1013C56.536 1013 44 1000.46 44 985C44 969.536 56.536 957 72 957C87.464 957 100 969.536 100 985ZM144 1013C159.464 1013 172 1000.46 172 985C172 969.536 159.464 957 144 957C128.536 957 116 969.536 116 985C116 1000.46 128.536 1013 144 1013ZM244 985C244 1000.46 231.464 1013 216 1013C200.536 1013 188 1000.46 188 985C188 969.536 200.536 957 216 957C231.464 957 244 969.536 244 985ZM360 1013C375.464 1013 388 1000.46 388 985C388 969.536 375.464 957 360 957C344.536 957 332 969.536 332 985C332 1000.46 344.536 1013 360 1013ZM460 985C460 1000.46 447.464 1013 432 1013C416.536 1013 404 1000.46 404 985C404 969.536 416.536 957 432 957C447.464 957 460 969.536 460 985ZM504 1013C519.464 1013 532 1000.46 532 985C532 969.536 519.464 957 504 957C488.536 957 476 969.536 476 985C476 1000.46 488.536 1013 504 1013ZM100 1065C100 1080.46 87.464 1093 72 1093C56.536 1093 44 1080.46 44 1065C44 1049.54 56.536 1037 72 1037C87.464 1037 100 1049.54 100 1065ZM144 1093C159.464 1093 172 1080.46 172 1065C172 1049.54 159.464 1037 144 1037C128.536 1037 116 1049.54 116 1065C116 1080.46 128.536 1093 144 1093ZM244 1065C244 1080.46 231.464 1093 216 1093C200.536 1093 188 1080.46 188 1065C188 1049.54 200.536 1037 216 1037C231.464 1037 244 1049.54 244 1065ZM360 1093C375.464 1093 388 1080.46 388 1065C388 1049.54 375.464 1037 360 1037C344.536 1037 332 1049.54 332 1065C332 1080.46 344.536 1093 360 1093ZM460 1065C460 1080.46 447.464 1093 432 1093C416.536 1093 404 1080.46 404 1065C404 1049.54 416.536 1037 432 1037C447.464 1037 460 1049.54 460 1065ZM504 1093C519.464 1093 532 1080.46 532 1065C532 1049.54 519.464 1037 504 1037C488.536 1037 476 1049.54 476 1065C476 1080.46 488.536 1093 504 1093ZM100 1145C100 1160.46 87.464 1173 72 1173C56.536 1173 44 1160.46 44 1145C44 1129.54 56.536 1117 72 1117C87.464 1117 100 1129.54 100 1145ZM144 1173C159.464 1173 172 1160.46 172 1145C172 1129.54 159.464 1117 144 1117C128.536 1117 116 1129.54 116 1145C116 1160.46 128.536 1173 144 1173ZM244 1145C244 1160.46 231.464 1173 216 1173C200.536 1173 188 1160.46 188 1145C188 1129.54 200.536 1117 216 1117C231.464 1117 244 1129.54 244 1145ZM360 1173C375.464 1173 388 1160.46 388 1145C388 1129.54 375.464 1117 360 1117C344.536 1117 332 1129.54 332 1145C332 1160.46 344.536 1173 360 1173ZM460 1145C460 1160.46 447.464 1173 432 1173C416.536 1173 404 1160.46 404 1145C404 1129.54 416.536 1117 432 1117C447.464 1117 460 1129.54 460 1145ZM504 1173C519.464 1173 532 1160.46 532 1145C532 1129.54 519.464 1117 504 1117C488.536 1117 476 1129.54 476 1145C476 1160.46 488.536 1173 504 1173ZM44 1223C44 1221.9 44.8954 1221 46 1221H530C531.105 1221 532 1221.9 532 1223V1255C532 1256.1 531.105 1257 530 1257H46C44.8954 1257 44 1256.1 44 1255V1223ZM72 1345C87.464 1345 100 1332.46 100 1317C100 1301.54 87.464 1289 72 1289C56.536 1289 44 1301.54 44 1317C44 1332.46 56.536 1345 72 1345ZM172 1317C172 1332.46 159.464 1345 144 1345C128.536 1345 116 1332.46 116 1317C116 1301.54 128.536 1289 144 1289C159.464 1289 172 1301.54 172 1317ZM216 1345C231.464 1345 244 1332.46 244 1317C244 1301.54 231.464 1289 216 1289C200.536 1289 188 1301.54 188 1317C188 1332.46 200.536 1345 216 1345ZM388 1317C388 1332.46 375.464 1345 360 1345C344.536 1345 332 1332.46 332 1317C332 1301.54 344.536 1289 360 1289C375.464 1289 388 1301.54 388 1317ZM432 1345C447.464 1345 460 1332.46 460 1317C460 1301.54 447.464 1289 432 1289C416.536 1289 404 1301.54 404 1317C404 1332.46 416.536 1345 432 1345ZM532 1317C532 1332.46 519.464 1345 504 1345C488.536 1345 476 1332.46 476 1317C476 1301.54 488.536 1289 504 1289C519.464 1289 532 1301.54 532 1317ZM46 1393C44.8954 1393 44 1393.9 44 1395V1427C44 1428.1 44.8954 1429 46 1429H530C531.105 1429 532 1428.1 532 1427V1395C532 1393.9 531.105 1393 530 1393H46ZM100 1489C100 1504.46 87.464 1517 72 1517C56.536 1517 44 1504.46 44 1489C44 1473.54 56.536 1461 72 1461C87.464 1461 100 1473.54 100 1489ZM144 1517C159.464 1517 172 1504.46 172 1489C172 1473.54 159.464 1461 144 1461C128.536 1461 116 1473.54 116 1489C116 1504.46 128.536 1517 144 1517ZM244 1489C244 1504.46 231.464 1517 216 1517C200.536 1517 188 1504.46 188 1489C188 1473.54 200.536 1461 216 1461C231.464 1461 244 1473.54 244 1489ZM360 1517C375.464 1517 388 1504.46 388 1489C388 1473.54 375.464 1461 360 1461C344.536 1461 332 1473.54 332 1489C332 1504.46 344.536 1517 360 1517ZM460 1489C460 1504.46 447.464 1517 432 1517C416.536 1517 404 1504.46 404 1489C404 1473.54 416.536 1461 432 1461C447.464 1461 460 1473.54 460 1489ZM504 1517C519.464 1517 532 1504.46 532 1489C532 1473.54 519.464 1461 504 1461C488.536 1461 476 1473.54 476 1489C476 1504.46 488.536 1517 504 1517ZM28 1475.5C28 1474.4 28.8954 1473.5 30 1473.5H39C40.1046 1473.5 41 1474.4 41 1475.5V1503.5C41 1504.6 40.1046 1505.5 39 1505.5H30C28.8954 1505.5 28 1504.6 28 1503.5V1475.5ZM537 1473.5C535.895 1473.5 535 1474.4 535 1475.5V1503.5C535 1504.6 535.895 1505.5 537 1505.5H546C547.105 1505.5 548 1504.6 548 1503.5V1475.5C548 1474.4 547.105 1473.5 546 1473.5H537ZM44 1567C44 1565.9 44.8954 1565 46 1565H530C531.105 1565 532 1565.9 532 1567V1599C532 1600.1 531.105 1601 530 1601H46C44.8954 1601 44 1600.1 44 1599V1567ZM72 1689C87.464 1689 100 1676.46 100 1661C100 1645.54 87.464 1633 72 1633C56.536 1633 44 1645.54 44 1661C44 1676.46 56.536 1689 72 1689ZM172 1661C172 1676.46 159.464 1689 144 1689C128.536 1689 116 1676.46 116 1661C116 1645.54 128.536 1633 144 1633C159.464 1633 172 1645.54 172 1661ZM216 1689C231.464 1689 244 1676.46 244 1661C244 1645.54 231.464 1633 216 1633C200.536 1633 188 1645.54 188 1661C188 1676.46 200.536 1689 216 1689ZM388 1661C388 1676.46 375.464 1689 360 1689C344.536 1689 332 1676.46 332 1661C332 1645.54 344.536 1633 360 1633C375.464 1633 388 1645.54 388 1661ZM432 1689C447.464 1689 460 1676.46 460 1661C460 1645.54 447.464 1633 432 1633C416.536 1633 404 1645.54 404 1661C404 1676.46 416.536 1689 432 1689ZM532 1661C532 1676.46 519.464 1689 504 1689C488.536 1689 476 1676.46 476 1661C476 1645.54 488.536 1633 504 1633C519.464 1633 532 1645.54 532 1661ZM72 1769C87.464 1769 100 1756.46 100 1741C100 1725.54 87.464 1713 72 1713C56.536 1713 44 1725.54 44 1741C44 1756.46 56.536 1769 72 1769ZM172 1741C172 1756.46 159.464 1769 144 1769C128.536 1769 116 1756.46 116 1741C116 1725.54 128.536 1713 144 1713C159.464 1713 172 1725.54 172 1741ZM216 1769C231.464 1769 244 1756.46 244 1741C244 1725.54 231.464 1713 216 1713C200.536 1713 188 1725.54 188 1741C188 1756.46 200.536 1769 216 1769ZM388 1741C388 1756.46 375.464 1769 360 1769C344.536 1769 332 1756.46 332 1741C332 1725.54 344.536 1713 360 1713C375.464 1713 388 1725.54 388 1741ZM432 1769C447.464 1769 460 1756.46 460 1741C460 1725.54 447.464 1713 432 1713C416.536 1713 404 1725.54 404 1741C404 1756.46 416.536 1769 432 1769ZM532 1741C532 1756.46 519.464 1769 504 1769C488.536 1769 476 1756.46 476 1741C476 1725.54 488.536 1713 504 1713C519.464 1713 532 1725.54 532 1741ZM72 1849C87.464 1849 100 1836.46 100 1821C100 1805.54 87.464 1793 72 1793C56.536 1793 44 1805.54 44 1821C44 1836.46 56.536 1849 72 1849ZM172 1821C172 1836.46 159.464 1849 144 1849C128.536 1849 116 1836.46 116 1821C116 1805.54 128.536 1793 144 1793C159.464 1793 172 1805.54 172 1821ZM216 1849C231.464 1849 244 1836.46 244 1821C244 1805.54 231.464 1793 216 1793C200.536 1793 188 1805.54 188 1821C188 1836.46 200.536 1849 216 1849ZM388 1821C388 1836.46 375.464 1849 360 1849C344.536 1849 332 1836.46 332 1821C332 1805.54 344.536 1793 360 1793C375.464 1793 388 1805.54 388 1821ZM432 1849C447.464 1849 460 1836.46 460 1821C460 1805.54 447.464 1793 432 1793C416.536 1793 404 1805.54 404 1821C404 1836.46 416.536 1849 432 1849ZM532 1821C532 1836.46 519.464 1849 504 1849C488.536 1849 476 1836.46 476 1821C476 1805.54 488.536 1793 504 1793C519.464 1793 532 1805.54 532 1821ZM72 1929C87.464 1929 100 1916.46 100 1901C100 1885.54 87.464 1873 72 1873C56.536 1873 44 1885.54 44 1901C44 1916.46 56.536 1929 72 1929ZM172 1901C172 1916.46 159.464 1929 144 1929C128.536 1929 116 1916.46 116 1901C116 1885.54 128.536 1873 144 1873C159.464 1873 172 1885.54 172 1901ZM216 1929C231.464 1929 244 1916.46 244 1901C244 1885.54 231.464 1873 216 1873C200.536 1873 188 1885.54 188 1901C188 1916.46 200.536 1929 216 1929ZM388 1901C388 1916.46 375.464 1929 360 1929C344.536 1929 332 1916.46 332 1901C332 1885.54 344.536 1873 360 1873C375.464 1873 388 1885.54 388 1901ZM432 1929C447.464 1929 460 1916.46 460 1901C460 1885.54 447.464 1873 432 1873C416.536 1873 404 1885.54 404 1901C404 1916.46 416.536 1929 432 1929ZM532 1901C532 1916.46 519.464 1929 504 1929C488.536 1929 476 1916.46 476 1901C476 1885.54 488.536 1873 504 1873C519.464 1873 532 1885.54 532 1901ZM72 2009C87.464 2009 100 1996.46 100 1981C100 1965.54 87.464 1953 72 1953C56.536 1953 44 1965.54 44 1981C44 1996.46 56.536 2009 72 2009ZM172 1981C172 1996.46 159.464 2009 144 2009C128.536 2009 116 1996.46 116 1981C116 1965.54 128.536 1953 144 1953C159.464 1953 172 1965.54 172 1981ZM216 2009C231.464 2009 244 1996.46 244 1981C244 1965.54 231.464 1953 216 1953C200.536 1953 188 1965.54 188 1981C188 1996.46 200.536 2009 216 2009ZM388 1981C388 1996.46 375.464 2009 360 2009C344.536 2009 332 1996.46 332 1981C332 1965.54 344.536 1953 360 1953C375.464 1953 388 1965.54 388 1981ZM432 2009C447.464 2009 460 1996.46 460 1981C460 1965.54 447.464 1953 432 1953C416.536 1953 404 1965.54 404 1981C404 1996.46 416.536 2009 432 2009ZM532 1981C532 1996.46 519.464 2009 504 2009C488.536 2009 476 1996.46 476 1981C476 1965.54 488.536 1953 504 1953C519.464 1953 532 1965.54 532 1981ZM72 2089C87.464 2089 100 2076.46 100 2061C100 2045.54 87.464 2033 72 2033C56.536 2033 44 2045.54 44 2061C44 2076.46 56.536 2089 72 2089ZM172 2061C172 2076.46 159.464 2089 144 2089C128.536 2089 116 2076.46 116 2061C116 2045.54 128.536 2033 144 2033C159.464 2033 172 2045.54 172 2061ZM216 2089C231.464 2089 244 2076.46 244 2061C244 2045.54 231.464 2033 216 2033C200.536 2033 188 2045.54 188 2061C188 2076.46 200.536 2089 216 2089ZM388 2061C388 2076.46 375.464 2089 360 2089C344.536 2089 332 2076.46 332 2061C332 2045.54 344.536 2033 360 2033C375.464 2033 388 2045.54 388 2061ZM432 2089C447.464 2089 460 2076.46 460 2061C460 2045.54 447.464 2033 432 2033C416.536 2033 404 2045.54 404 2061C404 2076.46 416.536 2089 432 2089ZM532 2061C532 2076.46 519.464 2089 504 2089C488.536 2089 476 2076.46 476 2061C476 2045.54 488.536 2033 504 2033C519.464 2033 532 2045.54 532 2061ZM72 2169C87.464 2169 100 2156.46 100 2141C100 2125.54 87.464 2113 72 2113C56.536 2113 44 2125.54 44 2141C44 2156.46 56.536 2169 72 2169ZM172 2141C172 2156.46 159.464 2169 144 2169C128.536 2169 116 2156.46 116 2141C116 2125.54 128.536 2113 144 2113C159.464 2113 172 2125.54 172 2141ZM216 2169C231.464 2169 244 2156.46 244 2141C244 2125.54 231.464 2113 216 2113C200.536 2113 188 2125.54 188 2141C188 2156.46 200.536 2169 216 2169ZM388 2141C388 2156.46 375.464 2169 360 2169C344.536 2169 332 2156.46 332 2141C332 2125.54 344.536 2113 360 2113C375.464 2113 388 2125.54 388 2141ZM432 2169C447.464 2169 460 2156.46 460 2141C460 2125.54 447.464 2113 432 2113C416.536 2113 404 2125.54 404 2141C404 2156.46 416.536 2169 432 2169ZM532 2141C532 2156.46 519.464 2169 504 2169C488.536 2169 476 2156.46 476 2141C476 2125.54 488.536 2113 504 2113C519.464 2113 532 2125.54 532 2141ZM72 2249C87.464 2249 100 2236.46 100 2221C100 2205.54 87.464 2193 72 2193C56.536 2193 44 2205.54 44 2221C44 2236.46 56.536 2249 72 2249ZM172 2221C172 2236.46 159.464 2249 144 2249C128.536 2249 116 2236.46 116 2221C116 2205.54 128.536 2193 144 2193C159.464 2193 172 2205.54 172 2221ZM216 2249C231.464 2249 244 2236.46 244 2221C244 2205.54 231.464 2193 216 2193C200.536 2193 188 2205.54 188 2221C188 2236.46 200.536 2249 216 2249ZM388 2221C388 2236.46 375.464 2249 360 2249C344.536 2249 332 2236.46 332 2221C332 2205.54 344.536 2193 360 2193C375.464 2193 388 2205.54 388 2221ZM432 2249C447.464 2249 460 2236.46 460 2221C460 2205.54 447.464 2193 432 2193C416.536 2193 404 2205.54 404 2221C404 2236.46 416.536 2249 432 2249ZM532 2221C532 2236.46 519.464 2249 504 2249C488.536 2249 476 2236.46 476 2221C476 2205.54 488.536 2193 504 2193C519.464 2193 532 2205.54 532 2221ZM72 2329C87.464 2329 100 2316.46 100 2301C100 2285.54 87.464 2273 72 2273C56.536 2273 44 2285.54 44 2301C44 2316.46 56.536 2329 72 2329ZM172 2301C172 2316.46 159.464 2329 144 2329C128.536 2329 116 2316.46 116 2301C116 2285.54 128.536 2273 144 2273C159.464 2273 172 2285.54 172 2301ZM216 2329C231.464 2329 244 2316.46 244 2301C244 2285.54 231.464 2273 216 2273C200.536 2273 188 2285.54 188 2301C188 2316.46 200.536 2329 216 2329ZM388 2301C388 2316.46 375.464 2329 360 2329C344.536 2329 332 2316.46 332 2301C332 2285.54 344.536 2273 360 2273C375.464 2273 388 2285.54 388 2301ZM432 2329C447.464 2329 460 2316.46 460 2301C460 2285.54 447.464 2273 432 2273C416.536 2273 404 2285.54 404 2301C404 2316.46 416.536 2329 432 2329ZM532 2301C532 2316.46 519.464 2329 504 2329C488.536 2329 476 2316.46 476 2301C476 2285.54 488.536 2273 504 2273C519.464 2273 532 2285.54 532 2301ZM72 2409C87.464 2409 100 2396.46 100 2381C100 2365.54 87.464 2353 72 2353C56.536 2353 44 2365.54 44 2381C44 2396.46 56.536 2409 72 2409ZM172 2381C172 2396.46 159.464 2409 144 2409C128.536 2409 116 2396.46 116 2381C116 2365.54 128.536 2353 144 2353C159.464 2353 172 2365.54 172 2381ZM216 2409C231.464 2409 244 2396.46 244 2381C244 2365.54 231.464 2353 216 2353C200.536 2353 188 2365.54 188 2381C188 2396.46 200.536 2409 216 2409ZM388 2381C388 2396.46 375.464 2409 360 2409C344.536 2409 332 2396.46 332 2381C332 2365.54 344.536 2353 360 2353C375.464 2353 388 2365.54 388 2381ZM432 2409C447.464 2409 460 2396.46 460 2381C460 2365.54 447.464 2353 432 2353C416.536 2353 404 2365.54 404 2381C404 2396.46 416.536 2409 432 2409ZM532 2381C532 2396.46 519.464 2409 504 2409C488.536 2409 476 2396.46 476 2381C476 2365.54 488.536 2353 504 2353C519.464 2353 532 2365.54 532 2381ZM72 2489C87.464 2489 100 2476.46 100 2461C100 2445.54 87.464 2433 72 2433C56.536 2433 44 2445.54 44 2461C44 2476.46 56.536 2489 72 2489ZM172 2461C172 2476.46 159.464 2489 144 2489C128.536 2489 116 2476.46 116 2461C116 2445.54 128.536 2433 144 2433C159.464 2433 172 2445.54 172 2461ZM216 2489C231.464 2489 244 2476.46 244 2461C244 2445.54 231.464 2433 216 2433C200.536 2433 188 2445.54 188 2461C188 2476.46 200.536 2489 216 2489ZM388 2461C388 2476.46 375.464 2489 360 2489C344.536 2489 332 2476.46 332 2461C332 2445.54 344.536 2433 360 2433C375.464 2433 388 2445.54 388 2461ZM432 2489C447.464 2489 460 2476.46 460 2461C460 2445.54 447.464 2433 432 2433C416.536 2433 404 2445.54 404 2461C404 2476.46 416.536 2489 432 2489ZM532 2461C532 2476.46 519.464 2489 504 2489C488.536 2489 476 2476.46 476 2461C476 2445.54 488.536 2433 504 2433C519.464 2433 532 2445.54 532 2461ZM72 2569C87.464 2569 100 2556.46 100 2541C100 2525.54 87.464 2513 72 2513C56.536 2513 44 2525.54 44 2541C44 2556.46 56.536 2569 72 2569ZM172 2541C172 2556.46 159.464 2569 144 2569C128.536 2569 116 2556.46 116 2541C116 2525.54 128.536 2513 144 2513C159.464 2513 172 2525.54 172 2541ZM216 2569C231.464 2569 244 2556.46 244 2541C244 2525.54 231.464 2513 216 2513C200.536 2513 188 2525.54 188 2541C188 2556.46 200.536 2569 216 2569ZM388 2541C388 2556.46 375.464 2569 360 2569C344.536 2569 332 2556.46 332 2541C332 2525.54 344.536 2513 360 2513C375.464 2513 388 2525.54 388 2541ZM432 2569C447.464 2569 460 2556.46 460 2541C460 2525.54 447.464 2513 432 2513C416.536 2513 404 2525.54 404 2541C404 2556.46 416.536 2569 432 2569ZM532 2541C532 2556.46 519.464 2569 504 2569C488.536 2569 476 2556.46 476 2541C476 2525.54 488.536 2513 504 2513C519.464 2513 532 2525.54 532 2541ZM72 2649C87.464 2649 100 2636.46 100 2621C100 2605.54 87.464 2593 72 2593C56.536 2593 44 2605.54 44 2621C44 2636.46 56.536 2649 72 2649ZM172 2621C172 2636.46 159.464 2649 144 2649C128.536 2649 116 2636.46 116 2621C116 2605.54 128.536 2593 144 2593C159.464 2593 172 2605.54 172 2621ZM216 2649C231.464 2649 244 2636.46 244 2621C244 2605.54 231.464 2593 216 2593C200.536 2593 188 2605.54 188 2621C188 2636.46 200.536 2649 216 2649ZM388 2621C388 2636.46 375.464 2649 360 2649C344.536 2649 332 2636.46 332 2621C332 2605.54 344.536 2593 360 2593C375.464 2593 388 2605.54 388 2621ZM432 2649C447.464 2649 460 2636.46 460 2621C460 2605.54 447.464 2593 432 2593C416.536 2593 404 2605.54 404 2621C404 2636.46 416.536 2649 432 2649ZM532 2621C532 2636.46 519.464 2649 504 2649C488.536 2649 476 2636.46 476 2621C476 2605.54 488.536 2593 504 2593C519.464 2593 532 2605.54 532 2621ZM72 2729C87.464 2729 100 2716.46 100 2701C100 2685.54 87.464 2673 72 2673C56.536 2673 44 2685.54 44 2701C44 2716.46 56.536 2729 72 2729ZM172 2701C172 2716.46 159.464 2729 144 2729C128.536 2729 116 2716.46 116 2701C116 2685.54 128.536 2673 144 2673C159.464 2673 172 2685.54 172 2701ZM216 2729C231.464 2729 244 2716.46 244 2701C244 2685.54 231.464 2673 216 2673C200.536 2673 188 2685.54 188 2701C188 2716.46 200.536 2729 216 2729ZM388 2701C388 2716.46 375.464 2729 360 2729C344.536 2729 332 2716.46 332 2701C332 2685.54 344.536 2673 360 2673C375.464 2673 388 2685.54 388 2701ZM432 2729C447.464 2729 460 2716.46 460 2701C460 2685.54 447.464 2673 432 2673C416.536 2673 404 2685.54 404 2701C404 2716.46 416.536 2729 432 2729ZM532 2701C532 2716.46 519.464 2729 504 2729C488.536 2729 476 2716.46 476 2701C476 2685.54 488.536 2673 504 2673C519.464 2673 532 2685.54 532 2701ZM72 2809C87.464 2809 100 2796.46 100 2781C100 2765.54 87.464 2753 72 2753C56.536 2753 44 2765.54 44 2781C44 2796.46 56.536 2809 72 2809ZM532 2781C532 2796.46 519.464 2809 504 2809C488.536 2809 476 2796.46 476 2781C476 2765.54 488.536 2753 504 2753C519.464 2753 532 2765.54 532 2781Z" fill="white"/>
</g>
<defs>
<clipPath id="clip0_4_2">
<rect width="576" height="2904" fill="white"/>
</clipPath>
</defs>
</svg>
