<svg width="576" height="2510" viewBox="0 0 576 2510" fill="none" xmlns="http://www.w3.org/2000/svg">
<path d="M576 2510H0V0H576V2510ZM64 2374C52.9543 2374 44 2382.95 44 2394C44 2405.05 52.9543 2414 64 2414C75.0457 2414 84 2405.05 84 2394C84 2382.95 75.0457 2374 64 2374ZM512 2374C500.954 2374 492 2382.95 492 2394C492 2405.05 500.954 2414 512 2414C523.046 2414 532 2405.05 532 2394C532 2382.95 523.046 2374 512 2374ZM26 2279C24.8954 2279 24 2279.9 24 2281V2307C24 2308.1 24.8954 2309 26 2309H34C35.1046 2309 36 2308.1 36 2307V2281C36 2279.9 35.1046 2279 34 2279H26ZM542 2279C540.895 2279 540 2279.9 540 2281V2307C540 2308.1 540.895 2309 542 2309H550C551.105 2309 552 2308.1 552 2307V2281C552 2279.9 551.105 2279 550 2279H542ZM240 2200C228.954 2200 220 2208.95 220 2220C220 2231.05 228.954 2240 240 2240C251.046 2240 260 2231.05 260 2220C260 2208.95 251.046 2200 240 2200ZM288 2200C276.954 2200 268 2208.95 268 2220C268 2231.05 276.954 2240 288 2240C299.046 2240 308 2231.05 308 2220C308 2208.95 299.046 2200 288 2200ZM336 2200C324.954 2200 316 2208.95 316 2220C316 2231.05 324.954 2240 336 2240C347.046 2240 356 2231.05 356 2220C356 2208.95 347.046 2200 336 2200ZM240 2136C228.954 2136 220 2144.95 220 2156C220 2167.05 228.954 2176 240 2176C251.046 2176 260 2167.05 260 2156C260 2144.95 251.046 2136 240 2136ZM288 2136C276.954 2136 268 2144.95 268 2156C268 2167.05 276.954 2176 288 2176C299.046 2176 308 2167.05 308 2156C308 2144.95 299.046 2136 288 2136ZM336 2136C324.954 2136 316 2144.95 316 2156C316 2167.05 324.954 2176 336 2176C347.046 2176 356 2167.05 356 2156C356 2144.95 347.046 2136 336 2136ZM64 2072C52.9543 2072 44 2080.95 44 2092C44 2103.05 52.9543 2112 64 2112C75.0457 2112 84 2103.05 84 2092C84 2080.95 75.0457 2072 64 2072ZM112 2072C100.954 2072 92 2080.95 92 2092C92 2103.05 100.954 2112 112 2112C123.046 2112 132 2103.05 132 2092C132 2080.95 123.046 2072 112 2072ZM160 2072C148.954 2072 140 2080.95 140 2092C140 2103.05 148.954 2112 160 2112C171.046 2112 180 2103.05 180 2092C180 2080.95 171.046 2072 160 2072ZM240 2072C228.954 2072 220 2080.95 220 2092C220 2103.05 228.954 2112 240 2112C251.046 2112 260 2103.05 260 2092C260 2080.95 251.046 2072 240 2072ZM288 2072C276.954 2072 268 2080.95 268 2092C268 2103.05 276.954 2112 288 2112C299.046 2112 308 2103.05 308 2092C308 2080.95 299.046 2072 288 2072ZM336 2072C324.954 2072 316 2080.95 316 2092C316 2103.05 324.954 2112 336 2112C347.046 2112 356 2103.05 356 2092C356 2080.95 347.046 2072 336 2072ZM416 2072C404.954 2072 396 2080.95 396 2092C396 2103.05 404.954 2112 416 2112C427.046 2112 436 2103.05 436 2092C436 2080.95 427.046 2072 416 2072ZM464 2072C452.954 2072 444 2080.95 444 2092C444 2103.05 452.954 2112 464 2112C475.046 2112 484 2103.05 484 2092C484 2080.95 475.046 2072 464 2072ZM512 2072C500.954 2072 492 2080.95 492 2092C492 2103.05 500.954 2112 512 2112C523.046 2112 532 2103.05 532 2092C532 2080.95 523.046 2072 512 2072ZM64 2008C52.9543 2008 44 2016.95 44 2028C44 2039.05 52.9543 2048 64 2048C75.0457 2048 84 2039.05 84 2028C84 2016.95 75.0457 2008 64 2008ZM112 2008C100.954 2008 92 2016.95 92 2028C92 2039.05 100.954 2048 112 2048C123.046 2048 132 2039.05 132 2028C132 2016.95 123.046 2008 112 2008ZM160 2008C148.954 2008 140 2016.95 140 2028C140 2039.05 148.954 2048 160 2048C171.046 2048 180 2039.05 180 2028C180 2016.95 171.046 2008 160 2008ZM240 2008C228.954 2008 220 2016.95 220 2028C220 2039.05 228.954 2048 240 2048C251.046 2048 260 2039.05 260 2028C260 2016.95 251.046 2008 240 2008ZM288 2008C276.954 2008 268 2016.95 268 2028C268 2039.05 276.954 2048 288 2048C299.046 2048 308 2039.05 308 2028C308 2016.95 299.046 2008 288 2008ZM336 2008C324.954 2008 316 2016.95 316 2028C316 2039.05 324.954 2048 336 2048C347.046 2048 356 2039.05 356 2028C356 2016.95 347.046 2008 336 2008ZM416 2008C404.954 2008 396 2016.95 396 2028C396 2039.05 404.954 2048 416 2048C427.046 2048 436 2039.05 436 2028C436 2016.95 427.046 2008 416 2008ZM464 2008C452.954 2008 444 2016.95 444 2028C444 2039.05 452.954 2048 464 2048C475.046 2048 484 2039.05 484 2028C484 2016.95 475.046 2008 464 2008ZM512 2008C500.954 2008 492 2016.95 492 2028C492 2039.05 500.954 2048 512 2048C523.046 2048 532 2039.05 532 2028C532 2016.95 523.046 2008 512 2008ZM64 1944C52.9543 1944 44 1952.95 44 1964C44 1975.05 52.9543 1984 64 1984C75.0457 1984 84 1975.05 84 1964C84 1952.95 75.0457 1944 64 1944ZM112 1944C100.954 1944 92 1952.95 92 1964C92 1975.05 100.954 1984 112 1984C123.046 1984 132 1975.05 132 1964C132 1952.95 123.046 1944 112 1944ZM160 1944C148.954 1944 140 1952.95 140 1964C140 1975.05 148.954 1984 160 1984C171.046 1984 180 1975.05 180 1964C180 1952.95 171.046 1944 160 1944ZM240 1944C228.954 1944 220 1952.95 220 1964C220 1975.05 228.954 1984 240 1984C251.046 1984 260 1975.05 260 1964C260 1952.95 251.046 1944 240 1944ZM288 1944C276.954 1944 268 1952.95 268 1964C268 1975.05 276.954 1984 288 1984C299.046 1984 308 1975.05 308 1964C308 1952.95 299.046 1944 288 1944ZM336 1944C324.954 1944 316 1952.95 316 1964C316 1975.05 324.954 1984 336 1984C347.046 1984 356 1975.05 356 1964C356 1952.95 347.046 1944 336 1944ZM416 1944C404.954 1944 396 1952.95 396 1964C396 1975.05 404.954 1984 416 1984C427.046 1984 436 1975.05 436 1964C436 1952.95 427.046 1944 416 1944ZM464 1944C452.954 1944 444 1952.95 444 1964C444 1975.05 452.954 1984 464 1984C475.046 1984 484 1975.05 484 1964C484 1952.95 475.046 1944 464 1944ZM512 1944C500.954 1944 492 1952.95 492 1964C492 1975.05 500.954 1984 512 1984C523.046 1984 532 1975.05 532 1964C532 1952.95 523.046 1944 512 1944ZM64 1880C52.9543 1880 44 1888.95 44 1900C44 1911.05 52.9543 1920 64 1920C75.0457 1920 84 1911.05 84 1900C84 1888.95 75.0457 1880 64 1880ZM112 1880C100.954 1880 92 1888.95 92 1900C92 1911.05 100.954 1920 112 1920C123.046 1920 132 1911.05 132 1900C132 1888.95 123.046 1880 112 1880ZM160 1880C148.954 1880 140 1888.95 140 1900C140 1911.05 148.954 1920 160 1920C171.046 1920 180 1911.05 180 1900C180 1888.95 171.046 1880 160 1880ZM240 1880C228.954 1880 220 1888.95 220 1900C220 1911.05 228.954 1920 240 1920C251.046 1920 260 1911.05 260 1900C260 1888.95 251.046 1880 240 1880ZM288 1880C276.954 1880 268 1888.95 268 1900C268 1911.05 276.954 1920 288 1920C299.046 1920 308 1911.05 308 1900C308 1888.95 299.046 1880 288 1880ZM336 1880C324.954 1880 316 1888.95 316 1900C316 1911.05 324.954 1920 336 1920C347.046 1920 356 1911.05 356 1900C356 1888.95 347.046 1880 336 1880ZM416 1880C404.954 1880 396 1888.95 396 1900C396 1911.05 404.954 1920 416 1920C427.046 1920 436 1911.05 436 1900C436 1888.95 427.046 1880 416 1880ZM464 1880C452.954 1880 444 1888.95 444 1900C444 1911.05 452.954 1920 464 1920C475.046 1920 484 1911.05 484 1900C484 1888.95 475.046 1880 464 1880ZM512 1880C500.954 1880 492 1888.95 492 1900C492 1911.05 500.954 1920 512 1920C523.046 1920 532 1911.05 532 1900C532 1888.95 523.046 1880 512 1880ZM64 1816C52.9543 1816 44 1824.95 44 1836C44 1847.05 52.9543 1856 64 1856C75.0457 1856 84 1847.05 84 1836C84 1824.95 75.0457 1816 64 1816ZM112 1816C100.954 1816 92 1824.95 92 1836C92 1847.05 100.954 1856 112 1856C123.046 1856 132 1847.05 132 1836C132 1824.95 123.046 1816 112 1816ZM160 1816C148.954 1816 140 1824.95 140 1836C140 1847.05 148.954 1856 160 1856C171.046 1856 180 1847.05 180 1836C180 1824.95 171.046 1816 160 1816ZM240 1816C228.954 1816 220 1824.95 220 1836C220 1847.05 228.954 1856 240 1856C251.046 1856 260 1847.05 260 1836C260 1824.95 251.046 1816 240 1816ZM288 1816C276.954 1816 268 1824.95 268 1836C268 1847.05 276.954 1856 288 1856C299.046 1856 308 1847.05 308 1836C308 1824.95 299.046 1816 288 1816ZM336 1816C324.954 1816 316 1824.95 316 1836C316 1847.05 324.954 1856 336 1856C347.046 1856 356 1847.05 356 1836C356 1824.95 347.046 1816 336 1816ZM416 1816C404.954 1816 396 1824.95 396 1836C396 1847.05 404.954 1856 416 1856C427.046 1856 436 1847.05 436 1836C436 1824.95 427.046 1816 416 1816ZM464 1816C452.954 1816 444 1824.95 444 1836C444 1847.05 452.954 1856 464 1856C475.046 1856 484 1847.05 484 1836C484 1824.95 475.046 1816 464 1816ZM512 1816C500.954 1816 492 1824.95 492 1836C492 1847.05 500.954 1856 512 1856C523.046 1856 532 1847.05 532 1836C532 1824.95 523.046 1816 512 1816ZM64 1752C52.9543 1752 44 1760.95 44 1772C44 1783.05 52.9543 1792 64 1792C75.0457 1792 84 1783.05 84 1772C84 1760.95 75.0457 1752 64 1752ZM112 1752C100.954 1752 92 1760.95 92 1772C92 1783.05 100.954 1792 112 1792C123.046 1792 132 1783.05 132 1772C132 1760.95 123.046 1752 112 1752ZM160 1752C148.954 1752 140 1760.95 140 1772C140 1783.05 148.954 1792 160 1792C171.046 1792 180 1783.05 180 1772C180 1760.95 171.046 1752 160 1752ZM240 1752C228.954 1752 220 1760.95 220 1772C220 1783.05 228.954 1792 240 1792C251.046 1792 260 1783.05 260 1772C260 1760.95 251.046 1752 240 1752ZM288 1752C276.954 1752 268 1760.95 268 1772C268 1783.05 276.954 1792 288 1792C299.046 1792 308 1783.05 308 1772C308 1760.95 299.046 1752 288 1752ZM336 1752C324.954 1752 316 1760.95 316 1772C316 1783.05 324.954 1792 336 1792C347.046 1792 356 1783.05 356 1772C356 1760.95 347.046 1752 336 1752ZM416 1752C404.954 1752 396 1760.95 396 1772C396 1783.05 404.954 1792 416 1792C427.046 1792 436 1783.05 436 1772C436 1760.95 427.046 1752 416 1752ZM464 1752C452.954 1752 444 1760.95 444 1772C444 1783.05 452.954 1792 464 1792C475.046 1792 484 1783.05 484 1772C484 1760.95 475.046 1752 464 1752ZM512 1752C500.954 1752 492 1760.95 492 1772C492 1783.05 500.954 1792 512 1792C523.046 1792 532 1783.05 532 1772C532 1760.95 523.046 1752 512 1752ZM64 1688C52.9543 1688 44 1696.95 44 1708C44 1719.05 52.9543 1728 64 1728C75.0457 1728 84 1719.05 84 1708C84 1696.95 75.0457 1688 64 1688ZM112 1688C100.954 1688 92 1696.95 92 1708C92 1719.05 100.954 1728 112 1728C123.046 1728 132 1719.05 132 1708C132 1696.95 123.046 1688 112 1688ZM160 1688C148.954 1688 140 1696.95 140 1708C140 1719.05 148.954 1728 160 1728C171.046 1728 180 1719.05 180 1708C180 1696.95 171.046 1688 160 1688ZM240 1688C228.954 1688 220 1696.95 220 1708C220 1719.05 228.954 1728 240 1728C251.046 1728 260 1719.05 260 1708C260 1696.95 251.046 1688 240 1688ZM288 1688C276.954 1688 268 1696.95 268 1708C268 1719.05 276.954 1728 288 1728C299.046 1728 308 1719.05 308 1708C308 1696.95 299.046 1688 288 1688ZM336 1688C324.954 1688 316 1696.95 316 1708C316 1719.05 324.954 1728 336 1728C347.046 1728 356 1719.05 356 1708C356 1696.95 347.046 1688 336 1688ZM416 1688C404.954 1688 396 1696.95 396 1708C396 1719.05 404.954 1728 416 1728C427.046 1728 436 1719.05 436 1708C436 1696.95 427.046 1688 416 1688ZM464 1688C452.954 1688 444 1696.95 444 1708C444 1719.05 452.954 1728 464 1728C475.046 1728 484 1719.05 484 1708C484 1696.95 475.046 1688 464 1688ZM512 1688C500.954 1688 492 1696.95 492 1708C492 1719.05 500.954 1728 512 1728C523.046 1728 532 1719.05 532 1708C532 1696.95 523.046 1688 512 1688ZM64 1624C52.9543 1624 44 1632.95 44 1644C44 1655.05 52.9543 1664 64 1664C75.0457 1664 84 1655.05 84 1644C84 1632.95 75.0457 1624 64 1624ZM112 1624C100.954 1624 92 1632.95 92 1644C92 1655.05 100.954 1664 112 1664C123.046 1664 132 1655.05 132 1644C132 1632.95 123.046 1624 112 1624ZM160 1624C148.954 1624 140 1632.95 140 1644C140 1655.05 148.954 1664 160 1664C171.046 1664 180 1655.05 180 1644C180 1632.95 171.046 1624 160 1624ZM240 1624C228.954 1624 220 1632.95 220 1644C220 1655.05 228.954 1664 240 1664C251.046 1664 260 1655.05 260 1644C260 1632.95 251.046 1624 240 1624ZM288 1624C276.954 1624 268 1632.95 268 1644C268 1655.05 276.954 1664 288 1664C299.046 1664 308 1655.05 308 1644C308 1632.95 299.046 1624 288 1624ZM336 1624C324.954 1624 316 1632.95 316 1644C316 1655.05 324.954 1664 336 1664C347.046 1664 356 1655.05 356 1644C356 1632.95 347.046 1624 336 1624ZM416 1624C404.954 1624 396 1632.95 396 1644C396 1655.05 404.954 1664 416 1664C427.046 1664 436 1655.05 436 1644C436 1632.95 427.046 1624 416 1624ZM464 1624C452.954 1624 444 1632.95 444 1644C444 1655.05 452.954 1664 464 1664C475.046 1664 484 1655.05 484 1644C484 1632.95 475.046 1624 464 1624ZM512 1624C500.954 1624 492 1632.95 492 1644C492 1655.05 500.954 1664 512 1664C523.046 1664 532 1655.05 532 1644C532 1632.95 523.046 1624 512 1624ZM64 1560C52.9543 1560 44 1568.95 44 1580C44 1591.05 52.9543 1600 64 1600C75.0457 1600 84 1591.05 84 1580C84 1568.95 75.0457 1560 64 1560ZM112 1560C100.954 1560 92 1568.95 92 1580C92 1591.05 100.954 1600 112 1600C123.046 1600 132 1591.05 132 1580C132 1568.95 123.046 1560 112 1560ZM160 1560C148.954 1560 140 1568.95 140 1580C140 1591.05 148.954 1600 160 1600C171.046 1600 180 1591.05 180 1580C180 1568.95 171.046 1560 160 1560ZM240 1560C228.954 1560 220 1568.95 220 1580C220 1591.05 228.954 1600 240 1600C251.046 1600 260 1591.05 260 1580C260 1568.95 251.046 1560 240 1560ZM288 1560C276.954 1560 268 1568.95 268 1580C268 1591.05 276.954 1600 288 1600C299.046 1600 308 1591.05 308 1580C308 1568.95 299.046 1560 288 1560ZM336 1560C324.954 1560 316 1568.95 316 1580C316 1591.05 324.954 1600 336 1600C347.046 1600 356 1591.05 356 1580C356 1568.95 347.046 1560 336 1560ZM416 1560C404.954 1560 396 1568.95 396 1580C396 1591.05 404.954 1600 416 1600C427.046 1600 436 1591.05 436 1580C436 1568.95 427.046 1560 416 1560ZM464 1560C452.954 1560 444 1568.95 444 1580C444 1591.05 452.954 1600 464 1600C475.046 1600 484 1591.05 484 1580C484 1568.95 475.046 1560 464 1560ZM512 1560C500.954 1560 492 1568.95 492 1580C492 1591.05 500.954 1600 512 1600C523.046 1600 532 1591.05 532 1580C532 1568.95 523.046 1560 512 1560ZM46 1492C44.8954 1492 44 1492.9 44 1494V1526C44 1527.1 44.8954 1528 46 1528H530C531.105 1528 532 1527.1 532 1526V1494C532 1492.9 531.105 1492 530 1492H46ZM64 1392C52.9543 1392 44 1400.95 44 1412C44 1423.05 52.9543 1432 64 1432C75.0457 1432 84 1423.05 84 1412C84 1400.95 75.0457 1392 64 1392ZM112 1392C100.954 1392 92 1400.95 92 1412C92 1423.05 100.954 1432 112 1432C123.046 1432 132 1423.05 132 1412C132 1400.95 123.046 1392 112 1392ZM160 1392C148.954 1392 140 1400.95 140 1412C140 1423.05 148.954 1432 160 1432C171.046 1432 180 1423.05 180 1412C180 1400.95 171.046 1392 160 1392ZM240 1392C228.954 1392 220 1400.95 220 1412C220 1423.05 228.954 1432 240 1432C251.046 1432 260 1423.05 260 1412C260 1400.95 251.046 1392 240 1392ZM288 1392C276.954 1392 268 1400.95 268 1412C268 1423.05 276.954 1432 288 1432C299.046 1432 308 1423.05 308 1412C308 1400.95 299.046 1392 288 1392ZM336 1392C324.954 1392 316 1400.95 316 1412C316 1423.05 324.954 1432 336 1432C347.046 1432 356 1423.05 356 1412C356 1400.95 347.046 1392 336 1392ZM416 1392C404.954 1392 396 1400.95 396 1412C396 1423.05 404.954 1432 416 1432C427.046 1432 436 1423.05 436 1412C436 1400.95 427.046 1392 416 1392ZM464 1392C452.954 1392 444 1400.95 444 1412C444 1423.05 452.954 1432 464 1432C475.046 1432 484 1423.05 484 1412C484 1400.95 475.046 1392 464 1392ZM512 1392C500.954 1392 492 1400.95 492 1412C492 1423.05 500.954 1432 512 1432C523.046 1432 532 1423.05 532 1412C532 1400.95 523.046 1392 512 1392ZM26 1397C24.8954 1397 24 1397.9 24 1399V1425C24 1426.1 24.8954 1427 26 1427H34C35.1046 1427 36 1426.1 36 1425V1399C36 1397.9 35.1046 1397 34 1397H26ZM542 1397C540.895 1397 540 1397.9 540 1399V1425C540 1426.1 540.895 1427 542 1427H550C551.105 1427 552 1426.1 552 1425V1399C552 1397.9 551.105 1397 550 1397H542ZM46 1324C44.8954 1324 44 1324.9 44 1326V1358C44 1359.1 44.8954 1360 46 1360H530C531.105 1360 532 1359.1 532 1358V1326C532 1324.9 531.105 1324 530 1324H46ZM240 1224C228.954 1224 220 1232.95 220 1244C220 1255.05 228.954 1264 240 1264C251.046 1264 260 1255.05 260 1244C260 1232.95 251.046 1224 240 1224ZM288 1224C276.954 1224 268 1232.95 268 1244C268 1255.05 276.954 1264 288 1264C299.046 1264 308 1255.05 308 1244C308 1232.95 299.046 1224 288 1224ZM336 1224C324.954 1224 316 1232.95 316 1244C316 1255.05 324.954 1264 336 1264C347.046 1264 356 1255.05 356 1244C356 1232.95 347.046 1224 336 1224ZM26 1229C24.8954 1229 24 1229.9 24 1231V1257C24 1258.1 24.8954 1259 26 1259H34C35.1046 1259 36 1258.1 36 1257V1231C36 1229.9 35.1046 1229 34 1229H26ZM542 1229C540.895 1229 540 1229.9 540 1231V1257C540 1258.1 540.895 1259 542 1259H550C551.105 1259 552 1258.1 552 1257V1231C552 1229.9 551.105 1229 550 1229H542ZM64 1160C52.9543 1160 44 1168.95 44 1180C44 1191.05 52.9543 1200 64 1200C75.0457 1200 84 1191.05 84 1180C84 1168.95 75.0457 1160 64 1160ZM112 1160C100.954 1160 92 1168.95 92 1180C92 1191.05 100.954 1200 112 1200C123.046 1200 132 1191.05 132 1180C132 1168.95 123.046 1160 112 1160ZM160 1160C148.954 1160 140 1168.95 140 1180C140 1191.05 148.954 1200 160 1200C171.046 1200 180 1191.05 180 1180C180 1168.95 171.046 1160 160 1160ZM240 1160C228.954 1160 220 1168.95 220 1180C220 1191.05 228.954 1200 240 1200C251.046 1200 260 1191.05 260 1180C260 1168.95 251.046 1160 240 1160ZM288 1160C276.954 1160 268 1168.95 268 1180C268 1191.05 276.954 1200 288 1200C299.046 1200 308 1191.05 308 1180C308 1168.95 299.046 1160 288 1160ZM336 1160C324.954 1160 316 1168.95 316 1180C316 1191.05 324.954 1200 336 1200C347.046 1200 356 1191.05 356 1180C356 1168.95 347.046 1160 336 1160ZM416 1160C404.954 1160 396 1168.95 396 1180C396 1191.05 404.954 1200 416 1200C427.046 1200 436 1191.05 436 1180C436 1168.95 427.046 1160 416 1160ZM464 1160C452.954 1160 444 1168.95 444 1180C444 1191.05 452.954 1200 464 1200C475.046 1200 484 1191.05 484 1180C484 1168.95 475.046 1160 464 1160ZM512 1160C500.954 1160 492 1168.95 492 1180C492 1191.05 500.954 1200 512 1200C523.046 1200 532 1191.05 532 1180C532 1168.95 523.046 1160 512 1160ZM64 1096C52.9543 1096 44 1104.95 44 1116C44 1127.05 52.9543 1136 64 1136C75.0457 1136 84 1127.05 84 1116C84 1104.95 75.0457 1096 64 1096ZM112 1096C100.954 1096 92 1104.95 92 1116C92 1127.05 100.954 1136 112 1136C123.046 1136 132 1127.05 132 1116C132 1104.95 123.046 1096 112 1096ZM160 1096C148.954 1096 140 1104.95 140 1116C140 1127.05 148.954 1136 160 1136C171.046 1136 180 1127.05 180 1116C180 1104.95 171.046 1096 160 1096ZM240 1096C228.954 1096 220 1104.95 220 1116C220 1127.05 228.954 1136 240 1136C251.046 1136 260 1127.05 260 1116C260 1104.95 251.046 1096 240 1096ZM288 1096C276.954 1096 268 1104.95 268 1116C268 1127.05 276.954 1136 288 1136C299.046 1136 308 1127.05 308 1116C308 1104.95 299.046 1096 288 1096ZM336 1096C324.954 1096 316 1104.95 316 1116C316 1127.05 324.954 1136 336 1136C347.046 1136 356 1127.05 356 1116C356 1104.95 347.046 1096 336 1096ZM416 1096C404.954 1096 396 1104.95 396 1116C396 1127.05 404.954 1136 416 1136C427.046 1136 436 1127.05 436 1116C436 1104.95 427.046 1096 416 1096ZM464 1096C452.954 1096 444 1104.95 444 1116C444 1127.05 452.954 1136 464 1136C475.046 1136 484 1127.05 484 1116C484 1104.95 475.046 1096 464 1096ZM512 1096C500.954 1096 492 1104.95 492 1116C492 1127.05 500.954 1136 512 1136C523.046 1136 532 1127.05 532 1116C532 1104.95 523.046 1096 512 1096ZM64 1032C52.9543 1032 44 1040.95 44 1052C44 1063.05 52.9543 1072 64 1072C75.0457 1072 84 1063.05 84 1052C84 1040.95 75.0457 1032 64 1032ZM112 1032C100.954 1032 92 1040.95 92 1052C92 1063.05 100.954 1072 112 1072C123.046 1072 132 1063.05 132 1052C132 1040.95 123.046 1032 112 1032ZM160 1032C148.954 1032 140 1040.95 140 1052C140 1063.05 148.954 1072 160 1072C171.046 1072 180 1063.05 180 1052C180 1040.95 171.046 1032 160 1032ZM240 1032C228.954 1032 220 1040.95 220 1052C220 1063.05 228.954 1072 240 1072C251.046 1072 260 1063.05 260 1052C260 1040.95 251.046 1032 240 1032ZM288 1032C276.954 1032 268 1040.95 268 1052C268 1063.05 276.954 1072 288 1072C299.046 1072 308 1063.05 308 1052C308 1040.95 299.046 1032 288 1032ZM336 1032C324.954 1032 316 1040.95 316 1052C316 1063.05 324.954 1072 336 1072C347.046 1072 356 1063.05 356 1052C356 1040.95 347.046 1032 336 1032ZM416 1032C404.954 1032 396 1040.95 396 1052C396 1063.05 404.954 1072 416 1072C427.046 1072 436 1063.05 436 1052C436 1040.95 427.046 1032 416 1032ZM464 1032C452.954 1032 444 1040.95 444 1052C444 1063.05 452.954 1072 464 1072C475.046 1072 484 1063.05 484 1052C484 1040.95 475.046 1032 464 1032ZM512 1032C500.954 1032 492 1040.95 492 1052C492 1063.05 500.954 1072 512 1072C523.046 1072 532 1063.05 532 1052C532 1040.95 523.046 1032 512 1032ZM64 968C52.9543 968 44 976.954 44 988C44 999.046 52.9543 1008 64 1008C75.0457 1008 84 999.046 84 988C84 976.954 75.0457 968 64 968ZM112 968C100.954 968 92 976.954 92 988C92 999.046 100.954 1008 112 1008C123.046 1008 132 999.046 132 988C132 976.954 123.046 968 112 968ZM160 968C148.954 968 140 976.954 140 988C140 999.046 148.954 1008 160 1008C171.046 1008 180 999.046 180 988C180 976.954 171.046 968 160 968ZM240 968C228.954 968 220 976.954 220 988C220 999.046 228.954 1008 240 1008C251.046 1008 260 999.046 260 988C260 976.954 251.046 968 240 968ZM288 968C276.954 968 268 976.954 268 988C268 999.046 276.954 1008 288 1008C299.046 1008 308 999.046 308 988C308 976.954 299.046 968 288 968ZM336 968C324.954 968 316 976.954 316 988C316 999.046 324.954 1008 336 1008C347.046 1008 356 999.046 356 988C356 976.954 347.046 968 336 968ZM416 968C404.954 968 396 976.954 396 988C396 999.046 404.954 1008 416 1008C427.046 1008 436 999.046 436 988C436 976.954 427.046 968 416 968ZM464 968C452.954 968 444 976.954 444 988C444 999.046 452.954 1008 464 1008C475.046 1008 484 999.046 484 988C484 976.954 475.046 968 464 968ZM512 968C500.954 968 492 976.954 492 988C492 999.046 500.954 1008 512 1008C523.046 1008 532 999.046 532 988C532 976.954 523.046 968 512 968ZM64 904C52.9543 904 44 912.954 44 924C44 935.046 52.9543 944 64 944C75.0457 944 84 935.046 84 924C84 912.954 75.0457 904 64 904ZM112 904C100.954 904 92 912.954 92 924C92 935.046 100.954 944 112 944C123.046 944 132 935.046 132 924C132 912.954 123.046 904 112 904ZM160 904C148.954 904 140 912.954 140 924C140 935.046 148.954 944 160 944C171.046 944 180 935.046 180 924C180 912.954 171.046 904 160 904ZM240 904C228.954 904 220 912.954 220 924C220 935.046 228.954 944 240 944C251.046 944 260 935.046 260 924C260 912.954 251.046 904 240 904ZM288 904C276.954 904 268 912.954 268 924C268 935.046 276.954 944 288 944C299.046 944 308 935.046 308 924C308 912.954 299.046 904 288 904ZM336 904C324.954 904 316 912.954 316 924C316 935.046 324.954 944 336 944C347.046 944 356 935.046 356 924C356 912.954 347.046 904 336 904ZM416 904C404.954 904 396 912.954 396 924C396 935.046 404.954 944 416 944C427.046 944 436 935.046 436 924C436 912.954 427.046 904 416 904ZM464 904C452.954 904 444 912.954 444 924C444 935.046 452.954 944 464 944C475.046 944 484 935.046 484 924C484 912.954 475.046 904 464 904ZM512 904C500.954 904 492 912.954 492 924C492 935.046 500.954 944 512 944C523.046 944 532 935.046 532 924C532 912.954 523.046 904 512 904ZM64 840C52.9543 840 44 848.954 44 860C44 871.046 52.9543 880 64 880C75.0457 880 84 871.046 84 860C84 848.954 75.0457 840 64 840ZM112 840C100.954 840 92 848.954 92 860C92 871.046 100.954 880 112 880C123.046 880 132 871.046 132 860C132 848.954 123.046 840 112 840ZM160 840C148.954 840 140 848.954 140 860C140 871.046 148.954 880 160 880C171.046 880 180 871.046 180 860C180 848.954 171.046 840 160 840ZM240 840C228.954 840 220 848.954 220 860C220 871.046 228.954 880 240 880C251.046 880 260 871.046 260 860C260 848.954 251.046 840 240 840ZM288 840C276.954 840 268 848.954 268 860C268 871.046 276.954 880 288 880C299.046 880 308 871.046 308 860C308 848.954 299.046 840 288 840ZM336 840C324.954 840 316 848.954 316 860C316 871.046 324.954 880 336 880C347.046 880 356 871.046 356 860C356 848.954 347.046 840 336 840ZM416 840C404.954 840 396 848.954 396 860C396 871.046 404.954 880 416 880C427.046 880 436 871.046 436 860C436 848.954 427.046 840 416 840ZM464 840C452.954 840 444 848.954 444 860C444 871.046 452.954 880 464 880C475.046 880 484 871.046 484 860C484 848.954 475.046 840 464 840ZM512 840C500.954 840 492 848.954 492 860C492 871.046 500.954 880 512 880C523.046 880 532 871.046 532 860C532 848.954 523.046 840 512 840ZM64 776C52.9543 776 44 784.954 44 796C44 807.046 52.9543 816 64 816C75.0457 816 84 807.046 84 796C84 784.954 75.0457 776 64 776ZM112 776C100.954 776 92 784.954 92 796C92 807.046 100.954 816 112 816C123.046 816 132 807.046 132 796C132 784.954 123.046 776 112 776ZM160 776C148.954 776 140 784.954 140 796C140 807.046 148.954 816 160 816C171.046 816 180 807.046 180 796C180 784.954 171.046 776 160 776ZM240 776C228.954 776 220 784.954 220 796C220 807.046 228.954 816 240 816C251.046 816 260 807.046 260 796C260 784.954 251.046 776 240 776ZM288 776C276.954 776 268 784.954 268 796C268 807.046 276.954 816 288 816C299.046 816 308 807.046 308 796C308 784.954 299.046 776 288 776ZM336 776C324.954 776 316 784.954 316 796C316 807.046 324.954 816 336 816C347.046 816 356 807.046 356 796C356 784.954 347.046 776 336 776ZM416 776C404.954 776 396 784.954 396 796C396 807.046 404.954 816 416 816C427.046 816 436 807.046 436 796C436 784.954 427.046 776 416 776ZM464 776C452.954 776 444 784.954 444 796C444 807.046 452.954 816 464 816C475.046 816 484 807.046 484 796C484 784.954 475.046 776 464 776ZM512 776C500.954 776 492 784.954 492 796C492 807.046 500.954 816 512 816C523.046 816 532 807.046 532 796C532 784.954 523.046 776 512 776ZM64 712C52.9543 712 44 720.954 44 732C44 743.046 52.9543 752 64 752C75.0457 752 84 743.046 84 732C84 720.954 75.0457 712 64 712ZM112 712C100.954 712 92 720.954 92 732C92 743.046 100.954 752 112 752C123.046 752 132 743.046 132 732C132 720.954 123.046 712 112 712ZM160 712C148.954 712 140 720.954 140 732C140 743.046 148.954 752 160 752C171.046 752 180 743.046 180 732C180 720.954 171.046 712 160 712ZM240 712C228.954 712 220 720.954 220 732C220 743.046 228.954 752 240 752C251.046 752 260 743.046 260 732C260 720.954 251.046 712 240 712ZM288 712C276.954 712 268 720.954 268 732C268 743.046 276.954 752 288 752C299.046 752 308 743.046 308 732C308 720.954 299.046 712 288 712ZM336 712C324.954 712 316 720.954 316 732C316 743.046 324.954 752 336 752C347.046 752 356 743.046 356 732C356 720.954 347.046 712 336 712ZM416 712C404.954 712 396 720.954 396 732C396 743.046 404.954 752 416 752C427.046 752 436 743.046 436 732C436 720.954 427.046 712 416 712ZM464 712C452.954 712 444 720.954 444 732C444 743.046 452.954 752 464 752C475.046 752 484 743.046 484 732C484 720.954 475.046 712 464 712ZM512 712C500.954 712 492 720.954 492 732C492 743.046 500.954 752 512 752C523.046 752 532 743.046 532 732C532 720.954 523.046 712 512 712ZM46 644C44.8954 644 44 644.895 44 646V678C44 679.105 44.8954 680 46 680H530C531.105 680 532 679.105 532 678V646C532 644.895 531.105 644 530 644H46ZM64 544C52.9543 544 44 552.954 44 564C44 575.046 52.9543 584 64 584C75.0457 584 84 575.046 84 564C84 552.954 75.0457 544 64 544ZM112 544C100.954 544 92 552.954 92 564C92 575.046 100.954 584 112 584C123.046 584 132 575.046 132 564C132 552.954 123.046 544 112 544ZM160 544C148.954 544 140 552.954 140 564C140 575.046 148.954 584 160 584C171.046 584 180 575.046 180 564C180 552.954 171.046 544 160 544ZM240 544C228.954 544 220 552.954 220 564C220 575.046 228.954 584 240 584C251.046 584 260 575.046 260 564C260 552.954 251.046 544 240 544ZM288 544C276.954 544 268 552.954 268 564C268 575.046 276.954 584 288 584C299.046 584 308 575.046 308 564C308 552.954 299.046 544 288 544ZM336 544C324.954 544 316 552.954 316 564C316 575.046 324.954 584 336 584C347.046 584 356 575.046 356 564C356 552.954 347.046 544 336 544ZM416 544C404.954 544 396 552.954 396 564C396 575.046 404.954 584 416 584C427.046 584 436 575.046 436 564C436 552.954 427.046 544 416 544ZM464 544C452.954 544 444 552.954 444 564C444 575.046 452.954 584 464 584C475.046 584 484 575.046 484 564C484 552.954 475.046 544 464 544ZM512 544C500.954 544 492 552.954 492 564C492 575.046 500.954 584 512 584C523.046 584 532 575.046 532 564C532 552.954 523.046 544 512 544ZM64 480C52.9543 480 44 488.954 44 500C44 511.046 52.9543 520 64 520C75.0457 520 84 511.046 84 500C84 488.954 75.0457 480 64 480ZM112 480C100.954 480 92 488.954 92 500C92 511.046 100.954 520 112 520C123.046 520 132 511.046 132 500C132 488.954 123.046 480 112 480ZM160 480C148.954 480 140 488.954 140 500C140 511.046 148.954 520 160 520C171.046 520 180 511.046 180 500C180 488.954 171.046 480 160 480ZM240 480C228.954 480 220 488.954 220 500C220 511.046 228.954 520 240 520C251.046 520 260 511.046 260 500C260 488.954 251.046 480 240 480ZM288 480C276.954 480 268 488.954 268 500C268 511.046 276.954 520 288 520C299.046 520 308 511.046 308 500C308 488.954 299.046 480 288 480ZM336 480C324.954 480 316 488.954 316 500C316 511.046 324.954 520 336 520C347.046 520 356 511.046 356 500C356 488.954 347.046 480 336 480ZM416 480C404.954 480 396 488.954 396 500C396 511.046 404.954 520 416 520C427.046 520 436 511.046 436 500C436 488.954 427.046 480 416 480ZM464 480C452.954 480 444 488.954 444 500C444 511.046 452.954 520 464 520C475.046 520 484 511.046 484 500C484 488.954 475.046 480 464 480ZM512 480C500.954 480 492 488.954 492 500C492 511.046 500.954 520 512 520C523.046 520 532 511.046 532 500C532 488.954 523.046 480 512 480ZM64 416C52.9543 416 44 424.954 44 436C44 447.046 52.9543 456 64 456C75.0457 456 84 447.046 84 436C84 424.954 75.0457 416 64 416ZM112 416C100.954 416 92 424.954 92 436C92 447.046 100.954 456 112 456C123.046 456 132 447.046 132 436C132 424.954 123.046 416 112 416ZM160 416C148.954 416 140 424.954 140 436C140 447.046 148.954 456 160 456C171.046 456 180 447.046 180 436C180 424.954 171.046 416 160 416ZM240 416C228.954 416 220 424.954 220 436C220 447.046 228.954 456 240 456C251.046 456 260 447.046 260 436C260 424.954 251.046 416 240 416ZM288 416C276.954 416 268 424.954 268 436C268 447.046 276.954 456 288 456C299.046 456 308 447.046 308 436C308 424.954 299.046 416 288 416ZM336 416C324.954 416 316 424.954 316 436C316 447.046 324.954 456 336 456C347.046 456 356 447.046 356 436C356 424.954 347.046 416 336 416ZM416 416C404.954 416 396 424.954 396 436C396 447.046 404.954 456 416 456C427.046 456 436 447.046 436 436C436 424.954 427.046 416 416 416ZM464 416C452.954 416 444 424.954 444 436C444 447.046 452.954 456 464 456C475.046 456 484 447.046 484 436C484 424.954 475.046 416 464 416ZM512 416C500.954 416 492 424.954 492 436C492 447.046 500.954 456 512 456C523.046 456 532 447.046 532 436C532 424.954 523.046 416 512 416ZM64 352C52.9543 352 44 360.954 44 372C44 383.046 52.9543 392 64 392C75.0457 392 84 383.046 84 372C84 360.954 75.0457 352 64 352ZM112 352C100.954 352 92 360.954 92 372C92 383.046 100.954 392 112 392C123.046 392 132 383.046 132 372C132 360.954 123.046 352 112 352ZM160 352C148.954 352 140 360.954 140 372C140 383.046 148.954 392 160 392C171.046 392 180 383.046 180 372C180 360.954 171.046 352 160 352ZM240 352C228.954 352 220 360.954 220 372C220 383.046 228.954 392 240 392C251.046 392 260 383.046 260 372C260 360.954 251.046 352 240 352ZM288 352C276.954 352 268 360.954 268 372C268 383.046 276.954 392 288 392C299.046 392 308 383.046 308 372C308 360.954 299.046 352 288 352ZM336 352C324.954 352 316 360.954 316 372C316 383.046 324.954 392 336 392C347.046 392 356 383.046 356 372C356 360.954 347.046 352 336 352ZM416 352C404.954 352 396 360.954 396 372C396 383.046 404.954 392 416 392C427.046 392 436 383.046 436 372C436 360.954 427.046 352 416 352ZM464 352C452.954 352 444 360.954 444 372C444 383.046 452.954 392 464 392C475.046 392 484 383.046 484 372C484 360.954 475.046 352 464 352ZM512 352C500.954 352 492 360.954 492 372C492 383.046 500.954 392 512 392C523.046 392 532 383.046 532 372C532 360.954 523.046 352 512 352ZM64 288C52.9543 288 44 296.954 44 308C44 319.046 52.9543 328 64 328C75.0457 328 84 319.046 84 308C84 296.954 75.0457 288 64 288ZM112 288C100.954 288 92 296.954 92 308C92 319.046 100.954 328 112 328C123.046 328 132 319.046 132 308C132 296.954 123.046 288 112 288ZM160 288C148.954 288 140 296.954 140 308C140 319.046 148.954 328 160 328C171.046 328 180 319.046 180 308C180 296.954 171.046 288 160 288ZM240 288C228.954 288 220 296.954 220 308C220 319.046 228.954 328 240 328C251.046 328 260 319.046 260 308C260 296.954 251.046 288 240 288ZM288 288C276.954 288 268 296.954 268 308C268 319.046 276.954 328 288 328C299.046 328 308 319.046 308 308C308 296.954 299.046 288 288 288ZM336 288C324.954 288 316 296.954 316 308C316 319.046 324.954 328 336 328C347.046 328 356 319.046 356 308C356 296.954 347.046 288 336 288ZM416 288C404.954 288 396 296.954 396 308C396 319.046 404.954 328 416 328C427.046 328 436 319.046 436 308C436 296.954 427.046 288 416 288ZM464 288C452.954 288 444 296.954 444 308C444 319.046 452.954 328 464 328C475.046 328 484 319.046 484 308C484 296.954 475.046 288 464 288ZM512 288C500.954 288 492 296.954 492 308C492 319.046 500.954 328 512 328C523.046 328 532 319.046 532 308C532 296.954 523.046 288 512 288ZM64 224C52.9543 224 44 232.954 44 244C44 255.046 52.9543 264 64 264C75.0457 264 84 255.046 84 244C84 232.954 75.0457 224 64 224ZM112 224C100.954 224 92 232.954 92 244C92 255.046 100.954 264 112 264C123.046 264 132 255.046 132 244C132 232.954 123.046 224 112 224ZM160 224C148.954 224 140 232.954 140 244C140 255.046 148.954 264 160 264C171.046 264 180 255.046 180 244C180 232.954 171.046 224 160 224ZM240 224C228.954 224 220 232.954 220 244C220 255.046 228.954 264 240 264C251.046 264 260 255.046 260 244C260 232.954 251.046 224 240 224ZM288 224C276.954 224 268 232.954 268 244C268 255.046 276.954 264 288 264C299.046 264 308 255.046 308 244C308 232.954 299.046 224 288 224ZM336 224C324.954 224 316 232.954 316 244C316 255.046 324.954 264 336 264C347.046 264 356 255.046 356 244C356 232.954 347.046 224 336 224ZM416 224C404.954 224 396 232.954 396 244C396 255.046 404.954 264 416 264C427.046 264 436 255.046 436 244C436 232.954 427.046 224 416 224ZM464 224C452.954 224 444 232.954 444 244C444 255.046 452.954 264 464 264C475.046 264 484 255.046 484 244C484 232.954 475.046 224 464 224ZM512 224C500.954 224 492 232.954 492 244C492 255.046 500.954 264 512 264C523.046 264 532 255.046 532 244C532 232.954 523.046 224 512 224ZM46 156C44.8954 156 44 156.895 44 158V190C44 191.105 44.8954 192 46 192H530C531.105 192 532 191.105 532 190V158C532 156.895 531.105 156 530 156H46ZM64 56C52.9543 56 44 64.9543 44 76C44 87.0457 52.9543 96 64 96C75.0457 96 84 87.0457 84 76C84 64.9543 75.0457 56 64 56ZM512 56C500.954 56 492 64.9543 492 76C492 87.0457 500.954 96 512 96C523.046 96 532 87.0457 532 76C532 64.9543 523.046 56 512 56Z" fill="white"/>
</svg>
